<svg id="CampFire" xmlns="http://www.w3.org/2000/svg" viewBox="0 0 980.43 405.28"><defs><style>.cls-1{fill:#5c422a;}.cls-2{fill:#725335;}.cls-3{fill:#9c9c9c;}.cls-4{fill:#7b7b7b;}.cls-5{fill:#b6afec;}.cls-6{fill:#a67c52;}.cls-7{fill:#7d5d3e;}.cls-8{fill:#d7a16a;}</style></defs><title>CampFire</title><ellipse class="cls-1" cx="490.21" cy="228.17" rx="490.21" ry="158.44"/><ellipse class="cls-2" cx="490.21" cy="228.17" rx="407.22" ry="131.61"/><path class="cls-3" d="M6584.84,2804.79c-13.66,0-24.73,10.32-24.73,23.07v51.6h49.45v-51.6C6609.56,2815.11,6598.49,2804.79,6584.84,2804.79Z" transform="translate(-6486.87 -2713.17)"/><path class="cls-4" d="M6718.49,2713.17c-21.08,0-38.17,15.95-38.17,35.62v79.66h76.34v-79.66C6756.66,2729.12,6739.57,2713.17,6718.49,2713.17Z" transform="translate(-6486.87 -2713.17)"/><path class="cls-4" d="M7287.09,2757.91c-18.5,0-33.49,14-33.49,31.25v69.9h67v-69.9C7320.58,2771.9,7305.59,2757.91,7287.09,2757.91Z" transform="translate(-6486.87 -2713.17)"/><path class="cls-4" d="M6545.62,2782.91c-21.65,0-39.21,16.38-39.21,36.59v81.84h78.43V2819.5C6584.84,2799.29,6567.28,2782.91,6545.62,2782.91Z" transform="translate(-6486.87 -2713.17)"/><path class="cls-4" d="M7403.85,2795.13c-17.19,0-31.12,13-31.12,29v64.94H7435v-64.94C7435,2808.13,7421,2795.13,7403.85,2795.13Z" transform="translate(-6486.87 -2713.17)"/><path class="cls-3" d="M6763,2777.2c-11.44,0-20.72,8.66-20.72,19.33v43.24h41.44v-43.24C6783.67,2785.86,6774.39,2777.2,6763,2777.2Z" transform="translate(-6486.87 -2713.17)"/><path class="cls-3" d="M7216.65,2740.12c-13.66,0-24.73,10.33-24.73,23.07v51.6h49.45v-51.6C7241.37,2750.45,7230.3,2740.12,7216.65,2740.12Z" transform="translate(-6486.87 -2713.17)"/><path class="cls-5" d="M7333.07,2795.13c-13.65,0-24.72,10.33-24.72,23.07v51.6h49.45v-51.6C7357.8,2805.46,7346.73,2795.13,7333.07,2795.13Z" transform="translate(-6486.87 -2713.17)"/><path class="cls-5" d="M7166.6,2754.46c-10.41,0-18.84,7.87-18.84,17.58v39.31h37.68V2772C7185.44,2762.33,7177,2754.46,7166.6,2754.46Z" transform="translate(-6486.87 -2713.17)"/><path class="cls-5" d="M7441.71,2840.82c-14.13,0-25.59,10.69-25.59,23.87v53.41h51.18v-53.41C7467.3,2851.51,7455.84,2840.82,7441.71,2840.82Z" transform="translate(-6486.87 -2713.17)"/><path class="cls-5" d="M6520.59,2918.1c-13.83,0-25,10.46-25,23.36v52.25h50.07v-52.25C6545.62,2928.56,6534.41,2918.1,6520.59,2918.1Z" transform="translate(-6486.87 -2713.17)"/><path class="cls-4" d="M6560.11,2953.07c-14.86,0-26.91,11.24-26.91,25.11v56.16H6587v-56.16C6587,2964.31,6575,2953.07,6560.11,2953.07Z" transform="translate(-6486.87 -2713.17)"/><path class="cls-4" d="M7315.34,2941.34c-21.08,0-38.17,15.95-38.17,35.62v79.66h76.34V2977C7353.51,2957.29,7336.42,2941.34,7315.34,2941.34Z" transform="translate(-6486.87 -2713.17)"/><path class="cls-3" d="M7403.85,2949.25c-13.66,0-24.73,10.33-24.73,23.07v51.6h49.45v-51.6C7428.57,2959.58,7417.5,2949.25,7403.85,2949.25Z" transform="translate(-6486.87 -2713.17)"/><path class="cls-5" d="M6704.06,2976.71c-21.08,0-38.17,15.94-38.17,35.61V3092h76.34v-79.66C6742.23,2992.65,6725.14,2976.71,6704.06,2976.71Z" transform="translate(-6486.87 -2713.17)"/><path class="cls-3" d="M6742.23,3042.2c-11.25,0-20.37,8.51-20.37,19v42.5h40.74v-42.5C6762.6,3050.71,6753.48,3042.2,6742.23,3042.2Z" transform="translate(-6486.87 -2713.17)"/><path class="cls-4" d="M6952.67,3044.71c-13.48,0-24.41,10.2-24.41,22.79v50.95h48.83V3067.5C6977.09,3054.91,6966.15,3044.71,6952.67,3044.71Z" transform="translate(-6486.87 -2713.17)"/><path class="cls-3" d="M7265.79,3007.85c-13.49,0-24.42,10.2-24.42,22.78v50.95h48.83v-50.95C7290.2,3018.05,7279.27,3007.85,7265.79,3007.85Z" transform="translate(-6486.87 -2713.17)"/><path class="cls-3" d="M7166.6,3008.42c-17.63,0-31.92,13.34-31.92,29.78v66.62h63.84V3038.2C7198.52,3021.76,7184.23,3008.42,7166.6,3008.42Z" transform="translate(-6486.87 -2713.17)"/><rect class="cls-6" x="309.61" y="158.4" width="340.84" height="92.43"/><path class="cls-6" d="M6888.92,2964H6704.06a92.43,92.43,0,0,1,184.86,0Z" transform="translate(-6486.87 -2713.17)"/><path class="cls-7" d="M7229.76,2964.62H7044.9a92.43,92.43,0,0,1,184.86,0Z" transform="translate(-6486.87 -2713.17)"/><path class="cls-8" d="M7210.36,2964.62H7064.29a73,73,0,0,1,146.07,0Z" transform="translate(-6486.87 -2713.17)"/></svg>