<svg id="ShortLog" xmlns="http://www.w3.org/2000/svg" viewBox="0 0 937.34 189.58"><defs><style>.cls-1{fill:#a66052;}.cls-2{fill:#7d4f3e;}.cls-3{fill:#d7896a;}</style></defs><title>LogBenchTwo</title><rect class="cls-1" x="213.14" y="4.71" width="540.57" height="183.63"/><path class="cls-1" d="M5451,2942H5083.77c0-101.41,82.22-183.63,183.63-183.63S5451,2840.55,5451,2942Z" transform="translate(-5054.26 -2753)"/><path class="cls-2" d="M5991.6,2942.58H5624.34c0-101.42,82.22-183.64,183.63-183.64S5991.6,2841.16,5991.6,2942.58Z" transform="translate(-5054.26 -2753)"/><path class="cls-3" d="M5953.07,2942.58h-290.2a145.1,145.1,0,1,1,290.2,0Z" transform="translate(-5054.26 -2753)"/><rect class="cls-1" x="5085.48" y="2838.09" width="53.02" height="117.16" rx="26.51" transform="translate(-3934.3 4454.92) rotate(-76.74)"/><rect class="cls-2" x="5550.48" y="2738.89" width="60.73" height="117.16" rx="30.37" transform="translate(-4686.53 3478.89) rotate(-60)"/><path class="cls-2" d="M5899.79,2942.58H5716.16a91.82,91.82,0,1,1,183.63,0Z" transform="translate(-5054.26 -2753)"/></svg>