<svg id="LongLog" xmlns="http://www.w3.org/2000/svg" viewBox="0 0 1044.43 222.2"><defs><style>.cls-1{fill:#a67c52;}.cls-2{fill:#7d5d3e;}.cls-3{fill:#d7a16a;}</style></defs><title>LogBenchOne</title><rect class="cls-1" x="183.63" y="37.33" width="677.16" height="183.63"/><path class="cls-1" d="M5526,3341H5158.77c0-101.41,82.22-183.63,183.63-183.63S5526,3239.54,5526,3341Z" transform="translate(-5158.77 -3119.99)"/><path class="cls-2" d="M6203.2,3342.19H5835.94c0-101.42,82.21-183.64,183.63-183.64S6203.2,3240.77,6203.2,3342.19Z" transform="translate(-5158.77 -3119.99)"/><path class="cls-3" d="M6164.67,3342.19h-290.2a145.1,145.1,0,0,1,290.2,0Z" transform="translate(-5158.77 -3119.99)"/><rect class="cls-1" x="5226.63" y="3110.59" width="53.02" height="117.16" rx="26.51" transform="translate(-5861.11 1522.77) rotate(-45)"/><rect class="cls-2" x="5692.88" y="3211.05" width="60.73" height="117.16" rx="30.37" transform="translate(-3172.49 5579.3) rotate(-85.2)"/><path class="cls-2" d="M6111.38,3342.19H5927.75a91.82,91.82,0,1,1,183.63,0Z" transform="translate(-5158.77 -3119.99)"/></svg>