<svg id="Tent3" xmlns="http://www.w3.org/2000/svg" viewBox="0 0 1575.9 927.91"><defs><style>.cls-1{fill:#957552;}.cls-2{fill:#75afb2;}.cls-3{fill:#91bfc1;}.cls-4{fill:#53749f;}.cls-5{fill:#c69c6d;}.cls-6{fill:#3e6a77;}.cls-7{fill:#255de0;}</style></defs><title>TentThree</title><rect class="cls-1" x="1494.19" y="650.82" width="81.7" height="233.41" rx="40.85"/><path class="cls-2" d="M4272.16,5570.14H2965.87c-36.9,0-63.64-39.6-53.79-79.66l10.17-41.34,38.64-157.05,4.13-16.79,70.65-287.14,5.2-21.14,44.58-181.17,10.69-43.43c2.77-30.88,25.87-56.5,55.55-56.5h934.66c29.68,0,52.76,25.62,55.55,56.5l10.69,43.43,12.28,49.93,12.76,51.83L4326,5490.48C4335.81,5530.54,4309.07,5570.14,4272.16,5570.14Z" transform="translate(-2840.96 -4685.92)"/><path class="cls-3" d="M4152.59,4785.85H3085.45l10.69-43.43c2.77-30.88,25.87-56.5,55.55-56.5h934.66c29.68,0,52.76,25.62,55.55,56.5Z" transform="translate(-2840.96 -4685.92)"/><path class="cls-4" d="M3928,5449.14v121H2965.87c-36.9,0-63.64-39.6-53.79-79.66l10.17-41.34Z" transform="translate(-2840.96 -4685.92)"/><rect class="cls-5" y="694.49" width="81.7" height="233.41" rx="40.85"/><rect class="cls-5" x="744.57" y="694.49" width="81.7" height="233.41" rx="40.85"/><path class="cls-4" d="M3806.8,5140.17c-45.65-.05-92.33,11.45-136.47,34.15A335,335,0,0,0,3515,5341.84c-30.64,72.69-32.61,149.55-5.52,216.4q2.45,6.06,5.18,11.9h17.54q-4.77-9.21-8.77-19.07c-52.19-128.81,16.56-290.78,153.25-361,45.3-23.29,92.48-33.62,137.19-32.34Z" transform="translate(-2840.96 -4685.92)"/><path class="cls-4" d="M3210.7,4685.92q-3.69,22.82-9,44.52h0q-2.26,9.23-4.81,18.23c-11.56,40.85-27.38,78.14-46.72,110.47q-4.77,8-9.83,15.55c-27.62,41.37-61.4,73.29-99.43,92.32l-5.2,21.14a227.32,227.32,0,0,0,49.09-29c24.95-19.14,47.48-43.64,67.24-73.09q5.07-7.54,9.88-15.51,4-6.59,7.78-13.44c17.41-31.44,31.45-66.13,41.92-103.12q2.55-9,4.82-18.23,6-24.37,10-49.83Z" transform="translate(-2840.96 -4685.92)"/><path class="cls-4" d="M4272.16,5570.15H3730.21c-36.89,0-63.64-39.61-53.79-79.67l184.06-748.06c2.79-30.87,25.88-56.5,55.55-56.5h170.32c29.68,0,52.77,25.63,55.56,56.5l184,748.06C4335.82,5530.54,4309.07,5570.15,4272.16,5570.15Z" transform="translate(-2840.96 -4685.92)"/><path class="cls-6" d="M3983.23,4759.12l-199,811h434l-199-811C4014.54,4740.34,3987.84,4740.34,3983.23,4759.12Z" transform="translate(-2840.96 -4685.92)"/><path class="cls-4" d="M3097.36,4820.51h0a10.36,10.36,0,0,0,.88,13.41l70.65,68.52a7.79,7.79,0,0,0,11.9-1h0a10.34,10.34,0,0,0-.89-13.41l-70.64-68.52A7.79,7.79,0,0,0,3097.36,4820.51Z" transform="translate(-2840.96 -4685.92)"/><path class="cls-6" d="M3511.25,4861.22a165.89,165.89,0,0,0-42.55-27.38c-58.95-26.3-133.43-14.56-196.09,27.24a270.29,270.29,0,0,0-21.8,16.17c1.43.54,2.84,1.11,4.24,1.74,1,.46,2,1,3,1.41a1,1,0,0,0,.18.09l.05,0h0l.1.06,1.33.74c2.23,1.27,4.39,2.66,6.49,4.13q2.72,1.95,5.3,4.12c1.44,1.23,3.55,2.55,4.84,4.19a4.89,4.89,0,0,0,.59.89c.44.47.87.95,1.3,1.43.7.81,1.4,1.63,2.09,2.47.49.6,1,1.21,1.44,1.82,2.94-2,6.14-3.75,8.64-5.37q5.6-3.63,11.32-6.9,7.76-4.45,15.7-8.23c1.26-.59,2.52-1.16,3.78-1.76-.71.3-1.05.42-1.14.45.34-.2,2.35-1.07,2.44-1.07-.08.05-.45.24-1.29.62l.13-.05c2.14-.86,4.27-1.76,6.42-2.59,5.17-2,10.39-3.78,15.61-5.33q7.26-2.16,14.54-3.74c2.22-.48,4.44-.93,6.66-1.33.85-.15,3.31-1,4-.68l-1.77.26.56-.07c.68-.1,1.34-.19,2-.26a176,176,0,0,1,30.33-1.21c4.85.21,9.64.65,14.38,1.28l1.28.19.82.12h.08l.48.13c2.93.54,5.82,1.15,8.69,1.85a149.87,149.87,0,0,1,25.74,8.78c2,.9,3.94,1.94,5.95,2.82l-.33-.18c-3.57-2,2.88,1.29.43.23.92.53,1.83,1,2.74,1.53q6.3,3.59,12.2,7.78c.17.11.35.24.52.37,3.24,2.32,6.41,4.79,9.46,7.37,1.81,1.54,4.19,3.16,6.3,5,.68-.61,1.38-1.22,2.08-1.82,1.17-1,2.36-2,3.55-3l1.51-1.19a3.8,3.8,0,0,0,.79-.83,64.35,64.35,0,0,1,6.44-4.22,127.37,127.37,0,0,1,14.36-8l1.86-.86-.47.17a13.9,13.9,0,0,1,1.29-.56l-.59.29c1.13-.46,2.27-.94,3.41-1.38,1.49-.57,3-1.13,4.5-1.62A170.23,170.23,0,0,0,3511.25,4861.22Zm-97,3.18a5.92,5.92,0,0,1,1.87.28Zm152.51,204.32c-2.4,1.34-4.82,2.6-7.27,3.76-.68.33-1.34.63-2,.94l-.6.29a7.63,7.63,0,0,0,1.17-.53c-1,1-3.55,1.46-4.75,1.91a108.65,108.65,0,0,1-15.34,4.56c-1.42.31-2.84.58-4.26.83l-1.07.16-.12,0a.23.23,0,0,1-.11,0l-.2,0c-1.71.21-3.42.39-5.13.51-.34,1.32-.69,2.64-1.07,4-.21.75-.44,1.52-.66,2.28.37-1.44.53-2,.54-2.15-.08.21-1,3.51-1.27,4.4q-2.36,7.32-5.15,14.55-3.37,8.79-7.36,17.37c-2.23,4.81-4.66,9.51-7.11,14.22a.91.91,0,0,1-.07.14c.5-.87.73-1.25.79-1.33,0,.1-1.16,2.2-1.39,2.54,0-.1.21-.45.6-1.2-.76,1.31-1.49,2.61-2.25,3.91q-2.28,3.9-4.68,7.73a285.57,285.57,0,0,1-19.49,27.34c-1.21,1.5-2.54,3.53-3.95,5.09,1-.82,1.54-1.07-1,.94.31-.28.61-.59.92-.92a12.34,12.34,0,0,0-1.35,1.25q-1,1.11-2,2.19-6,6.55-12.28,12.64-5.78,5.61-11.84,10.79c-1.83,1.58-3.69,3.12-5.55,4.64-1.12.91-2.26,1.82-3.39,2.7l-1.56,1.21a2.4,2.4,0,0,1,.26-.18l-1,.73.71-.55q-2.87,2.07-5.76,4.08c-6.37,4.42-12.85,8.56-19.49,12.3.1.4.19.79.29,1.2.15.64.29,1.28.43,1.93l0,.16a.64.64,0,0,0,0,.07c.44,2.63.87,5.25,1.17,7.94a119.07,119.07,0,0,1,.63,17.38c0,.17,0,.39,0,.6h0c0,.37-.08.76-.1,1-.11,1.59-.26,3.17-.43,4.75-.31,2.84-.72,5.69-1.2,8.54q11.18-5.64,22-12.46c57.36-36.24,105.25-96.61,126.35-164.76.39-1.26.78-2.52,1.15-3.79,2.68-8.91,5-17.83,6.93-26.81C3568,5068,3567.39,5068.39,3566.78,5068.72ZM3227.4,5220a27.55,27.55,0,0,1-4-3.64c-.11,0-.51-.43-1.23-1.69a12.72,12.72,0,0,0,1.23,1.69c.15,0-.09-.6-.61-1.18-.82-.9-1.66-1.77-2.47-2.68-1.61-1.8-3.19-3.66-4.73-5.55a162.86,162.86,0,0,1-15.9-23.43c-.61-1.09-1.2-2.19-1.8-3.29-1.54-2.82.1.47.46,1-1.47-1.55-2.31-4.77-3.23-6.8q-3-6.68-5.51-13.69c-1.53-4.27-2.91-8.64-4.13-13.08-.71-2.56-1.37-5.13-2-7.73-.25-1.08-.48-2.18-.74-3.26,0-.19-.07-.37-.11-.52.54,3.28-.9-3.82,0,0a2.16,2.16,0,0,1-.05-.27,235.31,235.31,0,0,1-3.4-31.61s0-.07,0-.12q-.24-7.16,0-14.41c0-.92-.28-3.52.16-4.38-.05.93-.1,1.87-.16,2.8.06-1,.12-2,.19-2.95.1-1.32.2-2.65.32-4-1.65-.13-3.3-.31-4.94-.52l-.35,0,.27,0c-.43.17-1.59-.28-2-.37-1.11-.2-2.2-.44-3.3-.7a75.41,75.41,0,0,1-7.65-2.2,71.42,71.42,0,0,1-6.69-2.63c-1-.44-2-.91-2.93-1.37.29.17.44.25.49.29a8.53,8.53,0,0,1-1.09-.56l.4.18-1.54-.88a77.07,77.07,0,0,1-7.45-4.83,261,261,0,0,0-2.56,26.68c-1.42,31.33,2.83,61.8,12.57,88.82,11.62,32.23,30.93,60.17,55.89,80.13a152.85,152.85,0,0,0,17.65,12.22c.55-3.12,1.21-6.22,2-9.32.32-1.33.67-2.64,1-4,0-.13.07-.26.1-.39l-.09.31a4.72,4.72,0,0,1,.43-1.5v0l0-.06.16-.42q1.41-4.44,3.12-8.81c1.07-2.75,2.24-5.49,3.48-8.18.57-1.22,1.15-2.44,1.74-3.65.49-1,1.08-2.62,1.78-3.84,0,.15.15,0,.47-.52s.79-1.39,1.2-2.09c.24-.41.48-.8.72-1.2q-5.64-3.94-10.89-8.44C3230.48,5222.38,3228.93,5221.25,3227.4,5220Zm-53.29-139.41H3174l.21,0Z" transform="translate(-2840.96 -4685.92)"/><path class="cls-7" d="M3643.87,4903.67c-9.88-21.49-25.79-37.7-46.23-46.81-25.89-11.56-57.42-9.31-86.39,4.36a143.5,143.5,0,0,0-38.53,26.81c-2.42,2.35-4.79,4.79-7.07,7.32a168.27,168.27,0,0,0-38.68,72.72c-6.25,25.82-5.21,52.36,2.79,74.52,7.79,21.62,22.1,39.61,40.73,50a93.55,93.55,0,0,0,49,11.65,109.24,109.24,0,0,0,20-2.49,114.76,114.76,0,0,0,22.14-7.29c38.08-16.8,71.48-54,84.81-97a172.82,172.82,0,0,0,5.12-20.52v-.08C3656.07,4950.89,3653.6,4924.85,3643.87,4903.67Zm-183.72,32a5.16,5.16,0,0,0-.82,1.15A3,3,0,0,1,3460.15,4935.66Zm169.21,50.09c-.38,1.59-.79,3.18-1.23,4.75-.11.41-.24.81-.36,1.21.2-.75.28-1.09.29-1.13s-.52,1.85-.67,2.34a148,148,0,0,1-6.66,17c-1.18,2.56-2.47,5-3.78,7.56l.37-.61c-.08.16-.58,1.1-.72,1.31l.22-.45c-.37.63-.73,1.27-1.1,1.91-.8,1.38-1.64,2.75-2.49,4.11a152.47,152.47,0,0,1-10.36,14.54c-.64.8-1.36,1.88-2.1,2.7.55-.45.84-.58-.67.64a6.34,6.34,0,0,0,.65-.63,6.49,6.49,0,0,0-.72.67l-1.05,1.17q-3.18,3.48-6.53,6.72c-2,2-4.14,3.9-6.3,5.73-1,.83-2,1.65-3,2.46-.59.49-1.19,1-1.8,1.44l-.83.65-.1.07c-3.89,2.81-7.83,5.43-11.88,7.81-.6.35-1.2.7-1.81,1-2.4,1.34-4.82,2.6-7.27,3.76-.68.33-1.34.63-2,.94l-.6.29a7.63,7.63,0,0,0,1.17-.53c-1,1-3.55,1.46-4.75,1.91a108.65,108.65,0,0,1-15.34,4.56c-1.42.31-2.84.58-4.26.83l-1.07.16-.12,0a.23.23,0,0,1-.11,0l-.2,0c-1.71.21-3.42.39-5.13.51-1.16.09-2.32.16-3.47.2a90,90,0,0,1-15.53-.71l-.34,0,.26,0c-.43.17-1.58-.28-2-.37-1.11-.2-2.2-.44-3.3-.7a76.16,76.16,0,0,1-7.65-2.2,71.23,71.23,0,0,1-6.68-2.63c-1-.44-2-.91-2.94-1.37.29.17.44.25.49.29a10.11,10.11,0,0,1-1.09-.56l.41.18c-.52-.3-1-.58-1.55-.88a79,79,0,0,1-12-8.45,36.26,36.26,0,0,1-4.42-3.77c-.06,0-.27-.23-.66-.89a6.82,6.82,0,0,0,.66.89c.08,0,0-.31-.32-.62-.45-.48-.88-.94-1.31-1.43-.86-1-1.7-1.94-2.53-2.95a88.4,88.4,0,0,1-8.45-12.45l-1-1.75c-.21-.39-.3-.56-.33-.6a8,8,0,0,0,.58,1.11c-.78-.83-1.23-2.53-1.72-3.61-1.07-2.38-2-4.79-2.93-7.29-.81-2.27-1.55-4.6-2.2-6.95-.37-1.36-.72-2.73-1-4.11-.14-.58-.26-1.16-.4-1.73,0-.05,0-.11,0-.15.16,1-.17-.52-.18-.73a3.65,3.65,0,0,1,.12.44,129.17,129.17,0,0,1-1.8-16.87c-.09-2.53-.09-5.08,0-7.65a7.86,7.86,0,0,1,.09-2.33c0,.25,0,.48,0,.74l.06-.83c.11-1.57.26-3.16.43-4.75a138.9,138.9,0,0,1,3.3-18.48c.33-1.32.67-2.63,1-4,0-.13.07-.26.1-.39a1.81,1.81,0,0,1-.09.31,4.42,4.42,0,0,1,.44-1.49v0c.07-.17.12-.32.16-.43.94-3,2-5.89,3.13-8.81,1.06-2.75,2.23-5.48,3.48-8.18.56-1.22,1.14-2.44,1.73-3.64.49-1,1.08-2.62,1.78-3.84,0,.14.16,0,.47-.52.4-.7.79-1.4,1.2-2.08.81-1.4,1.63-2.76,2.49-4.12q2.33-3.7,4.87-7.28c1.69-2.37,3.43-4.69,5.25-7,.84-1,1.71-2.06,2.56-3.09-.36.38-.51.56-.56.59s.86-1,1-1.12-.1.13-.22.29-.11.14-.17.2c.69-.76,1.37-1.54,2.07-2.3q4.88-5.3,10.21-10.05c.68-.61,1.38-1.22,2.08-1.82,1.17-1,2.36-2,3.55-3l1.51-1.19a3.8,3.8,0,0,0,.79-.83,11.11,11.11,0,0,0-1,1c1-1.06,1.17-1.19,1-1a64.35,64.35,0,0,1,6.44-4.22,127.37,127.37,0,0,1,14.36-8l1.86-.86-.47.17a13.9,13.9,0,0,1,1.29-.56l-.59.29c1.13-.46,2.27-.94,3.41-1.38,1.49-.57,3-1.13,4.5-1.62,1.27-.43,2.53-.83,3.8-1.21,2.57-.77,5.15-1.44,7.73-2,1.18-.26,2.36-.49,3.54-.71.46-.08,1.76-.53,2.14-.36l-.64.1,1.07-.14a93.2,93.2,0,0,1,16.13-.64q3.87.16,7.64.68l.69.1h0l-.64-.1a3.22,3.22,0,0,1,1,.16h.08l.26.07c1.56.28,3.09.62,4.62,1a79.74,79.74,0,0,1,13.69,4.67c1.06.48,2.09,1,3.16,1.5a.91.91,0,0,1-.17-.09c-.32-.17-.5-.28-.56-.32.21.06,1.72.84.79.44l1.46.81c2.22,1.27,4.38,2.66,6.48,4.13q2.73,1.95,5.31,4.12c1.44,1.23,3.55,2.55,4.83,4.19-.19-.39-.15-.44.57.83a7.64,7.64,0,0,0-.57-.83,4.89,4.89,0,0,0,.59.89c.45.47.88.95,1.3,1.43.71.81,1.41,1.63,2.09,2.47q2.46,3,4.66,6.27c1.27,1.91,2.49,3.88,3.63,5.9.27.47.54,1,.81,1.45a3.48,3.48,0,0,0,.5.69,4,4,0,0,0-.45-.64c1.07,1.21.84,1.09.45.64.53.9.88,2.1,1.29,3a100.24,100.24,0,0,1,5.31,14.92c.31,1.14.59,2.28.86,3.44.15.62.29,1.27.44,1.91,0-.25-.06-.39-.07-.46a11.08,11.08,0,0,1,.25,1.23,4.78,4.78,0,0,1-.14-.53c.44,2.63.87,5.25,1.17,7.93a120.53,120.53,0,0,1,.64,17.38,4.14,4.14,0,0,0,0,.6,3.24,3.24,0,0,0,0-.54c.29,2.27.07,1.45,0,.55,0,.37-.09.76-.1,1-.12,1.59-.26,3.17-.44,4.76-.31,3-.74,5.88-1.25,8.84S3630.08,4982.81,3629.36,4985.75Z" transform="translate(-2840.96 -4685.92)"/><path class="cls-7" d="M3174.11,5080.62H3174l.21,0Zm0,0H3174l.21,0Zm0,0H3174l.21,0Zm136.46-176.95a102.46,102.46,0,0,0-8.84-15.56,90.18,90.18,0,0,0-29.12-27,85.64,85.64,0,0,0-8.27-4.22c-40.68-18.16-95.28-2.24-132,38.49a168.25,168.25,0,0,0-38.67,72.72c-6.26,25.82-5.21,52.36,2.78,74.52,7.8,21.62,22.1,39.61,40.74,50,1,.59,2.12,1.15,3.2,1.7a92.5,92.5,0,0,0,38.87,9.93,107.3,107.3,0,0,0,26.95-2.47c46.78-10.15,91.09-53.11,106.95-104.32a172.88,172.88,0,0,0,5.13-20.52v-.08C3322.76,4950.89,3320.3,4924.85,3310.57,4903.67Zm-183.73,32a5.89,5.89,0,0,0-.82,1.15A3.11,3.11,0,0,1,3126.84,4935.66Zm169.22,50.09c-.38,1.59-.79,3.18-1.24,4.75-.11.41-.23.81-.35,1.21.2-.75.28-1.09.29-1.13s-.52,1.85-.67,2.34a149.91,149.91,0,0,1-6.66,17c-1.18,2.56-2.47,5-3.78,7.56.21-.36.32-.54.37-.61-.08.16-.58,1.1-.72,1.31l.22-.45c-.37.63-.73,1.27-1.1,1.91q-1.22,2.07-2.49,4.11a150.81,150.81,0,0,1-10.37,14.54c-.64.8-1.35,1.88-2.09,2.7.54-.45.84-.58-.68.64a5.46,5.46,0,0,0,.65-.63,7.52,7.52,0,0,0-.72.67l-1,1.17q-3.18,3.48-6.53,6.72c-2.05,2-4.15,3.9-6.3,5.73-1,.83-2,1.65-2.95,2.46-.6.49-1.2,1-1.8,1.44l-.83.65-.1.07a141.56,141.56,0,0,1-13.69,8.84c-2.4,1.34-4.82,2.6-7.28,3.76-.67.33-1.33.63-2,.94a3.37,3.37,0,0,0-.44.23,10.79,10.79,0,0,0,1-.47c-1,1-3.55,1.46-4.75,1.91a109.44,109.44,0,0,1-15.34,4.56c-1.42.31-2.84.58-4.26.83l-1.07.16-.12,0-.11,0-.2,0c-2.88.37-5.75.6-8.6.71a90.94,90.94,0,0,1-10.59-.19c-1.65-.13-3.3-.31-4.94-.52l-.35,0,.27,0c-.43.17-1.59-.28-2-.37-1.11-.2-2.2-.44-3.3-.7a75.41,75.41,0,0,1-7.65-2.2,71.42,71.42,0,0,1-6.69-2.63c-1-.44-2-.91-2.93-1.37.29.17.44.25.49.29a8.53,8.53,0,0,1-1.09-.56l.4.18-1.54-.88a77.07,77.07,0,0,1-7.45-4.83q-2.37-1.72-4.59-3.62a35.52,35.52,0,0,1-4.42-3.77c-.06,0-.28-.23-.66-.89a6.82,6.82,0,0,0,.66.89c.08,0-.05-.31-.33-.62-.44-.48-.88-.94-1.31-1.43-.85-1-1.7-1.94-2.52-2.95a88.4,88.4,0,0,1-8.45-12.45c-.33-.59-.64-1.17-1-1.75-.21-.39-.3-.56-.33-.6a8,8,0,0,0,.58,1.11c-.79-.83-1.24-2.53-1.73-3.61-1.06-2.38-2-4.79-2.92-7.29-.82-2.27-1.55-4.6-2.2-6.95-.37-1.36-.73-2.73-1.05-4.11-.13-.58-.25-1.16-.39-1.73,0-.11,0-.21-.06-.28a3.68,3.68,0,0,1,.06.46c0-.11-.19-.91-.21-1.06,0,.06.07.23.15.6a.66.66,0,0,0,0-.15,127.62,127.62,0,0,1-1.81-16.88q-.12-3.8,0-7.65a8.6,8.6,0,0,1,.09-2.33c0,.11,0,.23,0,.33l0-.42c.11-1.57.26-3.16.43-4.75a135.75,135.75,0,0,1,3.3-18.48c.32-1.32.67-2.63,1-4,.07-.23.14-.49.2-.72-.06.18-.12.4-.19.64a4.37,4.37,0,0,1,.43-1.49l0,0,.16-.43c.94-3,2-5.89,3.12-8.81q1.6-4.12,3.48-8.18c.57-1.22,1.15-2.44,1.74-3.64.48-1,1.08-2.62,1.77-3.84,0,.14.17,0,.48-.52.4-.7.79-1.4,1.19-2.08.81-1.4,1.64-2.76,2.49-4.12q2.33-3.7,4.88-7.28t5.24-7c.85-1,1.72-2.06,2.57-3.09-.36.38-.52.56-.56.59s.85-1,1-1.12-.1.13-.22.29l-.16.2c.69-.76,1.37-1.54,2.07-2.3a143.19,143.19,0,0,1,12.29-11.87c1.17-1,2.36-2,3.54-3l1.52-1.19a3.8,3.8,0,0,0,.79-.83,11.25,11.25,0,0,0-1.05,1c1-1.06,1.18-1.19,1.05-1a63.23,63.23,0,0,1,6.44-4.22,127.37,127.37,0,0,1,14.36-8l1.85-.86-.46.17a11.9,11.9,0,0,1,1.29-.56l-.59.29c1.13-.46,2.26-.94,3.4-1.38,2.76-1.06,5.53-2,8.3-2.83,2.58-.77,5.16-1.44,7.74-2,1.18-.26,2.36-.49,3.54-.71.45-.08,1.76-.53,2.13-.36l-.59.09,1-.13a93.31,93.31,0,0,1,16.14-.64c2.58.11,5.12.34,7.64.68l.68.1h0l-.64-.1a3.26,3.26,0,0,1,1,.16h.08l.26.07c1.55.28,3.09.62,4.62,1a78.34,78.34,0,0,1,9.45,2.93c1.43.54,2.84,1.11,4.24,1.74,1,.46,2,1,3,1.41-.32-.17-.49-.28-.55-.32a6,6,0,0,1,1.07.56l-.16-.05,1.33.74c2.23,1.27,4.39,2.66,6.49,4.13q2.72,1.95,5.3,4.12c1.44,1.23,3.55,2.55,4.84,4.19-.19-.39-.15-.44.56.83a6.36,6.36,0,0,0-.56-.83,4.89,4.89,0,0,0,.59.89c.44.47.87.95,1.3,1.43.7.81,1.4,1.63,2.09,2.47.49.6,1,1.21,1.44,1.82,1.12,1.45,2.18,2.93,3.21,4.45q1.92,2.86,3.64,5.9c.27.47.54,1,.8,1.45a4,4,0,0,0,.51.69,3.5,3.5,0,0,0-.46-.64c1.08,1.21.84,1.09.46.64.53.9.88,2.1,1.29,3a100.24,100.24,0,0,1,5.31,14.92c.31,1.14.59,2.28.86,3.44.15.62.29,1.27.44,1.91,0-.25-.06-.39-.07-.46.07.21.24,1.15.26,1.31a5.58,5.58,0,0,1-.15-.61c.44,2.63.86,5.25,1.17,7.93a120.54,120.54,0,0,1,.63,17.38c0,.17,0,.4,0,.6a3.24,3.24,0,0,0,0-.54,9.6,9.6,0,0,1,.13,1.46,6.29,6.29,0,0,1-.13-.91c0,.37-.09.76-.11,1-.11,1.59-.25,3.17-.43,4.76-.32,3-.74,5.88-1.25,8.84S3296.77,4982.81,3296.06,4985.75ZM3174,5080.61l.21,0-.1,0Zm.11,0H3174l.21,0Zm0,0H3174l.21,0Z" transform="translate(-2840.96 -4685.92)"/><path class="cls-7" d="M3434.16,5263.05a130.06,130.06,0,0,0-3.33-43.44,103,103,0,0,0-6-17c-9.88-21.48-25.79-37.68-46.23-46.8-40.68-18.15-95.28-2.24-132,38.5A171.54,171.54,0,0,0,3227.4,5220a165.23,165.23,0,0,0-18.55,43.25c-.33,1.23-.64,2.46-.94,3.69-6.25,25.83-5.21,52.36,2.78,74.53,7.8,21.61,22.1,39.61,40.74,50,20.21,11.32,44.14,14.56,69,9.16,46.79-10.15,91.09-53.11,106.94-104.32a167.7,167.7,0,0,0,5.13-20.52l0-.08C3433.26,5271.54,3433.81,5267.28,3434.16,5263.05Zm-21.9-27.2v0s0,0,0,0Zm-.11,40c-.53,3-1.14,5.9-1.85,8.84-.38,1.58-.79,3.17-1.23,4.75l-.36,1.21c.2-.77.28-1.09.29-1.14,0,.12-.52,1.86-.67,2.34a151.21,151.21,0,0,1-6.66,17c-1.18,2.55-2.48,5.05-3.78,7.56.22-.36.33-.54.37-.62,0,.09-.21.4-.36.7l-.1.18a4.6,4.6,0,0,1-.28.47l.24-.5-1.1,1.93q-1.22,2.07-2.49,4.11a153.6,153.6,0,0,1-10.36,14.53c-.65.8-1.36,1.88-2.11,2.71.55-.45.84-.58-.67.64a5.49,5.49,0,0,0,.65-.63,5.59,5.59,0,0,0-.71.67l-1.06,1.17q-3.16,3.46-6.52,6.71c-2.06,2-4.15,3.9-6.3,5.73-1,.84-2,1.66-3,2.47-.59.49-1.2,1-1.8,1.44-.24.17-.46.36-.69.55l-.07,0-.08.06a140.35,140.35,0,0,1-13.78,8.9c-2.4,1.35-4.82,2.61-7.28,3.77l-2,.94c-.4.18-.6.28-.67.32a9.89,9.89,0,0,0,1.25-.57c-1,1-3.55,1.47-4.75,1.92a109,109,0,0,1-15.34,4.56c-1.42.3-2.84.58-4.26.83-.35,0-.72.09-1.07.16l-.12,0a.2.2,0,0,0-.11,0l-.2,0c-2.87.37-5.75.6-8.61.71a90.84,90.84,0,0,1-15.52-.71l-.32-.05.24.05c-.43.17-1.58-.28-2-.37-1.11-.22-2.21-.44-3.3-.7q-3.9-.93-7.66-2.2c-2.27-.78-4.5-1.65-6.68-2.63-1-.44-1.95-.91-2.93-1.38l-.06,0,.34.18.13.09.08,0h0l-.12-.06-.56-.28-.24-.13-.13-.09.53.25-1.67-.94a79,79,0,0,1-12-8.45,36.4,36.4,0,0,1-4.42-3.77c-.06,0-.27-.23-.66-.9a6.91,6.91,0,0,0,.66.9c.07,0,0-.32-.33-.63l-1.31-1.42c-.85-1-1.7-1.95-2.52-3a86.89,86.89,0,0,1-8.45-12.44c-.33-.59-.64-1.17-1-1.76a4.61,4.61,0,0,0-.34-.59,9.31,9.31,0,0,0,.59,1.1c-.78-.82-1.24-2.53-1.72-3.61-1.07-2.37-2-4.8-2.93-7.28q-1.23-3.42-2.2-6.95c-.38-1.36-.72-2.73-1-4.11-.14-.58-.26-1.17-.4-1.74,0-.06,0-.1,0-.14,0,.16,0,.26,0,.31a0,0,0,0,1,0,0h0s0,0,0,0c0-.19-.19-.9-.2-1,0,0,0,.11.09.31a125.37,125.37,0,0,1-1.77-16.73q-.13-3.8,0-7.66a8.24,8.24,0,0,1,.08-2.33c0,.49,0,1-.08,1.49,0-.52.06-1,.1-1.57.11-1.58.26-3.17.43-4.75.33-3.05.76-6.11,1.31-9.16s1.21-6.22,2-9.32c.32-1.33.67-2.64,1-4,0-.13.07-.26.1-.39l-.09.31a4.72,4.72,0,0,1,.43-1.5s0,0,0,0l.16-.42q1.41-4.44,3.12-8.81c1.07-2.75,2.24-5.49,3.48-8.18.57-1.22,1.15-2.44,1.74-3.65.49-1,1.08-2.62,1.78-3.84a3,3,0,0,1,.81-1.15,5.24,5.24,0,0,0-.81,1.15c0,.15.15,0,.47-.52s.79-1.39,1.2-2.09c.24-.41.48-.8.72-1.2.57-1,1.16-1.94,1.76-2.9q2.34-3.72,4.87-7.28t5.26-7c.83-1,1.71-2.06,2.55-3.09-.29.33-.46.5-.53.57l0,0h0l.13-.16c.07-.1.2-.24.33-.4s.13-.14.19-.22l.16-.18a.15.15,0,0,0,.07-.07.23.23,0,0,1,.05-.05s0,0,0,0,0,0,0,.06-.09.11-.16.2l-.17.21c.69-.76,1.37-1.54,2.07-2.3a144.67,144.67,0,0,1,12.29-11.87c1.17-1,2.36-2,3.55-3l1.51-1.19a3.8,3.8,0,0,0,.79-.82,11.17,11.17,0,0,0-1,1c1-1.05,1.18-1.19,1-1a62.55,62.55,0,0,1,6.43-4.22,126,126,0,0,1,14.37-8l2-.94-.62.25a2.53,2.53,0,0,1,.3-.15l.15-.07.22-.09.23-.1.22-.09.06,0a5.06,5.06,0,0,1-.56.27l.08,0c1.13-.47,2.26-.94,3.41-1.38,2.74-1.06,5.52-2,8.3-2.84,2.57-.76,5.15-1.43,7.73-2,1.18-.25,2.36-.48,3.54-.7.45-.08,1.76-.53,2.13-.36a3.43,3.43,0,0,0-.34.06l.78-.1a94.14,94.14,0,0,1,16.13-.65c2.58.12,5.12.35,7.64.69l.35.05a1.28,1.28,0,0,1-.27-.05,3.07,3.07,0,0,1,1,.14h0s0,0,0,0l.26.06c1.56.29,3.09.62,4.61,1a79.85,79.85,0,0,1,13.7,4.67c1,.46,2,1,3.07,1.45l-.09-.05a4.74,4.74,0,0,1-.45-.26l-.1-.06h0c.13.05.57.27.84.42l.2.12s0,0,0,0a1.22,1.22,0,0,1-.29-.12l1.44.81c2.24,1.27,4.4,2.66,6.5,4.13q2.73,1.95,5.3,4.12c1.45,1.22,3.55,2.55,4.84,4.18-.19-.38-.15-.44.57.83a7.64,7.64,0,0,0-.57-.83,4.29,4.29,0,0,0,.59.89c.43.48.88.95,1.3,1.44.71.81,1.4,1.63,2.09,2.47,1.63,2,3.19,4.09,4.65,6.27,1.28,1.9,2.5,3.87,3.64,5.9.27.47.54,1,.81,1.45a3.72,3.72,0,0,0,.5.68,5.06,5.06,0,0,0-.46-.65c1.08,1.21.84,1.1.46.65.52.91.88,2.11,1.29,3a99.84,99.84,0,0,1,5.31,14.92c.19.74.38,1.47.57,2.22.1.4.19.79.29,1.2.15.64.29,1.28.43,1.93a2.29,2.29,0,0,1-.06-.5s0,0,0,0a1,1,0,0,0,0,.12l0,.17a.22.22,0,0,1,0,.11c.06.24.11.53.15.72s0,.08,0,.1,0,0,0,0-.06-.27-.13-.54c.44,2.63.87,5.25,1.17,7.94a119.07,119.07,0,0,1,.63,17.38c0,.17,0,.39,0,.6a3.23,3.23,0,0,0,0-.54,9.6,9.6,0,0,1,.13,1.46,4.74,4.74,0,0,1-.14-.91c0,.37-.08.76-.1,1-.11,1.59-.26,3.17-.43,4.75-.31,2.84-.72,5.69-1.2,8.54Z" transform="translate(-2840.96 -4685.92)"/><path class="cls-4" d="M3156.59,4724.18h0c-1.42,5,1,10.35,5.46,11.95l88.79,32c4.44,1.6,9.2-1.16,10.62-6.16h0c1.42-5-1-10.36-5.47-12l-88.79-32C3162.76,4716.42,3158,4719.18,3156.59,4724.18Z" transform="translate(-2840.96 -4685.92)"/><path class="cls-4" d="M3441.15,5440.13h0c-1,5.13,1.87,10.21,6.42,11.34l91,22.74c4.55,1.14,9.06-2.09,10.07-7.22h0c1-5.13-1.86-10.2-6.41-11.34l-91-22.74C3446.67,5431.77,3442.16,5435,3441.15,5440.13Z" transform="translate(-2840.96 -4685.92)"/><path class="cls-4" d="M3501.15,5301.78h0a10.38,10.38,0,0,0-.51,13.44l63.1,77.3a7.8,7.8,0,0,0,11.93.57h0a10.39,10.39,0,0,0,.5-13.44l-63.1-77.3A7.79,7.79,0,0,0,3501.15,5301.78Z" transform="translate(-2840.96 -4685.92)"/></svg>