<svg id="Tent4" xmlns="http://www.w3.org/2000/svg" viewBox="0 0 1526.39 673.95"><defs><style>.cls-1{fill:#957552;}.cls-2{fill:#b27587;}.cls-3{fill:#9f5382;}.cls-4{fill:#c1919f;}.cls-5{fill:#c69c6d;}.cls-6{fill:#773e66;}.cls-7{fill:#e025a5;}</style></defs><title>TentOne</title><rect class="cls-1" x="4618.35" y="4801.97" width="81.7" height="233.41" rx="40.85" transform="translate(4700.05 5433.2) rotate(180)"/><path class="cls-2" d="M6032.47,5035.38H4710.19c-37.36,0-64.43-28.27-54.45-56.87l150.14-430.37,12.91-37,23.25-66.65c2.82-22,26.19-40.33,56.23-40.33h946.1c30,0,53.42,18.29,56.24,40.33l9.67,27.73,123.05,352.68,4.18,12,40.77,116.86,8.64,24.76C6096.89,5007.11,6069.81,5035.38,6032.47,5035.38Z" transform="translate(-4618.35 -4404.16)"/><path class="cls-3" d="M6032.47,5035.38H5175.7v-81.63h902.58l8.64,24.76C6096.89,5007.11,6069.81,5035.38,6032.47,5035.38Z" transform="translate(-4618.35 -4404.16)"/><path class="cls-4" d="M5910.28,4472.22H4948.15v-68.06h896.22c30,0,53.42,18.29,56.24,40.33Z" transform="translate(-4618.35 -4404.16)"/><rect class="cls-5" x="6063.04" y="4837.04" width="81.7" height="233.41" rx="40.85" transform="translate(7589.43 5503.34) rotate(-180)"/><rect class="cls-5" x="5333.85" y="4844.69" width="81.7" height="233.41" rx="40.85" transform="translate(6131.05 5518.64) rotate(-180)"/><path class="cls-3" d="M4818.79,4511.14c0,1,0,2,0,3,0,120.82,103.51,219.12,230.76,219.12s230.75-98.3,230.75-219.12a209.43,209.43,0,0,0-31.22-109.95h17.31a219.4,219.4,0,0,1,29.43,109.95c0,61.63-25.46,119.61-71.68,163.27-46.55,44-108.56,68.18-174.59,68.18s-128.05-24.21-174.6-68.18c-37.6-35.52-61.46-80.51-69.05-129.24Z" transform="translate(-4618.35 -4404.16)"/><path class="cls-3" d="M5760.25,4959.55c20-27.57,48.64-52.3,85-73.5,52.63-30.64,117.45-51.54,188-61.15l4.18,12c-159.67,21.46-280.95,101.41-292.31,198.49h-15.59C5732.42,5009.16,5742.7,4983.71,5760.25,4959.55Z" transform="translate(-4618.35 -4404.16)"/><path class="cls-3" d="M4710.19,5035.38h548.58c37.35,0,64.42-28.27,54.45-56.87l-186.31-534c-2.82-22-26.19-40.33-56.24-40.33h-172.4c-30,0-53.41,18.29-56.23,40.33l-186.3,534C4645.76,5007.11,4672.83,5035.38,4710.19,5035.38Z" transform="translate(-4618.35 -4404.16)"/><path class="cls-6" d="M5001.94,4454.36l202.17,581H4764.84l202.17-581C4972.77,4437.8,4996.18,4437.8,5001.94,4454.36Z" transform="translate(-4618.35 -4404.16)"/><path class="cls-6" d="M5480.41,4529.3a187.43,187.43,0,0,1,43.07-19.55c59.67-18.77,135.06-10.39,198.49,19.45q11.32,5.31,22.07,11.54c-1.45.39-2.88.8-4.29,1.24-1,.33-2,.7-3,1a.55.55,0,0,1-.18.06l-.05,0h0a.21.21,0,0,1-.1,0c-.45.19-.9.36-1.35.53q-3.37,1.37-6.57,3c-1.83.92-3.63,1.9-5.37,2.93a33.69,33.69,0,0,0-4.89,3,3.22,3.22,0,0,1-.6.64c-.44.33-.88.68-1.32,1-.71.58-1.42,1.16-2.11,1.76l-1.46,1.31c-3-1.42-6.22-2.69-8.74-3.84q-5.67-2.6-11.46-4.93-7.84-3.16-15.9-5.87l-3.82-1.25c.72.2,1.06.3,1.15.31-.34-.14-2.38-.76-2.47-.76.08,0,.45.17,1.31.45l-.14,0c-2.16-.62-4.32-1.26-6.49-1.85-5.23-1.43-10.52-2.7-15.8-3.81-4.9-1-9.81-1.92-14.72-2.67-2.25-.34-4.5-.66-6.74-.94-.86-.11-3.35-.72-4.07-.49l1.79.19-.57-.06q-1-.1-2-.18a255.4,255.4,0,0,0-30.7-.87q-7.36.24-14.56.92l-1.3.13-.83.09h-.07l-.5.1c-3,.38-5.88.82-8.78,1.32a197.06,197.06,0,0,0-26.06,6.27c-2,.64-4,1.39-6,2l.32-.12c3.62-1.42-2.91.91-.43.16-.93.38-1.85.73-2.77,1.09q-6.37,2.56-12.35,5.55l-.53.27c-3.28,1.66-6.48,3.41-9.57,5.26-1.83,1.1-4.24,2.25-6.37,3.56l-2.11-1.31q-1.78-1.06-3.6-2.1l-1.52-.85a3.66,3.66,0,0,1-.81-.59c-2-1.16-4.62-2.14-6.51-3a152,152,0,0,0-14.54-5.75l-1.88-.61.47.12c-.11-.05-1.14-.36-1.3-.4l.6.21c-1.15-.33-2.3-.67-3.46-1-1.51-.41-3-.8-4.56-1.15A156.68,156.68,0,0,1,5480.41,4529.3Zm98.17,2.27a8.13,8.13,0,0,0-1.9.2ZM5424.2,4677.43q3.65,1.44,7.36,2.68l2,.67.6.21a10.33,10.33,0,0,1-1.18-.38c1,.69,3.59,1,4.8,1.37a148,148,0,0,0,15.54,3.25c1.43.22,2.87.42,4.31.59l1.08.12h.12l.11,0,.2,0c1.74.16,3.47.28,5.2.37.34.94.7,1.88,1.08,2.83.21.54.44,1.09.67,1.63-.38-1-.53-1.47-.55-1.54.09.16,1,2.51,1.29,3.15q2.39,5.22,5.21,10.39,3.42,6.26,7.46,12.4c2.25,3.43,4.71,6.79,7.18,10.15l.08.1c-.51-.63-.74-.9-.8-.95s1.17,1.56,1.41,1.81c0-.07-.22-.33-.61-.86.77.94,1.51,1.87,2.27,2.79,1.54,1.86,3.12,3.69,4.74,5.52a220.76,220.76,0,0,0,19.74,19.52c1.21,1.07,2.56,2.52,4,3.63-1-.59-1.55-.76,1,.67a11.15,11.15,0,0,1-.93-.65,11,11,0,0,1,1.36.89c.67.52,1.33,1.05,2,1.56q6,4.68,12.43,9,5.85,4,12,7.7c1.87,1.12,3.74,2.22,5.63,3.31,1.13.65,2.28,1.3,3.43,1.93l1.58.86-.26-.13,1,.52-.72-.39q2.9,1.49,5.83,2.91c6.45,3.16,13,6.12,19.73,8.78-.11.29-.2.57-.3.86-.15.46-.29.91-.44,1.38l0,.11s0,0,0,.06c-.45,1.87-.88,3.74-1.18,5.66a58.85,58.85,0,0,0-.64,12.41,3.46,3.46,0,0,1,0,.43h0c0,.26.08.54.1.72.12,1.13.26,2.27.44,3.39.32,2,.73,4.06,1.21,6.1q-11.3-4-22.22-8.9c-58.07-25.87-106.54-69-127.9-117.61-.4-.9-.79-1.8-1.16-2.71a180.37,180.37,0,0,1-7-19.14C5423,4677,5423.59,4677.19,5424.2,4677.43Zm343.54,108a26.65,26.65,0,0,0,4-2.59c.12,0,.52-.31,1.25-1.21a10.34,10.34,0,0,1-1.25,1.21c-.14,0,.1-.43.62-.85.84-.64,1.68-1.26,2.5-1.91q2.44-1.93,4.79-4a123.65,123.65,0,0,0,16.09-16.73c.62-.77,1.21-1.56,1.82-2.35,1.57-2-.1.34-.45.7,1.48-1.11,2.33-3.41,3.26-4.86a111.25,111.25,0,0,0,5.58-9.77q2.32-4.57,4.18-9.34c.72-1.83,1.38-3.66,2-5.52.25-.77.48-1.55.74-2.32,0-.14.08-.27.12-.37-.55,2.34.9-2.73,0,0a1.33,1.33,0,0,1,.05-.19,120.62,120.62,0,0,0,3.44-22.57v-.08q.26-5.11,0-10.29c0-.66.27-2.51-.17-3.13.06.66.11,1.33.17,2-.06-.7-.13-1.4-.2-2.1-.09-.94-.2-1.89-.32-2.83,1.67-.09,3.34-.21,5-.37l.35,0a1.18,1.18,0,0,1-.27,0,7.35,7.35,0,0,0,2-.26c1.12-.15,2.23-.31,3.34-.5,2.62-.43,5.22-1,7.74-1.57,2.31-.55,4.56-1.17,6.78-1.87l2.95-1-.49.2a8.22,8.22,0,0,0,1.1-.4l-.4.13c.52-.21,1-.41,1.56-.63,2.6-1,5.12-2.19,7.54-3.45a133.63,133.63,0,0,1,2.6,19.05,121.62,121.62,0,0,1-12.73,63.41c-11.76,23-31.31,42.95-56.58,57.2a168.84,168.84,0,0,1-17.86,8.72c-.56-2.23-1.23-4.44-2-6.65-.34-1-.69-1.89-1.06-2.83a2.31,2.31,0,0,1-.1-.28l.09.23a2.54,2.54,0,0,0-.44-1.07v0a.06.06,0,0,1,0,0c-.07-.11-.13-.22-.17-.3-.95-2.11-2-4.22-3.16-6.29s-2.26-3.92-3.52-5.84c-.57-.87-1.16-1.74-1.76-2.6-.49-.7-1.1-1.88-1.8-2.75,0,.11-.16,0-.48-.37l-1.21-1.49-.73-.86q5.7-2.81,11-6C5764.62,4787.12,5766.19,4786.32,5767.74,4785.44Zm53.94-99.52h.12l-.22,0Z" transform="translate(-4618.35 -4404.16)"/><path class="cls-7" d="M5346.17,4559.6c10-15.34,26.11-26.91,46.79-33.42,26.21-8.25,58.13-6.64,87.45,3.12a156.8,156.8,0,0,1,39,19.14q3.69,2.51,7.16,5.23c19,14.85,32.58,32.74,39.16,51.91,6.32,18.43,5.26,37.37-2.83,53.19-7.88,15.44-22.37,28.28-41.23,35.72-14.9,5.89-31.79,8.71-49.59,8.33a157.15,157.15,0,0,1-20.28-1.78,153,153,0,0,1-22.41-5.21c-38.55-12-72.36-38.55-85.85-69.27a93.37,93.37,0,0,1-5.18-14.64l0-.06C5333.82,4593.32,5336.32,4574.72,5346.17,4559.6Zm186,22.84a4.31,4.31,0,0,1,.84.82C5532.94,4583.14,5532.7,4582.83,5532.13,4582.44Zm-171.28,35.76c.39,1.13.81,2.26,1.25,3.39.12.29.25.58.36.86a8.43,8.43,0,0,1-.28-.81c0,.08.52,1.33.67,1.68a92,92,0,0,0,6.74,12.11c1.2,1.83,2.51,3.61,3.83,5.4l-.37-.44c.07.12.58.79.72.94l-.22-.33,1.11,1.37c.82,1,1.66,2,2.53,2.93a115.51,115.51,0,0,0,10.48,10.38c.65.57,1.37,1.34,2.13,1.93-.55-.32-.85-.42.68.45a4.46,4.46,0,0,1-.66-.44,5.3,5.3,0,0,1,.72.48l1.07.83c2.14,1.65,4.34,3.26,6.61,4.8,2.07,1.41,4.19,2.78,6.37,4.09,1,.59,2,1.18,3,1.76q.9.53,1.83,1l.84.47.1.05c3.93,2,7.92,3.88,12,5.57.6.26,1.21.5,1.82.74q3.65,1.44,7.36,2.68l2,.67.6.21a10.33,10.33,0,0,1-1.18-.38c1,.69,3.59,1,4.8,1.37a148,148,0,0,0,15.54,3.25c1.43.22,2.87.42,4.31.59l1.08.12h.12l.11,0,.2,0c1.74.16,3.47.28,5.2.37,1.18.06,2.34.11,3.52.14a127.7,127.7,0,0,0,15.71-.51l.34,0a1.09,1.09,0,0,1-.26,0,7.39,7.39,0,0,0,2-.26c1.12-.15,2.23-.31,3.34-.5,2.63-.43,5.21-1,7.74-1.57q3.45-.83,6.77-1.87l3-1-.49.2a10.27,10.27,0,0,0,1.11-.4l-.42.13c.53-.21,1.05-.41,1.57-.63a85.86,85.86,0,0,0,12.19-6,38.11,38.11,0,0,0,4.47-2.69c.06,0,.27-.16.67-.64a5.88,5.88,0,0,1-.67.64c-.08,0,.05-.22.33-.45l1.33-1c.86-.69,1.72-1.39,2.55-2.11a66.9,66.9,0,0,0,8.55-8.89l1-1.25a2.88,2.88,0,0,1,.35-.42,8,8,0,0,1-.59.79,9.49,9.49,0,0,0,1.73-2.58c1.08-1.7,2.07-3.42,3-5.2.82-1.62,1.57-3.29,2.23-5,.38-1,.72-1.95,1.05-2.93.14-.41.26-.83.4-1.24l0-.1c-.16.72.17-.37.19-.52a1.08,1.08,0,0,0-.12.31,66.15,66.15,0,0,0,1.82-12c.09-1.81.09-3.63,0-5.46,0-.36.15-1.34-.09-1.67,0,.18,0,.35,0,.53l-.06-.59c-.12-1.13-.26-2.26-.44-3.39a72.28,72.28,0,0,0-3.34-13.19c-.33-.94-.68-1.88-1.05-2.83,0-.09-.07-.19-.11-.28a2.14,2.14,0,0,0,.1.22,2.51,2.51,0,0,0-.44-1.06v0l-.17-.3q-1.43-3.16-3.16-6.29c-1.08-2-2.27-3.92-3.53-5.84-.57-.87-1.15-1.75-1.75-2.6s-1.1-1.87-1.8-2.74c0,.1-.16,0-.48-.37s-.8-1-1.21-1.49c-.82-1-1.66-2-2.52-2.94-1.57-1.76-3.22-3.5-4.93-5.2s-3.48-3.34-5.32-5c-.84-.75-1.73-1.47-2.58-2.21.36.27.51.4.56.42s-.87-.72-1-.8l.23.21.17.14-2.09-1.64c-3.29-2.52-6.75-4.92-10.33-7.17l-2.11-1.31q-1.78-1.06-3.6-2.1l-1.52-.85a3.66,3.66,0,0,1-.81-.59,9.8,9.8,0,0,1,1.06.72c-1-.76-1.19-.85-1.06-.72-2-1.16-4.62-2.14-6.51-3a152,152,0,0,0-14.54-5.75l-1.88-.61.47.12c-.11-.05-1.14-.36-1.3-.4l.6.21c-1.15-.33-2.3-.67-3.46-1-1.51-.41-3-.8-4.56-1.15-1.27-.31-2.56-.6-3.84-.87-2.6-.54-5.21-1-7.82-1.41-1.2-.19-2.4-.36-3.59-.51a9.35,9.35,0,0,0-2.16-.26l.65.07-1.09-.1a133.71,133.71,0,0,0-16.33-.45c-2.61.07-5.18.24-7.73.48l-.69.07h0l.65-.07a4.38,4.38,0,0,0-1,.11h-.09l-.25.05c-1.58.2-3.14.44-4.68.7a107,107,0,0,0-13.86,3.33c-1.08.35-2.11.74-3.2,1.07a.49.49,0,0,0,.17-.06c.33-.12.51-.2.57-.23-.22.05-1.75.6-.8.32-.49.2-1,.38-1.47.57q-3.37,1.37-6.57,3c-1.84.92-3.64,1.9-5.37,2.93a33.16,33.16,0,0,0-4.89,3c.19-.27.15-.31-.58.6a6.51,6.51,0,0,1,.58-.6,3.22,3.22,0,0,1-.6.64c-.45.33-.89.68-1.32,1-.72.58-1.42,1.16-2.11,1.76q-2.49,2.16-4.72,4.48c-1.29,1.37-2.52,2.77-3.67,4.21-.28.34-.55.69-.82,1a3,3,0,0,1-.51.49,3.33,3.33,0,0,1,.46-.46c-1.09.86-.85.78-.46.46a20.39,20.39,0,0,0-1.3,2.14,59.12,59.12,0,0,0-5.38,10.65c-.31.81-.59,1.62-.87,2.45-.15.45-.29.91-.44,1.36,0-.17.06-.27.07-.32a5.81,5.81,0,0,0-.25.88c0-.06.07-.19.14-.38-.45,1.87-.89,3.75-1.19,5.66a60.82,60.82,0,0,0-.65,12.4,1.66,1.66,0,0,1,0,.44,1.25,1.25,0,0,1,0-.39c-.3,1.62-.08,1,0,.39,0,.27.08.54.1.73.12,1.13.26,2.26.44,3.4.32,2.1.75,4.2,1.26,6.31S5360.13,4616.1,5360.85,4618.2Z" transform="translate(-4618.35 -4404.16)"/><path class="cls-7" d="M5821.68,4685.92h.12l-.22,0Zm0,0h.12l-.22,0Zm0,0h.12l-.22,0ZM5683.55,4559.6a71.65,71.65,0,0,1,8.95-11.11A86.72,86.72,0,0,1,5722,4529.2q4.05-1.65,8.37-3c41.18-13,96.45-1.59,133.62,27.49,19,14.85,32.57,32.74,39.15,51.91,6.33,18.43,5.26,37.37-2.82,53.19-7.89,15.44-22.38,28.28-41.24,35.72-1.06.43-2.15.83-3.23,1.22a126.17,126.17,0,0,1-39.35,7.09,153.9,153.9,0,0,1-27.28-1.76c-47.36-7.25-92.21-37.92-108.26-74.48a93.42,93.42,0,0,1-5.19-14.64l0-.06C5671.21,4593.32,5673.7,4574.72,5683.55,4559.6Zm186,22.84a5,5,0,0,1,.84.82A2.3,2.3,0,0,0,5869.52,4582.44Zm-171.29,35.76q.59,1.7,1.26,3.39c.12.29.23.58.35.86a8.43,8.43,0,0,1-.28-.81c0,.08.52,1.33.67,1.68a93.11,93.11,0,0,0,6.74,12.11c1.2,1.83,2.51,3.61,3.82,5.4a5.65,5.65,0,0,0-.36-.44c.07.12.58.79.72.94l-.22-.33,1.11,1.37c.82,1,1.66,2,2.53,2.93a114.36,114.36,0,0,0,10.49,10.38c.65.57,1.36,1.34,2.12,1.93-.56-.32-.85-.42.69.45a4.54,4.54,0,0,1-.67-.44,5.42,5.42,0,0,1,.73.48l1.06.83c2.14,1.65,4.34,3.26,6.61,4.8,2.08,1.41,4.2,2.78,6.37,4.09l3,1.76q.91.53,1.83,1l.84.47.1.05c4.51,2.3,9.09,4.43,13.85,6.31,2.43,1,4.88,1.85,7.37,2.68l2,.67a4,4,0,0,1,.45.17c-.34-.11-.91-.27-1-.34,1,.69,3.59,1,4.8,1.37a147.45,147.45,0,0,0,15.54,3.25c1.43.22,2.87.42,4.31.59l1.08.12h.12l.11,0,.2,0q4.38.39,8.71.51c3.61.1,7.2.06,10.72-.14,1.67-.09,3.34-.21,5-.37l.35,0a1.18,1.18,0,0,1-.27,0,7.35,7.35,0,0,0,2-.26c1.12-.15,2.23-.31,3.34-.5,2.62-.43,5.22-1,7.74-1.57,2.31-.55,4.56-1.17,6.78-1.87l2.95-1-.49.2a8.22,8.22,0,0,0,1.1-.4l-.4.13c.52-.21,1-.41,1.56-.63,2.6-1,5.12-2.19,7.54-3.45,1.59-.82,3.15-1.68,4.65-2.58a38.11,38.11,0,0,0,4.47-2.69c.06,0,.28-.16.67-.64a5.88,5.88,0,0,1-.67.64c-.08,0,.05-.22.34-.45s.89-.67,1.32-1c.86-.69,1.72-1.39,2.55-2.11a66.9,66.9,0,0,0,8.55-8.89c.34-.42.65-.83,1-1.25a4.9,4.9,0,0,1,.34-.42,6.53,6.53,0,0,1-.58.79,9.53,9.53,0,0,0,1.74-2.58c1.07-1.7,2.07-3.42,3-5.2.83-1.62,1.57-3.29,2.23-5,.38-1,.73-1.95,1.06-2.93.13-.41.25-.83.39-1.24a1.18,1.18,0,0,1,.07-.2.87.87,0,0,0-.06.33c0-.07.19-.65.21-.75s-.07.16-.15.42a.3.3,0,0,1,0-.1,64.59,64.59,0,0,0,1.84-12.05c.08-1.81.08-3.63,0-5.46,0-.36.14-1.34-.1-1.67a1.93,1.93,0,0,1,0,.24c0-.1,0-.2,0-.3-.12-1.13-.26-2.26-.44-3.39a71.48,71.48,0,0,0-3.34-13.19c-.33-.94-.68-1.88-1.05-2.83-.07-.16-.14-.35-.2-.52.06.13.11.29.19.46.05-.21-.23-.7-.44-1.06v0c-.06-.12-.13-.23-.17-.3-.95-2.11-2-4.21-3.15-6.29s-2.27-3.92-3.53-5.84c-.58-.87-1.16-1.75-1.76-2.6s-1.1-1.87-1.79-2.74c0,.1-.17,0-.49-.37s-.8-1-1.2-1.49c-.82-1-1.67-2-2.53-2.94-1.56-1.76-3.21-3.5-4.93-5.2s-3.48-3.34-5.31-5c-.85-.75-1.74-1.47-2.59-2.21.36.27.51.4.56.42s-.86-.72-1-.8l.23.21.16.14c-.7-.54-1.39-1.1-2.1-1.64a137.17,137.17,0,0,0-12.43-8.48c-1.19-.71-2.39-1.41-3.59-2.1l-1.53-.85a3.66,3.66,0,0,1-.81-.59,8.9,8.9,0,0,1,1.06.72c-1-.76-1.19-.85-1.06-.72a70.81,70.81,0,0,0-6.51-3,152,152,0,0,0-14.54-5.75l-1.87-.61.46.12c-.1-.05-1.13-.36-1.3-.4l.6.21c-1.15-.33-2.3-.67-3.45-1-2.79-.75-5.6-1.43-8.4-2-2.61-.54-5.22-1-7.83-1.41-1.2-.19-2.4-.36-3.59-.51a9.28,9.28,0,0,0-2.16-.26l.6.06-1-.09a133.87,133.87,0,0,0-16.34-.45c-2.61.07-5.18.24-7.73.48l-.69.07h0l.65-.07a4.44,4.44,0,0,0-1,.11h-.09l-.25.05c-1.58.2-3.14.44-4.68.7q-4.9.84-9.57,2.09c-1.45.39-2.88.8-4.29,1.24-1,.33-2,.7-3,1,.33-.12.49-.2.56-.23a8.21,8.21,0,0,0-1.09.4l.17,0c-.45.19-.9.36-1.35.53q-3.37,1.37-6.57,3c-1.83.92-3.63,1.9-5.37,2.93a33.69,33.69,0,0,0-4.89,3c.19-.27.15-.31-.57.6a4.54,4.54,0,0,1,.57-.6,3.22,3.22,0,0,1-.6.64c-.44.33-.88.68-1.32,1-.71.58-1.42,1.16-2.11,1.76l-1.46,1.31q-1.7,1.55-3.25,3.17c-1.3,1.37-2.52,2.77-3.68,4.21-.28.34-.55.69-.81,1a3.46,3.46,0,0,1-.52.49,2.56,2.56,0,0,1,.47-.46c-1.1.86-.86.78-.47.46a20.39,20.39,0,0,0-1.3,2.14,59.12,59.12,0,0,0-5.38,10.65c-.31.81-.59,1.62-.87,2.45-.15.45-.29.91-.44,1.36,0-.17.06-.27.06-.32a8.31,8.31,0,0,0-.26.93,3.61,3.61,0,0,0,.16-.43c-.45,1.87-.88,3.75-1.19,5.66a60.82,60.82,0,0,0-.64,12.4,2.27,2.27,0,0,1,0,.44,1.69,1.69,0,0,1,0-.39,4.89,4.89,0,0,0-.13,1,4.11,4.11,0,0,0,.14-.65c0,.27.08.54.11.73.1,1.13.25,2.26.43,3.4.32,2.1.75,4.2,1.26,6.31S5697.52,4616.1,5698.23,4618.2Zm123.57,67.72-.22,0,.1,0Zm-.12,0h.12l-.22,0Zm0,0h.12l-.22,0Z" transform="translate(-4618.35 -4404.16)"/><path class="cls-7" d="M5558.45,4816.15a66.4,66.4,0,0,1,3.37-31,60.39,60.39,0,0,1,6.09-12.16c10-15.34,26.11-26.91,46.79-33.42,41.18-13,96.45-1.59,133.62,27.49a138.2,138.2,0,0,1,19.42,18.39,104,104,0,0,1,18.77,30.88c.34.88.65,1.75,1,2.63,6.32,18.44,5.26,37.38-2.82,53.21-7.89,15.43-22.37,28.27-41.23,35.72-20.47,8.08-44.69,10.39-69.87,6.54-47.36-7.24-92.21-37.92-108.26-74.48a92.77,92.77,0,0,1-5.19-14.64v-.06A74.17,74.17,0,0,1,5558.45,4816.15Zm22.17-19.42a0,0,0,0,0,0,0,.08.08,0,0,1,0,0Zm.11,28.54q.8,3.16,1.87,6.31c.38,1.13.8,2.26,1.25,3.39l.36.87c-.21-.55-.28-.78-.29-.82s.52,1.33.68,1.67a91.34,91.34,0,0,0,6.73,12.12c1.2,1.82,2.51,3.61,3.83,5.4l-.37-.44c0,.06.2.28.36.5l.1.12a3.05,3.05,0,0,0,.28.34l-.24-.35,1.11,1.37c.82,1,1.67,2,2.53,2.94a119.44,119.44,0,0,0,10.48,10.37c.66.57,1.38,1.34,2.13,1.93-.55-.32-.85-.41.69.46a4.27,4.27,0,0,1-.66-.45,6.93,6.93,0,0,1,.72.48l1.07.83c2.13,1.65,4.34,3.25,6.6,4.79q3.12,2.13,6.37,4.1c1,.6,2,1.18,3,1.76.6.35,1.22.69,1.83,1l.7.39.06,0,.08,0c4.54,2.31,9.16,4.47,13.95,6.36,2.43,1,4.89,1.85,7.37,2.69l2,.67.68.23c-.18,0-1.09-.33-1.27-.41,1,.69,3.59,1.05,4.81,1.37a144.79,144.79,0,0,0,15.53,3.25c1.43.22,2.87.42,4.31.6.35,0,.72.06,1.09.11l.12,0h.11l.2,0c2.9.26,5.82.43,8.71.51a133.9,133.9,0,0,0,15.71-.51,1.84,1.84,0,0,1,.33,0l-.25,0a7.41,7.41,0,0,0,2-.27c1.12-.15,2.23-.31,3.34-.5q3.95-.66,7.75-1.57c2.3-.55,4.56-1.18,6.76-1.87,1-.32,2-.66,3-1h.06l-.35.13-.13.06s-.06,0-.07,0h0l.13-.05c.15,0,.36-.13.56-.2l.25-.09.13-.06-.54.18,1.69-.67a86.44,86.44,0,0,0,12.19-6,36.15,36.15,0,0,0,4.48-2.69c.05,0,.27-.16.66-.64a6.71,6.71,0,0,1-.66.64c-.08,0,0-.23.33-.44s.89-.68,1.32-1c.87-.69,1.72-1.4,2.55-2.11a66.35,66.35,0,0,0,8.56-8.89c.33-.41.64-.83,1-1.25a4.58,4.58,0,0,1,.34-.42,9.45,9.45,0,0,1-.59.79,9.32,9.32,0,0,0,1.73-2.59,56.9,56.9,0,0,0,3-5.19q1.24-2.44,2.23-5,.57-1.45,1.05-2.94c.15-.41.26-.83.4-1.24a1,1,0,0,1,0-.1c0,.12,0,.18,0,.22a0,0,0,0,0,0,0h0s0,0,0,0a5.3,5.3,0,0,0,.21-.74,1,1,0,0,0-.09.21,64.92,64.92,0,0,0,1.79-11.94c.09-1.81.1-3.63,0-5.47,0-.34.15-1.33-.09-1.66l.09,1.06c0-.37-.07-.75-.1-1.12-.12-1.13-.26-2.26-.43-3.39q-.51-3.27-1.33-6.54c-.56-2.23-1.23-4.44-2-6.65-.34-1-.69-1.89-1.06-2.83a2.31,2.31,0,0,1-.1-.28l.09.23a2.54,2.54,0,0,0-.44-1.07,0,0,0,0,1,0,0c-.07-.11-.13-.22-.17-.3-.95-2.11-2-4.22-3.16-6.29s-2.26-3.92-3.52-5.84c-.57-.87-1.16-1.74-1.76-2.6-.49-.7-1.1-1.88-1.8-2.75a2.26,2.26,0,0,0-.82-.81,4.17,4.17,0,0,1,.82.81c0,.11-.16,0-.48-.37l-1.21-1.49-.73-.86c-.58-.69-1.18-1.38-1.78-2.06-1.58-1.78-3.22-3.5-4.94-5.21s-3.48-3.35-5.31-5c-.85-.75-1.74-1.47-2.59-2.21.3.24.47.36.54.41h0l-.13-.12c-.07-.07-.21-.17-.34-.28l-.18-.16-.17-.13a.14.14,0,0,1-.07,0s0,0,0,0,0,0,0,0,0,0,0,0l.16.14.17.16c-.69-.55-1.38-1.11-2.09-1.64a136.68,136.68,0,0,0-12.44-8.48c-1.19-.72-2.39-1.43-3.6-2.11l-1.52-.85a3.66,3.66,0,0,1-.81-.59,10.27,10.27,0,0,1,1.06.71c-1-.75-1.19-.85-1.06-.71a68.44,68.44,0,0,0-6.51-3,148.33,148.33,0,0,0-14.54-5.74l-2-.67.63.18-.31-.11-.15,0-.23-.07-.23-.07-.22-.06h-.06l.56.19-.07,0c-1.15-.33-2.29-.67-3.46-1-2.77-.76-5.58-1.44-8.4-2-2.59-.54-5.21-1-7.82-1.42-1.2-.18-2.39-.35-3.59-.5a9.31,9.31,0,0,0-2.16-.25c.13,0,.24,0,.35,0l-.79-.06a135.51,135.51,0,0,0-16.32-.47c-2.61.09-5.19.25-7.74.5-.12,0-.24,0-.35,0l.27,0a3.43,3.43,0,0,0-1,.1h-.08l-.26.05c-1.58.21-3.13.44-4.68.71a103.82,103.82,0,0,0-13.86,3.33c-1,.33-2,.71-3.1,1l.08,0,.46-.19.1,0h0c-.14,0-.57.2-.85.31l-.2.08s0,0,0,0l.29-.09-1.46.58q-3.39,1.36-6.57,2.95-2.77,1.38-5.37,2.94a32.68,32.68,0,0,0-4.9,3c.2-.27.15-.31-.58.59a6.43,6.43,0,0,1,.58-.59,3.22,3.22,0,0,1-.6.64c-.44.34-.89.68-1.31,1-.72.58-1.42,1.17-2.12,1.77a62.35,62.35,0,0,0-4.7,4.48q-2,2-3.69,4.2c-.28.34-.55.69-.82,1a2.65,2.65,0,0,1-.51.49,3.41,3.41,0,0,1,.47-.46c-1.1.86-.86.78-.47.46a21.47,21.47,0,0,0-1.3,2.14,58.42,58.42,0,0,0-5.37,10.65c-.2.53-.39,1.05-.58,1.58-.11.29-.2.57-.3.86-.15.46-.29.91-.44,1.38a3.4,3.4,0,0,0,.07-.36s0,0,0,0a.34.34,0,0,0,0,.08.56.56,0,0,1,0,.12.24.24,0,0,0,0,.08c-.05.17-.11.38-.14.52s0,.05,0,.07,0,0,0,0,.07-.19.14-.38c-.45,1.87-.88,3.74-1.18,5.66a58.85,58.85,0,0,0-.64,12.41,3.46,3.46,0,0,1,0,.43,1.27,1.27,0,0,1,0-.39,5.58,5.58,0,0,0-.14,1,2.1,2.1,0,0,0,.14-.64c0,.26.08.54.1.72.12,1.13.26,2.27.44,3.39.32,2,.73,4.06,1.21,6.1Z" transform="translate(-4618.35 -4404.16)"/><path class="cls-3" d="M5965.39,4889.46h0c-4.38,1.41-9.36-.27-11.13-3.74l-35.36-69.51c-1.77-3.47.34-7.43,4.72-8.83h0c4.37-1.41,9.35.27,11.12,3.75l35.37,69.5C5971.88,4884.1,5969.76,4888.06,5965.39,4889.46Z" transform="translate(-4618.35 -4404.16)"/><path class="cls-3" d="M5883.53,4942.08h0a10.17,10.17,0,0,1-12.08,0l-66.73-53a5.85,5.85,0,0,1,0-9.6h0a10.19,10.19,0,0,1,12.09,0l66.72,53A5.85,5.85,0,0,1,5883.53,4942.08Z" transform="translate(-4618.35 -4404.16)"/><path class="cls-3" d="M5356.71,4443.65h0c1.26,3.61-1.41,7.35-5.95,8.35l-91,20c-4.55,1-9.25-1.12-10.51-4.73h0c-1.26-3.62,1.41-7.36,6-8.36l90.95-20C5350.75,4437.91,5355.46,4440,5356.71,4443.65Z" transform="translate(-4618.35 -4404.16)"/><path class="cls-3" d="M5348.78,4548.56h0c-1.47,3.57-6.29,5.51-10.78,4.35l-89.71-23.25c-4.49-1.16-6.94-5-5.47-8.55h0c1.46-3.57,6.28-5.52,10.77-4.35L5343.3,4540C5347.79,4541.17,5350.24,4545,5348.78,4548.56Z" transform="translate(-4618.35 -4404.16)"/></svg>