<svg id="Tent2" xmlns="http://www.w3.org/2000/svg" viewBox="0 0 1373.2 745.64"><defs><style>.cls-1{fill:#957552;}.cls-2{fill:#82539f;}.cls-3{fill:#7b75b2;}.cls-4{fill:#9591c1;}.cls-5{fill:#c69c6d;}.cls-6{fill:#3e3e77;}.cls-7{fill:#b725e0;}</style></defs><title>TentTwo</title><rect class="cls-1" x="4262.35" y="3888.39" width="81.7" height="233.41" rx="40.85" transform="translate(4344.05 4583.41) rotate(-180)"/><path class="cls-2" d="M4913,3585.78h0a7.58,7.58,0,0,1-9.54,4.79L4824,3565a7.46,7.46,0,0,1-4.85-9.42h0a7.59,7.59,0,0,1,9.54-4.79l79.42,25.6A7.45,7.45,0,0,1,4913,3585.78Z" transform="translate(-4262.35 -3426.78)"/><path class="cls-3" d="M5518.2,4121.8H4347.7c-33.06,0-57-31.13-48.19-62.62l132.9-473.86,11.43-40.75,20.58-73.38a49.84,49.84,0,0,1,49.78-44.41h837.49a49.82,49.82,0,0,1,49.78,44.41l3.08,11L5519,3890.05l3.7,13.2,42.77,152.46,1,3.47C5575.23,4090.67,5551.26,4121.8,5518.2,4121.8Z" transform="translate(-4262.35 -3426.78)"/><path class="cls-2" d="M5518.2,4121.8h-795v-66.09h842.23l1,3.47C5575.23,4090.67,5551.26,4121.8,5518.2,4121.8Z" transform="translate(-4262.35 -3426.78)"/><path class="cls-4" d="M5404.55,3482.17H4491.76V3432a50.12,50.12,0,0,1,22.44-5.22h837.49a49.82,49.82,0,0,1,49.78,44.41Z" transform="translate(-4262.35 -3426.78)"/><rect class="cls-5" x="5553.85" y="3939.01" width="81.7" height="233.41" rx="40.85" transform="translate(6927.05 4684.64) rotate(180)"/><rect class="cls-5" x="4888.91" y="3939.01" width="81.7" height="233.41" rx="40.85" transform="translate(5597.18 4684.64) rotate(-180)"/><path class="cls-2" d="M4443.84,3544.57c0,1.1,0,2.18,0,3.28,0,133,91.63,241.26,204.27,241.26s204.26-108.23,204.26-241.26c0-44.09-10.07-85.47-27.63-121.07H4840c17,36.76,26.05,78.11,26.05,121.07,0,67.86-22.53,131.69-63.45,179.77-41.21,48.41-96.1,75.07-154.55,75.07s-113.35-26.66-154.55-75.07c-33.28-39.11-54.41-88.65-61.13-142.3Z" transform="translate(-4262.35 -3426.78)"/><path class="cls-2" d="M5277.23,4038.31c17.73-30.37,43.05-57.59,75.28-80.94,46.59-33.73,104-56.75,166.45-67.32l3.7,13.2c-141.34,23.63-248.7,111.65-258.75,218.55h-13.8C5252.6,4092.92,5261.69,4064.91,5277.23,4038.31Z" transform="translate(-4262.35 -3426.78)"/><path class="cls-2" d="M4347.7,4121.8h485.62c33.06,0,57-31.13,48.2-62.62l-164.93-588a49.82,49.82,0,0,0-49.78-44.41H4514.2a49.83,49.83,0,0,0-49.78,44.41l-164.91,588C4290.67,4090.67,4314.64,4121.8,4347.7,4121.8Z" transform="translate(-4262.35 -3426.78)"/><path class="cls-6" d="M4608.32,3490.45l176.61,631.35H4396.09l176.61-631.35C4577.74,3472.44,4603.28,3472.44,4608.32,3490.45Z" transform="translate(-4262.35 -3426.78)"/><path class="cls-6" d="M5029.51,3564.57a152.56,152.56,0,0,1,38.13-21.52c52.82-20.67,119.56-11.45,175.71,21.41q10,5.85,19.53,12.71c-1.28.43-2.55.87-3.8,1.37-.89.36-1.77.76-2.67,1.11l-.16.07,0,0h0l-.09,0c-.4.21-.79.39-1.19.59-2,1-3.94,2.09-5.82,3.25-1.62,1-3.21,2.09-4.75,3.23a29.62,29.62,0,0,0-4.33,3.29,4.09,4.09,0,0,1-.53.71c-.39.36-.78.74-1.17,1.12-.63.63-1.25,1.28-1.87,1.94-.44.48-.87.95-1.29,1.43-2.63-1.56-5.5-2.95-7.74-4.22q-5-2.85-10.15-5.42-6.94-3.51-14.07-6.47c-1.12-.47-2.25-.92-3.38-1.38.64.23.94.33,1,.35-.3-.16-2.11-.84-2.18-.84s.39.18,1.15.49l-.12,0c-1.91-.68-3.82-1.39-5.75-2-4.63-1.57-9.31-3-14-4.19-4.34-1.13-8.68-2.12-13-2.94-2-.38-4-.73-6-1-.76-.12-3-.79-3.6-.54l1.58.21-.5-.06c-.61-.08-1.2-.15-1.81-.21a181.34,181.34,0,0,0-27.18-1q-6.51.26-12.88,1l-1.15.15-.74.09h-.06l-.44.1c-2.62.43-5.21.91-7.78,1.46a148.2,148.2,0,0,0-23.07,6.9c-1.79.7-3.52,1.53-5.33,2.21l.29-.13c3.2-1.56-2.58,1-.38.18l-2.46,1.2q-5.62,2.82-10.93,6.11l-.46.3c-2.91,1.82-5.74,3.76-8.48,5.78-1.62,1.22-3.75,2.49-5.64,3.92-.61-.48-1.24-.95-1.86-1.43-1.06-.79-2.12-1.56-3.19-2.32l-1.35-.93a4,4,0,0,1-.71-.65,58.42,58.42,0,0,0-5.76-3.32,118,118,0,0,0-12.88-6.32l-1.66-.68.42.14c-.1-.06-1-.4-1.15-.45a4,4,0,0,0,.52.23c-1-.36-2-.74-3.05-1.08-1.34-.45-2.69-.89-4-1.28A145,145,0,0,1,5029.51,3564.57Zm86.91,2.5a6.16,6.16,0,0,0-1.68.22Zm-136.67,160.6c2.16,1.06,4.33,2,6.52,3l1.81.73.53.23a7.28,7.28,0,0,1-1-.41c.9.75,3.17,1.14,4.25,1.5a107.82,107.82,0,0,0,13.75,3.58c1.27.25,2.54.46,3.81.65l1,.13.11,0,.1,0,.17,0c1.54.17,3.07.31,4.6.4q.45,1.56,1,3.12c.19.6.39,1.2.59,1.79-.33-1.13-.47-1.61-.48-1.69.07.17.87,2.76,1.13,3.47,1.41,3.83,2.95,7.65,4.62,11.43q3,6.9,6.6,13.66c2,3.77,4.17,7.47,6.36,11.17a1.05,1.05,0,0,0,.07.11c-.45-.69-.65-1-.71-1s1,1.72,1.25,2c0-.07-.19-.35-.54-.94l2,3.07c1.36,2.05,2.76,4.07,4.2,6.08a227.11,227.11,0,0,0,17.47,21.49c1.07,1.18,2.27,2.78,3.53,4-.88-.65-1.37-.84.86.74a10.85,10.85,0,0,1-.83-.73,10.64,10.64,0,0,1,1.21,1l1.77,1.72q5.34,5.15,11,9.94,5.18,4.4,10.6,8.47,2.47,1.86,5,3.65c1,.72,2,1.43,3,2.12.47.33.93.64,1.4.95l-.24-.14.87.58-.63-.44q2.57,1.64,5.16,3.21c5.7,3.47,11.51,6.73,17.46,9.67-.09.31-.17.62-.26.95-.14.5-.26,1-.39,1.51l0,.12s0,.05,0,.06c-.39,2.07-.78,4.13-1,6.24a81.43,81.43,0,0,0-.57,13.66,4.26,4.26,0,0,1,0,.48h0c0,.28.08.59.1.79.1,1.25.23,2.5.38,3.74.28,2.23.65,4.47,1.08,6.71q-10-4.42-19.68-9.79c-51.4-28.49-94.3-75.94-113.21-129.51-.35-1-.7-2-1-3-2.4-7-4.51-14-6.21-21.08C4978.68,3727.14,4979.21,3727.41,4979.75,3727.67Zm304.11,118.93a23.54,23.54,0,0,0,3.53-2.86c.11,0,.46-.34,1.11-1.33a9.66,9.66,0,0,1-1.11,1.33c-.12,0,.09-.47.56-.93.73-.7,1.48-1.39,2.2-2.1q2.18-2.13,4.24-4.37a127.27,127.27,0,0,0,14.25-18.41c.55-.86,1.07-1.72,1.61-2.59,1.39-2.21-.09.37-.4.77,1.31-1.22,2.06-3.75,2.89-5.35q2.7-5.24,4.93-10.76,2.06-5,3.71-10.28c.63-2,1.22-4,1.76-6.08.23-.85.43-1.71.66-2.56,0-.15.07-.29.11-.41-.49,2.58.8-3,0,0a1.08,1.08,0,0,0,.05-.21,161.36,161.36,0,0,0,3-24.84.34.34,0,0,0,0-.1q.21-5.62,0-11.32c0-.73.25-2.77-.15-3.45l.15,2.2c-.05-.77-.11-1.55-.17-2.32-.09-1-.18-2.08-.29-3.11,1.48-.1,3-.24,4.43-.41.1,0,.21,0,.31,0l-.24,0a5.29,5.29,0,0,0,1.79-.29c1-.16,2-.35,3-.55q3.49-.71,6.86-1.73c2-.6,4-1.29,6-2.06.89-.35,1.75-.72,2.62-1.08l-.44.23a8.2,8.2,0,0,0,1-.44l-.36.13,1.38-.68a71.57,71.57,0,0,0,6.68-3.8,181.38,181.38,0,0,1,2.3,21c1.27,24.62-2.54,48.58-11.27,69.82a143.29,143.29,0,0,1-50.08,63,139,139,0,0,1-15.81,9.61c-.5-2.45-1.09-4.89-1.79-7.32-.29-1.05-.6-2.08-.93-3.12l-.09-.3a1.69,1.69,0,0,1,.08.24,3.14,3.14,0,0,0-.39-1.18v0l0,0c-.06-.13-.11-.25-.14-.33-.85-2.33-1.78-4.64-2.81-6.93s-2-4.32-3.11-6.43c-.51-1-1-1.92-1.56-2.87-.44-.76-1-2.06-1.59-3,0,.12-.14,0-.43-.41l-1.07-1.63c-.21-.33-.43-.64-.65-.95q5.06-3.11,9.77-6.63C5281.1,3848.45,5282.49,3847.56,5283.86,3846.6ZM5331.61,3737h.1l-.19,0Z" transform="translate(-4262.35 -3426.78)"/><path class="cls-7" d="M4910.68,3597.93a78.08,78.08,0,0,1,41.42-36.79c23.2-9.09,51.46-7.31,77.41,3.43a130.14,130.14,0,0,1,34.53,21.08q3.26,2.76,6.34,5.75c16.8,16.36,28.83,36,34.66,57.16,5.59,20.29,4.66,41.15-2.51,58.57a75.6,75.6,0,0,1-36.49,39.33,93.33,93.33,0,0,1-43.9,9.16,110.68,110.68,0,0,1-18-2,113,113,0,0,1-19.83-5.72c-34.13-13.22-64.06-42.46-76-76.28a120.35,120.35,0,0,1-4.59-16.12l0-.07C4899.75,3635.06,4902,3614.58,4910.68,3597.93Zm164.62,25.15a4.62,4.62,0,0,1,.74.9A2.52,2.52,0,0,0,5075.3,3623.08Zm-151.62,39.38c.34,1.24.71,2.49,1.11,3.73.1.32.21.64.32.95-.18-.59-.25-.86-.26-.89s.46,1.46.6,1.84a110.35,110.35,0,0,0,6,13.34c1.07,2,2.22,4,3.39,5.94l-.33-.48c.07.13.52.87.65,1,0-.05-.1-.16-.2-.36l1,1.51c.73,1.08,1.48,2.16,2.24,3.23a121.61,121.61,0,0,0,9.28,11.43c.57.63,1.22,1.47,1.89,2.12-.5-.36-.76-.46.59.5a6.29,6.29,0,0,1-.58-.49,5.57,5.57,0,0,1,.64.52l.95.92c1.89,1.82,3.84,3.59,5.85,5.29,1.83,1.55,3.71,3.06,5.64,4.5.87.66,1.75,1.3,2.64,1.94.53.38,1.07.76,1.62,1.13l.75.5.08.06c3.49,2.21,7,4.27,10.65,6.14.54.28,1.07.55,1.61.81,2.16,1.06,4.33,2,6.52,3l1.81.73.53.23a7.28,7.28,0,0,1-1-.41c.9.75,3.17,1.14,4.25,1.5a107.82,107.82,0,0,0,13.75,3.58c1.27.25,2.54.46,3.81.65l1,.13.11,0,.1,0,.17,0c1.54.17,3.07.31,4.6.4,1.05.08,2.08.13,3.12.16a91.65,91.65,0,0,0,13.91-.56l.3,0-.24,0a5.34,5.34,0,0,0,1.8-.29c1-.16,2-.35,3-.55q3.48-.71,6.86-1.73c2-.6,4-1.29,6-2.06.88-.35,1.75-.72,2.63-1.08l-.44.23a9.93,9.93,0,0,0,1-.44l-.37.13,1.39-.68A71.34,71.34,0,0,0,5065,3724a31.6,31.6,0,0,0,4-3c.05,0,.24-.18.59-.7a6.26,6.26,0,0,1-.59.7c-.07,0,.05-.24.29-.49.4-.37.79-.74,1.17-1.12.77-.76,1.53-1.53,2.26-2.32a68.44,68.44,0,0,0,7.58-9.79c.28-.46.57-.92.86-1.37a3.93,3.93,0,0,1,.3-.47,7.1,7.1,0,0,1-.52.87,10.77,10.77,0,0,0,1.53-2.84c1-1.87,1.84-3.77,2.63-5.73.72-1.78,1.39-3.61,2-5.46.34-1.07.65-2.15.94-3.23.12-.45.23-.91.35-1.36,0,0,0-.09,0-.12-.14.8.15-.41.16-.57a1.9,1.9,0,0,0-.1.34,90.17,90.17,0,0,0,1.61-13.25c.08-2,.08-4,0-6a5.59,5.59,0,0,0-.07-1.83c0,.19,0,.38,0,.58,0-.21,0-.43-.05-.65-.11-1.24-.23-2.49-.39-3.73a98.51,98.51,0,0,0-2.95-14.53c-.3-1-.61-2.07-.94-3.11l-.09-.31c0,.08.05.16.08.25a3,3,0,0,0-.39-1.18h0l-.14-.34c-.85-2.33-1.78-4.63-2.8-6.93s-2-4.31-3.13-6.43c-.5-1-1-1.92-1.55-2.86-.44-.77-1-2.06-1.59-3,0,.11-.14,0-.42-.41s-.71-1.1-1.08-1.63c-.72-1.1-1.46-2.17-2.23-3.24q-2.09-2.91-4.36-5.72c-1.51-1.86-3.08-3.69-4.71-5.47-.75-.82-1.53-1.62-2.29-2.43.32.3.46.44.5.46s-.77-.79-.88-.88.09.1.2.23l.15.16-1.85-1.81c-2.91-2.77-6-5.41-9.15-7.9-.61-.48-1.24-.95-1.86-1.43-1.06-.79-2.12-1.56-3.19-2.32l-1.35-.93a4,4,0,0,1-.71-.65,10.59,10.59,0,0,1,.94.79c-.86-.84-1.05-.94-.94-.79a58.42,58.42,0,0,0-5.76-3.32,118,118,0,0,0-12.88-6.32l-1.66-.68.42.14c-.1-.06-1-.4-1.15-.45a4,4,0,0,0,.52.23c-1-.36-2-.74-3.05-1.08-1.34-.45-2.69-.89-4-1.28-1.13-.34-2.27-.65-3.4-1q-3.45-.9-6.92-1.56c-1.07-.2-2.13-.39-3.18-.56a7.06,7.06,0,0,0-1.91-.28l.57.08-1-.11a93.66,93.66,0,0,0-14.45-.5c-2.31.08-4.6.26-6.85.53l-.61.08h0l.58-.08a3.24,3.24,0,0,0-.9.12h-.07l-.23.06c-1.4.22-2.77.48-4.14.77a78.33,78.33,0,0,0-12.27,3.67c-1,.38-1.87.81-2.83,1.18l.15-.07a4.24,4.24,0,0,0,.5-.26c-.19.05-1.54.67-.7.35l-1.31.64c-2,1-3.93,2.09-5.81,3.25-1.63,1-3.22,2.09-4.75,3.23a28.59,28.59,0,0,0-4.33,3.29c.17-.3.13-.34-.52.66a6.26,6.26,0,0,1,.52-.66,4.09,4.09,0,0,1-.53.71c-.4.36-.79.74-1.17,1.12-.64.63-1.26,1.28-1.87,1.94q-2.2,2.37-4.18,4.93c-1.14,1.5-2.23,3.05-3.25,4.63-.25.38-.48.77-.73,1.15a2.31,2.31,0,0,1-.45.54,4.35,4.35,0,0,1,.41-.51c-1,1-.75.86-.41.51-.46.71-.78,1.65-1.15,2.35a73.29,73.29,0,0,0-4.76,11.73c-.27.89-.52,1.79-.77,2.7-.13.49-.26,1-.39,1.5,0-.2,0-.31.06-.36a7.36,7.36,0,0,0-.22,1c0-.07.06-.2.12-.42-.39,2.07-.78,4.13-1,6.23a82.5,82.5,0,0,0-.58,13.66,2.64,2.64,0,0,1,0,.48,3.08,3.08,0,0,1,0-.43c-.26,1.79-.06,1.14,0,.44,0,.29.07.59.09.8.1,1.24.23,2.49.38,3.74.29,2.31.67,4.62,1.13,7S4923,3660.14,4923.68,3662.46Z" transform="translate(-4262.35 -3426.78)"/><path class="cls-7" d="M5331.61,3737h.1l-.19,0Zm0,0h.1l-.19,0Zm0,0h.1l-.19,0Zm-122.28-139.09a79.19,79.19,0,0,1,7.92-12.22,77.79,77.79,0,0,1,26.1-21.25c2.38-1.21,4.86-2.32,7.41-3.32,36.45-14.27,85.37-1.75,118.28,30.26,16.8,16.36,28.83,36,34.65,57.16,5.6,20.29,4.66,41.15-2.5,58.57a75.66,75.66,0,0,1-36.5,39.33c-.94.47-1.9.91-2.86,1.34a92.45,92.45,0,0,1-34.84,7.81,109.23,109.23,0,0,1-24.14-2c-41.92-8-81.62-41.74-95.83-82a120.4,120.4,0,0,1-4.6-16.12v-.07C5198.41,3635.06,5200.61,3614.58,5209.33,3597.93ZM5374,3623.08a5.47,5.47,0,0,1,.74.9A2.65,2.65,0,0,0,5374,3623.08Zm-151.63,39.38c.35,1.24.72,2.49,1.12,3.73.1.32.2.64.31.95-.18-.59-.25-.86-.26-.89s.47,1.46.6,1.84a110.43,110.43,0,0,0,6,13.34c1.06,2,2.22,4,3.38,5.94-.18-.28-.28-.43-.32-.48a11.23,11.23,0,0,0,.64,1l-.2-.36c.33.5.65,1,1,1.51.72,1.08,1.47,2.16,2.23,3.23a120.15,120.15,0,0,0,9.29,11.43c.57.63,1.21,1.47,1.88,2.12-.49-.36-.76-.46.6.5a5.2,5.2,0,0,1-.58-.49,6.59,6.59,0,0,1,.64.52c.31.31.62.62.94.92,1.89,1.82,3.84,3.59,5.85,5.29,1.84,1.55,3.72,3.06,5.64,4.5.88.66,1.76,1.3,2.64,1.94l1.62,1.13.75.5a.24.24,0,0,0,.09.06,130.25,130.25,0,0,0,12.26,7c2.15,1.06,4.32,2,6.52,3l1.81.73.39.18a9.56,9.56,0,0,1-.91-.36c.91.75,3.17,1.14,4.25,1.5a108.25,108.25,0,0,0,13.75,3.58c1.27.25,2.54.46,3.81.65l1,.13.11,0,.1,0,.18,0q3.87.43,7.71.56a93.38,93.38,0,0,0,9.48-.15c1.48-.1,3-.24,4.43-.41.1,0,.21,0,.31,0l-.24,0a5.29,5.29,0,0,0,1.79-.29c1-.16,2-.35,3-.55q3.49-.71,6.86-1.73c2-.6,4-1.29,6-2.06.89-.35,1.75-.72,2.62-1.08l-.44.23a8.2,8.2,0,0,0,1-.44l-.36.13,1.38-.68a71.57,71.57,0,0,0,6.68-3.8q2.11-1.35,4.11-2.85a30.21,30.21,0,0,0,4-3s.25-.18.59-.7a5.35,5.35,0,0,1-.59.7c-.07,0,0-.24.3-.49l1.18-1.12c.75-.76,1.51-1.53,2.25-2.32a69.1,69.1,0,0,0,7.57-9.79c.3-.46.57-.92.86-1.37a3.93,3.93,0,0,1,.3-.47,7.1,7.1,0,0,1-.52.87,10.8,10.8,0,0,0,1.54-2.84c.95-1.87,1.84-3.77,2.62-5.73.74-1.78,1.39-3.61,2-5.46.34-1.07.66-2.15.95-3.23.11-.45.22-.91.34-1.36a2.18,2.18,0,0,1,.06-.22,1.16,1.16,0,0,0-.05.36c0-.08.17-.72.18-.83,0,0-.06.18-.13.47a.5.5,0,0,1,0-.12,87.68,87.68,0,0,0,1.63-13.26c.07-2,.07-4,0-6a5.59,5.59,0,0,0-.08-1.83,2.26,2.26,0,0,1,0,.26c0-.11,0-.22,0-.33-.1-1.24-.23-2.49-.39-3.73a96,96,0,0,0-2.95-14.53c-.3-1-.61-2.07-.93-3.11-.07-.18-.13-.39-.19-.57a5,5,0,0,1,.17.51,2.88,2.88,0,0,0-.39-1.18h0c0-.14-.11-.26-.14-.34-.84-2.33-1.78-4.63-2.79-6.93s-2-4.31-3.13-6.43c-.51-1-1-1.92-1.56-2.86-.43-.77-1-2.06-1.58-3,0,.11-.15,0-.43-.41s-.71-1.1-1.07-1.63c-.72-1.1-1.47-2.17-2.23-3.24-1.39-1.94-2.84-3.85-4.37-5.72s-3.08-3.69-4.7-5.47c-.75-.82-1.54-1.62-2.3-2.43.32.3.46.44.5.46s-.76-.79-.87-.88.09.1.2.23l.14.16-1.85-1.81a124.16,124.16,0,0,0-11-9.33c-1.05-.79-2.12-1.56-3.18-2.32l-1.35-.93a3.81,3.81,0,0,1-.72-.65,9.33,9.33,0,0,1,.94.79c-.86-.84-1-.94-.94-.79a57.29,57.29,0,0,0-5.76-3.32,118,118,0,0,0-12.88-6.32l-1.65-.68.41.14c-.09-.06-1-.4-1.15-.45a3.77,3.77,0,0,0,.53.23c-1-.36-2-.74-3.05-1.08-2.47-.83-5-1.58-7.44-2.23q-3.47-.9-6.93-1.56c-1.06-.2-2.12-.39-3.18-.56a7,7,0,0,0-1.91-.28c.2,0,.38,0,.53.07l-.91-.1a93.79,93.79,0,0,0-14.46-.5c-2.31.08-4.6.26-6.85.53l-.61.08h0l.58-.08a3.18,3.18,0,0,0-.89.12h-.08l-.23.06c-1.39.22-2.77.48-4.14.77a76.51,76.51,0,0,0-8.47,2.3c-1.28.43-2.55.87-3.8,1.37-.89.36-1.77.76-2.67,1.11a3.73,3.73,0,0,0,.49-.26,7.05,7.05,0,0,0-1,.45l.15-.05c-.4.21-.79.39-1.19.59-2,1-3.94,2.09-5.82,3.25-1.62,1-3.21,2.09-4.75,3.23a29.62,29.62,0,0,0-4.33,3.29c.17-.3.13-.34-.51.66a6.15,6.15,0,0,1,.51-.66,4.09,4.09,0,0,1-.53.71c-.39.36-.78.74-1.17,1.12-.63.63-1.25,1.28-1.87,1.94-.44.48-.87.95-1.29,1.43-1,1.14-2,2.3-2.88,3.5-1.15,1.5-2.23,3.05-3.26,4.63l-.72,1.15a2.93,2.93,0,0,1-.45.54,2.93,2.93,0,0,1,.45-.54c-1,1-.76.86-.41.51-.47.71-.79,1.65-1.16,2.35a73.29,73.29,0,0,0-4.76,11.73c-.27.89-.52,1.79-.77,2.7-.13.49-.25,1-.39,1.5,0-.2.05-.31.06-.36-.06.16-.21.9-.23,1,0,0,.06-.2.14-.48-.4,2.07-.78,4.13-1.05,6.23a82.51,82.51,0,0,0-.57,13.66c0,.14,0,.32,0,.48a1.54,1.54,0,0,1,0-.43,7.19,7.19,0,0,0-.13,1.15,4.14,4.14,0,0,0,.13-.71c0,.29.07.59.1.8.09,1.24.22,2.49.38,3.74.29,2.31.66,4.62,1.12,7S5221.7,3660.14,5222.33,3662.46ZM5331.71,3737l-.19,0,.09,0Zm-.1,0h.1l-.19,0Zm0,0h.1l-.19,0Z" transform="translate(-4262.35 -3426.78)"/><path class="cls-7" d="M5098.59,3880.42a90,90,0,0,1,3-34.15,73.73,73.73,0,0,1,5.39-13.4,78.08,78.08,0,0,1,41.42-36.79c36.45-14.26,85.38-1.75,118.28,30.27a138.22,138.22,0,0,1,17.19,20.25,122.26,122.26,0,0,1,16.62,34q.44,1.45.84,2.91c5.6,20.3,4.67,41.15-2.49,58.58a75.73,75.73,0,0,1-36.5,39.33c-18.12,8.9-39.56,11.44-61.85,7.2-41.93-8-81.62-41.75-95.83-82a120.77,120.77,0,0,1-4.59-16.12l0-.07C5099.39,3887.09,5098.91,3883.74,5098.59,3880.42Zm19.63-21.39a0,0,0,0,0,0,0,.08.08,0,0,1,0,0Zm.1,31.42q.7,3.48,1.65,7c.34,1.24.71,2.49,1.11,3.74.1.31.21.63.32,1-.18-.6-.25-.86-.26-.9s.46,1.47.6,1.84a111.35,111.35,0,0,0,6,13.35c1.07,2,2.22,4,3.39,5.94l-.33-.49a6.31,6.31,0,0,0,.33.55s.06.1.08.14a4,4,0,0,0,.25.37l-.22-.39,1,1.51c.73,1.09,1.47,2.17,2.24,3.24a119.63,119.63,0,0,0,9.28,11.42c.58.63,1.21,1.47,1.88,2.13-.49-.36-.75-.46.61.5a6.66,6.66,0,0,1-.59-.49,4.55,4.55,0,0,1,.64.52l.95.92c1.89,1.81,3.84,3.58,5.85,5.28q2.76,2.34,5.64,4.5c.88.66,1.75,1.31,2.64,1.95.53.38,1.08.75,1.62,1.12.21.14.41.28.62.44l.06,0,.07,0a131,131,0,0,0,12.34,7c2.16,1.06,4.33,2,6.53,3l1.8.74c.36.15.54.22.6.26a10.47,10.47,0,0,1-1.12-.45c.92.75,3.18,1.15,4.26,1.51a107.82,107.82,0,0,0,13.75,3.58c1.26.24,2.54.46,3.81.65.31,0,.64.07,1,.13l.11,0h.1l.17,0c2.58.29,5.16.47,7.71.56a93,93,0,0,0,13.92-.56,1.33,1.33,0,0,1,.28,0l-.22,0a5.6,5.6,0,0,0,1.8-.29c1-.17,2-.35,3-.55q3.48-.72,6.86-1.73c2-.61,4-1.3,6-2.06.89-.35,1.75-.73,2.63-1.09l0,0-.3.15-.12.07-.07,0h0l.11,0,.49-.22.22-.1.12-.07-.48.19,1.5-.74a70.49,70.49,0,0,0,10.79-6.64,31.85,31.85,0,0,0,4-3c.05,0,.24-.18.59-.7a7.31,7.31,0,0,1-.59.7c-.07,0,0-.26.3-.49.38-.38.78-.75,1.16-1.12.77-.76,1.53-1.54,2.26-2.33a67.8,67.8,0,0,0,7.58-9.78c.29-.46.57-.92.85-1.38a3.5,3.5,0,0,1,.31-.46,7,7,0,0,1-.52.86,10.62,10.62,0,0,0,1.53-2.84c1-1.86,1.83-3.77,2.63-5.72q1.09-2.68,2-5.46c.34-1.07.65-2.15.94-3.24.12-.45.22-.91.35-1.36l0-.11c0,.12,0,.2,0,.24v0h0s0,0,0,0c0-.16.17-.71.18-.82a1.43,1.43,0,0,0-.08.24,88.81,88.81,0,0,0,1.59-13.15c.08-2,.08-4,0-6a5.61,5.61,0,0,0-.07-1.83c0,.39.05.78.08,1.17,0-.41-.07-.82-.09-1.23-.11-1.25-.24-2.5-.39-3.74q-.45-3.6-1.17-7.2c-.5-2.45-1.09-4.89-1.79-7.32-.29-1.05-.6-2.08-.93-3.12l-.09-.3a1.69,1.69,0,0,1,.08.24,3.14,3.14,0,0,0-.39-1.18h0c-.06-.13-.11-.25-.14-.33-.85-2.33-1.78-4.64-2.81-6.93s-2-4.32-3.11-6.43c-.51-1-1-1.92-1.56-2.87-.44-.76-1-2.06-1.59-3a2.4,2.4,0,0,0-.73-.9,4.66,4.66,0,0,1,.73.9c0,.12-.14,0-.43-.41l-1.07-1.63c-.21-.33-.43-.64-.65-.95-.51-.77-1-1.52-1.58-2.28-1.39-1.95-2.84-3.85-4.36-5.72s-3.08-3.7-4.71-5.47c-.75-.82-1.53-1.62-2.29-2.43l.48.45h0l-.11-.13-.31-.32-.16-.17-.15-.14s-.05,0-.06-.05,0,0,0,0h0s0,0,0,.05l.15.15.15.17-1.85-1.81a122.62,122.62,0,0,0-11-9.33c-1.05-.79-2.11-1.57-3.18-2.33l-1.35-.93a3.41,3.41,0,0,1-.71-.64,8.11,8.11,0,0,1,.94.78c-.86-.83-1.06-.94-.94-.78a55.42,55.42,0,0,0-5.76-3.32,116.24,116.24,0,0,0-12.88-6.32l-1.79-.74.55.19-.27-.12-.13,0-.21-.07-.2-.08-.2-.07h-.05l.5.21-.07,0c-1-.36-2-.74-3.06-1.08-2.45-.84-4.94-1.58-7.43-2.24-2.3-.59-4.61-1.12-6.93-1.56-1.06-.19-2.12-.38-3.17-.55a6.69,6.69,0,0,0-1.91-.28l.31,0-.71-.07a94.82,94.82,0,0,0-14.45-.51c-2.3.09-4.59.27-6.84.54l-.31,0a1.05,1.05,0,0,0,.24,0,2.79,2.79,0,0,0-.9.11h-.07l-.23.05c-1.4.23-2.77.48-4.14.78a78.33,78.33,0,0,0-12.27,3.67c-.92.36-1.82.78-2.75,1.14l.08,0c.19-.1.33-.16.4-.21l.09-.05h0c-.12,0-.51.21-.75.33l-.18.1s0,0,0,0a1.16,1.16,0,0,0,.27-.09l-1.3.64q-3,1.5-5.82,3.25c-1.63,1-3.22,2.09-4.75,3.23a29.1,29.1,0,0,0-4.34,3.28c.18-.29.13-.34-.51.66a7.33,7.33,0,0,1,.51-.66,2.85,2.85,0,0,1-.53.71c-.38.37-.78.74-1.16,1.13-.64.63-1.26,1.28-1.87,1.94-1.46,1.57-2.86,3.21-4.17,4.93-1.15,1.49-2.24,3-3.26,4.63-.25.38-.49.76-.73,1.15a2.81,2.81,0,0,1-.45.53,5.17,5.17,0,0,1,.42-.51c-1,1-.76.86-.42.51-.47.71-.78,1.66-1.15,2.36a72.92,72.92,0,0,0-4.76,11.73q-.26.86-.51,1.74c-.09.31-.17.62-.26.95-.14.5-.26,1-.39,1.51,0-.3.06-.38.06-.39v0s0,0,0,.1a.35.35,0,0,1,0,.13s0,0,0,.09-.09.41-.12.57a.09.09,0,0,0,0,.07s0,0,0,0,.06-.21.12-.43c-.39,2.07-.78,4.13-1,6.24a81.43,81.43,0,0,0-.57,13.66,4.26,4.26,0,0,1,0,.48,2.05,2.05,0,0,1,0-.43,7.77,7.77,0,0,0-.12,1.15,2.48,2.48,0,0,0,.12-.71c0,.28.08.59.1.79.1,1.25.23,2.5.38,3.74.28,2.23.65,4.47,1.08,6.71Z" transform="translate(-4262.35 -3426.78)"/><path class="cls-2" d="M5458.82,3961.14h0A7.61,7.61,0,0,1,5449,3957l-31.3-76.53a7.44,7.44,0,0,1,4.17-9.73h0a7.59,7.59,0,0,1,9.85,4.13L5463,3951.4A7.45,7.45,0,0,1,5458.82,3961.14Z" transform="translate(-4262.35 -3426.78)"/><path class="cls-2" d="M5386.36,4019.07h0a7.63,7.63,0,0,1-10.7,0l-59.06-58.37a7.4,7.4,0,0,1,0-10.57h0a7.62,7.62,0,0,1,10.69,0l59.07,58.37A7.42,7.42,0,0,1,5386.36,4019.07Z" transform="translate(-4262.35 -3426.78)"/><path class="cls-2" d="M4920,3470.26h0a7.47,7.47,0,0,1-5.28,9.2l-80.51,22a7.59,7.59,0,0,1-9.31-5.21h0a7.47,7.47,0,0,1,5.28-9.2l80.51-22A7.58,7.58,0,0,1,4920,3470.26Z" transform="translate(-4262.35 -3426.78)"/></svg>