<svg id="Tent1" xmlns="http://www.w3.org/2000/svg" viewBox="0 0 1584.01 878.67"><defs><style>.cls-1{fill:#957552;}.cls-2{fill:#b275ac;}.cls-3{fill:#c191bd;}.cls-4{fill:#9f5397;}.cls-5{fill:#c69c6d;}.cls-6{fill:#773e71;}.cls-7{fill:#25a9e0;}</style></defs><title>TentFour</title><rect class="cls-1" x="1502.31" y="585.68" width="81.7" height="233.41" rx="40.85"/><path class="cls-2" d="M4045.7,4135.35H2682.62a58.25,58.25,0,0,1-56.13-73.8l7.79-28.12,43.14-155.65,4.31-15.55,132.88-479.42,3.94-14.21a58.28,58.28,0,0,1,58-52.34h975.29a58.29,58.29,0,0,1,58,52.34l3.94,14.21,20,72.27,13.31,48,154.77,558.45A58.24,58.24,0,0,1,4045.7,4135.35Z" transform="translate(-2555.28 -3316.26)"/><path class="cls-3" d="M3913.72,3382.81H2814.61l3.94-14.21a58.28,58.28,0,0,1,58-52.34h975.29a58.29,58.29,0,0,1,58,52.34Z" transform="translate(-2555.28 -3316.26)"/><path class="cls-4" d="M3650.55,4033.43v101.92H2682.62a58.25,58.25,0,0,1-56.13-73.8l7.79-28.12Z" transform="translate(-2555.28 -3316.26)"/><rect class="cls-5" y="645.26" width="81.7" height="233.41" rx="40.85"/><rect class="cls-5" x="778.25" y="645.26" width="81.7" height="233.41" rx="40.85"/><path class="cls-4" d="M3933.75,3455.08c0,1.29,0,2.57,0,3.86,0,156.78-106.71,284.33-237.88,284.33S3458,3615.72,3458,3458.94c0-52,11.73-100.72,32.18-142.68h-17.84c-19.82,43.32-30.34,92-30.34,142.68,0,80,26.24,155.2,73.89,211.86,48,57,111.91,88.47,180,88.47s132-31.42,180-88.47c38.76-46.09,63.36-104.47,71.19-167.7Z" transform="translate(-2555.28 -3316.26)"/><path class="cls-4" d="M2963.24,4037c-20.65-35.78-50.14-67.87-87.67-95.38-54.25-39.76-121.07-66.88-193.84-79.34l-4.31,15.55c164.6,27.85,289.62,131.59,301.33,257.57h16.07C2991.92,4101.32,2981.33,4068.3,2963.24,4037Z" transform="translate(-2555.28 -3316.26)"/><path class="cls-4" d="M4045.7,4135.35H3480.19a58.25,58.25,0,0,1-56.13-73.8l192.06-693a58.29,58.29,0,0,1,58-52.34h177.72a58.29,58.29,0,0,1,58,52.34l192,693A58.24,58.24,0,0,1,4045.7,4135.35Z" transform="translate(-2555.28 -3316.26)"/><path class="cls-6" d="M3745.12,3380.75l-208.58,754.6h452.82l-208.59-754.6C3775.77,3362.66,3750.12,3362.66,3745.12,3380.75Z" transform="translate(-2555.28 -3316.26)"/><path class="cls-6" d="M3251.71,3478.65a177,177,0,0,0-44.4-25.36c-61.51-24.36-139.23-13.49-204.61,25.23q-11.67,6.9-22.75,15c1.49.5,3,1,4.42,1.61,1,.43,2.06.9,3.11,1.31l.18.08.06,0h0l.11.05,1.38.69c2.33,1.18,4.58,2.46,6.77,3.83q2.85,1.8,5.54,3.81c1.5,1.14,3.71,2.36,5,3.88a4.4,4.4,0,0,0,.61.83c.46.43.91.88,1.36,1.32.73.75,1.46,1.51,2.18,2.29.51.56,1,1.12,1.5,1.69,3.07-1.84,6.41-3.48,9-5q5.83-3.36,11.81-6.39,8.09-4.12,16.39-7.62c1.3-.55,2.62-1.08,3.94-1.63-.75.27-1.1.39-1.19.41.35-.18,2.45-1,2.54-1-.08.05-.46.22-1.34.58l.14,0c2.22-.8,4.45-1.63,6.69-2.4q8.1-2.78,16.29-4.94,7.58-2,15.17-3.46,3.48-.67,6.95-1.23c.89-.14,3.46-.93,4.2-.63l-1.85.24.58-.07,2.11-.24a208,208,0,0,1,31.65-1.12q7.59.3,15,1.19l1.33.17.86.11h.08l.51.12c3.05.5,6.06,1.07,9.06,1.72a170.35,170.35,0,0,1,26.86,8.13c2.09.83,4.11,1.8,6.21,2.61l-.34-.16c-3.73-1.84,3,1.19.45.21.95.49,1.9.95,2.85,1.42q6.57,3.32,12.73,7.2l.54.35q5.09,3.23,9.88,6.82c1.88,1.43,4.37,2.93,6.56,4.62.72-.57,1.45-1.13,2.18-1.69q1.83-1.39,3.71-2.73l1.56-1.1a3.89,3.89,0,0,0,.84-.77,68.28,68.28,0,0,1,6.71-3.91,137.49,137.49,0,0,1,15-7.45l1.94-.8-.49.16c.11-.07,1.18-.47,1.34-.52l-.61.27c1.18-.43,2.37-.87,3.56-1.28,1.55-.53,3.12-1,4.7-1.5A169,169,0,0,0,3251.71,3478.65Zm-101.2,2.95a6.61,6.61,0,0,1,2,.26Zm159.15,189.27q-3.76,1.86-7.59,3.48l-2.1.87-.63.27a9.34,9.34,0,0,0,1.22-.49c-1.06.89-3.7,1.35-4.95,1.77a125.16,125.16,0,0,1-16,4.22c-1.48.29-3,.54-4.44.77-.36,0-.75.09-1.12.15l-.13,0-.11,0-.21,0c-1.79.2-3.57.36-5.35.47-.35,1.23-.72,2.45-1.12,3.68-.22.7-.46,1.41-.68,2.11.38-1.33.54-1.9.56-2-.09.2-1,3.25-1.33,4.08q-2.46,6.78-5.37,13.48-3.53,8.13-7.69,16.09c-2.33,4.45-4.86,8.81-7.41,13.17a.83.83,0,0,0-.07.13c.52-.81.76-1.16.82-1.23,0,.09-1.21,2-1.46,2.35,0-.09.23-.42.63-1.11-.78,1.21-1.55,2.42-2.34,3.62q-2.39,3.61-4.88,7.16a267,267,0,0,1-20.35,25.33c-1.25,1.39-2.64,3.27-4.12,4.71,1-.76,1.61-1-1,.87.32-.26.64-.54,1-.85a12.25,12.25,0,0,0-1.41,1.16l-2.06,2q-6.22,6.06-12.81,11.71-6,5.19-12.36,10-2.88,2.19-5.8,4.3c-1.16.84-2.35,1.68-3.53,2.5l-1.63,1.12.27-.17-1,.68.74-.51q-3,1.92-6,3.78c-6.65,4.09-13.4,7.93-20.34,11.39.11.37.21.74.31,1.12l.45,1.78,0,.15a.14.14,0,0,0,0,.07c.46,2.43.91,4.86,1.21,7.35a96.56,96.56,0,0,1,.66,16.1c0,.16,0,.36,0,.56h0c0,.34-.09.7-.1.94-.12,1.47-.27,2.94-.45,4.4q-.49,3.94-1.25,7.91,11.64-5.22,22.9-11.54c59.86-33.57,109.83-89.49,131.85-152.62q.61-1.76,1.2-3.51c2.79-8.26,5.25-16.52,7.23-24.84C3310.91,3670.24,3310.29,3670.56,3309.66,3670.87ZM2955.51,3811a28.21,28.21,0,0,1-4.11-3.37c-.12,0-.53-.4-1.29-1.57a11.54,11.54,0,0,0,1.29,1.57c.15,0-.1-.56-.64-1.1-.86-.83-1.73-1.64-2.57-2.48-1.68-1.67-3.33-3.39-4.94-5.14a151.18,151.18,0,0,1-16.59-21.7c-.64-1-1.25-2-1.88-3-1.61-2.61.11.43.47.9-1.52-1.44-2.4-4.42-3.36-6.3q-3.15-6.18-5.75-12.68c-1.6-4-3-8-4.31-12.12-.75-2.37-1.43-4.75-2.06-7.16-.26-1-.5-2-.76-3l-.13-.48c.57,3-.93-3.54,0,0,0-.08,0-.16-.05-.25a194.57,194.57,0,0,1-3.55-29.28v-.11q-.26-6.63,0-13.35c0-.85-.28-3.26.17-4.06-.06.86-.11,1.73-.17,2.59.06-.91.13-1.82.2-2.73.1-1.22.22-2.45.34-3.67q-2.59-.18-5.16-.48l-.36,0,.28,0a6.27,6.27,0,0,1-2.09-.34c-1.15-.19-2.3-.41-3.44-.65-2.71-.56-5.39-1.24-8-2-2.38-.71-4.7-1.52-7-2.43-1-.41-2-.85-3.05-1.27a4.92,4.92,0,0,1,.51.27,11.07,11.07,0,0,1-1.14-.52l.42.16c-.54-.27-1.08-.53-1.61-.81a83,83,0,0,1-7.78-4.48,218,218,0,0,0-2.67,24.72c-1.48,29,3,57.25,13.12,82.28a168.69,168.69,0,0,0,58.32,74.22,160.56,160.56,0,0,0,18.42,11.32c.58-2.89,1.26-5.76,2.07-8.63.34-1.23.71-2.45,1.09-3.67,0-.12.07-.24.11-.36a2.47,2.47,0,0,0-.1.29,4,4,0,0,1,.45-1.39v0l0,0c.07-.15.13-.29.17-.39,1-2.74,2.07-5.47,3.26-8.16s2.33-5.09,3.62-7.58c.6-1.13,1.2-2.26,1.82-3.38.51-.9,1.13-2.43,1.86-3.56,0,.14.16,0,.49-.48s.82-1.29,1.25-1.93l.75-1.12q-5.88-3.65-11.37-7.81C2958.73,3813.21,2957.11,3812.16,2955.51,3811Zm-55.6-129.14h-.12l.23,0Z" transform="translate(-2555.28 -3316.26)"/><path class="cls-7" d="M3390.09,3518a91.25,91.25,0,0,0-48.23-43.36c-27-10.71-59.92-8.62-90.15,4a151.63,151.63,0,0,0-40.21,24.84c-2.52,2.17-5,4.43-7.38,6.78-19.56,19.28-33.58,42.49-40.36,67.36-6.51,23.92-5.43,48.5,2.92,69a88.73,88.73,0,0,0,42.49,46.35,107.65,107.65,0,0,0,51.13,10.8,128.38,128.38,0,0,0,20.91-2.31,131.11,131.11,0,0,0,23.1-6.75c39.73-15.57,74.59-50,88.49-89.89a143.32,143.32,0,0,0,5.35-19v-.08C3402.82,3561.72,3400.25,3537.59,3390.09,3518Zm-191.7,29.64a5.34,5.34,0,0,0-.86,1.06A2.78,2.78,0,0,1,3198.39,3547.61ZM3375,3594c-.4,1.47-.83,2.94-1.29,4.4-.12.38-.25.75-.37,1.12.2-.7.29-1,.29-1.05s-.54,1.72-.7,2.17a128.31,128.31,0,0,1-6.94,15.72c-1.24,2.37-2.58,4.68-3.94,7l.38-.56c-.08.15-.6,1-.75,1.21,0-.06.11-.19.23-.42-.38.59-.76,1.18-1.15,1.77q-1.26,1.92-2.6,3.81a140.08,140.08,0,0,1-10.81,13.47c-.67.74-1.41,1.74-2.19,2.5.57-.42.87-.54-.7.59a5,5,0,0,0,.67-.58,7.36,7.36,0,0,0-.74.62l-1.1,1.08q-3.32,3.22-6.81,6.23c-2.13,1.83-4.33,3.61-6.57,5.31-1,.77-2,1.53-3.08,2.28-.62.45-1.25.9-1.88,1.33l-.87.6-.11.07c-4,2.6-8.16,5-12.39,7.23-.63.33-1.25.65-1.88,1q-3.76,1.86-7.59,3.48l-2.1.87-.63.27a9.34,9.34,0,0,0,1.22-.49c-1.06.89-3.7,1.35-4.95,1.77a125.16,125.16,0,0,1-16,4.22c-1.48.29-3,.54-4.44.77-.36,0-.75.09-1.12.15l-.13,0-.11,0-.21,0c-1.79.2-3.57.36-5.35.47-1.22.09-2.42.15-3.63.19a106.1,106.1,0,0,1-16.2-.66l-.35,0,.27,0a6.31,6.31,0,0,1-2.09-.34c-1.15-.19-2.3-.41-3.44-.65-2.71-.56-5.38-1.24-8-2-2.37-.71-4.7-1.52-7-2.43-1-.41-2-.85-3.06-1.27a4.92,4.92,0,0,1,.51.27c-.14-.05-1.05-.45-1.14-.52l.43.16c-.55-.27-1.09-.53-1.62-.81a82.38,82.38,0,0,1-12.56-7.83,37.85,37.85,0,0,1-4.62-3.49c-.06,0-.27-.21-.68-.83a6.5,6.5,0,0,0,.68.83c.08,0-.05-.29-.33-.58-.46-.44-.92-.87-1.37-1.32-.89-.89-1.77-1.8-2.63-2.73a81.16,81.16,0,0,1-8.82-11.54l-1-1.62c-.22-.36-.32-.52-.35-.55a9,9,0,0,0,.6,1c-.8-.77-1.28-2.35-1.78-3.35-1.12-2.2-2.14-4.44-3.06-6.75-.85-2.1-1.62-4.26-2.3-6.44-.39-1.26-.75-2.53-1.09-3.81-.14-.53-.27-1.07-.41-1.6l0-.14c.16.94-.18-.48-.19-.67a2.64,2.64,0,0,1,.12.4,106.83,106.83,0,0,1-1.88-15.62q-.14-3.52,0-7.09a7.07,7.07,0,0,1,.09-2.16c0,.23,0,.45,0,.69,0-.25,0-.51.06-.77.12-1.46.27-2.93.45-4.4a114.09,114.09,0,0,1,3.44-17.12c.34-1.22.7-2.44,1.08-3.67a2.47,2.47,0,0,0,.11-.36,1.9,1.9,0,0,1-.09.29,3.7,3.7,0,0,1,.45-1.38v0l.17-.4q1.47-4.11,3.26-8.16c1.12-2.55,2.34-5.08,3.64-7.58.58-1.13,1.19-2.26,1.81-3.37.51-.91,1.13-2.43,1.85-3.56,0,.13.16,0,.49-.48s.83-1.3,1.25-1.93c.85-1.29,1.71-2.55,2.6-3.81q2.43-3.43,5.08-6.75t5.48-6.44c.87-1,1.79-1.91,2.67-2.87-.37.36-.53.52-.58.55s.9-.94,1-1l-.24.27-.17.19c.72-.71,1.43-1.43,2.16-2.13,3.38-3.27,6.95-6.38,10.64-9.31.72-.57,1.45-1.13,2.18-1.69q1.83-1.39,3.71-2.73l1.56-1.1a3.89,3.89,0,0,0,.84-.77,12.81,12.81,0,0,0-1.1.93c1-1,1.23-1.1,1.1-.93a68.28,68.28,0,0,1,6.71-3.91,137.49,137.49,0,0,1,15-7.45l1.94-.8-.49.16c.11-.07,1.18-.47,1.34-.52l-.61.27c1.18-.43,2.37-.87,3.56-1.28,1.55-.53,3.12-1,4.7-1.5,1.31-.4,2.64-.77,4-1.12,2.68-.71,5.37-1.33,8.06-1.84,1.24-.24,2.47-.46,3.7-.66a7.88,7.88,0,0,1,2.23-.33l-.67.09,1.12-.13a109.54,109.54,0,0,1,16.83-.59q4,.15,8,.63l.71.09h0l-.67-.09a3.64,3.64,0,0,1,1,.14h.09l.26.07c1.63.26,3.23.57,4.82.91a90.52,90.52,0,0,1,14.29,4.32c1.11.45,2.18,1,3.29,1.39l-.17-.08a5.67,5.67,0,0,1-.58-.3c.22.06,1.8.78.82.41l1.52.75q3.48,1.77,6.76,3.83,2.86,1.8,5.54,3.81c1.51,1.14,3.71,2.36,5,3.88-.2-.36-.16-.4.59.77a6.06,6.06,0,0,0-.59-.77,4.4,4.4,0,0,0,.61.83c.47.43.92.88,1.36,1.32.74.75,1.47,1.51,2.18,2.29q2.57,2.79,4.86,5.81c1.33,1.77,2.6,3.59,3.79,5.46.29.44.56.9.85,1.35a2.86,2.86,0,0,0,.52.64,4.32,4.32,0,0,0-.47-.6c1.12,1.12.87,1,.47.6a27,27,0,0,1,1.34,2.77,85.36,85.36,0,0,1,5.54,13.82c.33,1,.62,2.11.9,3.18.16.58.3,1.18.46,1.77l-.07-.42c.06.17.21.88.25,1.14,0-.08-.07-.24-.14-.49.46,2.43.91,4.86,1.22,7.34a98.74,98.74,0,0,1,.67,16.1,3.62,3.62,0,0,0,0,.56,2.08,2.08,0,0,0,0-.5c.3,2.1.07,1.34,0,.51,0,.34-.09.7-.11.94q-.18,2.21-.45,4.41c-.33,2.73-.78,5.45-1.31,8.19S3375.71,3591.28,3375,3594Z" transform="translate(-2555.28 -3316.26)"/><path class="cls-7" d="M2899.91,3681.89h-.12l.23,0Zm0,0h-.12l.23,0Zm0,0h-.12l.23,0ZM3042.3,3518a92.47,92.47,0,0,0-9.22-14.41,90.81,90.81,0,0,0-30.38-25c-2.78-1.43-5.67-2.73-8.63-3.91-42.45-16.82-99.42-2.07-137.75,35.66-19.56,19.28-33.57,42.49-40.35,67.36-6.52,23.92-5.43,48.5,2.91,69a88.78,88.78,0,0,0,42.5,46.35c1.11.55,2.22,1.07,3.34,1.58a106.62,106.62,0,0,0,40.56,9.2,126.27,126.27,0,0,0,28.13-2.29c48.81-9.4,95-49.2,111.59-96.64a143.37,143.37,0,0,0,5.36-19v-.08C3055,3561.72,3052.46,3537.59,3042.3,3518Zm-191.71,29.64a6.15,6.15,0,0,0-.86,1.06A2.9,2.9,0,0,1,2850.59,3547.61Zm176.58,46.4c-.4,1.47-.83,2.94-1.3,4.4l-.36,1.12c.2-.7.29-1,.29-1.05s-.54,1.72-.7,2.17a129.85,129.85,0,0,1-6.94,15.72c-1.24,2.37-2.58,4.68-3.94,7,.21-.33.33-.5.38-.56-.08.15-.6,1-.75,1.21,0-.06.11-.19.23-.42-.38.59-.76,1.18-1.15,1.77q-1.26,1.92-2.6,3.81a140.19,140.19,0,0,1-10.82,13.47c-.67.74-1.4,1.74-2.18,2.5.57-.42.87-.54-.71.59a5.11,5.11,0,0,0,.68-.58,7.48,7.48,0,0,0-.75.62l-1.09,1.08q-3.32,3.22-6.81,6.23c-2.14,1.83-4.34,3.61-6.57,5.31-1,.77-2,1.53-3.08,2.28l-1.88,1.33-.87.6-.11.07a151.07,151.07,0,0,1-14.27,8.19q-3.76,1.86-7.6,3.48c-.7.3-1.4.58-2.1.87a4.37,4.37,0,0,0-.46.21c.34-.13.92-.35,1.06-.43-1.07.89-3.7,1.35-4.95,1.77a125.6,125.6,0,0,1-16,4.22c-1.48.29-3,.54-4.44.77-.37,0-.75.09-1.12.15l-.13,0-.11,0-.21,0q-4.52.51-9,.66a106.66,106.66,0,0,1-11-.18q-2.59-.18-5.16-.48l-.36,0,.28,0a6.27,6.27,0,0,1-2.09-.34c-1.15-.19-2.3-.41-3.44-.65-2.71-.56-5.39-1.24-8-2-2.38-.71-4.7-1.52-7-2.43-1-.41-2-.85-3.05-1.27a4.92,4.92,0,0,1,.51.27,11.07,11.07,0,0,1-1.14-.52l.42.16c-.54-.27-1.08-.53-1.61-.81a83,83,0,0,1-7.78-4.48c-1.64-1.06-3.24-2.18-4.78-3.35A37.1,37.1,0,0,1,2858,3663c-.06,0-.28-.21-.68-.83a6.5,6.5,0,0,0,.68.83c.08,0,0-.29-.34-.58-.45-.44-.92-.87-1.37-1.32-.88-.89-1.76-1.8-2.62-2.73a81.16,81.16,0,0,1-8.82-11.54c-.34-.54-.67-1.08-1-1.62-.22-.36-.32-.52-.35-.55a10.75,10.75,0,0,0,.6,1c-.81-.77-1.28-2.35-1.79-3.35-1.11-2.2-2.14-4.44-3.05-6.75-.86-2.1-1.62-4.26-2.3-6.44-.39-1.26-.76-2.53-1.1-3.81-.13-.53-.26-1.07-.4-1.6a1.38,1.38,0,0,0-.07-.26,2.52,2.52,0,0,1,.07.43,7.38,7.38,0,0,1-.22-1c0,.05.07.21.15.55a.68.68,0,0,0,0-.14,104.31,104.31,0,0,1-1.9-15.63q-.12-3.52,0-7.09a7.4,7.4,0,0,1,.1-2.16c0,.1,0,.21,0,.31l0-.39c.12-1.46.27-2.93.45-4.4a112.85,112.85,0,0,1,3.44-17.12c.34-1.22.7-2.44,1.08-3.67.07-.21.15-.45.21-.67-.06.17-.12.37-.19.6a3.52,3.52,0,0,1,.45-1.38v0c.06-.16.13-.3.17-.4,1-2.74,2.07-5.46,3.25-8.16s2.34-5.08,3.64-7.58c.59-1.13,1.2-2.26,1.82-3.37.5-.91,1.13-2.43,1.84-3.56,0,.13.17,0,.5-.48l1.24-1.93c.85-1.29,1.72-2.55,2.61-3.81q2.41-3.43,5.08-6.75c1.75-2.19,3.59-4.34,5.47-6.44.88-1,1.8-1.91,2.68-2.87-.37.36-.53.52-.58.55s.89-.94,1-1l-.24.27-.17.19c.73-.71,1.44-1.43,2.17-2.13a143,143,0,0,1,12.82-11c1.22-.93,2.46-1.84,3.7-2.73l1.57-1.1a3.89,3.89,0,0,0,.84-.77,11.44,11.44,0,0,0-1.1.93c1-1,1.23-1.1,1.1-.93a67.14,67.14,0,0,1,6.71-3.91,137.49,137.49,0,0,1,15-7.45l1.93-.8-.48.16c.1-.07,1.17-.47,1.34-.52l-.61.27c1.18-.43,2.36-.87,3.55-1.28,2.87-1,5.77-1.86,8.66-2.62,2.69-.71,5.38-1.33,8.07-1.84,1.24-.24,2.47-.46,3.7-.66a7.83,7.83,0,0,1,2.23-.33l-.62.08,1.06-.12a109.67,109.67,0,0,1,16.84-.59q4,.15,8,.63l.71.09h0l-.67-.09a3.73,3.73,0,0,1,1,.14h.09l.26.07c1.62.26,3.23.57,4.82.91a89.72,89.72,0,0,1,9.87,2.71c1.49.5,3,1,4.42,1.61,1,.43,2.06.9,3.11,1.31a5,5,0,0,1-.57-.3,8.18,8.18,0,0,1,1.12.52l-.17,0,1.38.69c2.33,1.18,4.58,2.46,6.77,3.83q2.85,1.8,5.54,3.81c1.5,1.14,3.71,2.36,5,3.88-.2-.36-.16-.4.58.77a5.18,5.18,0,0,0-.58-.77,4.4,4.4,0,0,0,.61.83c.46.43.91.88,1.36,1.32.73.75,1.46,1.51,2.18,2.29.51.56,1,1.12,1.5,1.69,1.17,1.34,2.28,2.71,3.35,4.12,1.34,1.77,2.6,3.59,3.8,5.46.29.44.56.9.84,1.35a3.22,3.22,0,0,0,.53.64,3.71,3.71,0,0,0-.48-.6c1.13,1.12.88,1,.48.6a27,27,0,0,1,1.34,2.77,85.36,85.36,0,0,1,5.54,13.82c.33,1,.62,2.11.9,3.18.16.58.3,1.18.46,1.77,0-.23-.06-.36-.07-.42.07.19.25,1.06.27,1.21a3.8,3.8,0,0,1-.16-.56c.46,2.43.9,4.86,1.22,7.34a98.75,98.75,0,0,1,.66,16.1c0,.16,0,.37,0,.56a2.08,2.08,0,0,0,0-.5,7.66,7.66,0,0,1,.14,1.35,5.22,5.22,0,0,1-.14-.84c0,.34-.09.7-.12.94-.11,1.47-.26,2.94-.44,4.41-.34,2.73-.78,5.45-1.31,8.19S3027.91,3591.28,3027.17,3594Zm-127.38,87.87.23,0-.11,0Zm.12,0h-.12l.23,0Zm0,0h-.12l.23,0Z" transform="translate(-2555.28 -3316.26)"/><path class="cls-7" d="M3171.26,3850.88a107,107,0,0,0-3.47-40.24,87.78,87.78,0,0,0-6.28-15.79,91.31,91.31,0,0,0-48.24-43.36c-42.45-16.81-99.42-2.07-137.73,35.67a162.6,162.6,0,0,0-20,23.87,144.83,144.83,0,0,0-19.35,40.06c-.34,1.14-.67,2.28-1,3.42-6.52,23.93-5.43,48.5,2.9,69a88.88,88.88,0,0,0,42.51,46.35c21.1,10.49,46.06,13.49,72,8.49,48.83-9.4,95.06-49.2,111.6-96.64a143.74,143.74,0,0,0,5.35-19l0-.08C3170.33,3858.74,3170.9,3854.8,3171.26,3850.88Zm-22.85-25.2a0,0,0,0,1,0,0,.08.08,0,0,0,0,0Zm-.11,37q-.83,4.1-1.93,8.19c-.4,1.46-.83,2.93-1.29,4.4l-.37,1.12c.21-.71.29-1,.3-1.06,0,.11-.54,1.73-.7,2.17a129.37,129.37,0,0,1-6.95,15.73c-1.23,2.36-2.58,4.68-3.94,7,.23-.33.34-.5.38-.57,0,.08-.21.37-.37.65l-.11.16a4,4,0,0,1-.28.44s.08-.15.25-.46l-1.15,1.78q-1.28,1.92-2.61,3.81a142.67,142.67,0,0,1-10.8,13.46c-.68.74-1.42,1.74-2.2,2.51.57-.42.88-.54-.71.59a5.3,5.3,0,0,0,.69-.58,5.52,5.52,0,0,0-.74.62l-1.11,1.08q-3.3,3.21-6.81,6.22-3.21,2.76-6.56,5.31c-1,.78-2.05,1.54-3.09,2.29-.62.45-1.25.89-1.88,1.33-.24.16-.47.33-.72.51l-.07,0-.08.05a151.18,151.18,0,0,1-14.38,8.25q-3.75,1.88-7.6,3.49l-2.1.87-.7.3a11.22,11.22,0,0,0,1.31-.53c-1.07.89-3.7,1.36-4.95,1.78a124.87,124.87,0,0,1-16,4.22c-1.47.28-3,.54-4.44.77-.36,0-.75.08-1.12.15l-.12,0-.12,0-.2,0c-3,.34-6,.56-9,.66a107.34,107.34,0,0,1-16.2-.66l-.34,0,.26,0a6.37,6.37,0,0,1-2.1-.34c-1.15-.2-2.3-.41-3.44-.65q-4.07-.86-8-2c-2.36-.72-4.69-1.53-7-2.43-1-.41-2-.85-3.05-1.28l-.07,0,.36.17.13.08s.07,0,.08,0h0l-.12-.06c-.16-.06-.38-.17-.58-.26l-.26-.12-.13-.08s.17.06.55.23l-1.75-.87a83.37,83.37,0,0,1-12.56-7.83,38,38,0,0,1-4.61-3.49c-.06,0-.28-.21-.69-.83a7.4,7.4,0,0,0,.69.83c.08,0,0-.3-.35-.58-.45-.45-.91-.88-1.36-1.32-.89-.89-1.77-1.81-2.62-2.74a80.58,80.58,0,0,1-8.83-11.53c-.34-.54-.66-1.08-1-1.63a4.91,4.91,0,0,0-.35-.54,9.11,9.11,0,0,0,.61,1c-.81-.76-1.29-2.35-1.79-3.35-1.12-2.19-2.13-4.44-3.06-6.74q-1.27-3.16-2.3-6.44-.58-1.89-1.08-3.81c-.15-.53-.27-1.08-.42-1.61l0-.13c0,.15,0,.24,0,.29a0,0,0,0,1,0,0h0s0,0,0,0a8.6,8.6,0,0,1-.22-1,1.52,1.52,0,0,1,.1.28,103.73,103.73,0,0,1-1.85-15.49c-.1-2.35-.1-4.71,0-7.1a6.52,6.52,0,0,1,.09-2.16l-.09,1.38c0-.48.07-1,.1-1.45.12-1.47.27-2.94.45-4.4.35-2.83.8-5.66,1.37-8.49s1.26-5.76,2.07-8.63c.34-1.23.71-2.45,1.09-3.67,0-.12.07-.24.11-.36a2.47,2.47,0,0,0-.1.29,4,4,0,0,1,.45-1.39l0,0c.07-.15.13-.29.17-.39,1-2.74,2.07-5.47,3.26-8.16s2.33-5.09,3.62-7.58c.6-1.13,1.2-2.26,1.82-3.38.51-.9,1.13-2.43,1.86-3.56a2.67,2.67,0,0,1,.84-1.06,5,5,0,0,0-.84,1.06c0,.14.16,0,.49-.48s.82-1.29,1.25-1.93l.75-1.12c.6-.9,1.22-1.79,1.84-2.68,1.63-2.3,3.32-4.54,5.08-6.75s3.59-4.35,5.49-6.44c.87-1,1.78-1.91,2.66-2.87-.31.31-.48.47-.55.53l0,0h0a.64.64,0,0,1,.13-.15l.35-.37.19-.2c.06,0,.11-.11.17-.17a.28.28,0,0,0,.08-.06.08.08,0,0,1,0,0s0,0,0,0,0,0-.05.06l-.16.18-.18.2c.72-.71,1.43-1.43,2.16-2.13a145.79,145.79,0,0,1,12.82-11c1.23-.93,2.47-1.85,3.71-2.74.53-.37,1.05-.72,1.57-1.1a4.05,4.05,0,0,0,.83-.76,10.15,10.15,0,0,0-1.09.92c1-1,1.23-1.1,1.09-.92a66.34,66.34,0,0,1,6.71-3.91,137.48,137.48,0,0,1,15-7.45l2.1-.87-.65.23.32-.14.15-.06.24-.09.24-.09.22-.08.07,0c-.12.06-.3.14-.58.25l.07,0c1.19-.43,2.36-.87,3.56-1.28q4.3-1.47,8.66-2.63c2.68-.7,5.37-1.32,8.07-1.84,1.23-.23,2.46-.45,3.69-.65a7.93,7.93,0,0,1,2.23-.33l-.36,0,.82-.09a110.7,110.7,0,0,1,16.83-.6q4,.16,8,.64l.36,0-.28,0a3.21,3.21,0,0,1,1,.13h.09l.27.06c1.62.27,3.23.57,4.82.92a90.4,90.4,0,0,1,14.28,4.32c1.08.43,2.12.93,3.21,1.35l-.09,0-.48-.24-.09-.06h0c.14,0,.59.25.88.39l.2.11s0,0,0,0l-.31-.11,1.51.75q3.49,1.77,6.78,3.83,2.85,1.8,5.54,3.81c1.5,1.13,3.7,2.36,5,3.87-.2-.35-.15-.4.6.77a8.43,8.43,0,0,0-.6-.77,3.59,3.59,0,0,0,.62.83c.45.44.91.88,1.35,1.33.75.75,1.47,1.51,2.18,2.29a75,75,0,0,1,4.85,5.81q2,2.64,3.81,5.46.42.66.84,1.35a3.48,3.48,0,0,0,.53.63,4.13,4.13,0,0,0-.49-.6c1.13,1.12.88,1,.49.6.54.84.91,1.95,1.34,2.78a85.91,85.91,0,0,1,5.54,13.82c.2.68.4,1.36.59,2.05.11.37.21.74.31,1.12l.45,1.78c-.06-.35-.07-.45-.07-.46s0,0,0,0a.81.81,0,0,1,0,.11,1.24,1.24,0,0,0,0,.16.16.16,0,0,1,0,.1c.06.22.11.49.15.67s0,.07,0,.09,0,0,0,0-.07-.25-.14-.5c.46,2.43.91,4.86,1.21,7.35a96.56,96.56,0,0,1,.66,16.1c0,.16,0,.36,0,.56a1.67,1.67,0,0,0,0-.5,10.35,10.35,0,0,1,.15,1.35,3.41,3.41,0,0,1-.15-.84c0,.34-.09.7-.1.94-.12,1.47-.27,2.94-.45,4.4q-.49,3.94-1.25,7.91Z" transform="translate(-2555.28 -3316.26)"/><rect class="cls-4" x="2764.49" y="3835.3" width="17.62" height="114.89" rx="8.81" transform="translate(-894.14 -4071.93) rotate(22.01)"/><rect class="cls-4" x="2867.96" y="3916.21" width="17.62" height="114.89" rx="8.81" transform="translate(1097.11 -4186.59) rotate(45)"/><rect class="cls-4" x="3425.79" y="3325.36" width="17.62" height="114.89" rx="8.81" transform="translate(5054.92 -2342.63) rotate(105.45)"/><rect class="cls-4" x="3433.21" y="3428.38" width="17.62" height="114.89" rx="8.81" transform="translate(3133.35 -4183.74) rotate(71.93)"/></svg>