<svg id="Barrel1" xmlns="http://www.w3.org/2000/svg" viewBox="0 0 297.95 508.51"><defs><style>.cls-1{fill:#7676ab;}.cls-2{fill:#3e3e77;}</style></defs><title>TrashBarrel</title><ellipse class="cls-1" cx="149" cy="411.9" rx="145.34" ry="96.6"/><rect class="cls-2" x="10.11" y="96.6" width="277.79" height="307.77"/><ellipse class="cls-2" cx="149" cy="404.37" rx="138.89" ry="92.32"/><ellipse class="cls-1" cx="149" cy="96.6" rx="145.34" ry="96.6"/><ellipse class="cls-2" cx="149" cy="96.6" rx="123.19" ry="81.88"/><path class="cls-1" d="M5956.36,3830.83c23.34,30.91,57.89,54.52,94.78,65.87,58.34,18,120.93,2.67,167.35-35.83a181,181,0,0,0,32.93-35.29c3.09-4.44.81-11.11-3.59-13.69-5-2.91-10.59-.85-13.68,3.59-.84,1.21-1.74,2.36-2.6,3.56-1.1,1.53,1.42-1.74.38-.48-.42.5-.82,1-1.23,1.54q-1.44,1.79-2.92,3.53A188,188,0,0,1,6211,3841c-16.32,14.83-36.21,27.4-58.15,34.89a156,156,0,0,1-87.16,4.12,158.18,158.18,0,0,1-35.75-13.44q-7.72-4-15-8.79-3.43-2.22-6.75-4.58-1.5-1.07-3-2.16l-1.65-1.23c-.78-.59.51.41-.76-.59a192,192,0,0,1-21-19.13c-2.19-2.32-4.32-4.69-6.36-7.14-.67-.79-1.32-1.61-2-2.41-1.8-2.19,1.51,2,.19.25-3.25-4.3-8.63-6.54-13.68-3.59-4.24,2.48-6.87,9.35-3.59,13.68Z" transform="translate(-5954.89 -3604.78)"/><path class="cls-1" d="M5956.36,3938.48c23.34,30.91,57.89,54.52,94.78,65.87,58.34,18,120.93,2.67,167.35-35.84a180.47,180.47,0,0,0,32.93-35.29c3.09-4.43.81-11.11-3.59-13.68-5-2.91-10.59-.86-13.68,3.59-.84,1.2-1.74,2.36-2.6,3.55-1.1,1.53,1.42-1.74.38-.48-.42.51-.82,1-1.23,1.55q-1.44,1.78-2.92,3.53a187.84,187.84,0,0,1-16.78,17.31c-16.32,14.84-36.21,27.41-58.15,34.9a156.2,156.2,0,0,1-87.16,4.12,158.18,158.18,0,0,1-35.75-13.44q-7.72-4-15-8.79-3.43-2.22-6.75-4.59c-1-.71-2-1.43-3-2.15l-1.65-1.24c-.78-.59.51.41-.76-.59a193,193,0,0,1-21-19.12c-2.19-2.32-4.32-4.7-6.36-7.14-.67-.8-1.32-1.61-2-2.42-1.8-2.19,1.51,2,.19.25-3.25-4.3-8.63-6.54-13.68-3.58-4.24,2.48-6.87,9.34-3.59,13.68Z" transform="translate(-5954.89 -3604.78)"/><rect class="cls-1" x="172.81" y="79.24" width="115.09" height="34.72" rx="17.36"/></svg>