<svg id="BUttons" xmlns="http://www.w3.org/2000/svg" viewBox="0 0 89.77 79.44"><defs><style>.cls-1{fill:#009444;}.cls-2{fill:#006838;}.cls-3{fill:#fff;}.cls-4{fill:#a7a9ac;}.cls-5{fill:#8a8c8e;}</style></defs><title>OMarksTheStart</title><path class="cls-1" d="M357.39,146.24c0,11.09-5.14,21.13-13.44,28.33A47.83,47.83,0,0,1,312.5,186c-24.78,0-44.88-17.78-44.88-39.72,0-10.85,4.91-20.68,12.86-27.84a47.76,47.76,0,0,1,32-11.88C337.29,106.52,357.39,124.3,357.39,146.24Z" transform="translate(-267.62 -106.52)"/><path class="cls-2" d="M344,174.57A47.83,47.83,0,0,1,312.5,186c-24.78,0-44.88-17.78-44.88-39.72,0-10.85,4.91-20.68,12.86-27.84Z" transform="translate(-267.62 -106.52)"/><path class="cls-3" d="M352.66,146.24a32.57,32.57,0,0,1-7,20,36.1,36.1,0,0,1-3.08,3.49,37,37,0,0,1-4.1,3.56,37.62,37.62,0,0,1-3.37,2.29c-1,.62-2.13,1.22-3.24,1.77a42.08,42.08,0,0,1-4.78,2,44.76,44.76,0,0,1-13.24,2.4l-1.37,0H312c-21.43-.23-38.81-15.3-39.63-34.14,0-.3,0-.61,0-.91s0-.33,0-.49a31.48,31.48,0,0,1,.86-7.29,32.58,32.58,0,0,1,4.15-9.9,30.59,30.59,0,0,1,2-2.84c.25-.32.5-.64.77-.95s.35-.41.54-.61a38,38,0,0,1,9.23-7.77,43.64,43.64,0,0,1,22.63-6.17C334.68,110.71,352.66,126.61,352.66,146.24Z" transform="translate(-267.62 -106.52)"/><path class="cls-3" d="M350.77,146.24c0,9.65-4.57,18.37-11.9,24.54A40.06,40.06,0,0,1,321,179.27h0a43.55,43.55,0,0,1-8.48.84c-20.29,0-36.89-14-38.18-31.65-.05-.74-.08-1.48-.08-2.22a30.31,30.31,0,0,1,1-7.88,33,33,0,0,1,10-15.9,40.71,40.71,0,0,1,27.25-10.09C333.64,112.37,350.77,127.54,350.77,146.24Z" transform="translate(-267.62 -106.52)"/><g id="Layer_49" data-name="Layer 49"><path class="cls-4" d="M345,146.24c0,.72,0,1.43-.09,2.14,0,0,0,0,0,0l-.09.81c-1.68,14.37-15.51,25.58-32.32,25.58s-30.63-11.21-32.31-25.58l-.09-.81a0,0,0,0,0,0,0q-.09-1.05-.09-2.13c0-15.76,14.54-28.55,32.49-28.55S345,130.48,345,146.24Z" transform="translate(-267.62 -106.52)"/><path class="cls-5" d="M344.91,148.38s0,0,0,0l-.09.81c-1.68,14.37-15.51,25.58-32.32,25.58s-30.63-11.21-32.31-25.58l-.09-.81a0,0,0,0,0,0,0c1.3-14.72,15.3-26.32,32.4-26.32S343.62,133.66,344.91,148.38Z" transform="translate(-267.62 -106.52)"/><ellipse class="cls-4" cx="44.89" cy="44.09" rx="24.9" ry="21.87"/><ellipse class="cls-3" cx="44.89" cy="39.73" rx="24.9" ry="21.87"/></g></svg>