<svg xmlns="http://www.w3.org/2000/svg" viewBox="0 0 89.77 79.44"><defs><style>.cls-1{fill:#009444;}.cls-2{fill:#006838;}.cls-3{fill:#fff;}.cls-4{fill:#a7a9ac;}.cls-5{fill:#f15a29;}.cls-6{fill:#f7941d;}</style></defs><title>XMarkstheSpot</title><g id="BUttons"><path class="cls-1" d="M296.62,222.28c0,11.1-5.14,21.13-13.44,28.34A47.88,47.88,0,0,1,251.73,262c-24.78,0-44.88-17.78-44.88-39.72,0-10.84,4.91-20.67,12.86-27.83a47.77,47.77,0,0,1,32-11.89C276.52,182.56,296.62,200.34,296.62,222.28Z" transform="translate(-206.85 -182.56)"/><path class="cls-2" d="M283.18,250.62A47.88,47.88,0,0,1,251.73,262c-24.78,0-44.88-17.78-44.88-39.72,0-10.84,4.91-20.67,12.86-27.83Z" transform="translate(-206.85 -182.56)"/><path class="cls-3" d="M291.89,222.28a32.57,32.57,0,0,1-7,20,36.1,36.1,0,0,1-3.08,3.49,37,37,0,0,1-4.1,3.56,37.62,37.62,0,0,1-3.37,2.29c-1,.62-2.13,1.22-3.24,1.77a42.08,42.08,0,0,1-4.78,2,44.76,44.76,0,0,1-13.24,2.4l-1.37,0h-.48c-21.43-.23-38.81-15.3-39.63-34.14,0-.3,0-.61,0-.91s0-.33,0-.49a31.48,31.48,0,0,1,.86-7.29,32.58,32.58,0,0,1,4.15-9.9,30.59,30.59,0,0,1,2-2.84c.25-.32.5-.64.77-.95s.35-.41.54-.61a38,38,0,0,1,9.23-7.77,43.64,43.64,0,0,1,22.63-6.17C273.91,186.75,291.89,202.65,291.89,222.28Z" transform="translate(-206.85 -182.56)"/><path class="cls-3" d="M290,222.28c0,9.66-4.57,18.37-11.9,24.54a39.85,39.85,0,0,1-17.86,8.49h0a43.55,43.55,0,0,1-8.48.83c-20.29,0-36.89-14-38.18-31.65-.05-.73-.08-1.48-.08-2.22a30.31,30.31,0,0,1,1-7.88,33,33,0,0,1,10-15.89,40.71,40.71,0,0,1,27.25-10.09C272.87,188.42,290,203.58,290,222.28Z" transform="translate(-206.85 -182.56)"/><path class="cls-4" d="M273.91,246.88l-7.57,8.52a44.76,44.76,0,0,1-13.24,2.4l-1.37,0h-.48c-21.43-.23-38.81-15.3-39.63-34.14,0-.3,0-.61,0-.91s0-.33,0-.49a31.48,31.48,0,0,1,.86-7.29l11.31-12.72Z" transform="translate(-206.85 -182.56)"/><path class="cls-5" d="M282.76,205.12v-6.31L252,212.32l-30.76-13.51v6.31l19.45,17.21-3.93,3.47-15.52,7.43v6.31l11.31,10L252,232.35l19.45,17.21,11.31-10v-6.31l-15.12-7.07-4.33-3.83Q273,213.74,282.76,205.12Z" transform="translate(-206.85 -182.56)"/><polygon class="cls-6" points="75.91 16.25 64.59 6.24 45.15 23.45 25.7 6.24 14.39 16.25 33.84 33.46 14.39 50.67 25.7 60.69 45.15 43.48 64.59 60.69 75.91 50.67 56.46 33.46 75.91 16.25"/></g></svg>