<svg id="ToxicGrass" xmlns="http://www.w3.org/2000/svg" viewBox="0 0 435.74 563.41"><defs><style>.cls-1{fill:#a67c52;}.cls-2{fill:#8c6239;}.cls-3{fill:#b89675;}.cls-4{fill:#70563f;}.cls-5{fill:#855542;}.cls-6{fill:#a6917c;}.cls-7{fill:#b8ada3;}</style></defs><title>DeadGrass</title><rect class="cls-1" x="52.18" y="234.56" width="328.85" height="328.85"/><rect class="cls-2" x="52.18" y="511.56" width="328.85" height="51.8"/><rect class="cls-3" x="52.18" y="403.01" width="328.85" height="51.8"/><rect class="cls-4" x="52.18" y="73.22" width="328.85" height="328.85"/><rect class="cls-5" x="52.18" y="34.24" width="328.85" height="328.85"/><path class="cls-6" d="M5465.4,2177.89v46h-77a20.68,20.68,0,0,1-20.68-20.68v-4.59a20.68,20.68,0,0,1,20.68-20.69Z" transform="translate(-5084.37 -1755.95)"/><rect class="cls-6" x="120.42" y="480.67" width="156.83" height="55.19" rx="20.68"/><path class="cls-6" d="M5465.4,2307.49c-.61-.06-1.23-.09-1.85-.09H5348.08a20.67,20.67,0,0,0-18.75,12H5465.4Z" transform="translate(-5084.37 -1755.95)"/><path class="cls-6" d="M5169.49,2198.58v4.59a20.68,20.68,0,0,1-20.68,20.68h-12.26v-46h12.26A20.68,20.68,0,0,1,5169.49,2198.58Z" transform="translate(-5084.37 -1755.95)"/><path class="cls-6" d="M5153.45,2319.32h-16.9v-11.88A20.65,20.65,0,0,1,5153.45,2319.32Z" transform="translate(-5084.37 -1755.95)"/><rect class="cls-7" x="120.42" y="480.67" width="156.83" height="41.36" rx="20.68"/><path class="cls-7" d="M5465.4,2177.89V2207h-77c-11.42,0-20.68-5.86-20.68-13.1V2191c0-7.23,9.26-13.1,20.68-13.1Z" transform="translate(-5084.37 -1755.95)"/><path class="cls-7" d="M5169.49,2191v2.91c0,7.24-9.26,13.1-20.68,13.1h-12.26v-29.11h12.26C5160.23,2177.89,5169.49,2183.76,5169.49,2191Z" transform="translate(-5084.37 -1755.95)"/><rect class="cls-5" x="320.28" y="73.86" width="109.42" height="40.93" rx="20.47"/><rect class="cls-5" x="310.67" y="122.88" width="109.42" height="40.93" rx="20.47"/><rect class="cls-5" x="326.32" y="174.94" width="109.42" height="40.93" rx="20.47"/><rect class="cls-5" x="5.88" y="290.64" width="109.42" height="40.93" rx="20.47"/><rect class="cls-5" y="238.89" width="109.42" height="40.93" rx="20.47"/><rect class="cls-5" x="18.33" y="187.14" width="109.42" height="40.93" rx="20.47"/><rect class="cls-5" x="5165.47" y="1806.38" width="109.42" height="40.93" rx="20.47" transform="translate(-1691.04 5291.07) rotate(-90)"/><rect class="cls-5" x="5217.16" y="1790.19" width="109.42" height="40.93" rx="20.47" transform="translate(-1623.16 5326.58) rotate(-90)"/><rect class="cls-5" x="5268.06" y="1801.58" width="109.42" height="40.93" rx="20.47" transform="translate(-1583.65 5388.87) rotate(-90)"/><rect class="cls-5" x="5228.49" y="2067.06" width="109.42" height="40.93" rx="20.47" transform="translate(-1888.69 5614.78) rotate(-90)"/><rect class="cls-5" x="5280.22" y="2081.47" width="109.42" height="40.93" rx="20.47" transform="translate(-1851.37 5680.92) rotate(-90)"/><rect class="cls-5" x="5333.82" y="2067.06" width="109.42" height="40.93" rx="20.47" transform="translate(-1783.37 5720.1) rotate(-90)"/><rect class="cls-4" x="5313.47" y="1852.22" width="70.05" height="37.05" rx="18.52" transform="translate(-1606.62 5463.29) rotate(-90)"/><rect class="cls-4" x="5360.02" y="1880.77" width="70.05" height="37.05" rx="18.52" transform="translate(-1588.62 5538.38) rotate(-90)"/></svg>