<svg id="ToxicPath" xmlns="http://www.w3.org/2000/svg" viewBox="0 0 329.34 540.66"><defs><style>.cls-1{fill:#a67c52;}.cls-2{fill:#8c6239;}.cls-3{fill:#b89675;}.cls-4{fill:#70563f;}.cls-5{fill:#855542;}.cls-6{fill:#a6917c;}.cls-7{fill:#b8ada3;}.cls-8{fill:#936d47;}.cls-9{fill:#b8926d;}.cls-10{fill:#c6a88a;}</style></defs><title>DeadPath</title><rect class="cls-1" x="0.49" y="211.81" width="328.85" height="328.85"/><rect class="cls-2" x="0.49" y="488.81" width="328.85" height="51.8"/><rect class="cls-3" x="0.49" y="380.25" width="328.85" height="51.8"/><rect class="cls-4" x="0.49" y="50.47" width="328.85" height="328.85"/><rect class="cls-5" x="0.49" y="11.49" width="328.85" height="328.85"/><path class="cls-6" d="M5891.41,2177.89v46h-77a20.68,20.68,0,0,1-20.68-20.68v-4.59a20.68,20.68,0,0,1,20.68-20.69Z" transform="translate(-5562.07 -1778.7)"/><rect class="cls-6" x="68.73" y="457.92" width="156.83" height="55.19" rx="20.68"/><path class="cls-6" d="M5891.41,2307.49c-.61-.06-1.23-.09-1.85-.09H5774.09a20.67,20.67,0,0,0-18.75,12h136.07Z" transform="translate(-5562.07 -1778.7)"/><path class="cls-6" d="M5595.5,2198.58v4.59a20.68,20.68,0,0,1-20.68,20.68h-12.26v-46h12.26A20.68,20.68,0,0,1,5595.5,2198.58Z" transform="translate(-5562.07 -1778.7)"/><path class="cls-6" d="M5579.46,2319.32h-16.9v-11.88A20.65,20.65,0,0,1,5579.46,2319.32Z" transform="translate(-5562.07 -1778.7)"/><rect class="cls-7" x="68.73" y="457.92" width="156.83" height="41.36" rx="20.68"/><path class="cls-7" d="M5891.41,2177.89V2207h-77c-11.42,0-20.68-5.86-20.68-13.1V2191c0-7.23,9.26-13.1,20.68-13.1Z" transform="translate(-5562.07 -1778.7)"/><path class="cls-7" d="M5595.5,2191v2.91c0,7.24-9.26,13.1-20.68,13.1h-12.26v-29.11h12.26C5586.24,2177.89,5595.5,2183.76,5595.5,2191Z" transform="translate(-5562.07 -1778.7)"/><circle class="cls-8" cx="82.21" cy="93.69" r="81.73"/><circle class="cls-8" cx="82.21" cy="258.14" r="81.73"/><circle class="cls-9" cx="81.73" cy="81.73" r="81.73"/><circle class="cls-10" cx="81.73" cy="81.73" r="66.04"/><circle class="cls-9" cx="81.73" cy="81.73" r="49.77"/><circle class="cls-10" cx="81.73" cy="81.73" r="33.09"/><circle class="cls-8" cx="246.64" cy="93.69" r="81.73"/><circle class="cls-9" cx="246.15" cy="81.73" r="81.73"/><circle class="cls-8" cx="246.64" cy="258.14" r="81.73"/><circle class="cls-10" cx="246.15" cy="81.73" r="66.04"/><circle class="cls-9" cx="246.15" cy="81.73" r="49.77"/><circle class="cls-10" cx="246.15" cy="81.73" r="33.09"/><circle class="cls-9" cx="81.73" cy="246.18" r="81.73"/><circle class="cls-10" cx="81.73" cy="246.18" r="66.04"/><circle class="cls-9" cx="81.73" cy="246.18" r="49.77"/><circle class="cls-10" cx="81.73" cy="246.18" r="33.09"/><circle class="cls-9" cx="246.15" cy="246.18" r="81.73"/><circle class="cls-10" cx="246.15" cy="246.18" r="66.04"/><circle class="cls-9" cx="246.15" cy="246.18" r="49.77"/><circle class="cls-10" cx="246.15" cy="246.18" r="33.09"/></svg>