<svg xmlns="http://www.w3.org/2000/svg" viewBox="0 0 330.13 490.19"><defs><style>.cls-1{fill:#666;}.cls-2{fill:#72768f;}.cls-3{fill:#c6aa8f;}.cls-4{fill:#b8987b;}.cls-5{fill:#d1b599;}.cls-6{fill:#999;}.cls-7{fill:#b8926d;}</style></defs><title>DirtxStone</title><g id="Dirt_Stone" data-name="Dirt/Stone"><rect class="cls-1" x="1.28" y="161.34" width="328.85" height="328.85"/><rect class="cls-2" x="1.28" y="81.13" width="328.85" height="328.85"/><rect class="cls-3" x="1.27" width="328.85" height="328.85"/><path class="cls-4" d="M1364.07,1822.63v122H1181.51a70.72,70.72,0,0,1-50-120.73l1.25-1.23Z" transform="translate(-1033.94 -1821.7)"/><path class="cls-5" d="M1280.38,2037.66a81.45,81.45,0,0,1-81.45,81.45H1035.21V1956.2h163.72A81.45,81.45,0,0,1,1280.38,2037.66Z" transform="translate(-1033.94 -1821.7)"/><path class="cls-4" d="M1110.78,1873.45a70.73,70.73,0,0,1-70.72,70.73h-4.85V1822.63h54A70.5,70.5,0,0,1,1110.78,1873.45Z" transform="translate(-1033.94 -1821.7)"/><path class="cls-4" d="M1088.38,2151.49h-53.17v-19.08h4.85A70.5,70.5,0,0,1,1088.38,2151.49Z" transform="translate(-1033.94 -1821.7)"/><path class="cls-5" d="M1364.06,1956.2v162.91h-2.22a81.46,81.46,0,1,1,0-162.91Z" transform="translate(-1033.94 -1821.7)"/><rect class="cls-2" x="136.12" y="114.89" width="180.45" height="99.06" rx="37.12"/><rect class="cls-2" x="7.85" y="250.74" width="123.32" height="60" rx="27.38"/><rect class="cls-2" x="32.52" y="21.13" width="133.18" height="68.88" rx="27.38"/><rect class="cls-6" x="32.52" y="14.31" width="133.18" height="68.88" rx="27.38"/><rect class="cls-6" x="136.12" y="104.31" width="180.45" height="99.06" rx="37.12"/><rect class="cls-6" x="7.85" y="243.93" width="123.32" height="60" rx="27.38"/><path class="cls-4" d="M1132.75,2151.69a70.53,70.53,0,0,1,48.76-19.49h182.56v18.68Z" transform="translate(-1033.94 -1821.7)"/><rect class="cls-7" y="330.24" width="328.85" height="51.8"/></g></svg>