<svg xmlns="http://www.w3.org/2000/svg" viewBox="0 0 328.86 490.19"><defs><style>.cls-1{fill:#a67c52;}.cls-2{fill:#8c6239;}.cls-3{fill:#b8926d;}.cls-4{fill:#c6aa8f;}.cls-5{fill:#a6917c;}.cls-6{fill:#baafa5;}.cls-7{fill:#b8987b;}.cls-8{fill:#d1b599;}</style></defs><title>Dirt</title><g id="Dirt"><rect class="cls-1" x="0.01" y="161.34" width="328.85" height="328.85"/><rect class="cls-2" x="0.01" y="438.34" width="328.85" height="51.8"/><rect class="cls-3" x="0.01" y="329.79" width="328.85" height="51.8"/><rect class="cls-4" width="328.85" height="328.85"/><path class="cls-5" d="M1033.94,2170.88v46H957a20.68,20.68,0,0,1-20.68-20.68v-4.59A20.68,20.68,0,0,1,957,2170.88Z" transform="translate(-705.08 -1822.16)"/><rect class="cls-5" x="68.24" y="407.45" width="156.83" height="55.19" rx="20.68"/><path class="cls-5" d="M1033.94,2300.48c-.61-.06-1.23-.09-1.85-.09H916.62a20.67,20.67,0,0,0-18.75,12h136.07Z" transform="translate(-705.08 -1822.16)"/><path class="cls-5" d="M738,2191.57v4.59a20.68,20.68,0,0,1-20.68,20.68H705.09v-46h12.26A20.68,20.68,0,0,1,738,2191.57Z" transform="translate(-705.08 -1822.16)"/><path class="cls-5" d="M722,2312.3h-16.9v-11.87A20.64,20.64,0,0,1,722,2312.3Z" transform="translate(-705.08 -1822.16)"/><rect class="cls-6" x="68.24" y="407.45" width="156.83" height="41.36" rx="20.68"/><path class="cls-6" d="M1033.94,2170.88V2200H957c-11.42,0-20.68-5.87-20.68-13.1V2184c0-7.24,9.26-13.1,20.68-13.1Z" transform="translate(-705.08 -1822.16)"/><path class="cls-6" d="M738,2184v2.91c0,7.23-9.26,13.1-20.68,13.1H705.09v-29.11h12.26C728.77,2170.88,738,2176.74,738,2184Z" transform="translate(-705.08 -1822.16)"/><path class="cls-7" d="M1033.94,1823.09v122H851.38a70.72,70.72,0,0,1-50-120.73l1.25-1.23Z" transform="translate(-705.08 -1822.16)"/><path class="cls-8" d="M950.25,2038.12a81.45,81.45,0,0,1-81.45,81.45H705.08V1956.66H868.8A81.45,81.45,0,0,1,950.25,2038.12Z" transform="translate(-705.08 -1822.16)"/><path class="cls-7" d="M780.66,1873.91a70.73,70.73,0,0,1-70.72,70.73h-4.85V1823.09h54A70.5,70.5,0,0,1,780.66,1873.91Z" transform="translate(-705.08 -1822.16)"/><path class="cls-7" d="M758.26,2152H705.09v-19.08h4.85A70.5,70.5,0,0,1,758.26,2152Z" transform="translate(-705.08 -1822.16)"/><path class="cls-8" d="M1033.94,1956.66v162.91h-2.22a81.46,81.46,0,1,1,0-162.91Z" transform="translate(-705.08 -1822.16)"/><path class="cls-7" d="M802.62,2152.15a70.53,70.53,0,0,1,48.76-19.49h182.56v18.68Z" transform="translate(-705.08 -1822.16)"/></g></svg>