<svg xmlns="http://www.w3.org/2000/svg" viewBox="0 0 435.74 563.41"><defs><style>.cls-1{fill:#a67c52;}.cls-2{fill:#8c6239;}.cls-3{fill:#b89675;}.cls-4{fill:#799554;}.cls-5{fill:#a1c671;}.cls-6{fill:#a6917c;}.cls-7{fill:#b8ada3;}</style></defs><title>Grass</title><g id="Grass"><rect class="cls-1" x="52.18" y="234.56" width="328.85" height="328.85"/><rect class="cls-2" x="52.18" y="511.56" width="328.85" height="51.8"/><rect class="cls-3" x="52.18" y="403.01" width="328.85" height="51.8"/><rect class="cls-4" x="52.18" y="73.22" width="328.85" height="328.85"/><rect class="cls-5" x="52.18" y="34.24" width="328.85" height="328.85"/><path class="cls-6" d="M703.81,2171.58v46h-77a20.68,20.68,0,0,1-20.68-20.68v-4.59a20.68,20.68,0,0,1,20.68-20.69Z" transform="translate(-322.78 -1749.64)"/><rect class="cls-6" x="120.42" y="480.67" width="156.83" height="55.19" rx="20.68"/><path class="cls-6" d="M703.81,2301.18c-.61-.06-1.23-.09-1.85-.09H586.49a20.67,20.67,0,0,0-18.75,12H703.81Z" transform="translate(-322.78 -1749.64)"/><path class="cls-6" d="M407.9,2192.27v4.59a20.68,20.68,0,0,1-20.68,20.68H375v-46h12.26A20.68,20.68,0,0,1,407.9,2192.27Z" transform="translate(-322.78 -1749.64)"/><path class="cls-6" d="M391.86,2313H375v-11.87A20.64,20.64,0,0,1,391.86,2313Z" transform="translate(-322.78 -1749.64)"/><rect class="cls-7" x="120.42" y="480.67" width="156.83" height="41.36" rx="20.68"/><path class="cls-7" d="M703.81,2171.58v29.11h-77c-11.42,0-20.68-5.86-20.68-13.1v-2.9c0-7.24,9.26-13.11,20.68-13.11Z" transform="translate(-322.78 -1749.64)"/><path class="cls-7" d="M407.9,2184.69v2.9c0,7.24-9.26,13.1-20.68,13.1H375v-29.11h12.26C398.64,2171.58,407.9,2177.45,407.9,2184.69Z" transform="translate(-322.78 -1749.64)"/><rect class="cls-5" x="320.28" y="73.86" width="109.42" height="40.93" rx="20.47"/><rect class="cls-5" x="310.67" y="122.88" width="109.42" height="40.93" rx="20.47"/><rect class="cls-5" x="326.32" y="174.94" width="109.42" height="40.93" rx="20.47"/><rect class="cls-5" x="5.88" y="290.64" width="109.42" height="40.93" rx="20.47"/><rect class="cls-5" y="238.89" width="109.42" height="40.93" rx="20.47"/><rect class="cls-5" x="18.33" y="187.14" width="109.42" height="40.93" rx="20.47"/><rect class="cls-5" x="403.88" y="1800.07" width="109.42" height="40.93" rx="20.47" transform="translate(-1684.73 529.48) rotate(-90)"/><rect class="cls-5" x="455.57" y="1783.89" width="109.42" height="40.93" rx="20.47" transform="translate(-1616.86 564.99) rotate(-90)"/><rect class="cls-5" x="506.47" y="1795.27" width="109.42" height="40.93" rx="20.47" transform="translate(-1577.34 627.28) rotate(-90)"/><rect class="cls-5" x="466.91" y="2060.75" width="109.42" height="40.93" rx="20.47" transform="translate(-1882.39 853.19) rotate(-90)"/><rect class="cls-5" x="518.64" y="2075.16" width="109.42" height="40.93" rx="20.47" transform="translate(-1845.07 919.33) rotate(-90)"/><rect class="cls-5" x="572.23" y="2060.75" width="109.42" height="40.93" rx="20.47" transform="translate(-1777.06 958.52) rotate(-90)"/><rect class="cls-4" x="551.88" y="1845.91" width="70.05" height="37.05" rx="18.52" transform="translate(-1600.31 701.7) rotate(-90)"/><rect class="cls-4" x="598.43" y="1874.46" width="70.05" height="37.05" rx="18.52" transform="translate(-1582.32 776.8) rotate(-90)"/></g></svg>