<svg xmlns="http://www.w3.org/2000/svg" viewBox="0 0 329.34 540.66"><defs><style>.cls-1{fill:#a67c52;}.cls-2{fill:#8c6239;}.cls-3{fill:#b89675;}.cls-4{fill:#799554;}.cls-5{fill:#a1c671;}.cls-6{fill:#a6917c;}.cls-7{fill:#b8ada3;}.cls-8{fill:#936d47;}.cls-9{fill:#b8926d;}.cls-10{fill:#c6a88a;}</style></defs><title>Path</title><g id="Path"><rect class="cls-1" x="0.49" y="211.81" width="328.85" height="328.85"/><rect class="cls-2" x="0.49" y="488.81" width="328.85" height="51.8"/><rect class="cls-3" x="0.49" y="380.25" width="328.85" height="51.8"/><rect class="cls-4" x="0.49" y="50.47" width="328.85" height="328.85"/><rect class="cls-5" x="0.49" y="11.49" width="328.85" height="328.85"/><path class="cls-6" d="M377.49,2171.58v46h-77a20.68,20.68,0,0,1-20.68-20.68v-4.59a20.68,20.68,0,0,1,20.68-20.69Z" transform="translate(-48.15 -1772.39)"/><rect class="cls-6" x="68.73" y="457.92" width="156.83" height="55.19" rx="20.68"/><path class="cls-6" d="M377.49,2301.18c-.61-.06-1.23-.09-1.85-.09H260.17a20.67,20.67,0,0,0-18.75,12H377.49Z" transform="translate(-48.15 -1772.39)"/><path class="cls-6" d="M81.58,2192.27v4.59a20.68,20.68,0,0,1-20.68,20.68H48.64v-46H60.9A20.68,20.68,0,0,1,81.58,2192.27Z" transform="translate(-48.15 -1772.39)"/><path class="cls-6" d="M65.54,2313H48.64v-11.87A20.64,20.64,0,0,1,65.54,2313Z" transform="translate(-48.15 -1772.39)"/><rect class="cls-7" x="68.73" y="457.92" width="156.83" height="41.36" rx="20.68"/><path class="cls-7" d="M377.49,2171.58v29.11h-77c-11.42,0-20.68-5.86-20.68-13.1v-2.9c0-7.24,9.26-13.11,20.68-13.11Z" transform="translate(-48.15 -1772.39)"/><path class="cls-7" d="M81.58,2184.69v2.9c0,7.24-9.26,13.1-20.68,13.1H48.64v-29.11H60.9C72.32,2171.58,81.58,2177.45,81.58,2184.69Z" transform="translate(-48.15 -1772.39)"/><circle class="cls-8" cx="82.21" cy="93.69" r="81.73"/><circle class="cls-8" cx="82.21" cy="258.14" r="81.73"/><circle class="cls-9" cx="81.73" cy="81.73" r="81.73"/><circle class="cls-10" cx="81.73" cy="81.73" r="66.04"/><circle class="cls-9" cx="81.73" cy="81.73" r="49.77"/><circle class="cls-10" cx="81.73" cy="81.73" r="33.09"/><circle class="cls-8" cx="246.64" cy="93.69" r="81.73"/><circle class="cls-9" cx="246.15" cy="81.73" r="81.73"/><circle class="cls-8" cx="246.64" cy="258.14" r="81.73"/><circle class="cls-10" cx="246.15" cy="81.73" r="66.04"/><circle class="cls-9" cx="246.15" cy="81.73" r="49.77"/><circle class="cls-10" cx="246.15" cy="81.73" r="33.09"/><circle class="cls-9" cx="81.73" cy="246.18" r="81.73"/><circle class="cls-10" cx="81.73" cy="246.18" r="66.04"/><circle class="cls-9" cx="81.73" cy="246.18" r="49.77"/><circle class="cls-10" cx="81.73" cy="246.18" r="33.09"/><circle class="cls-9" cx="246.15" cy="246.18" r="81.73"/><circle class="cls-10" cx="246.15" cy="246.18" r="66.04"/><circle class="cls-9" cx="246.15" cy="246.18" r="49.77"/><circle class="cls-10" cx="246.15" cy="246.18" r="33.09"/></g></svg>