<svg xmlns="http://www.w3.org/2000/svg" viewBox="0 0 328.85 496.26"><defs><style>.cls-1{fill:#666;}.cls-2{fill:#72768f;}.cls-3{fill:#8a8a8a;}.cls-4{fill:#999;}</style></defs><title>StoneLeft</title><g id="_Rock_" data-name="(Rock)"><g id="StoneLeft"><rect class="cls-1" y="167.41" width="328.85" height="328.85"/><rect class="cls-2" y="87.2" width="328.85" height="328.85"/><rect class="cls-3" y="6.07" width="328.85" height="328.85"/><path class="cls-2" d="M1692.28,2556.5v104.39a48.9,48.9,0,0,1-12.89,1.72H1523.14a49,49,0,0,1-49-49v-9.79a49,49,0,0,1,49-49h156.25A48.9,48.9,0,0,1,1692.28,2556.5Z" transform="translate(-1363.43 -2341.94)"/><path class="cls-2" d="M1497.79,2441.29v48.64a34.73,34.73,0,0,1-34.72,34.72h-99.64V2357.2a34.74,34.74,0,0,1,28.51,34.17v13.34c0,.62,0,1.24,0,1.85h71.18A34.73,34.73,0,0,1,1497.79,2441.29Z" transform="translate(-1363.43 -2341.94)"/><path class="cls-2" d="M1399.56,2603.8v9.79a49,49,0,0,1-36.13,47.3V2556.5A49,49,0,0,1,1399.56,2603.8Z" transform="translate(-1363.43 -2341.94)"/><path class="cls-2" d="M1692.28,2356.65v168h-56.81a34.73,34.73,0,0,1-34.72-34.72v-48.64c0-.62,0-1.24,0-1.86h-28.64a34.72,34.72,0,0,1-34.73-34.72v-13.34a34.73,34.73,0,0,1,34.73-34.72Z" transform="translate(-1363.43 -2341.94)"/><path class="cls-4" d="M1692.28,2547.86v104.39a48.9,48.9,0,0,1-12.89,1.72H1523.14a49,49,0,0,1-49-49v-9.79a49,49,0,0,1,49-49h156.25A48.9,48.9,0,0,1,1692.28,2547.86Z" transform="translate(-1363.43 -2341.94)"/><path class="cls-4" d="M1497.79,2432.65v48.64a34.73,34.73,0,0,1-34.72,34.72h-99.64V2348.56a34.74,34.74,0,0,1,28.51,34.17v13.34c0,.62,0,1.24,0,1.85h71.18A34.73,34.73,0,0,1,1497.79,2432.65Z" transform="translate(-1363.43 -2341.94)"/><path class="cls-4" d="M1399.56,2595.16V2605a49,49,0,0,1-36.13,47.3V2547.86A49,49,0,0,1,1399.56,2595.16Z" transform="translate(-1363.43 -2341.94)"/><path class="cls-4" d="M1692.28,2348v168h-56.81a34.73,34.73,0,0,1-34.72-34.72v-48.64c0-.62,0-1.24,0-1.86h-28.64a34.72,34.72,0,0,1-34.73-34.72v-13.34a34.73,34.73,0,0,1,34.73-34.72Z" transform="translate(-1363.43 -2341.94)"/><rect class="cls-2" x="1241.24" y="2470.21" width="328.84" height="84.46" transform="translate(-2470.21 1576.16) rotate(-90)"/><rect class="cls-4" x="1241.24" y="2464.14" width="328.84" height="84.46" transform="translate(-2464.14 1570.09) rotate(-90)"/></g></g></svg>