<svg id="_Rock_" data-name="(Rock)*" xmlns="http://www.w3.org/2000/svg" viewBox="0 0 328.85 490.19"><defs><style>.cls-1{fill:#666;}.cls-2{fill:#72768f;}.cls-3{fill:#8a8a8a;}.cls-4{fill:#999;}</style></defs><title>Stone_RightBot</title><g id="StoneTopLeft"><path class="cls-1" d="M1033.94,3493v169.65a327,327,0,0,1-46,158.68q-2.6,4.36-5.32,8.64-7,11.05-14.95,21.49-3.32,4.38-6.76,8.64A329.71,329.71,0,0,1,840.87,3953c-2.52,1.15-5,2.26-7.61,3.34a327.81,327.81,0,0,1-128,25.86h-.13V3493Z" transform="translate(-705.09 -3491.96)"/><path class="cls-2" d="M1033.94,3492v90.45a327,327,0,0,1-46,158.68q-2.6,4.36-5.32,8.64-7,11.05-14.95,21.49-3.32,4.38-6.76,8.64a329.71,329.71,0,0,1-120.07,92.88c-2.52,1.15-5,2.26-7.61,3.34a327.81,327.81,0,0,1-128,25.86h-.13V3492Z" transform="translate(-705.09 -3491.96)"/><path class="cls-3" d="M1033.94,3492.42v8.64h-.11a327,327,0,0,1-46,159.36q-2.6,4.36-5.32,8.64-7,11.05-14.95,21.49-3.32,4.38-6.76,8.64a329.71,329.71,0,0,1-120.07,92.88c-2.52,1.15-5,2.26-7.61,3.34a327.81,327.81,0,0,1-128,25.86V3492.42Z" transform="translate(-705.09 -3491.96)"/><path class="cls-2" d="M960.81,3699.19a329.71,329.71,0,0,1-120.07,92.88c-2.52,1.15-5,2.26-7.61,3.34A48.86,48.86,0,0,1,815.77,3758v-9.79a49,49,0,0,1,49-49Z" transform="translate(-705.09 -3491.96)"/><path class="cls-2" d="M839.45,3585.7v48.64a34.73,34.73,0,0,1-34.72,34.72H705.09V3501.61a34.74,34.74,0,0,1,28.51,34.17v13.34c0,.62,0,1.24-.05,1.85h71.18A34.73,34.73,0,0,1,839.45,3585.7Z" transform="translate(-705.09 -3491.96)"/><path class="cls-2" d="M741.22,3748.2V3758a49,49,0,0,1-36.13,47.3V3700.9A49,49,0,0,1,741.22,3748.2Z" transform="translate(-705.09 -3491.96)"/><path class="cls-2" d="M1033.83,3501.06a327,327,0,0,1-46,159.36q-2.6,4.36-5.32,8.64h-5.39a34.73,34.73,0,0,1-34.72-34.72V3585.7c0-.62,0-1.24.05-1.86H913.82a34.72,34.72,0,0,1-34.73-34.72v-13.34a34.73,34.73,0,0,1,34.73-34.72Z" transform="translate(-705.09 -3491.96)"/><path class="cls-4" d="M967.57,3690.55q-3.32,4.38-6.76,8.64a329.71,329.71,0,0,1-120.07,92.88,49,49,0,0,1-25-42.71v-9.79a49,49,0,0,1,49-49Z" transform="translate(-705.09 -3491.96)"/><path class="cls-4" d="M839.45,3577.06v48.64a34.73,34.73,0,0,1-34.72,34.72H705.09V3493a34.74,34.74,0,0,1,28.51,34.17v13.34c0,.62,0,1.24-.05,1.85h71.18A34.73,34.73,0,0,1,839.45,3577.06Z" transform="translate(-705.09 -3491.96)"/><path class="cls-4" d="M741.22,3739.56v9.79a49,49,0,0,1-36.13,47.3V3692.26A49,49,0,0,1,741.22,3739.56Z" transform="translate(-705.09 -3491.96)"/><path class="cls-4" d="M1033.94,3492.42v8.64h-.11a327,327,0,0,1-46,159.36H977.13a34.73,34.73,0,0,1-34.72-34.72v-48.64c0-.62,0-1.24.05-1.86H913.82a34.72,34.72,0,0,1-34.73-34.72v-13.34a34.73,34.73,0,0,1,34.73-34.72Z" transform="translate(-705.09 -3491.96)"/></g></svg>