<svg xmlns="http://www.w3.org/2000/svg" viewBox="0 0 328.85 496.73"><defs><style>.cls-1{fill:#666;}.cls-2{fill:#72768f;}.cls-3{fill:#8a8a8a;}.cls-4{fill:#999;}</style></defs><title>StoneTop</title><g id="_Rock_" data-name="(Rock)"><g id="StoneTop"><rect class="cls-1" y="167.88" width="328.85" height="328.85"/><rect class="cls-2" y="87.66" width="328.85" height="328.85"/><rect class="cls-3" y="6.54" width="328.85" height="328.85"/><path class="cls-2" d="M1692.28,4306.69v104.39a48.9,48.9,0,0,1-12.89,1.72H1523.14a49,49,0,0,1-49-49V4354a49,49,0,0,1,49-49h156.25A48.9,48.9,0,0,1,1692.28,4306.69Z" transform="translate(-1363.43 -4091.66)"/><path class="cls-2" d="M1497.79,4191.48v48.64a34.73,34.73,0,0,1-34.72,34.72h-99.64V4107.39a34.74,34.74,0,0,1,28.51,34.17v13.34c0,.62,0,1.24,0,1.85h71.18A34.73,34.73,0,0,1,1497.79,4191.48Z" transform="translate(-1363.43 -4091.66)"/><path class="cls-2" d="M1399.56,4354v9.79a49,49,0,0,1-36.13,47.3V4306.68A49,49,0,0,1,1399.56,4354Z" transform="translate(-1363.43 -4091.66)"/><path class="cls-2" d="M1692.28,4106.84v168h-56.81a34.73,34.73,0,0,1-34.72-34.72v-48.64c0-.62,0-1.24,0-1.86h-28.64a34.72,34.72,0,0,1-34.73-34.72v-13.34a34.73,34.73,0,0,1,34.73-34.72Z" transform="translate(-1363.43 -4091.66)"/><path class="cls-4" d="M1692.28,4298.05v104.39a48.9,48.9,0,0,1-12.89,1.72H1523.14a49,49,0,0,1-49-49v-9.79a49,49,0,0,1,49-49h156.25A48.9,48.9,0,0,1,1692.28,4298.05Z" transform="translate(-1363.43 -4091.66)"/><path class="cls-4" d="M1497.79,4182.84v48.64a34.73,34.73,0,0,1-34.72,34.72h-99.64V4098.75a34.74,34.74,0,0,1,28.51,34.17v13.34c0,.62,0,1.24,0,1.85h71.18A34.73,34.73,0,0,1,1497.79,4182.84Z" transform="translate(-1363.43 -4091.66)"/><path class="cls-4" d="M1399.56,4345.34v9.79a49,49,0,0,1-36.13,47.3V4298A49,49,0,0,1,1399.56,4345.34Z" transform="translate(-1363.43 -4091.66)"/><path class="cls-4" d="M1692.28,4098.2v168h-56.81a34.73,34.73,0,0,1-34.72-34.72v-48.64c0-.62,0-1.24,0-1.86h-28.64a34.72,34.72,0,0,1-34.73-34.72v-13.34a34.73,34.73,0,0,1,34.73-34.72Z" transform="translate(-1363.43 -4091.66)"/><rect class="cls-2" x="0.01" y="9.09" width="328.84" height="84.46"/><rect class="cls-4" width="328.84" height="84.46"/></g></g></svg>