<svg id="_Rock_" data-name="(Rock)" xmlns="http://www.w3.org/2000/svg" viewBox="0 0 329.02 497.86"><defs><style>.cls-1{fill:#666;}.cls-2{fill:#72768f;}.cls-3{fill:#8a8a8a;}.cls-4{fill:#999;}</style></defs><title>StoneTopRight</title><g id="StoneTopRight"><path class="cls-1" d="M1020.61,4403.57v186H691.76V4260.67h282.9c1.32,2.2,2.6,4.42,3.86,6.66q2.41,4.28,4.69,8.64,5.52,10.53,10.27,21.49,1.86,4.29,3.6,8.64a326.82,326.82,0,0,1,22.53,97.73Z" transform="translate(-691.68 -4091.66)"/><path class="cls-2" d="M1020.61,4403.57v105.74H691.76V4180.46H907.87l1.88,1.65q4.77,4.23,9.37,8.64,5.1,4.88,10,10a328.51,328.51,0,0,1,45.58,60c1.32,2.2,2.6,4.42,3.86,6.66q2.41,4.28,4.69,8.64,5.52,10.53,10.27,21.49,1.86,4.29,3.6,8.64a326.82,326.82,0,0,1,22.53,97.73Z" transform="translate(-691.68 -4091.66)"/><path class="cls-3" d="M1020.61,4403.57v24.61H691.76V4099.44a327.12,327.12,0,0,1,174,49.78v-1.83c0,.62,0,1.24,0,1.86a329.24,329.24,0,0,1,42.06,31.21l1.88,1.65q4.77,4.23,9.37,8.64,5.1,4.88,10,10a328.51,328.51,0,0,1,45.58,60c1.32,2.2,2.6,4.42,3.86,6.66q2.41,4.28,4.69,8.64,5.52,10.53,10.27,21.49,1.86,4.29,3.6,8.64a326.82,326.82,0,0,1,22.53,97.73Z" transform="translate(-691.68 -4091.66)"/><path class="cls-2" d="M1020.61,4403.57v8.64l-.49.13a48.72,48.72,0,0,1-12.4,1.59H851.47a49,49,0,0,1-49-49v-9.79a49,49,0,0,1,49-49H997.08a326.82,326.82,0,0,1,22.53,97.73Z" transform="translate(-691.68 -4091.66)"/><path class="cls-2" d="M826.12,4192.61v48.64A34.73,34.73,0,0,1,791.4,4276H691.76V4108.52a34.74,34.74,0,0,1,28.51,34.17V4156c0,.62,0,1.24,0,1.85H791.4A34.73,34.73,0,0,1,826.12,4192.61Z" transform="translate(-691.68 -4091.66)"/><path class="cls-2" d="M727.89,4355.12v9.79a49,49,0,0,1-36.13,47.3V4307.82A49,49,0,0,1,727.89,4355.12Z" transform="translate(-691.68 -4091.66)"/><path class="cls-2" d="M919.12,4190.75H900.49A34.72,34.72,0,0,1,865.76,4156v-8.64c0,.62,0,1.24,0,1.86a329.24,329.24,0,0,1,42.06,31.21l1.88,1.65Q914.52,4186.34,919.12,4190.75Z" transform="translate(-691.68 -4091.66)"/><path class="cls-2" d="M983.21,4276H963.8a34.72,34.72,0,0,1-34.72-34.72v-40.54a328.51,328.51,0,0,1,45.58,60c1.32,2.2,2.6,4.42,3.86,6.66Q980.94,4271.61,983.21,4276Z" transform="translate(-691.68 -4091.66)"/><path class="cls-4" d="M1019.61,4403.83a49,49,0,0,1-11.89,1.46H851.47a49,49,0,0,1-49-49v-9.79a49,49,0,0,1,49-49h142q1.86,4.29,3.6,8.64A326.82,326.82,0,0,1,1019.61,4403.83Z" transform="translate(-691.68 -4091.66)"/><path class="cls-4" d="M826.12,4184v48.64a34.73,34.73,0,0,1-34.72,34.72H691.76V4099.88a34.74,34.74,0,0,1,28.51,34.17v13.34c0,.62,0,1.24,0,1.85H791.4A34.73,34.73,0,0,1,826.12,4184Z" transform="translate(-691.68 -4091.66)"/><path class="cls-4" d="M727.89,4346.48v9.79a49,49,0,0,1-36.13,47.3V4299.18A49,49,0,0,1,727.89,4346.48Z" transform="translate(-691.68 -4091.66)"/><path class="cls-4" d="M909.75,4182.11h-9.26a34.69,34.69,0,0,1-34.68-32.86,329.24,329.24,0,0,1,42.06,31.21Z" transform="translate(-691.68 -4091.66)"/><path class="cls-4" d="M978.52,4267.33H963.8a34.73,34.73,0,0,1-34.72-34.72v-31.9a328.51,328.51,0,0,1,45.58,60C976,4262.87,977.26,4265.09,978.52,4267.33Z" transform="translate(-691.68 -4091.66)"/><path class="cls-2" d="M933.84,4429.67c0-.41,0-.83,0-1.25,0-134-108.32-242.71-242.17-243.33v-84.44c181.72,0,329,147.31,329,329Z" transform="translate(-691.68 -4091.66)"/><path class="cls-4" d="M933.84,4420.67c0-.42,0-.83,0-1.25,0-134-108.32-242.71-242.17-243.33v-84.43c181.72,0,329,147.31,329,329Z" transform="translate(-691.68 -4091.66)"/></g></svg>