<svg id="_Rock_" data-name="(Rock)*" xmlns="http://www.w3.org/2000/svg" viewBox="0 0 328.85 489.83"><defs><style>.cls-1{fill:#666;}.cls-2{fill:#72768f;}.cls-3{fill:#8a8a8a;}.cls-4{fill:#999;}</style></defs><title>Stone_LeftBot</title><g id="StoneTopRight"><path class="cls-1" d="M1033.94,4096.12V4585.4a328.45,328.45,0,0,1-96-14.25q-12.6-3.82-24.76-8.64a329,329,0,0,1-96.56-59.17l-.81-.72a330.27,330.27,0,0,1-59.28-69.43q-2.73-4.27-5.32-8.64a327,327,0,0,1-46-158.78q-.12-4.32-.13-8.67v-161Z" transform="translate(-705.09 -4095.57)"/><path class="cls-2" d="M1033.94,4095.57v407.92a328.45,328.45,0,0,1-96-14.25q-12.6-3.83-24.76-8.64a329,329,0,0,1-96.56-59.17l-.81-.72a330.27,330.27,0,0,1-59.28-69.43q-2.73-4.27-5.32-8.64a327,327,0,0,1-46-158.78q-.12-4.32-.13-8.67v-79.62Z" transform="translate(-705.09 -4095.57)"/><path class="cls-3" d="M1033.94,4095.57v328.85a328.45,328.45,0,0,1-96-14.25q-12.6-3.83-24.76-8.64a329,329,0,0,1-96.56-59.17l-.81-.72a330.27,330.27,0,0,1-59.28-69.43q-2.73-4.28-5.32-8.64a327,327,0,0,1-46-158.78l-.13,0v-9.19Z" transform="translate(-705.09 -4095.57)"/><path class="cls-2" d="M1033.94,4304.06v104.39a48.9,48.9,0,0,1-12.89,1.72H937.92q-12.6-3.83-24.76-8.64a329,329,0,0,1-96.56-59.17,49,49,0,0,1,48.2-40h156.25A48.9,48.9,0,0,1,1033.94,4304.06Z" transform="translate(-705.09 -4095.57)"/><path class="cls-2" d="M839.45,4188.85v48.64a34.73,34.73,0,0,1-34.72,34.72H756.51q-2.73-4.28-5.32-8.64a327,327,0,0,1-46-158.78,34.73,34.73,0,0,1,28.38,34.14v13.34c0,.62,0,1.24-.05,1.85h71.18A34.73,34.73,0,0,1,839.45,4188.85Z" transform="translate(-705.09 -4095.57)"/><path class="cls-2" d="M1033.94,4104.21v168H977.13a34.73,34.73,0,0,1-34.72-34.72v-48.64c0-.62,0-1.24.05-1.86H913.82a34.72,34.72,0,0,1-34.73-34.72v-13.34a34.73,34.73,0,0,1,34.73-34.72Z" transform="translate(-705.09 -4095.57)"/><path class="cls-4" d="M1033.94,4295.42v104.39a48.9,48.9,0,0,1-12.89,1.72H913.16a329,329,0,0,1-96.56-59.17l-.81-.72a49,49,0,0,1,49-47.94h156.25A48.9,48.9,0,0,1,1033.94,4295.42Z" transform="translate(-705.09 -4095.57)"/><path class="cls-4" d="M839.45,4180.21v48.64a34.73,34.73,0,0,1-34.72,34.72H751.19a327,327,0,0,1-46-158.78l-.13,0v-8.64a34.74,34.74,0,0,1,28.51,34.17v13.34c0,.62,0,1.24-.05,1.85h71.18A34.73,34.73,0,0,1,839.45,4180.21Z" transform="translate(-705.09 -4095.57)"/><path class="cls-4" d="M1033.94,4095.57v168H977.13a34.73,34.73,0,0,1-34.72-34.72v-48.64c0-.62,0-1.24.05-1.86H913.82a34.72,34.72,0,0,1-34.73-34.72v-13.34a34.73,34.73,0,0,1,34.73-34.72Z" transform="translate(-705.09 -4095.57)"/></g></svg>