<svg xmlns="http://www.w3.org/2000/svg" viewBox="0 0 328.85 490.19"><defs><style>.cls-1{fill:#666;}.cls-2{fill:#72768f;}.cls-3{fill:#8a8a8a;}.cls-4{fill:#999;}</style></defs><title>StoneBot</title><g id="_Rock_" data-name="(Rock)"><g id="StoneBot"><rect class="cls-1" y="161.34" width="328.85" height="328.85"/><rect class="cls-2" y="81.13" width="328.85" height="328.85"/><rect class="cls-3" width="328.85" height="328.85"/><path class="cls-2" d="M1692.29,3712.26v104.39a48.9,48.9,0,0,1-12.89,1.72H1523.15a49,49,0,0,1-49-49v-9.79a49,49,0,0,1,49-49H1679.4A48.9,48.9,0,0,1,1692.29,3712.26Z" transform="translate(-1363.43 -3503.77)"/><path class="cls-2" d="M1497.8,3597.05v48.64a34.73,34.73,0,0,1-34.72,34.72h-99.64V3513a34.74,34.74,0,0,1,28.51,34.17v13.34c0,.62,0,1.24,0,1.85h71.18A34.73,34.73,0,0,1,1497.8,3597.05Z" transform="translate(-1363.43 -3503.77)"/><path class="cls-2" d="M1399.57,3759.56v9.79a49,49,0,0,1-36.13,47.3V3712.26A49,49,0,0,1,1399.57,3759.56Z" transform="translate(-1363.43 -3503.77)"/><path class="cls-2" d="M1692.29,3512.41v168h-56.81a34.73,34.73,0,0,1-34.72-34.72v-48.64c0-.62,0-1.24,0-1.86h-28.64a34.72,34.72,0,0,1-34.73-34.72v-13.34a34.73,34.73,0,0,1,34.73-34.72Z" transform="translate(-1363.43 -3503.77)"/><path class="cls-4" d="M1692.29,3703.62V3808a48.9,48.9,0,0,1-12.89,1.72H1523.15a49,49,0,0,1-49-49v-9.79a49,49,0,0,1,49-49H1679.4A48.9,48.9,0,0,1,1692.29,3703.62Z" transform="translate(-1363.43 -3503.77)"/><path class="cls-4" d="M1497.8,3588.41v48.64a34.73,34.73,0,0,1-34.72,34.72h-99.64V3504.32a34.74,34.74,0,0,1,28.51,34.17v13.34c0,.62,0,1.24,0,1.85h71.18A34.73,34.73,0,0,1,1497.8,3588.41Z" transform="translate(-1363.43 -3503.77)"/><path class="cls-4" d="M1399.57,3750.92v9.78a49,49,0,0,1-36.13,47.3V3703.61A49,49,0,0,1,1399.57,3750.92Z" transform="translate(-1363.43 -3503.77)"/><path class="cls-4" d="M1692.29,3503.77v168h-56.81a34.73,34.73,0,0,1-34.72-34.72v-48.64c0-.62,0-1.24,0-1.86h-28.64a34.72,34.72,0,0,1-34.73-34.72v-13.34a34.73,34.73,0,0,1,34.73-34.72Z" transform="translate(-1363.43 -3503.77)"/><rect class="cls-2" x="0.01" y="245.55" width="328.84" height="84.46"/><rect class="cls-4" y="234.96" width="328.84" height="84.46"/></g></g></svg>