<svg id="_Rock_" data-name="(Rock)*" xmlns="http://www.w3.org/2000/svg" viewBox="0 0 328.85 490.08"><defs><style>.cls-1{fill:#666;}.cls-2{fill:#72768f;}.cls-3{fill:#8a8a8a;}.cls-4{fill:#999;}</style></defs><title>Stone_RightTop</title><g id="StoneBotLeft"><path class="cls-1" d="M1033.94,3224.68v186H705.09V3081.78H988c1.32,2.2,2.6,4.42,3.86,6.66q2.42,4.28,4.69,8.64,5.52,10.53,10.27,21.49,1.86,4.29,3.6,8.64a326.82,326.82,0,0,1,22.53,97.73Z" transform="translate(-705.09 -2920.55)"/><path class="cls-2" d="M1033.94,3224.68v105.74H705.09V3001.57H921.2l1.88,1.65q4.77,4.23,9.37,8.64,5.1,4.88,10,10a328.51,328.51,0,0,1,45.58,60c1.32,2.2,2.6,4.42,3.86,6.66q2.42,4.28,4.69,8.64,5.52,10.53,10.27,21.49,1.86,4.29,3.6,8.64a326.82,326.82,0,0,1,22.53,97.73Z" transform="translate(-705.09 -2920.55)"/><path class="cls-3" d="M1033.94,3224.68v24.61H705.09V2920.55a327.12,327.12,0,0,1,174,49.78v-1.83c0,.62,0,1.24,0,1.86a329.24,329.24,0,0,1,42.06,31.21l1.88,1.65q4.77,4.23,9.37,8.64,5.1,4.88,10,10a328.51,328.51,0,0,1,45.58,60c1.32,2.2,2.6,4.42,3.86,6.66q2.42,4.28,4.69,8.64,5.52,10.53,10.27,21.49,1.86,4.29,3.6,8.64a326.82,326.82,0,0,1,22.53,97.73Z" transform="translate(-705.09 -2920.55)"/><path class="cls-2" d="M1033.94,3224.68v8.64l-.49.13a48.72,48.72,0,0,1-12.4,1.59H864.8a49,49,0,0,1-49-49v-9.79a49,49,0,0,1,49-49h145.61a326.82,326.82,0,0,1,22.53,97.73Z" transform="translate(-705.09 -2920.55)"/><path class="cls-2" d="M839.45,3013.72v48.64a34.73,34.73,0,0,1-34.72,34.72H705.09V2929.63a34.74,34.74,0,0,1,28.51,34.17v13.34c0,.62,0,1.24-.05,1.85h71.18A34.73,34.73,0,0,1,839.45,3013.72Z" transform="translate(-705.09 -2920.55)"/><path class="cls-2" d="M741.22,3176.23V3186a49,49,0,0,1-36.13,47.3V3128.93A49,49,0,0,1,741.22,3176.23Z" transform="translate(-705.09 -2920.55)"/><path class="cls-2" d="M932.45,3011.86H913.82a34.72,34.72,0,0,1-34.73-34.72v-8.64c0,.62,0,1.24,0,1.86a329.24,329.24,0,0,1,42.06,31.21l1.88,1.65Q927.85,3007.45,932.45,3011.86Z" transform="translate(-705.09 -2920.55)"/><path class="cls-2" d="M996.54,3097.08H977.13a34.72,34.72,0,0,1-34.72-34.72v-40.54a328.51,328.51,0,0,1,45.58,60c1.32,2.2,2.6,4.42,3.86,6.66Q994.27,3092.72,996.54,3097.08Z" transform="translate(-705.09 -2920.55)"/><path class="cls-4" d="M1032.94,3224.94a49,49,0,0,1-11.89,1.46H864.8a49,49,0,0,1-49-49v-9.79a49,49,0,0,1,49-49h142q1.86,4.29,3.6,8.64A326.82,326.82,0,0,1,1032.94,3224.94Z" transform="translate(-705.09 -2920.55)"/><path class="cls-4" d="M839.45,3005.08v48.64a34.73,34.73,0,0,1-34.72,34.72H705.09V2921a34.74,34.74,0,0,1,28.51,34.17v13.34c0,.62,0,1.24-.05,1.85h71.18A34.73,34.73,0,0,1,839.45,3005.08Z" transform="translate(-705.09 -2920.55)"/><path class="cls-4" d="M741.22,3167.59v9.79a49,49,0,0,1-36.13,47.3V3120.29A49,49,0,0,1,741.22,3167.59Z" transform="translate(-705.09 -2920.55)"/><path class="cls-4" d="M923.08,3003.22h-9.26a34.69,34.69,0,0,1-34.68-32.86,329.24,329.24,0,0,1,42.06,31.21Z" transform="translate(-705.09 -2920.55)"/><path class="cls-4" d="M991.85,3088.44H977.13a34.73,34.73,0,0,1-34.72-34.72v-31.9a328.51,328.51,0,0,1,45.58,60C989.31,3084,990.59,3086.2,991.85,3088.44Z" transform="translate(-705.09 -2920.55)"/></g></svg>