<svg id="_Rock_" data-name="(Rock)*" xmlns="http://www.w3.org/2000/svg" viewBox="0 0 328.85 490.19"><defs><style>.cls-1{fill:#666;}.cls-2{fill:#72768f;}.cls-3{fill:#8a8a8a;}.cls-4{fill:#999;}</style></defs><title>Stone_LeftTop</title><g id="StoneBotRight"><path class="cls-1" d="M1033.94,2516.3v328.85H705.09v-186c.24-.07.48-.13.72-.21a325.67,325.67,0,0,1,17.45-86.15q1.14-3.32,2.37-6.58a327,327,0,0,1,15.25-34.66c1.49-2.9,3-5.79,4.6-8.64q1.83-3.36,3.77-6.66Z" transform="translate(-705.09 -2354.96)"/><path class="cls-2" d="M1033.94,2436.09v328.85H705.09V2659.2c.24-.07.48-.13.72-.21a325.67,325.67,0,0,1,17.45-86.15q1.14-3.32,2.37-6.58a327,327,0,0,1,15.25-34.66c1.49-2.9,3-5.79,4.6-8.64q1.83-3.36,3.77-6.66a329,329,0,0,1,65.43-80.21Z" transform="translate(-705.09 -2354.96)"/><path class="cls-3" d="M1033.94,2355v328.85H705.09V2659.2c.24-.07.48-.13.72-.21a325.67,325.67,0,0,1,17.45-86.15q1.14-3.32,2.37-6.58a327,327,0,0,1,15.25-34.66c1.49-2.9,3-5.79,4.6-8.64q1.83-3.36,3.77-6.66a329,329,0,0,1,65.43-80.21q7.14-6.39,14.66-12.35c1.43-1.13,2.86-2.25,4.31-3.36a326.8,326.8,0,0,1,45.44-29.23l.84-.45A325.86,325.86,0,0,1,995.84,2355Z" transform="translate(-705.09 -2354.96)"/><path class="cls-2" d="M1033.94,2563.45v104.39a48.9,48.9,0,0,1-12.89,1.72H864.8a49,49,0,0,1-49-49v-9.79a49,49,0,0,1,49-49h156.25A48.9,48.9,0,0,1,1033.94,2563.45Z" transform="translate(-705.09 -2354.96)"/><path class="cls-2" d="M839.45,2448.24v48.64a34.72,34.72,0,0,1-34.72,34.72H740.88c1.49-2.9,3-5.79,4.6-8.64q1.83-3.36,3.77-6.66a329,329,0,0,1,65.43-80.21q7.14-6.39,14.66-12.35a34.7,34.7,0,0,1,10.11,24.5Z" transform="translate(-705.09 -2354.96)"/><path class="cls-2" d="M741.22,2610.75v9.79a49,49,0,0,1-35.88,47.23l-.25.07v-8.64c.24-.07.48-.13.72-.21a325.67,325.67,0,0,1,17.45-86.15A48.86,48.86,0,0,1,741.22,2610.75Z" transform="translate(-705.09 -2354.96)"/><path class="cls-2" d="M1033.94,2363.6v168H977.13a34.72,34.72,0,0,1-34.72-34.72v-48.64c0-.62,0-1.24.05-1.86H913.82a34.72,34.72,0,0,1-34.73-34.72v-13.34a34.76,34.76,0,0,1,.84-7.62,325,325,0,0,1,69.56-27.1Z" transform="translate(-705.09 -2354.96)"/><path class="cls-4" d="M1033.94,2554.81V2659.2a48.9,48.9,0,0,1-12.89,1.72H864.8a49,49,0,0,1-49-49v-9.79a49,49,0,0,1,49-49h156.25A48.9,48.9,0,0,1,1033.94,2554.81Z" transform="translate(-705.09 -2354.96)"/><path class="cls-4" d="M839.45,2439.6v48.64A34.73,34.73,0,0,1,804.73,2523H745.48q1.83-3.36,3.77-6.66a329,329,0,0,1,65.43-80.21q7.14-6.39,14.66-12.35c1.43-1.13,2.86-2.25,4.31-3.36a34.47,34.47,0,0,1,5.62,15.71A33.8,33.8,0,0,1,839.45,2439.6Z" transform="translate(-705.09 -2354.96)"/><path class="cls-4" d="M741.22,2602.11v9.79A49,49,0,0,1,705.81,2659a325.67,325.67,0,0,1,17.45-86.15q1.14-3.32,2.37-6.58A48.9,48.9,0,0,1,741.22,2602.11Z" transform="translate(-705.09 -2354.96)"/><path class="cls-4" d="M1033.94,2355v168H977.13a34.73,34.73,0,0,1-34.72-34.72V2439.6c0-.62,0-1.24.05-1.86H913.82A34.69,34.69,0,0,1,879.09,2403v-11.87l.84-.45A325.86,325.86,0,0,1,995.84,2355Z" transform="translate(-705.09 -2354.96)"/></g></svg>