<svg xmlns="http://www.w3.org/2000/svg" viewBox="0 0 328.85 490.19"><defs><style>.cls-1{fill:#666;}.cls-2{fill:#72768f;}.cls-3{fill:#8a8a8a;}.cls-4{fill:#999;}</style></defs><title>Stone</title><g id="StoneGroup"><g id="Stone"><rect class="cls-1" y="161.34" width="328.85" height="328.85"/><rect class="cls-2" y="81.13" width="328.85" height="328.85"/><rect class="cls-3" width="328.85" height="328.85"/><path class="cls-2" d="M1692.28,2029v104.39a48.9,48.9,0,0,1-12.89,1.72H1523.14a49,49,0,0,1-49-49v-9.79a49,49,0,0,1,49-49h156.25A48.9,48.9,0,0,1,1692.28,2029Z" transform="translate(-1363.43 -1820.54)"/><path class="cls-2" d="M1497.79,1913.82v48.64a34.73,34.73,0,0,1-34.72,34.72h-99.64V1829.73a34.74,34.74,0,0,1,28.51,34.17v13.34c0,.62,0,1.24,0,1.85h71.18A34.73,34.73,0,0,1,1497.79,1913.82Z" transform="translate(-1363.43 -1820.54)"/><path class="cls-2" d="M1399.56,2076.32v9.79a49,49,0,0,1-36.13,47.3V2029A49,49,0,0,1,1399.56,2076.32Z" transform="translate(-1363.43 -1820.54)"/><path class="cls-2" d="M1692.28,1829.18v168h-56.81a34.73,34.73,0,0,1-34.72-34.72v-48.64c0-.62,0-1.24,0-1.86h-28.64a34.72,34.72,0,0,1-34.73-34.72V1863.9a34.73,34.73,0,0,1,34.73-34.72Z" transform="translate(-1363.43 -1820.54)"/><path class="cls-4" d="M1692.28,2020.39v104.39a48.9,48.9,0,0,1-12.89,1.72H1523.14a49,49,0,0,1-49-49v-9.79a49,49,0,0,1,49-49h156.25A48.9,48.9,0,0,1,1692.28,2020.39Z" transform="translate(-1363.43 -1820.54)"/><path class="cls-4" d="M1497.79,1905.18v48.64a34.73,34.73,0,0,1-34.72,34.72h-99.64V1821.09a34.74,34.74,0,0,1,28.51,34.17v13.34c0,.62,0,1.24,0,1.85h71.18A34.73,34.73,0,0,1,1497.79,1905.18Z" transform="translate(-1363.43 -1820.54)"/><path class="cls-4" d="M1399.56,2067.68v9.79a49,49,0,0,1-36.13,47.3V2020.38A49,49,0,0,1,1399.56,2067.68Z" transform="translate(-1363.43 -1820.54)"/><path class="cls-4" d="M1692.28,1820.54v168h-56.81a34.73,34.73,0,0,1-34.72-34.72v-48.64c0-.62,0-1.24,0-1.86h-28.64a34.72,34.72,0,0,1-34.73-34.72v-13.34a34.73,34.73,0,0,1,34.73-34.72Z" transform="translate(-1363.43 -1820.54)"/></g></g></svg>