<svg xmlns="http://www.w3.org/2000/svg" viewBox="0 0 328.85 496.31"><defs><style>.cls-1{fill:#666;}.cls-2{fill:#72768f;}.cls-3{fill:#8a8a8a;}.cls-4{fill:#999;}</style></defs><title>StoneRight</title><g id="_Rock_" data-name="(Rock)"><g id="StoneRght"><rect class="cls-1" y="167.46" width="328.85" height="328.85"/><rect class="cls-2" y="87.25" width="328.85" height="328.85"/><rect class="cls-3" y="6.12" width="328.85" height="328.85"/><path class="cls-2" d="M1692.28,3128.48v104.39a48.9,48.9,0,0,1-12.89,1.72H1523.14a49,49,0,0,1-49-49v-9.79a49,49,0,0,1,49-49h156.25A48.9,48.9,0,0,1,1692.28,3128.48Z" transform="translate(-1363.43 -2913.87)"/><path class="cls-2" d="M1497.79,3013.27v48.64a34.73,34.73,0,0,1-34.72,34.72h-99.64V2929.18a34.74,34.74,0,0,1,28.51,34.17v13.34c0,.62,0,1.24,0,1.85h71.18A34.73,34.73,0,0,1,1497.79,3013.27Z" transform="translate(-1363.43 -2913.87)"/><path class="cls-2" d="M1399.56,3175.77v9.79a49,49,0,0,1-36.13,47.3V3128.47A49,49,0,0,1,1399.56,3175.77Z" transform="translate(-1363.43 -2913.87)"/><path class="cls-2" d="M1692.28,2928.63v168h-56.81a34.73,34.73,0,0,1-34.72-34.72v-48.64c0-.62,0-1.24,0-1.86h-28.64a34.72,34.72,0,0,1-34.73-34.72v-13.34a34.73,34.73,0,0,1,34.73-34.72Z" transform="translate(-1363.43 -2913.87)"/><path class="cls-4" d="M1692.28,3119.84v104.39a48.9,48.9,0,0,1-12.89,1.72H1523.14a49,49,0,0,1-49-49v-9.79a49,49,0,0,1,49-49h156.25A48.9,48.9,0,0,1,1692.28,3119.84Z" transform="translate(-1363.43 -2913.87)"/><path class="cls-4" d="M1497.79,3004.63v48.64a34.73,34.73,0,0,1-34.72,34.72h-99.64V2920.54a34.74,34.74,0,0,1,28.51,34.17v13.34c0,.62,0,1.24,0,1.85h71.18A34.73,34.73,0,0,1,1497.79,3004.63Z" transform="translate(-1363.43 -2913.87)"/><path class="cls-4" d="M1399.56,3167.13v9.79a49,49,0,0,1-36.13,47.3V3119.83A49,49,0,0,1,1399.56,3167.13Z" transform="translate(-1363.43 -2913.87)"/><path class="cls-4" d="M1692.28,2920v168h-56.81a34.73,34.73,0,0,1-34.72-34.72v-48.64c0-.62,0-1.24,0-1.86h-28.64a34.72,34.72,0,0,1-34.73-34.72v-13.34a34.73,34.73,0,0,1,34.73-34.72Z" transform="translate(-1363.43 -2913.87)"/><rect class="cls-2" x="1485.63" y="3042.18" width="328.84" height="84.46" transform="translate(-2797.79 1820.6) rotate(-90)"/><rect class="cls-4" x="1485.63" y="3036.06" width="328.84" height="84.46" transform="translate(-2791.67 1814.48) rotate(-90)"/></g></g></svg>