<svg id="_Rock_" data-name="(Rock)" xmlns="http://www.w3.org/2000/svg" viewBox="0 0 329.02 499"><defs><style>.cls-1{fill:#666;}.cls-2{fill:#72768f;}.cls-3{fill:#8a8a8a;}.cls-4{fill:#999;}</style></defs><title>StoneBotLeft</title><g id="StoneBotLeft"><path class="cls-1" d="M1009.11,3504.22V3993.5a328.45,328.45,0,0,1-96-14.25q-12.6-3.83-24.76-8.64a329,329,0,0,1-96.56-59.17l-.81-.72a330.27,330.27,0,0,1-59.28-69.43q-2.73-4.27-5.32-8.64a327,327,0,0,1-46-158.78q-.12-4.32-.13-8.67v-161Z" transform="translate(-680.18 -3494.5)"/><path class="cls-2" d="M1009.11,3503.67v407.92a328.45,328.45,0,0,1-96-14.25q-12.6-3.83-24.76-8.64a329,329,0,0,1-96.56-59.17l-.81-.72a330.27,330.27,0,0,1-59.28-69.43q-2.73-4.27-5.32-8.64a327,327,0,0,1-46-158.78q-.12-4.32-.13-8.67v-79.62Z" transform="translate(-680.18 -3494.5)"/><path class="cls-3" d="M1009.11,3503.67v328.85a328.45,328.45,0,0,1-96-14.25q-12.6-3.83-24.76-8.64a329,329,0,0,1-96.56-59.17l-.81-.72a330.27,330.27,0,0,1-59.28-69.43q-2.73-4.28-5.32-8.64a327,327,0,0,1-46-158.78l-.13,0v-9.19Z" transform="translate(-680.18 -3494.5)"/><path class="cls-2" d="M1009.11,3712.16v104.39a48.9,48.9,0,0,1-12.89,1.72H913.09q-12.6-3.83-24.76-8.64a329,329,0,0,1-96.56-59.17,49,49,0,0,1,48.2-40H996.22A48.9,48.9,0,0,1,1009.11,3712.16Z" transform="translate(-680.18 -3494.5)"/><path class="cls-2" d="M814.62,3597v48.64a34.73,34.73,0,0,1-34.72,34.72H731.68q-2.73-4.28-5.32-8.64a327,327,0,0,1-46-158.78A34.73,34.73,0,0,1,708.77,3547v13.34c0,.62,0,1.24,0,1.85H779.9A34.73,34.73,0,0,1,814.62,3597Z" transform="translate(-680.18 -3494.5)"/><path class="cls-2" d="M1009.11,3512.31v168H952.3a34.73,34.73,0,0,1-34.72-34.72V3597c0-.62,0-1.24,0-1.86H889a34.72,34.72,0,0,1-34.73-34.72V3547A34.73,34.73,0,0,1,889,3512.31Z" transform="translate(-680.18 -3494.5)"/><path class="cls-4" d="M1009.11,3703.52v104.39a48.9,48.9,0,0,1-12.89,1.72H888.33a329,329,0,0,1-96.56-59.17l-.81-.72a49,49,0,0,1,49-47.94H996.22A48.9,48.9,0,0,1,1009.11,3703.52Z" transform="translate(-680.18 -3494.5)"/><path class="cls-4" d="M814.62,3588.31V3637a34.73,34.73,0,0,1-34.72,34.72H726.36a327,327,0,0,1-46-158.78l-.13,0v-8.64a34.74,34.74,0,0,1,28.51,34.17v13.34c0,.62,0,1.24,0,1.85H779.9A34.73,34.73,0,0,1,814.62,3588.31Z" transform="translate(-680.18 -3494.5)"/><path class="cls-4" d="M1009.11,3503.67v168H952.3A34.73,34.73,0,0,1,917.58,3637v-48.64c0-.62,0-1.24,0-1.86H889a34.72,34.72,0,0,1-34.73-34.72v-13.34A34.73,34.73,0,0,1,889,3503.67Z" transform="translate(-680.18 -3494.5)"/><path class="cls-2" d="M1009.2,3745.58v86.94h0c-181.7,0-329-147.31-329-329h84.51c.67,133.82,109.36,242.09,243.34,242.09Z" transform="translate(-680.18 -3494.5)"/><path class="cls-4" d="M1009.2,3736.59v86.93c-181.71,0-329-147.31-329-329h84.51c.67,133.81,109.37,242.1,243.34,242.1Z" transform="translate(-680.18 -3494.5)"/></g></svg>