<svg id="_Rock_" data-name="(Rock)" xmlns="http://www.w3.org/2000/svg" viewBox="0 0 329.02 498.9"><defs><style>.cls-1{fill:#666;}.cls-2{fill:#72768f;}.cls-3{fill:#8a8a8a;}.cls-4{fill:#999;}</style></defs><title>StoneBotRight</title><g id="StoneBotRgiht"><path class="cls-1" d="M1012.09,2371.69v169.65a327,327,0,0,1-46,158.68q-2.6,4.36-5.32,8.64-7,11.06-14.95,21.49-3.32,4.38-6.76,8.64A329.71,329.71,0,0,1,819,2831.67c-2.52,1.15-5,2.26-7.61,3.34a327.81,327.81,0,0,1-128,25.86h-.13V2371.69Z" transform="translate(-683.15 -2361.97)"/><path class="cls-2" d="M1012.09,2370.68v90.45a327,327,0,0,1-46,158.68q-2.6,4.36-5.32,8.64-7,11.06-14.95,21.49-3.32,4.38-6.76,8.64A329.71,329.71,0,0,1,819,2751.46c-2.52,1.15-5,2.26-7.61,3.34a327.81,327.81,0,0,1-128,25.86h-.13v-410Z" transform="translate(-683.15 -2361.97)"/><path class="cls-3" d="M1012.09,2371.14v8.64H1012a327,327,0,0,1-46,159.36q-2.6,4.37-5.32,8.64-7,11.05-14.95,21.49-3.32,4.38-6.76,8.64a329.71,329.71,0,0,1-120.07,92.88c-2.52,1.15-5,2.26-7.61,3.34a327.81,327.81,0,0,1-128,25.86V2371.14Z" transform="translate(-683.15 -2361.97)"/><path class="cls-2" d="M939,2577.91a329.71,329.71,0,0,1-120.07,92.88c-2.52,1.15-5,2.26-7.61,3.34a48.86,48.86,0,0,1-17.36-37.41v-9.79a49,49,0,0,1,49-49Z" transform="translate(-683.15 -2361.97)"/><path class="cls-2" d="M817.59,2464.42v48.64a34.73,34.73,0,0,1-34.72,34.72H683.23V2380.33a34.74,34.74,0,0,1,28.51,34.17v13.34c0,.62,0,1.24,0,1.85h71.18A34.73,34.73,0,0,1,817.59,2464.42Z" transform="translate(-683.15 -2361.97)"/><path class="cls-2" d="M719.36,2626.92v9.79a49,49,0,0,1-36.13,47.3V2579.62A49,49,0,0,1,719.36,2626.92Z" transform="translate(-683.15 -2361.97)"/><path class="cls-2" d="M1012,2379.78a327,327,0,0,1-46,159.36q-2.6,4.37-5.32,8.64h-5.39a34.73,34.73,0,0,1-34.72-34.72v-48.64c0-.62,0-1.24.05-1.86H892a34.72,34.72,0,0,1-34.73-34.72V2414.5A34.73,34.73,0,0,1,892,2379.78Z" transform="translate(-683.15 -2361.97)"/><path class="cls-4" d="M945.72,2569.27q-3.32,4.38-6.76,8.64a329.71,329.71,0,0,1-120.07,92.88,49,49,0,0,1-25-42.71v-9.79a49,49,0,0,1,49-49Z" transform="translate(-683.15 -2361.97)"/><path class="cls-4" d="M817.59,2455.78v48.64a34.73,34.73,0,0,1-34.72,34.72H683.23V2371.69a34.74,34.74,0,0,1,28.51,34.17v13.34c0,.62,0,1.24,0,1.85h71.18A34.73,34.73,0,0,1,817.59,2455.78Z" transform="translate(-683.15 -2361.97)"/><path class="cls-4" d="M719.36,2618.28v9.79a49,49,0,0,1-36.13,47.3V2571A49,49,0,0,1,719.36,2618.28Z" transform="translate(-683.15 -2361.97)"/><path class="cls-4" d="M1012.09,2371.14v8.64H1012a327,327,0,0,1-46,159.36H955.28a34.73,34.73,0,0,1-34.72-34.72v-48.64c0-.62,0-1.24.05-1.86H892a34.72,34.72,0,0,1-34.73-34.72v-13.34A34.73,34.73,0,0,1,892,2371.14Z" transform="translate(-683.15 -2361.97)"/><path class="cls-2" d="M1012.17,2371c0,181.71-147.3,329-329,329v-86.94c133.44-.62,241.49-108.65,242.16-242.08Z" transform="translate(-683.15 -2361.97)"/><path class="cls-4" d="M1012.17,2362c0,181.71-147.3,329-329,329v-86.93c133.44-.62,241.5-108.66,242.16-242.09Z" transform="translate(-683.15 -2361.97)"/></g></svg>