<?xml version="1.0" encoding="UTF-8" standalone="no"?>
<svg
   xmlns:dc="http://purl.org/dc/elements/1.1/"
   xmlns:cc="http://creativecommons.org/ns#"
   xmlns:rdf="http://www.w3.org/1999/02/22-rdf-syntax-ns#"
   xmlns:svg="http://www.w3.org/2000/svg"
   xmlns="http://www.w3.org/2000/svg"
   id="svg24"
   version="1.1"
   viewBox="0 0 89.77 89.76">
  <metadata
     id="metadata28">
    <rdf:RDF>
      <cc:Work
         rdf:about="">
        <dc:format>image/svg+xml</dc:format>
        <dc:type
           rdf:resource="http://purl.org/dc/dcmitype/StillImage" />
      </cc:Work>
    </rdf:RDF>
  </metadata>
  <defs
     id="defs4">
    <style
       id="style2">.cls-1{fill:#009444;}.cls-2{fill:#006838;}.cls-3{fill:#ef4136;}.cls-4{fill:#f7941d;}.cls-5{fill:#fff;}</style>
  </defs>
  <title
     id="title6">Exit</title>
  <g
     id="BUttons">
    <path
       id="path8"
       transform="translate(-206.85 -182.56)"
       d="M296.62,227.44a44.89,44.89,0,1,1-44.89-44.88A44.7,44.7,0,0,1,296.62,227.44Z"
       class="cls-1" />
    <path
       id="path10"
       transform="translate(-206.85 -182.56)"
       d="M283.18,259.46A44.88,44.88,0,0,1,219.71,196Z"
       class="cls-2" />
    <path
       id="path12"
       transform="translate(-206.85 -182.56)"
       d="M291.89,227.44a39.92,39.92,0,0,1-7,22.63,39,39,0,0,1-3.08,3.94,38.06,38.06,0,0,1-4.1,4,38.5,38.5,0,0,1-3.37,2.58c-1,.71-2.13,1.38-3.24,2a40,40,0,0,1-18,5l-1.37,0h-.48A40.15,40.15,0,0,1,211.62,229c0-.34,0-.69,0-1,0-.18,0-.37,0-.55a39.91,39.91,0,0,1,5-19.42,34.9,34.9,0,0,1,2-3.21c.25-.36.5-.72.77-1.07s.35-.47.54-.7a39.44,39.44,0,0,1,9.23-8.77,40.16,40.16,0,0,1,62.79,33.17Z"
       class="cls-3" />
    <path
       id="path14"
       transform="translate(-206.85 -182.56)"
       d="M290,227.44a38.31,38.31,0,0,1-29.76,37.32h0a38.73,38.73,0,0,1-8.48.94A38.26,38.26,0,0,1,213.55,230c-.05-.83-.08-1.67-.08-2.51a38.27,38.27,0,0,1,76.53,0Z"
       class="cls-4" />
    <g
       data-name="Layer 39"
       id="Layer_39">
      <path
         id="path16"
         transform="translate(-206.85 -182.56)"
         d="M266.36,240.65l5.92,5.92-21,21A40.15,40.15,0,0,1,211.59,228l21.06-21.06,2.72,2.72L248,197l5.88,20.31,8.93-8.92,11.78,24.49Z"
         class="cls-3" />
      <path
         id="path18"
         transform="translate(-206.85 -182.56)"
         d="M273,209.08a0,0,0,0,0,0,0c-.47-.54-1-1.07-1.46-1.57a6.35,6.35,0,0,0-9.09,1.44c-.12.19-.24.38-.35.59a5.11,5.11,0,0,0-.31.67,4.68,4.68,0,0,0-.17.53,4.9,4.9,0,0,0-.13.55,5,5,0,0,0-.08.56,5.49,5.49,0,0,0,0,.58,5.07,5.07,0,0,0,0,.68,6,6,0,0,0,.28,1.29,6.25,6.25,0,0,0,.24.6h0v0a15.43,15.43,0,0,1,2.75,2.9l0,0a15.87,15.87,0,0,1,3.12,9.49,16.12,16.12,0,0,1-16.1,16.1h0a16.12,16.12,0,0,1-16.1-16.1,15.93,15.93,0,0,1,3.11-9.49h0a15.57,15.57,0,0,1,2.73-2.89l.07-.06a5.91,5.91,0,0,0,.52-2c0-.22,0-.45,0-.68v0a2.09,2.09,0,0,0,0-.25,6,6,0,0,0-.66-2.43l-.29-.5-.58-1a6.16,6.16,0,0,0-4.69-2.17,6,6,0,0,0-3.21.91c-.4.38-.79.76-1.17,1.16l0,0-.08.07c-.3.31-.59.64-.88,1a28.06,28.06,0,0,0,21.21,46.48h0A28.08,28.08,0,0,0,273,209.08Z"
         class="cls-5" />
      <path
         id="path20"
         transform="translate(-206.85 -182.56)"
         d="M246.37,200.83v15.06c0,6.44,10,6.45,10,0V200.83c0-6.43-10-6.45-10,0Z"
         class="cls-5" />
    </g>
  </g>
</svg>
