<svg id="Crates" xmlns="http://www.w3.org/2000/svg" viewBox="0 0 70.36 105.78"><defs><style>.cls-1{fill:#b59774;}.cls-2{fill:#a48969;}.cls-3{fill:#9c7c56;}.cls-4{fill:#cfac84;}.cls-5{fill:#c59c6d;}</style></defs><title>Crate1</title><g id="CrateBot"><g id="Layer_13_copy_12" data-name="Layer 13 copy 12"><rect class="cls-1" x="0.36" y="48.78" width="70" height="35"/></g><g id="Layer_12_copy_13" data-name="Layer 12 copy 13"><g id="Layer_12_copy_12" data-name="Layer 12 copy 12"><path class="cls-2" d="M304,525.62V547c0,4-6.35,7.22-14.17,7.22H247.94a21.37,21.37,0,0,1-11-2.65c-2-1.24-3.21-2.84-3.21-4.57V525.62c0-4,6.35-7.21,14.17-7.21h41.93a25.71,25.71,0,0,1,5.86.65C300.63,520.19,304,522.7,304,525.62Z" transform="translate(-233.77 -448.41)"/></g><path class="cls-3" d="M297.16,527.72v17.16c0,3.2-5.1,5.8-11.4,5.8H252.05a19.94,19.94,0,0,1-5.73-.79,12.77,12.77,0,0,1-3.09-1.33,9.34,9.34,0,0,1-1.12-.84,3.9,3.9,0,0,1-1.45-2.84V527.72c0-3.21,5.1-5.81,11.39-5.81h33.71a20.67,20.67,0,0,1,4.72.53c.29.06.57.13.85.21a11.44,11.44,0,0,1,4.28,2.14A4,4,0,0,1,297.16,527.72Z" transform="translate(-233.77 -448.41)"/><path class="cls-2" d="M295.61,524.79l-49.29,25.1a12.77,12.77,0,0,1-3.09-1.33,9.34,9.34,0,0,1-1.12-.84l49.22-25.07A11.44,11.44,0,0,1,295.61,524.79Z" transform="translate(-233.77 -448.41)"/><path class="cls-2" d="M297.16,533.94v4.32l-24.39,12.42h-8.48Z" transform="translate(-233.77 -448.41)"/><path class="cls-2" d="M274.27,521.91,240.66,539v-4.32l25.13-12.8Z" transform="translate(-233.77 -448.41)"/></g><g id="Layer_12_copy_15" data-name="Layer 12 copy 15"><g id="Layer_12_copy_14" data-name="Layer 12 copy 14"><path class="cls-4" d="M304,462.58V504.5a14.17,14.17,0,0,1-14.17,14.17H247.94a14.17,14.17,0,0,1-14.17-14.17V462.58a14.17,14.17,0,0,1,14.17-14.17h41.93a14,14,0,0,1,5.86,1.27A14.18,14.18,0,0,1,304,462.58Z" transform="translate(-233.77 -448.41)"/></g><path class="cls-5" d="M297.16,466.69V500.4a11.39,11.39,0,0,1-11.4,11.39H252.05a11.25,11.25,0,0,1-5.73-1.55,11.13,11.13,0,0,1-3.09-2.62,12.28,12.28,0,0,1-1.12-1.65,11.35,11.35,0,0,1-1.45-5.57V466.69a11.4,11.4,0,0,1,11.39-11.4h33.71a11.31,11.31,0,0,1,4.72,1c.29.13.57.27.85.43a11.38,11.38,0,0,1,5.83,9.94Z" transform="translate(-233.77 -448.41)"/><path class="cls-4" d="M295.61,461l-49.29,49.29a11.13,11.13,0,0,1-3.09-2.62,12.28,12.28,0,0,1-1.12-1.65l49.22-49.22A11.42,11.42,0,0,1,295.61,461Z" transform="translate(-233.77 -448.41)"/><path class="cls-4" d="M297.16,478.92v8.48l-24.39,24.39h-8.48Z" transform="translate(-233.77 -448.41)"/><path class="cls-4" d="M274.27,455.29,240.66,488.9v-8.48l25.13-25.13Z" transform="translate(-233.77 -448.41)"/></g></g></svg>