<svg id="Brokenglass" xmlns="http://www.w3.org/2000/svg" viewBox="0 0 439.8 256.4"><defs><style>.cls-1{fill:#8698cd;}.cls-2{fill:#b1bbdf;}.cls-3{fill:#e6e7e8;}</style></defs><title>BrokenGlass</title><path class="cls-1" d="M293.61,238.05A27.68,27.68,0,0,0,274,229.91a27.73,27.73,0,0,0-27.76,27.77V242.07a27.77,27.77,0,1,0-55.53,0v52.19a27.77,27.77,0,1,0-55.53,0v17h0V279.17a27.77,27.77,0,0,0-27.77-27.77,27.73,27.73,0,0,0-27.76,27.77V409.8a60.9,60.9,0,0,0,55.53,60.66c1.77.16,3.55.24,5.36.24H240.85a60.9,60.9,0,0,0,60.89-60.9V257.68A27.68,27.68,0,0,0,293.61,238.05Z" transform="translate(-79.62 -214.3)"/><path class="cls-2" d="M281.06,303.53V408.08a43.85,43.85,0,0,1-43.85,43.85H144.15a44.53,44.53,0,0,1-9-.92,43.86,43.86,0,0,1-34.85-42.93V252.31a28,28,0,0,1,7.08-.91,27.77,27.77,0,0,1,27.77,27.77v32.09a27.77,27.77,0,0,0,55.53,0V242.07a27.77,27.77,0,0,1,55.53,0v34.6a27.8,27.8,0,0,0,34.85,26.86Z" transform="translate(-79.62 -214.3)"/><path class="cls-1" d="M511.64,238.87a26.54,26.54,0,0,0-45.31,18.51V245.79a26.55,26.55,0,0,0-53.1,0v55.83c0,.69,0,1.36-.08,2V289.49a26.55,26.55,0,0,0-53-2.16V276.19a26.55,26.55,0,1,0-53.1,0V313.7l53.1,73.58,4.56,6.32v77.1h97.06V393.6l4.57-6.34,53.09-73.56V257.64A26.43,26.43,0,0,0,511.64,238.87Z" transform="translate(-79.62 -214.3)"/><path class="cls-2" d="M502.91,302a66.83,66.83,0,0,1-1.09,8.2l-.54,2.56-.64.91-27.81,39.58-6.5,9.25L461.76,369l-14.49,20.63v81H379.19V389.65L364.7,369l-4.56-6.49-6.5-9.25L325.82,313.7l-.64-.91-.54-2.56a67.68,67.68,0,0,1-1.26-13.07V251.68a26.56,26.56,0,0,1,36.76,24.51v25.43a26.24,26.24,0,0,0,2.91,12.08,24.35,24.35,0,0,0,1.65,2.79,26.54,26.54,0,0,0,48.53-14.87V245.79a26.55,26.55,0,0,1,53.1,0v31.66A26.54,26.54,0,0,0,502.91,302Z" transform="translate(-79.62 -214.3)"/><rect class="cls-3" x="34.56" y="124.4" width="43.85" height="101.87" rx="21.93"/></svg>