<svg id="Clamshell" xmlns="http://www.w3.org/2000/svg" viewBox="0 0 417.21 516.77"><defs><style>.cls-1{fill:#b1bbdf;}.cls-2{fill:#8698cd;}.cls-3{fill:#9ba9d6;}.cls-4{fill:#77799b;}</style></defs><title>ClamshellPackaging</title><path class="cls-1" d="M485.38,152.57H184.11a44.94,44.94,0,0,0-44.94,44.94V624.4a44.94,44.94,0,0,0,44.94,44.94H485.38a44.94,44.94,0,0,0,44.94-44.94V197.51A44.94,44.94,0,0,0,485.38,152.57ZM362.83,208.74H306.66a16.34,16.34,0,0,1,0-32.68h56.17a16.34,16.34,0,1,1,0,32.68Z" transform="translate(-139.17 -152.57)"/><rect class="cls-2" x="23.22" y="73.41" width="344.7" height="369.96" rx="44.94"/><rect class="cls-3" x="72.51" y="73.41" width="344.7" height="369.96" rx="44.94"/><rect class="cls-4" x="72.51" y="73.41" width="288" height="369.96" rx="44.94"/><circle class="cls-2" cx="42.38" cy="39.83" r="16.85"/><circle class="cls-2" cx="354.72" cy="39.83" r="16.85"/><circle class="cls-2" cx="39.4" cy="480.4" r="16.85"/><circle class="cls-2" cx="351.74" cy="480.4" r="16.85"/></svg>