<svg id="Solocup" xmlns="http://www.w3.org/2000/svg" viewBox="0 0 241.43 315.58"><defs><style>.cls-1{fill:#ed1c24;}.cls-2{fill:#ae4a39;}.cls-3{fill:#fff;}.cls-4{fill:#bb6954;}</style></defs><title>FoamCup</title><path class="cls-1" d="M398.14,303.3V444a35.62,35.62,0,0,1-32.25,35.46c-1.11.11-2.23.16-3.37.16H252.23A35.62,35.62,0,0,1,216.61,444V303.3Z" transform="translate(-186.66 -164.06)"/><path class="cls-2" d="M398.14,303.3v33.63a22.92,22.92,0,0,1-3.44.26H220.06a23.06,23.06,0,0,1-3.45-.26V303.3Z" transform="translate(-186.66 -164.06)"/><path class="cls-1" d="M10.8,9.19H230.63a0,0,0,0,1,0,0V132.13a22.6,22.6,0,0,1-22.6,22.6H33.4a22.6,22.6,0,0,1-22.6-22.6V9.19A0,0,0,0,1,10.8,9.19Z"/><rect class="cls-3" width="241.43" height="18.38" rx="9.19"/><path class="cls-4" d="M365.89,390v89.46c-1.11.11-2.23.16-3.37.16h-61V390a32.17,32.17,0,1,1,64.34,0Z" transform="translate(-186.66 -164.06)"/><rect class="cls-3" x="34.47" y="34.47" width="44.43" height="94.98" rx="22.21"/></svg>