<svg xmlns="http://www.w3.org/2000/svg" viewBox="0 0 89.77 89.76"><defs><style>.cls-1{fill:#009444;}.cls-2{fill:#006838;}.cls-3{fill:#ef4136;}.cls-4{fill:#f7941d;}.cls-5{fill:#fff;}</style></defs><title>SoundOn</title><g id="BUttons"><path class="cls-1" d="M296.62,227.44a44.89,44.89,0,1,1-44.89-44.88A44.7,44.7,0,0,1,296.62,227.44Z" transform="translate(-206.85 -182.56)"/><path class="cls-2" d="M283.18,259.46A44.88,44.88,0,0,1,219.71,196Z" transform="translate(-206.85 -182.56)"/><path class="cls-3" d="M291.89,227.44a39.92,39.92,0,0,1-7,22.63,39,39,0,0,1-3.08,3.94,38.06,38.06,0,0,1-4.1,4,38.5,38.5,0,0,1-3.37,2.58c-1,.71-2.13,1.38-3.24,2a40,40,0,0,1-18,5l-1.37,0h-.48A40.15,40.15,0,0,1,211.62,229c0-.34,0-.69,0-1,0-.18,0-.37,0-.55a39.91,39.91,0,0,1,5-19.42,34.9,34.9,0,0,1,2-3.21c.25-.36.5-.72.77-1.07s.35-.47.54-.7a39.44,39.44,0,0,1,9.23-8.77,40.16,40.16,0,0,1,62.79,33.17Z" transform="translate(-206.85 -182.56)"/><path class="cls-4" d="M290,227.44a38.31,38.31,0,0,1-29.76,37.32h0a38.73,38.73,0,0,1-8.48.94A38.26,38.26,0,0,1,213.55,230c-.05-.83-.08-1.67-.08-2.51a38.27,38.27,0,0,1,76.53,0Z" transform="translate(-206.85 -182.56)"/><g id="SoundOn"><path class="cls-3" d="M263,252.3l5.52,4.2-8.26,8.26A38.3,38.3,0,0,1,213.55,230l8.69-8.69,25.22,19.21L271,217l9.17,18.11Z" transform="translate(-206.85 -182.56)"/><path class="cls-5" d="M233.5,230.76l28.82,26.35a4.18,4.18,0,0,0,7-3.09v-52.7a4.19,4.19,0,0,0-7-3.09L233.5,224.58A4.18,4.18,0,0,0,233.5,230.76Z" transform="translate(-206.85 -182.56)"/><path class="cls-5" d="M231.76,217v0c-6.55.33-11.76,5-11.76,10.64s5.21,10.32,11.76,10.65v0h17.65V217Z" transform="translate(-206.85 -182.56)"/><path class="cls-5" d="M283,228c0,6.07-5.37,11-12,11V217C277.63,217,283,221.93,283,228Z" transform="translate(-206.85 -182.56)"/></g></g></svg>
