<svg xmlns="http://www.w3.org/2000/svg" viewBox="0 0 89.77 89.76"><defs><style>.cls-1{fill:#009444;}.cls-2{fill:#006838;}.cls-3{fill:#ef4136;}.cls-4{fill:#f7941d;}.cls-5{fill:#fff;}</style></defs><title>Retry</title><g id="BUttons"><path class="cls-1" d="M296.62,227.44a44.89,44.89,0,1,1-44.89-44.88A44.7,44.7,0,0,1,296.62,227.44Z" transform="translate(-206.85 -182.56)"/><path class="cls-2" d="M283.18,259.46A44.88,44.88,0,0,1,219.71,196Z" transform="translate(-206.85 -182.56)"/><path class="cls-3" d="M291.89,227.44a39.92,39.92,0,0,1-7,22.63,39,39,0,0,1-3.08,3.94,38.06,38.06,0,0,1-4.1,4,38.5,38.5,0,0,1-3.37,2.58c-1,.71-2.13,1.38-3.24,2a40,40,0,0,1-18,5l-1.37,0h-.48A40.15,40.15,0,0,1,211.62,229c0-.34,0-.69,0-1,0-.18,0-.37,0-.55a39.91,39.91,0,0,1,5-19.42,34.9,34.9,0,0,1,2-3.21c.25-.36.5-.72.77-1.07s.35-.47.54-.7a39.44,39.44,0,0,1,9.23-8.77,40.16,40.16,0,0,1,62.79,33.17Z" transform="translate(-206.85 -182.56)"/><path class="cls-4" d="M290,227.44a38.31,38.31,0,0,1-29.76,37.32h0a38.73,38.73,0,0,1-8.48.94A38.26,38.26,0,0,1,213.55,230c-.05-.83-.08-1.67-.08-2.51a38.27,38.27,0,0,1,76.53,0Z" transform="translate(-206.85 -182.56)"/><g id="Layer_40" data-name="Layer 40"><path class="cls-3" d="M272.11,248.57l-19,19-1.37,0h-.48A40.15,40.15,0,0,1,211.62,229l20.47-20.47a34.13,34.13,0,0,0-1.52,7.23L250.36,196l19.34,13.14-30.83,31.53a30.08,30.08,0,0,0,2.77,2.64,28.87,28.87,0,0,0,6.33,4l21.6-21.6,9.22,3-21.05,21.23A36.76,36.76,0,0,0,272.11,248.57Z" transform="translate(-206.85 -182.56)"/><path class="cls-5" d="M278.23,226.42a6.33,6.33,0,0,0-5.53-2.11l-.67.13a5.79,5.79,0,0,0-.71.21c-.17.06-.34.15-.51.23a5.44,5.44,0,0,0-1,.57,5.32,5.32,0,0,0-.46.37,5.44,5.44,0,0,0-.48.48,5.67,5.67,0,0,0-.78,1.06,6.27,6.27,0,0,0-.29.58h0s0,0,0,0a15.69,15.69,0,0,1-.35,4,.43.43,0,0,0,0,.05,15.91,15.91,0,0,1-5.05,8.62,16.11,16.11,0,0,1-22.72-1.4h0a16.12,16.12,0,0,1,1.4-22.72,15.85,15.85,0,0,1,7.5-3.71v1.31a4.48,4.48,0,0,0,6.73,3.88l12.87-7.42a4.49,4.49,0,0,0,0-7.77l-12.87-7.43a4.48,4.48,0,0,0-6.73,3.88v1.44a28,28,0,0,0-17.89,46.49h0a28.08,28.08,0,0,0,48.88-14.85,0,0,0,0,0,0,0c.09-.71.17-1.42.21-2.13A6.27,6.27,0,0,0,278.23,226.42Z" transform="translate(-206.85 -182.56)"/></g></g></svg>
