<svg xmlns="http://www.w3.org/2000/svg" viewBox="0 0 313.81 328.3"><defs><style>.cls-1{fill:#666;}.cls-2{fill:#999;}.cls-3{fill:#c2c2c2;}.cls-4{fill:#4d4d4d;}.cls-5{fill:#fff;}.cls-6{fill:#b33900;}.cls-7{fill:#d69a00;}.cls-8{fill:#d9ba41;}</style></defs><title>OldNode</title><g id="OldNode"><circle class="cls-1" cx="156.9" cy="171.4" r="156.9"/><path class="cls-2" d="M163,2729.74a156.88,156.88,0,0,1-156.9,156.9,156.12,156.12,0,0,1-88.68-27.45,156.73,156.73,0,0,1-68.22-129.45,158.07,158.07,0,0,1,1.76-23.58,156.93,156.93,0,0,1,310.28,0A158.07,158.07,0,0,1,163,2729.74Z" transform="translate(150.84 -2572.84)"/><path class="cls-3" d="M163,2729.74h-313.8a158.07,158.07,0,0,1,1.76-23.58,156.93,156.93,0,0,1,310.28,0A158.07,158.07,0,0,1,163,2729.74Z" transform="translate(150.84 -2572.84)"/><circle class="cls-3" cx="17.42" cy="156.9" r="17.42"/><circle class="cls-3" cx="296.39" cy="156.9" r="17.42"/><path class="cls-4" d="M102,2845.63a17.29,17.29,0,0,1-4.39,11.54,156.15,156.15,0,0,1-91.55,29.47,156.12,156.12,0,0,1-88.68-27.45,17.36,17.36,0,0,1-6.52-13.56,17.41,17.41,0,0,1,17.42-17.41,17.32,17.32,0,0,1,9.36,2.74V2669.51H74.48v161.95A17.41,17.41,0,0,1,102,2845.63Z" transform="translate(150.84 -2572.84)"/><circle class="cls-5" cx="156.9" cy="156.9" r="129.71"/><circle class="cls-6" cx="156.9" cy="156.9" r="115.63"/><circle class="cls-7" cx="157.27" cy="156.9" r="103.54"/><circle class="cls-8" cx="156.9" cy="176.94" r="80.27"/><circle class="cls-5" cx="170.25" cy="84.58" r="19.83"/><path class="cls-5" d="M-39.64,2649.24c-35.92,19.5-53.79,62.15-44.18,101.58,2.48,10.17,14.54,17.23,24.6,14,10.57-3.42,16.63-13.7,14-24.6-.24-1-.46-2-.66-3-.12-.56-.21-1.13-.32-1.69-.65-3.23.18.92.2,1.85-.06-3.58-.62-7.13-.53-10.75.05-1.89-.23-5,.49-6.78-.57,1.42-.51,2.91,0,.47.32-1.41.6-2.81,1-4.21.69-2.68,1.6-5.26,2.53-7.87-.61,1.71-.71,1.5.08,0,.6-1.19,1.19-2.39,1.84-3.57,1-1.78,2-3.52,3.19-5.21a18.35,18.35,0,0,1,2.11-3c-.84.81-2.21,2.63-.52.79a97,97,0,0,1,7.9-7.94c.56-.48,1.13-.93,1.69-1.41,2.56-2.17-3.17,2.2-1.24,1,1-.64,1.94-1.38,2.93-2,1.66-1.1,3.36-2.11,5.11-3.06,9.21-5,12.9-18.48,7.17-27.37-6-9.34-17.51-12.52-27.36-7.17Z" transform="translate(150.84 -2572.84)"/></g></svg>