<svg xmlns="http://www.w3.org/2000/svg" viewBox="0 0 656.45 656.45"><defs><style>.cls-1{fill:#72768f;}.cls-2{fill:#666;}.cls-3{fill:#56596b;}.cls-4{fill:#393b48;}</style></defs><title>Hole</title><g id="Hole"><path class="cls-1" d="M2550.59,2440.33v466.9a94.78,94.78,0,0,1-94.78,94.77h-466.9a94.77,94.77,0,0,1-94.77-94.77v-466.9a94.78,94.78,0,0,1,94.77-94.78h466.9A94.79,94.79,0,0,1,2550.59,2440.33Z" transform="translate(-1894.14 -2345.55)"/><path class="cls-2" d="M2550.59,2536v371.22a94.78,94.78,0,0,1-94.78,94.77h-466.9a94.77,94.77,0,0,1-94.77-94.77V2536a94.77,94.77,0,0,1,94.77-94.77h466.9A94.78,94.78,0,0,1,2550.59,2536Z" transform="translate(-1894.14 -2345.55)"/><path class="cls-3" d="M2550.59,2631.69v275.54a94.78,94.78,0,0,1-94.78,94.77h-466.9a94.77,94.77,0,0,1-94.77-94.77V2631.69a94.77,94.77,0,0,1,94.77-94.77h466.9A94.78,94.78,0,0,1,2550.59,2631.69Z" transform="translate(-1894.14 -2345.55)"/><path class="cls-4" d="M2550.59,2727.38v179.85a94.78,94.78,0,0,1-94.78,94.77h-466.9a94.77,94.77,0,0,1-94.77-94.77V2727.38a94.77,94.77,0,0,1,94.77-94.78h466.9A94.78,94.78,0,0,1,2550.59,2727.38Z" transform="translate(-1894.14 -2345.55)"/></g></svg>