<svg id="SwingingLog" xmlns="http://www.w3.org/2000/svg" viewBox="0 0 1229.87 3446"><defs><style>.cls-1{fill:#1d906e;}.cls-2{fill:#44d992;}.cls-3{fill:#4aa68b;}.cls-4{fill:#e6a65c;}.cls-5{fill:#805c34;}.cls-6{fill:#986e3e;}.cls-7{fill:#ffb767;}.cls-8{fill:#ffc585;}.cls-9{fill:#26416a;opacity:0.24;}.cls-10{fill:#996e3e;}</style></defs><title>SwingingLog</title><path class="cls-1" d="M-2961.31,1465c-21.87,17.82-41.4,38.73-59,60.77-37.78,47.44-67.51,100-85.49,158.21-40.68,131.55-14.12,278.18,66.69,389.06,22.59,31,47.91,60.61,77.75,84.92,8.7,7.08,17.36,12,29,12,10.06,0,22.07-4.47,29-12,13.77-15,17.77-43.54,0-58-21.93-17.86-41.58-38.66-59.21-60.72-2.18-2.73-8.5-11.4.38.57-1.68-2.26-3.41-4.5-5.08-6.77q-5.77-7.86-11.19-16-10.65-15.9-19.88-32.68-4.91-8.94-9.37-18.1-2.31-4.71-4.48-9.48c-1.57-3.42-6.63-17.19-1.86-3.95-5.09-14.13-10.66-27.91-14.83-42.36a394.82,394.82,0,0,1-10.65-48.06c-.32-2-.45-4.17-.92-6.17,2.53,10.93.71,5.32.34,2.14q-.67-5.71-1.18-11.45-1.28-14.43-1.51-28.93a398.23,398.23,0,0,1,2.64-52.7c.34-2.93,1.54-9.38-.37,2.33.26-1.61.46-3.23.71-4.84q.91-6,2-11.93,2.34-12.75,5.53-25.33a403,403,0,0,1,13.47-42.8c1.26-3.36,2.61-6.69,3.93-10,3-7.59-4.12,9.39-.84,2,.56-1.28,1.11-2.57,1.68-3.85q4.59-10.34,9.72-20.4a443.1,443.1,0,0,1,40-64.1c.66-.89,1.33-1.76,2-2.64,4.14-5.52-7.07,9-2,2.54,1.79-2.24,3.57-4.49,5.38-6.72q5.57-6.81,11.39-13.42,9.51-10.77,19.69-20.9c7.81-7.76,15.92-15.26,24.46-22.22,16.7-13.61,15.19-44.06,0-58-17.74-16.29-40.19-14.53-58,0Z" transform="translate(3678.01 1276)"/><path class="cls-2" d="M-3052,1463.38c-23.55,21-43.83,45.28-62.6,70.52a473.52,473.52,0,0,0-75.14,152.61c-36.86,130.26-11.83,273.15,64.47,384.54,21.13,30.84,45.27,60.38,73.27,85.3,16,14.26,42.43,17,58,0,14.32-15.6,17.12-42.78,0-58-7.54-6.72-14.77-13.79-21.73-21.11q-8.1-8.52-15.72-17.47-4.66-5.46-9.14-11.06c-1.28-1.61-6.65-8.51-1.52-1.87s-1.2-1.64-2.56-3.47A453.76,453.76,0,0,1-3083,1982q-4.5-8.67-8.6-17.55c-1.34-2.88-2.61-5.79-3.91-8.69-1.22-2.74-3-8.32,1.19,2.88-.76-2-1.66-4-2.46-6.05a421.31,421.31,0,0,1-14.46-42.94,412.14,412.14,0,0,1-10-46.22c-.32-2-.42-4.23-.93-6.23,2.49,9.91.8,6.29.47,3.34-.47-4.27-1-8.54-1.37-12.82q-1.18-13.2-1.55-26.46a415.07,415.07,0,0,1,1.93-53.12c.2-2,1.92-14.54.75-7.2s.14-.88.32-2c.24-1.64.5-3.29.77-4.92q2.06-12.64,4.92-25.13a414.43,414.43,0,0,1,12.44-43.47q3.61-10.43,7.75-20.64c.54-1.33,1.13-2.65,1.64-4-4.29,11.25-2.42,5.64-1.19,2.92,1.58-3.51,3.13-7,4.76-10.52a452.08,452.08,0,0,1,37-64.36q5.18-7.51,10.65-14.83c.94-1.25,1.84-2.6,2.87-3.78-1.29,1.48-7,9-2.64,3.43,1.54-1.94,3.08-3.88,4.64-5.8q9.27-11.4,19.27-22.19c7.86-8.45,16-16.61,24.67-24.29,16.08-14.31,15.68-43.61,0-58-17.15-15.74-40.86-15.26-58,0Z" transform="translate(3678.01 1276)"/><path class="cls-3" d="M-3150.5,1463.38c-60,63.63-103.93,144.46-124.35,229.48-30.45,126.76-9.16,261.69,57.11,373.71a508.92,508.92,0,0,0,67.24,89.78c14.76,15.64,43.32,16,58,0,15.39-16.77,15.75-41.33,0-58q-10.8-11.46-20.72-23.71c-1.15-1.41-2.29-2.84-3.42-4.27-.53-.66-1-1.33-1.57-2-3.3-4.12,4.66,5.61,4,5.21-3-1.88-5.84-7.73-7.94-10.63q-8.61-11.89-16.5-24.29a484.88,484.88,0,0,1-32.66-60.33c-1.16-2.57-2.28-5.15-3.42-7.73-3.16-7.17,3.18,8,1.21,2.87-.65-1.69-1.37-3.36-2.05-5q-3.72-9.32-7-18.79-7-20-12.15-40.5c-3.76-15.05-6.57-30.25-8.95-45.58-.85-5.48,1.06,8.69.42,3.15-.25-2.18-.53-4.36-.77-6.54q-.6-5.3-1.06-10.61-1.12-12.91-1.51-25.9a455.92,455.92,0,0,1,1.33-51.35c.57-6.94,2.28-14.24,2.24-21.17.06,10.44-.7,5.25-.19,1.86.32-2.12.65-4.25,1-6.37q1-6.27,2.25-12.52a460.46,460.46,0,0,1,23.87-81.49c.71-1.79,5.08-12.38,2.06-5.16s1.56-3.47,2.19-4.87q3.79-8.46,7.93-16.77,7.7-15.48,16.48-30.39t18.74-29.37q4.47-6.48,9.15-12.82c1.38-1.86,2.79-3.7,4.18-5.56,1.79-2.4,4.71-5.74-4,5.13.8-1,1.58-2,2.38-3q11.63-14.71,24.48-28.39c14.74-15.61,16.65-42.72,0-58-16-14.67-42.27-16.66-58,0Z" transform="translate(3678.01 1276)"/><path class="cls-1" d="M-3244,1463.38c-53.47,68.11-92.28,147.51-109.92,232.58-25.44,122.71-8.31,249.59,47,361.83,17.34,35.23,38.76,67.72,63,98.56,6,7.68,19.74,12,29,12,10.06,0,22.08-4.47,29-12,7.18-7.82,12.51-18.08,12-29-.52-11.58-4.92-20-12-29-5.84-7.44,7.14,9.39,1.83,2.38-1.81-2.4-3.62-4.8-5.4-7.23q-5.76-7.87-11.22-16a519.14,519.14,0,0,1-27.61-46q-7.5-14.09-14.15-28.59-1.71-3.74-3.36-7.5c-1.33-3-4.69-12.26,0,.12-2.18-5.78-4.64-11.45-6.81-17.23a515.9,515.9,0,0,1-22.23-77q-2.1-10.17-3.78-20.43c-.5-3.06-.93-6.13-1.41-9.18-.88-5.55,1,8.52.37,2.92-.27-2.25-.56-4.49-.82-6.73q-2.71-23.75-3.21-47.68-.48-23.68,1.24-47.35.79-11,2.07-21.92c.21-1.79.45-3.58.66-5.37.66-5.6-1.25,8.48-.39,2.94.61-3.91,1.18-7.83,1.83-11.74a510.64,510.64,0,0,1,19.74-78.66c4-11.89,8.74-23.44,13.26-35.14-.1.24-4.29,9.9-1.67,4,.56-1.27,1.1-2.54,1.66-3.81q1.46-3.27,2.94-6.52,3.49-7.62,7.23-15.14A526.87,526.87,0,0,1-3204,1547q6.4-9.75,13.25-19.2,2.72-3.72,5.49-7.4c.9-1.19,1.85-2.35,2.72-3.56-1.26,1.75-7.88,10.13-3.51,4.56,7-8.92,12-17.16,12-29,0-10.06-4.47-22.08-12-29-14.76-13.54-43.85-18-58,0Z" transform="translate(3678.01 1276)"/><rect class="cls-4" x="142.74" y="2811.05" width="945.05" height="551.28"/><ellipse class="cls-4" cx="1087.79" cy="3086.69" rx="123.61" ry="275.64"/><path class="cls-5" d="M-2448.13,1841.19q-.84,19.56-2.71,38.41a610.15,610.15,0,0,1-11.78,73.83c-3.22,14.32-6.91,28-11,41-11.73,37-26.93,68.14-44.55,91.13l-72,3.3-66.89,3.07.67.78,66.22,13.42,42.38,8.58c-10,7-20.56,11.51-31.42,13.34-.9.15-1.8.28-2.72.4s-1.74.21-2.63.28h-.18c-1.8.15-3.61.23-5.43.23h-945.05v-65.54l94-14.28.62-.1,151.08-22.93-75.8-31.69-47.5-19.85-122.37-51.14V1691.8l125-35,1.12-.31,35.6-10-42.79-12-.3-.08L-3475.2,1618l48.63-13.63,54.62-15.31-28.79-8.07-41.43-11.62-.72-.2-92.38-25.89v-50.89h945.05c60.54,0,112.29,84.07,133,202.71l-133,26.59-41.25,8.24,41.25,15.13,126.7,46.45-77.71,15.53Z" transform="translate(3678.01 1276)"/><path class="cls-6" d="M-3442.17,1569.37l-93.1-26.09-63.46-17.78c19.13-21.2,40.67-33.11,63.46-33.11C-3499.71,1492.39-3467.18,1521.4-3442.17,1569.37Z" transform="translate(3678.01 1276)"/><path class="cls-6" d="M-3416.38,1634.49-3475.2,1618l48.63-13.63Q-3421.08,1618.71-3416.38,1634.49Z" transform="translate(3678.01 1276)"/><path class="cls-6" d="M-3440.68,2049.06c-25.17,49.72-58.31,79.92-94.59,79.92-29.32,0-56.57-19.72-79.23-53.52l79.23-12Z" transform="translate(3678.01 1276)"/><path class="cls-6" d="M-3392.52,1810.69c0,60-7.44,116-20.38,163.9l-122.37-51.14-140.69-58.8c-1.34-17.54-2.05-35.57-2.05-54a692.4,692.4,0,0,1,4.58-80.15l138.16-38.74,125-35C-3399,1702.38-3392.52,1754.85-3392.52,1810.69Z" transform="translate(3678.01 1276)"/><ellipse class="cls-7" cx="142.74" cy="3086.69" rx="123.61" ry="275.64"/><ellipse class="cls-8" cx="142.74" cy="3087.19" rx="103.36" ry="230.49"/><ellipse class="cls-7" cx="141.92" cy="3086.74" rx="79.57" ry="177.44"/><ellipse class="cls-8" cx="142.65" cy="3086.83" rx="64.08" ry="142.89"/><path class="cls-4" d="M-2656.44,2092.72l-3.3-.67,2.63-.11Z" transform="translate(3678.01 1276)"/><path class="cls-9" d="M-2590.22,2088.87l-66.89,3.07.67.78,66.22,13.42,42.38,8.58c-10,7-20.56,11.51-31.42,13.34-.9.15-1.8.28-2.72.4s-1.74.21-2.63.28h-.18c-1.8.15-3.61.23-5.43.23h-945.05c36-.89,68.9-30.88,94-79.81l.62-.1,151.08-22.93-75.8-31.69h891.74c-11.73,37-26.93,68.14-44.55,91.13Z" transform="translate(3678.01 1276)"/><path class="cls-9" d="M-2449.23,1879.6a601.59,601.59,0,0,1-11.92,73.83h-946.68a601.62,601.62,0,0,0,11.91-73.83Z" transform="translate(3678.01 1276)"/><path class="cls-10" d="M-2490.28,1581h-910.46l-41.43-11.62-.72-.2c-21.73-41.21-49.13-68.38-79.25-75.14h946.69C-2542.54,1501.41-2512.88,1533.18-2490.28,1581Z" transform="translate(3678.01 1276)"/><path class="cls-10" d="M-2463.9,1656.46h-945.29l35.6-10-42.79-12-.3-.08q-3.2-10.61-6.77-20.61h946.69C-2472,1627.19-2467.68,1641.45-2463.9,1656.46Z" transform="translate(3678.01 1276)"/><g id="Layer_69" data-name="Layer 69"><path class="cls-1" d="M-3048.8,1434.75V-1104.86c0-34.31.27-68.65,0-103,0-1.5,0-3,0-4.5,0-33.29-18.86-65.18-41-63.64s-41,28-41,63.64V1327.3c0,34.31-.26,68.65,0,103,0,1.5,0,3,0,4.5,0,33.29,18.86,65.17,41,63.64s41-28,41-63.64Z" transform="translate(3678.01 1276)"/><path class="cls-3" d="M-2925.74,1434.75V-1104.86c0-34.31.26-68.65,0-103,0-1.5,0-3,0-4.5,0-33.29-18.87-65.18-41-63.64s-41,28-41,63.64V1327.3c0,34.31-.26,68.65,0,103,0,1.5,0,3,0,4.5,0,33.29,18.87,65.17,41,63.64s41-28,41-63.64Z" transform="translate(3678.01 1276)"/><path class="cls-2" d="M-2987.27,1434.75V-1104.86c0-34.31.26-68.65,0-103,0-1.5,0-3,0-4.5,0-33.29-18.87-65.18-41-63.64s-41,28-41,63.64V1327.3c0,34.31-.26,68.65,0,103,0,1.5,0,3,0,4.5,0,33.29,18.87,65.17,41,63.64s41-28,41-63.64Z" transform="translate(3678.01 1276)"/></g><path class="cls-1" d="M-3181.67,1523c20.87,17,39.58,36.85,56.51,57.74,1.65,2,3.26,4.1,4.9,6.15,4.14,5.18-5.89-7.77-3-3.82.82,1.1,1.66,2.19,2.49,3.29q5.64,7.54,11,15.32,10.47,15.29,19.66,31.4,10.47,18.41,19.1,37.78c.57,1.28,1.12,2.57,1.68,3.85,3.14,7.12-3.18-8-1.25-3,1.27,3.35,2.68,6.66,4,10q4.11,10.83,7.61,21.88a395,395,0,0,1,11.55,46.08q1.11,5.94,2,11.9c.31,2,.49,4.07.9,6-2.22-10.87-.81-6.31-.51-3.56,1,9.22,1.88,18.43,2.34,27.69a400.37,400.37,0,0,1-1,53.88c-.33,3.83-.7,7.66-1.14,11.48-.32,2.73-1.94,11.65.18-.88-.27,1.64-.47,3.3-.72,5q-2,13.29-5,26.42a396.75,396.75,0,0,1-12.8,44.6c-2.44,7-5.39,13.7-7.88,20.62,4.7-13.06.42-1.09-1,2q-2.6,5.74-5.36,11.41a435,435,0,0,1-40.44,66.73c-1.36,1.85-8,10.59-2.88,3.93s-1.44,1.8-2.82,3.51q-5.73,7.13-11.74,14-9.86,11.27-20.45,21.86a350.51,350.51,0,0,1-26,23.62c-16.71,13.61-15.19,44.06,0,58,17.75,16.29,40.18,14.51,58,0,23-18.71,43.46-40.62,61.71-63.89,38.49-49.06,68.56-103.7,85.54-164,36.95-131.24,8.52-274.72-72.49-383.79-21.94-29.54-46.14-58-74.76-81.29-8.7-7.09-17.37-12-29-12-10.06,0-22.07,4.47-29,12-13.77,15-17.76,43.53,0,58Z" transform="translate(3678.01 1276)"/><path class="cls-2" d="M-3090.93,1521.39c7.38,6.57,14.44,13.49,21.25,20.64q8,8.38,15.5,17.21,4.6,5.38,9,10.91c1.42,1.77,2.8,3.55,4.21,5.33,3,3.78-7-9.28-3.1-4,1,1.28,1.93,2.54,2.88,3.82a458.29,458.29,0,0,1,38.1,60.56q4.5,8.58,8.61,17.34,2,4.27,3.92,8.58c.72,1.62,1.37,3.27,2.12,4.87-5.5-11.72-1.89-4.49-.82-1.86a422.64,422.64,0,0,1,14.62,42.4,411.76,411.76,0,0,1,10.29,45.61c.61,3.68.93,7.46,1.69,11.11-2.77-13.3,0,1.17.35,4.25q1.3,13,1.79,26.09a417.05,417.05,0,0,1-1.42,53.49q-.53,5.79-1.21,11.55c-.35,2.92-1.67,9.39.32-2.07-.29,1.66-.49,3.33-.74,5q-2,12.81-4.75,25.47a414.31,414.31,0,0,1-12.23,44q-3.57,10.54-7.68,20.9c-.54,1.35-1.1,2.7-1.63,4-2.93,7.36,3.46-7.78,1.21-2.83-1.62,3.54-3.12,7.12-4.76,10.65a449.32,449.32,0,0,1-37.11,65.16q-5.22,7.62-10.74,15l-2.89,3.83c-3.78,5.08,6.74-8.53,2.6-3.36-1.57,1.95-3.11,3.93-4.68,5.88q-9.39,11.56-19.51,22.5c-8,8.65-16.41,17-25.23,24.83-16.07,14.31-15.67,43.61,0,58,17.16,15.75,40.86,15.26,58,0,66.18-58.91,115.26-140.9,138.61-226,35.7-130.16,10.08-272.06-66.31-382.9-20.92-30.35-44.7-59.5-72.3-84.07-16-14.26-42.43-17-58,0-14.31,15.6-17.11,42.78,0,58Z" transform="translate(3678.01 1276)"/><path class="cls-3" d="M-2992.48,1521.39q11,11.63,21,24.07c1.15,1.43,2.31,2.87,3.45,4.32.53.66,1.05,1.34,1.58,2,3.32,4.17-4.63-5.62-4-5.18,3.12,2.17,5.77,7.65,8,10.73q8.65,12,16.58,24.49a483.39,483.39,0,0,1,32.72,60.76c1.16,2.58,2.22,5.22,3.42,7.78-6-12.86-.31-.61.82,2.25q3.72,9.38,7,18.91,7,20.09,12.06,40.76,2.65,10.85,4.79,21.82c.65,3.32,1.26,6.66,1.83,10,.36,2.12.71,4.23,1,6.35.22,1.45,1.35,10.83.57,3.55-.69-6.55-.09-.59.11,1,.27,2.19.52,4.39.75,6.58q.57,5.34,1,10.68,1.07,13,1.39,26.06a455.43,455.43,0,0,1-1.58,51.19c-.3,3.54-.66,7.08-1.05,10.61-.19,1.75-.41,3.49-.61,5.24-.81,7.19.2-2.39.44-3.13-2.5,7.78-2.66,17.1-4.27,25.18a461.53,461.53,0,0,1-24,81c-.54,1.35-1.1,2.69-1.64,4-2.93,7.34,3.42-7.82,1.22-2.85-1.29,2.9-2.53,5.82-3.84,8.71q-3.81,8.4-7.93,16.65-7.7,15.39-16.45,30.19t-18.66,29.14q-4.45,6.42-9.1,12.7c-1.37,1.85-2.77,3.67-4.15,5.51-1.8,2.4-4.72,5.7,4-5.16-.8,1-1.57,2-2.36,3q-11.47,14.51-24.14,28c-14.74,15.61-16.65,42.72,0,58,16,14.67,42.27,16.66,58,0a513.28,513.28,0,0,0,123.92-227.77c31-126.85,10-262.22-56.13-374.56a508.87,508.87,0,0,0-67.79-90.64c-14.76-15.64-43.31-16-58,0-15.39,16.77-15.75,41.33,0,58Z" transform="translate(3678.01 1276)"/><path class="cls-1" d="M-2899,1521.39c5.78,7.37-7.17-9.43-1.91-2.48q2.68,3.55,5.33,7.13,5.7,7.79,11.1,15.8A517.84,517.84,0,0,1-2857,1587.4q7.47,14,14.11,28.36c1.14,2.47,2.25,5,3.35,7.44,1.33,3,4.89,12.21,0-.19,2.25,5.71,4.64,11.36,6.81,17.1a515.5,515.5,0,0,1,22.35,76.41q2.13,10.1,3.84,20.29.76,4.55,1.44,9.11c.24,1.65.76,7.58.2,1.15-.61-7,.12,1,.3,2.56q2.8,23.58,3.41,47.34t-1,47.53q-.77,11.05-2,22.07c-.2,1.8-.42,3.6-.64,5.4s-.41,7.65-.14,1.24,0-.55-.21,1.16q-.5,3.29-1,6.55a511.54,511.54,0,0,1-19.58,79.22c-4,12-8.92,23.55-13.24,35.4.09-.26,4.26-9.89,1.66-4-.56,1.27-1.11,2.55-1.67,3.83q-1.44,3.3-2.94,6.57-3.51,7.69-7.25,15.27a527.19,527.19,0,0,1-31.47,55q-6.47,9.85-13.39,19.41-2.74,3.78-5.56,7.51c-.91,1.21-1.88,2.38-2.76,3.62,1.3-1.84,7.84-10.09,3.46-4.5-7,8.92-12,17.16-12,29,0,10.06,4.47,22.08,12,29,14.76,13.54,43.85,18,58,0,53.87-68.61,92.89-148.68,110.32-234.45,24.91-122.54,7.53-249-47.82-360.9-17.25-34.88-38.5-67.06-62.5-97.62-6-7.68-19.73-12-29-12-10.06,0-22.08,4.47-29,12-7.18,7.82-12.51,18.08-12,29,.52,11.58,4.92,20,12,29Z" transform="translate(3678.01 1276)"/><g id="Layer_70" data-name="Layer 70"><path class="cls-2" d="M-2771.15,1415.63c-50.21,47.09-166.5,74.7-166.5,74.7s-39.74-122.75-22.12-181.14c23.26-77.1,109.62-142.37,220.37-158.18C-2705.36,1310.93-2734.69,1381.42-2771.15,1415.63Z" transform="translate(3678.01 1276)"/><path class="cls-3" d="M-2798.7,1517c-55.82,7-146-30.61-146-30.61s32.71-100.23,72.41-130.37c52.42-39.79,140.87-41.44,221.67,1.32C-2704.91,1479.39-2758.16,1511.9-2798.7,1517Z" transform="translate(3678.01 1276)"/><path class="cls-2" d="M-3158,547.15c28.2,37.91,37.95,119.36,37.95,119.36s-86.81,17.53-125.25,1c-50.76-21.88-88.53-85.86-90.67-162.61C-3224.25,494.12-3178.47,519.62-3158,547.15Z" transform="translate(3678.01 1276)"/><path class="cls-3" d="M-3091,573.85c.43,38.61-32.26,97.13-32.26,97.13s-65.8-30.12-83.25-59.54c-23-38.85-17.27-99.29,18.19-151.06C-3109.34,507-3091.33,545.81-3091,573.85Z" transform="translate(3678.01 1276)"/><path class="cls-2" d="M-2818.91-26.06C-2860.43-3.5-2942.44-5.35-2942.44-5.35s-5.08-88.42,16.75-124.13c28.83-47.16,97.51-75.51,173.8-66.79C-2757-84.16-2788.76-42.45-2818.91-26.06Z" transform="translate(3678.01 1276)"/><path class="cls-3" d="M-2854.8,36.47c-38.28-5-91.61-45.66-91.61-45.66s39.12-60.89,70.71-74c41.72-17.32,100.74-3.06,147,39.36C-2786,27.78-2827,40.12-2854.8,36.47Z" transform="translate(3678.01 1276)"/></g></svg>