<svg id="BUttons" xmlns="http://www.w3.org/2000/svg" viewBox="0 0 89.77 89.76"><defs><style>.cls-1{fill:#fff;}.cls-2{fill:#c7c8ca;}.cls-3{fill:#ef4136;}.cls-4{fill:#f7941d;}</style></defs><title>Inventory</title><path class="cls-1" d="M423,227.44a44.89,44.89,0,1,1-44.89-44.88A44.7,44.7,0,0,1,423,227.44Z" transform="translate(-333.23 -182.56)"/><path class="cls-2" d="M409.56,259.46A44.88,44.88,0,0,1,346.09,196Z" transform="translate(-333.23 -182.56)"/><path class="cls-3" d="M378.11,187.29a39.9,39.9,0,0,0-22.63,7,39.44,39.44,0,0,0-9.23,8.77c-.19.23-.37.46-.54.7s-.52.71-.77,1.07a34.9,34.9,0,0,0-2,3.21,39.91,39.91,0,0,0-5,19.42c0,.18,0,.37,0,.55,0,.34,0,.69,0,1a40.15,40.15,0,0,0,39.63,38.58h.48l1.37,0a40,40,0,0,0,18-5c1.11-.62,2.2-1.29,3.24-2a38.5,38.5,0,0,0,3.37-2.58,38.06,38.06,0,0,0,4.1-4,39,39,0,0,0,3.08-3.94,40.16,40.16,0,0,0-33.18-62.78Zm11.29,42.89a2.6,2.6,0,0,0-1.77-.69,2.44,2.44,0,0,0-2.51,2.36v2.66h-14v-2.66a2.26,2.26,0,0,0-.74-1.67,2.58,2.58,0,0,0-1.77-.69,2.43,2.43,0,0,0-2.5,2.36v2.66H360.5a6.77,6.77,0,0,1-2.6-.5V216.13a5.55,5.55,0,0,1,5.7-5.39h29a5.55,5.55,0,0,1,5.69,5.39V234a7,7,0,0,1-2.6.49h-5.6v-2.66A2.29,2.29,0,0,0,389.4,230.18Zm-29.94,24.44V236.5a6,6,0,0,0,2.39.5H366v1.65a2.51,2.51,0,0,0,5,0V237h14v1.65a2.51,2.51,0,0,0,5,0V237h4.16a6,6,0,0,0,2.38-.5v18.12a5.31,5.31,0,0,1-5.23,5.38H364.7A5.31,5.31,0,0,1,359.46,254.62Zm42.31-48.22a3.7,3.7,0,0,1-5.54,3.2l-1.59-.93H361.58l-1.59.92a3.69,3.69,0,0,1-5.54-3.19v-5.61a3.69,3.69,0,0,1,5.54-3.2l1.6.92h33.05l1.59-.92a3.7,3.7,0,0,1,5.54,3.2Z" transform="translate(-333.23 -182.56)"/><path class="cls-4" d="M378.11,189.18a38.21,38.21,0,0,0-38.26,38.26c0,.84,0,1.68.08,2.51a38.26,38.26,0,0,0,38.18,35.76,38.73,38.73,0,0,0,8.48-.94h0a38.27,38.27,0,0,0-8.51-75.58Zm18.47,65.44a5.31,5.31,0,0,1-5.23,5.38H364.7a5.31,5.31,0,0,1-5.24-5.38V236.5a6,6,0,0,0,2.39.5H366v1.65a2.51,2.51,0,0,0,5,0V237h14v1.65a2.51,2.51,0,0,0,5,0V237h4.16a6,6,0,0,0,2.38-.5Zm1.75-20.6a7,7,0,0,1-2.6.49h-5.6v-2.66a2.29,2.29,0,0,0-.73-1.67,2.6,2.6,0,0,0-1.77-.69,2.44,2.44,0,0,0-2.51,2.36v2.66h-14v-2.66a2.26,2.26,0,0,0-.74-1.67,2.58,2.58,0,0,0-1.77-.69,2.43,2.43,0,0,0-2.5,2.36v2.66H360.5a6.77,6.77,0,0,1-2.6-.5V216.13a5.55,5.55,0,0,1,5.7-5.39h29a5.55,5.55,0,0,1,5.69,5.39Zm3.44-27.62a3.7,3.7,0,0,1-5.54,3.2l-1.59-.93H361.58l-1.59.92a3.69,3.69,0,0,1-5.54-3.19v-5.61a3.69,3.69,0,0,1,5.54-3.2l1.6.92h33.05l1.59-.92a3.7,3.7,0,0,1,5.54,3.2Z" transform="translate(-333.23 -182.56)"/></svg>