<svg id="BUttons" xmlns="http://www.w3.org/2000/svg" viewBox="0 0 89.77 89.76"><defs><style>.cls-1{fill:#fff;}.cls-2{fill:#c7c8ca;}.cls-3{fill:#ef4136;}.cls-4{fill:#f7941d;}</style></defs><title>Speed1</title><path class="cls-1" d="M423,227.44a44.89,44.89,0,1,1-44.89-44.88A44.7,44.7,0,0,1,423,227.44Z" transform="translate(-333.23 -182.56)"/><path class="cls-2" d="M409.56,259.46A44.88,44.88,0,0,1,346.09,196Z" transform="translate(-333.23 -182.56)"/><path class="cls-3" d="M378.11,187.28a39.9,39.9,0,0,0-22.63,7,39.44,39.44,0,0,0-9.23,8.77c-.19.23-.37.46-.54.7s-.52.71-.77,1.07a34.9,34.9,0,0,0-2,3.21,39.91,39.91,0,0,0-5,19.42c0,.18,0,.37,0,.55,0,.34,0,.69,0,1a40.15,40.15,0,0,0,39.63,38.58h.48l1.37,0a40,40,0,0,0,18-5c1.11-.62,2.2-1.29,3.24-2a38.5,38.5,0,0,0,3.37-2.58,38.06,38.06,0,0,0,4.1-4,39,39,0,0,0,3.08-3.94,40.16,40.16,0,0,0-33.18-62.78Zm19.95,44.23-23.65,23.65a5.71,5.71,0,0,1-8.07-8.07L386,227.44l-19.65-19.65a5.71,5.71,0,1,1,8.07-8.07l23.65,23.65a5.79,5.79,0,0,1,0,8.14Z" transform="translate(-333.23 -182.56)"/><path class="cls-4" d="M378.11,189.17a38.21,38.21,0,0,0-38.26,38.26c0,.84,0,1.68.08,2.51a38.26,38.26,0,0,0,38.18,35.76,38.73,38.73,0,0,0,8.48-.94h0a38.27,38.27,0,0,0-8.51-75.58Zm19.95,42.34-23.65,23.65a5.71,5.71,0,0,1-8.07-8.07L386,227.44l-19.65-19.65a5.71,5.71,0,1,1,8.07-8.07l23.65,23.65a5.79,5.79,0,0,1,0,8.14Z" transform="translate(-333.23 -182.56)"/></svg>