<svg id="BUttons" xmlns="http://www.w3.org/2000/svg" viewBox="0 0 89.77 89.76"><defs><style>.cls-1{fill:#fff;}.cls-2{fill:#c7c8ca;}.cls-3{fill:#ef4136;}.cls-4{fill:#f7941d;}</style></defs><title>Speed3</title><path class="cls-1" d="M423,227.44a44.89,44.89,0,1,1-44.89-44.88A44.7,44.7,0,0,1,423,227.44Z" transform="translate(-333.23 -182.56)"/><path class="cls-2" d="M409.56,259.46A44.88,44.88,0,0,1,346.09,196Z" transform="translate(-333.23 -182.56)"/><path class="cls-3" d="M378.11,187.35a40,40,0,0,0-22.63,7,39.49,39.49,0,0,0-9.23,8.78c-.19.22-.37.46-.54.7s-.52.7-.77,1.07a33.44,33.44,0,0,0-2,3.2,39.92,39.92,0,0,0-5,19.43c0,.18,0,.37,0,.55s0,.69,0,1a40.14,40.14,0,0,0,39.63,38.58h.48l1.37,0a40,40,0,0,0,18-4.95c1.11-.62,2.2-1.3,3.24-2a40.56,40.56,0,0,0,3.37-2.58,39,39,0,0,0,4.1-4,40.14,40.14,0,0,0-30.1-66.72Zm8.09,61.72a4.69,4.69,0,0,1,0-6.63l16.17-16.18L386.2,210.1a4.7,4.7,0,1,1,6.64-6.65l19.46,19.47a4.76,4.76,0,0,1,0,6.7l-19.46,19.45A4.67,4.67,0,0,1,386.2,249.07Zm-36.67-5.86,16.17-16.16-16.17-16.17a4.7,4.7,0,0,1,6.64-6.64l19.47,19.45a4.72,4.72,0,0,1,1.37,3.36,4.66,4.66,0,0,1-1.37,3.34l-19.47,19.47a4.7,4.7,0,0,1-6.64-6.65Zm18.34,6.39a4.7,4.7,0,0,1,0-6.65L384,226.79l-16.17-16.17a4.7,4.7,0,0,1,6.64-6.64L394,223.44a4.77,4.77,0,0,1,0,6.69L374.51,249.6A4.68,4.68,0,0,1,367.87,249.6Z" transform="translate(-333.23 -182.56)"/><path class="cls-4" d="M378.11,189.24a38.21,38.21,0,0,0-38.26,38.26c0,.83,0,1.68.08,2.5a38.31,38.31,0,0,0,46.66,34.82h0a38.27,38.27,0,0,0-8.51-75.58Zm-28.58,60.62a4.71,4.71,0,0,1,0-6.65l16.17-16.16-16.17-16.17a4.7,4.7,0,0,1,6.64-6.64l19.47,19.45a4.72,4.72,0,0,1,1.37,3.36,4.66,4.66,0,0,1-1.37,3.34l-19.47,19.47A4.7,4.7,0,0,1,349.53,249.86Zm25-.26a4.7,4.7,0,0,1-6.64-6.65L384,226.79l-16.17-16.17a4.7,4.7,0,0,1,6.64-6.64L394,223.44a4.77,4.77,0,0,1,0,6.69Zm18.33-.53a4.69,4.69,0,0,1-6.64-6.63l16.17-16.18L386.2,210.1a4.7,4.7,0,1,1,6.64-6.65l19.46,19.47a4.76,4.76,0,0,1,0,6.7Z" transform="translate(-333.23 -182.56)"/></svg>