<svg id="BUttons" xmlns="http://www.w3.org/2000/svg" viewBox="0 0 89.77 89.76"><defs><style>.cls-1{fill:#fff;}.cls-2{fill:#c7c8ca;}.cls-3{fill:#ef4136;}.cls-4{fill:#f7941d;}</style></defs><title>Speed2</title><path class="cls-1" d="M423,227.44a44.89,44.89,0,1,1-44.89-44.88A44.7,44.7,0,0,1,423,227.44Z" transform="translate(-333.23 -182.56)"/><path class="cls-2" d="M409.56,259.46A44.88,44.88,0,0,1,346.09,196Z" transform="translate(-333.23 -182.56)"/><path class="cls-3" d="M378.11,187.35a40,40,0,0,0-22.63,7,39.49,39.49,0,0,0-9.23,8.78c-.19.22-.37.46-.54.7s-.52.7-.77,1.07a33.44,33.44,0,0,0-2,3.2,39.91,39.91,0,0,0-5,19.42c0,.19,0,.38,0,.56s0,.69,0,1a40.14,40.14,0,0,0,39.63,38.58h.48l1.37,0a40,40,0,0,0,18-4.95c1.11-.62,2.2-1.3,3.24-2s2.3-1.67,3.37-2.58a38.16,38.16,0,0,0,4.1-4,39,39,0,0,0,3.08-3.94,40.15,40.15,0,0,0-33.18-62.77Zm-.47,62.89a4.86,4.86,0,0,1,0-6.88l16.78-16.78-16.78-16.77a4.87,4.87,0,0,1,6.89-6.89l20.19,20.19a4.82,4.82,0,0,1,1.43,3.47,4.87,4.87,0,0,1-1.43,3.48l-20.19,20.18A4.86,4.86,0,0,1,377.64,250.24Zm-20.91-40.43a4.87,4.87,0,0,1,6.89-6.89l20.19,20.19a4.82,4.82,0,0,1,1.43,3.47,4.87,4.87,0,0,1-1.43,3.48l-20.19,20.18a4.87,4.87,0,0,1-6.89-6.88l16.78-16.78Z" transform="translate(-333.23 -182.56)"/><path class="cls-4" d="M378.11,189.24a38.21,38.21,0,0,0-38.26,38.25c0,.84,0,1.69.08,2.51a38.25,38.25,0,0,0,38.18,35.76,38.73,38.73,0,0,0,8.48-.94h0a38.26,38.26,0,0,0-8.51-75.57Zm-21.38,61a4.86,4.86,0,0,1,0-6.88l16.78-16.78-16.78-16.77a4.87,4.87,0,0,1,6.89-6.89l20.19,20.19a4.82,4.82,0,0,1,1.43,3.47,4.87,4.87,0,0,1-1.43,3.48l-20.19,20.18A4.86,4.86,0,0,1,356.73,250.24Zm48-20.18-20.19,20.18a4.87,4.87,0,0,1-6.89-6.88l16.78-16.78-16.78-16.77a4.87,4.87,0,0,1,6.89-6.89l20.19,20.19a4.82,4.82,0,0,1,1.43,3.47A4.87,4.87,0,0,1,404.72,230.06Z" transform="translate(-333.23 -182.56)"/></svg>