<svg id="BUttons" xmlns="http://www.w3.org/2000/svg" viewBox="0 0 89.77 89.76"><defs><style>.cls-1{fill:#fff;}.cls-2{fill:#c7c8ca;}.cls-3{fill:#ef4136;}.cls-4{fill:#f7941d;}</style></defs><title>Undo</title><path class="cls-1" d="M423,227.44a44.89,44.89,0,1,1-44.89-44.88A44.7,44.7,0,0,1,423,227.44Z" transform="translate(-333.23 -182.56)"/><path class="cls-2" d="M409.56,259.46A44.88,44.88,0,0,1,346.09,196Z" transform="translate(-333.23 -182.56)"/><path class="cls-3" d="M378.11,187.29a39.9,39.9,0,0,0-22.63,7,39.44,39.44,0,0,0-9.23,8.77c-.19.23-.37.46-.54.7s-.52.71-.77,1.07a34.9,34.9,0,0,0-2,3.21,39.91,39.91,0,0,0-5,19.42c0,.18,0,.37,0,.55,0,.34,0,.69,0,1a40.15,40.15,0,0,0,39.63,38.58h.48l1.37,0a40,40,0,0,0,18-5c1.11-.62,2.2-1.29,3.24-2a38.5,38.5,0,0,0,3.37-2.58,38.06,38.06,0,0,0,4.1-4,39,39,0,0,0,3.08-3.94,40.16,40.16,0,0,0-33.18-62.78Zm13,58.39c-12.66.08-25.32,0-38,0-6.44,0-6.43-10,0-10h31.92c4.85,0,10.13,1.13,12.27-4.42,1.56-4,.48-11.27-4.67-12.12-3.05-.51-6.76.07-9.86.07h-4.65v4.22a4,4,0,0,1-6,3.44l-16.1-9.29a4,4,0,0,1,0-6.88l16.1-9.29a4,4,0,0,1,6,3.44v4.36h7.52c3.5,0,7.29-.5,10.7.51,5.94,1.77,10.07,7.62,11.22,13.51C409.82,234.4,403,245.61,391.15,245.68Z" transform="translate(-333.23 -182.56)"/><path class="cls-4" d="M378.11,189.18a38.21,38.21,0,0,0-38.26,38.26c0,.84,0,1.68.08,2.51a38.26,38.26,0,0,0,38.18,35.76,38.73,38.73,0,0,0,8.48-.94h0a38.27,38.27,0,0,0-8.51-75.58Zm13,56.5c-12.66.08-25.32,0-38,0-6.44,0-6.43-10,0-10h31.92c4.85,0,10.13,1.13,12.27-4.42,1.56-4,.48-11.27-4.67-12.12-3.05-.51-6.76.07-9.86.07h-4.65v4.22a4,4,0,0,1-6,3.44l-16.1-9.29a4,4,0,0,1,0-6.88l16.1-9.29a4,4,0,0,1,6,3.44v4.36h7.52c3.5,0,7.29-.5,10.7.51,5.94,1.77,10.07,7.62,11.22,13.51C409.82,234.4,403,245.61,391.15,245.68Z" transform="translate(-333.23 -182.56)"/></svg>