<svg id="BUttons" xmlns="http://www.w3.org/2000/svg" viewBox="0 0 89.77 89.76"><defs><style>.cls-1{fill:#fff;}.cls-2{fill:#c7c8ca;}.cls-3{fill:#ef4136;}.cls-4{fill:#f7941d;}</style></defs><title>Unlock</title><path class="cls-1" d="M423,227.44a44.89,44.89,0,1,1-44.89-44.88A44.7,44.7,0,0,1,423,227.44Z" transform="translate(-333.23 -182.56)"/><path class="cls-2" d="M409.56,259.46A44.88,44.88,0,0,1,346.09,196Z" transform="translate(-333.23 -182.56)"/><path class="cls-3" d="M382.45,240.18a.76.76,0,0,1,0,.15v5.24a4.34,4.34,0,1,1-8.68,0v-5.24a.76.76,0,0,1,0-.15,7.4,7.4,0,1,1,8.66,0Z" transform="translate(-333.23 -182.56)"/><path class="cls-3" d="M378.11,187.61a39.9,39.9,0,0,0-22.63,7,39.44,39.44,0,0,0-9.23,8.77c-.19.23-.37.46-.54.7s-.52.71-.77,1.07a34.9,34.9,0,0,0-2,3.21,39.91,39.91,0,0,0-5,19.42c0,.18,0,.37,0,.55,0,.34,0,.69,0,1a40.15,40.15,0,0,0,39.63,38.58h.48l1.37,0a40,40,0,0,0,18-5c1.11-.62,2.2-1.29,3.24-2a38.5,38.5,0,0,0,3.37-2.58,38.06,38.06,0,0,0,4.1-4,39,39,0,0,0,3.08-3.94,40.16,40.16,0,0,0-33.18-62.78Zm-21.35,61.48V227.6a6,6,0,0,1,2.74-5c-.33-6.74-.47-13.91,2.51-19.43a18.22,18.22,0,0,1,34.29,7.57c.05.49.07,1,.09,1.47a3.71,3.71,0,0,1-3.75,3.05,3.8,3.8,0,0,1-3.64-2.53s0,0,0,0q-.06-.53-.15-1c-1-6.07-3.82-10.9-11-10.72-10.56.28-11.29,11.28-10.95,20.72H393.5a6,6,0,0,1,6,6v21.49a6,6,0,0,1-6,6H362.74A6,6,0,0,1,356.76,249.09ZM407,205.37a1.79,1.79,0,0,1,1.19,3.12l-6.69,6a1.81,1.81,0,0,1-1.21.46,1.78,1.78,0,0,1-1.19-3.11l6.7-6A1.77,1.77,0,0,1,407,205.37Zm-5.42,15a1.79,1.79,0,0,1-.19-3.57l10.43-1.08H412a1.78,1.78,0,0,1,1.78,1.6,1.8,1.8,0,0,1-1.59,2l-10.43,1.08Z" transform="translate(-333.23 -182.56)"/><path class="cls-4" d="M382.45,240.18a.76.76,0,0,1,0,.15v5.24a4.34,4.34,0,1,1-8.68,0v-5.24a.76.76,0,0,1,0-.15,7.4,7.4,0,1,1,8.66,0Z" transform="translate(-333.23 -182.56)"/><path class="cls-4" d="M378.11,189.5a38.21,38.21,0,0,0-38.26,38.26c0,.84,0,1.68.08,2.51A38.26,38.26,0,0,0,378.11,266a38.73,38.73,0,0,0,8.48-.94h0a38.27,38.27,0,0,0-8.51-75.58Zm21,22.36,6.7-6a1.79,1.79,0,1,1,2.39,2.66l-6.69,6a1.81,1.81,0,0,1-1.21.46,1.78,1.78,0,0,1-1.19-3.11Zm.38,37.23a6,6,0,0,1-6,6H362.74a6,6,0,0,1-6-6V227.6a6,6,0,0,1,2.74-5c-.33-6.74-.47-13.91,2.51-19.43a18.22,18.22,0,0,1,34.29,7.57c.05.49.07,1,.09,1.47a3.71,3.71,0,0,1-3.75,3.05,3.8,3.8,0,0,1-3.64-2.53s0,0,0,0q-.06-.53-.15-1c-1-6.07-3.82-10.9-11-10.72-10.56.28-11.29,11.28-10.95,20.72H393.5a6,6,0,0,1,6,6Zm12.71-29.76-10.43,1.08h-.18a1.79,1.79,0,0,1-.19-3.57l10.43-1.08H412a1.78,1.78,0,0,1,1.78,1.6A1.8,1.8,0,0,1,412.19,219.33Z" transform="translate(-333.23 -182.56)"/></svg>