<svg id="BUttons" xmlns="http://www.w3.org/2000/svg" viewBox="0 0 89.77 89.76"><defs><style>.cls-1{fill:#fff;}.cls-2{fill:#c7c8ca;}.cls-3{fill:#ef4136;}.cls-4{fill:#f7941d;}</style></defs><title>Use</title><path class="cls-1" d="M423,227.44a44.89,44.89,0,1,1-44.89-44.88A44.7,44.7,0,0,1,423,227.44Z" transform="translate(-333.23 -182.56)"/><path class="cls-2" d="M409.56,259.46A44.88,44.88,0,0,1,346.09,196Z" transform="translate(-333.23 -182.56)"/><path class="cls-3" d="M378.11,187.29a39.9,39.9,0,0,0-22.63,7,39.44,39.44,0,0,0-9.23,8.77c-.19.23-.37.46-.54.7s-.52.71-.77,1.07a34.9,34.9,0,0,0-2,3.21,39.91,39.91,0,0,0-5,19.42c0,.18,0,.37,0,.55,0,.34,0,.69,0,1a40.15,40.15,0,0,0,39.63,38.58h.48l1.37,0a40,40,0,0,0,18-5c1.11-.62,2.2-1.29,3.24-2a38.5,38.5,0,0,0,3.37-2.58,38.06,38.06,0,0,0,4.1-4,39,39,0,0,0,3.08-3.94,40.16,40.16,0,0,0-33.18-62.78Zm22.33,54.9c0,11.51-10,20.83-22.32,20.83s-22.33-9.35-22.33-20.89V207.78a3.68,3.68,0,1,1,7.35,0V227a.86.86,0,0,0,1.71,0V200.11a3.67,3.67,0,0,1,3.67-3.68,3.65,3.65,0,0,1,3.68,3.68v24.68a.86.86,0,1,0,1.71,0V195.54a3.68,3.68,0,1,1,7.35,0v29.25a.86.86,0,1,0,1.71,0V200.11a3.68,3.68,0,0,1,6.28-2.61,3.71,3.71,0,0,1,1.08,2.61v42.12a.85.85,0,1,0,1.7,0V227.14a4.21,4.21,0,0,1,8.41,0Z" transform="translate(-333.23 -182.56)"/><path class="cls-4" d="M378.11,189.18a38.21,38.21,0,0,0-38.26,38.26c0,.84,0,1.68.08,2.51a38.26,38.26,0,0,0,38.18,35.76,38.73,38.73,0,0,0,8.48-.94h0a38.27,38.27,0,0,0-8.51-75.58Zm22.33,53c0,11.51-10,20.83-22.32,20.83s-22.33-9.35-22.33-20.89V207.78a3.68,3.68,0,1,1,7.35,0V227a.86.86,0,0,0,1.71,0V200.11a3.67,3.67,0,0,1,3.67-3.68,3.65,3.65,0,0,1,3.68,3.68v24.68a.86.86,0,1,0,1.71,0V195.54a3.68,3.68,0,1,1,7.35,0v29.25a.86.86,0,1,0,1.71,0V200.11a3.68,3.68,0,0,1,6.28-2.61,3.71,3.71,0,0,1,1.08,2.61v42.12a.85.85,0,1,0,1.7,0V227.14a4.21,4.21,0,0,1,8.41,0Z" transform="translate(-333.23 -182.56)"/></svg>