<svg xmlns="http://www.w3.org/2000/svg" viewBox="0 0 1052.42 1465.76"><defs><style>.cls-1{fill:#4b6b2e;}.cls-2{fill:#628543;}.cls-3{fill:#0e00e6;opacity:0.19;}.cls-4{fill:#6a914b;}.cls-5{fill:#4114ff;opacity:0.2;}.cls-6{fill:#77a353;}.cls-7{fill:#547833;}.cls-8{fill:#6b9149;}.cls-9{fill:#729c50;}.cls-10{fill:#7fae59;}</style></defs><title>PineTree</title><g id="Pinetree"><path class="cls-1" d="M-1343.34,1000.38c0,150-121.62,271.63-271.63,271.63s-271.63-121.61-271.63-271.63h0l15-44,39.08-115,35.61-104.78,10.11-29.75,6.55-19.26,62.74-184.63,3.43-10.11,99.13-291.7,99.13,291.7,3.43,10.11L-1453.94,675l2.45,7.21,18.49,54.38,38,112,37.82,111.3Z" transform="translate(2395.76 -145.72)"/><path class="cls-2" d="M-1357.14,959.8a71.61,71.61,0,0,1-39.3,40.19,71.63,71.63,0,0,1-30.9,5.45,71.33,71.33,0,0,1,4.54,25,71.87,71.87,0,0,1-44.24,66.35,71.87,71.87,0,0,1-75.14-12.43A71.75,71.75,0,0,1-1565,1131a71.62,71.62,0,0,1-48.71,19,71.86,71.86,0,0,1-71.57-65.65,72.12,72.12,0,0,1-47.56,18,71.68,71.68,0,0,1-27.57-5.53,71.83,71.83,0,0,1-39.71-91.39c-1.1,0-2.2.08-3.31.08a71.78,71.78,0,0,1-27.59-5.53,71.71,71.71,0,0,1-40.56-43.66l39.08-115,35.61-104.78,10.11-29.75,17-40.95,132.67,55.24L-1661,778.56l47.28,19.69,47.28-19.69-23.93-57.48,132.67-55.24,3.79,9.11,2.45,7.21,18.49,54.38,38,112Z" transform="translate(2395.76 -145.72)"/><path class="cls-3" d="M-1395,848.5c-9.4,112.45-103.66,200.79-218.55,200.79-117.32,0-213.13-92.12-219-208l35.61-104.78,16.66-49a218.78,218.78,0,0,1,166.76-76.88,218.72,218.72,0,0,1,162,71.51l18.49,54.38Z" transform="translate(2395.76 -145.72)"/><path class="cls-2" d="M-1412.92,803.54c0,111.58-90.47,202-202,202s-202-90.46-202-202a201.83,201.83,0,0,1,9.76-62.22q.83-2.57,1.72-5.1h-.81l42.27-124.41,36.69-108,2.58-7.58,2-5.8,3.6-10.63h208.53l3.61,10.63,2,5.8.42,1.24,41.77,122.91,39.36,115.8h-.82c.59,1.69,1.17,3.39,1.72,5.1A201.83,201.83,0,0,1-1412.92,803.54Z" transform="translate(2395.76 -145.72)"/><path class="cls-4" d="M-1422.68,741.32a56.89,56.89,0,0,1-20,14,56.65,56.65,0,0,1-24.49,4.32,56.83,56.83,0,0,1,3.59,19.85,56.94,56.94,0,0,1-35.06,52.58,57,57,0,0,1-59.56-9.84,56.81,56.81,0,0,1-18.12,36.94A56.7,56.7,0,0,1-1615,874.3a56.94,56.94,0,0,1-56.72-52,57.24,57.24,0,0,1-37.7,14.23,56.69,56.69,0,0,1-21.86-4.39,57,57,0,0,1-31.48-72.43c-.87.05-1.74.06-2.62.06a56.75,56.75,0,0,1-21.86-4.38,56.71,56.71,0,0,1-20-14q.83-2.57,1.72-5.1h-.81l42.27-124.41,36.69-108,2.58-7.58,91.33,38-19,45.56,37.47,15.6,37.47-15.6-19-45.56,91.33-38,.42,1.24,41.77,122.91,39.36,115.8h-.82C-1423.81,737.91-1423.23,739.61-1422.68,741.32Z" transform="translate(2395.76 -145.72)"/><path class="cls-5" d="M-1462.94,620.42c-11.09,69.24-74,122.29-150,122.29-79.1,0-144.07-57.49-151.12-130.9l36.69-108a149.65,149.65,0,0,1,28.28-24h172.3a150.24,150.24,0,0,1,22.1,17.67Z" transform="translate(2395.76 -145.72)"/><path class="cls-4" d="M-1477.15,575.36A137.82,137.82,0,0,1-1615,713.18a137.82,137.82,0,0,1-137.82-137.82,137.32,137.32,0,0,1,11.25-54.66h-.86l25.2-74.14L-1615,145.72l102.23,300.84,25.2,74.14h-.87A137.5,137.5,0,0,1-1477.15,575.36Z" transform="translate(2395.76 -145.72)"/><path class="cls-6" d="M-1512.74,446.56a72.2,72.2,0,0,1-30.66-15.94,71.71,71.71,0,0,1-22.87,46.61,71.55,71.55,0,0,1-48.7,19,71.84,71.84,0,0,1-71.57-65.65,72.32,72.32,0,0,1-30.66,15.94L-1615,145.72Z" transform="translate(2395.76 -145.72)"/><path class="cls-1" d="M-1852.51,1000.38c0,150-121.61,271.63-271.62,271.63s-271.63-121.61-271.63-271.63h0l15-44,39.08-115,35.61-104.78,10.11-29.75,6.54-19.26,62.74-184.63,3.44-10.11,99.13-291.7,99.12,291.7,3.44,10.11L-1963.1,675l2.45,7.21,18.48,54.38,38.05,112,37.82,111.3Z" transform="translate(2395.76 -145.72)"/><path class="cls-2" d="M-1866.3,959.8a71.64,71.64,0,0,1-39.3,40.19,71.66,71.66,0,0,1-30.9,5.45,71.32,71.32,0,0,1,4.53,25,71.87,71.87,0,0,1-44.24,66.35,71.86,71.86,0,0,1-75.13-12.43,71.71,71.71,0,0,1-22.87,46.61,71.58,71.58,0,0,1-48.7,19,71.85,71.85,0,0,1-71.57-65.65,72.14,72.14,0,0,1-47.56,18,71.77,71.77,0,0,1-27.58-5.53,71.84,71.84,0,0,1-39.7-91.39c-1.11,0-2.21.08-3.31.08a71.74,71.74,0,0,1-27.59-5.53,71.71,71.71,0,0,1-40.56-43.66l39.08-115,35.61-104.78,10.11-29.75,17.05-40.95,132.67,55.24-23.93,57.48,47.28,19.69,47.28-19.69-23.93-57.48,132.66-55.24,3.8,9.11,2.45,7.21,18.48,54.38,38.05,112Z" transform="translate(2395.76 -145.72)"/><path class="cls-3" d="M-1904.12,848.5c-9.41,112.45-103.66,200.79-218.56,200.79-117.31,0-213.12-92.12-219-208l35.61-104.78,16.65-49a218.8,218.8,0,0,1,166.76-76.88,218.72,218.72,0,0,1,162,71.51l18.48,54.38Z" transform="translate(2395.76 -145.72)"/><path class="cls-2" d="M-1922.09,803.54c0,111.58-90.46,202-202,202s-202-90.46-202-202a201.82,201.82,0,0,1,9.75-62.22c.55-1.71,1.13-3.41,1.72-5.1h-.81l42.28-124.41,36.69-108,2.58-7.58,2-5.8,3.61-10.63h208.53l3.61,10.63,2,5.8.42,1.24,41.77,122.91,39.36,115.8h-.82c.59,1.69,1.17,3.39,1.72,5.1A201.82,201.82,0,0,1-1922.09,803.54Z" transform="translate(2395.76 -145.72)"/><path class="cls-4" d="M-1931.84,741.32a56.83,56.83,0,0,1-20.06,14,56.61,56.61,0,0,1-24.48,4.32,56.83,56.83,0,0,1,3.59,19.85,56.94,56.94,0,0,1-35.06,52.58,57,57,0,0,1-59.56-9.84,56.82,56.82,0,0,1-18.13,36.94,56.68,56.68,0,0,1-38.59,15.09,57,57,0,0,1-56.73-52,57.22,57.22,0,0,1-37.7,14.23,56.76,56.76,0,0,1-21.86-4.39,56.94,56.94,0,0,1-31.47-72.43c-.87.05-1.75.06-2.62.06a56.75,56.75,0,0,1-21.86-4.38,56.83,56.83,0,0,1-20.06-14c.55-1.71,1.13-3.41,1.72-5.1h-.81l42.28-124.41,36.69-108,2.58-7.58,91.33,38-19,45.56,37.48,15.6,37.47-15.6-19-45.56,91.34-38,.42,1.24,41.77,122.91,39.36,115.8h-.82C-1933,737.91-1932.39,739.61-1931.84,741.32Z" transform="translate(2395.76 -145.72)"/><path class="cls-5" d="M-1972.1,620.42c-11.09,69.24-74,122.29-150,122.29-79.1,0-144.06-57.49-151.11-130.9l36.69-108a149.65,149.65,0,0,1,28.28-24H-2036a150.24,150.24,0,0,1,22.1,17.67Z" transform="translate(2395.76 -145.72)"/><path class="cls-4" d="M-1986.31,575.36a137.82,137.82,0,0,1-137.82,137.82A137.82,137.82,0,0,1-2262,575.36a137.33,137.33,0,0,1,11.26-54.66h-.86l25.2-74.14,102.23-300.84,102.22,300.84,25.2,74.14h-.86A137.5,137.5,0,0,1-1986.31,575.36Z" transform="translate(2395.76 -145.72)"/><path class="cls-6" d="M-2021.91,446.56a72.22,72.22,0,0,1-30.65-15.94,71.71,71.71,0,0,1-22.87,46.61,71.57,71.57,0,0,1-48.7,19,71.86,71.86,0,0,1-71.58-65.65,72.22,72.22,0,0,1-30.65,15.94l102.23-300.84Z" transform="translate(2395.76 -145.72)"/><path class="cls-7" d="M-1555.88,1300.5c0,171.75-139.23,311-311,311s-311-139.23-311-311h0l17.14-50.43,44.74-131.67,40.77-120,11.58-34.06,7.49-22,71.83-211.39,3.93-11.57,113.49-334,113.49,334,3.93,11.57,66.94,197,2.81,8.26,21.16,62.26,43.56,128.17,43.3,127.43Z" transform="translate(2395.76 -145.72)"/><path class="cls-8" d="M-1571.67,1254a82,82,0,0,1-45,46,82,82,0,0,1-35.37,6.24,81.83,81.83,0,0,1,5.19,28.67,82.27,82.27,0,0,1-50.65,76,82.26,82.26,0,0,1-86-14.23,82.14,82.14,0,0,1-26.18,53.37,82,82,0,0,1-55.76,21.79,82.26,82.26,0,0,1-81.94-75.16,82.57,82.57,0,0,1-54.45,20.57,82,82,0,0,1-31.57-6.34,82.25,82.25,0,0,1-45.46-104.63c-1.26.06-2.52.09-3.79.09a82,82,0,0,1-31.58-6.33,82.07,82.07,0,0,1-46.44-50l44.74-131.67,40.77-120,11.58-34.06,19.52-46.89,151.89,63.25-27.4,65.8,54.13,22.54,54.13-22.54-27.4-65.8,151.89-63.25,4.34,10.43,2.81,8.26,21.16,62.26,43.56,128.17Z" transform="translate(2395.76 -145.72)"/><path class="cls-3" d="M-1615,1126.61c-10.77,128.75-118.68,229.89-250.22,229.89-134.31,0-244-105.47-250.76-238.1l40.77-120,19.07-56.11a250.48,250.48,0,0,1,190.92-88,250.4,250.4,0,0,1,185.5,81.87l21.16,62.26Z" transform="translate(2395.76 -145.72)"/><path class="cls-8" d="M-1635.54,1075.14c0,127.75-103.57,231.31-231.32,231.31s-231.32-103.56-231.32-231.31a231,231,0,0,1,11.17-71.23q.95-2.94,2-5.84h-.93l48.4-142.43,42-123.61,3-8.67,2.25-6.64,4.13-12.17h238.74l4.13,12.17,2.26,6.63.48,1.42,47.82,140.72,45.06,132.58h-.94q1,2.89,2,5.84A231,231,0,0,1-1635.54,1075.14Z" transform="translate(2395.76 -145.72)"/><path class="cls-9" d="M-1646.71,1003.91a65,65,0,0,1-23,16.07,65,65,0,0,1-28,5,65,65,0,0,1,4.11,22.72,65.19,65.19,0,0,1-40.14,60.2,65.22,65.22,0,0,1-68.19-11.27,65,65,0,0,1-20.75,42.3,64.94,64.94,0,0,1-44.19,17.27,65.19,65.19,0,0,1-64.94-59.57,65.49,65.49,0,0,1-43.16,16.3,65,65,0,0,1-25-5,65.19,65.19,0,0,1-36-82.92c-1,0-2,.07-3,.07a65,65,0,0,1-25-5,65,65,0,0,1-23-16.07q.95-2.94,2-5.84h-.93l48.4-142.43,42-123.61,3-8.67L-1888,766.9l-21.71,52.15,42.9,17.87,42.9-17.87-21.71-52.15,104.57-43.55.48,1.42,47.82,140.72,45.06,132.58h-.94Q-1647.66,1001-1646.71,1003.91Z" transform="translate(2395.76 -145.72)"/><path class="cls-5" d="M-1692.8,865.49c-12.7,79.27-84.76,140-171.76,140-90.56,0-164.94-65.82-173-149.86l42-123.61a171.3,171.3,0,0,1,32.37-27.48h197.27a172.21,172.21,0,0,1,25.3,20.22Z" transform="translate(2395.76 -145.72)"/><path class="cls-9" d="M-1709.07,813.9a157.79,157.79,0,0,1-157.79,157.79A157.79,157.79,0,0,1-2024.65,813.9a157.17,157.17,0,0,1,12.89-62.57h-1l28.85-84.89,117-344.42,117,344.42,28.85,84.89h-1A157.34,157.34,0,0,1-1709.07,813.9Z" transform="translate(2395.76 -145.72)"/><path class="cls-10" d="M-1749.82,666.44a82.56,82.56,0,0,1-35.1-18.25,82.12,82.12,0,0,1-26.18,53.37,81.93,81.93,0,0,1-55.76,21.79,82.26,82.26,0,0,1-81.94-75.16,82.56,82.56,0,0,1-35.1,18.25l117-344.42Z" transform="translate(2395.76 -145.72)"/></g></svg>