<?xml version="1.0" encoding="UTF-8" standalone="no"?>
<!-- Created with Inkscape (http://www.inkscape.org/) -->

<svg
   xmlns:dc="http://purl.org/dc/elements/1.1/"
   xmlns:cc="http://creativecommons.org/ns#"
   xmlns:rdf="http://www.w3.org/1999/02/22-rdf-syntax-ns#"
   xmlns:svg="http://www.w3.org/2000/svg"
   xmlns="http://www.w3.org/2000/svg"
   xmlns:sodipodi="http://sodipodi.sourceforge.net/DTD/sodipodi-0.dtd"
   xmlns:inkscape="http://www.inkscape.org/namespaces/inkscape"
   width="210mm"
   height="297mm"
   viewBox="0 0 210 297"
   version="1.1"
   id="svg90309"
   inkscape:version="0.92.4 (5da689c313, 2019-01-14)"
   sodipodi:docname="PineTree_single.svg">
  <defs
     id="defs90303" />
  <sodipodi:namedview
     id="base"
     pagecolor="#ffffff"
     bordercolor="#666666"
     borderopacity="1.0"
     inkscape:pageopacity="0.0"
     inkscape:pageshadow="2"
     inkscape:zoom="0.41183446"
     inkscape:cx="92.411241"
     inkscape:cy="442.07409"
     inkscape:document-units="mm"
     inkscape:current-layer="layer1"
     showgrid="false"
     inkscape:window-width="1920"
     inkscape:window-height="1012"
     inkscape:window-x="-8"
     inkscape:window-y="-8"
     inkscape:window-maximized="1" />
  <metadata
     id="metadata90306">
    <rdf:RDF>
      <cc:Work
         rdf:about="">
        <dc:format>image/svg+xml</dc:format>
        <dc:type
           rdf:resource="http://purl.org/dc/dcmitype/StillImage" />
        <dc:title></dc:title>
      </cc:Work>
    </rdf:RDF>
  </metadata>
  <g
     inkscape:label="Layer 1"
     inkscape:groupmode="layer"
     id="layer1">
    <g
       style="display:inline"
       id="Pinetree-1"
       transform="matrix(0.26458333,0,0,0.26458333,215.57041,-214.0583)">
      <g
         id="g36859"
         transform="translate(-1006.25,481.25001)">
        <path
           style="fill:#547833"
           inkscape:connector-curvature="0"
           class="cls-7"
           d="m -1555.88,1300.5 c 0,171.75 -139.23,311 -311,311 -171.77,0 -311,-139.23 -311,-311 v 0 l 17.14,-50.43 44.74,-131.67 40.77,-120 11.58,-34.06 7.49,-22 71.83,-211.39 3.93,-11.57 113.49,-334 113.49,334 3.93,11.57 66.94,197 2.81,8.26 21.16,62.26 43.56,128.17 43.3,127.43 z"
           transform="translate(2395.76,-145.72)"
           id="path11037-1" />
        <path
           style="fill:#6b9149"
           inkscape:connector-curvature="0"
           class="cls-8"
           d="m -1571.67,1254 a 82,82 0 0 1 -45,46 82,82 0 0 1 -35.37,6.24 81.83,81.83 0 0 1 5.19,28.67 82.27,82.27 0 0 1 -50.65,76 82.26,82.26 0 0 1 -86,-14.23 82.14,82.14 0 0 1 -26.18,53.37 82,82 0 0 1 -55.76,21.79 82.26,82.26 0 0 1 -81.94,-75.16 82.57,82.57 0 0 1 -54.45,20.57 82,82 0 0 1 -31.57,-6.34 82.25,82.25 0 0 1 -45.46,-104.63 c -1.26,0.06 -2.52,0.09 -3.79,0.09 a 82,82 0 0 1 -31.58,-6.33 82.07,82.07 0 0 1 -46.44,-50 l 44.74,-131.67 40.77,-120 11.58,-34.06 19.52,-46.89 151.89,63.25 -27.4,65.8 54.13,22.54 54.13,-22.54 -27.4,-65.8 151.89,-63.25 4.34,10.43 2.81,8.26 21.16,62.26 43.56,128.17 z"
           transform="translate(2395.76,-145.72)"
           id="path11039-5" />
        <path
           style="opacity:0.18999999;fill:#0e00e6"
           inkscape:connector-curvature="0"
           class="cls-3"
           d="m -1615,1126.61 c -10.77,128.75 -118.68,229.89 -250.22,229.89 -134.31,0 -244,-105.47 -250.76,-238.1 l 40.77,-120 19.07,-56.11 a 250.48,250.48 0 0 1 190.92,-88 250.4,250.4 0 0 1 185.5,81.87 l 21.16,62.26 z"
           transform="translate(2395.76,-145.72)"
           id="path11041-7" />
        <path
           style="fill:#6b9149"
           inkscape:connector-curvature="0"
           class="cls-8"
           d="m -1635.54,1075.14 c 0,127.75 -103.57,231.31 -231.32,231.31 -127.75,0 -231.32,-103.56 -231.32,-231.31 a 231,231 0 0 1 11.17,-71.23 q 0.95,-2.94 2,-5.84 h -0.93 l 48.4,-142.43 42,-123.61 3,-8.67 2.25,-6.64 4.13,-12.17 h 238.74 l 4.13,12.17 2.26,6.63 0.48,1.42 47.82,140.72 45.06,132.58 h -0.94 q 1,2.89 2,5.84 a 231,231 0 0 1 11.07,71.23 z"
           transform="translate(2395.76,-145.72)"
           id="path11043-2" />
        <path
           style="fill:#729c50"
           inkscape:connector-curvature="0"
           class="cls-9"
           d="m -1646.71,1003.91 a 65,65 0 0 1 -23,16.07 65,65 0 0 1 -28,5 65,65 0 0 1 4.11,22.72 65.19,65.19 0 0 1 -40.14,60.2 65.22,65.22 0 0 1 -68.19,-11.27 65,65 0 0 1 -20.75,42.3 64.94,64.94 0 0 1 -44.19,17.27 65.19,65.19 0 0 1 -64.94,-59.57 65.49,65.49 0 0 1 -43.16,16.3 65,65 0 0 1 -25,-5 65.19,65.19 0 0 1 -36,-82.92 c -1,0 -2,0.07 -3,0.07 a 65,65 0 0 1 -25,-5 65,65 0 0 1 -23,-16.07 q 0.95,-2.94 2,-5.84 h -0.93 l 48.4,-142.43 42,-123.61 3,-8.67 104.5,43.44 -21.71,52.15 42.9,17.87 42.9,-17.87 -21.71,-52.15 104.57,-43.55 0.48,1.42 47.82,140.72 45.06,132.58 h -0.94 q 0.97,2.93 1.92,5.84 z"
           transform="translate(2395.76,-145.72)"
           id="path11045-6" />
        <path
           style="opacity:0.2;fill:#4114ff"
           inkscape:connector-curvature="0"
           class="cls-5"
           d="m -1692.8,865.49 c -12.7,79.27 -84.76,140 -171.76,140 -90.56,0 -164.94,-65.82 -173,-149.86 l 42,-123.61 a 171.3,171.3 0 0 1 32.37,-27.48 h 197.27 a 172.21,172.21 0 0 1 25.3,20.22 z"
           transform="translate(2395.76,-145.72)"
           id="path11047-3" />
        <path
           style="fill:#729c50"
           inkscape:connector-curvature="0"
           class="cls-9"
           d="m -1709.07,813.9 a 157.79,157.79 0 0 1 -157.79,157.79 157.79,157.79 0 0 1 -157.79,-157.79 157.17,157.17 0 0 1 12.89,-62.57 h -1 l 28.85,-84.89 117,-344.42 117,344.42 28.85,84.89 h -1 a 157.34,157.34 0 0 1 12.99,62.57 z"
           transform="translate(2395.76,-145.72)"
           id="path11049-1" />
        <path
           style="fill:#7fae59"
           inkscape:connector-curvature="0"
           class="cls-10"
           d="m -1749.82,666.44 a 82.56,82.56 0 0 1 -35.1,-18.25 82.12,82.12 0 0 1 -26.18,53.37 81.93,81.93 0 0 1 -55.76,21.79 82.26,82.26 0 0 1 -81.94,-75.16 82.56,82.56 0 0 1 -35.1,18.25 l 117,-344.42 z"
           transform="translate(2395.76,-145.72)"
           id="path11051-5" />
      </g>
    </g>
  </g>
</svg>
