<svg xmlns="http://www.w3.org/2000/svg" viewBox="0 0 536.7 435.06"><defs><style>.cls-1{fill:#666;}.cls-2{fill:#999;}</style></defs><title>Rocks2</title><g id="Rocks"><rect class="cls-1" x="57.52" y="98.16" width="85.79" height="154.98" rx="28.6"/><rect class="cls-2" x="57.52" y="94.98" width="85.79" height="57.7" rx="28.6"/><rect class="cls-1" x="373.29" y="149.87" width="163.4" height="240.26" rx="57.7"/><rect class="cls-1" x="126.12" y="76.6" width="321.7" height="289.02" rx="51.06"/><rect class="cls-2" x="373.29" y="149.11" width="163.4" height="125.62" rx="57.7"/><rect class="cls-1" y="231.32" width="250.24" height="170.04" rx="39.07"/><rect class="cls-2" y="231.55" width="250.24" height="118.09" rx="39.07"/><rect class="cls-1" x="37.8" y="201.19" width="211.01" height="127.66" rx="39.07"/><rect class="cls-2" x="37.8" y="201.19" width="211.01" height="99.57" rx="39.07"/><rect class="cls-1" x="125.12" y="92.91" width="321.7" height="165.47" rx="51.06"/><rect class="cls-2" x="125.12" y="20.43" width="321.7" height="180.77" rx="51.06"/><rect class="cls-1" x="271.52" y="323.23" width="124.6" height="111.83" rx="27.06"/><rect class="cls-2" x="271.52" y="323.23" width="124.6" height="60.26" rx="27.06"/><rect class="cls-1" x="181.46" y="20.43" width="265.36" height="149.11" rx="51.06"/><rect class="cls-2" x="181.46" width="265.36" height="149.11" rx="51.06"/></g></svg>