<svg xmlns="http://www.w3.org/2000/svg" viewBox="0 0 504.04 421.39"><defs><style>.cls-1{fill:#666;}.cls-2{fill:#999;}</style></defs><title>Rocks1</title><g id="Rocks2"><rect class="cls-1" y="142.28" width="85.79" height="154.98" rx="28.6"/><rect class="cls-2" y="139.1" width="85.79" height="57.7" rx="28.6"/><rect class="cls-1" x="340.64" y="76.58" width="163.4" height="192.06" rx="57.7"/><rect class="cls-1" x="85.79" y="77.24" width="298.11" height="289.02" rx="51.06"/><rect class="cls-2" x="340.64" y="56.38" width="163.4" height="125.62" rx="57.7"/><rect class="cls-1" x="247.9" y="281.73" width="250.24" height="139.66" rx="39.07"/><rect class="cls-2" x="247.9" y="281.97" width="250.24" height="118.09" rx="39.07"/><rect class="cls-1" x="247.9" y="251.6" width="211.01" height="127.66" rx="39.07"/><rect class="cls-2" x="247.9" y="207.07" width="211.01" height="99.57" rx="39.07"/><rect class="cls-1" x="84.86" y="93.56" width="298.11" height="165.47" rx="51.06"/><rect class="cls-2" x="84.86" y="21.07" width="298.11" height="180.77" rx="51.06"/><rect class="cls-1" x="53.43" y="268.5" width="144.69" height="145.02" rx="27.06"/><rect class="cls-2" x="53.43" y="268.5" width="144.69" height="78.14" rx="27.06"/><rect class="cls-1" x="109.2" y="20.49" width="218.84" height="149.55" rx="51.06"/><rect class="cls-2" x="109.2" width="218.84" height="149.55" rx="51.06"/></g></svg>