<svg xmlns="http://www.w3.org/2000/svg" viewBox="0 0 2404.53 751.14"><defs><style>.cls-1,.cls-5,.cls-8{fill:#300cff;}.cls-1{opacity:0.21;}.cls-2{fill:#cca16e;}.cls-3{fill:#614528;}.cls-4{fill:#755330;}.cls-5,.cls-7{opacity:0.2;}.cls-6{fill:#9c6f40;}.cls-7{fill:#2d14ff;}.cls-8{opacity:0.48;}.cls-9{fill:#a67c52;}.cls-10{fill:#2e3192;opacity:0.49;}</style></defs><title>RottingLogWall</title><g id="SideLog"><rect class="cls-1" y="354.89" width="2404.53" height="396.26" rx="114.93"/><path class="cls-2" d="M-141.33-434.68H219.92a46.77,46.77,0,0,1-46.77-46.77,46.64,46.64,0,0,1,13.7-33.08,46.62,46.62,0,0,1,33.07-13.7H214.1A46.78,46.78,0,0,0,260.7-575h0a46.78,46.78,0,0,0-46.78-46.78H146.4a46.76,46.76,0,0,1-46.6-46.76,46.64,46.64,0,0,1,13.7-33.08,46.62,46.62,0,0,1,33.07-13.7h-.35A46.79,46.79,0,0,0,193-762.1h0a46.78,46.78,0,0,0-46.78-46.77H-60.38V-875h197c29.38,0,53.2-22.56,53.2-50.4v-3.85c0-27.84-23.82-50.4-53.2-50.4H-117.64c-29.38,0-53.2,22.56-53.2,50.4v120.42h0a46.78,46.78,0,0,0-46.78,46.77h0a46.79,46.79,0,0,0,46.78,46.78h0v26.87c0,24.59,18.6,45.06,43.19,49.49v17.18H-195A46.78,46.78,0,0,0-241.77-575h0A46.77,46.77,0,0,0-195-528.23h53.67Z" transform="translate(2025.4 979.69)"/><rect class="cls-2" x="1878.85" y="545.01" width="502.47" height="93.55" rx="46.77"/><rect class="cls-3" x="226.43" y="238.41" width="394.64" height="117.45" rx="58.72"/><rect class="cls-3" x="284.3" y="452.87" width="197.32" height="137.29" rx="68.64"/><path class="cls-4" d="M-1041.69-781.11v314.46a68.43,68.43,0,0,1-68.43,68.43h-420.33a68.37,68.37,0,0,1-20.1,48.51,68.4,68.4,0,0,1-48.51,20.09h-263.09a34.29,34.29,0,0,1-34.3-34.3,34.2,34.2,0,0,1,10-24.25,34.21,34.21,0,0,1,24.26-10.05h198.92a56.22,56.22,0,0,0,36-16.4,56.22,56.22,0,0,0,16.53-39.9,56.44,56.44,0,0,0-36.91-53h-133.77a56.31,56.31,0,0,1-19.51-3.46,56.44,56.44,0,0,1-36.91-51.8c0-.39,0-.77,0-1.16v-8.18a56.43,56.43,0,0,1,34-51.8,56.31,56.31,0,0,1,22.41-4.62h34a56.4,56.4,0,0,0,17.5-11.91,56.26,56.26,0,0,0,16.53-39.9,56.42,56.42,0,0,0-54.39-56.38c-.68,0-1.36,0-2,0h-105.58a56.41,56.41,0,0,1-54.38-56.38,56.22,56.22,0,0,1,16.53-39.9,56.18,56.18,0,0,1,39.89-16.53h763.15A68.43,68.43,0,0,1-1041.69-781.11Z" transform="translate(2025.4 979.69)"/><path class="cls-5" d="M-1196.5-562.74v164.52h-334a68.37,68.37,0,0,1-20.1,48.51,68.4,68.4,0,0,1-48.51,20.09h-263.09a34.29,34.29,0,0,1-34.3-34.3,34.2,34.2,0,0,1,10-24.25,34.21,34.21,0,0,1,24.26-10.05h198.92a56.22,56.22,0,0,0,36-16.4,56.22,56.22,0,0,0,16.53-39.9,56.44,56.44,0,0,0-36.91-53h-133.77a56.31,56.31,0,0,1-19.51-3.46,56.44,56.44,0,0,1-36.91-51.8Z" transform="translate(2025.4 979.69)"/><path class="cls-6" d="M-482.19-826.32v376.53a68.43,68.43,0,0,1-68.43,68.43h-663.94A68.43,68.43,0,0,1-1283-449.79V-672h-90.56A68.43,68.43,0,0,1-1442-740.43v-85.89a68.43,68.43,0,0,1,68.43-68.43h414.42a68.46,68.46,0,0,1,65.27-47.85h209.39a68.46,68.46,0,0,1,65.27,47.85h68.58A68.43,68.43,0,0,1-482.19-826.32Z" transform="translate(2025.4 979.69)"/><path class="cls-7" d="M-482.19-613.81v164a68.43,68.43,0,0,1-68.43,68.43h-663.94A68.43,68.43,0,0,1-1283-449.79v-164Z" transform="translate(2025.4 979.69)"/><path class="cls-6" d="M185.5-528.23h5.82a46.62,46.62,0,0,0-33.07,13.7,46.64,46.64,0,0,0-13.7,33.08,46.77,46.77,0,0,0,46.77,46.77H-169.93v-93.55h-53.66a46.62,46.62,0,0,1-33.08-13.7A46.58,46.58,0,0,1-270.37-575a46.77,46.77,0,0,1,46.78-46.77h67.35V-639c-24.6-4.43-43.2-24.9-43.2-49.49v-26.87h0A46.62,46.62,0,0,1-232.53-729a46.62,46.62,0,0,1-13.7-33.08,46.77,46.77,0,0,1,46.77-46.77h0V-929.29c0-27.84,23.82-50.4,53.2-50.4H108c29.38,0,53.2,22.56,53.2,50.4v3.85c0,27.84-23.82,50.4-53.2,50.4H-89v66.17H117.62a46.6,46.6,0,0,1,33.08,13.7,46.62,46.62,0,0,1,13.7,33.07,46.78,46.78,0,0,1-46.78,46.78H118a46.62,46.62,0,0,0-33.07,13.7,46.64,46.64,0,0,0-13.7,33.08,46.77,46.77,0,0,0,46.59,46.77h67.53a46.6,46.6,0,0,1,33.07,13.7A46.62,46.62,0,0,1,232.1-575,46.78,46.78,0,0,1,185.5-528.23Z" transform="translate(2025.4 979.69)"/><path class="cls-6" d="M327.32-387.9a46.77,46.77,0,0,1-46.77,46.77H-128.37a46.6,46.6,0,0,1-33.07-13.7,46.62,46.62,0,0,1-13.7-33.07,46.78,46.78,0,0,1,46.77-46.78H280.55A46.64,46.64,0,0,1,313.62-421,46.66,46.66,0,0,1,327.32-387.9Z" transform="translate(2025.4 979.69)"/><path class="cls-8" d="M42.82-575A365.6,365.6,0,0,1,15.28-434.68a332.43,332.43,0,0,1-50.67,84.55q-3.8,4.59-7.74,9h-85.24a46.6,46.6,0,0,1-33.07-13.7,46.62,46.62,0,0,1-13.7-33.07,46.78,46.78,0,0,1,46.77-46.78h-41.56v-93.55h-53.66a46.62,46.62,0,0,1-33.08-13.7A46.58,46.58,0,0,1-270.37-575a46.77,46.77,0,0,1,46.78-46.77h67.35V-639c-24.6-4.43-43.2-24.9-43.2-49.49v-26.87h0A46.62,46.62,0,0,1-232.53-729a46.62,46.62,0,0,1-13.7-33.08,46.77,46.77,0,0,1,46.77-46.77h0v-40.67H-87.58a295.5,295.5,0,0,1,44.45,40.67q3.95,4.41,7.74,9a332.43,332.43,0,0,1,50.67,84.55A365.6,365.6,0,0,1,42.82-575Z" transform="translate(2025.4 979.69)"/><path class="cls-2" d="M232.44-824.7a24.74,24.74,0,0,1-7.28,17.56,24.76,24.76,0,0,1-17.56,7.27H-80a44.82,44.82,0,0,0-31.8,13.17A44.82,44.82,0,0,0-125-754.9a45,45,0,0,0,45,45h21.88a44.85,44.85,0,0,1,31.81,13.17,44.82,44.82,0,0,1,13.17,31.8,45,45,0,0,1-45,45H-137a44.83,44.83,0,0,0-31.8,13.18A44.83,44.83,0,0,0-182-575a45,45,0,0,0,45,45H13.83a44.85,44.85,0,0,1,31.81,13.17A44.85,44.85,0,0,1,58.81-485a45,45,0,0,1-45,45H-24.9a44.82,44.82,0,0,0-31.8,13.17,44.82,44.82,0,0,0-13.17,31.8,45,45,0,0,0,45,45h116a24.78,24.78,0,0,1,17.56,7.27A24.78,24.78,0,0,1,116-325.3a24.84,24.84,0,0,1-24.83,24.84h-376.9A49.48,49.48,0,0,1-320.88-315a49.52,49.52,0,0,1-14.55-35.12H-755.22a66.39,66.39,0,0,1-41.28-61.46V-738.41a66.39,66.39,0,0,1,41.28-61.46H-219A49.52,49.52,0,0,1-204.42-835a49.5,49.5,0,0,1,35.12-14.55H207.6A24.84,24.84,0,0,1,232.44-824.7Z" transform="translate(2025.4 979.69)"/><path class="cls-9" d="M195.5-824.7a24.74,24.74,0,0,1-7.28,17.56,24.76,24.76,0,0,1-17.56,7.27H-117a44.82,44.82,0,0,0-31.8,13.17A44.82,44.82,0,0,0-162-754.9a45,45,0,0,0,45,45h21.88A44.85,44.85,0,0,1-63.3-696.75a44.82,44.82,0,0,1,13.17,31.8,45,45,0,0,1-45,45H-174a44.83,44.83,0,0,0-31.8,13.18A44.83,44.83,0,0,0-219-575a44.7,44.7,0,0,0,5.81,22.11A45,45,0,0,0-174-530H-23.11A44.85,44.85,0,0,1,8.7-516.86,44.85,44.85,0,0,1,21.87-485a45,45,0,0,1-45,45H-61.84a44.82,44.82,0,0,0-31.8,13.17,44.82,44.82,0,0,0-13.17,31.8,45,45,0,0,0,45,45h116a24.78,24.78,0,0,1,17.56,7.27A24.78,24.78,0,0,1,79-325.3,24.84,24.84,0,0,1,54.2-300.46H-322.7A49.48,49.48,0,0,1-357.82-315a49.52,49.52,0,0,1-14.55-35.12H-792.16a66.39,66.39,0,0,1-41.28-61.46v-86.5H-884.5a68.44,68.44,0,0,1-67.07-54.8,68.69,68.69,0,0,1-1.36-13.62V-729.62A68.43,68.43,0,0,1-884.5-798h88.27c1.33-.66,2.69-1.27,4.07-1.83h536.25A49.52,49.52,0,0,1-241.36-835a49.5,49.5,0,0,1,35.12-14.55h376.9A24.84,24.84,0,0,1,195.5-824.7Z" transform="translate(2025.4 979.69)"/><rect class="cls-10" x="1104.42" y="58.2" width="255.87" height="82.97" rx="41.48"/><path class="cls-5" d="M79-325.3A24.84,24.84,0,0,1,54.2-300.46H-322.7A49.48,49.48,0,0,1-357.82-315a49.52,49.52,0,0,1-14.55-35.12H-792.16a66.39,66.39,0,0,1-41.28-61.46v-86.5H-884.5a68.44,68.44,0,0,1-67.07-54.8h738.42A45,45,0,0,0-174-530H-23.11A44.85,44.85,0,0,1,8.7-516.86,44.85,44.85,0,0,1,21.87-485a45,45,0,0,1-45,45H-61.84a44.82,44.82,0,0,0-31.8,13.17,44.82,44.82,0,0,0-13.17,31.8,45,45,0,0,0,45,45h116a24.78,24.78,0,0,1,17.56,7.27A24.78,24.78,0,0,1,79-325.3Z" transform="translate(2025.4 979.69)"/></g></svg>