<svg xmlns="http://www.w3.org/2000/svg" viewBox="0 0 661.09 742.45"><defs><style>.cls-1{fill:#8c6239;}.cls-2{fill:#b89165;}.cls-3{fill:#9c6f40;}.cls-4{fill:#a67c52;}.cls-5{fill:#cca16e;}.cls-6{fill:#2e3192;opacity:0.38;}</style></defs><title>Stump</title><g id="RedwoodStump"><rect class="cls-1" x="-2592.47" y="-156.95" width="61.28" height="166.98" rx="30.64" transform="translate(2283.44 -1139.26) rotate(-34.26)"/><rect class="cls-2" x="151.37" y="236.66" width="162.52" height="249.7"/><path class="cls-1" d="M-2379.15,36.82a61.28,61.28,0,0,1-61.28,61.28,61.28,61.28,0,0,1-61.27-61.28,61.28,61.28,0,0,1,61.27-61.28A61.28,61.28,0,0,1-2379.15,36.82Z" transform="translate(2686.48 315.5)"/><rect class="cls-1" x="491.29" y="496.83" width="169.79" height="80.68" rx="20.04"/><rect class="cls-1" y="519.14" width="94.7" height="55.13" rx="26.17"/><rect class="cls-1" x="438.38" y="371.73" width="159.32" height="234.38" rx="36"/><rect class="cls-1" x="56.4" y="437.09" width="159.32" height="169.02" rx="36"/><ellipse class="cls-3" cx="311.48" cy="578.02" rx="229.03" ry="140.94"/><path class="cls-3" d="M-2146,110.61V262.52H-2604V110.61a29.27,29.27,0,0,1,.83-7,29.88,29.88,0,0,1,29.05-22.89h40.72a65.51,65.51,0,0,0,62.68,46.47,65.51,65.51,0,0,0,62.68-46.47h232.24a29.9,29.9,0,0,1,7.38.92,29.91,29.91,0,0,1,21.66,22A29.79,29.79,0,0,1-2146,110.61Z" transform="translate(2686.48 315.5)"/><path class="cls-3" d="M-2153.24,56.22a112.6,112.6,0,0,0-15.21-25.61c-23.49-30.07-63.81-54.23-113.46-67.83h0A337.72,337.72,0,0,0-2329-46.51h0l-.59-.07h0a370,370,0,0,0-43.94-2.77H-2375q-7.3,0-14.5.28L-2392-49q-8.58.38-17,1.16l-3.55.34h0l-.64.07h0q-10.38,1.06-20.41,2.71-13.62,2.2-26.54,5.4c-36,8.89-67.57,23.25-91.85,41.42a171.86,171.86,0,0,0-15.77,13.32c-22.94,22-36.25,48.08-36.25,76.12a87.6,87.6,0,0,0,.83,12,91.21,91.21,0,0,0,4.48,18.26,112.83,112.83,0,0,0,21.3,35.69l1,1.13q1,1.1,2,2.19a162.09,162.09,0,0,0,17.34,16.16c1.67,1.34,3.38,2.67,5.12,4l.07,0a202.1,202.1,0,0,0,21.25,13.87,268.91,268.91,0,0,0,59.94,24.71,330.66,330.66,0,0,0,38.33,8.41q7.83,1.24,15.87,2.15h0q5,.57,10.16,1,4.24.36,8.55.62,11.27.7,22.84.7a366.36,366.36,0,0,0,49.2-3.27q15.74-2.12,30.61-5.53a301.07,301.07,0,0,0,47.08-14.79,246.49,246.49,0,0,0,29.69-14.5c6.08-3.5,11.85-7.22,17.28-11.11q4.29-3.06,8.27-6.27c25.71-20.72,42.3-46,46.07-73.43a87.6,87.6,0,0,0,.83-12A90.73,90.73,0,0,0-2153.24,56.22Zm-344.83-54a65.22,65.22,0,0,1,27.31-5.95,65.49,65.49,0,0,1,65.49,65.49,65.31,65.31,0,0,1-2.81,19,62.39,62.39,0,0,1-2.69,7.26,65.47,65.47,0,0,1-60,39.21,65.51,65.51,0,0,1-62.68-46.47,65.31,65.31,0,0,1-2.81-19A65.49,65.49,0,0,1-2498.07,2.17Z" transform="translate(2686.48 315.5)"/><path class="cls-4" d="M-2550.88-174.58V70.52a103.17,103.17,0,0,0,8.52,40.85,116.34,116.34,0,0,0,7.25,14.13q2.78,4.65,6,9.12l.31.41c.39.54.78,1.08,1.19,1.61a141.59,141.59,0,0,0,11.65,13.55q2.52,2.59,5.2,5.09a171,171,0,0,0,19.32,15.58,206.23,206.23,0,0,0,37.57,20.57,247.52,247.52,0,0,0,49.22,14.92q7.7,1.52,15.63,2.59h0c2.67.36,5.35.68,8.06,1,3.62.38,7.28.69,11,.94q9.27.6,18.76.61,12.72,0,25-1.1,8.77-.78,17.28-2.08c28.68-4.36,55.06-13.08,77.69-25.11a191.09,191.09,0,0,0,29.69-19.39q5.07-4,9.71-8.38,4-3.69,7.57-7.58c20.45-21.95,32.43-48.19,32.68-76.38,0-.31,0-.61,0-.92v-245.1Zm157,252.37a65.49,65.49,0,0,1-60,39.2,65.51,65.51,0,0,1-62.68-46.47,65.31,65.31,0,0,1-2.81-19A65.49,65.49,0,0,1-2481.16-8a65.22,65.22,0,0,1,27.31-6,65.49,65.49,0,0,1,65.49,65.49,65.31,65.31,0,0,1-2.81,19,62.39,62.39,0,0,1-2.69,7.26Z" transform="translate(2686.48 315.5)"/><path class="cls-4" d="M-2179.78-212.2c5.14,45.9-30.38,79.54-45,93.35-36.25,34.33-78.91,40.63-94.34,42.16h0a240.84,240.84,0,0,1-39.5,3.23c-2.07,0-4.12,0-6.17-.09h0q-7-.15-13.78-.73a2.6,2.6,0,0,1-.4,0q-10.11-.84-19.83-2.5c-1.3-.21-2.59-.44-3.88-.69h0a219.08,219.08,0,0,1-26-6.51,194.69,194.69,0,0,1-34.75-14.73c-40.52-22.12-66.6-56.78-66.6-95.74,0-66.84,76.76-121,171.46-121q5.18,0,10.28.22l38.24,62.78,14.36-49,23.61,38.76,10.44-36.76C-2216.91-285.81-2184.19-251.55-2179.78-212.2Z" transform="translate(2686.48 315.5)"/><path class="cls-3" d="M190.74,460.32h73.91a35,35,0,0,1,35,35v51.42a0,0,0,0,1,0,0H190.74a35,35,0,0,1-35-35V495.28A35,35,0,0,1,190.74,460.32Z"/><path class="cls-2" d="M-2151.54-174.58c0,56-46.34,104.44-113.46,127.15h0a269.4,269.4,0,0,1-86.2,13.78q-10.83,0-21.38-.8-13-1-25.5-3.11-4.6-.78-9.12-1.71a249.56,249.56,0,0,1-36.05-10.22,208.32,208.32,0,0,1-54.47-29.35c-33-25.13-53.15-58.77-53.15-95.74,0-77.13,87.77-139.79,196.66-140.92l12.27,20.12,38.24,62.78,14.36-49,23.61,38.76,9.4-32.07,6.22-21.22C-2191.13-271.66-2151.54-226.38-2151.54-174.58Z" transform="translate(2686.48 315.5)"/><path class="cls-1" d="M-2180.77-174.58c0,22.74-8.89,44-24.35,62.19-23.44,27.57-62,48-107.6,55.6h0a240.84,240.84,0,0,1-39.5,3.23c-2.07,0-4.12,0-6.17-.09h0q-7-.15-13.78-.73a2.6,2.6,0,0,1-.4,0q-10.11-.84-19.83-2.5c-1.3-.21-2.59-.44-3.88-.69h0a219.08,219.08,0,0,1-26-6.51,194.69,194.69,0,0,1-34.75-14.73c-17.64-9.63-32.55-21.64-43.75-35.35-14.54-17.77-22.85-38.39-22.85-60.39,0-66.84,76.76-121,171.46-121q5.17,0,10.28.22l38.24,62.78,14.36-49,23.61,38.76,9.4-32.07C-2210.75-253.17-2180.77-216.35-2180.77-174.58Z" transform="translate(2686.48 315.5)"/><path class="cls-3" d="M369.35,372.17h72.77a25.95,25.95,0,0,1,25.95,25.95V513.28a25.95,25.95,0,0,1-25.95,25.95H343.4a0,0,0,0,1,0,0V398.12A25.95,25.95,0,0,1,369.35,372.17Z"/><rect class="cls-2" x="94.7" y="460.32" width="193.94" height="270.64" rx="46.21"/><rect class="cls-5" x="28.83" y="638.54" width="201.32" height="92.43" rx="46.21"/><rect class="cls-2" x="360.68" y="371.73" width="124.66" height="370.72" rx="25.95"/><rect class="cls-5" x="385.56" y="661.45" width="148.03" height="81" rx="25.95"/><rect class="cls-5" x="100.83" y="460.32" width="171.8" height="92.43" rx="46.21"/><rect class="cls-5" x="360.68" y="371.73" width="124.66" height="65.36" rx="25.95"/><path class="cls-6" d="M-2388.36,51.5a65.31,65.31,0,0,1-2.81,19,62.39,62.39,0,0,1-2.69,7.26h0a61.13,61.13,0,0,1-45.57,20.31,61.28,61.28,0,0,1-61.27-61.28A61.12,61.12,0,0,1-2481.16-8a65.22,65.22,0,0,1,27.31-6A65.49,65.49,0,0,1-2388.36,51.5Z" transform="translate(2686.48 315.5)"/><path class="cls-6" d="M-2205.12-112.39c-23.44,27.57-62,48-107.6,55.6h0a240.84,240.84,0,0,1-39.5,3.23c-2.07,0-4.12,0-6.17-.09h0q-7-.15-13.78-.73a2.6,2.6,0,0,1-.4,0q-10.11-.84-19.83-2.5c-1.3-.21-2.59-.44-3.88-.69h0a219.08,219.08,0,0,1-26-6.51,194.69,194.69,0,0,1-34.75-14.73c-17.64-9.63-32.55-21.64-43.75-35.35,32.46-42.07,86.28-69.58,147.17-69.58C-2291.91-183.77-2237.43-155.47-2205.12-112.39Z" transform="translate(2686.48 315.5)"/></g></svg>