<svg xmlns="http://www.w3.org/2000/svg" viewBox="0 0 1050.86 1352.6"><defs><style>.cls-1{fill:#a67c52;}.cls-2{fill:#61853a;}.cls-3{fill:#799555;}.cls-4{fill:#ffb767;}.cls-5{fill:#b28048;}.cls-6{fill:#89a960;}</style></defs><title>Tree</title><g id="TreeOne"><g id="Layer_22" data-name="Layer 22"><circle class="cls-1" cx="523.02" cy="1206.21" r="146.39"/></g><rect class="cls-2" x="718.32" y="269.78" width="332.53" height="415.21" rx="99.26"/><rect class="cls-2" x="224.64" y="43.32" width="596.77" height="648.62" rx="118.47"/><rect class="cls-3" x="718.32" y="369.93" width="332.53" height="415.21" rx="99.26"/><path class="cls-4" d="M-767.36,224.31V952.68a76.92,76.92,0,0,1-76.91,76.92,76.92,76.92,0,0,1-76.92-76.92V224.31a76.68,76.68,0,0,1,22.53-54.39,76.71,76.71,0,0,1,54.39-22.52A76.91,76.91,0,0,1-767.36,224.31Z" transform="translate(1367.3 194.83)"/><path class="cls-4" d="M-489.33,494.88a112.12,112.12,0,0,1-.54,12.18,120.55,120.55,0,0,1-10.08,37.28c-17.12,38.37-55.75,61.25-96.6,64.82-6.47.56-13,.32-19.46.32H-738.76c-11.21,0-19.51-9.16-20-20s9.54-20,20-20H-605c2,0,4,0,6-.14,1.16-.07,2.32-.17,3.48-.28l.65-.08h0a116.33,116.33,0,0,0,19.58-5.05c.2-.07.76-.34,1.38-.62-.59,0,.55-1,2-.77l-.07,0a11.24,11.24,0,0,0-1.88.73,4.18,4.18,0,0,0,1.47-.53l.41-.2.16,0-.09,0c1.64-.82,3.31-1.6,4.93-2.48,2-1.12,4.07-2.31,6-3.59.81-.52,1.61-1.06,2.41-1.61.29-.2,1.06-.68,1.69-1.07a.26.26,0,0,0,.11-.07l.09-.06c3.84-2.72,7.31-6.7,10.34-10.14.45-.5.89-1,1.32-1.54-.48.52,1.76-2.28,2-2.65,1.41-2,2.72-4.11,4-6.24,1.43-2.47,2.68-5,3.91-7.58l0-.06c.38-1.07.81-2.13,1.19-3.21A95.26,95.26,0,0,0-530.73,511c.48-2.23.76-4.48,1.2-6.7-.18.91-.31,1.6-.42,2.1.12-.73.26-1.62.31-2.18.21-2.4.32-4.82.33-7.23,0-1.57,0-3.14,0-4.7,0-7.26,0-14.51,0-21.76v-188c0-11.21,9.17-19.52,20-20s20,9.54,20,20v198.5C-489.35,485.67-489.37,490.27-489.33,494.88Z" transform="translate(1367.3 194.83)"/><path class="cls-4" d="M-358.12,311.54v114.3c0,11.23-.9,21.91-4.34,32.37a72.74,72.74,0,0,1-3.31,8.27c-11.47,24.24-36.22,38.11-62.18,40.39-11.08,1-22.48.19-33.6.19h-47.76c-11.21,0-19.51-9.17-20-20s9.54-20,20-20h75.63c1.31,0,2.61,0,3.92-.06l.45,0c3.73-1.06,7.64-1.62,11.38-2.83h0c.79-.44,1.61-.81,2.39-1.23,1.25-.67,2.47-1.4,3.66-2.17.82-.53,1.63-1.09,2.42-1.67l-1.65,1.26c1.88-.17,5.33-4.92,6.67-6.64h0c-1.26,1.53-.84.9-.17,0,.51-.7,1.16-1.59,1.3-1.81.57-.91,1.1-1.84,1.61-2.78a14.91,14.91,0,0,1,.86-1.31l0,0a25.54,25.54,0,0,0,1-3.32c.61-2,1-4,1.47-6,0,0,0,0,0,0l.12-1.59c.06-1.2.07-2.39.06-3.59,0-.64,0-1.28,0-1.93,0-4.32,0-8.65,0-13V311.54c0-11.21,9.16-19.51,20-20S-358.12,301.08-358.12,311.54Z" transform="translate(1367.3 194.83)"/><rect class="cls-2" y="273.77" width="295.28" height="278.34" rx="69.34"/><rect class="cls-3" y="349.68" width="295.28" height="278.34" rx="69.34"/><path class="cls-4" d="M-902.23,497.07c-.47-10.49-8.27-19.43-19-20-.34,0-.69,0-1,0h-183.3c-13.4,0-27.25.85-40.63-.44l-1-.11h0c-1.71-.36-3.47-.57-5.19-.93a103.68,103.68,0,0,1-13.51-3.77c-1-.34-1.9-.72-2.85-1.06l-.09,0h0l-.17-.09c-2.18-1.14-4.42-2.13-6.57-3.32-2.5-1.39-4.94-2.91-7.3-4.53-.55-.38-1.09-.76-1.63-1.16.33.18-2.22-1.84-2.49-2.08-2.47-2.17-6.66-5.3-8.77-8.41a6.89,6.89,0,0,0-.81-1.56c-.67-.94-1.33-1.9-2-2.87-1.21-1.85-2.35-3.76-3.4-5.71-.76-1.41-1.55-4.41-2.65-5.51-.1-.25-.2-.51-.29-.77a82.54,82.54,0,0,1-2.94-10c-.37-1.56-.65-3.13-.94-4.71s-.28-3.24-.33-4.87c-.36-12.13,0-24.32,0-36.46V294c0-10.46-9.2-20.48-20-20s-20,8.79-20,20v77.8c0,18.63-1.34,37.59,1.35,56.09,6,41.08,38.2,73.35,77.5,84.48,17.66,5,35.52,4.69,53.61,4.69h194.46c.35,0,.69,0,1,0C-911.12,516.46-901.76,507.51-902.23,497.07Zm-301.88-60.21c-.1-.28-.2-.55-.31-.83.26.63.6,1.54.69,1.84C-1203.79,437.72-1203.92,437.4-1204.11,436.86Z" transform="translate(1367.3 194.83)"/><path class="cls-5" d="M-767.36,414.41v382.2L-921.19,780V517c-.35,0-.69,0-1,0h-194.46c-18.09,0-36,.31-53.61-4.69-39.3-11.13-71.51-43.4-77.5-84.48-2.69-18.5-1.35-37.46-1.35-56.09V362.3l40,4.32V378.7c0,12.14-.34,24.33,0,36.46.05,1.63.19,3.25.33,4.87s.57,3.15.94,4.71a82.54,82.54,0,0,0,2.94,10c.09.26.19.52.29.77,1.1,1.1,1.89,4.1,2.65,5.51,1,1.95,2.19,3.86,3.4,5.71.63,1,1.29,1.93,2,2.87a6.89,6.89,0,0,1,.81,1.56c2.11,3.11,6.3,6.24,8.77,8.41.27.24,2.82,2.26,2.49,2.08.54.4,1.08.78,1.63,1.16,2.36,1.62,4.8,3.14,7.3,4.53,2.15,1.19,4.39,2.18,6.57,3.32l.17.09h0l.09,0c1,.34,1.89.72,2.85,1.06a103.68,103.68,0,0,0,13.51,3.77c1.72.36,3.48.57,5.19.93h0l1,.11c13.38,1.29,27.23.44,40.63.44h183.3c.35,0,.7,0,1,0V397.77Z" transform="translate(1367.3 194.83)"/><path class="cls-5" d="M-362.46,458.21a72.74,72.74,0,0,1-3.31,8.27c-11.47,24.24-36.22,38.11-62.18,40.39-11.08,1-22.48.19-33.6.19h-28.32a120.55,120.55,0,0,1-10.08,37.28c-17.12,38.37-55.75,61.25-96.6,64.82-6.47.56-13,.32-19.46.32H-738.76c-11.21,0-19.51-9.16-20-20s9.54-20,20-20H-605c2,0,4,0,6-.14,1.16-.07,2.32-.17,3.48-.28l.65-.08h0a116.33,116.33,0,0,0,19.58-5.05c.2-.07.76-.34,1.38-.62-.59,0,.55-1,2-.77,1.64-.82,3.31-1.6,4.93-2.48,2-1.12,4.07-2.31,6-3.59.81-.52,1.61-1.06,2.41-1.61.29-.2,1.06-.68,1.69-1.07a.26.26,0,0,0,.11-.07l.09-.06c3.84-2.72,7.31-6.7,10.34-10.14.45-.5.89-1,1.32-1.54-.48.52,1.76-2.28,2-2.65,1.41-2,2.72-4.11,4-6.24,1.43-2.47,2.68-5,3.91-7.58l0-.06c.38-1.07.81-2.13,1.19-3.21A95.26,95.26,0,0,0-530.73,511c.48-2.23.76-4.48,1.2-6.7-.18.91-.31,1.6-.42,2.1.12-.73.26-1.62.31-2.18.21-2.4.32-4.82.33-7.23,0-1.57,0-3.14,0-4.7,0-7.26,0-14.51,0-21.76V440.15l40,4.33v22.58h55.67c1.31,0,2.61,0,3.92-.06l.45,0c3.73-1.06,7.64-1.62,11.38-2.83h0c.79-.44,1.61-.81,2.39-1.23,1.25-.67,2.47-1.4,3.66-2.17.82-.53,1.63-1.09,2.42-1.67l-1.65,1.26c1.88-.17,5.33-4.92,6.67-6.64Z" transform="translate(1367.3 194.83)"/><rect class="cls-3" x="224.64" y="253.23" width="596.77" height="648.62" rx="118.47"/><rect class="cls-6" x="224.64" y="253.23" width="596.77" height="487.11" rx="118.47"/><circle class="cls-3" cx="370.69" cy="369.93" r="63.43"/><circle class="cls-3" cx="339.48" cy="506.37" r="46.06"/><circle class="cls-3" cx="506.8" cy="424.86" r="46.06"/><path class="cls-5" d="M-404.59,453.65l.17,0C-405.68,455.2-405.26,454.57-404.59,453.65Z" transform="translate(1367.3 194.83)"/><circle class="cls-2" cx="129.69" cy="280.3" r="63.43"/><circle class="cls-2" cx="49.56" cy="300.11" r="49.56"/><circle class="cls-2" cx="616.29" cy="63.43" r="63.43"/><circle class="cls-2" cx="697.57" cy="81" r="63.43"/></g></svg>