<svg id="BackPackOpen" xmlns="http://www.w3.org/2000/svg" viewBox="0 0 179.55 261.72"><defs><style>.cls-1{fill:#e57247;}.cls-2{fill:#a84749;}.cls-3{fill:#3e3e3e;}.cls-4{fill:#b4b4b4;}.cls-5{fill:#676767;}.cls-6{fill:#818181;}.cls-7{fill:#c4e1f6;}.cls-8{fill:#9fd1f1;}.cls-9{fill:#ccc;}.cls-10{fill:#fff;}.cls-11{fill:#399262;}.cls-12{fill:#a8c7a4;}.cls-13{fill:#079247;}.cls-14{fill:#80b282;}.cls-15{fill:#57a160;}.cls-16{fill:#a67375;}.cls-17{fill:#bb8953;}.cls-18{fill:#9f7a56;}</style></defs><title>BackpackOpen</title><g id="SleepingBag_copy" data-name="SleepingBag copy"><g id="SleepingBag_copy-2" data-name="SleepingBag copy"><g id="Layer_275_copy_2" data-name="Layer 275 copy 2"><path class="cls-1" d="M352.43,670.7c0,14.81-15.51,26.81-34.63,26.81A40.28,40.28,0,0,1,293.71,690c-.75-.56-1.47-1.15-2.15-1.75-5.23-4.7-8.39-10.83-8.39-17.51a22.83,22.83,0,0,1,6.25-15.37,29.93,29.93,0,0,1,3.15-3c6.32-5.19,15.28-8.44,25.23-8.44C336.92,643.89,352.43,655.9,352.43,670.7Z" transform="translate(-227.92 -584.02)"/><path class="cls-2" d="M352.31,690.74c0,14.81-15.51,26.81-34.63,26.81A40.28,40.28,0,0,1,293.59,710c-.75-.56-1.47-1.15-2.15-1.75-5.23-4.7-8.39-10.83-8.39-17.51a22.83,22.83,0,0,1,6.25-15.37,29.93,29.93,0,0,1,3.15-3c6.32-5.19,15.28-8.44,25.23-8.44C336.8,663.93,352.31,675.94,352.31,690.74Z" transform="translate(-227.92 -584.02)"/><path class="cls-2" d="M265.05,673.54a8.95,8.95,0,0,1-8.94,9H236.86a8.94,8.94,0,0,1-6.32-15.27,8.67,8.67,0,0,1,.72-.64,8.86,8.86,0,0,1,5.6-2h19.25A8.94,8.94,0,0,1,265.05,673.54Z" transform="translate(-227.92 -584.02)"/><path class="cls-1" d="M256.67,667.29V679.8a4.51,4.51,0,0,1-2,3.89l-1.87.93-1.65.82-10.68,5.29a7.21,7.21,0,0,1-4.69.79,3.5,3.5,0,0,1-2.9-3.67V659.24a3.5,3.5,0,0,1,2.9-3.68,7.29,7.29,0,0,1,4.69.8l11.21,5.55,2.57,1.28.42.21A4.52,4.52,0,0,1,256.67,667.29Z" transform="translate(-227.92 -584.02)"/><path class="cls-2" d="M256.67,667.29V679.8a4.51,4.51,0,0,1-2,3.89l-1.87.93-1.65.82-10.68,5.29a7.21,7.21,0,0,1-4.69.79v-36a7.29,7.29,0,0,1,4.69.8l11.21,5.55,2.57,1.28.42.21A4.52,4.52,0,0,1,256.67,667.29Z" transform="translate(-227.92 -584.02)"/><path class="cls-1" d="M277.91,661.47V682c0,2.64-1.36,5.46-3.22,6.38l-3.07,1.52-2.71,1.35L251.38,700a12.53,12.53,0,0,1-6.85,1.44,5.83,5.83,0,0,1-5.62-6.17v-47c0-6,6.2-7.85,12.47-4.74l18.39,9.12,4.23,2.1.69.34C276.55,656,277.91,658.83,277.91,661.47Z" transform="translate(-227.92 -584.02)"/><path class="cls-1" d="M231.26,666.58v13.93a8.94,8.94,0,0,1-.72-13.29A8.67,8.67,0,0,1,231.26,666.58Z" transform="translate(-227.92 -584.02)"/><path class="cls-2" d="M277.91,672.89V682c0,2.64-1.36,5.46-3.22,6.38l-3.07,1.52-2.71,1.35L251.38,700a12.53,12.53,0,0,1-6.85,1.44V667.26c0-6,6.2-7.85,12.47-4.74l18.39,9.12Z" transform="translate(-227.92 -584.02)"/></g><path class="cls-2" d="M293.71,655.87v34.6a6.13,6.13,0,0,1-6.13,6.13H275a6.13,6.13,0,0,1-6.07-5.33,5.29,5.29,0,0,1-.06-.8v-34.6a6.08,6.08,0,0,1,.92-3.22l4.23,2.1a6,6,0,0,1,3-.8h8.54a6.13,6.13,0,0,1,3.87,1.38,29.93,29.93,0,0,1,3.15-3A6,6,0,0,1,293.71,655.87Z" transform="translate(-227.92 -584.02)"/><path class="cls-3" d="M291.68,660.08V687a6,6,0,0,1-.12,1.2,6.12,6.12,0,0,1-6,4.93H277a6.14,6.14,0,0,1-6.13-6.13V660.08a6.1,6.1,0,0,1,3.12-5.33,6,6,0,0,1,3-.8h8.54a6.14,6.14,0,0,1,6.13,6.13Z" transform="translate(-227.92 -584.02)"/></g><g id="Layer_275_copy_2-2" data-name="Layer 275 copy 2"><path class="cls-2" d="M370.34,673.54a8.95,8.95,0,0,0,8.94,9h19.25a8.94,8.94,0,0,0,6.32-15.27,8.67,8.67,0,0,0-.72-.64,8.86,8.86,0,0,0-5.6-2H379.28A8.94,8.94,0,0,0,370.34,673.54Z" transform="translate(-227.92 -584.02)"/><path class="cls-1" d="M378.72,667.29V679.8a4.51,4.51,0,0,0,2,3.89l1.87.93,1.65.82,10.68,5.29a7.21,7.21,0,0,0,4.69.79,3.5,3.5,0,0,0,2.9-3.67V659.24a3.5,3.5,0,0,0-2.9-3.68,7.29,7.29,0,0,0-4.69.8l-11.21,5.55-2.57,1.28-.42.21A4.52,4.52,0,0,0,378.72,667.29Z" transform="translate(-227.92 -584.02)"/><path class="cls-2" d="M378.72,667.29V679.8a4.51,4.51,0,0,0,2,3.89l1.87.93,1.65.82,10.68,5.29a7.21,7.21,0,0,0,4.69.79v-36a7.29,7.29,0,0,0-4.69.8l-11.21,5.55-2.57,1.28-.42.21A4.52,4.52,0,0,0,378.72,667.29Z" transform="translate(-227.92 -584.02)"/><path class="cls-1" d="M357.48,661.47V682c0,2.64,1.36,5.46,3.22,6.38l3.07,1.52,2.71,1.35L384,700a12.53,12.53,0,0,0,6.85,1.44,5.83,5.83,0,0,0,5.62-6.17v-47c0-6-6.2-7.85-12.47-4.74l-18.39,9.12-4.23,2.1-.69.34C358.84,656,357.48,658.83,357.48,661.47Z" transform="translate(-227.92 -584.02)"/><path class="cls-1" d="M404.13,666.58v13.93a8.94,8.94,0,0,0,.72-13.29A8.67,8.67,0,0,0,404.13,666.58Z" transform="translate(-227.92 -584.02)"/><path class="cls-2" d="M357.48,672.89V682c0,2.64,1.36,5.46,3.22,6.38l3.07,1.52,2.71,1.35L384,700a12.53,12.53,0,0,0,6.85,1.44V667.26c0-6-6.2-7.85-12.47-4.74L360,671.64Z" transform="translate(-227.92 -584.02)"/></g><path class="cls-2" d="M341.68,655.87v34.6a6.13,6.13,0,0,0,6.13,6.13h12.6a6.13,6.13,0,0,0,6.07-5.33,5.29,5.29,0,0,0,.06-.8v-34.6a6.08,6.08,0,0,0-.92-3.22l-4.23,2.1a6,6,0,0,0-3-.8h-8.54a6.13,6.13,0,0,0-3.87,1.38,29.93,29.93,0,0,0-3.15-3A6,6,0,0,0,341.68,655.87Z" transform="translate(-227.92 -584.02)"/><path class="cls-3" d="M343.71,660.08V687a6,6,0,0,0,.12,1.2,6.12,6.12,0,0,0,6,4.93h8.54a6.14,6.14,0,0,0,6.13-6.13V660.08a6.1,6.1,0,0,0-3.12-5.33,6,6,0,0,0-3-.8h-8.54a6.14,6.14,0,0,0-6.13,6.13Z" transform="translate(-227.92 -584.02)"/></g><g id="Battery_copy" data-name="Battery copy"><path class="cls-4" d="M260.78,740.28V704.75c0-5.79-1.1-13.16,3.91-17.24,5.5-4.5,12.32-.4,13.86,5.8.81,3.25.31,7.17.31,10.51v11.71c0,3.86,6,3.87,6,0,0-11.69,3.6-32.63-12.49-35.79-11.18-2.18-17.7,8.86-17.59,18.49.15,14,0,28,0,42,0,3.86,6,3.86,6,0Z" transform="translate(-227.92 -584.02)"/><path class="cls-5" d="M258,744.06V702.55c0-7.35-1-16,6.74-20,6.82-3.56,14.67.92,16.5,8.1.91,3.55.34,7.61.34,11.24v14c0,3.86,6,3.87,6,0,0-7.73.54-15.67,0-23.37a19,19,0,0,0-7.23-13.58c-8.55-6.66-20.79-3.6-26,5.71-3,5.38-2.37,11.64-2.37,17.58v41.87c0,3.86,6,3.87,6,0Z" transform="translate(-227.92 -584.02)"/><path class="cls-6" d="M254.94,750.94V714.88c0-6.19,0-12.38,0-18.57a27.14,27.14,0,0,1,.44-7.2,15.56,15.56,0,0,1,13.91-11.35c7.54-.32,14.28,5.63,15.32,13,.57,4.1.08,8.55.08,12.69v14.85c0,3.86,6,3.87,6,0,0-9.14,1-18.89-.09-28a21.32,21.32,0,0,0-8.8-14.71c-10.4-7.43-25.1-3.32-30.74,8-2.94,5.92-2.12,13.06-2.12,19.51v47.77c0,3.86,6,3.87,6,0Z" transform="translate(-227.92 -584.02)"/><rect class="cls-6" x="26.64" y="242.47" width="8.85" height="7.15" rx="3.57"/><rect class="cls-7" x="16.61" y="148.28" width="26.95" height="87.43"/><rect class="cls-8" x="19.59" y="148.28" width="23.97" height="87.43"/><circle class="cls-7" cx="34.27" cy="170.42" r="3.2"/><circle class="cls-7" cx="26.64" cy="219.51" r="3.05"/><circle class="cls-7" cx="32.74" cy="201.26" r="3.64"/><circle class="cls-7" cx="27.9" cy="185.52" r="3.16"/><path class="cls-5" d="M276.3,812.52v14.41a3.14,3.14,0,0,1-3.14,3.13H244.81a3.14,3.14,0,0,1-3.14-3.13V812.52a3.16,3.16,0,0,1,3.14-3.14h28.35a3.16,3.16,0,0,1,3.14,3.14Z" transform="translate(-227.92 -584.02)"/><path class="cls-5" d="M276.3,725.4v13.79a3.45,3.45,0,0,1-3.45,3.44H245.12a3.45,3.45,0,0,1-3.45-3.44V725.4a3.46,3.46,0,0,1,3.45-3.45h27.73a3.46,3.46,0,0,1,3.45,3.45Z" transform="translate(-227.92 -584.02)"/><rect class="cls-9" x="16.87" y="138.39" width="6.81" height="17.54" rx="1.76"/><rect class="cls-9" x="16.87" y="225.36" width="6.81" height="18" rx="1.62"/><rect class="cls-10" x="21.21" y="160.49" width="4.94" height="43.73" rx="2.47"/><circle class="cls-10" cx="32.74" cy="168.81" r="1.5"/><circle class="cls-10" cx="26.14" cy="183.39" r="1.5"/><circle class="cls-10" cx="30.61" cy="199.12" r="1.5"/><circle class="cls-10" cx="25.14" cy="218.01" r="1.5"/><rect class="cls-9" x="21.53" y="111.23" width="2.39" height="15.32" rx="1.2"/><rect class="cls-9" x="21.53" y="106.72" width="2.39" height="2.39" rx="1.2"/><path class="cls-9" d="M275.74,723.52H242.23a3.46,3.46,0,0,1,2.89-1.57h27.73A3.46,3.46,0,0,1,275.74,723.52Z" transform="translate(-227.92 -584.02)"/><path class="cls-9" d="M275.73,810.73H242.24a3.11,3.11,0,0,1,2.57-1.35h28.35A3.11,3.11,0,0,1,275.73,810.73Z" transform="translate(-227.92 -584.02)"/></g><g id="Layer_272_copy" data-name="Layer 272 copy"><rect class="cls-11" x="68.88" y="92.05" width="10.45" height="28.09"/><rect class="cls-11" x="100.63" y="92.05" width="10.45" height="28.09"/><polygon class="cls-12" points="68.88 92.05 78.75 83.41 101.01 83.41 110.88 92.05 68.88 92.05"/><rect class="cls-13" x="377.44" y="778.56" width="6.75" height="19.66" transform="translate(-673.86 -83.83) rotate(-45)"/><path class="cls-14" d="M387.45,774.82v45.81a7.85,7.85,0,0,1-7.83,7.83h-14a7.75,7.75,0,0,1-4.1-1.17,7.85,7.85,0,0,1-3.73-6.66V774.82a7.86,7.86,0,0,1,6.57-7.73,7.48,7.48,0,0,1,1.26-.1h14A7.85,7.85,0,0,1,387.45,774.82Z" transform="translate(-227.92 -584.02)"/><path class="cls-15" d="M390.15,772.15v20.68l-2.7-2.7-10.79-10.79-4.15-4.14-8.11-8.11L363,765.66l-.35-.35.21-.11a7.67,7.67,0,0,1,3.57-.88h15.92a7.83,7.83,0,0,1,7.15,4.65A7.69,7.69,0,0,1,390.15,772.15Z" transform="translate(-227.92 -584.02)"/><path class="cls-11" d="M376.66,764.32v64.14h-11a7.86,7.86,0,0,1-7.83-7.83V774.82a7.86,7.86,0,0,1,6.57-7.73l-1.78-1.78a7.69,7.69,0,0,1,3.78-1Z" transform="translate(-227.92 -584.02)"/></g><path class="cls-16" d="M387.45,816v4.64a7.85,7.85,0,0,1-7.83,7.83h-4.91v1.11a16.05,16.05,0,0,1-3.3,9.78,14.71,14.71,0,0,1-9.85-12.06,13.6,13.6,0,0,1-.12-1.7,17,17,0,0,0,.38-2.59c0-.37,0-.74.05-1.11v-.2a18,18,0,0,0-4-11.4,17.57,17.57,0,0,0-3.41-3.26,14.74,14.74,0,0,1,14.41-11.69,14.73,14.73,0,0,1,14.72,14.71,14,14,0,0,1-.22,2.52A14.48,14.48,0,0,1,387.45,816Z" transform="translate(-227.92 -584.02)"/><path class="cls-16" d="M389.47,769a14.71,14.71,0,0,1-26.5-3.31c-.05-.15-.1-.3-.14-.46a7.67,7.67,0,0,1,3.57-.88h15.92A7.83,7.83,0,0,1,389.47,769Z" transform="translate(-227.92 -584.02)"/><rect class="cls-14" x="37.19" y="113.49" width="105.15" height="80.03" rx="16.17"/><path class="cls-14" d="M374.67,780.49v49.08a16.18,16.18,0,0,1-16.18,16.17H276.8a16.17,16.17,0,0,1-16.18-16.17V780.49a16.19,16.19,0,0,1,16.18-16.17h81.69a16.05,16.05,0,0,1,8.9,2.67,16.28,16.28,0,0,1,4,3.71A16,16,0,0,1,374.67,780.49Z" transform="translate(-227.92 -584.02)"/><path class="cls-12" d="M371.4,770.7a11.42,11.42,0,0,1-.61,3.1l-8.06,23.56c-1.61,4.71-7.89,8.29-14.12,8.29H286.76c-6.23,0-12.51-3.58-14.12-8.29l-8.06-23.56a11.42,11.42,0,0,1-.61-3.1,16.12,16.12,0,0,1,12.87-6.38h81.69A16.12,16.12,0,0,1,371.4,770.7Z" transform="translate(-227.92 -584.02)"/><path class="cls-14" d="M370.22,713.68v34.2a17,17,0,0,1-7,10.44l-.1.07a14.19,14.19,0,0,1-7.8,2.48H280a14,14,0,0,1-7.57-2.34l-.1-.07a16.92,16.92,0,0,1-7.22-10.58v-34.2a16.17,16.17,0,0,1,16.17-16.17h72.81A16.17,16.17,0,0,1,370.22,713.68Z" transform="translate(-227.92 -584.02)"/><rect class="cls-11" x="49.84" y="198.26" width="80.07" height="57.27" rx="15.55"/><path class="cls-11" d="M357.83,797.82V824a15.55,15.55,0,0,1-15.54,15.55H294a23.5,23.5,0,0,0-16.23-32.39v-9.34a15.55,15.55,0,0,1,15.55-15.54h49A15.54,15.54,0,0,1,357.83,797.82Z" transform="translate(-227.92 -584.02)"/><path class="cls-15" d="M357.72,793.09v26.18a15.54,15.54,0,0,1-15.54,15.54h-49a15.54,15.54,0,0,1-15.54-15.54V793.09a15.55,15.55,0,0,1,15.54-15.55h49A15.55,15.55,0,0,1,357.72,793.09Z" transform="translate(-227.92 -584.02)"/><path class="cls-11" d="M362.88,777.54l-3.6,15.34c-1,4.16-4.91,7.41-8.82,7.42l-65.43.16c-3.91,0-7.86-3.21-8.86-7.37l-.16-.65-3.52-14.67,43.69-.11Z" transform="translate(-227.92 -584.02)"/><path class="cls-15" d="M363.06,731v22.53a14.19,14.19,0,0,1-7.8,2.48H279.89a14,14,0,0,1-7.57-2.34l-.1-22.67c0-8.93,6.25-16.17,14-16.17h62.9C356.81,714.85,363.06,722.09,363.06,731Z" transform="translate(-227.92 -584.02)"/><path class="cls-11" d="M363.06,748.41v9.91l-.1.07a14.19,14.19,0,0,1-7.8,2.48H279.79a14,14,0,0,1-7.57-2.34V748.41c0-8.93,6.25-16.17,14-16.17h62.9c7.16,0,13.05,6.23,13.87,14.25A17.38,17.38,0,0,1,363.06,748.41Z" transform="translate(-227.92 -584.02)"/><path class="cls-12" d="M354.54,762.08H280.83c-7.71,0-14.81-6.12-16.52-14.25l0-.41V714.06a17.81,17.81,0,0,1,17.81-17.76h71.21a17.81,17.81,0,0,1,17.81,17.76v33.56l0,.21C369.35,756,362.25,762.08,354.54,762.08ZM268.27,747.2c1.38,6.12,6.86,10.88,12.56,10.88h73.71c5.7,0,11.18-4.76,12.56-10.88V714.06a13.8,13.8,0,0,0-13.81-13.76H282.08a13.8,13.8,0,0,0-13.81,13.76Z" transform="translate(-227.92 -584.02)"/><g id="GrossShit_copy" data-name="GrossShit copy"><path class="cls-16" d="M294,839.55a23.31,23.31,0,0,1-4,6.19H276.84a16.17,16.17,0,0,1-16.18-16.17V789.2A16.37,16.37,0,0,1,272.86,805c0,.52,0,1-.07,1.54a23.22,23.22,0,0,1,5,.59V824a15.55,15.55,0,0,0,15.55,15.55Z" transform="translate(-227.92 -584.02)"/><path class="cls-16" d="M357.72,810.16v9.11a15.54,15.54,0,0,1-15.54,15.54H316.69A16.38,16.38,0,0,1,327,814.6h0A18.16,18.16,0,0,1,354.42,807,17.49,17.49,0,0,1,357.72,810.16Z" transform="translate(-227.92 -584.02)"/><path class="cls-16" d="M316.18,777.66a11.58,11.58,0,0,1-11.49,10.1,11.09,11.09,0,0,1-2.53-.29,16.37,16.37,0,0,1-26.15,5l-3.52-14.67Z" transform="translate(-227.92 -584.02)"/></g><g id="Flap"><g id="Buckle"><path class="cls-17" d="M337,625.68v-32h.13a7.59,7.59,0,1,1,15.17,0h.13v32Z" transform="translate(-227.92 -584.02)"/><rect class="cls-17" x="333.63" y="623.05" width="21.95" height="11.91" rx="4.77" transform="translate(461.29 674) rotate(-180)"/><path class="cls-9" d="M335.34,621c.13,7.18,5.81,8.35,11.88,7.88,7.83-.59,6.9-8.7,6.78-14.45-.07-3.06-.9-5.89-4-7.27-2.28-1-5.22-.65-7.67-.62h-.24l-.4.05C334.32,607.58,335.24,615.19,335.34,621ZM351,614.41c.26,3.72,1.12,10.68-3.78,11.45-.35.06-.73.09-1.13.12a1.54,1.54,0,0,0,.08-.5V609.91a1.87,1.87,0,0,0,0-.34C348.71,609.8,350.75,610.75,351,614.41Zm-8.88-4.89h1.1a1.62,1.62,0,0,0-.05.4v15.57a1.51,1.51,0,0,0,.06.44l-.58-.06c-3.2-.38-4.12-2.07-4.31-4.88C338.1,617.46,337.2,610,342.12,609.52Z" transform="translate(-227.92 -584.02)"/><circle class="cls-9" cx="124.48" cy="46.37" r="1.7"/><circle class="cls-9" cx="109.04" cy="46.29" r="1.7"/></g><g id="Buckle-2" data-name="Buckle"><path class="cls-17" d="M279.37,625.68v-32h.13a7.58,7.58,0,1,1,15.16,0h.13v32Z" transform="translate(-227.92 -584.02)"/><rect class="cls-17" x="276.03" y="623.05" width="21.95" height="11.91" rx="4.77" transform="translate(346.09 674) rotate(-180)"/><path class="cls-9" d="M277.74,621c.13,7.18,5.81,8.35,11.88,7.88,7.83-.59,6.9-8.7,6.78-14.45-.07-3.06-.9-5.89-4-7.27-2.28-1-5.22-.65-7.67-.62h-.24l-.4.05C276.72,607.58,277.64,615.19,277.74,621Zm15.66-6.57c.26,3.72,1.12,10.68-3.78,11.45-.35.06-.73.09-1.13.12a1.54,1.54,0,0,0,.08-.5V609.91a1.87,1.87,0,0,0,0-.34C291.11,609.8,293.15,610.75,293.4,614.41Zm-8.88-4.89h1.1a1.62,1.62,0,0,0-.05.4v15.57a1.51,1.51,0,0,0,.06.44l-.58-.06c-3.2-.38-4.12-2.07-4.31-4.88C280.5,617.46,279.6,610,284.52,609.52Z" transform="translate(-227.92 -584.02)"/><circle class="cls-9" cx="66.88" cy="46.37" r="1.7"/><circle class="cls-9" cx="51.45" cy="46.29" r="1.7"/></g><path class="cls-18" d="M334,628.09v-2.38a4.81,4.81,0,0,1,3.34-4.56V591.61h.13a7.58,7.58,0,1,1,15.16,0h.13v29.6a4.77,4.77,0,0,1,3.19,4.5v2.38a4.77,4.77,0,0,1-4.76,4.77H338.77A4.78,4.78,0,0,1,334,628.09Z" transform="translate(-227.92 -584.02)"/><path class="cls-18" d="M276.41,628.09v-2.38a4.8,4.8,0,0,1,3.33-4.56V591.61h.13a7.58,7.58,0,1,1,15.16,0h.13v29.6a4.77,4.77,0,0,1,3.2,4.5v2.38a4.78,4.78,0,0,1-4.77,4.77H281.17A4.77,4.77,0,0,1,276.41,628.09Z" transform="translate(-227.92 -584.02)"/><rect class="cls-11" x="308.78" y="604.43" width="14.81" height="19.66" transform="translate(404.44 644.51) rotate(-180)"/><path class="cls-12" d="M368.86,630.46v53a12.76,12.76,0,0,1-12.76,12.77H279.5a12.76,12.76,0,0,1-12.76-12.77v-53a12.76,12.76,0,0,1,12.76-12.77h76.6A12.76,12.76,0,0,1,368.86,630.46Z" transform="translate(-227.92 -584.02)"/><path class="cls-15" d="M368.7,633.33v50.14a12.76,12.76,0,0,1-12.76,12.77h-76.6a12.76,12.76,0,0,1-12.76-12.77V633.33a12.76,12.76,0,0,1,12.76-12.77h76.6A12.76,12.76,0,0,1,368.7,633.33Z" transform="translate(-227.92 -584.02)"/></g><g id="Layer_289" data-name="Layer 289"><rect class="cls-14" x="54.58" y="109.64" width="15.24" height="5.52" rx="2.76"/><rect class="cls-14" x="106.7" y="109.64" width="15.24" height="5.52" rx="2.76"/></g></svg>