<svg id="BackPackClosed" xmlns="http://www.w3.org/2000/svg" viewBox="0 0 179.55 203.71"><defs><style>.cls-1{fill:#e57247;}.cls-2{fill:#a84749;}.cls-3{fill:#3e3e3e;}.cls-4{fill:#b4b4b4;}.cls-5{fill:#676767;}.cls-6{fill:#818181;}.cls-7{fill:#c4e1f6;}.cls-8{fill:#9fd1f1;}.cls-9{fill:#ccc;}.cls-10{fill:#fff;}.cls-11{fill:#399262;}.cls-12{fill:#a8c7a4;}.cls-13{fill:#079247;}.cls-14{fill:#80b282;}.cls-15{fill:#57a160;}.cls-16{fill:#a67375;}.cls-17{fill:#9f7a56;}.cls-18{fill:#bb8953;}.cls-19{fill:#a4616c;}.cls-20{fill:#626fa1;}.cls-21{fill:#d55560;}.cls-22{fill:#c1282d;}.cls-23{fill:#1072ba;}.cls-24{fill:#b9539f;}.cls-25{fill:#f79421;}.cls-26{fill:#d41c5c;}.cls-27{fill:#cfac84;}.cls-28{fill:#ed2079;}.cls-29{fill:#ec2227;}.cls-30{fill:#2aaae2;}.cls-31{fill:#bab157;}.cls-32{fill:#fbb03b;}.cls-33{fill:#f36e4b;}.cls-34{fill:#ab7232;}</style></defs><title>BackpackClosed</title><g id="SleepingBag"><g id="SleepingBag-2" data-name="SleepingBag"><g id="Layer_275" data-name="Layer 275"><path class="cls-1" d="M472.43,519.7c0,14.81-15.51,26.81-34.63,26.81A40.28,40.28,0,0,1,413.71,539c-.75-.56-1.47-1.15-2.15-1.75-5.23-4.7-8.39-10.83-8.39-17.51a22.83,22.83,0,0,1,6.25-15.37,29.93,29.93,0,0,1,3.15-3c6.32-5.19,15.28-8.44,25.23-8.44C456.92,492.89,472.43,504.9,472.43,519.7Z" transform="translate(-347.92 -491.03)"/><path class="cls-2" d="M472.31,539.74c0,14.81-15.51,26.81-34.63,26.81A40.28,40.28,0,0,1,413.59,559c-.75-.56-1.47-1.15-2.15-1.75-5.23-4.7-8.39-10.83-8.39-17.51a22.83,22.83,0,0,1,6.25-15.37,29.93,29.93,0,0,1,3.15-3c6.32-5.19,15.28-8.44,25.23-8.44C456.8,512.93,472.31,524.94,472.31,539.74Z" transform="translate(-347.92 -491.03)"/><path class="cls-2" d="M385.05,522.54a8.95,8.95,0,0,1-8.94,9H356.86a8.94,8.94,0,0,1-6.32-15.27,8.67,8.67,0,0,1,.72-.64,8.86,8.86,0,0,1,5.6-2h19.25A8.94,8.94,0,0,1,385.05,522.54Z" transform="translate(-347.92 -491.03)"/><path class="cls-1" d="M376.67,516.29V528.8a4.51,4.51,0,0,1-2,3.89l-1.87.93-1.65.82-10.68,5.29a7.21,7.21,0,0,1-4.69.79,3.5,3.5,0,0,1-2.9-3.67V508.24a3.5,3.5,0,0,1,2.9-3.68,7.29,7.29,0,0,1,4.69.8l11.21,5.55,2.57,1.28.42.21A4.52,4.52,0,0,1,376.67,516.29Z" transform="translate(-347.92 -491.03)"/><path class="cls-2" d="M376.67,516.29V528.8a4.51,4.51,0,0,1-2,3.89l-1.87.93-1.65.82-10.68,5.29a7.21,7.21,0,0,1-4.69.79v-36a7.29,7.29,0,0,1,4.69.8l11.21,5.55,2.57,1.28.42.21A4.52,4.52,0,0,1,376.67,516.29Z" transform="translate(-347.92 -491.03)"/><path class="cls-1" d="M397.91,510.47V531c0,2.64-1.36,5.46-3.22,6.38l-3.07,1.52-2.71,1.35L371.38,549a12.53,12.53,0,0,1-6.85,1.44,5.83,5.83,0,0,1-5.62-6.17v-47c0-6,6.2-7.85,12.47-4.74l18.39,9.12,4.23,2.1.69.34C396.55,505,397.91,507.83,397.91,510.47Z" transform="translate(-347.92 -491.03)"/><path class="cls-1" d="M351.26,515.58v13.93a8.94,8.94,0,0,1-.72-13.29A8.67,8.67,0,0,1,351.26,515.58Z" transform="translate(-347.92 -491.03)"/><path class="cls-2" d="M397.91,521.89V531c0,2.64-1.36,5.46-3.22,6.38l-3.07,1.52-2.71,1.35L371.38,549a12.53,12.53,0,0,1-6.85,1.44V516.26c0-6,6.2-7.85,12.47-4.74l18.39,9.12Z" transform="translate(-347.92 -491.03)"/></g><path class="cls-2" d="M413.71,504.87v34.6a6.13,6.13,0,0,1-6.13,6.13H395a6.13,6.13,0,0,1-6.07-5.33,5.29,5.29,0,0,1-.06-.8v-34.6a6.08,6.08,0,0,1,.92-3.22l4.23,2.1a6,6,0,0,1,3-.8h8.54a6.13,6.13,0,0,1,3.87,1.38,29.93,29.93,0,0,1,3.15-3A6,6,0,0,1,413.71,504.87Z" transform="translate(-347.92 -491.03)"/><path class="cls-3" d="M411.68,509.08V536a6,6,0,0,1-.12,1.2,6.12,6.12,0,0,1-6,4.93H397a6.14,6.14,0,0,1-6.13-6.13V509.08a6.1,6.1,0,0,1,3.12-5.33,6,6,0,0,1,3-.8h8.54a6.14,6.14,0,0,1,6.13,6.13Z" transform="translate(-347.92 -491.03)"/></g><g id="Layer_275_copy" data-name="Layer 275 copy"><path class="cls-2" d="M490.34,522.54a8.95,8.95,0,0,0,8.94,9h19.25a8.94,8.94,0,0,0,6.32-15.27,8.67,8.67,0,0,0-.72-.64,8.86,8.86,0,0,0-5.6-2H499.28A8.94,8.94,0,0,0,490.34,522.54Z" transform="translate(-347.92 -491.03)"/><path class="cls-1" d="M498.72,516.29V528.8a4.51,4.51,0,0,0,2,3.89l1.87.93,1.65.82,10.68,5.29a7.21,7.21,0,0,0,4.69.79,3.5,3.5,0,0,0,2.9-3.67V508.24a3.5,3.5,0,0,0-2.9-3.68,7.29,7.29,0,0,0-4.69.8l-11.21,5.55-2.57,1.28-.42.21A4.52,4.52,0,0,0,498.72,516.29Z" transform="translate(-347.92 -491.03)"/><path class="cls-2" d="M498.72,516.29V528.8a4.51,4.51,0,0,0,2,3.89l1.87.93,1.65.82,10.68,5.29a7.21,7.21,0,0,0,4.69.79v-36a7.29,7.29,0,0,0-4.69.8l-11.21,5.55-2.57,1.28-.42.21A4.52,4.52,0,0,0,498.72,516.29Z" transform="translate(-347.92 -491.03)"/><path class="cls-1" d="M477.48,510.47V531c0,2.64,1.36,5.46,3.22,6.38l3.07,1.52,2.71,1.35L504,549a12.53,12.53,0,0,0,6.85,1.44,5.83,5.83,0,0,0,5.62-6.17v-47c0-6-6.2-7.85-12.47-4.74l-18.39,9.12-4.23,2.1-.69.34C478.84,505,477.48,507.83,477.48,510.47Z" transform="translate(-347.92 -491.03)"/><path class="cls-1" d="M524.13,515.58v13.93a8.94,8.94,0,0,0,.72-13.29A8.67,8.67,0,0,0,524.13,515.58Z" transform="translate(-347.92 -491.03)"/><path class="cls-2" d="M477.48,521.89V531c0,2.64,1.36,5.46,3.22,6.38l3.07,1.52,2.71,1.35L504,549a12.53,12.53,0,0,0,6.85,1.44V516.26c0-6-6.2-7.85-12.47-4.74L480,520.64Z" transform="translate(-347.92 -491.03)"/></g><path class="cls-2" d="M461.68,504.87v34.6a6.13,6.13,0,0,0,6.13,6.13h12.6a6.13,6.13,0,0,0,6.07-5.33,5.29,5.29,0,0,0,.06-.8v-34.6a6.08,6.08,0,0,0-.92-3.22l-4.23,2.1a6,6,0,0,0-3-.8h-8.54a6.13,6.13,0,0,0-3.87,1.38,29.93,29.93,0,0,0-3.15-3A6,6,0,0,0,461.68,504.87Z" transform="translate(-347.92 -491.03)"/><path class="cls-3" d="M463.71,509.08V536a6,6,0,0,0,.12,1.2,6.12,6.12,0,0,0,6,4.93h8.54a6.14,6.14,0,0,0,6.13-6.13V509.08a6.1,6.1,0,0,0-3.12-5.33,6,6,0,0,0-3-.8h-8.54a6.14,6.14,0,0,0-6.13,6.13Z" transform="translate(-347.92 -491.03)"/></g><g id="Battery"><path class="cls-4" d="M380.78,589.28V553.75c0-5.79-1.1-13.16,3.91-17.24,5.5-4.5,12.32-.4,13.86,5.8.81,3.25.31,7.17.31,10.51v11.71c0,3.86,6,3.87,6,0,0-11.69,3.6-32.63-12.49-35.79-11.18-2.18-17.7,8.86-17.59,18.49.15,14,0,28,0,42,0,3.86,6,3.86,6,0Z" transform="translate(-347.92 -491.03)"/><path class="cls-5" d="M378,593.06V551.55c0-7.35-1-16,6.74-20,6.82-3.56,14.67.92,16.5,8.1.91,3.55.34,7.61.34,11.24v14c0,3.86,6,3.87,6,0,0-7.73.54-15.67,0-23.37a19,19,0,0,0-7.23-13.58c-8.55-6.66-20.79-3.6-26,5.71-3,5.38-2.37,11.64-2.37,17.58v41.87c0,3.86,6,3.87,6,0Z" transform="translate(-347.92 -491.03)"/><path class="cls-6" d="M374.94,599.94V563.88c0-6.19,0-12.38,0-18.57a27.14,27.14,0,0,1,.44-7.2,15.56,15.56,0,0,1,13.91-11.35c7.54-.32,14.28,5.63,15.32,13,.57,4.1.08,8.55.08,12.69v14.85c0,3.86,6,3.87,6,0,0-9.14,1-18.89-.09-28a21.32,21.32,0,0,0-8.8-14.71c-10.4-7.43-25.1-3.32-30.74,8-2.94,5.92-2.12,13.06-2.12,19.51v47.77c0,3.86,6,3.87,6,0Z" transform="translate(-347.92 -491.03)"/><rect class="cls-6" x="26.64" y="184.46" width="8.85" height="7.15" rx="3.57"/><rect class="cls-7" x="16.61" y="90.26" width="26.95" height="87.43"/><rect class="cls-8" x="19.59" y="90.26" width="23.97" height="87.43"/><circle class="cls-7" cx="34.27" cy="112.41" r="3.2"/><circle class="cls-7" cx="26.64" cy="161.5" r="3.05"/><circle class="cls-7" cx="32.74" cy="143.24" r="3.64"/><circle class="cls-7" cx="27.9" cy="127.5" r="3.16"/><path class="cls-5" d="M396.3,661.52v14.41a3.14,3.14,0,0,1-3.14,3.13H364.81a3.14,3.14,0,0,1-3.14-3.13V661.52a3.16,3.16,0,0,1,3.14-3.14h28.35a3.16,3.16,0,0,1,3.14,3.14Z" transform="translate(-347.92 -491.03)"/><path class="cls-5" d="M396.3,574.4v13.79a3.45,3.45,0,0,1-3.45,3.44H365.12a3.45,3.45,0,0,1-3.45-3.44V574.4a3.46,3.46,0,0,1,3.45-3.45h27.73a3.46,3.46,0,0,1,3.45,3.45Z" transform="translate(-347.92 -491.03)"/><rect class="cls-9" x="16.87" y="80.38" width="6.81" height="17.54" rx="1.76"/><rect class="cls-9" x="16.87" y="167.35" width="6.81" height="18" rx="1.62"/><rect class="cls-10" x="21.21" y="102.47" width="4.94" height="43.73" rx="2.47"/><circle class="cls-10" cx="32.74" cy="110.8" r="1.5"/><circle class="cls-10" cx="26.14" cy="125.38" r="1.5"/><circle class="cls-10" cx="30.61" cy="141.11" r="1.5"/><circle class="cls-10" cx="25.14" cy="160" r="1.5"/><rect class="cls-9" x="21.53" y="53.21" width="2.39" height="15.32" rx="1.2"/><rect class="cls-9" x="21.53" y="48.71" width="2.39" height="2.39" rx="1.2"/><path class="cls-9" d="M395.74,572.52H362.23a3.46,3.46,0,0,1,2.89-1.57h27.73A3.46,3.46,0,0,1,395.74,572.52Z" transform="translate(-347.92 -491.03)"/><path class="cls-9" d="M395.73,659.73H362.24a3.11,3.11,0,0,1,2.57-1.35h28.35A3.11,3.11,0,0,1,395.73,659.73Z" transform="translate(-347.92 -491.03)"/></g><g id="Layer_272" data-name="Layer 272"><rect class="cls-11" x="68.88" y="34.03" width="10.45" height="28.09"/><rect class="cls-11" x="100.63" y="34.03" width="10.45" height="28.09"/><polygon class="cls-12" points="68.88 34.03 78.75 25.4 101.01 25.4 110.88 34.03 68.88 34.03"/><rect class="cls-13" x="497.44" y="627.56" width="6.75" height="19.66" transform="translate(-651.94 49.78) rotate(-45)"/><path class="cls-14" d="M507.45,623.82v45.81a7.85,7.85,0,0,1-7.83,7.83h-14a7.75,7.75,0,0,1-4.1-1.17,7.85,7.85,0,0,1-3.73-6.66V623.82a7.86,7.86,0,0,1,6.57-7.73,7.48,7.48,0,0,1,1.26-.1h14A7.85,7.85,0,0,1,507.45,623.82Z" transform="translate(-347.92 -491.03)"/><path class="cls-15" d="M510.15,621.15v20.68l-2.7-2.7-10.79-10.79-4.15-4.14-8.11-8.11L483,614.66l-.35-.35.21-.11a7.67,7.67,0,0,1,3.57-.88h15.92a7.83,7.83,0,0,1,7.15,4.65A7.69,7.69,0,0,1,510.15,621.15Z" transform="translate(-347.92 -491.03)"/><path class="cls-11" d="M496.66,613.32v64.14h-11a7.86,7.86,0,0,1-7.83-7.83V623.82a7.86,7.86,0,0,1,6.57-7.73l-1.78-1.78a7.69,7.69,0,0,1,3.78-1Z" transform="translate(-347.92 -491.03)"/></g><path class="cls-16" d="M507.45,665v4.64a7.85,7.85,0,0,1-7.83,7.83h-4.91v1.11a16.05,16.05,0,0,1-3.3,9.78,14.71,14.71,0,0,1-9.85-12.06,13.6,13.6,0,0,1-.12-1.7,17,17,0,0,0,.38-2.59c0-.37,0-.74.05-1.11v-.2a18,18,0,0,0-4-11.4,17.57,17.57,0,0,0-3.41-3.26,14.74,14.74,0,0,1,14.41-11.69,14.73,14.73,0,0,1,14.72,14.71,14,14,0,0,1-.22,2.52A14.48,14.48,0,0,1,507.45,665Z" transform="translate(-347.92 -491.03)"/><path class="cls-16" d="M509.47,618a14.71,14.71,0,0,1-26.5-3.31c-.05-.15-.1-.3-.14-.46a7.67,7.67,0,0,1,3.57-.88h15.92A7.83,7.83,0,0,1,509.47,618Z" transform="translate(-347.92 -491.03)"/><rect class="cls-14" x="37.19" y="55.48" width="105.15" height="80.03" rx="16.17"/><path class="cls-14" d="M494.71,629.49v49.08a16.18,16.18,0,0,1-16.18,16.17H396.84a16.17,16.17,0,0,1-16.18-16.17V629.49a16.19,16.19,0,0,1,16.18-16.17h81.69a16.05,16.05,0,0,1,8.9,2.67,16.28,16.28,0,0,1,4,3.71A16,16,0,0,1,494.71,629.49Z" transform="translate(-347.92 -491.03)"/><path class="cls-12" d="M491.4,619.7a11.42,11.42,0,0,1-.61,3.1l-8.06,23.56c-1.61,4.71-7.89,8.29-14.12,8.29H406.76c-6.23,0-12.51-3.58-14.12-8.29l-8.06-23.56a11.42,11.42,0,0,1-.61-3.1,16.12,16.12,0,0,1,12.87-6.38h81.69A16.12,16.12,0,0,1,491.4,619.7Z" transform="translate(-347.92 -491.03)"/><path class="cls-11" d="M490.26,562.68v34.2c-1.54,7.36-8.07,13-14.89,13H400c-6.82,0-13.35-5.63-14.89-13v-34.2a16.17,16.17,0,0,1,16.17-16.17h72.81A16.17,16.17,0,0,1,490.26,562.68Z" transform="translate(-347.92 -491.03)"/><path class="cls-15" d="M496.21,547l0,.28-2.36,14-.95,5.6-3.45,20.41-1.34,8c-1.24,7.32-7.64,13-14.35,13h-72a11.82,11.82,0,0,1-1.88-.15c-6-.93-11.35-6.22-12.47-12.85l-3.55-21-1.24-7.35-.95-5.6-2.36-14,0-.28c-.94-5.55,1.95-10.18,6.48-10.18H489.73C494.26,536.81,497.15,541.44,496.21,547Z" transform="translate(-347.92 -491.03)"/><rect class="cls-11" x="49.84" y="140.24" width="80.07" height="57.27" rx="15.55"/><path class="cls-11" d="M477.83,646.82V673a15.55,15.55,0,0,1-15.54,15.55H414a23.5,23.5,0,0,0-16.23-32.39v-9.34a15.55,15.55,0,0,1,15.55-15.54h49A15.54,15.54,0,0,1,477.83,646.82Z" transform="translate(-347.92 -491.03)"/><path class="cls-15" d="M477.72,642.09v26.18a15.54,15.54,0,0,1-15.54,15.54h-49a15.54,15.54,0,0,1-15.54-15.54V642.09a15.55,15.55,0,0,1,15.54-15.55h49A15.55,15.55,0,0,1,477.72,642.09Z" transform="translate(-347.92 -491.03)"/><path class="cls-14" d="M496.16,547.27l-2.36,14-.95,5.6c-2.88,2.7-8.25,4.55-13.79,4.55H396.31c-5.54,0-10.91-1.85-13.79-4.55l-.95-5.6-2.36-14c.72-3.45,3.15-5.89,6.43-5.89H489.73C493,541.38,495.44,543.82,496.16,547.27Z" transform="translate(-347.92 -491.03)"/><path class="cls-12" d="M496.21,547l-2.41,14.27c-2.51,3.25-8.52,5.58-14.74,5.58H396.31c-6.22,0-12.23-2.33-14.74-5.58L379.16,547c-.94-5.55,1.95-10.18,6.48-10.18H489.73C494.26,536.81,497.15,541.44,496.21,547Z" transform="translate(-347.92 -491.03)"/><path class="cls-11" d="M482.88,626.54l-3.6,15.34c-1,4.16-4.91,7.41-8.82,7.42l-65.43.16c-3.91,0-7.86-3.21-8.86-7.37l-.16-.65-3.52-14.67,43.69-.11Z" transform="translate(-347.92 -491.03)"/><rect class="cls-11" x="82.36" y="110.8" width="14.81" height="19.66"/><g id="GrossShit"><path class="cls-16" d="M496.21,547l0,.28-2.36,14-.95,5.6-3.45,20.41a10.79,10.79,0,0,1-2.86.38,11,11,0,0,1-11-11v-.1A24.76,24.76,0,0,1,454.05,555a23.62,23.62,0,0,1-20.86-18.22h56.54C494.26,536.81,497.15,541.44,496.21,547Z" transform="translate(-347.92 -491.03)"/><path class="cls-16" d="M432.43,575.09a12.57,12.57,0,0,1-17.67,11.49,18.46,18.46,0,0,1,.19,2.7,19.23,19.23,0,0,1-15.17,18.8c-6-.93-11.35-6.22-12.47-12.85l-3.55-21a19.22,19.22,0,0,1,23.59-.25,12.57,12.57,0,0,1,25.08,1.13Z" transform="translate(-347.92 -491.03)"/><path class="cls-16" d="M414,688.55a23.31,23.31,0,0,1-4,6.19H396.84a16.17,16.17,0,0,1-16.18-16.17V638.2A16.37,16.37,0,0,1,392.86,654c0,.52,0,1-.07,1.54a23.22,23.22,0,0,1,5,.59V673a15.55,15.55,0,0,0,15.55,15.55Z" transform="translate(-347.92 -491.03)"/><path class="cls-16" d="M477.72,659.16v9.11a15.54,15.54,0,0,1-15.54,15.54H436.69A16.38,16.38,0,0,1,447,663.6h0A18.16,18.16,0,0,1,474.42,656,17.49,17.49,0,0,1,477.72,659.16Z" transform="translate(-347.92 -491.03)"/><path class="cls-16" d="M436.18,626.66a11.58,11.58,0,0,1-11.49,10.1,11.09,11.09,0,0,1-2.53-.29,16.37,16.37,0,0,1-26.15,5l-3.52-14.67Z" transform="translate(-347.92 -491.03)"/></g><path class="cls-17" d="M419.86,597.83v2.38a4.81,4.81,0,0,1-3.34,4.56v29.54h-.13a7.58,7.58,0,1,1-15.16,0h-.13v-29.6a4.77,4.77,0,0,1-3.19-4.5v-2.38a4.77,4.77,0,0,1,4.76-4.77h12.42A4.78,4.78,0,0,1,419.86,597.83Z" transform="translate(-347.92 -491.03)"/><path class="cls-17" d="M477.45,597.83v2.38a4.8,4.8,0,0,1-3.33,4.56v29.54H474a7.58,7.58,0,1,1-15.16,0h-.13v-29.6a4.77,4.77,0,0,1-3.2-4.5v-2.38a4.78,4.78,0,0,1,4.77-4.77h12.42A4.77,4.77,0,0,1,477.45,597.83Z" transform="translate(-347.92 -491.03)"/><g id="Buckle"><path class="cls-18" d="M416.9,600.24v32h-.13a7.58,7.58,0,1,1-15.16,0h-.13v-32Z" transform="translate(-347.92 -491.03)"/><rect class="cls-18" x="50.37" y="99.92" width="21.95" height="11.91" rx="4.77"/><path class="cls-9" d="M418.53,604.94c-.13-7.18-5.81-8.35-11.88-7.88-7.83.59-6.9,8.7-6.78,14.45.07,3.06.9,5.89,4,7.27,2.28,1,5.22.65,7.67.62h.24l.4,0C419.55,618.34,418.63,610.73,418.53,604.94Zm-15.66,6.57c-.26-3.72-1.12-10.68,3.78-11.45.35-.06.73-.09,1.13-.12a1.54,1.54,0,0,0-.08.5V616a1.87,1.87,0,0,0,0,.34C405.16,616.12,403.12,615.17,402.87,611.51Zm8.88,4.89h-1.1a1.62,1.62,0,0,0,.05-.4V600.44a1.51,1.51,0,0,0-.06-.44l.58.06c3.2.38,4.12,2.07,4.31,4.88C415.77,608.46,416.67,615.9,411.75,616.4Z" transform="translate(-347.92 -491.03)"/><circle class="cls-9" cx="53.55" cy="104.5" r="1.7"/><circle class="cls-9" cx="68.98" cy="104.58" r="1.7"/></g><g id="Buckle-2" data-name="Buckle"><path class="cls-18" d="M474.5,600.24v32h-.13a7.58,7.58,0,1,1-15.16,0h-.13v-32Z" transform="translate(-347.92 -491.03)"/><rect class="cls-18" x="107.96" y="99.92" width="21.95" height="11.91" rx="4.77"/><path class="cls-9" d="M476.12,604.94c-.13-7.18-5.81-8.35-11.88-7.88-7.83.59-6.9,8.7-6.78,14.45.07,3.06.9,5.89,4,7.27,2.28,1,5.22.65,7.67.62h.24l.4,0C477.14,618.34,476.22,610.73,476.12,604.94Zm-15.66,6.57c-.26-3.72-1.12-10.68,3.78-11.45.35-.06.73-.09,1.13-.12a1.54,1.54,0,0,0-.08.5V616a1.87,1.87,0,0,0,0,.34C462.75,616.12,460.71,615.17,460.46,611.51Zm8.88,4.89h-1.1a1.62,1.62,0,0,0,.05-.4V600.44a1.51,1.51,0,0,0-.06-.44l.58.06c3.2.38,4.12,2.07,4.31,4.88C473.36,608.46,474.26,615.9,469.34,616.4Z" transform="translate(-347.92 -491.03)"/><circle class="cls-9" cx="111.15" cy="104.5" r="1.7"/><circle class="cls-9" cx="126.58" cy="104.58" r="1.7"/></g><path class="cls-10" d="M418.53,602.83c-.13-7.18-5.81-8.35-11.88-7.88-7.83.59-6.9,8.7-6.78,14.45.07,3.06.9,5.89,4,7.27,2.28,1,5.22.65,7.67.62h.24l.4,0C419.55,616.23,418.63,608.62,418.53,602.83Zm-15.66,6.57c-.26-3.72-1.12-10.68,3.78-11.45.35-.06.73-.09,1.13-.12a1.54,1.54,0,0,0-.08.5V613.9a1.87,1.87,0,0,0,0,.34C405.16,614,403.12,613.06,402.87,609.4Zm8.88,4.89h-1.1a1.62,1.62,0,0,0,.05-.4V598.33a1.51,1.51,0,0,0-.06-.44l.58.06c3.2.38,4.12,2.07,4.31,4.88C415.77,606.35,416.67,613.79,411.75,614.29Z" transform="translate(-347.92 -491.03)"/><circle class="cls-10" cx="53.55" cy="102.39" r="1.7"/><circle class="cls-10" cx="68.99" cy="102.47" r="1.7"/><path class="cls-10" d="M476.13,602.83c-.13-7.18-5.81-8.35-11.88-7.88-7.83.59-6.9,8.7-6.78,14.45.07,3.06.9,5.89,4,7.27,2.28,1,5.22.65,7.67.62h.24l.4,0C477.15,616.23,476.23,608.62,476.13,602.83Zm-15.66,6.57c-.26-3.72-1.12-10.68,3.78-11.45.35-.06.73-.09,1.13-.12a1.54,1.54,0,0,0-.08.5V613.9a1.87,1.87,0,0,0,0,.34C462.76,614,460.72,613.06,460.47,609.4Zm8.88,4.89h-1.1a1.62,1.62,0,0,0,.05-.4V598.33a1.51,1.51,0,0,0-.06-.44l.58.06c3.2.38,4.12,2.07,4.31,4.88C473.37,606.35,474.27,613.79,469.35,614.29Z" transform="translate(-347.92 -491.03)"/><circle class="cls-10" cx="111.15" cy="102.39" r="1.7"/><circle class="cls-10" cx="126.58" cy="102.47" r="1.7"/><g id="TheCollapse"><path class="cls-10" d="M456.69,547.11l-19.8,0h-9.37L397.13,547h-9.45a3.54,3.54,0,0,0-3.08,1.66,2.92,2.92,0,0,0-.46,1.58l0,27.19a3.4,3.4,0,0,0,3.53,3.26l19.81,0,49.2.07a3.41,3.41,0,0,0,3.55-3.25l0-20.26h0v-6.92A3.4,3.4,0,0,0,456.69,547.11Zm-9.39,2.21a1.22,1.22,0,0,1,.81-.31h3.36a1.13,1.13,0,0,1,1.15,1.07,1,1,0,0,1-.34.75,1.18,1.18,0,0,1-.82.32h-3.35a1.12,1.12,0,0,1-1.16-1.07A1,1,0,0,1,447.3,549.32Zm-55.22-.08a1.18,1.18,0,0,1,.82-.32h3.35a1.12,1.12,0,0,1,1.16,1.06,1,1,0,0,1-.34.75,1.18,1.18,0,0,1-.82.32H392.9a1.12,1.12,0,0,1-1.16-1.06A1,1,0,0,1,392.08,549.24ZM397,578.48a1.18,1.18,0,0,1-.82.32h-3.35a1.12,1.12,0,0,1-1.16-1.07A1,1,0,0,1,392,577a1.22,1.22,0,0,1,.82-.31h3.35a1.12,1.12,0,0,1,1.16,1.06A1,1,0,0,1,397,578.48Zm55.21.09a1.18,1.18,0,0,1-.82.31h-3.35a1.12,1.12,0,0,1-1.16-1.07,1,1,0,0,1,.35-.75,1.2,1.2,0,0,1,.81-.31h3.36a1.12,1.12,0,0,1,1.15,1.07A1,1,0,0,1,452.24,578.57Z" transform="translate(-347.92 -491.03)"/><path class="cls-19" d="M407.44,580.73l-19.81,0a3.4,3.4,0,0,1-3.53-3.26l0-27.19a2.92,2.92,0,0,1,.46-1.58,6.73,6.73,0,0,1,5.89,6.68,6.63,6.63,0,0,1-1.51,4.24,5.5,5.5,0,0,1,.81.92,5.26,5.26,0,0,1,4.24-2.14,5.3,5.3,0,0,1,2.79,9.82,8.53,8.53,0,0,1,2.22,5.75c0,.17,0,.35,0,.52a6.72,6.72,0,0,1,1.35-.13A7.1,7.1,0,0,1,407.44,580.73Z" transform="translate(-347.92 -491.03)"/><path class="cls-19" d="M460.23,550.36v6.92h0a9.73,9.73,0,0,1-4.34,1h-.11a5.76,5.76,0,0,1-11.06-1.85,6.47,6.47,0,0,1-1.71.23,6.74,6.74,0,0,1-6.11-9.61l19.8,0A3.4,3.4,0,0,1,460.23,550.36Z" transform="translate(-347.92 -491.03)"/><path class="cls-19" d="M427.66,548.58a8.55,8.55,0,0,1-8.55,8.55,8.15,8.15,0,0,1-2.33-.33,5.17,5.17,0,0,1-9.56-2.75,5,5,0,0,1,.24-1.56,8.37,8.37,0,0,1-2.25.3,8.54,8.54,0,0,1-8.08-5.77l30.39.05h0A9.32,9.32,0,0,1,427.66,548.58Z" transform="translate(-347.92 -491.03)"/><path class="cls-20" d="M455.59,580l-66.9-.1a3.85,3.85,0,0,1-4-3.67l0-24.85a3.85,3.85,0,0,1,4-3.66l66.89.1a3.84,3.84,0,0,1,4,3.67l0,24.85A3.83,3.83,0,0,1,455.59,580ZM388.74,548.6a3,3,0,0,0-3.09,2.82l0,24.85a3,3,0,0,0,3.08,2.84l66.9.1a3,3,0,0,0,3.09-2.83l0-24.85a3,3,0,0,0-3.08-2.83Z" transform="translate(-347.92 -491.03)"/><path class="cls-21" d="M408.55,550.64s0,.06,0,.12a.74.74,0,0,1-.07.21,1.08,1.08,0,0,0-.07.18l0,.11q0,.29-.09.6c0,.21-.06.45-.1.7l0,.21,0,.21c0,.06,0,.12,0,.17v.1a.11.11,0,0,0,0,0,.14.14,0,0,0,0,.06l0,0a.11.11,0,0,1,0,.05.23.23,0,0,1,0,.11.36.36,0,0,1-.13.11.42.42,0,0,1-.13.07l-.14,0a.3.3,0,0,1-.2-.06.45.45,0,0,1-.14-.31.82.82,0,0,1,0-.14,1.69,1.69,0,0,1,0-.23,1.49,1.49,0,0,1,0-.21,3.77,3.77,0,0,1,.06-.39c0-.14.06-.3.09-.47l0-.12,0-.2.05-.23c0-.09,0-.16,0-.24a1.77,1.77,0,0,0,0-.2c0-.06,0-.1,0-.13a1.05,1.05,0,0,0,0-.13s0-.05,0-.08,0,0,0-.08l0-.13h0a.23.23,0,0,1,0-.09l.06-.09.09-.07a.18.18,0,0,1,.1,0,.38.38,0,0,1,.19,0,.46.46,0,0,1,.12.12.52.52,0,0,1,.09.28Z" transform="translate(-347.92 -491.03)"/><path class="cls-21" d="M411.77,551.49a.5.5,0,0,1,.1-.11l.12-.09.12-.08a.29.29,0,0,1,.21,0l.1,0a.19.19,0,0,1,.06.07.16.16,0,0,1,0,.09.27.27,0,0,1,0,.12.48.48,0,0,1-.09.11l-.1.11-.11.1-.08.08,0,0s0,0,.06.09l.15.14.19.15.2.14.15.11a.33.33,0,0,1,.08.11l.17-.12.16-.13.19-.17.27-.26.17-.16.14-.14.13-.09.1,0a.11.11,0,0,1,.09,0,.18.18,0,0,1,0,.11.49.49,0,0,1,0,.1,1.12,1.12,0,0,1-.11.15l-.15.2c-.05.07-.11.13-.17.2l-.17.19-.14.14-.05.05-.1.08-.12.11-.13.11-.1.09-.06.06-.06.06-.11.11-.14.13-.13.14-.11.11-.07.06-.3.21a.61.61,0,0,1-.3.08h-.14l-.11,0a.14.14,0,0,1-.07-.06.16.16,0,0,1,0-.09.25.25,0,0,1,.06-.16.7.7,0,0,1,.16-.13l.21-.12.21-.1a.77.77,0,0,0,.23-.2.37.37,0,0,0,.08-.21.26.26,0,0,0-.1-.18c-.07-.06-.19-.14-.34-.24a.57.57,0,0,1-.18-.12l-.13-.13a.5.5,0,0,1-.08-.14.26.26,0,0,1,0-.11.81.81,0,0,1,0-.16.83.83,0,0,1,0-.15.7.7,0,0,1,.08-.14Z" transform="translate(-347.92 -491.03)"/><path class="cls-21" d="M418.47,551.6a.06.06,0,0,1,0,0v0c-.07.12-.14.24-.23.37a4.57,4.57,0,0,1-.29.36,2.58,2.58,0,0,1-.32.34,2.86,2.86,0,0,1-.33.29,2.37,2.37,0,0,1-.34.19.73.73,0,0,1-.31.07,1.18,1.18,0,0,1-.28,0,.55.55,0,0,1-.22-.14.68.68,0,0,1-.14-.25,1,1,0,0,1-.06-.36.94.94,0,0,1-.1.14,1,1,0,0,1-.13.16,1.07,1.07,0,0,1-.14.16l-.14.13-.16.12a1.64,1.64,0,0,1-.22.14,1.11,1.11,0,0,1-.27.12,1.42,1.42,0,0,1-.31.06.75.75,0,0,1-.34-.07.47.47,0,0,1-.19-.18.63.63,0,0,1-.09-.24,2.35,2.35,0,0,1,0-.26v-.07a1.15,1.15,0,0,1,0-.14,1.41,1.41,0,0,1,0-.18,1.74,1.74,0,0,1,.05-.22A.9.9,0,0,1,414,552a1.43,1.43,0,0,1,.08-.22l0-.09,0-.07.08-.05s.06,0,.1,0a.29.29,0,0,1,.14,0l.09.06a.18.18,0,0,1,0,.09.44.44,0,0,1,0,.1.34.34,0,0,1,0,.13l-.08.23c0,.09-.05.19-.08.31a2.25,2.25,0,0,0,0,.38.35.35,0,0,0,0,.16.12.12,0,0,0,.1.06l.17,0,.16-.07.15-.09.14-.1.17-.15.19-.2.17-.21.12-.18,0-.1a.91.91,0,0,0,.07-.14l0-.14a.54.54,0,0,0,0-.1l0-.06v0s0,0,0-.06l0-.06s0,0,0-.06l.06,0,.09,0h.08a.24.24,0,0,1,.18.06.18.18,0,0,1,.07.15l0,.17c0,.07,0,.16-.06.25s0,.19,0,.29,0,.19,0,.27a.77.77,0,0,0,.06.34.21.21,0,0,0,.19.13.49.49,0,0,0,.19-.05,1.13,1.13,0,0,0,.21-.12l.21-.17.21-.21.21-.22.18-.22.22-.24a.34.34,0,0,1,.2-.1h0l.05,0,0,0A.08.08,0,0,1,418.47,551.6Z" transform="translate(-347.92 -491.03)"/><path class="cls-21" d="M420.3,551.87a.18.18,0,0,1-.08.09l-.1,0h-.31a.59.59,0,0,0-.21,0l-.26.13-.25.16-.22.19-.11.12-.13.15a.54.54,0,0,0-.1.16.27.27,0,0,0,0,.14,1.21,1.21,0,0,0,0,.18,1.64,1.64,0,0,1,0,.22v.08s0,0,0,.07l0,.07-.07.06-.09.06-.1,0a.2.2,0,0,1-.15-.06.37.37,0,0,1-.1-.16,1.37,1.37,0,0,1,0-.25,2.83,2.83,0,0,1,0-.3v-.4a.21.21,0,0,1,0-.06.62.62,0,0,1,0-.13s0-.11,0-.17,0-.11,0-.17V552s0-.07,0-.08v0a.31.31,0,0,0,0-.1s0-.08,0-.12a.64.64,0,0,1,0-.09.28.28,0,0,1,.05-.09l.08-.08a.5.5,0,0,1,.12-.08.31.31,0,0,1,.13,0,.26.26,0,0,1,.14,0,.16.16,0,0,1,.08.06.13.13,0,0,1,0,.07.2.2,0,0,1,0,.07.34.34,0,0,1,0,.09s0,.1,0,.15a1.31,1.31,0,0,0-.06.25c0,.1,0,.19,0,.27.1-.1.2-.2.32-.3a2.39,2.39,0,0,1,.35-.28,2,2,0,0,1,.37-.21,1,1,0,0,1,.37-.08.43.43,0,0,1,.17,0,.57.57,0,0,1,.13.08.39.39,0,0,1,.08.1.2.2,0,0,1,0,.11h0A.47.47,0,0,1,420.3,551.87Z" transform="translate(-347.92 -491.03)"/><path class="cls-21" d="M424.63,551.72s0,0,0,0l-.05.06-.07.06-.07,0-.27.08-.3,0-.25,0h-.15s-.05,0-.1.09l-.18.24c-.07.09-.14.2-.22.32l-.23.37-.19.29a3.1,3.1,0,0,0-.18.26l-.16.2-.13.12-.09,0h-.1a.34.34,0,0,1-.18,0,.22.22,0,0,1-.13-.12,2.51,2.51,0,0,1-.11-.23c0-.09-.07-.18-.1-.27s-.07-.2-.1-.3l-.09-.31c-.05-.18-.1-.35-.14-.52a2.41,2.41,0,0,0-.15-.43.17.17,0,0,1,0-.11.41.41,0,0,1,.11-.07.31.31,0,0,1,.12-.05l.1,0h.07l.08,0,.06,0,.05,0a.87.87,0,0,1,.07.17,1.17,1.17,0,0,1,.05.2,1.3,1.3,0,0,1,0,.21c0,.07,0,.15,0,.23s0,.15,0,.23a2.38,2.38,0,0,1,.05.26l.06.27c0,.08.05.16.07.23a1,1,0,0,0,.1-.14l.12-.21.12-.22c0-.08.08-.15.11-.22a3.72,3.72,0,0,0,.21-.39,2,2,0,0,1,.21-.32l.08-.09.11-.12a.56.56,0,0,1,.15-.1.41.41,0,0,1,.19,0h.16l.14,0,.17,0h.35l.16,0,.14,0h.09s.06,0,.07,0A.2.2,0,0,1,424.63,551.72Z" transform="translate(-347.92 -491.03)"/><path class="cls-21" d="M426.42,553l-.16.15-.16.13-.16.13-.17.12a2.61,2.61,0,0,1-.37.19,1,1,0,0,1-.66,0,.63.63,0,0,1-.23-.16.73.73,0,0,1-.16-.23,1.69,1.69,0,0,1-.1-.27,2.5,2.5,0,0,1-.05-.29c0-.1,0-.19,0-.28a1,1,0,0,1,0-.15,1.5,1.5,0,0,1,0-.2l0-.2c0-.07,0-.13,0-.17a.37.37,0,0,1,.07-.12l.11-.1a.53.53,0,0,1,.31-.11.17.17,0,0,1,.18.2,1,1,0,0,1,0,.15l0,.19,0,.19a1,1,0,0,0,0,.16s0,.09,0,.12v.11a1.62,1.62,0,0,0,0,.21,1.08,1.08,0,0,0,0,.21.67.67,0,0,0,.07.17s.06.07.1.07l.18,0a.65.65,0,0,0,.22-.08,1.49,1.49,0,0,0,.24-.14l.25-.18.23-.19.23-.2.1-.1.08-.08.08-.07.07-.07,0,0,0,0,0,0H427a.08.08,0,0,1,.05.05.14.14,0,0,1,0,.07v.05a.45.45,0,0,1,0,.08l-.08.13-.11.16a1.83,1.83,0,0,0-.13.16l-.14.16Zm-1-2.84a.68.68,0,0,1,0,.15.64.64,0,0,1-.08.14.36.36,0,0,1-.31.13h-.15l-.14,0a.17.17,0,0,1-.1-.06.08.08,0,0,1,0-.07.32.32,0,0,1,0-.16.91.91,0,0,1,.11-.16.44.44,0,0,1,.15-.12.3.3,0,0,1,.15,0h.17l.12,0a.2.2,0,0,1,.08.08A.37.37,0,0,1,425.39,550.19Z" transform="translate(-347.92 -491.03)"/><path class="cls-21" d="M430.6,552.67a.16.16,0,0,1,0,.09l-.08.1-.12.09-.14.08a1.18,1.18,0,0,1-.3.1,1.73,1.73,0,0,1-.32,0l-.22,0a.72.72,0,0,1-.22-.1.69.69,0,0,1-.18-.16.43.43,0,0,1-.1-.24l0,.09,0,.09-.05.1a.41.41,0,0,0,0,.09c-.05.08-.09.16-.15.24l-.16.23-.15.2a1,1,0,0,1-.12.15.57.57,0,0,1-.14.13l-.13.07-.12,0h-.18l-.09,0-.07-.06a.18.18,0,0,1-.05-.08,1.82,1.82,0,0,0-.05-.35,3.89,3.89,0,0,0-.17-.53,3.12,3.12,0,0,1-.19-.6,2,2,0,0,1-.06-.44.36.36,0,0,1,.11-.26.4.4,0,0,1,.3-.1l.13,0,.09.06a.41.41,0,0,1,.05.09.41.41,0,0,1,0,.11.34.34,0,0,1,0,.14.68.68,0,0,0,0,.14.62.62,0,0,0,0,.18c0,.07,0,.15.05.23a2.17,2.17,0,0,0,.07.24c0,.08.05.16.07.23s.05.15.07.22,0,.13.05.18l.1-.13.11-.16.1-.17a.8.8,0,0,0,.09-.14l.08-.16a1.14,1.14,0,0,0,.1-.19,1.54,1.54,0,0,0,.08-.19.94.94,0,0,0,.06-.18.34.34,0,0,1,.11-.18.33.33,0,0,1,.22-.08l.09,0a.2.2,0,0,1,.09,0,.22.22,0,0,1,.07.09.32.32,0,0,1,0,.14.76.76,0,0,0,.05.27.56.56,0,0,0,.12.2.48.48,0,0,0,.16.13.41.41,0,0,0,.17,0h.13l.14,0,.14,0,.11,0,.14-.07.13,0q.08,0,.09,0S430.6,552.65,430.6,552.67Z" transform="translate(-347.92 -491.03)"/><path class="cls-21" d="M433.6,552.1a.37.37,0,0,1-.07.16c-.09.12-.2.25-.31.37s-.23.23-.36.34-.26.2-.4.29a2.25,2.25,0,0,1-.42.24,2.41,2.41,0,0,1-.42.16,1.58,1.58,0,0,1-.42.06,1,1,0,0,1-.71-.24.93.93,0,0,1-.25-.71,2.34,2.34,0,0,1,0-.38,1.61,1.61,0,0,1,.1-.36,2,2,0,0,1,.17-.36,3.92,3.92,0,0,1,.27-.33l.14-.12a1,1,0,0,1,.17-.1l.18-.07a.69.69,0,0,1,.2,0,.6.6,0,0,1,.24.05.59.59,0,0,1,.17.13.69.69,0,0,1,.1.19.85.85,0,0,1,0,.23.77.77,0,0,1-.18.45,2.69,2.69,0,0,1-.48.47,2.49,2.49,0,0,1-.24.17l-.3.21a.36.36,0,0,0,0,.11.28.28,0,0,0,.09.1.59.59,0,0,0,.14.06.5.5,0,0,0,.18,0,.69.69,0,0,0,.28,0,1.82,1.82,0,0,0,.29-.08l.28-.11.24-.14a3.73,3.73,0,0,0,.38-.28c.13-.1.24-.21.36-.31l.14-.13a.43.43,0,0,1,.25-.12.08.08,0,0,1,.07,0A.1.1,0,0,1,433.6,552.1Zm-2.07-.45a.3.3,0,0,0,0-.1s0-.06,0-.06a.29.29,0,0,0-.2.07.61.61,0,0,0-.19.2,1.14,1.14,0,0,0-.17.31,1.64,1.64,0,0,0-.11.41l.25-.18a2.33,2.33,0,0,0,.23-.19.87.87,0,0,0,.17-.22A.55.55,0,0,0,431.53,551.65Z" transform="translate(-347.92 -491.03)"/><path class="cls-21" d="M437,552.89a.11.11,0,0,1,0,.05l0,.08,0,.07,0,0a2.62,2.62,0,0,1-.22.25,1.21,1.21,0,0,1-.24.21,1.34,1.34,0,0,1-.27.13.83.83,0,0,1-.32,0l-.15,0a.48.48,0,0,1-.16-.08.49.49,0,0,1-.13-.12.72.72,0,0,1-.11-.15s0-.1-.07-.16,0-.12-.05-.18a1.55,1.55,0,0,1,0-.21,1.48,1.48,0,0,1,0-.21v-.07l-.14.2c0,.07-.11.13-.17.2a1.89,1.89,0,0,1-.2.2,1.57,1.57,0,0,1-.19.18,1.87,1.87,0,0,1-.55.33,1.46,1.46,0,0,1-.58.11.34.34,0,0,1-.18,0,.53.53,0,0,1-.13-.13.51.51,0,0,1-.07-.17.57.57,0,0,1,0-.18,1.09,1.09,0,0,1,0-.19.47.47,0,0,1,0-.14,4.91,4.91,0,0,1,.25-.57,2.85,2.85,0,0,1,.35-.53,1.83,1.83,0,0,1,.13-.16l.16-.16.17-.14.17-.1.24-.08a.93.93,0,0,1,.31,0,.42.42,0,0,1,.16,0,.45.45,0,0,1,.13.11,1,1,0,0,1,.09.15.84.84,0,0,1,.05.17c0-.06,0-.14,0-.22s0-.17,0-.26l0-.28a2.7,2.7,0,0,0,0-.28,2.48,2.48,0,0,1,0-.33.85.85,0,0,1,.06-.19.28.28,0,0,1,.1-.09.22.22,0,0,1,.16,0l.12,0,.1,0,.07.06a.14.14,0,0,1,0,.07.34.34,0,0,1,0,.09s0,.11,0,.18a2.61,2.61,0,0,0-.06.26c0,.1,0,.22-.07.35a.46.46,0,0,1,0,.1l0,.15a.68.68,0,0,1,0,.15s0,.07,0,.08,0,.24,0,.35,0,.22,0,.33a3.68,3.68,0,0,0,0,.51,2,2,0,0,0,.08.35.68.68,0,0,0,.1.21.17.17,0,0,0,.13.07.39.39,0,0,0,.15,0,.52.52,0,0,0,.16-.06l.17-.12.19-.18.12-.11a.22.22,0,0,1,.14-.05.09.09,0,0,1,.08,0A.22.22,0,0,1,437,552.89Zm-2.34-.39.08-.1.07-.12s-.06,0-.06-.08a.36.36,0,0,1,0-.1V552a.13.13,0,0,0,0-.06v-.11a.31.31,0,0,0,0-.08.41.41,0,0,0,0-.09l-.06-.08-.06,0-.08,0-.11.09a.68.68,0,0,0-.12.12l-.14.15-.13.16a.79.79,0,0,0-.12.15,2.29,2.29,0,0,0-.15.24l-.11.19a1.43,1.43,0,0,0-.1.25.68.68,0,0,0,0,.19q0,.15.06.15l.13,0,.2-.1a3.24,3.24,0,0,0,.4-.29l.25-.24Z" transform="translate(-347.92 -491.03)"/><path class="cls-20" d="M387,557.54h5.32v1.66H387Zm2,1.26h1.26l0,14.11H389Z" transform="translate(-347.92 -491.03)"/><path class="cls-20" d="M393.09,557.55h1.27l0,15.36h-1.26Zm1,7h3.36v1.66H394Zm2.84-7h1.26l0,15.37h-1.26Z" transform="translate(-347.92 -491.03)"/><path class="cls-20" d="M399.65,557.56h1.26l0,15.36h-1.26Zm.75,0h4v1.66h-4Zm0,6.9H404v1.67h-3.59Zm0,6.8h4v1.66h-4Z" transform="translate(-347.92 -491.03)"/><path class="cls-20" d="M408.9,572.63a2.88,2.88,0,0,1-.87-1.35,6.6,6.6,0,0,1-.3-2.12v-7.81a6.94,6.94,0,0,1,.31-2.13,2.85,2.85,0,0,1,.87-1.34,2.26,2.26,0,0,1,2.76,0,2.88,2.88,0,0,1,.87,1.35,6.62,6.62,0,0,1,.29,2.12V562h-1.26v-.61a4.18,4.18,0,0,0-.15-1.2,1.6,1.6,0,0,0-.44-.76,1,1,0,0,0-.69-.27,1,1,0,0,0-.7.26,1.74,1.74,0,0,0-.44.76,4.3,4.3,0,0,0-.15,1.21v7.81a4.18,4.18,0,0,0,.15,1.2,1.52,1.52,0,0,0,.44.76,1,1,0,0,0,.69.26,1,1,0,0,0,.7-.25,1.69,1.69,0,0,0,.43-.76,4.18,4.18,0,0,0,.15-1.2v-.62h1.26v.61a6.65,6.65,0,0,1-.3,2.12,2.9,2.9,0,0,1-.87,1.34,2.26,2.26,0,0,1-2.76,0Z" transform="translate(-347.92 -491.03)"/><path class="cls-20" d="M415.44,572.65a2.78,2.78,0,0,1-.93-1.32,6,6,0,0,1-.32-2.1v-7.94a6.18,6.18,0,0,1,.32-2.1,2.81,2.81,0,0,1,.94-1.32,2.63,2.63,0,0,1,2.94,0,2.71,2.71,0,0,1,.93,1.33,6.16,6.16,0,0,1,.32,2.09l0,8a5.85,5.85,0,0,1-.32,2.09,2.73,2.73,0,0,1-.93,1.32,2.36,2.36,0,0,1-1.47.46A2.45,2.45,0,0,1,415.44,572.65Zm2.26-1.51a1.52,1.52,0,0,0,.5-.71,3.33,3.33,0,0,0,.18-1.12v-8.09a3.34,3.34,0,0,0-.17-1.12,1.54,1.54,0,0,0-.51-.71,1.27,1.27,0,0,0-.78-.24,1.24,1.24,0,0,0-.79.24,1.43,1.43,0,0,0-.5.7,3.13,3.13,0,0,0-.18,1.12v8.1a3.34,3.34,0,0,0,.17,1.12,1.52,1.52,0,0,0,.5.71,1.42,1.42,0,0,0,1.58,0Z" transform="translate(-347.92 -491.03)"/><path class="cls-20" d="M421.16,557.59h1.26l0,15.37h-1.26Zm.75,13.71h3.79V573h-3.78Z" transform="translate(-347.92 -491.03)"/><path class="cls-20" d="M426.85,557.6h1.26l0,15.36h-1.26Zm.75,13.7h3.78V573h-3.79Z" transform="translate(-347.92 -491.03)"/><path class="cls-20" d="M434.54,557.61h1.31L438.36,573H437l-1.8-13L433.36,573H432Zm-1,10.16H437v1.66h-3.5Z" transform="translate(-347.92 -491.03)"/><path class="cls-20" d="M439.37,557.61h1.26l0,15.36h-1.26Zm.78,7.75h2.21a.71.71,0,0,0,.54-.2,1.23,1.23,0,0,0,.35-.57,3.35,3.35,0,0,0,.11-.9V561a3.25,3.25,0,0,0-.12-.94,1.25,1.25,0,0,0-.34-.59.8.8,0,0,0-.54-.2h-2.21v-1.65h2.16a2,2,0,0,1,1.26.4,2.4,2.4,0,0,1,.79,1.15,5.41,5.41,0,0,1,.27,1.82v2.74a5.24,5.24,0,0,1-.28,1.78,2.37,2.37,0,0,1-.8,1.12,2,2,0,0,1-1.25.39h-2.16Z" transform="translate(-347.92 -491.03)"/><path class="cls-20" d="M447.06,572.74a2.45,2.45,0,0,1-.89-1.21,5.71,5.71,0,0,1-.3-2v-.76h1.25v.73a2.49,2.49,0,0,0,.35,1.47,1.36,1.36,0,0,0,2.1,0,2.58,2.58,0,0,0,.34-1.47v-1.12a2.47,2.47,0,0,0-.22-1.11,2.37,2.37,0,0,0-.54-.76,6.65,6.65,0,0,0-.88-.67l0,0,0,0-.1-.07a8.56,8.56,0,0,1-1.17-.91,3.25,3.25,0,0,1-.76-1.16,4.66,4.66,0,0,1-.31-1.83V561a6.07,6.07,0,0,1,.3-2,2.4,2.4,0,0,1,.9-1.19,2.51,2.51,0,0,1,1.46-.4,2.38,2.38,0,0,1,1.42.41,2.49,2.49,0,0,1,.87,1.21,5.91,5.91,0,0,1,.29,2v.8h-1.25v-.76a2.65,2.65,0,0,0-.33-1.46,1.13,1.13,0,0,0-1-.5,1.24,1.24,0,0,0-1.05.46,2.31,2.31,0,0,0-.35,1.39v.85a2.39,2.39,0,0,0,.23,1.1,2.16,2.16,0,0,0,.55.73,7.86,7.86,0,0,0,.9.66l.11.08.1.07.08,0,.06,0a6.88,6.88,0,0,1,1.05.84,3.46,3.46,0,0,1,.69,1.14,5.19,5.19,0,0,1,.27,1.81v1.19a6,6,0,0,1-.3,2,2.61,2.61,0,0,1-3.82,1.2Z" transform="translate(-347.92 -491.03)"/><path class="cls-20" d="M452.63,557.63h1.26l0,15.36H452.6Zm.74,0h4v1.66h-4Zm0,6.91H457v1.67h-3.58Zm0,6.8h4V573h-4Z" transform="translate(-347.92 -491.03)"/></g><g id="Daddy"><rect class="cls-4" x="448.69" y="590.42" width="5.66" height="5.66" rx="2.83" transform="translate(-214.01 -572.28) rotate(12.06)"/><path class="cls-22" d="M447.64,583.13l1.82,4.76a1,1,0,0,0,1.27.57c2-.55,3.59-2.77,2.78-4.86s-3.44-2.66-5.3-1.74c-1.12.56-.43,2.41.7,1.84.87-.43,2.33-.52,2.76.6s-.7,2.06-1.65,2.32l1.28.57-1.82-4.76A1,1,0,0,0,447.64,583.13Z" transform="translate(-347.92 -491.03)"/><path class="cls-23" d="M449,599.08l.54,5.06a1,1,0,0,0,1.08.88c2.09,0,4.18-1.75,3.94-4s-2.65-3.46-4.68-3c-1.23.25-1,2.21.2,2,1-.2,2.38.09,2.52,1.29s-1.21,1.8-2.19,1.81l1.09.88-.54-5.07A1,1,0,0,0,449,599.08Z" transform="translate(-347.92 -491.03)"/><circle class="cls-24" cx="102.65" cy="118.92" r="3.64"/><path class="cls-25" d="M451.49,617.15l-2.92,2.54a.39.39,0,0,1-.1.08h0l-.09.08-2.95,2.41A1.05,1.05,0,0,1,444,622a1.09,1.09,0,0,1,.33-1.44l2.24-1.84-1.3-3.09c-.52-1.24,1.48-1.86,2-.63l1,2.31,1.76-1.53C451,614.86,452.5,616.27,451.49,617.15Z" transform="translate(-347.92 -491.03)"/><path class="cls-26" d="M448.85,626.81c.11,1.57-2,3.3-5.08,4.38-2-2.19-2.73-4.57-1.87-6,.34-.58,1.21-1.45,2.12-1.23a2.19,2.19,0,0,1,1.37,2.24,2.17,2.17,0,0,1,2.23-1.17A2,2,0,0,1,448.85,626.81Z" transform="translate(-347.92 -491.03)"/><path class="cls-27" d="M446.22,625.88c1.81-7.24,5-14.07,6.3-21.45a39.58,39.58,0,0,0-.07-11.45,83.26,83.26,0,0,0-2-12.48.6.6,0,0,0-1.16.31,83.35,83.35,0,0,1,2.06,12.76,37.07,37.07,0,0,1-.13,11.47c-1.43,7-4.38,13.59-6.12,20.52a.6.6,0,0,0,1.16.32Z" transform="translate(-347.92 -491.03)"/><rect class="cls-10" x="448.79" y="590.97" width="5.66" height="5.66" rx="2.83" transform="translate(-213.89 -572.28) rotate(12.06)"/><circle class="cls-28" cx="102.29" cy="119.7" r="3.64"/><path class="cls-29" d="M447.64,583.85l1.82,4.76a1,1,0,0,0,1.27.57c2-.55,3.59-2.77,2.78-4.86s-3.44-2.67-5.3-1.74c-1.12.56-.43,2.41.7,1.84.87-.43,2.33-.52,2.76.6s-.7,2.06-1.65,2.32l1.28.57-1.82-4.76A1,1,0,0,0,447.64,583.85Z" transform="translate(-347.92 -491.03)"/><path class="cls-30" d="M449.35,599.7l.47,5.07a1,1,0,0,0,1.07.89c2.09,0,4.2-1.7,4-3.93s-2.6-3.5-4.64-3.1c-1.23.23-1.06,2.2.18,2,1-.19,2.38.12,2.5,1.32s-1.23,1.79-2.21,1.79l1.07.89-.47-5.07A1,1,0,0,0,449.35,599.7Z" transform="translate(-347.92 -491.03)"/><path class="cls-10" d="M451,609.9c.25-.67.43-1.13.55-1.38a.38.38,0,0,1,.51-.22.33.33,0,0,1,.24.2.4.4,0,0,1,0,.32c-.1.29-.26.72-.5,1.28s-.4,1-.5,1.29a11.2,11.2,0,0,0-.4,1.45.29.29,0,0,1,0,.09.32.32,0,0,1-.21.23.42.42,0,0,1-.31,0,.35.35,0,0,1-.26-.31,1.12,1.12,0,0,1-.48,0,2.56,2.56,0,0,1-.46-.11,1.58,1.58,0,0,1-1-.79,1.53,1.53,0,0,1-.09-1.26,2,2,0,0,1,.88-1.15,1.62,1.62,0,0,1,1.35-.11,1.76,1.76,0,0,1,.39.18A1.25,1.25,0,0,1,451,609.9Zm-.37.92a.75.75,0,0,0-.17-.37.82.82,0,0,0-.34-.21.87.87,0,0,0-.75,0,1.27,1.27,0,0,0-.48.7.84.84,0,0,0,.54,1,.81.81,0,0,0,.37.07l.34-.1.13-.06C450.32,611.82,450.44,611.45,450.66,610.82Z" transform="translate(-347.92 -491.03)"/><path class="cls-31" d="M451.88,595.68a.29.29,0,0,1-.1,0l-.06-.07,0-.08v-.09a.37.37,0,0,1,0-.11l.07-.14.1-.17.1-.17a1.09,1.09,0,0,0,.08-.15s0-.08.06-.11l0-.11a1.12,1.12,0,0,1,.05-.13l.06-.16.07-.16h-.74l-.21,0-.32,0h-.33l-.09,0-.09-.06a1.09,1.09,0,0,0-.13.17c0,.05-.07.12-.11.18a1.14,1.14,0,0,0-.1.19c0,.06-.05.12-.08.17l0,.12a.83.83,0,0,1,0,.15l0,.14a.81.81,0,0,1,0,.11l0,.07-.07.06-.08,0h-.09a.2.2,0,0,1-.11-.06.23.23,0,0,1-.06-.12.59.59,0,0,1,0-.14s0-.1,0-.14a2.23,2.23,0,0,1,.09-.32,2.41,2.41,0,0,1,.15-.33,3,3,0,0,1,.21-.33,3.43,3.43,0,0,1,.24-.33c.07-.1.16-.21.26-.33s.22-.26.35-.39a4.83,4.83,0,0,1,.4-.38,3.19,3.19,0,0,1,.43-.32,2.2,2.2,0,0,1,.44-.21.92.92,0,0,1,.43,0,.85.85,0,0,1,.35.12.82.82,0,0,1,.2.25.79.79,0,0,1,.07.32,2.44,2.44,0,0,1,0,.38c0,.12-.05.23-.08.36s-.06.23-.1.35l-.12.33-.11.28-.14.34,0,.06,0,.11s-.05.09-.07.14-.05.09-.08.14-.05.09-.07.13l-.05.09h0l-.06.13a.35.35,0,0,1-.07.12l-.11.08A.24.24,0,0,1,451.88,595.68Zm.59-3.23a.65.65,0,0,0-.24,0,1.25,1.25,0,0,0-.25.09l-.24.15-.23.19-.21.19-.18.19,0,0,0,.05,0,.06,0,.05.27,0,.34,0h.95l0-.09,0-.13,0-.14,0-.17s0-.09,0-.15a1,1,0,0,0,0-.17.35.35,0,0,0-.06-.14A.22.22,0,0,0,452.47,592.45Z" transform="translate(-347.92 -491.03)"/><path class="cls-32" d="M451.23,617.79l-2.92,2.54-.1.08h0l-.1.08-2.94,2.41a1.06,1.06,0,0,1-1.44-.33,1.08,1.08,0,0,1,.33-1.44l2.24-1.83-1.3-3.09c-.52-1.24,1.48-1.86,2-.63.32.76.64,1.53,1,2.3l1.75-1.53C450.71,615.49,452.24,616.9,451.23,617.79Z" transform="translate(-347.92 -491.03)"/><path class="cls-33" d="M449,626.19c.1,1.58-2,3.3-5.09,4.39-2-2.2-2.73-4.58-1.87-6,.34-.57,1.21-1.45,2.12-1.23a2.21,2.21,0,0,1,1.37,2.25,2.15,2.15,0,0,1,2.24-1.17A2,2,0,0,1,449,626.19Z" transform="translate(-347.92 -491.03)"/></g><path class="cls-34" d="M395.88,548.58V536.81a1.5,1.5,0,0,0-3,0v11.77a1.5,1.5,0,0,0,3,0Z" transform="translate(-347.92 -491.03)"/><path class="cls-34" d="M451.25,548V536.25a1.5,1.5,0,0,0-3,0V548a1.5,1.5,0,0,0,3,0Z" transform="translate(-347.92 -491.03)"/><ellipse class="cls-27" cx="101.83" cy="88.54" rx="2.37" ry="1.76"/></svg>