<?xml version="1.0" encoding="UTF-8" standalone="no"?>
<svg
   xmlns:dc="http://purl.org/dc/elements/1.1/"
   xmlns:cc="http://creativecommons.org/ns#"
   xmlns:rdf="http://www.w3.org/1999/02/22-rdf-syntax-ns#"
   xmlns:svg="http://www.w3.org/2000/svg"
   xmlns="http://www.w3.org/2000/svg"
   id="svg38"
   version="1.1"
   viewBox="0 0 89.77 89.76">
  <metadata
     id="metadata42">
    <rdf:RDF>
      <cc:Work
         rdf:about="">
        <dc:format>image/svg+xml</dc:format>
        <dc:type
           rdf:resource="http://purl.org/dc/dcmitype/StillImage" />
      </cc:Work>
    </rdf:RDF>
  </metadata>
  <defs
     id="defs4">
    <style
       id="style2">.cls-1{fill:#009444;}.cls-2{fill:#006838;}.cls-3{fill:#ef4136;}.cls-4{fill:#f7941d;}.cls-5{fill:#5259a7;}.cls-6{fill:#6f70b4;}.cls-7{fill:#cddff3;}.cls-8{fill:#fbb040;}</style>
  </defs>
  <title
     id="title6">KeycardButton</title>
  <g
     id="BUttons">
    <path
       id="path8"
       transform="translate(-206.85 -182.56)"
       d="M296.62,227.44a44.89,44.89,0,1,1-44.89-44.88A44.7,44.7,0,0,1,296.62,227.44Z"
       class="cls-1" />
    <path
       id="path10"
       transform="translate(-206.85 -182.56)"
       d="M283.18,259.46A44.88,44.88,0,0,1,219.71,196Z"
       class="cls-2" />
    <path
       id="path12"
       transform="translate(-206.85 -182.56)"
       d="M291.89,227.44a39.92,39.92,0,0,1-7,22.63,39,39,0,0,1-3.08,3.94,38.06,38.06,0,0,1-4.1,4,38.5,38.5,0,0,1-3.37,2.58c-1,.71-2.13,1.38-3.24,2a40,40,0,0,1-18,5l-1.37,0h-.48A40.15,40.15,0,0,1,211.62,229c0-.34,0-.69,0-1,0-.18,0-.37,0-.55a39.91,39.91,0,0,1,5-19.42,34.9,34.9,0,0,1,2-3.21c.25-.36.5-.72.77-1.07s.35-.47.54-.7a39.44,39.44,0,0,1,9.23-8.77,40.16,40.16,0,0,1,62.79,33.17Z"
       class="cls-3" />
    <path
       id="path14"
       transform="translate(-206.85 -182.56)"
       d="M290,227.44a38.31,38.31,0,0,1-29.76,37.32h0a38.73,38.73,0,0,1-8.48.94A38.26,38.26,0,0,1,213.55,230c-.05-.83-.08-1.67-.08-2.51a38.27,38.27,0,0,1,76.53,0Z"
       class="cls-4" />
    <g
       data-name="Layer 58"
       id="Layer_58">
      <rect
         id="rect16"
         rx="3.33"
         height="40.28"
         width="64.38"
         y="25.23"
         x="12.69"
         class="cls-5" />
      <path
         id="path18"
         transform="translate(-206.85 -182.56)"
         d="M276.85,207.79l-40.28,40.29h-13.7a3.33,3.33,0,0,1-3.33-3.33v-16.4l20.56-20.56Z"
         class="cls-6" />
      <polygon
         id="polygon20"
         points="77.08 29.82 77.08 39.59 51.15 65.52 41.38 65.52 77.08 29.82"
         class="cls-6" />
      <rect
         id="rect22"
         rx="2.43"
         height="4.86"
         width="17.08"
         y="57.78"
         x="16.12"
         class="cls-7" />
      <rect
         id="rect24"
         rx="2.43"
         height="4.86"
         width="8.16"
         y="57.78"
         x="34.75"
         class="cls-7" />
      <rect
         id="rect26"
         rx="2.43"
         height="4.86"
         width="9.37"
         y="57.78"
         x="48.28"
         class="cls-7" />
      <rect
         id="rect28"
         rx="2.43"
         height="4.86"
         width="14.38"
         y="57.78"
         x="59.28"
         class="cls-7" />
      <path
         id="path30"
         transform="translate(-206.85 -182.56)"
         d="M275.5,220.89H247.61a11.41,11.41,0,1,0,0,5.63h12v5a2.82,2.82,0,0,0,5.63,0v-5h3.28v5a2.82,2.82,0,0,0,5.64,0v-5h1.33a2.82,2.82,0,1,0,0-5.63Zm-38.94,8.59a5.77,5.77,0,1,1,5.77-5.77A5.78,5.78,0,0,1,236.56,229.48Z"
         class="cls-8" />
      <path
         id="path32"
         transform="translate(-206.85 -182.56)"
         d="M278.32,223.71a2.82,2.82,0,0,1-2.82,2.81h-1.33v5a2.82,2.82,0,0,1-5.64,0v-5h-3.28v5a2.82,2.82,0,0,1-5.63,0v-5h-12a11.41,11.41,0,0,1-22.46-2.81h5.64a5.77,5.77,0,1,0,11.54,0Z"
         class="cls-4" />
      <rect
         id="rect34"
         rx="2.43"
         height="4.86"
         width="14.38"
         y="28.49"
         x="59.27"
         class="cls-7" />
    </g>
  </g>
</svg>
