<?xml version="1.0" encoding="UTF-8" standalone="no"?>
<svg
   xmlns:dc="http://purl.org/dc/elements/1.1/"
   xmlns:cc="http://creativecommons.org/ns#"
   xmlns:rdf="http://www.w3.org/1999/02/22-rdf-syntax-ns#"
   xmlns:svg="http://www.w3.org/2000/svg"
   xmlns="http://www.w3.org/2000/svg"
   id="svg28"
   version="1.1"
   viewBox="0 0 89.77 89.76">
  <metadata
     id="metadata32">
    <rdf:RDF>
      <cc:Work
         rdf:about="">
        <dc:format>image/svg+xml</dc:format>
        <dc:type
           rdf:resource="http://purl.org/dc/dcmitype/StillImage" />
      </cc:Work>
    </rdf:RDF>
  </metadata>
  <defs
     id="defs4">
    <style
       id="style2">.cls-1{fill:#009444;}.cls-2{fill:#006838;}.cls-3{fill:#ef4136;}.cls-4{fill:#f7941d;}.cls-5{fill:#fff;}</style>
  </defs>
  <title
     id="title6">SoundOff</title>
  <g
     id="BUttons">
    <path
       id="path8"
       transform="translate(-206.85 -182.56)"
       d="M296.62,227.44a44.89,44.89,0,1,1-44.89-44.88A44.7,44.7,0,0,1,296.62,227.44Z"
       class="cls-1" />
    <path
       id="path10"
       transform="translate(-206.85 -182.56)"
       d="M283.18,259.46A44.88,44.88,0,0,1,219.71,196Z"
       class="cls-2" />
    <path
       id="path12"
       transform="translate(-206.85 -182.56)"
       d="M291.89,227.44a39.92,39.92,0,0,1-7,22.63,39,39,0,0,1-3.08,3.94,38.06,38.06,0,0,1-4.1,4,38.5,38.5,0,0,1-3.37,2.58c-1,.71-2.13,1.38-3.24,2a40,40,0,0,1-18,5l-1.37,0h-.48A40.15,40.15,0,0,1,211.62,229c0-.34,0-.69,0-1,0-.18,0-.37,0-.55a39.91,39.91,0,0,1,5-19.42,34.9,34.9,0,0,1,2-3.21c.25-.36.5-.72.77-1.07s.35-.47.54-.7a39.44,39.44,0,0,1,9.23-8.77,40.16,40.16,0,0,1,62.79,33.17Z"
       class="cls-3" />
    <path
       id="path14"
       transform="translate(-206.85 -182.56)"
       d="M290,227.44a38.31,38.31,0,0,1-29.76,37.32h0a38.73,38.73,0,0,1-8.48.94A38.26,38.26,0,0,1,213.55,230c-.05-.83-.08-1.67-.08-2.51a38.27,38.27,0,0,1,76.53,0Z"
       class="cls-4" />
    <g
       id="SoundOff">
      <path
         id="path16"
         transform="translate(-206.85 -182.56)"
         d="M268.53,246.75l10.7,9.62-1.5,1.67a38.5,38.5,0,0,1-3.37,2.58c-1,.71-2.13,1.38-3.24,2a40,40,0,0,1-18,5l-1.37,0h-.48A40.15,40.15,0,0,1,211.62,229c0-.34,0-.69,0-1,0-.18,0-.37,0-.55a39.91,39.91,0,0,1,5-19.42,34.9,34.9,0,0,1,2-3.21c.25-.36.5-.72.77-1.07s.35-.47.54-.7l19,17.12,9.73-9.73,14.45,14.45L271,217l9.17,18.11Z"
         class="cls-3" />
      <path
         id="path18"
         transform="translate(-206.85 -182.56)"
         d="M267.13,257.7a4.12,4.12,0,0,1-4.81-.59l-20.53-18.76h-10v0c-6.55-.33-11.76-5-11.76-10.65,0-4.35,3.05-8.08,7.42-9.73Z"
         class="cls-5" />
      <path
         id="path20"
         transform="translate(-206.85 -182.56)"
         d="M269.33,201.32V231l-20.44-20.45,13.43-12.28A4.19,4.19,0,0,1,269.33,201.32Z"
         class="cls-5" />
      <path
         id="path22"
         transform="translate(-206.85 -182.56)"
         d="M283,228a11,11,0,0,1-6.74,9.9L271,232.63V217C277.63,217,283,221.93,283,228Z"
         class="cls-5" />
      <path
         id="path24"
         transform="translate(-206.85 -182.56)"
         d="M284.9,250.09a40.4,40.4,0,0,1-10.56,10.54l-55.77-55.84a40.32,40.32,0,0,1,10.55-10.53Z"
         class="cls-5" />
    </g>
  </g>
</svg>
