<?xml version="1.0" encoding="UTF-8" standalone="no"?>
<svg
   xmlns:dc="http://purl.org/dc/elements/1.1/"
   xmlns:cc="http://creativecommons.org/ns#"
   xmlns:rdf="http://www.w3.org/1999/02/22-rdf-syntax-ns#"
   xmlns:svg="http://www.w3.org/2000/svg"
   xmlns="http://www.w3.org/2000/svg"
   id="svg20"
   version="1.1"
   viewBox="0 0 89.77 89.76">
  <metadata
     id="metadata24">
    <rdf:RDF>
      <cc:Work
         rdf:about="">
        <dc:format>image/svg+xml</dc:format>
        <dc:type
           rdf:resource="http://purl.org/dc/dcmitype/StillImage" />
      </cc:Work>
    </rdf:RDF>
  </metadata>
  <defs
     id="defs4">
    <style
       id="style2">.cls-1{fill:#009444;}.cls-2{fill:#006838;}.cls-3{fill:#ef4136;}.cls-4{fill:#f7941d;}.cls-5{fill:#fff;}</style>
  </defs>
  <title
     id="title6">Settings</title>
  <g
     id="BUttons">
    <path
       id="path8"
       transform="translate(-206.85 -182.56)"
       d="M296.62,227.44a44.89,44.89,0,1,1-44.89-44.88A44.7,44.7,0,0,1,296.62,227.44Z"
       class="cls-1" />
    <path
       id="path10"
       transform="translate(-206.85 -182.56)"
       d="M283.18,259.46A44.88,44.88,0,0,1,219.71,196Z"
       class="cls-2" />
    <path
       id="path12"
       transform="translate(-206.85 -182.56)"
       d="M291.89,227.44a39.92,39.92,0,0,1-7,22.63,39,39,0,0,1-3.08,3.94,38.06,38.06,0,0,1-4.1,4,38.5,38.5,0,0,1-3.37,2.58c-1,.71-2.13,1.38-3.24,2a40,40,0,0,1-18,5l-1.37,0h-.48A40.15,40.15,0,0,1,211.62,229c0-.34,0-.69,0-1,0-.18,0-.37,0-.55a39.91,39.91,0,0,1,5-19.42,34.9,34.9,0,0,1,2-3.21c.25-.36.5-.72.77-1.07s.35-.47.54-.7a39.44,39.44,0,0,1,9.23-8.77,40.16,40.16,0,0,1,62.79,33.17Z"
       class="cls-3" />
    <path
       id="path14"
       transform="translate(-206.85 -182.56)"
       d="M290,227.44a38.31,38.31,0,0,1-29.76,37.32h0a38.73,38.73,0,0,1-8.48.94A38.26,38.26,0,0,1,213.55,230c-.05-.83-.08-1.67-.08-2.51a38.27,38.27,0,0,1,76.53,0Z"
       class="cls-4" />
    <path
       id="path16"
       transform="translate(-206.85 -182.56)"
       d="M270,246.6l13.48-13.48-.16-.16L247,196.73h0l-.07.07L245.79,198l-6.63,6.63-5.61,5.61-5.35-5.35-13.69,13.69a38.44,38.44,0,0,0-1,8.9c0,.84,0,1.68.08,2.51a38.26,38.26,0,0,0,38.18,35.76,38.73,38.73,0,0,0,8.48-.94l14-13.95h0Zm-21.5.47a12,12,0,1,1,12-12A12,12,0,0,1,248.45,247.07Z"
       class="cls-3" />
    <path
       transform="translate(-206.85 -182.56)"
       d="M277,220h-1.88a25,25,0,0,0-1.15-2.95l.86-.86a8,8,0,0,0-11.31-11.32l-.68.69a23.86,23.86,0,0,0-2.84-1.23V203a8,8,0,0,0-13-6.27.21.21,0,0,0-.08.06,8.09,8.09,0,0,0-1.17,1.17,8,8,0,0,0-1.79,5v1.15a24.48,24.48,0,0,0-3.68,1.56l-.84-.84a2.07,2.07,0,0,0-.32-.28,8,8,0,0,0-11,.26l0,0-.09.1a8,8,0,0,0,.09,11.22l1.18,1.18a26.92,26.92,0,0,0-1,2.63H228a8,8,0,0,0,0,16h.73a23,23,0,0,0,1.12,2.54l-1,1a8,8,0,0,0,11.32,11.31l1.15-1.15a24.5,24.5,0,0,0,2.66,1V252a8,8,0,0,0,16,0v-1.45c.61-.22,1.21-.46,1.8-.73l1,1a8,8,0,0,0,11.32,0l0,0a8,8,0,0,0,1.23-9.64,7.56,7.56,0,0,0-1.25-1.65l-.67-.67a25.24,25.24,0,0,0,1.28-2.85H277a8,8,0,0,0,0-16Zm-25.27,19.48a12,12,0,1,1,12-12A12,12,0,0,1,251.73,239.48Z"
       class="cls-5"
       id="Settings" />
  </g>
</svg>
