<svg xmlns="http://www.w3.org/2000/svg" viewBox="0 0 1585.62 915.47"><defs><style>.cls-1{fill:#faa74a;}.cls-2{fill:#e58046;}.cls-3{fill:#f37543;}.cls-4{fill:#f7941d;}.cls-5{fill:#aaaad5;}.cls-27,.cls-28,.cls-34,.cls-6,.cls-7{fill:#4c56a5;}.cls-12,.cls-13,.cls-14,.cls-15,.cls-16,.cls-17,.cls-18,.cls-19,.cls-20,.cls-21,.cls-22,.cls-23,.cls-24,.cls-25,.cls-29,.cls-7{stroke:#343961;}.cls-13,.cls-14,.cls-15,.cls-16,.cls-17,.cls-18,.cls-19,.cls-20,.cls-21,.cls-22,.cls-23,.cls-24,.cls-25,.cls-29,.cls-7{stroke-linecap:round;}.cls-12,.cls-13,.cls-14,.cls-15,.cls-16,.cls-17,.cls-18,.cls-19,.cls-20,.cls-21,.cls-22,.cls-23,.cls-24,.cls-25,.cls-29,.cls-30,.cls-7{stroke-miterlimit:10;}.cls-13,.cls-14,.cls-15,.cls-16,.cls-17,.cls-18,.cls-19,.cls-20,.cls-21,.cls-22,.cls-23,.cls-24,.cls-25,.cls-7{stroke-width:3px;}.cls-7{stroke-dasharray:15;}.cls-31,.cls-46,.cls-8{fill:#343961;}.cls-9{fill:#d998b3;}.cls-10{fill:#e07fa9;}.cls-11{fill:#783a55;}.cls-12,.cls-13,.cls-14,.cls-15,.cls-16,.cls-17,.cls-18,.cls-19,.cls-20,.cls-21,.cls-22,.cls-23,.cls-24,.cls-25,.cls-29,.cls-30{fill:none;}.cls-12{stroke-width:5px;}.cls-14{stroke-dasharray:16.26 16.26;}.cls-15{stroke-dasharray:13.15 13.15;}.cls-16{stroke-dasharray:13.15 13.15;}.cls-17{stroke-dasharray:16.94 16.94;}.cls-18{stroke-dasharray:10.72 10.72;}.cls-19{stroke-dasharray:11.86 11.86;}.cls-20{stroke-dasharray:8.05 8.05;}.cls-21{stroke-dasharray:9.22 9.22;}.cls-22{stroke-dasharray:14.44 14.44;}.cls-23{stroke-dasharray:13.15 13.15;}.cls-24{stroke-dasharray:18.71 18.71;}.cls-25{stroke-dasharray:14.41 14.41;}.cls-26{fill:#d6588c;}.cls-27{font-size:41.64px;letter-spacing:0.29em;}.cls-27,.cls-28,.cls-31,.cls-34,.cls-46{font-family:Junegull;}.cls-28{font-size:44px;letter-spacing:0.2em;}.cls-29{stroke-width:8px;stroke-dasharray:20;}.cls-30{stroke:#783a55;stroke-width:12px;}.cls-31{font-size:36px;}.cls-32{letter-spacing:-0.01em;}.cls-33{letter-spacing:0em;}.cls-34{font-size:24px;}.cls-35{letter-spacing:-0.09em;}.cls-36{letter-spacing:-0.01em;}.cls-37{letter-spacing:-0.01em;}.cls-38{letter-spacing:0em;}.cls-39{letter-spacing:-0.08em;}.cls-40{letter-spacing:0em;}.cls-41{letter-spacing:-0.01em;}.cls-42{letter-spacing:-0.07em;}.cls-43{letter-spacing:-0.11em;}.cls-44{letter-spacing:-0.08em;}.cls-45{letter-spacing:-0.01em;}.cls-46{font-size:66.41px;}</style></defs><title>main menu</title><g id="Logo2"><rect class="cls-1" x="1.07" width="1584.55" height="915.47"/><g id="BKRD"><rect class="cls-2" x="365.55" y="145.25" width="456.51" height="36.47" rx="18.24"/><path class="cls-2" d="M69.06,189a18.24,18.24,0,0,1,0-36.47H465.93c-.29.05-.58.11-.86.18a18.21,18.21,0,0,0-14.24,17.78,18.24,18.24,0,0,0,16.08,18.11,14.56,14.56,0,0,0,1.87.12h.28Z" transform="translate(537.72 29.11)"/><path class="cls-2" d="M210.91,43.6a17,17,0,0,1-2.15.13h-362.7a18.24,18.24,0,0,1-18.23-18.24,18.18,18.18,0,0,1,5.34-12.89,18.16,18.16,0,0,1,12.89-5.34h362.7a17,17,0,0,1,2.15.13,18.23,18.23,0,0,0,0,36.21Z" transform="translate(537.72 29.11)"/><path class="cls-2" d="M312-10.87A18.18,18.18,0,0,1,306.66,2a18.17,18.17,0,0,1-11,5.24,17.93,17.93,0,0,1-1.95.1H18.24a17.93,17.93,0,0,1-1.95-.1A18.14,18.14,0,0,1,8.23,4.37,18.21,18.21,0,0,1,0-10.87a18.22,18.22,0,0,1,5.34-12.9,18.18,18.18,0,0,1,12.9-5.34H293.76A18.24,18.24,0,0,1,312-10.87Z" transform="translate(537.72 29.11)"/><path class="cls-2" d="M158.78,115.72a17.76,17.76,0,0,1-4,.45h-308.7a18.23,18.23,0,0,1-18.23-18.23A18.18,18.18,0,0,1-166.83,85a18.16,18.16,0,0,1,12.89-5.34h309a18.21,18.21,0,0,0-14.24,17.78,18.24,18.24,0,0,0,16.08,18.11A14.56,14.56,0,0,0,158.78,115.72Z" transform="translate(537.72 29.11)"/><rect class="cls-2" x="578.72" y="72.5" width="243.34" height="36.47" rx="18.24"/><rect class="cls-2" x="570.02" y="261.94" width="456.51" height="36.47" rx="18.24" transform="translate(2134.28 589.46) rotate(180)"/><path class="cls-2" d="M785.3,334.8a18.24,18.24,0,0,0,0-36.47H388.43c.29.05.58.11.86.18a18.21,18.21,0,0,1,14.24,17.78,18.24,18.24,0,0,1-16.08,18.11,14.56,14.56,0,0,1-1.87.12h-.28Z" transform="translate(537.72 29.11)"/><path class="cls-2" d="M643.45,189.4a17,17,0,0,0,2.15.13h362.7a18.24,18.24,0,0,0,0-36.47H645.6a17,17,0,0,0-2.15.13,18.23,18.23,0,0,1,0,36.21Z" transform="translate(537.72 29.11)"/><rect class="cls-2" x="542.36" y="116.69" width="312" height="36.47" rx="18.24" transform="translate(1934.44 298.97) rotate(-180)"/><path class="cls-2" d="M695.58,261.52a17.76,17.76,0,0,0,4,.45h308.7a18.24,18.24,0,0,0,0-36.47h-309a18.21,18.21,0,0,1,14.24,17.78,18.24,18.24,0,0,1-16.08,18.11A14.56,14.56,0,0,1,695.58,261.52Z" transform="translate(537.72 29.11)"/><rect class="cls-2" x="570.02" y="189.19" width="243.34" height="36.47" rx="18.24" transform="translate(1921.1 443.95) rotate(180)"/><rect class="cls-2" x="159.76" y="142.25" width="249.06" height="36.47" rx="18.24"/><rect class="cls-2" x="44.22" y="178.64" width="507.19" height="36.47" rx="18.24"/><rect class="cls-2" x="49.77" y="33.37" width="507.19" height="36.47" rx="18.24"/><path class="cls-2" d="M90.34-13.87A18.22,18.22,0,0,1,85-1,18.18,18.18,0,0,1,72.11,4.37H-398.61a19,19,0,0,1-2-.11,18.23,18.23,0,0,1-16.22-18.13,18.22,18.22,0,0,1,5.34-12.9,18,18,0,0,1,2.87-2.34H82.13A18.23,18.23,0,0,1,90.34-13.87Z" transform="translate(537.72 29.11)"/><path class="cls-2" d="M-49.64,94.94A18.16,18.16,0,0,1-55,107.83a18.18,18.18,0,0,1-12.9,5.34H-536.65V76.7H-67.88a18.11,18.11,0,0,1,10,3l.58.4A18.23,18.23,0,0,1-49.64,94.94Z" transform="translate(537.72 29.11)"/><rect class="cls-2" x="87.55" y="69.5" width="303.5" height="36.47" rx="18.24"/><rect class="cls-2" x="88.89" y="214.64" width="313.17" height="36.47" rx="18.24"/><rect class="cls-2" x="299.26" y="224.96" width="249.06" height="36.47" rx="18.24" transform="translate(1385.3 515.49) rotate(180)"/><rect class="cls-2" x="156.68" y="261.35" width="507.19" height="36.47" rx="18.24" transform="translate(1358.26 588.28) rotate(-180)"/><rect class="cls-2" x="151.12" y="116.07" width="507.19" height="36.47" rx="18.24" transform="translate(1347.15 297.73) rotate(-180)"/><rect class="cls-2" x="80.02" y="79.71" width="507.19" height="36.47" rx="18.24" transform="translate(1204.94 225) rotate(180)"/><rect class="cls-2" x="220.01" y="188.52" width="507.19" height="36.47" rx="18.24" transform="translate(1484.92 442.62) rotate(-180)"/><rect class="cls-2" x="317.04" y="152.2" width="303.5" height="36.47" rx="18.24" transform="translate(1475.29 369.99) rotate(-180)"/><rect class="cls-2" x="306.02" y="297.35" width="313.17" height="36.47" rx="18.24" transform="translate(1462.93 660.28) rotate(-180)"/><rect class="cls-3" x="812.42" y="145.25" width="249.06" height="36.47" rx="18.24"/><rect class="cls-3" x="696.87" y="181.64" width="507.19" height="36.47" rx="18.24"/><rect class="cls-3" x="702.43" y="36.37" width="507.19" height="36.47" rx="18.24"/><rect class="cls-3" x="773.53" width="507.19" height="36.47" rx="18.24"/><rect class="cls-3" x="633.55" y="108.81" width="507.19" height="36.47" rx="18.24"/><rect class="cls-3" x="740.2" y="72.5" width="303.5" height="36.47" rx="18.24"/><rect class="cls-3" x="741.55" y="217.64" width="313.17" height="36.47" rx="18.24"/><rect class="cls-3" x="179.95" y="254.45" width="249.06" height="36.47" rx="18.24"/><rect class="cls-3" x="64.4" y="290.84" width="507.19" height="36.47" rx="18.24"/><rect class="cls-3" x="69.96" y="145.57" width="507.19" height="36.47" rx="18.24"/><rect class="cls-3" x="141.06" y="109.21" width="507.19" height="36.47" rx="18.24"/><rect class="cls-3" x="1.07" y="218.01" width="507.19" height="36.47" rx="18.24"/><rect class="cls-3" x="107.73" y="181.7" width="303.5" height="36.47" rx="18.24"/><rect class="cls-3" x="109.07" y="326.84" width="313.17" height="36.47" rx="18.24"/><rect class="cls-3" x="719.58" y="152.89" width="249.06" height="36.47" rx="18.24" transform="translate(2225.95 371.35) rotate(180)"/><path class="cls-3" d="M1047.9,189.28v36.47H595.24c-.63,0-1.25,0-1.87-.09a18.38,18.38,0,0,1-2.12-.35c-.42-.09-.83-.2-1.23-.32a18.24,18.24,0,0,1,5.22-35.71Z" transform="translate(537.72 29.11)"/><path class="cls-3" d="M1047.9,44V80.47H589.68a18.07,18.07,0,0,1-4-.44,12.93,12.93,0,0,1-1.26-.33,18.24,18.24,0,0,1,3.23-35.59,19.38,19.38,0,0,1,2-.11Z" transform="translate(537.72 29.11)"/><rect class="cls-3" x="500.34" y="7.64" width="507.19" height="36.47" rx="18.24" transform="translate(2045.59 80.86) rotate(-180)"/><path class="cls-3" d="M1047.9,116.45v36.47H658.56a18.07,18.07,0,0,1-4-.44,17.81,17.81,0,0,1-5.57-2.27,18.22,18.22,0,0,1-8.67-15.53,18.21,18.21,0,0,1,9.31-15.9,17.76,17.76,0,0,1,6-2.09c.53-.09,1.07-.15,1.61-.19s.89,0,1.34,0Z" transform="translate(537.72 29.11)"/><rect class="cls-3" x="737.36" y="80.13" width="303.5" height="36.47" rx="18.24" transform="translate(2315.94 225.85) rotate(-180)"/><rect class="cls-3" x="726.34" y="225.28" width="313.17" height="36.47" rx="18.24" transform="translate(2303.58 516.14) rotate(180)"/><rect class="cls-4" x="632.72" y="254.25" width="324.34" height="36.47" rx="18.24"/><rect class="cls-4" x="515.55" y="290.64" width="320.17" height="36.47" rx="18.24"/><rect class="cls-4" x="515.55" y="145.37" width="261.17" height="36.47" rx="18.24"/><rect class="cls-4" x="669.72" y="109" width="277.34" height="36.47" rx="18.24"/><rect class="cls-4" x="571.72" y="217.81" width="313" height="36.47" rx="18.24"/><rect class="cls-4" x="616.72" y="181.5" width="355.34" height="36.47" rx="18.24"/><rect class="cls-4" x="1217.65" y="218.03" width="324.34" height="36.47" rx="18.24"/><rect class="cls-4" x="1100.48" y="254.42" width="320.17" height="36.47" rx="18.24"/><rect class="cls-4" x="1100.48" y="109.14" width="261.17" height="36.47" rx="18.24"/><rect class="cls-4" x="1254.65" y="72.78" width="277.34" height="36.47" rx="18.24"/><rect class="cls-4" x="1156.65" y="181.59" width="313" height="36.47" rx="18.24"/><rect class="cls-4" x="1201.65" y="145.27" width="355.34" height="36.47" rx="18.24"/><rect class="cls-4" x="-531.12" y="152.33" width="324.34" height="36.47" rx="18.24" transform="translate(-200.18 370.24) rotate(180)"/><rect class="cls-4" x="-350.78" y="43.45" width="261.17" height="36.47" rx="18.24" transform="translate(97.33 152.47) rotate(-180)"/><rect class="cls-4" x="-521.12" y="7.08" width="277.34" height="36.47" rx="18.24" transform="translate(-227.18 79.75) rotate(-180)"/><rect class="cls-4" x="-458.78" y="115.89" width="313" height="36.47" rx="18.24" transform="translate(-66.84 297.36) rotate(180)"/><path class="cls-4" d="M-190.78,97.81a18.21,18.21,0,0,1-8.35,15.33l-.05,0a18,18,0,0,1-7.44,2.72,17.38,17.38,0,0,1-2.4.16H-527.88a18.14,18.14,0,0,1-8.77-2.24c-.36-.2-.72-.41-1.07-.64h1.07V81.82a18.14,18.14,0,0,1,8.77-2.24H-209a18.48,18.48,0,0,1,3.51.34c.28,0,.56.11.83.18a18.16,18.16,0,0,1,8.56,4.82A18.18,18.18,0,0,1-190.78,97.81Z" transform="translate(537.72 29.11)"/><g id="Layer_45" data-name="Layer 45"><path class="cls-5" d="M526.23,734.4c-1.77,0-3.52.09-5.25.25a57.44,57.44,0,1,0-95.34-59.94,57.45,57.45,0,1,0-96.26,61.41,57.42,57.42,0,0,0-63.87,27.33,57.44,57.44,0,1,0,21.22,78.15,57.42,57.42,0,0,0,86-45.15,57.1,57.1,0,0,0,30.91,9,58.09,58.09,0,0,0,8.29-.6,57.42,57.42,0,0,0,90.08,39A57.45,57.45,0,1,0,526.23,734.4Z" transform="translate(537.72 29.11)"/><circle class="cls-5" cx="39.42" cy="815.89" r="57.45" transform="translate(-27.65 295.96) rotate(-45)"/><path class="cls-5" d="M-88.33,815.89a57.12,57.12,0,0,1-11.17,34h0a57.35,57.35,0,0,1-46.28,23.41,57.14,57.14,0,0,1-33.52-10.81,53.64,53.64,0,0,1-2.17,5.11,57.06,57.06,0,0,1-9.15,13.62,57.35,57.35,0,0,1-5.24,5.1h-74.76a54.86,54.86,0,0,1-5.24-5.1,57.22,57.22,0,0,1-14.83-38.52,57.11,57.11,0,0,1,8.8-30.56,57.58,57.58,0,0,1,30-23.76,57.42,57.42,0,0,1,23.38-38.1,56.7,56.7,0,0,1,9.27-5.41,57.06,57.06,0,0,1,24.16-5.32,57.05,57.05,0,0,1,33.43,10.75,57.11,57.11,0,0,1,9.44,8.47,60,60,0,0,1,6.47-.37,57.48,57.48,0,0,1,56,44.46A57.92,57.92,0,0,1-88.33,815.89Z" transform="translate(537.72 29.11)"/><path class="cls-5" d="M1022.53,824.34a58.46,58.46,0,0,1-.61,8.42A57.43,57.43,0,0,1,931.57,871a56.68,56.68,0,0,1-5,10.27c-.33.55-.68,1.1-1.05,1.64-.78,1.18-1.61,2.34-2.48,3.46H832.2a56.46,56.46,0,0,1-3.54-5.1c-.43-.7-.85-1.42-1.26-2.14a57.52,57.52,0,0,1-7.22-26.86c0-.35,0-.71,0-1.07a57.08,57.08,0,0,1,13.1-36.48c.81-1,1.65-2,2.55-2.88h0a57.38,57.38,0,0,1,23.12-15,57.43,57.43,0,0,1,99.58-29.71l.1.11a57.32,57.32,0,0,1,63.91,57.07Z" transform="translate(537.72 29.11)"/><path class="cls-5" d="M799,772.17a56.93,56.93,0,0,0-6.24-1.75,57.44,57.44,0,0,0-103.88-4.48,57.45,57.45,0,1,0,44.53,93.73A57.44,57.44,0,1,0,799,772.17Z" transform="translate(537.72 29.11)"/><path class="cls-5" d="M-329.76,824.87a57.46,57.46,0,0,1-46.43,56.39,57.17,57.17,0,0,1-11,1.06,57.69,57.69,0,0,1-6.62-.39,56,56,0,0,1-4.56,4.43H-473.9a56.23,56.23,0,0,1-5.14-5.1,57.17,57.17,0,0,1-14.54-38.19,57.5,57.5,0,0,1,1.34-12.39,57.52,57.52,0,0,1,38.18-42.2,56.14,56.14,0,0,1,9.27-2.21,57.5,57.5,0,0,1,8.66-.65,57.83,57.83,0,0,1,6.62.39q1-1.12,2.13-2.19a56.17,56.17,0,0,1,5.56-4.79h0c1-.78,2-1.5,3.09-2.2l0,0a56.84,56.84,0,0,1,14.27-6.76h0a57,57,0,0,1,17.18-2.62,57.45,57.45,0,0,1,56.67,48.05A57.15,57.15,0,0,1-329.76,824.87Z" transform="translate(537.72 29.11)"/></g><path class="cls-6" d="M1047.9,836.39v50H-536.65V836.7q20.65-3.11,44.41-6,7.9-1,16.13-1.92,10.75-1.26,22.05-2.45l9.27-1q27.33-2.8,57.59-5.4,19.76-1.7,40.69-3.28,7.9-.6,16-1.18,23.65-1.72,48.64-3.29,5.53-.36,11.13-.69,20.68-1.28,42.21-2.43l9.27-.5q28.14-1.48,57.59-2.79,26.41-1.18,53.81-2.21h0l18.07-.66,10.69-.37q31-1,63.15-1.92,21.2-.57,42.82-1.06,33.17-.74,67.26-1.27,26.34-.4,53.2-.68l14.56-.14,4.05,0,5.27,0,10.38-.08,4.18,0,4,0q33.14-.21,66.89-.21,21,0,41.77.08,37.49.15,74.14.54l2.16,0,10.56.13,6.35.08q15.23.18,30.26.42,31.63.51,62.48,1.18,25.23.57,49.89,1.25t48.46,1.46l7.63.25q22.47.76,44.35,1.62,12.22.48,24.26,1,15.35.64,30.36,1.34,19.47.92,38.36,1.9,9.38.48,18.6,1,26.58,1.46,51.89,3.06,17.88,1.14,35.08,2.35c1.1.08,2.19.15,3.28.24l2.33.16q32.64,2.32,62.68,4.91,20.41,1.74,39.51,3.61,8.86.86,17.45,1.74,23.36,2.42,44.49,5,9.71,1.18,18.91,2.4Q1035.47,834.53,1047.9,836.39Z" transform="translate(537.72 29.11)"/></g><path class="cls-7" d="M-459.68,67.2a6.75,6.75,0,0,1-6-3.32q-2.13-3.32-2.13-12.57a46.6,46.6,0,0,1,.4-6.5,18.43,18.43,0,0,1,1.9-6.36,6.43,6.43,0,0,1,5.91-3.66,6.57,6.57,0,0,1,5.13,2.53A9.38,9.38,0,0,1-452.55,42a21.27,21.27,0,0,1,.25,2.82c0,.24,0,.48,0,.73l13.62-.73,2.61-.14c-.07-.92-.17-1.81-.31-2.68a24.63,24.63,0,0,0-6.52-13.84q-6-6.22-17.29-6.23A25.23,25.23,0,0,0-472.91,25a21.22,21.22,0,0,0-6,5.11,29.66,29.66,0,0,0-6.23,14.71,44.54,44.54,0,0,0-.49,6.79q0,13.44,7.1,21.08A23,23,0,0,0-471.37,78a26.71,26.71,0,0,0,11.44,2.36A25.67,25.67,0,0,0-448.73,78a22.64,22.64,0,0,0,5-3.2q6.57-5.57,7.7-16l-15.9-1Q-452.78,67.21-459.68,67.2Z" transform="translate(537.72 29.11)"/><path class="cls-7" d="M-371.34,78.12l-.07-.16L-381,54.75q6.06-2.86,8.05-6.62a16.28,16.28,0,0,0,1.31-3.32,16,16,0,0,0,.54-2.82c0-.12,0-.23,0-.34a19.34,19.34,0,0,0,.11-2.17,15.08,15.08,0,0,0-5.42-12.1q-5.41-4.59-15.21-4.59h-29.59V79.45h17.39V57.78h5.48L-390.63,78l.06.16.51,1.33h19.27Zm-25.05-32.46h-7.43V34.83h8q6.68,0,6.68,5.44a5.56,5.56,0,0,1-.16,1.38,1.91,1.91,0,0,1-.1.34,4.33,4.33,0,0,1-1.73,2.3,5.9,5.9,0,0,1-.92.52A10,10,0,0,1-396.39,45.66Z" transform="translate(537.72 29.11)"/><path class="cls-7" d="M-337,35.87h25.57V22.79h-42.63V79.45h42.63V65.92H-337V56.66h20.67V44.09H-337Z" transform="translate(537.72 29.11)"/><path class="cls-7" d="M-246.24,44.79a.19.19,0,0,0,0-.08,24.57,24.57,0,0,0-.68-2.72,2.14,2.14,0,0,0-.09-.34,29.81,29.81,0,0,0-5.75-10.39q-7.09-8.46-21.37-8.47H-296V79.45h23a30.15,30.15,0,0,0,9.17-1.33l.51-.16a24.77,24.77,0,0,0,10.1-6.46q7.6-7.95,7.61-20.65A31.62,31.62,0,0,0-246.24,44.79Zm-32.42-9.13h4.52a8.36,8.36,0,0,1,7.62,4.48,14.37,14.37,0,0,1,.78,1.51c.06.11.11.23.16.34a18.55,18.55,0,0,1,.94,2.72l0,.1a23.83,23.83,0,0,1,.72,6q0,7.21-3,11.41c-2,2.8-4.4,4.2-7.28,4.2h-4.52Z" transform="translate(537.72 29.11)"/><path class="cls-7" d="M-229.82,22.79V79.45h17.39V22.79Z" transform="translate(537.72 29.11)"/><path class="cls-7" d="M-199,22.79V36.37h11.74V79.45h16.48V36.37H-159V22.79Z" transform="translate(537.72 29.11)"/><path class="cls-7" d="M-102.25,51.6a15.59,15.59,0,0,0-7.14-5.66c-.79-.3-1.72-.62-2.81-.95l-1-.28q-4.11-1.18-10.68-2.58l-.62-.14a13.89,13.89,0,0,1-4.36-1.52A2.77,2.77,0,0,1-130.11,38q0-3.53,5.69-3.53,6.86,0,9.09,5.68l14.4-4.35q-5.56-13.9-22.87-13.91-11.42,0-17.49,5.32a17,17,0,0,0-6.08,13.32c0,.43,0,.86.05,1.28a.76.76,0,0,0,0,.15c0,.35.06.69.12,1a15.48,15.48,0,0,0,.33,1.7,15.59,15.59,0,0,0,3.72,6.69q3,3.24,11.24,5.62c2.32.66,5,1.28,7.9,1.84a16.29,16.29,0,0,1,5.41,1.81,3.22,3.22,0,0,1,1.52,2.84c0,2.32-2.19,3.49-6.56,3.49q-5.72,0-8.48-3.16a9.48,9.48,0,0,1-2-3.69l-16.14,2.9q2.43,8.64,8.83,13A21.31,21.31,0,0,0-137.81,78a33.21,33.21,0,0,0,13.14,2.36A33.68,33.68,0,0,0-111.54,78a22.92,22.92,0,0,0,5.17-3,16.72,16.72,0,0,0,7-13.93A15.88,15.88,0,0,0-102.25,51.6Z" transform="translate(537.72 29.11)"/><path class="cls-7" d="M681,45.85a.21.21,0,0,0,0-.11q-.93-10.4-7.27-17A23.92,23.92,0,0,0,671.89,27q-7-6-17.41-6-12.78,0-20,8.28a29.35,29.35,0,0,0-6.94,16.27l0,.27a.45.45,0,0,1,0,.11,40.47,40.47,0,0,0-.22,4.33q0,13.27,7.53,21.21t19.49,7.92q11.86,0,19.38-8.13t7.51-21.63C681.21,48.28,681.16,47.05,681,45.85ZM660.56,62.61a6.56,6.56,0,0,1-6.33,3.84q-8.21,0-8.21-15.82c0-1.73.07-3.32.2-4.78a.45.45,0,0,0,0-.11l0-.27q1.18-11.69,8.31-11.69,6.38,0,7.62,9.58c.1.75.17,1.54.22,2.38a.41.41,0,0,0,0,.11c.05.86.07,1.76.07,2.71Q662.49,58.76,660.56,62.61Z" transform="translate(537.72 29.11)"/><path class="cls-7" d="M742.48,30.21A16.76,16.76,0,0,0,735,23.86q-4.71-2.07-13.76-2.07H697.06V78.44H714.7V57.86h9.83q9.42,0,15.07-5a15.9,15.9,0,0,0,4.71-7,.49.49,0,0,0,0-.11c0-.11.07-.22.11-.33a19.41,19.41,0,0,0,.78-5.61A17.31,17.31,0,0,0,742.48,30.21Zm-28,4.53h6.39q7.1,0,7.1,5.31,0,5.64-7.68,5.64h-5.81Z" transform="translate(537.72 29.11)"/><path class="cls-7" d="M755.28,21.79V35.36H767V78.44H783.5V35.36h11.75V21.79Z" transform="translate(537.72 29.11)"/><path class="cls-7" d="M808.69,21.79V78.44h17.39V21.79Z" transform="translate(537.72 29.11)"/><path class="cls-7" d="M895.67,45.85a.21.21,0,0,0,0-.11,1.84,1.84,0,0,0,0-.33q-1-10.17-7.24-16.69-7.46-7.8-19.28-7.8-12.78,0-20,8.28a29.29,29.29,0,0,0-6.93,16.21c0,.11,0,.22,0,.33a.45.45,0,0,1,0,.11,40.47,40.47,0,0,0-.22,4.33q0,13.27,7.54,21.21t19.48,7.92q11.88,0,19.39-8.13t7.51-21.63C895.84,48.28,895.79,47.05,895.67,45.85ZM875.19,62.61a6.58,6.58,0,0,1-6.33,3.84q-8.22,0-8.22-15.82c0-1.73.07-3.32.2-4.78a.45.45,0,0,0,0-.11c0-.11,0-.22,0-.33q1.2-11.62,8.3-11.63T877,45.41c0,.11,0,.22,0,.33a.41.41,0,0,0,0,.11c.05.86.07,1.76.07,2.71Q877.12,58.76,875.19,62.61Z" transform="translate(537.72 29.11)"/><path class="cls-7" d="M946,21.79V38.56q0,3.46.28,6.85a1.84,1.84,0,0,0,0,.33.4.4,0,0,0,0,.11q.33,3.82,1,7.56a68.22,68.22,0,0,0-3.94-7.56.3.3,0,0,0-.06-.11c-.06-.11-.13-.22-.2-.33-.55-.93-1.14-1.89-1.77-2.87l-13.2-20.75H911.68V78.44h14.11V51a30.74,30.74,0,0,0-.49-5.16s0-.07,0-.11l-.06-.33c-.21-1.16-.48-2.4-.81-3.7.57,1.29,1.14,2.52,1.71,3.7,0,.11.1.22.16.33a.54.54,0,0,0,.05.11,85.51,85.51,0,0,0,4.11,7.56l15.52,25h14.15V21.79Z" transform="translate(537.72 29.11)"/><path class="cls-7" d="M1020.62,50.59a15.7,15.7,0,0,0-5.39-4.85,13.75,13.75,0,0,0-1.74-.81A94.12,94.12,0,0,0,1001,41.56l-2-.43a16,16,0,0,1-5-1.66A2.79,2.79,0,0,1,992.77,37q0-3.52,5.69-3.53a9.56,9.56,0,0,1,7,2.49,9.14,9.14,0,0,1,2,3.2l14.4-4.36a20.51,20.51,0,0,0-15.41-13.13,33.45,33.45,0,0,0-7.46-.77q-11.42,0-17.49,5.31a16.94,16.94,0,0,0-6.08,13.33,15.77,15.77,0,0,0,1.08,5.86c0,.11.08.21.13.32a.54.54,0,0,0,0,.11,15.87,15.87,0,0,0,3,4.54q3.3,3.6,13.08,6.12,2.76.72,6,1.35a16.09,16.09,0,0,1,5.42,1.8,3.25,3.25,0,0,1,1.52,2.84q0,3.5-6.56,3.49a14,14,0,0,1-5-.82,8.64,8.64,0,0,1-5.42-6l-16.15,2.91q3.45,12.23,14.84,15.79a35.83,35.83,0,0,0,10.73,1.47q11.32,0,18.3-5.33a16.76,16.76,0,0,0,7-13.94A15.84,15.84,0,0,0,1020.62,50.59Z" transform="translate(537.72 29.11)"/><rect class="cls-8" x="911.78" y="85.69" width="88.12" height="174.64" rx="29.11"/><rect class="cls-6" x="658.4" y="85.69" width="327.51" height="174.64" rx="32.55"/><rect class="cls-8" x="627.01" y="485.54" width="253.05" height="57.94" rx="25.37"/><rect class="cls-6" x="605.99" y="485.54" width="253.05" height="57.94" rx="25.37"/><rect class="cls-9" x="612.33" y="489.18" width="240.38" height="50.67" rx="22.52"/><rect class="cls-8" x="627.48" y="419.89" width="258.71" height="61.56" rx="25.37"/><rect class="cls-6" x="605.99" y="419.89" width="258.71" height="61.56" rx="25.37"/><path class="cls-9" d="M320.5,417.16V426A22.51,22.51,0,0,1,298,448.47H97.27A22.51,22.51,0,0,1,74.75,426v-8.8a22.52,22.52,0,0,1,22.52-22.52H298a22.51,22.51,0,0,1,22.52,22.52Z" transform="translate(537.72 29.11)"/><rect class="cls-8" x="627.79" y="301.25" width="255.31" height="90.5" rx="25.37"/><rect class="cls-6" x="606.59" y="301.25" width="255.31" height="90.5" rx="25.37"/><rect class="cls-9" x="612.99" y="306.93" width="242.52" height="79.15" rx="22.52"/><path class="cls-6" d="M421.91,412v20.68H344.83a10.34,10.34,0,0,1,0-20.68Z" transform="translate(537.72 29.11)"/><path class="cls-6" d="M421.91,476.72V497.4H340.23a10.34,10.34,0,0,1,0-20.68Z" transform="translate(537.72 29.11)"/><path class="cls-6" d="M421.91,287.32H340.67a10.34,10.34,0,0,0,0,20.68h81.24Z" transform="translate(537.72 29.11)"/><path class="cls-6" d="M421.91,326.6v20.68H340.67a10.34,10.34,0,0,1,0-20.68Z" transform="translate(537.72 29.11)"/><rect class="cls-10" x="923.02" y="219.88" width="36.61" height="625.12"/><rect class="cls-11" x="923.02" y="219.88" width="36.61" height="72.61"/><rect class="cls-11" x="923.02" y="283.68" width="6.35" height="561.32"/><path class="cls-11" d="M423.85,218.18v45.2H403.68v-8.69h-3.57V590.45h3.57v-6.39h20.17v6.39h3.58V218.18Zm0,362.56H403.68V555.21h20.17Zm0-28.85H403.68V526.36h20.17Zm0-28.85H403.68V497.51h20.17Zm0-28.85H403.68V468.66h20.17Zm0-28.85H403.68V439.81h20.17Zm0-28.85H403.68V411h20.17Zm0-28.85H403.68V382.11h20.17Zm0-28.85H403.68V353.26h20.17Zm0-28.85H403.68V324.4h20.17Zm0-28.85H403.68V295.55h20.17Zm0-28.86H403.68V266.7h20.17Z" transform="translate(537.72 29.11)"/><path class="cls-12" d="M113.87,52.83c-3.77-11.63,2-23.68,11.5-27.58,11-4.49,25.63,2.39,29.16,16.25l17.92,64.34" transform="translate(537.72 29.11)"/><path class="cls-12" d="M241.05,43.27c-.51-12.21,8.25-22.28,18.48-23.48,11.79-1.38,24.05,9.18,23.73,23.48v66.79" transform="translate(537.72 29.11)"/><path class="cls-12" d="M361.39,43.27c-.51-12.21,8.25-22.28,18.48-23.48,11.79-1.38,24.05,9.18,23.73,23.48v66.79" transform="translate(537.72 29.11)"/><rect class="cls-8" x="880.81" y="85.69" width="92.82" height="174.64" rx="29.11"/><rect class="cls-6" x="632.12" y="85.69" width="327.51" height="174.64" rx="32.55"/><path class="cls-10" d="M414.52,88.73V199.08a25.92,25.92,0,0,1-11.09,21.29l-.76.52a25.83,25.83,0,0,1-14.14,4.18H127.78a26,26,0,0,1-26-26V88.73a26,26,0,0,1,26-26H388.53A26,26,0,0,1,414.52,88.73Z" transform="translate(537.72 29.11)"/><path class="cls-9" d="M409.24,93.64V204a25.9,25.9,0,0,1-5.81,16.38l-.76.52a25.83,25.83,0,0,1-14.14,4.18H127.78a26,26,0,0,1-26-26V88.73a25.86,25.86,0,0,1,5.8-16.37,25.81,25.81,0,0,1,14.91-4.71H383.25A26,26,0,0,1,409.24,93.64Z" transform="translate(537.72 29.11)"/><g id="Layer_37" data-name="Layer 37"><path class="cls-10" d="M154.41,144.76l-27.81-.54-.16,8.17v.34l-.16,8.23,2.53,0,30.51.59v.14l0,2.1h0L159,176.42l-.23,12.28v.24l-.26,13.48L158.27,216l2.53.05h.08l5,.1,7.53.14.53-27.4v-.26l.52-26.78,15.59.3.19-9.46v-.34l.14-6.79v-.15Z" transform="translate(537.72 29.11)"/><path class="cls-11" d="M190.37,145.6l-20.89-.41H169l-14.51-.29h0l-25.38-.49-.15,7.66v.66l-.16,8.28v.14l30.51.59,2.2,0h.33l0,1.62-.32,16.31h0l-.17,9v.24l0,.73-.5,26v.57h.11l5,.1,10,.2.53-27.55v-.28l.51-26.62,15.6.3.18-9.65v-.34l.13-6.74Z" transform="translate(537.72 29.11)"/><path class="cls-8" d="M160.6,163.62l1.22-.21,5.66-1,4.83-.83L171,153.71l-.17-1,0-.12v-.07h0l0-.14-1.24-7.2v-.08l-.44.08-4.38.75-8.06,1.38L129,152.07l-1.87.32h0l-.66.11-.15,0-.46.08h0l-.69.12-4.45.76-14.06,2.42,2.84,16.5,11.22-1.93,16.52-2.84,4.82-.83,3.76,21.89,0,.16,0,.09,5.42,31.53,10.09-1.74,4.83-.83-.27-1.58,0-.14-4.56-26.52-.12-.73,0-.08,0-.16L159,176.42l-2.09-12.17,2.34-.4Z" transform="translate(537.72 29.11)"/><path class="cls-8" d="M224.28,204.1a24.12,24.12,0,0,1-2.68-4.79,24.4,24.4,0,0,1-1.6-5.57,15.21,15.21,0,0,0,6.23-4.74l.07-.11s0,0,0,0l.11-.16.1-.17c.06-.1.12-.2.17-.3a15.12,15.12,0,0,0,1.66-7.2A12.53,12.53,0,0,0,223.85,171q-4.5-3.83-12.66-3.82H186.57v47.15H201v-18h4.56q.15.88.39,1.89a40.28,40.28,0,0,0,14.14,22.52c1,.85,2,1.54,2.81,2.09L225.7,220l8-8.06A24.65,24.65,0,0,1,224.28,204.1Zm-16.57-26.94c3.7,0,5.56,1.51,5.56,4.52a3.81,3.81,0,0,1-1.66,3.35,7.63,7.63,0,0,1-4.39,1.14H201v-9Z" transform="translate(537.72 29.11)"/><path class="cls-8" d="M333.93,143.9v74.28h39.14V204.13H349.59V188.3h19l-.35-13.59h-19l.34-16.41h42.67V143.9Z" transform="translate(537.72 29.11)"/><path class="cls-8" d="M280.1,208.39l-2.47-12.57L276.29,189l0-.14,0-.16,0-.17h0l-7.08-36h0l0-.14v0l-.3-1.51-18.71-2-.22.51-1.33,3.07-.06.14h0l0,.07-15.52,35.92-.08.17-.07.16v0l0,.11-.19.44-4,9.36,10.14,1.1,4.68.51,4-9.34.22-.51,13.85,1.51,4.94,26.81,11.19,1.22,5,.54Zm-26.31-34.71,3.47-8.67,2.55,15.46-5-.54-3.38-.37Z" transform="translate(537.72 29.11)"/><path class="cls-8" d="M314.21,188.53c0,.05,0,.11,0,.17s0,.08,0,.13v0s0,.09,0,.14c0,.3-.06.6-.11.92l10,.86,4.88.42c.05-.75.07-1.48.07-2.2a.66.66,0,0,0,0-.14,0,0,0,0,0,0,0,.24.24,0,0,0,0-.12.49.49,0,0,0,0-.17h0c0-.33,0-.66,0-1a22.21,22.21,0,0,0-4.12-12.24,17.93,17.93,0,0,0-7.75-6,28.42,28.42,0,0,0-7.18-1.91,27,27,0,0,0-6.38-.17,19.72,19.72,0,0,0-11.72,5.21q-6.37,5.85-8.42,16.05h0l0,.17a.45.45,0,0,0,0,.16.7.7,0,0,0,0,.14q-.21,1-.36,2.16-1.71,12.24,3.76,20.09t16,9.32c.47.06.93.12,1.39.16a21.82,21.82,0,0,0,14-3.15q6.69-4.22,9-13.55l-14.33-2.9c-.08.32-.16.64-.25.94q-2.07,7.44-8,6.61a7.15,7.15,0,0,1-1.45-.35,6.19,6.19,0,0,1-3.58-3.44q-1.53-3.28-.34-11.71c.21-1.52.47-2.91.76-4.18,0-.05,0-.09,0-.14v0a.74.74,0,0,1,0-.14.85.85,0,0,1,0-.17h0q1.77-7.17,5.36-8.86a5.86,5.86,0,0,1,3.35-.45,6,6,0,0,1,4.33,3c.95,1.48,1.32,3.59,1.1,6.35Z" transform="translate(537.72 29.11)"/><path class="cls-6" d="M159.28,163.84l1.32-.22,1.22-.21,5.66-1-1.07-6.23-.59-3.47,0-.12v-.08l0-.14,0-.21-1.07-6.24-8.06,1.38L129,152.07l-1.87.32h0l-.66.11-.15,0-.46.08h0l-.69.12-4.45.76-14.06,2.42-4.83.83,2.84,16.5,4.83-.83,11.22-1.93,16.52-2.84,3.62,21.06,0,.16V189l5.56,32.36,4.83-.83,10.09-1.74-.43-2.51,0-.14-.07-.43-2.28-13.24-2.32-13.48v-.08l0-.16-4.06-23.62,4.83-.83Z" transform="translate(537.72 29.11)"/><polyline class="cls-13" points="697.81 192.81 698.32 192.73 699.54 192.52 705.2 191.54 704.13 185.31 703.93 184.15"/><polyline class="cls-13" points="703.64 182.44 703.54 181.84 703.51 181.72 703.5 181.64 703.48 181.5 703.44 181.29 702.37 175.05 694.98 176.32"/><polyline class="cls-14" points="678.95 179.07 666.7 181.18 664.83 181.5 664.82 181.5 664.16 181.61 664.01 181.64 663.55 181.72 663.54 181.72 662.85 181.84 658.4 182.6 654.91 183.2"/><polyline class="cls-13" points="646.9 184.58 644.34 185.02 639.51 185.85 640.78 193.24"/><polyline class="cls-13" points="641.08 194.96 642.35 202.35 647.18 201.52 649.74 201.08"/><polyline class="cls-13" points="667.53 198.02 674.92 196.75 676.19 204.14"/><polyline class="cls-15" points="678.42 217.1 678.54 217.81 678.57 217.97 678.58 218.06 681.76 236.55"/><polyline class="cls-13" points="682.87 243.03 684.14 250.42 688.97 249.59 691.53 249.15"/><polyline class="cls-13" points="691.67 249.13 699.06 247.85 698.63 245.34 698.6 245.2 698.53 244.77 697.79 240.46"/><polyline class="cls-16" points="695.56 227.5 693.93 218.05 693.92 217.97 693.89 217.81 692.21 208.06"/><polyline class="cls-13" points="691.1 201.58 689.83 194.19 694.66 193.36 697 192.95 697.22 192.91"/><path class="cls-6" d="M220.09,205c-.24-.29-.47-.6-.7-.92a24.45,24.45,0,0,1-4.29-10.36,15.21,15.21,0,0,0,6.23-4.74.61.61,0,0,0,.07-.1l0,0,.11-.16c0-.06.07-.11.1-.16l.17-.31a15.12,15.12,0,0,0,1.66-7.2A12.53,12.53,0,0,0,219,171q-4.5-3.83-12.66-3.82H181.67v47.15h14.47v-18h4.56c.09.53.2,1.08.34,1.67a40.26,40.26,0,0,0,2.8,8.23v0c.32.69.66,1.36,1,2.06A41.16,41.16,0,0,0,218,222.76l2.09-2.09,3.29-3.31,5.41-5.43A24.43,24.43,0,0,1,220.09,205Zm-24-27.86h6.67c3.7,0,5.56,1.51,5.56,4.52a3.81,3.81,0,0,1-1.66,3.35,7.63,7.63,0,0,1-4.39,1.14h-6.18Z" transform="translate(537.72 29.11)"/><path class="cls-13" d="M217.41,200.84a24.51,24.51,0,0,1-2.31-7.1,15.83,15.83,0,0,0,6-4.41" transform="translate(537.72 29.11)"/><path class="cls-17" d="M221.16,173.33A13.3,13.3,0,0,0,219,171q-4.5-3.83-12.66-3.82h-8.65" transform="translate(537.72 29.11)"/><polyline class="cls-13" points="726.89 196.25 719.39 196.25 719.39 203.75"/><line class="cls-18" x1="719.39" y1="214.47" x2="719.39" y2="230.54"/><polyline class="cls-13" points="719.39 235.9 719.39 243.4 733.86 243.4 733.86 235.9"/><path class="cls-13" d="M196.14,203.76v-7.5h4.56c.09.53.2,1.08.34,1.67a40,40,0,0,0,1.67,5.55" transform="translate(537.72 29.11)"/><path class="cls-13" d="M212.24,218a42.69,42.69,0,0,0,5.8,4.74l2.09-2.09,3.2-3.22" transform="translate(537.72 29.11)"/><path class="cls-13" d="M223.54,217.24l5.29-5.31a24.55,24.55,0,0,1-6.2-4.17" transform="translate(537.72 29.11)"/><path class="cls-13" d="M203.64,186.1a11.2,11.2,0,0,1-1.32.07h-6.18v-9h6.67c.29,0,.56,0,.83,0" transform="translate(537.72 29.11)"/><path class="cls-6" d="M329,143.9v74.28h39.14V204.13H344.69V188.3h19l-.35-13.59h-19l.34-16.41h42.67V143.9Z" transform="translate(537.72 29.11)"/><polyline class="cls-13" points="874.25 173.01 866.75 173.01 866.75 180.51"/><line class="cls-19" x1="866.75" y1="192.37" x2="866.75" y2="233.86"/><polyline class="cls-13" points="866.75 239.79 866.75 247.29 874.25 247.29"/><line class="cls-20" x1="882.3" y1="247.29" x2="894.37" y2="247.29"/><polyline class="cls-13" points="898.39 247.29 905.89 247.29 905.89 233.24 898.39 233.24"/><polyline class="cls-13" points="889.91 233.24 882.41 233.24 882.41 225.74"/><polyline class="cls-13" points="882.41 224.91 882.41 217.41 889.91 217.41"/><polyline class="cls-13" points="893.9 217.41 901.4 217.41 901.05 203.82 893.55 203.82"/><polyline class="cls-13" points="889.57 203.82 882.07 203.82 882.23 196.32"/><polyline class="cls-13" points="882.25 194.91 882.41 187.41 889.91 187.41"/><line class="cls-21" x1="899.13" y1="187.41" x2="912.97" y2="187.41"/><polyline class="cls-13" points="917.58 187.41 925.08 187.41 925.08 173.01 917.58 173.01"/><line class="cls-22" x1="903.14" y1="173.01" x2="881.47" y2="173.01"/><path class="cls-6" d="M277.5,220.1,271.39,189l0-.14,0-.16,0-.17h0l-7.06-35.91,0-.07h0l0-.14-.3-1.54-14-1.53-4.68-.51-1.55,3.58-.06.14h0l0,.07L228,188.53l-.08.17-.07.16v0l-.05.11L226,193.26h0l-2.39,5.53,14.82,1.61.22-.51,4-9.34,4.68.51,9.17,1,4.94,26.81,16.2,1.76Zm-22.68-40.17.09.54-8.36-.91L252.36,165l1.43,8.67Z" transform="translate(537.72 29.11)"/><polyline class="cls-13" points="803.06 187.32 801.96 181.72 801.94 181.65 801.94 181.64 801.91 181.5 801.61 179.96 794.15 179.15"/><polyline class="cls-13" points="790.36 178.73 787.58 178.43 782.9 177.92 781.35 181.5 781.29 181.64 781.29 181.65 781.26 181.72 779.93 184.81"/><line class="cls-23" x1="774.71" y1="196.88" x2="766.88" y2="214.99"/><polyline class="cls-13" points="764.28 221.03 763.7 222.37 763.69 222.38 761.3 227.91 776.12 229.52 776.34 229.01 780.34 219.67 785.02 220.18 794.19 221.18 795.55 228.56"/><polyline class="cls-13" points="797.77 240.61 799.13 247.99 806.59 248.8"/><polyline class="cls-13" points="807.87 248.94 815.33 249.75 815.22 249.21 813.88 242.39"/><polyline class="cls-24" points="810.27 224.03 809.11 218.11 809.08 217.97 809.05 217.81 809.02 217.64 809.02 217.63 804.87 196.5"/><polyline class="cls-13" points="791.41 202.18 791.51 202.79 792.54 209.04 792.63 209.58 784.27 208.67 787.05 201.71"/><polyline class="cls-13" points="787.3 201.09 790.08 194.12 791.3 201.52"/><path class="cls-6" d="M324.08,188.83a.28.28,0,0,0,0-.13.48.48,0,0,0,0-.17h0a25.36,25.36,0,0,0-.36-4h0a21.27,21.27,0,0,0-3.8-9.24,16.75,16.75,0,0,0-2.79-3q-4.54-3.82-12.14-4.89c-.5-.07-1-.13-1.48-.17q-10-.91-16.62,5.21-6.37,5.85-8.42,16.05h0l0,.17a.45.45,0,0,0,0,.16.7.7,0,0,0,0,.14q-.21,1-.36,2.16a40.66,40.66,0,0,0-.39,4.66,26.42,26.42,0,0,0,2.47,12.57,22.08,22.08,0,0,0,1.68,2.86q5.49,7.84,16,9.32a26.13,26.13,0,0,0,6.28.16,21.06,21.06,0,0,0,9.13-3.15q6.69-4.22,9-13.55l-9.68-2-4.65-.94q-1.36,5.82-4.77,7.2a6.62,6.62,0,0,1-3.45.35,6.19,6.19,0,0,1-5-3.79q-1.53-3.28-.34-11.71c.21-1.52.47-2.91.76-4.18,0-.05,0-.09,0-.14h0a.83.83,0,0,1,0-.15.85.85,0,0,1,0-.17h0q2.5-10.19,8.71-9.31a5.34,5.34,0,0,1,1.55.45,6.38,6.38,0,0,1,2.78,2.51c1,1.48,1.32,3.59,1.1,6.35h0c0,.05,0,.11,0,.17s0,.09,0,.14v0s0,.09,0,.14c0,.3-.06.6-.11.92L324,191.2c0-.14,0-.28,0-.42,0-.6,0-1.2,0-1.78v-.14A0,0,0,0,0,324.08,188.83Z" transform="translate(537.72 29.11)"/><path class="cls-13" d="M307.65,181.4a7.62,7.62,0,0,1,.56.77c1,1.48,1.32,3.59,1.1,6.35h0c0,.05,0,.11,0,.17s0,.09,0,.14v0s0,.09,0,.14c0,.3-.06.6-.11.92L324,191.2c0-.14,0-.28,0-.42,0-.6,0-1.2,0-1.78v-.14a0,0,0,0,0,0,0,.28.28,0,0,0,0-.13.48.48,0,0,0,0-.17h0a25.36,25.36,0,0,0-.36-4h0a23.11,23.11,0,0,0-.82-3.4" transform="translate(537.72 29.11)"/><path class="cls-25" d="M314,170.22a26.67,26.67,0,0,0-9.05-2.79c-.5-.07-1-.13-1.48-.17q-10-.91-16.62,5.21-6.37,5.85-8.42,16.05h0l0,.17a.45.45,0,0,0,0,.16.7.7,0,0,0,0,.14q-.21,1-.36,2.16a40.66,40.66,0,0,0-.39,4.66,26.42,26.42,0,0,0,2.47,12.57,22.08,22.08,0,0,0,1.68,2.86q5.49,7.84,16,9.32a26.13,26.13,0,0,0,6.28.16,21.06,21.06,0,0,0,9.13-3.15c.56-.36,1.1-.74,1.62-1.15" transform="translate(537.72 29.11)"/><path class="cls-13" d="M319.46,211a26.61,26.61,0,0,0,2.75-7l-9.68-2-4.65-.94q-1.1,4.67-3.5,6.48" transform="translate(537.72 29.11)"/><path class="cls-13" d="M294,195.92c.09-.86.19-1.78.33-2.74.21-1.52.47-2.91.76-4.18,0-.05,0-.09,0-.14h0a.83.83,0,0,1,0-.15.85.85,0,0,1,0-.17h0a18.24,18.24,0,0,1,2.94-6.85" transform="translate(537.72 29.11)"/><rect class="cls-8" x="769.68" y="270.37" width="42.21" height="17.97" rx="8.99"/><rect class="cls-8" x="882.99" y="270.37" width="42.21" height="17.97" rx="8.99"/><rect class="cls-8" x="656.36" y="270.37" width="42.21" height="17.97" rx="8.99"/><rect class="cls-8" x="662.37" y="264.02" width="314.81" height="16.09" rx="8.04"/><rect class="cls-6" x="614.58" y="264.02" width="314.81" height="16.09" rx="8.04"/><circle class="cls-8" cx="773.62" cy="279.35" r="8.99"/><circle class="cls-8" cx="660.3" cy="279.35" r="8.99"/><circle class="cls-8" cx="886.93" cy="279.35" r="8.99"/><circle class="cls-26" cx="656.36" cy="279.35" r="8.99"/><circle class="cls-26" cx="882.99" cy="279.35" r="8.99"/><circle class="cls-26" cx="769.68" cy="279.35" r="8.99"/><path class="cls-6" d="M83.6,41v0a20.78,20.78,0,0,0-14.06,25l19.5-5.44,20.58-5.73,13.86-3.86L118,31.35Z" transform="translate(537.72 29.11)"/><path class="cls-8" d="M143.53,45.33,103.45,56.49a20.81,20.81,0,0,1,40.08-11.16Z" transform="translate(537.72 29.11)"/><path class="cls-6" d="M217.12,23.7v0A20.79,20.79,0,0,0,196.88,44h56V23.7Z" transform="translate(537.72 29.11)"/><path class="cls-8" d="M273.67,44h-41.6a20.81,20.81,0,0,1,41.6,0Z" transform="translate(537.72 29.11)"/><path class="cls-6" d="M336.1,23.7v0A20.79,20.79,0,0,0,315.86,44h56V23.7Z" transform="translate(537.72 29.11)"/><path class="cls-8" d="M392.65,44h-41.6a20.81,20.81,0,0,1,41.6,0Z" transform="translate(537.72 29.11)"/><text class="cls-27" transform="translate(668.9 132.55) scale(1.08 1)">WITHOUT</text><text class="cls-28" transform="translate(774.79 167.9) scale(1.45 1)">A</text><line class="cls-29" x1="762.84" y1="152.58" x2="659.01" y2="152.58"/><line class="cls-29" x1="922.56" y1="152.58" x2="818.72" y2="152.58"/></g><path class="cls-10" d="M411.8,190.62v7.95a25.92,25.92,0,0,1-11.09,21.29l-.76.52L380.69,203l18.78,2.62-21.82-19.73,28.87,4Z" transform="translate(537.72 29.11)"/><path class="cls-11" d="M414.52,191.13v8a25.92,25.92,0,0,1-11.09,21.29l-.76.52-19.26-17.42,18.78,2.62-21.82-19.73,28.87,4Z" transform="translate(537.72 29.11)"/><path class="cls-10" d="M302.67,396.06l-23.82,12.69,10.21-14.11h5.73A22.39,22.39,0,0,1,302.67,396.06Z" transform="translate(537.72 29.11)"/><polygon class="cls-11" points="675.38 141.47 648.04 140.81 639.51 140.6 639.51 123.63 648.04 127.87 675.38 141.47"/><polygon class="cls-8" points="648.04 127.87 648.04 140.81 639.51 140.6 639.51 123.63 648.04 127.87"/><path class="cls-11" d="M305.86,396.06,282,408.75l10.21-14.11H298A22.39,22.39,0,0,1,305.86,396.06Z" transform="translate(537.72 29.11)"/><polygon class="cls-10" points="678.52 367.92 671.68 386.08 642.09 386.08 671.54 358.37 662.15 383.33 678.52 367.92"/><polygon class="cls-11" points="682.43 367.92 675.59 386.08 646 386.08 675.45 358.37 666.06 383.33 682.43 367.92"/><polygon class="cls-10" points="711.42 539.85 692.84 539.85 683.36 528.7 702.71 539.31 695.96 531.37 711.42 539.85"/><polygon class="cls-11" points="714.53 539.85 695.95 539.85 686.47 528.7 705.82 539.31 699.07 531.37 714.53 539.85"/><path class="cls-6" d="M135.29,298.75c-.17-.26-.34-.51-.52-.75a15.4,15.4,0,0,0-6.4-5.14q-4.37-1.92-12.75-1.92H93.19v52.5h16.35V324.36h9.12q8.73,0,14-4.61a15.39,15.39,0,0,0,5.23-12.12A16,16,0,0,0,135.29,298.75Zm-20.6,14.35h-5.38V302.94h5.92q6.58,0,6.58,4.92Q121.81,313.1,114.69,313.1Z" transform="translate(537.72 29.11)"/><path class="cls-11" d="M167.84,330.56V290.94H151.73v52.5h36.81V330.56Z" transform="translate(537.72 29.11)"/><path class="cls-6" d="M187.05,343.44l-1.23-11.85-20.59,2.13L161.53,298l-.38-3.68-9.42,1-6.61.68.21,2,5.2,50.2,36.62-3.8Z" transform="translate(537.72 29.11)"/><path class="cls-6" d="M233.17,298l0-.18L231,290.94h-17l-2.12,6.88-.06.18-14,45.44H210.8L214,333.1H228l3,10.34h16.45Zm-16.48,23.63,4.24-15.23,4.25,15.23Z" transform="translate(537.72 29.11)"/><path class="cls-10" d="M287.1,290.94l-3.38,6.63-.13.25-4.07,8-1.24,2.43L272.83,298l-.09-.18-3.66-6.88H251.44l4,6.88.1.18,13.55,23.21v22.23h15.65V321.21l12.7-23.39,3.74-6.88Z" transform="translate(537.72 29.11)"/><path class="cls-11" d="M289.64,290.94l-2.89,5.67-.62,1.21-5.32,10.43-1.29-2.43L275.36,298l-.09-.18-3.66-6.88H254l4,6.88.11.18,13.54,23.21v22.23H287.3V321.21L300,297.82l3.73-6.88Z" transform="translate(537.72 29.11)"/><path class="cls-6" d="M118.64,409.91a13.18,13.18,0,0,0-10-4q-6.61,0-10.34,4.29A15.9,15.9,0,0,0,94.59,421q0,6.87,3.9,11a13.31,13.31,0,0,0,10.09,4.1,13,13,0,0,0,10-4.21q3.89-4.22,3.89-11.19Q122.5,414,118.64,409.91Zm-6.83,17.54a3.39,3.39,0,0,1-3.27,2q-4.26,0-4.26-8.19,0-8.72,4.43-8.72,4.1,0,4.1,7.65C112.81,423.7,112.48,426.13,111.81,427.45Z" transform="translate(537.72 29.11)"/><path class="cls-6" d="M154.22,410.68a8.66,8.66,0,0,0-3.87-3.28,18.29,18.29,0,0,0-7.12-1.08H130.7v29.33h9.13V425h5.1a11.32,11.32,0,0,0,7.79-2.58,8.57,8.57,0,0,0,2.93-6.76A9,9,0,0,0,154.22,410.68Zm-11.51,8h-3V413H143c2.45,0,3.68.91,3.68,2.75S145.36,418.7,142.71,418.7Z" transform="translate(537.72 29.11)"/><path class="cls-6" d="M160.84,406.32v7h6.08v22.3h8.53v-22.3h6.08v-7Z" transform="translate(537.72 29.11)"/><path class="cls-6" d="M188.49,406.32v29.33h9V406.32Z" transform="translate(537.72 29.11)"/><path class="cls-6" d="M259.55,406.32V415a42.46,42.46,0,0,0,.69,7.69,41.78,41.78,0,0,0-3.1-5.63l-6.83-10.74H241.8v29.33h7.31v-14.2a20.67,20.67,0,0,0-.71-4.82,49.47,49.47,0,0,0,3.12,6.06l8,13h7.33V406.32Z" transform="translate(537.72 29.11)"/><path class="cls-6" d="M298.2,421.23a8.08,8.08,0,0,0-3.7-2.93,55.58,55.58,0,0,0-7.48-2,8,8,0,0,1-2.58-.86,1.44,1.44,0,0,1-.66-1.26q0-1.83,2.94-1.83a4.57,4.57,0,0,1,4.71,2.94l7.45-2.25q-2.82-7-11.45-7.19H287a19.79,19.79,0,0,0-3.07.22h0l-.15,0h0a12.84,12.84,0,0,0-3.94,1.25h0a9.07,9.07,0,0,0-1.86,1.26,8.8,8.8,0,0,0-3.15,6.9,8,8,0,0,0,2.19,5.61q2.19,2.39,9.91,3.86a8.39,8.39,0,0,1,2.8.94,1.67,1.67,0,0,1,.78,1.47q0,1.8-3.39,1.8-4.36,0-5.41-3.54l-8.36,1.5q2.5,8.94,13.23,8.94a15.21,15.21,0,0,0,9.48-2.76,8.69,8.69,0,0,0,3.61-7.22A8.28,8.28,0,0,0,298.2,421.23Z" transform="translate(537.72 29.11)"/><path class="cls-10" d="M227.15,409.91a13.19,13.19,0,0,0-10-4q-6.61,0-10.35,4.29A16,16,0,0,0,203.1,421q0,6.87,3.9,11a13.3,13.3,0,0,0,10.08,4.1,13,13,0,0,0,10-4.21Q231,427.67,231,420.7,231,414,227.15,409.91Z" transform="translate(537.72 29.11)"/><path class="cls-11" d="M229.74,409.91a13.18,13.18,0,0,0-10-4q-6.62,0-10.34,4.29A15.9,15.9,0,0,0,205.69,421q0,6.87,3.9,11a13.31,13.31,0,0,0,10.09,4.1,13,13,0,0,0,10-4.21q3.89-4.22,3.89-11.19Q233.6,414,229.74,409.91Z" transform="translate(537.72 29.11)"/><path class="cls-6" d="M108.77,493.25a3.49,3.49,0,0,1-3.11-1.72q-1.11-1.72-1.11-6.51,0-8.55,4.26-8.55a3.4,3.4,0,0,1,2.65,1.31,6.47,6.47,0,0,1,1.13,4.25l8.4-.45a13.31,13.31,0,0,0-3.53-8.55q-3.13-3.22-8.95-3.22-6.24,0-9.71,4.23t-3.48,11.13q0,7,3.67,10.91a13.66,13.66,0,0,0,18,1.08,12,12,0,0,0,4-8.27l-8.23-.5C112.48,491.63,111.14,493.25,108.77,493.25Z" transform="translate(537.72 29.11)"/><path class="cls-6" d="M185.5,477v-6.77H163.43v29.33H185.5v-7H172.26v-4.79H183v-6.51h-10.7V477Z" transform="translate(537.72 29.11)"/><path class="cls-6" d="M215.87,474.64q-3.68-4.38-11.06-4.38H193.47v29.33h11.9a13.57,13.57,0,0,0,10.24-4.12,14.83,14.83,0,0,0,3.94-10.69A15.33,15.33,0,0,0,215.87,474.64Zm-7.29,16a4.5,4.5,0,0,1-3.77,2.17h-2.34V476.92h2.34a4.32,4.32,0,0,1,3.94,2.32,10.71,10.71,0,0,1,1.37,5.52A10.11,10.11,0,0,1,208.58,490.67Z" transform="translate(537.72 29.11)"/><path class="cls-6" d="M227.75,470.26v29.33h9V470.26Z" transform="translate(537.72 29.11)"/><path class="cls-6" d="M243.71,470.26v7h6.08v22.3h8.53v-22.3h6.08v-7Z" transform="translate(537.72 29.11)"/><path class="cls-6" d="M293.16,485.17a8.05,8.05,0,0,0-3.69-2.93,54.49,54.49,0,0,0-7.48-2,8.24,8.24,0,0,1-2.58-.86,1.44,1.44,0,0,1-.66-1.27c0-1.21,1-1.82,2.94-1.82q3.54,0,4.7,2.94l7.46-2.25q-2.88-7.2-11.84-7.2-5.91,0-9.05,2.75a8.77,8.77,0,0,0-3.15,6.9,8,8,0,0,0,2.19,5.61q2.19,2.39,9.9,3.86a8.5,8.5,0,0,1,2.81.93,1.7,1.7,0,0,1,.78,1.48q0,1.8-3.39,1.8-4.37,0-5.42-3.54l-8.35,1.5q2.51,8.94,13.23,8.94a15.15,15.15,0,0,0,9.48-2.77,8.66,8.66,0,0,0,3.6-7.21A8.16,8.16,0,0,0,293.16,485.17Z" transform="translate(537.72 29.11)"/><path class="cls-11" d="M149.47,486.8a8.74,8.74,0,0,0,4.17-3.42,9.4,9.4,0,0,0,1-4.48,7.81,7.81,0,0,0-2.8-6.27q-2.81-2.37-7.87-2.37H128.68v29.33h9V488.37h2.84l4.28,11.22h10Z" transform="translate(537.72 29.11)"/><path class="cls-6" d="M147.6,486.28a8.69,8.69,0,0,0,3.81-3.81,9.46,9.46,0,0,0,.59-4.56,7.8,7.8,0,0,0-3.4-6,10.72,10.72,0,0,0-6.23-1.69c-.59,0-1.2,0-1.84.09l-11.85,1.17-3.4.33L128.15,501l8.95-.88-.06-.57L136,489l1.67-.17,1.16-.11,5.35,10.74.54,0,9.39-.92Zm-12.2-3.53-.55-5.58,4.13-.4q3.44-.34,3.72,2.46a2.4,2.4,0,0,1-.83,2.18,4.79,4.79,0,0,1-2.64,1Z" transform="translate(537.72 29.11)"/><g id="playerref_copy" data-name="playerref copy"><path class="cls-6" d="M191.76,675.7c0,7.61-4.52,13.79-10.11,13.79H109.5V661.91h72.15a8.33,8.33,0,0,1,5.64,2.34C190,666.73,191.76,670.93,191.76,675.7Z" transform="translate(537.72 29.11)"/><path class="cls-6" d="M119.62,675.7c0,5.85-2.67,10.84-6.44,12.84a7.75,7.75,0,0,1-3.68,1,7.13,7.13,0,0,1-1.67-.2c-4.79-1.08-8.44-6.75-8.44-13.59,0-7.61,4.53-13.79,10.11-13.79h72.15a8.33,8.33,0,0,1,5.64,2.34H115.14C117.84,666.74,119.62,670.94,119.62,675.7Z" transform="translate(537.72 29.11)"/><ellipse class="cls-6" cx="647.22" cy="704.81" rx="8.07" ry="11"/><path class="cls-6" d="M114.44,680.27a4.28,4.28,0,0,1-4.68,1.79c-1.84-.64-3-2.72-3.07-5.09s2.92-2.45,3,0a1.27,1.27,0,0,0,1.85,1.29,2.77,2.77,0,0,0,1.29-2.71c-.13-2.54-2-4.08-3.9-3.71s-3.44,2.24-3.9,4.62c-1,5.24,2.77,10,6.71,10.08,1,0,1.46,1,1.44,2a7.75,7.75,0,0,1-3.68,1,7.13,7.13,0,0,1-1.67-.2A11,11,0,0,1,103,683.5c-1.52-3.9-1.46-8.58.76-12,2.1-3.26,6.09-4.63,9-2.44S117,676.85,114.44,680.27Z" transform="translate(537.72 29.11)"/><rect class="cls-6" x="637.85" y="718.41" width="79.62" height="97.18" rx="12"/><rect class="cls-6" x="654.84" y="718.41" width="79.62" height="97.18" rx="12"/><rect class="cls-6" x="637.77" y="769.67" width="14.82" height="27.86" rx="5.44"/><rect class="cls-6" x="633.6" y="769.67" width="14.82" height="27.86" rx="5.44"/><g id="RightFoot"><path class="cls-6" d="M185.76,780.17v19.7a4.66,4.66,0,0,1-.72,2.51,4.76,4.76,0,0,1-4,2.25h-5a4.79,4.79,0,0,1-4-2.25,4.66,4.66,0,0,1-.72-2.51v-19.7Z" transform="translate(537.72 29.11)"/><path class="cls-6" d="M189.84,797.84V801a3.62,3.62,0,0,1-.29,1.43,3.71,3.71,0,0,1-3.4,2.25H174.89a3.71,3.71,0,0,1-3.4-2.25,3.8,3.8,0,0,1-.29-1.43v-6.8h15A3.7,3.7,0,0,1,189.84,797.84Z" transform="translate(537.72 29.11)"/><path class="cls-6" d="M189.55,802.38a3.71,3.71,0,0,1-3.4,2.25H174.89a3.71,3.71,0,0,1-3.4-2.25Z" transform="translate(537.72 29.11)"/></g><g id="RightFoot-2" data-name="RightFoot"><path class="cls-6" d="M161.88,780.17v19.7a4.66,4.66,0,0,1-.72,2.51,4.76,4.76,0,0,1-4,2.25h-5a4.79,4.79,0,0,1-4-2.25,4.66,4.66,0,0,1-.72-2.51v-19.7Z" transform="translate(537.72 29.11)"/><path class="cls-6" d="M166,797.84V801a3.62,3.62,0,0,1-.29,1.43,3.71,3.71,0,0,1-3.4,2.25H151a3.71,3.71,0,0,1-3.4-2.25,3.8,3.8,0,0,1-.29-1.43v-6.8h15A3.7,3.7,0,0,1,166,797.84Z" transform="translate(537.72 29.11)"/><path class="cls-6" d="M165.67,802.38a3.71,3.71,0,0,1-3.4,2.25H151a3.71,3.71,0,0,1-3.4-2.25Z" transform="translate(537.72 29.11)"/></g><g id="RightArm"><path class="cls-6" d="M184.58,754.3c-.13,6.67.82,13.67,4.73,19.26,4.33,6.18,10.86,9.62,17.72,12.32,2.92,1.15,6.39-1.27,7.16-4.07.91-3.31-1.13-6-4.07-7.17a37.43,37.43,0,0,1-7-3.61,17.44,17.44,0,0,1-4.05-3.84c-2.46-3.77-2.9-7.86-2.8-12.89.14-7.5-11.51-7.5-11.65,0Z" transform="translate(537.72 29.11)"/></g><g id="Body"><ellipse class="cls-5" cx="705.72" cy="746.09" rx="51.55" ry="42.23"/><path class="cls-6" d="M189,768.42c-4.06,4.56-12.21,6.09-12.21,6.09h0l-.1-3.27a14.6,14.6,0,0,0,8.13-7.93,14.31,14.31,0,0,0,.3-9.61l-10,4.09-.1-1.57h0c.17-.3,3.59-5.91,9.54-5.79a8.27,8.27,0,0,1,5.65,2.08C193.94,756.15,192.8,764.15,189,768.42Z" transform="translate(537.72 29.11)"/><path class="cls-6" d="M185.76,763.61v15.9a1.93,1.93,0,0,1,0,.24c-.16,1.32-1.71,2.54-4.18,3.5-3.53,1.38-8.95,2.26-15,2.26a55.1,55.1,0,0,1-9-.7h0a29.2,29.2,0,0,1-6.3-1.68c-2.45-1-3.9-2.26-3.9-3.62v-15.9a10.38,10.38,0,0,1,2.54-6.83,10.2,10.2,0,0,1,3.34-2.52,10.08,10.08,0,0,1,1.42-.53,9.76,9.76,0,0,1,2.77-.4H175.7a9.9,9.9,0,0,1,7.3,3.21,9.4,9.4,0,0,1,.85,1,10.26,10.26,0,0,1,1.68,3.85A10.4,10.4,0,0,1,185.76,763.61Z" transform="translate(537.72 29.11)"/><path class="cls-6" d="M185.76,762.85V779.3a2.09,2.09,0,0,1,0,.25c-.16,1.37-1.71,2.62-4.18,3.63-3.53,1.42-8.95,2.33-15,2.33a53.91,53.91,0,0,1-9-.72h0a28.46,28.46,0,0,1-6.3-1.73c-2.45-1-3.9-2.34-3.9-3.75V762.85a11.19,11.19,0,0,1,.75-4,60.65,60.65,0,0,0,23.13,4.48,62.23,62.23,0,0,0,14.49-1.69A10.31,10.31,0,0,1,185.76,762.85Z" transform="translate(537.72 29.11)"/></g><path class="cls-6" d="M164.21,761.91v24.63a59.41,59.41,0,0,1-7.49-.71h0a32.84,32.84,0,0,1-6.87-1.79c-2.67-1.07-4.26-2.41-4.26-3.87v-17a10.93,10.93,0,0,1,2.78-7.29l.22-.24c-1.7-2.44.15-6.69,3.6-5.44l13,4.73C169,756.37,167.76,762.23,164.21,761.91Z" transform="translate(537.72 29.11)"/><path class="cls-6" d="M187.26,760.86a11.16,11.16,0,0,1,.25,2.33v17a2.11,2.11,0,0,1,0,.25c-.17,1.42-1.86,2.71-4.56,3.75a32.1,32.1,0,0,1-4.81,1.34V761.67a3.3,3.3,0,0,1-3-1.67c-.89-1.51-.46-4,1.25-4.78l6.16-2.82a3.58,3.58,0,0,1,4.78,1.25,3.61,3.61,0,0,1-.94,4.62A10.9,10.9,0,0,1,187.26,760.86Z" transform="translate(537.72 29.11)"/><path class="cls-6" d="M160,753.33c-.05-.1-.12-.2-.18-.3v0a7.92,7.92,0,0,0-4.46-3.13,13,13,0,0,0-3.76-.51H137a14.41,14.41,0,0,0-1.89.12,8.58,8.58,0,0,0-6.34,3.54c-1.77,2.67-.87,6.26.26,8.91.21.47.42.92.63,1.32a23.64,23.64,0,0,0,1.29,2.26,18.86,18.86,0,0,0,7.19,6.24l.26.11a13.25,13.25,0,0,0,4.39,1.13,11.25,11.25,0,0,0,1.52,0,10.56,10.56,0,0,0,1.26,0l.25,0a12,12,0,0,0,1.5-.21c6.26-1.23,10-6.75,10.34-7.27a23.62,23.62,0,0,0,1.8-3.32,17.58,17.58,0,0,0,1.15-3.44A7.63,7.63,0,0,0,160,753.33Zm-7.73,1.42a13.67,13.67,0,0,0-.58-2.61l-1.6,0-1.77,0h-.15l-3.88,0-3.1,0h0l-1.79,0h-.84l-1.67,0a12,12,0,0,0-.37,1.39,14.68,14.68,0,0,0-.3,2.19,14,14,0,0,0,1,6,13.78,13.78,0,0,0,3.88,5.36,9.22,9.22,0,0,0,.81.65,14.89,14.89,0,0,0,2.42,1.48,13,13,0,0,0,1.26-.69,14.55,14.55,0,0,0,1.75-1.25,13.61,13.61,0,0,0,4.09-5.55,13.88,13.88,0,0,0,.5-1.5,13.73,13.73,0,0,0,.49-3A16,16,0,0,0,152.29,754.75Z" transform="translate(537.72 29.11)"/><path class="cls-6" d="M203.65,725.31a20.44,20.44,0,0,0,5.6,2.06,9.69,9.69,0,0,1-10.16,5.34,9.47,9.47,0,0,1-3.43-1.25V717a8.15,8.15,0,0,0-.08-1.22q0-.37-.12-.75a48.41,48.41,0,0,0-7.82-4.07c-.85-.35-1.72-.67-2.6-1s-1.54-.49-2.32-.7l-.59-.16a42.75,42.75,0,0,0-9.75-1.53c-.46,0-.93,0-1.39,0s-.85,0-1.28,0-.74,0-1.12,0a33.46,33.46,0,0,0-9.36,1.7,29.23,29.23,0,0,0-3.53,1.47,31.87,31.87,0,0,0-7.41,5c-.78.72-1.53,1.47-2.26,2.26h0a2.17,2.17,0,0,1,0,.36v17.48A4.07,4.07,0,0,1,142,740h-.3a4.08,4.08,0,0,1-1.83-.59,3.74,3.74,0,0,1-1-.86h0a4,4,0,0,1-.83-1.61,4.07,4.07,0,0,1-.12-1V725.3l.1,0V723l-.1,0v.28a6,6,0,0,0-1.35-.15,6.48,6.48,0,0,0-1.83.27,6.8,6.8,0,0,1-1.28-2.2c-2.9-8.13-1.24-17.74,6.23-22.73,6.16-4.12,14.07-4,20.87-1.44a44.89,44.89,0,0,1,10.24-1.09,58,58,0,0,1,24,5.48,29.18,29.18,0,0,0,14.62-6.3,14.71,14.71,0,0,1-2,16,24.59,24.59,0,0,0,4.6-1.93,12.64,12.64,0,0,1-5.31,14.15,11.81,11.81,0,0,1-4,1.52C203,725,203.34,725.14,203.65,725.31Z" transform="translate(537.72 29.11)"/><path class="cls-6" d="M195.66,717v23.29a9.61,9.61,0,0,1-9.61,9.61h-32c-.21,0-.41,0-.62,0l-.35,0c-.24,0-.49,0-.73-.08s-.58-.08-.87-.14-.47-.1-.7-.15l-.35-.09-.34-.09-.45-.13c-.26-.08-.52-.17-.77-.27s-.48-.18-.71-.27l-.45-.2-.52-.25L147,748a15.65,15.65,0,0,1-1.37-.79c-.12-.08-.25-.16-.38-.26l-.5-.35-.55-.43-.06,0-.39-.33-.09-.07,0,0-.21-.19c-.18-.16-.36-.33-.53-.51s-.39-.4-.58-.61-.37-.41-.55-.63l-.5-.64-.2-.28c-.3-.42-.57-.84-.83-1.29a17.38,17.38,0,0,1-.84-1.67c-.11-.25-.21-.5-.3-.76s-.16-.41-.23-.63a3.74,3.74,0,0,0,1,.86,4.08,4.08,0,0,0,1.83.59h.3a4.07,4.07,0,0,0,4.07-4.07V718.43a2.17,2.17,0,0,0,0-.36h0c.73-.79,1.48-1.54,2.26-2.26a31.87,31.87,0,0,1,7.41-5,29.23,29.23,0,0,1,3.53-1.47,33.46,33.46,0,0,1,9.36-1.7c.38,0,.75,0,1.12,0s.85,0,1.28,0,.93,0,1.39,0a42.75,42.75,0,0,1,9.75,1.53l.59.16c.78.21,1.56.44,2.32.7s1.75.62,2.6,1a48.41,48.41,0,0,1,7.82,4.07q.07.38.12.75A8.15,8.15,0,0,1,195.66,717Z" transform="translate(537.72 29.11)"/><path class="cls-6" d="M195.66,735.75v4.52a9.61,9.61,0,0,1-9.61,9.61H154.6a16.51,16.51,0,0,1-12.3-5.46c7.07-8.68,18.69-14.34,31.81-14.34A42.93,42.93,0,0,1,195.66,735.75Z" transform="translate(537.72 29.11)"/><path class="cls-6" d="M182.72,709.27,162,731.76,147,748a15.65,15.65,0,0,1-1.37-.79c-.12-.08-.25-.16-.38-.26l-.5-.35-.55-.43-.06,0-.39-.33-.09-.07,0,0-.21-.19c-.18-.16-.36-.33-.53-.51s-.39-.4-.58-.61-.37-.41-.55-.63l-.5-.64-.2-.28c-.3-.42-.57-.84-.83-1.29a17.38,17.38,0,0,1-.84-1.67c-.11-.25-.21-.5-.3-.76s-.16-.41-.23-.63a3.74,3.74,0,0,0,1,.86,4.08,4.08,0,0,0,1.83.59h.3a4.07,4.07,0,0,0,4.07-4.07V718.43a2.17,2.17,0,0,0,0-.36h0c.73-.79,1.48-1.54,2.26-2.26a31.87,31.87,0,0,1,7.41-5,29.23,29.23,0,0,1,3.53-1.47,33.46,33.46,0,0,1,9.36-1.7c.38,0,.75,0,1.12,0s.85,0,1.28,0,.93,0,1.39,0a42.75,42.75,0,0,1,9.75,1.53Z" transform="translate(537.72 29.11)"/><path class="cls-6" d="M141.68,740l-1.46,1.61a17.38,17.38,0,0,1-.84-1.67l.47-.53A4.08,4.08,0,0,0,141.68,740Z" transform="translate(537.72 29.11)"/><path class="cls-6" d="M171,707.55l-24.94,27.58v-2.61l19.13-21.15,3.41-3.77c.38,0,.75,0,1.12,0S170.56,707.54,171,707.55Z" transform="translate(537.72 29.11)"/><path class="cls-6" d="M138,736.9a6.5,6.5,0,0,1-1.47.17,6.85,6.85,0,0,1-6.7-7,7,7,0,0,1,4.87-6.72,6.48,6.48,0,0,1,1.83-.27,6,6,0,0,1,1.35.15l.1,0v2.06l-.1,0v10.61A4.07,4.07,0,0,0,138,736.9Z" transform="translate(537.72 29.11)"/><path class="cls-6" d="M205,696.74h0c-.35,1.66-2.07,3.65-4.74,5.65a.54.54,0,0,1,0-.11,11.82,11.82,0,0,0,.47-1.25,12,12,0,0,0-1.18-8.95h0a16.19,16.19,0,0,0-7-6.76,26.06,26.06,0,0,1-.51,5.67c-.1.52-.23,1-.38,1.6a14.56,14.56,0,0,0-.64-1.66c0-.09-.08-.18-.11-.27a18.77,18.77,0,0,0-2.39-3.8,17.32,17.32,0,0,0-7-5.25,34.25,34.25,0,0,1,.91,9.22,31.16,31.16,0,0,1-.55,4.7l-.07.33a28.11,28.11,0,0,1-.92,3.39,19.2,19.2,0,0,0-.08-2.51c0-.5-.11-1-.2-1.51a16.17,16.17,0,0,0-1.34-4.26,11.74,11.74,0,0,0-.93-1.62c-.1.47-.22,1-.39,1.7a34.7,34.7,0,0,1-3.67,9.15c-.19.31-.38.62-.57.91s-.3.46-.45.68a18.73,18.73,0,0,1-6.08,5.83,37.13,37.13,0,0,1-22.92-.26h0c-2.71-1.51-4.34-3.17-4.33-4.73,0-2.89,5.68-5.28,11.53-7l-.14-.1c1.22-.5,8.36-3.56,10.36-10.89a14.67,14.67,0,0,0,.51-4.42,11.84,11.84,0,0,1,6.34,6.45,22.25,22.25,0,0,0,3.36-4.81,23.34,23.34,0,0,0,2.27-6.69,20.87,20.87,0,0,1,4,3.87l0-.23a23.48,23.48,0,0,0-.6-7c6.13,1.39,10.84,5.24,12.87,9.86a20.64,20.64,0,0,0,.51-3.42,22.53,22.53,0,0,0-1.16-8.73c9.58,1,16.93,8.57,17.47,17.47A17.45,17.45,0,0,1,205,696.74Z" transform="translate(537.72 29.11)"/><path class="cls-6" d="M198.73,712.65c-3.62,2-8.24.93-9.9-3h0a16.42,16.42,0,0,1-3.13,0,58.64,58.64,0,0,1-14.5,2.88c-10.26.64-21.07-1.89-26.9-5.12a37.13,37.13,0,0,0,22.92.26,18.73,18.73,0,0,0,6.08-5.83c.15-.22.3-.44.45-.68s.38-.6.57-.91a34.7,34.7,0,0,0,3.67-9.15c.17-.65.29-1.23.39-1.7a11.74,11.74,0,0,1,.93,1.62,16.17,16.17,0,0,1,1.34,4.26c.09.5.16,1,.2,1.51a19.2,19.2,0,0,1,.08,2.51,28.11,28.11,0,0,0,.92-3.39l.07-.33a31.16,31.16,0,0,0,.55-4.7,34.25,34.25,0,0,0-.91-9.22,17.32,17.32,0,0,1,7,5.25,18.77,18.77,0,0,1,2.39,3.8l-.09.25.2,0a14.56,14.56,0,0,1,.64,1.66c.15-.55.28-1.08.38-1.6a26.06,26.06,0,0,0,.51-5.67,16.19,16.19,0,0,1,7,6.76h0a12,12,0,0,1,1.18,8.95,11.82,11.82,0,0,1-.47,1.25.54.54,0,0,0,0,.11,11.56,11.56,0,0,1-3,3.83,24,24,0,0,0,7.29-4.54A12.22,12.22,0,0,1,198.73,712.65Z" transform="translate(537.72 29.11)"/><path class="cls-6" d="M164.68,742.26a43.7,43.7,0,0,1,15.3.33c2.2.44,3.14-2.93.93-3.37a48.74,48.74,0,0,0-17.16-.33c-2.22.34-1.28,3.71.93,3.37Z" transform="translate(537.72 29.11)"/><path class="cls-6" d="M193.47,729.52a9.93,9.93,0,0,1-.14,1.65h0a6,6,0,0,1-.12.61c-.69,3-2.73,5.22-5.15,5.29h-.12c-3.05,0-5.53-3.39-5.53-7.57s2.48-7.56,5.53-7.56a4.09,4.09,0,0,1,1.82.43C191.92,723.41,193.47,726.23,193.47,729.52Z" transform="translate(537.72 29.11)"/><path class="cls-6" d="M193.66,727.39a5.32,5.32,0,0,1-.13,1.2h0a3.81,3.81,0,0,1-.13.45,5.5,5.5,0,0,1-5.14,3.86h-.13a5.53,5.53,0,0,1,0-11.06,5.2,5.2,0,0,1,1.82.32A5.51,5.51,0,0,1,193.66,727.39Z" transform="translate(537.72 29.11)"/><path class="cls-6" d="M193.4,729.05a5.5,5.5,0,0,1-5.14,3.86,3.32,3.32,0,1,1,5-4.16h0A1.55,1.55,0,0,1,193.4,729.05Z" transform="translate(537.72 29.11)"/><path class="cls-6" d="M193.66,727.39a5.32,5.32,0,0,1-.13,1.2h0l-.27.15h0a3.71,3.71,0,0,1-4.85-1.12,3.77,3.77,0,0,1-.65-2.09,3.68,3.68,0,0,1,2.19-3.37A5.51,5.51,0,0,1,193.66,727.39Z" transform="translate(537.72 29.11)"/><path class="cls-6" d="M184.06,721l11.57,3.48c3.79,1.14,5.41-4.78,1.63-5.91l-11.57-3.49c-3.79-1.14-5.41,4.78-1.63,5.92Z" transform="translate(537.72 29.11)"/><g id="LeftArm"><path class="cls-6" d="M141.91,751.64c-5.85,3.66-11.11,8.2-13.81,14.7-2.83,6.81-2.17,14.19-.74,21.25.62,3.09,4.28,4.86,7.16,4.07a5.93,5.93,0,0,0,4.07-7.16c-.89-4.4-1.56-9.39.17-13.67,1.65-4.08,5.41-6.87,9-9.13,6.35-4,.51-14.05-5.88-10.06Z" transform="translate(537.72 29.11)"/><path class="cls-6" d="M141.33,750.63A28.5,28.5,0,0,0,129,762c-1.86,3.14-.82,7.8,2.51,9.56a7.12,7.12,0,0,0,9.56-2.51c.41-.69.85-1.35,1.31-2-.93,1.31.28-.27.43-.43.39-.41.79-.81,1.2-1.19.14-.13,1.31-1.11.51-.49a14.78,14.78,0,0,1,1.33-.9,23.93,23.93,0,0,1,2.55-1.36c3.33-1.53,4.42-6.6,2.51-9.56-2.22-3.43-6-4.15-9.56-2.51Z" transform="translate(537.72 29.11)"/></g><path class="cls-6" d="M134.3,708.91a13.58,13.58,0,0,1,3.57-7.24,13,13,0,0,1,3.12-2.35,6,6,0,0,1,2.06-.9c7.09-2.31,4.06-13.56-3.1-11.23a24.81,24.81,0,0,0-16.88,18.63c-.59,3.08.86,6.28,4.07,7.16,2.85.79,6.57-1,7.16-4.07Z" transform="translate(537.72 29.11)"/></g><rect class="cls-9" x="309.17" y="720.58" width="66.86" height="156.05"/><polygon class="cls-11" points="376.03 720.58 376.03 760.25 318.44 760.25 318.44 876.63 309.17 876.63 309.17 720.58 376.03 720.58"/><rect class="cls-9" x="83.66" y="720.58" width="66.86" height="156.05"/><polygon class="cls-11" points="150.51 720.58 150.51 760.25 92.92 760.25 92.92 876.63 83.66 876.63 83.66 720.58 150.51 720.58"/><rect class="cls-8" x="28.77" y="142.28" width="375" height="603.38" rx="27.3"/><rect class="cls-6" x="44.16" y="142.28" width="375" height="603.38" rx="36.39"/><path class="cls-10" d="M-129.16,155.92V675.8a32.38,32.38,0,0,1-10.72,24.1,32.34,32.34,0,0,1-21.73,8.35H-450.5a32.45,32.45,0,0,1-32.45-32.45V155.92a32.22,32.22,0,0,1,5.73-18.41,32.41,32.41,0,0,1,26.72-14h288.89A32.45,32.45,0,0,1-129.16,155.92Z" transform="translate(537.72 29.11)"/><path class="cls-9" d="M-134.16,161.61V681.5a32.28,32.28,0,0,1-5.72,18.4,32.34,32.34,0,0,1-21.73,8.35H-450.5a32.45,32.45,0,0,1-32.45-32.45V155.92a32.22,32.22,0,0,1,5.73-18.41,32.3,32.3,0,0,1,21.72-8.35h288.89A32.45,32.45,0,0,1-134.16,161.61Z" transform="translate(537.72 29.11)"/><polygon class="cls-9" points="1496.24 865.06 1496.24 866.93 1439.28 866.93 1439.28 555.47 1478.79 555.47 1478.79 865.06 1496.24 865.06"/><rect class="cls-9" x="1227.06" y="555.47" width="38.36" height="311.46"/><polygon class="cls-11" points="1284.02 517.67 1284.02 866.93 1265.42 866.93 1265.42 555.47 1227.06 555.47 1227.06 517.67 1284.02 517.67"/><polygon class="cls-11" points="1496.24 517.67 1496.24 865.06 1478.79 865.06 1478.79 555.47 1439.28 555.47 1439.28 517.67 1496.24 517.67"/><g id="Layer_46" data-name="Layer 46"><path class="cls-6" d="M484.39,758.44a50.28,50.28,0,0,0-22.28,5.18,50.55,50.55,0,0,0-99.53,4.72,50.56,50.56,0,1,0,33,53.72A50.57,50.57,0,0,0,435,819.89a50.55,50.55,0,1,0,49.36-61.45Z" transform="translate(537.72 29.11)"/><path class="cls-6" d="M-96.95,834.34a48.42,48.42,0,0,1-2.55,15.58h0a48.83,48.83,0,0,1-46.28,33.23,48.66,48.66,0,0,1-35.69-15.52,48.49,48.49,0,0,1-6-7.88,49,49,0,0,1-23.81,26.6H-255.2a48.81,48.81,0,0,1-26.87-43.62,48.63,48.63,0,0,1,11.31-31.25,48.76,48.76,0,0,1,30.31-17,48.86,48.86,0,0,1,11.9-18.25,48.58,48.58,0,0,1,9.27-7,48.49,48.49,0,0,1,24.67-6.7,48.64,48.64,0,0,1,32.92,12.77A48.71,48.71,0,0,1-152.82,786a49.54,49.54,0,0,1,7-.51,48.71,48.71,0,0,1,37.9,18h0a48.84,48.84,0,0,1,5.7,8.79c.18.35.35.71.52,1.07A48.68,48.68,0,0,1-96.95,834.34Z" transform="translate(537.72 29.11)"/><path class="cls-6" d="M-342,836.32a45.21,45.21,0,0,1-40.39,44.94,47.61,47.61,0,0,1-4.8.25,42,42,0,0,1-4.65-.25,44.27,44.27,0,0,1-9.87-2.15c-.63.74-1.28,1.45-2,2.15a44.55,44.55,0,0,1-5.86,5.1h-53.19a44.45,44.45,0,0,1-5.86-5.1,45,45,0,0,1-12.73-31.43,44.89,44.89,0,0,1,5.21-21.07,45.31,45.31,0,0,1,22.05-20.43,44.55,44.55,0,0,1,9.27-2.87,45.74,45.74,0,0,1,8.66-.83,45,45,0,0,1,14.52,2.4,45.08,45.08,0,0,1,34.41-15.91,45.19,45.19,0,0,1,40.69,25.53A45,45,0,0,1-342,836.32Z" transform="translate(537.72 29.11)"/><path class="cls-6" d="M1005.29,845.14a48.79,48.79,0,0,1-16,36.12,47.94,47.94,0,0,1-6.68,5.1H930.3a47.46,47.46,0,0,1-4.77-3.46c-.65-.52-1.29-1.07-1.91-1.64a49,49,0,0,1-8.85-10.7,48.87,48.87,0,0,1-9.63,15.8H832.85a48.73,48.73,0,0,1-4.05-5.1c-.48-.7-.95-1.41-1.4-2.14a48.61,48.61,0,0,1-7.23-25.58c0-.43,0-.85,0-1.28a48.73,48.73,0,0,1,16.71-35.5c.65-.57,1.31-1.12,2-1.65a48.61,48.61,0,0,1,22.92-9.86,48.87,48.87,0,0,1,87.62-8.43,49.54,49.54,0,0,1,7-.51c.69,0,1.38,0,2.06.05a48.78,48.78,0,0,1,46.77,48.78Z" transform="translate(537.72 29.11)"/><path class="cls-6" d="M-342,836.32a45.21,45.21,0,0,1-40.39,44.94,47.61,47.61,0,0,1-4.8.25,42,42,0,0,1-4.65-.25,44.27,44.27,0,0,1-9.87-2.15c-.63.74-1.28,1.45-2,2.15a44.55,44.55,0,0,1-5.86,5.1h-53.19a44.45,44.45,0,0,1-5.86-5.1,45,45,0,0,1-12.73-31.43,44.89,44.89,0,0,1,5.21-21.07,45.31,45.31,0,0,1,22.05-20.43,44.55,44.55,0,0,1,9.27-2.87,45.74,45.74,0,0,1,8.66-.83,45,45,0,0,1,14.52,2.4,45.08,45.08,0,0,1,34.41-15.91,45.19,45.19,0,0,1,40.69,25.53A45,45,0,0,1-342,836.32Z" transform="translate(537.72 29.11)"/><path class="cls-6" d="M762,769.83a45.11,45.11,0,0,0-36.88,8.76,45.2,45.2,0,1,0,5.18,74.6A45.19,45.19,0,1,0,762,769.83Z" transform="translate(537.72 29.11)"/></g><path class="cls-30" d="M-212.29,827.72a6.88,6.88,0,0,0,4-2.66,7.38,7.38,0,0,0,1.35-4.32,8.47,8.47,0,0,0-2.32-5.84q-2.32-2.55-7.39-2.55h-16.24v32h15.24q7.17,0,9.36-2.8a10.07,10.07,0,0,0,2.19-6.37Q-206.08,829.23-212.29,827.72Zm-11.53-8.51h4.54c2.08,0,3.12.93,3.12,2.68a2.89,2.89,0,0,1-.7,1.85,2.93,2.93,0,0,1-2.41.86h-4.55Zm7.39,17.13a3.45,3.45,0,0,1-2.61.87h-4.78V831.4h4.54a3.73,3.73,0,0,1,2.88.93,3,3,0,0,1,.81,2A2.81,2.81,0,0,1-216.43,836.34Z" transform="translate(537.72 29.11)"/><path class="cls-9" d="M-212.29,827.72a6.88,6.88,0,0,0,4-2.66,7.38,7.38,0,0,0,1.35-4.32,8.47,8.47,0,0,0-2.32-5.84q-2.32-2.55-7.39-2.55h-16.24v32h15.24q7.17,0,9.36-2.8a10.07,10.07,0,0,0,2.19-6.37Q-206.08,829.23-212.29,827.72Zm-11.53-8.51h4.54c2.08,0,3.12.93,3.12,2.68a2.89,2.89,0,0,1-.7,1.85,2.93,2.93,0,0,1-2.41.86h-4.55Zm7.39,17.13a3.45,3.45,0,0,1-2.61.87h-4.78V831.4h4.54a3.73,3.73,0,0,1,2.88.93,3,3,0,0,1,.81,2A2.81,2.81,0,0,1-216.43,836.34Z" transform="translate(537.72 29.11)"/><path class="cls-30" d="M-179.6,812.35H-190l-9.87,32h8L-190,838h8.57l1.81,6.31h10Zm-8.69,18.7,2.59-9.28,2.58,9.28Z" transform="translate(537.72 29.11)"/><path class="cls-9" d="M-179.6,812.35H-190l-9.87,32h8L-190,838h8.57l1.81,6.31h10Zm-8.69,18.7,2.59-9.28,2.58,9.28Z" transform="translate(537.72 29.11)"/><path class="cls-30" d="M-149.53,837.42a3.8,3.8,0,0,1-3.39-1.87c-.8-1.25-1.21-3.62-1.21-7.1q0-9.33,4.64-9.33a3.73,3.73,0,0,1,2.9,1.43c.82,1,1.23,2.5,1.23,4.64l9.16-.49a14.47,14.47,0,0,0-3.85-9.33q-3.42-3.51-9.76-3.52-6.81,0-10.6,4.62a15.17,15.17,0,0,0-1.28,1.81,19.89,19.89,0,0,0-2.51,10.33,18.36,18.36,0,0,0,2.51,10,13.24,13.24,0,0,0,1.49,1.93,13.71,13.71,0,0,0,10.53,4.31,13.68,13.68,0,0,0,9.13-3.14q3.71-3.13,4.34-9l-9-.54Q-145.65,837.43-149.53,837.42Z" transform="translate(537.72 29.11)"/><path class="cls-9" d="M-149.53,837.42a3.8,3.8,0,0,1-3.39-1.87c-.8-1.25-1.21-3.62-1.21-7.1q0-9.33,4.64-9.33a3.73,3.73,0,0,1,2.9,1.43c.82,1,1.23,2.5,1.23,4.64l9.16-.49a14.47,14.47,0,0,0-3.85-9.33q-3.42-3.51-9.76-3.52-6.81,0-10.6,4.62a15.17,15.17,0,0,0-1.28,1.81,19.89,19.89,0,0,0-2.51,10.33,18.36,18.36,0,0,0,2.51,10,13.24,13.24,0,0,0,1.49,1.93,13.71,13.71,0,0,0,10.53,4.31,13.68,13.68,0,0,0,9.13-3.14q3.71-3.13,4.34-9l-9-.54Q-145.65,837.43-149.53,837.42Z" transform="translate(537.72 29.11)"/><path class="cls-30" d="M-109,824.06l7.33-10.64.74-1.07h-8.82l-8.82,13.23V812.35h-9.26v32h9.26V837l3.31-4.71,5.54,12.09H-99Z" transform="translate(537.72 29.11)"/><path class="cls-9" d="M-109,824.06l7.33-10.64.74-1.07h-8.82l-8.82,13.23V812.35h-9.26v32h9.26V837l3.31-4.71,5.54,12.09H-99Z" transform="translate(537.72 29.11)"/><path class="cls-30" d="M638.87,827.72a6.81,6.81,0,0,0,4-2.66,7.38,7.38,0,0,0,1.35-4.32,8.42,8.42,0,0,0-2.32-5.84,7.37,7.37,0,0,0-3.58-2.09,14.08,14.08,0,0,0-3.8-.46H618.3v32h15.23a17.38,17.38,0,0,0,7.32-1.23,5.5,5.5,0,0,0,2-1.57,10.08,10.08,0,0,0,2.2-6.37Q645.09,829.23,638.87,827.72Zm-11.53-8.51h4.39c2.18,0,3.28.89,3.28,2.68a2.72,2.72,0,0,1-3.12,2.71h-4.55Zm7.4,17.13a3.49,3.49,0,0,1-2.62.87h-4.78V831.4h4.46a3.81,3.81,0,0,1,3,.93,3,3,0,0,1,.81,2A2.85,2.85,0,0,1,634.74,836.34Z" transform="translate(537.72 29.11)"/><path class="cls-9" d="M638.87,827.72a6.81,6.81,0,0,0,4-2.66,7.38,7.38,0,0,0,1.35-4.32,8.42,8.42,0,0,0-2.32-5.84,7.37,7.37,0,0,0-3.58-2.09,14.08,14.08,0,0,0-3.8-.46H618.3v32h15.23a17.38,17.38,0,0,0,7.32-1.23,5.5,5.5,0,0,0,2-1.57,10.08,10.08,0,0,0,2.2-6.37Q645.09,829.23,638.87,827.72Zm-11.53-8.51h4.39c2.18,0,3.28.89,3.28,2.68a2.72,2.72,0,0,1-3.12,2.71h-4.55Zm7.4,17.13a3.49,3.49,0,0,1-2.62.87h-4.78V831.4h4.46a3.81,3.81,0,0,1,3,.93,3,3,0,0,1,.81,2A2.85,2.85,0,0,1,634.74,836.34Z" transform="translate(537.72 29.11)"/><path class="cls-30" d="M671.57,812.35H661.19l-9.88,32h8L661.2,838h8.57l1.59,5.53h0l.22.77h10Zm-8.7,18.7,1.22-4.38,1.37-4.9,2.59,9.28Z" transform="translate(537.72 29.11)"/><path class="cls-9" d="M671.57,812.35H661.19l-9.88,32h8L661.2,838h8.57l1.59,5.53h0l.22.77h10Zm-8.7,18.7,1.22-4.38,1.37-4.9,2.59,9.28Z" transform="translate(537.72 29.11)"/><path class="cls-30" d="M701.63,837.42a3.82,3.82,0,0,1-3.39-1.87q-1.2-1.87-1.2-7.1,0-9.33,4.64-9.33a3.72,3.72,0,0,1,2.89,1.43c.82,1,1.23,2.5,1.23,4.64l9.17-.49a14.53,14.53,0,0,0-3.86-9.33q-3.4-3.51-9.76-3.52a15.19,15.19,0,0,0-6,1.13,12.16,12.16,0,0,0-4.58,3.49q-3.81,4.62-3.8,12.14t4,11.91a14.93,14.93,0,0,0,19.65,1.17,11.58,11.58,0,0,0,3-3.87,16,16,0,0,0,1.38-5.15l-9-.54C705.68,835.66,704.22,837.42,701.63,837.42Z" transform="translate(537.72 29.11)"/><path class="cls-9" d="M701.63,837.42a3.82,3.82,0,0,1-3.39-1.87q-1.2-1.87-1.2-7.1,0-9.33,4.64-9.33a3.72,3.72,0,0,1,2.89,1.43c.82,1,1.23,2.5,1.23,4.64l9.17-.49a14.53,14.53,0,0,0-3.86-9.33q-3.4-3.51-9.76-3.52a15.19,15.19,0,0,0-6,1.13,12.16,12.16,0,0,0-4.58,3.49q-3.81,4.62-3.8,12.14t4,11.91a14.93,14.93,0,0,0,19.65,1.17,11.58,11.58,0,0,0,3-3.87,16,16,0,0,0,1.38-5.15l-9-.54C705.68,835.66,704.22,837.42,701.63,837.42Z" transform="translate(537.72 29.11)"/><path class="cls-30" d="M749,837.82l-6.8-13.76,8.08-11.71h-8.83L733.7,824l-1.09,1.63V812.35h-9.26v32h9.26V837l1.09-1.55,2.23-3.16,2.55,5.57,3,6.52H752.2Z" transform="translate(537.72 29.11)"/><path class="cls-9" d="M749,837.82l-6.8-13.76,8.08-11.71h-8.83L733.7,824l-1.09,1.63V812.35h-9.26v32h9.26V837l1.09-1.55,2.23-3.16,2.55,5.57,3,6.52H752.2Z" transform="translate(537.72 29.11)"/><path class="cls-11" d="M-387.2,759.23l-12.9,8.66a2.41,2.41,0,0,1-.6.4,1.62,1.62,0,0,1-.46.22l-20.57,9.75-2.19,19.79c-.36,3.17-5.36,3.19-5,0q.72-6.57,1.46-13.14c.3-2.75-.18-8.49,2.16-10.47,2.79-2.36,7.75-3.67,11-5.23l8-3.78-13.54-13.07L-432.42,760c-2.75,1.68-5.26-2.64-2.52-4.32l14.19-8.66a2.54,2.54,0,0,1,3,.39l16.05,15.49,14.47-9.72Z" transform="translate(537.72 29.11)"/><text class="cls-31" transform="translate(69.08 191.56)">DESIGNERS</text><text class="cls-31" transform="translate(69.08 280.34)">Pro<tspan class="cls-32" x="60.66" y="0">g</tspan><tspan class="cls-33" x="78.05" y="0">rammers</tspan></text><text class="cls-31" transform="translate(69.08 428.31)">artists</text><text class="cls-31" transform="translate(69.08 487.49)">IDEASS</text><text class="cls-31" transform="translate(69.08 605.87)">special thanks</text><text class="cls-34" transform="translate(90.08 217.48)">peter huang</text><text class="cls-34" transform="translate(90.08 247.08)">maia dupuis</text><text class="cls-34" transform="translate(90.08 306.26)">ali Babaei</text><text class="cls-34" transform="translate(90.08 335.86)">amir babaei</text><text class="cls-34" transform="translate(90.08 365.45)">pri<tspan class="cls-35" x="30.22" y="0">y</tspan><tspan x="39.86" y="0">a calaimany</tspan></text><text class="cls-34" transform="translate(90.08 395.05)">trey lee</text><text class="cls-34" transform="translate(90.08 454.23)">calum <tspan class="cls-36" x="68.21" y="0">c</tspan><tspan x="79.77" y="0">han</tspan></text><text class="cls-34" transform="translate(90.08 513.42)">ariel gold<tspan class="cls-37" x="107.69" y="0">b</tspan><tspan class="cls-38" x="120.43" y="0">l</tspan><tspan class="cls-39" x="129.41" y="0">a</tspan><tspan class="cls-40" x="141.38" y="0">tt</tspan></text><text class="cls-34" transform="translate(90.08 543.02)">r<tspan class="cls-35" x="12.58" y="0">y</tspan><tspan x="22.22" y="0">an jacobs</tspan></text><text class="cls-34" transform="translate(90.08 572.61)">sa<tspan class="cls-41" x="25.85" y="0">m</tspan><tspan x="41.02" y="0">uel rapp</tspan></text><text class="cls-34" transform="translate(90.08 631.8)">mi<tspan class="cls-36" x="21.05" y="0">c</tspan><tspan class="cls-38" x="32.62" y="0">hael </tspan><tspan class="cls-42" x="85.44" y="0">p</tspan><tspan x="95.71" y="0">arisi</tspan></text><text class="cls-34" transform="translate(90.08 661.39)">d<tspan class="cls-43" x="12.77" y="0">a</tspan><tspan x="24.12" y="0">vid kirk</tspan><tspan class="cls-42" x="103.75" y="0">p</tspan><tspan class="cls-44" x="114.02" y="0">a</tspan><tspan class="cls-38" x="126" y="0">tri</tspan><tspan class="cls-36" x="155.64" y="0">c</tspan><tspan x="167.21" y="0">k</tspan></text><text class="cls-34" transform="translate(90.08 690.98)">ri<tspan class="cls-45" x="18.17" y="0">c</tspan><tspan class="cls-40" x="29.74" y="0">hard jullig</tspan></text><text class="cls-34" transform="translate(90.08 720.58)">tamara ball</text><rect class="cls-8" x="1178.97" y="397.17" width="378.02" height="143.49" rx="31.15"/><rect class="cls-6" x="1166.43" y="397.17" width="378.02" height="143.49" rx="31.15"/><rect class="cls-9" x="1177.18" y="408.95" width="356.52" height="119.95" rx="23.02"/><text class="cls-46" transform="translate(1184.17 487.49)">sound:</text></g></svg>