<svg xmlns="http://www.w3.org/2000/svg" viewBox="0 0 299.83 655.83"><defs><style>.cls-1,.cls-9{fill:#6b6eb3;}.cls-16,.cls-17,.cls-2,.cls-7,.cls-8{fill:none;}.cls-16,.cls-17,.cls-2,.cls-7,.cls-8,.cls-9{stroke:#343961;stroke-linecap:round;}.cls-2,.cls-3,.cls-7,.cls-8,.cls-9{stroke-miterlimit:10;}.cls-2{stroke-width:6px;stroke-dasharray:30.27 30.27;}.cls-3{fill:#f15a29;stroke:#ef4136;stroke-width:7px;}.cls-4{font-size:48px;font-family:FranklinGothic-Heavy, Franklin Gothic Heavy;font-weight:800;letter-spacing:0.1em;}.cls-10,.cls-18,.cls-28,.cls-4{fill:#fff;}.cls-5{letter-spacing:0.07em;}.cls-6{fill:#343961;}.cls-16,.cls-17,.cls-7,.cls-8{stroke-width:4px;}.cls-8{stroke-dasharray:18.69 28.04;}.cls-9{stroke-width:2px;}.cls-10{font-size:30px;}.cls-10,.cls-18{font-family:Junegull;}.cls-11{letter-spacing:-0.03em;}.cls-12{letter-spacing:0em;}.cls-13{letter-spacing:-0.07em;}.cls-14{letter-spacing:-0.08em;}.cls-15{letter-spacing:-0.03em;}.cls-16,.cls-17{stroke-linejoin:round;}.cls-17{stroke-dasharray:31.21 31.21;}.cls-18{font-size:28.12px;}.cls-19{letter-spacing:-0.01em;}.cls-20{letter-spacing:0em;}.cls-21{letter-spacing:-0.03em;}.cls-22{letter-spacing:-0.01em;}.cls-23{fill:#8698cd;}.cls-24{fill:#b1bbdf;}.cls-25{fill:#e1e6f4;}.cls-26{fill:#8594ca;}.cls-27{fill:#b7c0e2;}.cls-29{fill:#f16044;}.cls-30{fill:#f48061;}.cls-31{fill:#a53523;}.cls-32{fill:#fabca5;}.cls-33{fill:#c7c8ca;}</style></defs><title>Tutorial1</title><g id="InstructionsPg1"><rect class="cls-1" x="3" y="3" width="293.83" height="649.83" rx="41.51"/><rect class="cls-2" x="3" y="3" width="293.83" height="649.83" rx="41.51"/><rect class="cls-3" x="23.94" y="547.13" width="251.96" height="83.74" rx="25.53"/><text class="cls-4" transform="translate(60.28 605.68)">GOT I<tspan class="cls-5" x="139.94" y="0">T</tspan><tspan x="166.07" y="0">.</tspan></text><text class="cls-4" transform="translate(25.88 63.96)">TUTORIAL</text><rect class="cls-6" x="12.96" y="80.28" width="273.91" height="8.26" rx="4.13"/><line class="cls-7" x1="31.81" y1="217.21" x2="41.81" y2="217.21"/><line class="cls-8" x1="69.84" y1="217.21" x2="242.73" y2="217.21"/><line class="cls-7" x1="256.74" y1="217.21" x2="266.74" y2="217.21"/><path class="cls-6" d="M211.76,275.76c0-8.95-9-16.21-20.18-16.21s-20.19,7.26-20.19,16.21c0,0,0,0,0,0v7.67c0,9,9,16.21,20.18,16.21s20.18-7.26,20.18-16.21v-7.7Z" transform="translate(-156.09 -68.09)"/><path class="cls-1" d="M191.58,288.78c-9,0-16.23-5.84-16.23-13s7.28-13,16.23-13,16.22,5.84,16.22,13S200.52,288.78,191.58,288.78Zm0-22.84c-6.74,0-12.23,4.4-12.23,9.82s5.49,9.81,12.23,9.81,12.22-4.4,12.22-9.81S198.32,265.94,191.58,265.94Z" transform="translate(-156.09 -68.09)"/><path class="cls-6" d="M437.4,275.76c0-8.95-9-16.21-20.18-16.21S397,266.81,397,275.76v7.7c0,9,9,16.21,20.18,16.21s20.18-7.26,20.18-16.21v-7.7Z" transform="translate(-156.09 -68.09)"/><polygon class="cls-1" points="270.78 194.97 261.13 202.72 251.49 194.97 245.32 199.93 254.96 207.67 245.32 215.41 251.49 220.37 261.13 212.63 270.78 220.37 276.95 215.41 267.31 207.67 276.95 199.93 270.78 194.97"/><g id="playerref_copy_2" data-name="playerref copy 2"><path class="cls-6" d="M326.92,183.46c0,5.64-3.35,10.22-7.49,10.22H266V173.24h53.48a6.17,6.17,0,0,1,4.18,1.73A11.57,11.57,0,0,1,326.92,183.46Z" transform="translate(-156.09 -68.09)"/><path class="cls-6" d="M273.45,183.46c0,4.33-2,8-4.77,9.52a5.74,5.74,0,0,1-2.73.7,5.19,5.19,0,0,1-1.24-.15c-3.55-.8-6.26-5-6.26-10.07,0-5.64,3.36-10.22,7.5-10.22h53.48a6.17,6.17,0,0,1,4.18,1.73H270.13A11.59,11.59,0,0,1,273.45,183.46Z" transform="translate(-156.09 -68.09)"/><ellipse class="cls-1" cx="109.87" cy="115.37" rx="5.98" ry="8.15"/><path class="cls-6" d="M269.61,186.84a3.16,3.16,0,0,1-3.47,1.33,4,4,0,0,1-2.27-3.77c-.06-1.83,2.16-1.82,2.22,0,0,.93.75,1.25,1.37.95a2,2,0,0,0,1-2c-.1-1.89-1.5-3-2.89-2.75a4.06,4.06,0,0,0-2.89,3.42c-.74,3.88,2.05,7.42,5,7.48.73,0,1.08.75,1.07,1.48a5.74,5.74,0,0,1-2.73.7,5.19,5.19,0,0,1-1.24-.15,8.22,8.22,0,0,1-3.6-4.29,10.06,10.06,0,0,1,.57-8.91c1.56-2.42,4.51-3.43,6.69-1.81A6.42,6.42,0,0,1,269.61,186.84Z" transform="translate(-156.09 -68.09)"/><rect class="cls-6" x="102.92" y="125.45" width="59.02" height="72.03" rx="9.77"/><rect class="cls-9" x="115.51" y="125.45" width="59.02" height="72.03" rx="12"/><rect class="cls-1" x="102.86" y="163.45" width="10.98" height="20.65" rx="4.26"/><rect class="cls-6" x="99.77" y="163.45" width="10.98" height="20.65" rx="4.26"/><g id="RightFoot"><path class="cls-6" d="M322.61,258.6l9.22,11.33a3.49,3.49,0,0,1,.76,1.78,3.53,3.53,0,0,1-1.27,3.18l-2.9,2.36a3.52,3.52,0,0,1-5-.51l-9.22-11.33Z" transform="translate(-156.09 -68.09)"/><path class="cls-6" d="M333.22,266.85l1.46,1.78a3,3,0,0,1,.5,1,2.74,2.74,0,0,1-.9,2.88l-6.47,5.27a2.77,2.77,0,0,1-3,.3,2.9,2.9,0,0,1-.84-.69l-3.18-3.91,8.6-7A2.73,2.73,0,0,1,333.22,266.85Z" transform="translate(-156.09 -68.09)"/><path class="cls-6" d="M335.18,269.6a2.74,2.74,0,0,1-.9,2.88l-6.47,5.27a2.77,2.77,0,0,1-3,.3Z" transform="translate(-156.09 -68.09)"/></g><g id="RightFoot-2" data-name="RightFoot"><path class="cls-6" d="M302,264.44l-7.91,12.28A3.45,3.45,0,0,1,292.6,278a3.54,3.54,0,0,1-3.42-.22l-3.14-2a3.51,3.51,0,0,1-1.61-3,3.47,3.47,0,0,1,.55-1.85l7.91-12.28Z" transform="translate(-156.09 -68.09)"/><path class="cls-6" d="M297.42,277.09,296.17,279a2.83,2.83,0,0,1-.76.78,2.76,2.76,0,0,1-3,0l-7-4.52a2.74,2.74,0,0,1-.82-3.77l2.73-4.24,9.32,6A2.75,2.75,0,0,1,297.42,277.09Z" transform="translate(-156.09 -68.09)"/><path class="cls-6" d="M295.41,279.81a2.76,2.76,0,0,1-3,0l-7-4.52a2.73,2.73,0,0,1-1.21-2.76Z" transform="translate(-156.09 -68.09)"/></g><g id="RightArm"><path class="cls-6" d="M324.8,244.77c2.9,4,6.58,7.72,11.39,9.29,5.31,1.73,10.72.85,16-.61,2.25-.62,3.22-3.6,2.43-5.6-.94-2.36-3.35-3.06-5.61-2.43a27.54,27.54,0,0,1-5.78,1,12.53,12.53,0,0,1-4.11-.47c-3.13-1.13-5.22-3.36-7.41-6.38-3.26-4.5-10.16.7-6.89,5.2Z" transform="translate(-156.09 -68.09)"/></g><g id="Body"><ellipse class="cls-9" cx="153.23" cy="145.97" rx="38.21" ry="31.3"/><path class="cls-6" d="M324.88,252.19c-3,3.37-9.05,4.51-9.05,4.51h0l-.08-2.42a10.84,10.84,0,0,0,6-5.88,10.68,10.68,0,0,0,.22-7.13l-7.38,3-.07-1.17h0c.13-.22,2.66-4.38,7.07-4.29a6.18,6.18,0,0,1,4.19,1.54C328.54,243.09,327.69,249,324.88,252.19Z" transform="translate(-156.09 -68.09)"/><path class="cls-6" d="M322.48,248.62v11.79s0,.11,0,.17c-.12,1-1.27,1.88-3.1,2.6a32.59,32.59,0,0,1-11.14,1.67,41.3,41.3,0,0,1-6.67-.51h0a22.05,22.05,0,0,1-4.67-1.24c-1.81-.74-2.89-1.67-2.89-2.68V248.62a7.71,7.71,0,0,1,1.89-5.06,7.45,7.45,0,0,1,2.47-1.87,7.83,7.83,0,0,1,1.05-.4,7.36,7.36,0,0,1,2.05-.29H315a7.34,7.34,0,0,1,5.41,2.38,6.61,6.61,0,0,1,.63.77,7.78,7.78,0,0,1,1.25,2.85A8,8,0,0,1,322.48,248.62Z" transform="translate(-156.09 -68.09)"/><path class="cls-1" d="M322.48,248.06v12.19c0,.06,0,.12,0,.18-.12,1-1.27,1.95-3.1,2.69a31.52,31.52,0,0,1-11.14,1.73,40.09,40.09,0,0,1-6.67-.53h0a21.32,21.32,0,0,1-4.67-1.28c-1.81-.77-2.89-1.73-2.89-2.78V248.06a8.19,8.19,0,0,1,.56-3,44.91,44.91,0,0,0,17.15,3.32,45.92,45.92,0,0,0,10.74-1.25C322.46,247.44,322.48,247.75,322.48,248.06Z" transform="translate(-156.09 -68.09)"/></g><path class="cls-6" d="M306.5,247.36v18.25a41.92,41.92,0,0,1-5.55-.52h0a24.65,24.65,0,0,1-5.1-1.33c-2-.79-3.15-1.79-3.15-2.86V248.31a8.12,8.12,0,0,1,2.05-5.4c.06-.06.11-.13.17-.18-1.26-1.81.11-5,2.67-4l9.62,3.5C310.07,243.25,309.13,247.59,306.5,247.36Z" transform="translate(-156.09 -68.09)"/><path class="cls-6" d="M323.59,246.58a8.26,8.26,0,0,1,.18,1.73V260.9a1.09,1.09,0,0,1,0,.18c-.13,1.05-1.38,2-3.38,2.78a23.19,23.19,0,0,1-3.57,1V247.18a2.43,2.43,0,0,1-2.24-1.24,2.61,2.61,0,0,1,.93-3.54q2.29-1,4.56-2.09a2.66,2.66,0,0,1,3.55.93,2.69,2.69,0,0,1-.7,3.42A8,8,0,0,1,323.59,246.58Z" transform="translate(-156.09 -68.09)"/><path class="cls-6" d="M303.26,240.78c-1.17-1.77-3.33-2.72-6.09-2.72H286.33c-2.76,0-4.93.95-6.1,2.72-2.23,3.38,1.28,8.74,1.62,9.26s3.47,5.14,8.78,5.54a31.37,31.37,0,0,0,2.24,0c5.31-.4,8.51-5.13,8.78-5.54S305.5,244.16,303.26,240.78ZM297,247.24a10.69,10.69,0,0,1-5.27,5.56,10.73,10.73,0,0,1-5.27-5.56,10.58,10.58,0,0,1-.22-7.12l5.49-.06,5.49.06A10.65,10.65,0,0,1,297,247.24Z" transform="translate(-156.09 -68.09)"/><path class="cls-6" d="M335.74,220.23a15.25,15.25,0,0,0,4.15,1.53,7.17,7.17,0,0,1-7.53,4,7,7,0,0,1-2.54-.92V214.05a6.69,6.69,0,0,0-.06-.9,5.25,5.25,0,0,0-.09-.55,36.32,36.32,0,0,0-5.8-3c-.63-.26-1.28-.5-1.93-.72s-1.14-.36-1.72-.52l-.43-.11a31.58,31.58,0,0,0-7.23-1.14l-1,0h-.95l-.83,0a25.15,25.15,0,0,0-6.94,1.26,22.1,22.1,0,0,0-2.61,1.09,23.64,23.64,0,0,0-5.49,3.73c-.59.54-1.14,1.09-1.68,1.68h0a2.44,2.44,0,0,1,0,.27v13a3,3,0,0,1-3,3l-.21,0a2.87,2.87,0,0,1-1.36-.43,2.71,2.71,0,0,1-.75-.64h0a2.91,2.91,0,0,1-.61-1.2,2.94,2.94,0,0,1-.09-.74v-7.86l.08,0V218.5H287v.2a5.47,5.47,0,0,0-1-.1,4.71,4.71,0,0,0-1.36.2,5.15,5.15,0,0,1-.95-1.64c-2.15-6-.92-13.14,4.62-16.84,4.57-3.05,10.43-3,15.47-1.07a33.38,33.38,0,0,1,7.59-.81,43,43,0,0,1,17.81,4.06,21.49,21.49,0,0,0,5.11-1.31,21.81,21.81,0,0,0,5.73-3.35,10.87,10.87,0,0,1-1.49,11.82,18.85,18.85,0,0,0,3.41-1.42A9.36,9.36,0,0,1,338,218.71a8.52,8.52,0,0,1-2.92,1.13Z" transform="translate(-156.09 -68.09)"/><path class="cls-6" d="M329.82,214.05v17.27a7.13,7.13,0,0,1-7.13,7.13H299l-.46,0-.26,0a5,5,0,0,1-.54-.06l-.64-.1-.52-.11-.26-.07L296,238l-.34-.1-.57-.19a4.87,4.87,0,0,1-.53-.21l-.33-.14-.38-.19-.14-.07a10.38,10.38,0,0,1-1-.59l-.28-.19c-.13-.08-.25-.17-.37-.26l-.41-.31,0,0-.29-.24-.07-.06,0,0-.15-.13-.4-.38-.43-.45c-.14-.15-.27-.31-.4-.47l-.37-.47a1.77,1.77,0,0,1-.16-.22,10.26,10.26,0,0,1-.61-1,11,11,0,0,1-.62-1.24c-.09-.19-.16-.37-.23-.56s-.12-.31-.17-.47a2.71,2.71,0,0,0,.75.64,2.87,2.87,0,0,0,1.36.43l.21,0a3,3,0,0,0,3-3v-13a2.44,2.44,0,0,0,0-.27h0c.54-.59,1.09-1.14,1.68-1.68a23.64,23.64,0,0,1,5.49-3.73,22.1,22.1,0,0,1,2.61-1.09,25.15,25.15,0,0,1,6.94-1.26l.83,0h.95l1,0a31.58,31.58,0,0,1,7.23,1.14l.43.11c.58.16,1.16.33,1.72.52s1.3.46,1.93.72a36.32,36.32,0,0,1,5.8,3,5.25,5.25,0,0,1,.09.55A6.69,6.69,0,0,1,329.82,214.05Z" transform="translate(-156.09 -68.09)"/><path class="cls-6" d="M329.82,228v3.35a7.13,7.13,0,0,1-7.13,7.13H299.38a12.29,12.29,0,0,1-9.12-4c5.24-6.44,13.85-10.63,23.58-10.63A31.79,31.79,0,0,1,329.82,228Z" transform="translate(-156.09 -68.09)"/><path class="cls-1" d="M320.22,208.34,304.86,225l-11.11,12.07a10.38,10.38,0,0,1-1-.59l-.28-.19c-.13-.08-.25-.17-.37-.26l-.41-.31,0,0-.29-.24-.07-.06,0,0-.15-.13-.4-.38-.43-.45c-.14-.15-.27-.31-.4-.47l-.37-.47a1.77,1.77,0,0,1-.16-.22,10.26,10.26,0,0,1-.61-1,11,11,0,0,1-.62-1.24c-.09-.19-.16-.37-.23-.56s-.12-.31-.17-.47a2.71,2.71,0,0,0,.75.64,2.87,2.87,0,0,0,1.36.43l.21,0a3,3,0,0,0,3-3v-13a2.44,2.44,0,0,0,0-.27h0c.54-.59,1.09-1.14,1.68-1.68a23.64,23.64,0,0,1,5.49-3.73,22.1,22.1,0,0,1,2.61-1.09,25.15,25.15,0,0,1,6.94-1.26l.83,0h.95l1,0a31.58,31.58,0,0,1,7.23,1.14Z" transform="translate(-156.09 -68.09)"/><path class="cls-6" d="M289.81,231.09l-1.09,1.2a11,11,0,0,1-.62-1.24l.35-.39A2.87,2.87,0,0,0,289.81,231.09Z" transform="translate(-156.09 -68.09)"/><path class="cls-6" d="M311.53,207.06,293,227.51v-1.93l14.18-15.68,2.53-2.8.83,0Z" transform="translate(-156.09 -68.09)"/><path class="cls-6" d="M287.09,228.82A4.93,4.93,0,0,1,286,229a5.08,5.08,0,0,1-5-5.18,5.15,5.15,0,0,1,3.61-5,4.71,4.71,0,0,1,1.36-.2,5.47,5.47,0,0,1,1,.1l.08,0v1.53l-.08,0v7.86A2.94,2.94,0,0,0,287.09,228.82Z" transform="translate(-156.09 -68.09)"/><path class="cls-6" d="M336.75,199.06h0c-.26,1.23-1.54,2.71-3.52,4.19l0-.08c.13-.31.25-.62.35-.93a8.92,8.92,0,0,0-.88-6.63h0a12,12,0,0,0-5.18-5,19.17,19.17,0,0,1-.38,4.2c-.07.38-.17.78-.28,1.19a11.66,11.66,0,0,0-.47-1.24l-.09-.19a13.46,13.46,0,0,0-1.77-2.82,12.92,12.92,0,0,0-5.2-3.9,25.72,25.72,0,0,1,.67,6.84,23.29,23.29,0,0,1-.41,3.48l-.05.25a18.79,18.79,0,0,1-.69,2.52,13,13,0,0,0-.05-1.87c0-.37-.09-.75-.15-1.12a11.72,11.72,0,0,0-1-3.15,7.81,7.81,0,0,0-.69-1.2c-.07.34-.16.77-.29,1.26a25.36,25.36,0,0,1-2.72,6.77c-.13.24-.28.47-.42.68l-.33.5a13.82,13.82,0,0,1-4.5,4.32,27.49,27.49,0,0,1-17-.19h0c-2-1.12-3.22-2.34-3.21-3.5,0-2.14,4.21-3.92,8.55-5.19l-.11-.07c.91-.37,6.2-2.64,7.68-8.07a11,11,0,0,0,.38-3.27,8.78,8.78,0,0,1,4.7,4.77,16.83,16.83,0,0,0,2.49-3.56,17.57,17.57,0,0,0,1.69-5,15.3,15.3,0,0,1,3,2.87l0-.17a17.26,17.26,0,0,0-.45-5.21,13.47,13.47,0,0,1,9.54,7.31,15,15,0,0,0,.38-2.54,16.69,16.69,0,0,0-.86-6.47,14.24,14.24,0,0,1,12.95,12.95A13,13,0,0,1,336.75,199.06Z" transform="translate(-156.09 -68.09)"/><path class="cls-6" d="M332.09,210.85c-2.69,1.47-6.11.69-7.34-2.22h0a12.89,12.89,0,0,1-2.32,0,44.19,44.19,0,0,1-10.74,2.13c-7.61.47-15.62-1.4-19.95-3.8a27.49,27.49,0,0,0,17,.19,13.82,13.82,0,0,0,4.5-4.32l.33-.5c.14-.21.29-.44.42-.68a25.36,25.36,0,0,0,2.72-6.77c.13-.49.22-.92.29-1.26a7.81,7.81,0,0,1,.69,1.2,11.72,11.72,0,0,1,1,3.15c.06.37.11.75.15,1.12a13,13,0,0,1,.05,1.87,18.79,18.79,0,0,0,.69-2.52l.05-.25a23.29,23.29,0,0,0,.41-3.48,25.72,25.72,0,0,0-.67-6.84,12.92,12.92,0,0,1,5.2,3.9,13.46,13.46,0,0,1,1.77,2.82l-.06.18h.15a11.66,11.66,0,0,1,.47,1.24c.11-.41.21-.81.28-1.19a19.17,19.17,0,0,0,.38-4.2,12,12,0,0,1,5.18,5h0a8.92,8.92,0,0,1,.88,6.63c-.1.31-.22.62-.35.93l0,.08a8.61,8.61,0,0,1-2.22,2.84,17.63,17.63,0,0,0,5.4-3.37A9.07,9.07,0,0,1,332.09,210.85Z" transform="translate(-156.09 -68.09)"/><path class="cls-6" d="M306.85,232.79a32.73,32.73,0,0,1,11.34.25c1.63.33,2.33-2.17.69-2.5a36.24,36.24,0,0,0-12.72-.24c-1.64.25-.94,2.75.69,2.49Z" transform="translate(-156.09 -68.09)"/><path class="cls-6" d="M328.19,223.35a6.93,6.93,0,0,1-.1,1.22h0c0,.16,0,.31-.09.46-.51,2.23-2,3.86-3.82,3.91h-.09c-2.26,0-4.1-2.51-4.1-5.61s1.84-5.6,4.1-5.6a3,3,0,0,1,1.35.32C327,218.82,328.19,220.91,328.19,223.35Z" transform="translate(-156.09 -68.09)"/><path class="cls-1" d="M328.33,221.77a3.74,3.74,0,0,1-.1.89h0a2,2,0,0,1-.09.33,4.09,4.09,0,0,1-3.81,2.87h-.09a4.1,4.1,0,0,1,0-8.2,4,4,0,0,1,1.34.24A4.08,4.08,0,0,1,328.33,221.77Z" transform="translate(-156.09 -68.09)"/><path class="cls-6" d="M321.21,215.37l8.58,2.58c2.81.84,4-3.54,1.21-4.39L322.42,211c-2.81-.84-4,3.54-1.21,4.39Z" transform="translate(-156.09 -68.09)"/><g id="LeftArm"><path class="cls-6" d="M294.74,239.25c-5.11-.3-10.24.18-14.66,2.94-4.64,2.9-7.41,7.64-9.58,12.52a4.32,4.32,0,1,0,8.11,3c1.36-3,3.09-6.34,6-8.18s6.22-1.83,9.39-1.64c5.53.33,6.33-8.27.77-8.6Z" transform="translate(-156.09 -68.09)"/><path class="cls-6" d="M294.81,238.39A21.12,21.12,0,0,0,282.47,240a5.18,5.18,0,1,0,4.26,9.45c.54-.24,1.09-.45,1.65-.65-1.13.39.28,0,.44-.07.41-.09.82-.16,1.24-.21.13,0,1.27-.1.52-.08a11.63,11.63,0,0,1,1.18,0,16.76,16.76,0,0,1,2.13.27c2.67.51,5.5-2.09,5.62-4.7a5.33,5.33,0,0,0-4.7-5.62Z" transform="translate(-156.09 -68.09)"/></g></g><text class="cls-10" transform="translate(27.1 116.15)">1.</text><text class="cls-10" transform="translate(23.68 337.98)">2.</text><text class="cls-10" transform="translate(65.56 255.57)">Dr<tspan class="cls-11" x="31.68" y="0">a</tspan><tspan class="cls-12" x="48.33" y="0" xml:space="preserve">g  a  </tspan><tspan class="cls-13" x="104.61" y="0">p</tspan><tspan class="cls-14" x="117.45" y="0">a</tspan><tspan x="132.42" y="0">th </tspan><tspan x="-30.51" y="24" xml:space="preserve">to  m</tspan><tspan class="cls-15" x="34.86" y="24">o</tspan><tspan x="53.67" y="24" xml:space="preserve">ve  around</tspan></text><rect class="cls-6" x="12.96" y="300.79" width="273.91" height="8.26" rx="4.13"/><line class="cls-16" x1="51.72" y1="352.75" x2="66.72" y2="352.75"/><path class="cls-17" d="M254,420.83H391.43c14.38-2,26,12.6,25.53,27.48-.45,14.21-11.86,27.27-25.53,25.22H207.8c-12.14-1.4-22.53,10.75-22.67,25.21C185,513.43,195.46,526,207.8,524.6l190.47-1.52" transform="translate(-156.09 -68.09)"/><path class="cls-16" d="M413.87,523l15-.12" transform="translate(-156.09 -68.09)"/><path class="cls-6" d="M441,515c0-9-9-16.21-20.19-16.21S400.61,506,400.61,515v7.7c0,9,9,16.21,20.18,16.21S441,531.61,441,522.66V515Z" transform="translate(-156.09 -68.09)"/><polygon class="cls-1" points="274.35 435.17 264.71 442.92 255.07 435.17 248.9 440.13 258.54 447.87 248.9 455.61 255.07 460.57 264.71 452.82 274.35 460.57 280.52 455.61 270.88 447.87 280.52 440.13 274.35 435.17"/><text class="cls-18" transform="translate(39.72 499.09)">Pi<tspan class="cls-19" x="20.66" y="0">c</tspan><tspan class="cls-20" x="34.22" y="0">k up items and </tspan><tspan x="-28.83" y="22.49">m</tspan><tspan class="cls-21" x="-10.73" y="22.49">o</tspan><tspan x="6.9" y="22.49">ve bet</tspan><tspan class="cls-22" x="85.82" y="22.49">w</tspan><tspan x="108.96" y="22.49">een rooms</tspan></text><ellipse class="cls-23" cx="247.19" cy="366.91" rx="34.76" ry="10.97"/><path class="cls-23" d="M410.5,393.49a3.78,3.78,0,0,0-2.23-3.38,3.71,3.71,0,0,0-4.52,1.53c-.38,0-.76,0-1.14,0h0a17.33,17.33,0,0,0-13.91,7,3.6,3.6,0,0,0-2.37.17,3.69,3.69,0,0,0-1.85,4.72,2.77,2.77,0,0,0,1.26,1.35,17.81,17.81,0,0,0-.5,4.16v26H420V409A17.38,17.38,0,0,0,410.5,393.49Zm-4.25-1.56a1.72,1.72,0,0,1,1.1-.1l.18.07h0l.17.1.13.09s.18.16.2.19a1.26,1.26,0,0,1,.19.25,16.53,16.53,0,0,0-2.09-.57Zm-20,9.53a1.64,1.64,0,0,1,.68-.86l.17-.1c.11-.05.12-.05,0,0l.19-.06.16,0h0a17.93,17.93,0,0,0-1.14,2.43l0,0a1.74,1.74,0,0,1-.11-.18l0,0a.18.18,0,0,0,0-.06s0-.22-.05-.2A1.91,1.91,0,0,1,386.27,401.46Z" transform="translate(-156.09 -68.09)"/><path class="cls-24" d="M401.2,411.64a3.7,3.7,0,0,0-4-3.14,3.09,3.09,0,0,0-2.59,2.89,10.82,10.82,0,0,0-7.78-3.3h0A10.83,10.83,0,0,0,376,418.92v3.21a3.73,3.73,0,0,0-2.38,4.08,2.94,2.94,0,0,0,2.38,2.28v1.59a.94.94,0,0,0-.65,1.45,3.88,3.88,0,0,0,.65.74V435h21.66V418.92a10.69,10.69,0,0,0-1.12-4.79,3.09,3.09,0,0,0,.11-.8c0-.41-.13-1-.15-1.27,0-.12,0-.23,0-.34s0-.24,0-.22,0-.12,0-.18l.07-.2a1.93,1.93,0,0,1,.22-.36,1.54,1.54,0,0,0,.14-.13l0-.05.06,0,.18-.08.21-.05h.31a2,2,0,0,1,.8.36,1.74,1.74,0,0,1,.63.91,1.29,1.29,0,0,0,0,.19q0,.18,0,0v.2a1,1,0,0,1,0,.16s0,.23-.06.26a2.09,2.09,0,0,1-.49.8,2.21,2.21,0,0,1-1,.55c-1.21.32-.77,2.22.44,1.9A3.93,3.93,0,0,0,401.2,411.64Zm-25.28,14.75s-.14-.14-.14-.13l-.06-.05a.09.09,0,0,0,0,0,1,1,0,0,0-.1-.18l-.06-.2s0,0,0,0v-.06a1.47,1.47,0,0,0,0-.21,1.88,1.88,0,0,1,.3-.82,2.94,2.94,0,0,1,.2-.26v2.06Z" transform="translate(-156.09 -68.09)"/><path class="cls-24" d="M434.12,413.45a3.71,3.71,0,0,0-3.91-2.12,14.12,14.12,0,0,0-12.84-8.25h-.51a4.58,4.58,0,0,0-.94-.58,3.63,3.63,0,0,0-1.3-.3c-.41,0-1,.11-1.27.12H413l-.22,0-.18-.05a1,1,0,0,0-.2-.07,1.92,1.92,0,0,1-.35-.23,1.54,1.54,0,0,0-.13-.14.23.23,0,0,0-.05-.05l0-.06s-.08-.19-.09-.18,0-.14,0-.21v-.1a1.65,1.65,0,0,0,0-.21,1.88,1.88,0,0,1,.38-.79,1.7,1.7,0,0,1,.92-.61l.19,0c.12,0,.13,0,0,0h.2l.16,0,.26.07a2,2,0,0,1,.78.5,2.18,2.18,0,0,1,.54,1c.3,1.22,2.2.82,1.91-.4a4,4,0,0,0-4.09-3.12,3.71,3.71,0,0,0-3.22,3.92,3,3,0,0,0,2.3,2.54,14.11,14.11,0,0,0-8.84,13.09V435h28.21V418.32a.85.85,0,0,0,.88,0A4,4,0,0,0,434.12,413.45Zm-1.92,2.32a2,2,0,0,1-.74.77,13.8,13.8,0,0,0-.54-3.3,1.61,1.61,0,0,1,.48.12,1.66,1.66,0,0,1,.85.69l.09.18c.05.11.05.11,0,0l.06.19,0,.16s0,.24,0,.28A2.1,2.1,0,0,1,432.2,415.77Z" transform="translate(-156.09 -68.09)"/><path class="cls-24" d="M396.68,396.61a4,4,0,0,0-2.4-4.55,3.7,3.7,0,0,0-4.57,2.2c-.68,1.94.93,3.7,2.71,4.16a2.21,2.21,0,0,1,.8.39,1.68,1.68,0,0,1,.54.77,1.19,1.19,0,0,1-.36,1.44c.1-.08-.08.05-.1.06l-.19.12a1.54,1.54,0,0,1-.3.11s-.28.08-.16.06a3.53,3.53,0,0,1-.62,0,3.43,3.43,0,0,1-.44-.12,1.87,1.87,0,0,1-1.12-1.63c-.09-1.25-2-1.17-2,.08a3.82,3.82,0,0,0,3.57,3.61,3.46,3.46,0,0,0,3.71-3.22,3.6,3.6,0,0,0-.95-2.43,3.7,3.7,0,0,0-1-.81,11.28,11.28,0,0,0-1.21-.43,1.77,1.77,0,0,1-.31-.15l-.16-.1-.17-.14s-.22-.23-.12-.11a1.63,1.63,0,0,1-.27-.43c.07.16,0-.14,0-.14-.07-.2,0,.07,0-.13,0,0,0-.32,0-.15a2.44,2.44,0,0,1,.06-.26c.05-.15-.1.16.05-.09,0,0,.16-.28.07-.15a2,2,0,0,1,.7-.59,1.68,1.68,0,0,1,1.09-.16l.19,0c.12,0,.13,0,0,0l.18.08.16.1c-.12-.08.16.13.19.16a2.07,2.07,0,0,1,.49.79,2.16,2.16,0,0,1,.07,1.13C394.54,397.4,396.43,397.84,396.68,396.61Z" transform="translate(-156.09 -68.09)"/><path class="cls-23" d="M385.37,408.69a4,4,0,0,0-4.78-1.89,3.69,3.69,0,0,0-2,4.64c.75,1.92,3.11,2.21,4.77,1.4a2.17,2.17,0,0,1,.85-.23,1.62,1.62,0,0,1,.91.23,1.2,1.2,0,0,1,.67,1.33c0-.13,0,.08,0,.11s-.11.31-.07.22c0,.09-.1.18-.15.27s-.17.25-.09.15a2.77,2.77,0,0,1-.45.42,3,3,0,0,1-.41.2,1.86,1.86,0,0,1-1.91-.5c-.89-.89-2.31.44-1.43,1.33a3.82,3.82,0,0,0,5.06.41,3.45,3.45,0,0,0,.71-4.86,3.56,3.56,0,0,0-2.3-1.22,3.45,3.45,0,0,0-1.32.06,11.17,11.17,0,0,0-1.2.47l-.33.08s-.33,0-.18,0a1.61,1.61,0,0,1-.22,0s-.33,0-.17,0a1.92,1.92,0,0,1-.48-.15c.15.07-.12-.09-.12-.08-.18-.11,0,.07-.1-.09,0,0-.2-.25-.11-.11a1,1,0,0,1-.12-.23c-.06-.15,0,.19,0-.1,0,0-.05-.32,0-.16a2.07,2.07,0,0,1,.15-.91,1.66,1.66,0,0,1,.72-.83l.18-.09c.11,0,.12,0,0,0l.19-.05.2,0c-.15,0,.2,0,.24,0a2.05,2.05,0,0,1,1.68,1.09C384.26,410.68,386,409.78,385.37,408.69Z" transform="translate(-156.09 -68.09)"/><path class="cls-23" d="M396.79,425.31a3.94,3.94,0,0,0-1.4-4.95,3.71,3.71,0,0,0-4.93,1.21c-1.06,1.76.14,3.81,1.79,4.64a2.07,2.07,0,0,1,.7.54,1.64,1.64,0,0,1,.38.86,1.21,1.21,0,0,1-.66,1.34c.12-.07-.08,0-.1,0s-.31.1-.21.08l-.32.05h-.17a2.34,2.34,0,0,1-.61-.1,2.13,2.13,0,0,1-.4-.2,1.87,1.87,0,0,1-.77-1.83c.17-1.23-1.75-1.56-1.92-.32a3.82,3.82,0,0,0,2.75,4.27,3.45,3.45,0,0,0,4.29-2.39,3.62,3.62,0,0,0-.43-2.57,3.58,3.58,0,0,0-.85-1,10.18,10.18,0,0,0-1.1-.67l-.27-.21-.13-.13a1.09,1.09,0,0,1-.13-.17s-.18-.28-.11-.14a2,2,0,0,1-.17-.47c0,.16,0-.15,0-.15,0-.2,0,.07,0-.13,0,0,.08-.31,0-.15a2.56,2.56,0,0,1,.11-.24c.08-.14-.13.13.06-.08,0,0,.23-.23.11-.13a1.89,1.89,0,0,1,.81-.43,1.75,1.75,0,0,1,1.1.06l.17.09c.11.06.12.07,0,0l.15.12.15.13c-.11-.1.12.16.14.19a2.19,2.19,0,0,1,.33.87,2.28,2.28,0,0,1-.17,1.13C394.53,425.64,396.3,426.46,396.79,425.31Z" transform="translate(-156.09 -68.09)"/><path class="cls-23" d="M428.74,424.79a3.93,3.93,0,0,0-4.3-2.81,3.69,3.69,0,0,0-2.92,4.14c.35,2,2.6,2.78,4.39,2.32a2.23,2.23,0,0,1,.88-.05,1.74,1.74,0,0,1,.85.41,1.2,1.2,0,0,1,.38,1.44c.05-.12,0,.07,0,.1a1.71,1.71,0,0,0-.11.2l-.2.24s-.22.2-.12.13a3,3,0,0,1-.53.32,2.17,2.17,0,0,1-.44.11,1.86,1.86,0,0,1-1.77-.88c-.69-1-2.35,0-1.66,1A3.81,3.81,0,0,0,428,432.9a3.45,3.45,0,0,0,1.67-4.62,3.57,3.57,0,0,0-2-1.66,3.7,3.7,0,0,0-1.31-.2c-.42,0-1,.18-1.27.21a1.94,1.94,0,0,1-.34,0s-.33,0-.19,0l-.21,0s-.31-.09-.17,0a1.88,1.88,0,0,1-.44-.24c.14.1-.1-.11-.1-.11s0,.08-.08-.1c0,0-.14-.28-.08-.13a1,1,0,0,1-.07-.25c0-.16,0,.19,0-.1,0,0,0-.32,0-.17a1.89,1.89,0,0,1,.33-.85,1.68,1.68,0,0,1,.87-.68l.19-.05q.18,0,0,0h.39c-.15,0,.2,0,.24.05a2.1,2.1,0,0,1,1.42,1.41C427.26,426.52,429.13,426,428.74,424.79Z" transform="translate(-156.09 -68.09)"/><path class="cls-23" d="M415.53,419.79a4,4,0,0,0-2.85-4.28,3.7,3.7,0,0,0-4.32,2.66c-.47,2,1.3,3.58,3.12,3.87a2.15,2.15,0,0,1,.84.3,1.77,1.77,0,0,1,.62.7,1.2,1.2,0,0,1-.22,1.47c.09-.09-.06.06-.09.08s-.26.19-.17.14l-.29.14s-.27.1-.16.07a3.23,3.23,0,0,1-.6.09A2.51,2.51,0,0,1,411,425a1.88,1.88,0,0,1-1.29-1.5c-.22-1.23-2.15-1-1.93.28a3.82,3.82,0,0,0,3.93,3.22,3.45,3.45,0,0,0,3.35-3.59,3.66,3.66,0,0,0-1.19-2.32,3.76,3.76,0,0,0-1.13-.7,11.31,11.31,0,0,0-1.24-.29l-.33-.12-.17-.09a1,1,0,0,1-.17-.12s-.26-.21-.14-.1a1.72,1.72,0,0,1-.31-.4c.08.15-.06-.13,0-.13-.09-.19,0,.08,0-.13,0,0,0-.32,0-.15a1.15,1.15,0,0,1,0-.26c0-.16-.09.17,0-.1,0,0,.14-.29.07-.15a1.83,1.83,0,0,1,.63-.66,1.73,1.73,0,0,1,1.07-.28l.19,0c.12,0,.13,0,0,0l.18.07.18.08c-.13-.07.17.11.2.14a2.06,2.06,0,0,1,.57.73,2.27,2.27,0,0,1,.19,1.12A1,1,0,0,0,415.53,419.79Z" transform="translate(-156.09 -68.09)"/><path class="cls-23" d="M426.93,406.37a3.93,3.93,0,0,0-2.85-4.27,3.7,3.7,0,0,0-4.32,2.66c-.47,2,1.3,3.58,3.13,3.86a2.2,2.2,0,0,1,.83.3,1.65,1.65,0,0,1,.62.71,1.2,1.2,0,0,1-.21,1.47c.09-.09-.07.06-.09.07l-.18.14a1.83,1.83,0,0,1-.28.14s-.28.11-.16.07a2.73,2.73,0,0,1-.61.1,3.91,3.91,0,0,1-.45-.07,1.86,1.86,0,0,1-1.28-1.51c-.23-1.23-2.15-1-1.93.29a3.81,3.81,0,0,0,3.92,3.21,3.45,3.45,0,0,0,3.35-3.59,3.55,3.55,0,0,0-1.19-2.31,3.64,3.64,0,0,0-1.12-.7,11.67,11.67,0,0,0-1.25-.3,1.75,1.75,0,0,1-.32-.12s-.29-.15-.17-.08l-.18-.12s-.25-.21-.14-.11a2,2,0,0,1-.31-.39c.09.15-.05-.14-.05-.14-.09-.19,0,.08,0-.12,0,0,0-.32,0-.15a2.06,2.06,0,0,1,0-.26c0-.16-.09.16,0-.1,0,0,.14-.29.06-.16a2,2,0,0,1,.63-.66,1.73,1.73,0,0,1,1.07-.27,1.38,1.38,0,0,1,.2,0c.11,0,.12,0,0,0l.19.07.18.08c-.14-.06.16.12.19.14a2.09,2.09,0,0,1,.58.73,2.18,2.18,0,0,1,.18,1.13C424.89,407.38,426.82,407.63,426.93,406.37Z" transform="translate(-156.09 -68.09)"/><ellipse class="cls-23" cx="93.08" cy="454.7" rx="16.31" ry="8.32"/><path class="cls-25" d="M258.15,503.3a7.14,7.14,0,0,0,0,8.44v8.66a4.5,4.5,0,0,1-4.49,4.49h-9a4.5,4.5,0,0,1-4.49-4.49v-8.92a7.34,7.34,0,0,0,0-7.92v-9.2a4.5,4.5,0,0,1,4.49-4.49H242.4a1.22,1.22,0,0,1-1.22-1.22v-1.07a1.22,1.22,0,0,1,.2-.67h-.13a7.92,7.92,0,0,1,15.83,0H257a1.22,1.22,0,0,1,.2.67v1.07a1.22,1.22,0,0,1-1.22,1.22h-2.27a4.5,4.5,0,0,1,4.49,4.49Z" transform="translate(-156.09 -68.09)"/><rect class="cls-26" x="87.81" y="408.2" width="10.54" height="3.93" rx="1.96"/><path class="cls-27" d="M256.34,502.38a11.7,11.7,0,0,0,0,10.28v7.11a3,3,0,0,1-3,3H245a3,3,0,0,1-3-3v-7.32a11.77,11.77,0,0,0,0-9.85v-7.39a3,3,0,0,1,3-3h8.31a3,3,0,0,1,3,3Z" transform="translate(-156.09 -68.09)"/><path class="cls-27" d="M255.11,487.79H243.22c.34-3.73,2.87-6.63,5.95-6.63S254.77,484.06,255.11,487.79Z" transform="translate(-156.09 -68.09)"/><rect class="cls-28" x="87.13" y="415.72" width="3.47" height="3.99" rx="1.74"/><rect class="cls-28" x="87.13" y="425.07" width="3.47" height="8.48" rx="1.74"/><rect class="cls-28" x="87.13" y="444.77" width="3.47" height="8.48" rx="1.74"/><ellipse class="cls-23" cx="158.94" cy="404.29" rx="16.31" ry="8.32"/><rect class="cls-29" x="150.16" y="377.05" width="18.05" height="21.82"/><path class="cls-30" d="M324.29,445.14H306.24a4.86,4.86,0,0,1,1.44-3.46,4.79,4.79,0,0,1,2.13-1.25,4.86,4.86,0,0,1,1.33-.19h8.26a3.91,3.91,0,0,1,.49,0A4.89,4.89,0,0,1,324.29,445.14Z" transform="translate(-156.09 -68.09)"/><path class="cls-31" d="M324.29,467a4.9,4.9,0,0,1-4.85,4.9h-8.3a4.92,4.92,0,0,1-4.9-4.9Z" transform="translate(-156.09 -68.09)"/><path class="cls-32" d="M315.93,467a24.68,24.68,0,0,1-1.08,4.9h-2.74a22.33,22.33,0,0,0,1.21-4.9,17.6,17.6,0,0,0,0-4.53,19.94,19.94,0,0,0-2-6,22.91,22.91,0,0,1-2.21-6.76,20.91,20.91,0,0,1-.15-4.48,23.1,23.1,0,0,1,.84-4.71,4.86,4.86,0,0,1,1.33-.19h1.43a21.92,21.92,0,0,0-1,4.9,18.78,18.78,0,0,0,.12,4.11,20.67,20.67,0,0,0,2,6.05,22,22,0,0,1,2.19,6.77A19.89,19.89,0,0,1,315.93,467Z" transform="translate(-156.09 -68.09)"/><path class="cls-32" d="M323.24,467a22.29,22.29,0,0,1-.73,3.78,4.85,4.85,0,0,1-3.07,1.12,22.25,22.25,0,0,0,1.19-4.9,17.5,17.5,0,0,0,0-4.46,19.85,19.85,0,0,0-2-6,22.34,22.34,0,0,1-2.21-6.76,21,21,0,0,1-.16-4.55,23.94,23.94,0,0,1,.91-4.9h2.22a3.91,3.91,0,0,1,.49,0,21.59,21.59,0,0,0-1,4.87,18.11,18.11,0,0,0,.12,4.17,20.35,20.35,0,0,0,2,6.06,22.16,22.16,0,0,1,2.19,6.77A20.33,20.33,0,0,1,323.24,467Z" transform="translate(-156.09 -68.09)"/><path class="cls-28" d="M324.05,439.71a1.33,1.33,0,0,1-1.32,1.33H307.32a1.33,1.33,0,0,1,0-2.65h15.41a1.33,1.33,0,0,1,1.32,1.32Z" transform="translate(-156.09 -68.09)"/><rect class="cls-33" x="150.16" y="402.97" width="18.05" height="2.64" rx="1.32"/><path class="cls-28" d="M319,441h-4.62l-3.8-2.65-1.42-1a1.3,1.3,0,0,1-.57-1.08,1.34,1.34,0,0,1,.24-.76,1.33,1.33,0,0,1,1.84-.33l4.53,3.16Z" transform="translate(-156.09 -68.09)"/></g></svg>