<svg xmlns="http://www.w3.org/2000/svg" viewBox="0 0 299.83 655.83"><defs><style>.cls-1,.cls-7{fill:#6b6eb3;}.cls-2{fill:none;stroke-width:6px;stroke-dasharray:30.27 30.27;}.cls-2,.cls-7{stroke:#343961;stroke-linecap:round;}.cls-2,.cls-3,.cls-7{stroke-miterlimit:10;}.cls-3{fill:#f15a29;stroke:#ef4136;stroke-width:7px;}.cls-4{font-size:48px;font-family:FranklinGothic-Heavy, Franklin Gothic Heavy;font-weight:800;letter-spacing:0.1em;}.cls-11,.cls-17,.cls-18,.cls-4,.cls-8{fill:#fff;}.cls-5{letter-spacing:0.07em;}.cls-6{fill:#343961;}.cls-8{font-size:26.26px;}.cls-11,.cls-17,.cls-18,.cls-8{font-family:Junegull;}.cls-9{letter-spacing:-0.01em;}.cls-10{letter-spacing:0em;}.cls-11{font-size:27.13px;}.cls-12{letter-spacing:-0.01em;}.cls-13{letter-spacing:0em;}.cls-14{letter-spacing:-0.03em;}.cls-15{letter-spacing:-0.01em;}.cls-16{letter-spacing:-0.01em;}.cls-17{font-size:30px;}.cls-18{font-size:21px;}.cls-19{letter-spacing:-0.01em;}</style></defs><title>Tutorial2</title><g id="InstructionsPg2"><rect class="cls-1" x="3" y="3" width="293.83" height="649.83" rx="41.51"/><rect class="cls-2" x="3" y="3" width="293.83" height="649.83" rx="41.51"/><rect class="cls-3" x="23.94" y="547.13" width="251.96" height="83.74" rx="25.53"/><text class="cls-4" transform="translate(60.28 605.68)">GOT I<tspan class="cls-5" x="139.94" y="0">T</tspan><tspan x="166.07" y="0">.</tspan></text><text class="cls-4" transform="translate(25.88 63.96)">TUTORIAL</text><rect class="cls-6" x="12.96" y="80.28" width="273.91" height="8.26" rx="4.13"/><g id="playerref_copy_3" data-name="playerref copy 3"><path class="cls-6" d="M415.61,205.26c0,3.89-2.31,7-5.16,7H373.61V198.22h36.84a4.22,4.22,0,0,1,2.88,1.2A7.93,7.93,0,0,1,415.61,205.26Z" transform="translate(-156.09 -68.09)"/><path class="cls-6" d="M378.77,205.26c0,3-1.36,5.53-3.28,6.56a4,4,0,0,1-1.88.48,3.41,3.41,0,0,1-.85-.1c-2.45-.55-4.32-3.45-4.32-6.94,0-3.89,2.32-7,5.17-7h36.84a4.22,4.22,0,0,1,2.88,1.2H376.49A7.94,7.94,0,0,1,378.77,205.26Z" transform="translate(-156.09 -68.09)"/><ellipse class="cls-1" cx="217.52" cy="137.18" rx="4.12" ry="5.62"/><path class="cls-6" d="M376.13,207.59a2.18,2.18,0,0,1-2.39.92,2.73,2.73,0,0,1-1.57-2.6c0-1.26,1.49-1.25,1.53,0,0,.64.52.86.95.66a1.43,1.43,0,0,0,.66-1.39,1.8,1.8,0,0,0-2-1.89,2.79,2.79,0,0,0-2,2.36c-.51,2.67,1.41,5.11,3.42,5.15.5,0,.75.52.74,1a4,4,0,0,1-1.88.48,3.41,3.41,0,0,1-.85-.1,5.59,5.59,0,0,1-2.48-3,6.9,6.9,0,0,1,.39-6.14c1.07-1.66,3.11-2.36,4.61-1.24A4.43,4.43,0,0,1,376.13,207.59Z" transform="translate(-156.09 -68.09)"/><rect class="cls-6" x="212.73" y="144.12" width="40.66" height="49.63" rx="9.77"/><rect class="cls-7" x="221.41" y="144.12" width="40.66" height="49.63" rx="12"/><rect class="cls-1" x="212.7" y="170.3" width="7.57" height="14.23" rx="3.78"/><rect class="cls-6" x="210.56" y="170.3" width="7.57" height="14.23" rx="3.78"/><g id="RightFoot"><path class="cls-6" d="M413.14,255.42l7.89,6.24a2.43,2.43,0,0,1,.4,3.41l-1.6,2a2.44,2.44,0,0,1-2.18.9,2.37,2.37,0,0,1-1.23-.51l-7.89-6.23Z" transform="translate(-156.09 -68.09)"/><path class="cls-6" d="M421.5,259.38l1.25,1a1.74,1.74,0,0,1,.48.57,1.89,1.89,0,0,1-.17,2.07l-3.57,4.51a1.89,1.89,0,0,1-2,.65,1.77,1.77,0,0,1-.67-.34l-2.72-2.15,4.73-6A1.89,1.89,0,0,1,421.5,259.38Z" transform="translate(-156.09 -68.09)"/><path class="cls-6" d="M423.23,260.94a1.89,1.89,0,0,1-.17,2.07l-3.57,4.51a1.89,1.89,0,0,1-2,.65Z" transform="translate(-156.09 -68.09)"/></g><g id="RightFoot-2" data-name="RightFoot"><path class="cls-6" d="M398.86,261.28,392,268.65a2.43,2.43,0,0,1-3.43.13L386.69,267a2.42,2.42,0,0,1-.73-2.24,2.37,2.37,0,0,1,.6-1.19l6.85-7.37Z" transform="translate(-156.09 -68.09)"/><path class="cls-6" d="M394.24,269.3l-1.08,1.17a1.74,1.74,0,0,1-.61.43,1.9,1.9,0,0,1-2.05-.33l-4.21-3.92a1.88,1.88,0,0,1-.49-2,1.78,1.78,0,0,1,.39-.64l2.36-2.54,5.6,5.19A1.89,1.89,0,0,1,394.24,269.3Z" transform="translate(-156.09 -68.09)"/><path class="cls-6" d="M392.55,270.9a1.9,1.9,0,0,1-2.05-.33l-4.21-3.92a1.88,1.88,0,0,1-.49-2Z" transform="translate(-156.09 -68.09)"/></g><g id="RightArm"><path class="cls-6" d="M414.15,247.5c2,2.76,4.53,5.32,7.85,6.4,3.66,1.19,7.38.59,11-.42a3,3,0,0,0,1.68-3.86,3,3,0,0,0-3.86-1.67,19.27,19.27,0,0,1-4,.69,8.88,8.88,0,0,1-2.83-.33c-2.16-.78-3.6-2.31-5.1-4.39-2.25-3.1-7,.48-4.75,3.58Z" transform="translate(-156.09 -68.09)"/></g><g id="Body"><ellipse class="cls-7" cx="247.39" cy="158.25" rx="26.32" ry="21.56"/><path class="cls-6" d="M414.2,252.61c-2.07,2.33-6.23,3.11-6.23,3.11h0l-.05-1.67a7.46,7.46,0,0,0,4.15-4.05,7.3,7.3,0,0,0,.15-4.91l-5.08,2.09-.05-.8h0c.09-.15,1.83-3,4.87-3a4.29,4.29,0,0,1,2.89,1.06C416.73,246.34,416.14,250.43,414.2,252.61Z" transform="translate(-156.09 -68.09)"/><path class="cls-6" d="M412.55,250.15v8.12a.49.49,0,0,1,0,.12c-.08.68-.87,1.3-2.13,1.79a22.26,22.26,0,0,1-7.67,1.16,28.07,28.07,0,0,1-4.6-.36h0a15.48,15.48,0,0,1-3.22-.86c-1.25-.51-2-1.15-2-1.85v-8.12a5.29,5.29,0,0,1,1.3-3.49,5.09,5.09,0,0,1,1.7-1.28,6.46,6.46,0,0,1,.73-.28,5.06,5.06,0,0,1,1.41-.2h9.35a5.06,5.06,0,0,1,3.73,1.64,4.33,4.33,0,0,1,.43.53,5.29,5.29,0,0,1,.86,2A5.1,5.1,0,0,1,412.55,250.15Z" transform="translate(-156.09 -68.09)"/><path class="cls-1" d="M412.55,249.77v8.39a.53.53,0,0,1,0,.13c-.08.7-.87,1.34-2.13,1.85a21.68,21.68,0,0,1-7.67,1.2,28,28,0,0,1-4.6-.37h0a14.11,14.11,0,0,1-3.22-.88c-1.25-.53-2-1.2-2-1.92v-8.39a5.9,5.9,0,0,1,.38-2.07A30.93,30.93,0,0,0,405.12,250a31.82,31.82,0,0,0,7.39-.86A4.49,4.49,0,0,1,412.55,249.77Z" transform="translate(-156.09 -68.09)"/></g><path class="cls-6" d="M401.55,249.28v12.58a31,31,0,0,1-3.83-.36h0a17,17,0,0,1-3.51-.92c-1.36-.54-2.17-1.23-2.17-2v-8.67a5.6,5.6,0,0,1,1.41-3.73l.12-.12c-.87-1.25.07-3.42,1.84-2.78l6.62,2.42C404,246.45,403.36,249.44,401.55,249.28Z" transform="translate(-156.09 -68.09)"/><path class="cls-6" d="M413.32,248.75a5.79,5.79,0,0,1,.12,1.19v8.67a.62.62,0,0,1,0,.13c-.09.72-.94,1.38-2.32,1.91a16.77,16.77,0,0,1-2.46.69V249.16a1.71,1.71,0,0,1-1.55-.85,1.8,1.8,0,0,1,.64-2.44l3.15-1.44a1.82,1.82,0,0,1,2.44.64,1.84,1.84,0,0,1-.48,2.35A5.53,5.53,0,0,1,413.32,248.75Z" transform="translate(-156.09 -68.09)"/><path class="cls-6" d="M399.31,244.75a4.76,4.76,0,0,0-4.2-1.87h-7.46a4.78,4.78,0,0,0-4.2,1.87c-1.54,2.33.88,6,1.11,6.38s2.39,3.54,6.05,3.82a29.65,29.65,0,0,0,1.54,0c3.66-.28,5.86-3.54,6.05-3.82S400.85,247.08,399.31,244.75ZM395,249.2a7.33,7.33,0,0,1-3.63,3.83,7.45,7.45,0,0,1-3.63-3.83,7.3,7.3,0,0,1-.15-4.91l3.78,0,3.78,0A7.3,7.3,0,0,1,395,249.2Z" transform="translate(-156.09 -68.09)"/><path class="cls-6" d="M421.68,230.59a10.6,10.6,0,0,0,2.86,1.06,4.94,4.94,0,0,1-5.18,2.72,4.72,4.72,0,0,1-1.75-.64v-7.39c0-.21,0-.42,0-.62s0-.26-.07-.38a24.87,24.87,0,0,0-4-2.09c-.44-.18-.88-.34-1.33-.49s-.78-.25-1.18-.36l-.3-.08a21.55,21.55,0,0,0-5-.78l-.71,0h-.66l-.57,0a16.94,16.94,0,0,0-4.78.87,14.86,14.86,0,0,0-1.8.75,16.18,16.18,0,0,0-3.78,2.57c-.4.37-.79.75-1.16,1.15h0a1.28,1.28,0,0,1,0,.19V236a2.09,2.09,0,0,1-2.08,2.09H390a2,2,0,0,1-.94-.3,2.38,2.38,0,0,1-.51-.44h0a2.07,2.07,0,0,1-.48-1.34v-5.41h.05v-1.2h-.05v.14a3.84,3.84,0,0,0-.69-.07,3.24,3.24,0,0,0-.94.14,3.51,3.51,0,0,1-.65-1.13c-1.48-4.15-.63-9.05,3.18-11.6,3.15-2.11,7.19-2.07,10.66-.74a23.1,23.1,0,0,1,5.23-.56,29.78,29.78,0,0,1,12.27,2.8,14.83,14.83,0,0,0,3.52-.9,15.07,15.07,0,0,0,3.95-2.31,7.52,7.52,0,0,1-1,8.15,13.18,13.18,0,0,0,2.35-1,6.47,6.47,0,0,1-2.71,7.23,5.94,5.94,0,0,1-2,.77Z" transform="translate(-156.09 -68.09)"/><path class="cls-6" d="M417.61,226.34v11.89a4.91,4.91,0,0,1-4.91,4.91H396.36l-.32,0h-.18l-.37-.05L395,243l-.35-.07-.18,0-.18-.05-.23-.06-.39-.14-.36-.14-.23-.1-.26-.13-.1-.05a7.94,7.94,0,0,1-.7-.4l-.19-.13-.26-.18-.28-.22,0,0-.2-.16-.05,0,0,0a.47.47,0,0,1-.1-.1,3.45,3.45,0,0,1-.28-.26l-.3-.31-.27-.32-.26-.33-.1-.14a7.39,7.39,0,0,1-.42-.66,8.53,8.53,0,0,1-.44-.85l-.15-.39-.12-.32a2.38,2.38,0,0,0,.51.44,2,2,0,0,0,.94.3h.15a2.09,2.09,0,0,0,2.08-2.09v-8.92a1.28,1.28,0,0,0,0-.19h0c.37-.4.76-.78,1.16-1.15a16.18,16.18,0,0,1,3.78-2.57,14.86,14.86,0,0,1,1.8-.75,16.94,16.94,0,0,1,4.78-.87l.57,0H405l.71,0a21.55,21.55,0,0,1,5,.78l.3.08c.4.11.79.23,1.18.36s.89.31,1.33.49a24.87,24.87,0,0,1,4,2.09c0,.12.05.25.07.38S417.61,226.13,417.61,226.34Z" transform="translate(-156.09 -68.09)"/><path class="cls-6" d="M417.61,235.92v2.31a4.91,4.91,0,0,1-4.91,4.91H396.64a8.44,8.44,0,0,1-6.29-2.79A20.91,20.91,0,0,1,406.6,233,21.94,21.94,0,0,1,417.61,235.92Z" transform="translate(-156.09 -68.09)"/><path class="cls-1" d="M411,222.4l-10.58,11.49-7.66,8.31a7.94,7.94,0,0,1-.7-.4l-.19-.13-.26-.18-.28-.22,0,0-.2-.16-.05,0,0,0a.47.47,0,0,1-.1-.1,3.45,3.45,0,0,1-.28-.26l-.3-.31-.27-.32-.26-.33-.1-.14a7.39,7.39,0,0,1-.42-.66,8.53,8.53,0,0,1-.44-.85l-.15-.39-.12-.32a2.38,2.38,0,0,0,.51.44,2,2,0,0,0,.94.3h.15a2.09,2.09,0,0,0,2.08-2.09v-8.92a1.28,1.28,0,0,0,0-.19h0c.37-.4.76-.78,1.16-1.15a16.18,16.18,0,0,1,3.78-2.57,14.86,14.86,0,0,1,1.8-.75,16.94,16.94,0,0,1,4.78-.87l.57,0H405l.71,0a21.55,21.55,0,0,1,5,.78Z" transform="translate(-156.09 -68.09)"/><path class="cls-6" d="M390,238.08l-.74.82a8.53,8.53,0,0,1-.44-.85l.24-.27A2,2,0,0,0,390,238.08Z" transform="translate(-156.09 -68.09)"/><path class="cls-6" d="M405,221.52l-12.74,14.09v-1.33L402,223.47l1.74-1.92.57,0Z" transform="translate(-156.09 -68.09)"/><path class="cls-6" d="M388.17,236.51a3.08,3.08,0,0,1-.75.09A3.5,3.5,0,0,1,384,233a3.55,3.55,0,0,1,2.48-3.43,3.24,3.24,0,0,1,.94-.14,3.84,3.84,0,0,1,.69.07l.05,0v1h-.05V236A2.1,2.1,0,0,0,388.17,236.51Z" transform="translate(-156.09 -68.09)"/><path class="cls-6" d="M422.38,216h0A6,6,0,0,1,420,218.9s0,0,0-.06a4.16,4.16,0,0,0,.24-.64,6.12,6.12,0,0,0-.6-4.57h0a8.23,8.23,0,0,0-3.57-3.45,12.71,12.71,0,0,1-.26,2.89c-.05.27-.12.54-.19.82a7.44,7.44,0,0,0-.33-.85l-.06-.13A9.49,9.49,0,0,0,414,211a8.85,8.85,0,0,0-3.58-2.68,17.86,17.86,0,0,1,.46,4.71,16.25,16.25,0,0,1-.28,2.4l0,.17a13.15,13.15,0,0,1-.47,1.73,7.86,7.86,0,0,0,0-1.28c0-.26-.06-.52-.1-.77a8.27,8.27,0,0,0-.68-2.18,6.07,6.07,0,0,0-.48-.82c0,.23-.11.53-.2.87a17.79,17.79,0,0,1-1.87,4.66c-.1.17-.2.32-.3.47l-.22.35a9.59,9.59,0,0,1-3.11,3,18.65,18.65,0,0,1-6,.86,18.92,18.92,0,0,1-5.74-1h0c-1.39-.77-2.22-1.61-2.21-2.41,0-1.48,2.9-2.7,5.88-3.57a.18.18,0,0,0-.07,0c.63-.26,4.27-1.82,5.29-5.57a7.28,7.28,0,0,0,.26-2.25,6,6,0,0,1,3.24,3.29,11.76,11.76,0,0,0,1.72-2.45,12.35,12.35,0,0,0,1.16-3.42,10.73,10.73,0,0,1,2.05,2v-.12a12,12,0,0,0-.31-3.59,9.32,9.32,0,0,1,6.58,5,11.15,11.15,0,0,0-.34-6.2,9.83,9.83,0,0,1,8.93,8.92A9,9,0,0,1,422.38,216Z" transform="translate(-156.09 -68.09)"/><path class="cls-6" d="M419.17,224.13a3.52,3.52,0,0,1-5.05-1.53h0a8.57,8.57,0,0,1-1.6,0,30.16,30.16,0,0,1-7.4,1.46c-5.25.33-10.77-1-13.74-2.61a18.92,18.92,0,0,0,5.74,1,18.65,18.65,0,0,0,6-.86,9.59,9.59,0,0,0,3.11-3l.22-.35c.1-.15.2-.3.3-.47a17.79,17.79,0,0,0,1.87-4.66c.09-.34.15-.64.2-.87a6.07,6.07,0,0,1,.48.82,8.27,8.27,0,0,1,.68,2.18c0,.25.08.51.1.77a7.86,7.86,0,0,1,0,1.28,13.15,13.15,0,0,0,.47-1.73l0-.17a16.25,16.25,0,0,0,.28-2.4,17.86,17.86,0,0,0-.46-4.71A8.85,8.85,0,0,1,414,211a9.49,9.49,0,0,1,1.22,1.95.56.56,0,0,1,0,.12h.1a7.44,7.44,0,0,1,.33.85c.07-.28.14-.55.19-.82a12.71,12.71,0,0,0,.26-2.89,8.23,8.23,0,0,1,3.57,3.45h0a6.12,6.12,0,0,1,.6,4.57,4.16,4.16,0,0,1-.24.64s0,0,0,.06a6,6,0,0,1-1.53,1.95,12.15,12.15,0,0,0,3.72-2.32A6.26,6.26,0,0,1,419.17,224.13Z" transform="translate(-156.09 -68.09)"/><path class="cls-6" d="M401.78,239.25a22.33,22.33,0,0,1,7.82.17c1.12.22,1.6-1.5.47-1.72a24.8,24.8,0,0,0-8.76-.17c-1.13.17-.65,1.89.47,1.72Z" transform="translate(-156.09 -68.09)"/><path class="cls-6" d="M416.48,232.74a5.73,5.73,0,0,1-.06.84h0a2.82,2.82,0,0,1-.07.31,3.1,3.1,0,0,1-2.62,2.7h-.07c-1.56,0-2.82-1.73-2.82-3.87s1.26-3.86,2.82-3.86a2.12,2.12,0,0,1,.93.22A4,4,0,0,1,416.48,232.74Z" transform="translate(-156.09 -68.09)"/><path class="cls-1" d="M416.58,231.66a3.08,3.08,0,0,1-.06.61h0a1.55,1.55,0,0,1-.07.23,2.79,2.79,0,0,1-2.62,2h-.07a2.82,2.82,0,1,1,2.82-2.82Z" transform="translate(-156.09 -68.09)"/><path class="cls-6" d="M411.68,227.24l5.91,1.78c1.94.58,2.76-2.44.83-3l-5.91-1.78c-1.93-.58-2.76,2.44-.83,3Z" transform="translate(-156.09 -68.09)"/><g id="LeftArm"><path class="cls-6" d="M393.44,243.7c-3.52-.21-7.05.12-10.1,2s-5.1,5.27-6.6,8.63a3,3,0,1,0,5.59,2c.93-2.09,2.13-4.36,4.11-5.63s4.29-1.26,6.47-1.13c3.81.23,4.37-5.7.53-5.92Z" transform="translate(-156.09 -68.09)"/><path class="cls-6" d="M393.49,243.1a14.6,14.6,0,0,0-8.5,1.08,3.57,3.57,0,1,0,2.93,6.51c.37-.16.75-.31,1.14-.44-.78.27.19,0,.31-.05a7.93,7.93,0,0,1,.85-.14c.09,0,.87-.07.35-.06.28,0,.55,0,.82,0a12.32,12.32,0,0,1,1.47.19,3.58,3.58,0,0,0,3.87-3.23,3.68,3.68,0,0,0-3.24-3.88Z" transform="translate(-156.09 -68.09)"/></g><path class="cls-6" d="M442.75,219.48c-.88.72-1.65.67-5.13,1.24-2,.34-3.63.68-4.62.9.37-1,1-2.5,1.67-4.46,1.21-3.43,1.35-4.13,2.17-4.81a4.63,4.63,0,0,1,5.91,7.13Z" transform="translate(-156.09 -68.09)"/><path class="cls-6" d="M440.93,233.72c-1.13,0-1.7-.5-4.79-2.21-1.79-1-3.26-1.72-4.18-2.16.88-.51,2.32-1.36,4.07-2.46,3.09-1.93,3.63-2.39,4.7-2.42a4.63,4.63,0,0,1,.2,9.25Z" transform="translate(-156.09 -68.09)"/><path class="cls-6" d="M322.51,205.22c0,3.89-2.31,7-5.16,7H280.51V198.18h36.84a4.22,4.22,0,0,1,2.88,1.2A7.94,7.94,0,0,1,322.51,205.22Z" transform="translate(-156.09 -68.09)"/><path class="cls-6" d="M285.67,205.22c0,3-1.36,5.54-3.28,6.56a3.87,3.87,0,0,1-1.88.48,4,4,0,0,1-.85-.09c-2.45-.56-4.32-3.45-4.32-6.95,0-3.88,2.32-7,5.17-7h36.84a4.22,4.22,0,0,1,2.88,1.2H283.39A8,8,0,0,1,285.67,205.22Z" transform="translate(-156.09 -68.09)"/><ellipse class="cls-1" cx="124.42" cy="137.14" rx="4.12" ry="5.62"/><path class="cls-6" d="M283,207.56a2.19,2.19,0,0,1-2.39.91,2.72,2.72,0,0,1-1.57-2.6c0-1.26,1.49-1.25,1.53,0a.65.65,0,0,0,.95.66,1.4,1.4,0,0,0,.66-1.38,1.79,1.79,0,0,0-2-1.89,2.81,2.81,0,0,0-2,2.35c-.5,2.68,1.42,5.12,3.43,5.15.5,0,.75.52.74,1a3.87,3.87,0,0,1-1.88.48,4,4,0,0,1-.85-.09,5.69,5.69,0,0,1-2.49-3,6.93,6.93,0,0,1,.4-6.14c1.07-1.67,3.11-2.37,4.61-1.24A4.42,4.42,0,0,1,283,207.56Z" transform="translate(-156.09 -68.09)"/><rect class="cls-6" x="119.63" y="144.08" width="40.66" height="49.63" rx="9.77"/><rect class="cls-7" x="128.31" y="144.08" width="40.66" height="49.63" rx="12"/><rect class="cls-1" x="119.6" y="170.26" width="7.57" height="14.23" rx="3.78"/><rect class="cls-6" x="117.46" y="170.26" width="7.57" height="14.23" rx="3.78"/><g id="RightFoot-3" data-name="RightFoot"><path class="cls-6" d="M319.53,257.83l3.55,9.41a2.35,2.35,0,0,1,.11,1.33,2.43,2.43,0,0,1-1.52,1.8l-2.41.91a2.42,2.42,0,0,1-2.33-.34,2.46,2.46,0,0,1-.8-1.07l-3.56-9.41Z" transform="translate(-156.09 -68.09)"/><path class="cls-6" d="M324.66,265.53l.57,1.49a1.87,1.87,0,0,1-1.1,2.42l-5.38,2a1.88,1.88,0,0,1-2.43-1.1l-1.22-3.24,7.14-2.7A1.87,1.87,0,0,1,324.66,265.53Z" transform="translate(-156.09 -68.09)"/><path class="cls-6" d="M325.35,267.76a1.89,1.89,0,0,1-1.22,1.68l-5.38,2a1.92,1.92,0,0,1-2-.46Z" transform="translate(-156.09 -68.09)"/></g><g id="RightFoot-4" data-name="RightFoot"><path class="cls-6" d="M307,259.58l-1.44,10a2.4,2.4,0,0,1-.55,1.22,2.44,2.44,0,0,1-2.2.84l-2.55-.37a2.44,2.44,0,0,1-1.88-1.43,2.36,2.36,0,0,1-.18-1.32l1.44-10Z" transform="translate(-156.09 -68.09)"/><path class="cls-6" d="M307.78,268.81l-.23,1.57a1.88,1.88,0,0,1-.25.71,1.9,1.9,0,0,1-1.88.89l-5.69-.83a1.9,1.9,0,0,1-1.56-1.38,2.1,2.1,0,0,1,0-.75l.5-3.44,7.56,1.1A1.89,1.89,0,0,1,307.78,268.81Z" transform="translate(-156.09 -68.09)"/><path class="cls-6" d="M307.3,271.09a1.9,1.9,0,0,1-1.88.89l-5.69-.83a1.9,1.9,0,0,1-1.56-1.38Z" transform="translate(-156.09 -68.09)"/></g><g id="RightArm-2" data-name="RightArm"><path class="cls-6" d="M316.74,247.9c0,3.4.58,7,2.64,9.78,2.28,3.1,5.66,4.78,9.19,6.08a3,3,0,0,0,3.61-2.16A3,3,0,0,0,330,258a19.44,19.44,0,0,1-3.64-1.77,9,9,0,0,1-2.11-1.91c-1.3-1.89-1.57-4-1.58-6.55,0-3.83-6-3.69-5.95.14Z" transform="translate(-156.09 -68.09)"/></g><g id="Body-2" data-name="Body"><ellipse class="cls-7" cx="154.29" cy="158.22" rx="26.32" ry="21.56"/><path class="cls-6" d="M321.1,252.57c-2.07,2.33-6.23,3.11-6.23,3.11h0l-.05-1.67a7.39,7.39,0,0,0,4.15-4,7.3,7.3,0,0,0,.15-4.91L314,247.14l-.05-.8h0c.08-.15,1.83-3,4.87-3a4.18,4.18,0,0,1,2.89,1.06C323.63,246.31,323,250.39,321.1,252.57Z" transform="translate(-156.09 -68.09)"/><path class="cls-6" d="M319.45,250.12v8.12a.49.49,0,0,1,0,.12c-.08.67-.87,1.29-2.13,1.79a22.53,22.53,0,0,1-7.67,1.15,28.07,28.07,0,0,1-4.6-.36h0a15.52,15.52,0,0,1-3.22-.85c-1.25-.52-2-1.16-2-1.85v-8.12a5.27,5.27,0,0,1,3-4.78,4.93,4.93,0,0,1,.73-.27,5.06,5.06,0,0,1,1.41-.2h9.35a5.06,5.06,0,0,1,3.73,1.64,3.69,3.69,0,0,1,.43.53,5.35,5.35,0,0,1,1,3.08Z" transform="translate(-156.09 -68.09)"/><path class="cls-1" d="M319.45,249.73v8.4a.49.49,0,0,1,0,.12c-.08.7-.87,1.35-2.13,1.86a21.71,21.71,0,0,1-7.67,1.19,27,27,0,0,1-4.6-.37h0a15.22,15.22,0,0,1-3.22-.88c-1.25-.54-2-1.2-2-1.92v-8.4a5.84,5.84,0,0,1,.38-2.06A30.92,30.92,0,0,0,312,250a31.31,31.31,0,0,0,7.4-.87A4.58,4.58,0,0,1,319.45,249.73Z" transform="translate(-156.09 -68.09)"/></g><path class="cls-6" d="M308.45,249.25v12.57a29,29,0,0,1-3.83-.36h0a16.46,16.46,0,0,1-3.51-.91c-1.36-.55-2.17-1.23-2.17-2V249.9a5.59,5.59,0,0,1,1.41-3.72l.12-.12c-.87-1.25.07-3.42,1.84-2.78l6.62,2.41C310.9,246.42,310.26,249.41,308.45,249.25Z" transform="translate(-156.09 -68.09)"/><path class="cls-6" d="M320.21,248.71a5.29,5.29,0,0,1,.13,1.19v8.67a.57.57,0,0,1,0,.13c-.09.72-.95,1.39-2.33,1.91a15.17,15.17,0,0,1-2.45.69V249.12a1.69,1.69,0,0,1-1.55-.85,1.8,1.8,0,0,1,.64-2.44l3.15-1.44a1.83,1.83,0,0,1,2.44.64,1.85,1.85,0,0,1-.48,2.36A5,5,0,0,1,320.21,248.71Z" transform="translate(-156.09 -68.09)"/><path class="cls-6" d="M306.21,244.72a4.77,4.77,0,0,0-4.2-1.88h-7.46a4.78,4.78,0,0,0-4.2,1.88c-1.54,2.32.88,6,1.11,6.37s2.39,3.54,6.05,3.82a29.65,29.65,0,0,0,1.54,0c3.66-.28,5.86-3.53,6.05-3.82S307.75,247,306.21,244.72Zm-4.3,4.45a7.34,7.34,0,0,1-3.63,3.82,7.38,7.38,0,0,1-3.63-3.82,7.3,7.3,0,0,1-.15-4.91l3.78,0,3.78,0A7.3,7.3,0,0,1,301.91,249.17Z" transform="translate(-156.09 -68.09)"/><path class="cls-6" d="M328.58,230.56a10.54,10.54,0,0,0,2.86,1.05,4.88,4.88,0,0,1-6.93,2.09v-7.4a4.21,4.21,0,0,0-.05-.62,2.5,2.5,0,0,0-.06-.38,24.81,24.81,0,0,0-4-2.08c-.44-.18-.88-.34-1.33-.5s-.78-.24-1.19-.35l-.29-.08a21.55,21.55,0,0,0-5-.78l-.72,0c-.21,0-.43,0-.65,0l-.57,0a17.68,17.68,0,0,0-4.78.87,14.86,14.86,0,0,0-1.8.75,16.49,16.49,0,0,0-3.78,2.57c-.4.37-.79.75-1.16,1.16h0a1.15,1.15,0,0,1,0,.19V236a2.08,2.08,0,0,1-2.08,2.08h-.15a2,2,0,0,1-.94-.3,1.93,1.93,0,0,1-.51-.44h0a2,2,0,0,1-.42-.83,2.07,2.07,0,0,1-.06-.5v-5.42h.05v-1.19H295v.14a3.11,3.11,0,0,0-.69-.07,3.24,3.24,0,0,0-.94.13,3.47,3.47,0,0,1-.65-1.12c-1.48-4.15-.63-9.06,3.18-11.61,3.15-2.1,7.19-2.06,10.66-.73a23.1,23.1,0,0,1,5.23-.56,29.63,29.63,0,0,1,12.27,2.8,14.87,14.87,0,0,0,3.52-.91,15.07,15.07,0,0,0,4-2.31,7.51,7.51,0,0,1-1,8.15,13.21,13.21,0,0,0,2.35-1,6.46,6.46,0,0,1-2.71,7.22,6,6,0,0,1-2,.78Z" transform="translate(-156.09 -68.09)"/><path class="cls-6" d="M324.51,226.3v11.9a4.91,4.91,0,0,1-4.91,4.91H302.94l-.18,0-.37,0-.45-.07-.35-.08-.18,0-.18-.05-.23-.07-.39-.13-.36-.15-.23-.1-.26-.13-.1,0a8,8,0,0,1-.7-.41l-.2-.13-.25-.18-.28-.22,0,0L298,241l-.05,0,0,0-.11-.09-.27-.26-.3-.31L297,240l-.26-.33-.1-.15c-.15-.21-.29-.43-.43-.65s-.3-.56-.43-.86l-.15-.38-.12-.33a1.93,1.93,0,0,0,.51.44,2,2,0,0,0,.94.3h.15a2.08,2.08,0,0,0,2.08-2.08v-8.92a1.15,1.15,0,0,0,0-.19h0c.37-.41.76-.79,1.16-1.16a16.49,16.49,0,0,1,3.78-2.57,14.86,14.86,0,0,1,1.8-.75,17.68,17.68,0,0,1,4.78-.87l.57,0c.22,0,.44,0,.65,0l.72,0a21.55,21.55,0,0,1,5,.78l.29.08c.41.11.8.22,1.19.35s.89.32,1.33.5a24.81,24.81,0,0,1,4,2.08,2.5,2.5,0,0,1,.06.38A4.21,4.21,0,0,1,324.51,226.3Z" transform="translate(-156.09 -68.09)"/><path class="cls-6" d="M324.51,235.89v2.31a4.91,4.91,0,0,1-4.91,4.91H303.54a8.48,8.48,0,0,1-6.29-2.79A20.92,20.92,0,0,1,313.5,233,22,22,0,0,1,324.51,235.89Z" transform="translate(-156.09 -68.09)"/><path class="cls-1" d="M317.89,222.37l-10.57,11.48-7.66,8.32a8,8,0,0,1-.7-.41l-.2-.13-.25-.18-.28-.22,0,0L298,241l-.05,0,0,0-.11-.09-.27-.26-.3-.31L297,240l-.26-.33-.1-.15c-.15-.21-.29-.43-.43-.65s-.3-.56-.43-.86l-.15-.38-.12-.33a1.93,1.93,0,0,0,.51.44,2,2,0,0,0,.94.3h.15a2.08,2.08,0,0,0,2.08-2.08v-8.92a1.15,1.15,0,0,0,0-.19h0c.37-.41.76-.79,1.16-1.16a16.49,16.49,0,0,1,3.78-2.57,14.86,14.86,0,0,1,1.8-.75,17.68,17.68,0,0,1,4.78-.87l.57,0c.22,0,.44,0,.65,0l.72,0a21.55,21.55,0,0,1,5,.78Z" transform="translate(-156.09 -68.09)"/><path class="cls-6" d="M296.94,238l-.75.83c-.15-.28-.3-.56-.43-.86l.24-.27A2,2,0,0,0,296.94,238Z" transform="translate(-156.09 -68.09)"/><path class="cls-6" d="M311.9,221.49l-12.73,14.08v-1.33l9.77-10.8,1.74-1.93.57,0C311.47,221.49,311.69,221.48,311.9,221.49Z" transform="translate(-156.09 -68.09)"/><path class="cls-6" d="M295.07,236.47a3.08,3.08,0,0,1-.75.09A3.49,3.49,0,0,1,290.9,233a3.55,3.55,0,0,1,2.48-3.43,3.24,3.24,0,0,1,.94-.13,3.11,3.11,0,0,1,.69.07h.05v1.05H295V236A2.07,2.07,0,0,0,295.07,236.47Z" transform="translate(-156.09 -68.09)"/><path class="cls-6" d="M329.28,216h0a5.93,5.93,0,0,1-2.42,2.89.14.14,0,0,1,0-.06,3.81,3.81,0,0,0,.24-.64,6.12,6.12,0,0,0-.6-4.57h0a8.34,8.34,0,0,0-3.57-3.45,12.74,12.74,0,0,1-.26,2.9c-.05.26-.12.53-.19.82a6.23,6.23,0,0,0-.33-.85l-.06-.14a9.42,9.42,0,0,0-1.22-1.94,8.76,8.76,0,0,0-3.58-2.68,17.81,17.81,0,0,1,.46,4.71,16.12,16.12,0,0,1-.28,2.39l0,.17a12.89,12.89,0,0,1-.47,1.74,9.08,9.08,0,0,0,0-1.28c0-.26-.06-.52-.1-.78a7.86,7.86,0,0,0-.69-2.17,5.21,5.21,0,0,0-.47-.83c-.05.24-.11.53-.2.87a17.84,17.84,0,0,1-1.87,4.67l-.3.47c-.07.12-.15.23-.22.34a9.55,9.55,0,0,1-3.11,3,18.94,18.94,0,0,1-11.7-.13h0c-1.39-.77-2.22-1.62-2.21-2.42,0-1.47,2.9-2.69,5.88-3.57l-.07,0c.63-.26,4.27-1.82,5.29-5.56a7.35,7.35,0,0,0,.26-2.26,6,6,0,0,1,3.24,3.3,11.83,11.83,0,0,0,1.72-2.46,12.19,12.19,0,0,0,1.16-3.41,10.68,10.68,0,0,1,2,2v-.12a12.09,12.09,0,0,0-.31-3.59,9.33,9.33,0,0,1,6.58,5,11.3,11.3,0,0,0,.26-1.75,11.58,11.58,0,0,0-.6-4.46,9.82,9.82,0,0,1,8.92,8.93A8.82,8.82,0,0,1,329.28,216Z" transform="translate(-156.09 -68.09)"/><path class="cls-6" d="M326.07,224.09a3.51,3.51,0,0,1-5.05-1.53h0a7.71,7.71,0,0,1-1.59,0A30.15,30.15,0,0,1,312,224c-5.24.33-10.76-1-13.73-2.61a18.94,18.94,0,0,0,11.7.13,9.55,9.55,0,0,0,3.11-3c.07-.11.15-.22.22-.34l.3-.47a17.84,17.84,0,0,0,1.87-4.67c.09-.34.15-.63.2-.87a5.21,5.21,0,0,1,.47.83,7.86,7.86,0,0,1,.69,2.17c0,.26.08.52.1.78a9.08,9.08,0,0,1,0,1.28,12.89,12.89,0,0,0,.47-1.74l0-.17a16.12,16.12,0,0,0,.28-2.39,17.81,17.81,0,0,0-.46-4.71,8.76,8.76,0,0,1,3.58,2.68,9.42,9.42,0,0,1,1.22,1.94.5.5,0,0,1,0,.13h.1a6.23,6.23,0,0,1,.33.85c.07-.29.14-.56.19-.82a12.74,12.74,0,0,0,.26-2.9,8.34,8.34,0,0,1,3.57,3.45h0a6.12,6.12,0,0,1,.6,4.57,3.81,3.81,0,0,1-.24.64.14.14,0,0,0,0,.06,6.1,6.1,0,0,1-1.53,2,12.55,12.55,0,0,0,3.72-2.32A6.23,6.23,0,0,1,326.07,224.09Z" transform="translate(-156.09 -68.09)"/><path class="cls-6" d="M308.68,239.21a22.58,22.58,0,0,1,7.82.17c1.12.23,1.6-1.49.47-1.72a25.27,25.27,0,0,0-8.76-.17c-1.13.18-.65,1.9.47,1.72Z" transform="translate(-156.09 -68.09)"/><path class="cls-6" d="M323.38,232.71a5.73,5.73,0,0,1-.06.84h0a3,3,0,0,1-.07.32,3.11,3.11,0,0,1-2.62,2.7h-.07c-1.56,0-2.82-1.73-2.82-3.86s1.26-3.86,2.82-3.86a2.12,2.12,0,0,1,.93.22A4,4,0,0,1,323.38,232.71Z" transform="translate(-156.09 -68.09)"/><path class="cls-1" d="M323.48,231.62a3.08,3.08,0,0,1-.06.61h0a2,2,0,0,1-.07.23,2.82,2.82,0,0,1-2.63,2h-.06a2.82,2.82,0,0,1,0-5.64,2.6,2.6,0,0,1,.93.16A2.82,2.82,0,0,1,323.48,231.62Z" transform="translate(-156.09 -68.09)"/><path class="cls-6" d="M318.58,227.21l5.91,1.78c1.93.58,2.76-2.44.83-3l-5.91-1.78c-1.93-.59-2.76,2.44-.83,3Z" transform="translate(-156.09 -68.09)"/><g id="LeftArm-2" data-name="LeftArm"><path class="cls-6" d="M299.24,246.09c-3.16,1.56-6.06,3.6-7.77,6.77s-1.81,7.1-1.45,10.76a3,3,0,0,0,5.87-1c-.23-2.29-.32-4.85.77-6.94s3.1-3.22,5.06-4.19c3.42-1.69,1-7.11-2.48-5.4Z" transform="translate(-156.09 -68.09)"/><path class="cls-6" d="M299,245.55a14.5,14.5,0,0,0-6.85,5.16,3.57,3.57,0,0,0,5.78,4.19c.24-.33.5-.64.77-1-.54.62.15-.12.24-.2s.44-.37.66-.54.73-.5.29-.23c.23-.14.48-.26.72-.38A10.93,10.93,0,0,1,302,252a3.59,3.59,0,0,0,1.75-4.74,3.67,3.67,0,0,0-4.73-1.75Z" transform="translate(-156.09 -68.09)"/></g><path class="cls-6" d="M397.93,182.71a97.62,97.62,0,0,0-92,0c-2.13,1.14-.24,4.38,1.89,3.24A93.7,93.7,0,0,1,396,186c2.13,1.14,4-2.1,1.9-3.24Z" transform="translate(-156.09 -68.09)"/><path class="cls-6" d="M303.47,177l-5.64,9.76a2.73,2.73,0,0,0,2.36,4.09h11.27a2.73,2.73,0,0,0,2.36-4.09L308.18,177A2.72,2.72,0,0,0,303.47,177Z" transform="translate(-156.09 -68.09)"/><circle class="cls-6" cx="248.53" cy="120.08" r="2.15"/><path class="cls-6" d="M306.13,285.84a97.62,97.62,0,0,0,92,0c2.13-1.14.24-4.38-1.89-3.24a93.69,93.69,0,0,1-88.19,0c-2.12-1.14-4,2.1-1.89,3.24Z" transform="translate(-156.09 -68.09)"/><path class="cls-6" d="M400.59,291.51l5.64-9.76a2.73,2.73,0,0,0-2.36-4.09H392.6a2.73,2.73,0,0,0-2.36,4.09l5.63,9.76A2.73,2.73,0,0,0,400.59,291.51Z" transform="translate(-156.09 -68.09)"/><circle class="cls-6" cx="143.35" cy="212.3" r="2.15"/></g><text class="cls-8" transform="translate(15.53 510.94)">action button <tspan class="cls-9" x="173.71" y="0">c</tspan><tspan x="186.36" y="0">han</tspan><tspan class="cls-9" x="229.67" y="0">g</tspan><tspan x="242.35" y="0">es</tspan><tspan x="26.3" y="21.01" xml:space="preserve"> d</tspan><tspan class="cls-9" x="45.49" y="21.01">e</tspan><tspan class="cls-10" x="58.57" y="21.01">pending on task</tspan></text><text class="cls-11" transform="translate(51.59 249.64)">slide the action <tspan x="-29.29" y="21.71">button </tspan><tspan class="cls-12" x="63.89" y="21.71">w</tspan><tspan class="cls-13" x="86.22" y="21.71">hile m</tspan><tspan class="cls-14" x="153.92" y="21.71">o</tspan><tspan x="170.93" y="21.71">ving </tspan><tspan x="0.46" y="43.42">to </tspan><tspan class="cls-15" x="36.71" y="43.42">c</tspan><tspan class="cls-13" x="49.79" y="43.42">han</tspan><tspan class="cls-16" x="94.54" y="43.42">g</tspan><tspan x="107.64" y="43.42">e speed</tspan></text><text class="cls-17" transform="translate(23.95 116.15)">3.</text><text class="cls-17" transform="translate(24.28 337.98)">4.</text><rect class="cls-6" x="12.96" y="303.79" width="273.91" height="8.26" rx="4.13"/><rect class="cls-6" x="65.37" y="131.43" width="6.47" height="55.83"/><path class="cls-6" d="M243.68,268.14a18.54,18.54,0,1,1-18.54-18.53A18.44,18.44,0,0,1,243.68,268.14Z" transform="translate(-156.09 -68.09)"/><path class="cls-1" d="M225.14,251.55a16.5,16.5,0,0,0-9.34,2.89,16.18,16.18,0,0,0-3.81,3.62,2.77,2.77,0,0,0-.22.29,4.48,4.48,0,0,0-.32.44,12.82,12.82,0,0,0-.82,1.33,16.55,16.55,0,0,0-2.06,8v.22c0,.14,0,.29,0,.43a16.58,16.58,0,0,0,16.36,15.93h.77a16.45,16.45,0,0,0,7.44-2c.46-.25.91-.53,1.34-.82a14.64,14.64,0,0,0,1.39-1.07,15.59,15.59,0,0,0,1.69-1.66,16.68,16.68,0,0,0,1.28-1.63,16.59,16.59,0,0,0-13.71-25.93Zm8.24,18.27-9.76,9.77a2.36,2.36,0,0,1-3.33-3.34l8.11-8.11L220.29,260a2.35,2.35,0,0,1,3.33-3.33l9.76,9.77a2.39,2.39,0,0,1,0,3.36Z" transform="translate(-156.09 -68.09)"/><path class="cls-6" d="M243.68,196.86a18.53,18.53,0,1,1-18.54-18.53A18.52,18.52,0,0,1,243.68,196.86Z" transform="translate(-156.09 -68.09)"/><path class="cls-1" d="M225.14,180.31a16.55,16.55,0,0,0-13.16,6.5l-.22.29c-.11.14-.22.29-.32.44-.28.43-.56.87-.81,1.32a16.5,16.5,0,0,0-2.06,8v.22c0,.14,0,.29,0,.43a16.57,16.57,0,0,0,16.36,15.93h.77a16.48,16.48,0,0,0,7.44-2.05,15.62,15.62,0,0,0,1.34-.83c.48-.33.94-.68,1.39-1.06a15.67,15.67,0,0,0,1.69-1.67,15.35,15.35,0,0,0,1.27-1.62,16.57,16.57,0,0,0-13.7-25.92Zm3.34,25.49a1.93,1.93,0,0,1,0-2.74l6.68-6.69-6.68-6.67a1.94,1.94,0,1,1,2.74-2.74l8,8a2,2,0,0,1,.57,1.38,2,2,0,0,1-.57,1.39l-8,8A1.93,1.93,0,0,1,228.48,205.8Zm-15.14-2.42L220,196.7,213.34,190a1.94,1.94,0,0,1,2.75-2.74l8,8a2,2,0,0,1,.56,1.38,2,2,0,0,1-.56,1.39l-8,8a1.94,1.94,0,0,1-2.75-2.74Zm7.58,2.63a1.91,1.91,0,0,1,0-2.74l6.67-6.68-6.67-6.68a1.93,1.93,0,0,1,2.73-2.73l8,8a2,2,0,0,1,0,2.77l-8,8A1.92,1.92,0,0,1,220.92,206Z" transform="translate(-156.09 -68.09)"/><path class="cls-6" d="M246.91,221.91h-1.44v16.4a1.79,1.79,0,1,1-3.58,0v-16.4h-1.44a1.42,1.42,0,0,1-1.23-2.13l3.23-5.6a1.42,1.42,0,0,1,2.46,0l3.23,5.6A1.42,1.42,0,0,1,246.91,221.91Z" transform="translate(-156.09 -68.09)"/><rect class="cls-6" x="241.89" y="242.1" width="3.59" height="6.05" rx="1.79" transform="translate(331.28 422.17) rotate(180)"/><path class="cls-6" d="M209.84,243.12H208.4v-16.4a1.8,1.8,0,0,0-3.59,0v16.4h-1.44a1.41,1.41,0,0,0-1.22,2.12l3.23,5.61a1.43,1.43,0,0,0,2.46,0l3.23-5.61A1.41,1.41,0,0,0,209.84,243.12Z" transform="translate(-156.09 -68.09)"/><rect class="cls-6" x="204.82" y="216.88" width="3.59" height="6.05" rx="1.79" transform="translate(257.13 371.72) rotate(180)"/><path class="cls-6" d="M255.21,452a19,19,0,0,1-5.77,13.62A19.31,19.31,0,0,1,216.66,452a19,19,0,0,1,5.52-13.39,19.32,19.32,0,0,1,33,13.39Z" transform="translate(-156.09 -68.09)"/><path class="cls-1" d="M235.93,435a17.25,17.25,0,0,0-13.68,6.7l-.23.3-.33.46a15.56,15.56,0,0,0-.85,1.36,16.89,16.89,0,0,0-2.15,8.27,1.85,1.85,0,0,0,0,.23c0,.14,0,.29,0,.44a17.17,17.17,0,0,0,17,16.42h.79a17.42,17.42,0,0,0,7.74-2.11c.48-.27.94-.55,1.39-.85a17.26,17.26,0,0,0,1.45-1.1,15.89,15.89,0,0,0,1.76-1.72,16.13,16.13,0,0,0,1.32-1.67,16.84,16.84,0,0,0,3-9.63A17.17,17.17,0,0,0,235.93,435Zm5.6,24.85c-5.43,0-10.87,0-16.31,0-2.76,0-2.76-4.26,0-4.26h13.71c2.08,0,4.35.48,5.27-1.88.67-1.72.21-4.79-2-5.16a28.47,28.47,0,0,0-4.23,0h-2v1.8a1.71,1.71,0,0,1-2.56,1.46l-6.91-4a1.69,1.69,0,0,1,0-2.93l6.91-4a1.71,1.71,0,0,1,2.56,1.46v1.86h3.23a16.47,16.47,0,0,1,4.6.22,7.45,7.45,0,0,1,4.82,5.74C249.55,455,246.6,459.77,241.53,459.8Z" transform="translate(-156.09 -68.09)"/><path class="cls-6" d="M255.21,536.65a19,19,0,0,1-5.77,13.63,19.31,19.31,0,0,1-32.78-13.63,19,19,0,0,1,5.52-13.38,19.31,19.31,0,0,1,33,13.38Z" transform="translate(-156.09 -68.09)"/><path class="cls-1" d="M235.93,519.7a17.2,17.2,0,0,0-9.71,3,16.76,16.76,0,0,0-4,3.73l-.23.3-.33.45c-.3.44-.59.9-.85,1.37a16.85,16.85,0,0,0-2.15,8.26,1.93,1.93,0,0,0,0,.24c0,.14,0,.29,0,.44a17.16,17.16,0,0,0,17,16.41h.79a17.42,17.42,0,0,0,7.74-2.11c.48-.27.94-.55,1.39-.86a17.15,17.15,0,0,0,1.45-1.09,16.83,16.83,0,0,0,1.76-1.72,15.24,15.24,0,0,0,1.32-1.68,16.84,16.84,0,0,0,3-9.63A17.17,17.17,0,0,0,235.93,519.7Zm-9.16,26.16v-9.14a2.52,2.52,0,0,1,1.17-2.14c-.14-2.87-.2-5.92,1.08-8.27a7.83,7.83,0,0,1,13.93.2,7.78,7.78,0,0,1,.79,3c0,.21,0,.42,0,.63a1.6,1.6,0,0,1-1.61,1.3,1.64,1.64,0,0,1-1.56-1.08v0c0-.15,0-.3-.07-.44-.43-2.59-1.64-4.64-4.7-4.57-4.54.12-4.85,4.8-4.71,8.82h11.41a2.56,2.56,0,0,1,2.57,2.55v9.14a2.56,2.56,0,0,1-2.57,2.55H229.33A2.55,2.55,0,0,1,226.77,545.86Zm21.57-18.6a.76.76,0,0,1,.51,1.32L246,531.15a.8.8,0,0,1-.52.19A.76.76,0,0,1,245,530l2.87-2.57A.78.78,0,0,1,248.34,527.26Zm-2.33,6.4a.76.76,0,0,1-.08-1.52l4.48-.46h.08a.76.76,0,0,1,.76.68.77.77,0,0,1-.68.84l-4.48.46Z" transform="translate(-156.09 -68.09)"/><path class="cls-1" d="M235.94,536.37a3.16,3.16,0,0,0-3.18,3.15,3.13,3.13,0,0,0,1.32,2.55.13.13,0,0,0,0,.06v2.23a1.87,1.87,0,0,0,3.73,0v-2.29a3.13,3.13,0,0,0,1.32-2.55A3.17,3.17,0,0,0,235.94,536.37Z" transform="translate(-156.09 -68.09)"/><path class="cls-6" d="M255.21,409.73a19,19,0,0,1-5.77,13.62,19.31,19.31,0,0,1-32.78-13.62,19,19,0,0,1,5.52-13.39,19.32,19.32,0,0,1,33,13.39Z" transform="translate(-156.09 -68.09)"/><path class="cls-1" d="M235.93,392.64a17.25,17.25,0,0,0-13.68,6.7l-.23.3-.33.46c-.3.44-.59.89-.85,1.36a16.89,16.89,0,0,0-2.15,8.27,1.77,1.77,0,0,0,0,.23c0,.15,0,.3,0,.44a17.17,17.17,0,0,0,17,16.42h.79a17.29,17.29,0,0,0,7.74-2.11,16.1,16.1,0,0,0,1.39-.85,17.26,17.26,0,0,0,1.45-1.1,16.74,16.74,0,0,0,1.76-1.71,16.24,16.24,0,0,0,1.32-1.68,16.84,16.84,0,0,0,3-9.63A17.17,17.17,0,0,0,235.93,392.64Zm4.85,18.25a1.15,1.15,0,0,0-.76-.29,1,1,0,0,0-1.08,1v1.14h-6V411.6a1,1,0,0,0-.31-.71,1.17,1.17,0,0,0-.76-.29,1,1,0,0,0-1.08,1v1.14h-2.4a2.89,2.89,0,0,1-1.11-.22v-7.6a2.37,2.37,0,0,1,2.44-2.3h12.47a2.38,2.38,0,0,1,2.45,2.3v7.61a3.18,3.18,0,0,1-1.12.21h-2.4V411.6A1,1,0,0,0,240.78,410.89Zm-12.85,10.4v-7.71a2.49,2.49,0,0,0,1,.22h1.78v.7a1.08,1.08,0,0,0,2.16,0v-.7h6v.7a1.08,1.08,0,0,0,2.15,0v-.7h1.78a2.57,2.57,0,0,0,1-.22v7.71a2.27,2.27,0,0,1-2.25,2.29H230.18A2.26,2.26,0,0,1,227.93,421.29Zm18.16-20.52a1.59,1.59,0,0,1-2.38,1.37l-.68-.4H228.84l-.69.39a1.59,1.59,0,0,1-2.38-1.36v-2.38a1.58,1.58,0,0,1,2.38-1.36l.69.39H243l.68-.39a1.58,1.58,0,0,1,2.38,1.36Z" transform="translate(-156.09 -68.09)"/><path class="cls-6" d="M255.21,494.34A19,19,0,0,1,249.44,508a19.31,19.31,0,0,1-32.78-13.63A19,19,0,0,1,222.18,481a19.31,19.31,0,0,1,33,13.38Z" transform="translate(-156.09 -68.09)"/><path class="cls-1" d="M235.93,477.26a17.2,17.2,0,0,0-9.71,3,16.76,16.76,0,0,0-4,3.73l-.23.3-.33.45c-.3.44-.59.9-.85,1.37a16.85,16.85,0,0,0-2.15,8.26,1.93,1.93,0,0,0,0,.24c0,.14,0,.29,0,.44a17.16,17.16,0,0,0,17,16.41h.79a17.3,17.3,0,0,0,7.74-2.12,15.19,15.19,0,0,0,1.39-.85,17.15,17.15,0,0,0,1.45-1.09,16.83,16.83,0,0,0,1.76-1.72,15.24,15.24,0,0,0,1.32-1.68,16.84,16.84,0,0,0,3-9.63A17.16,17.16,0,0,0,235.93,477.26Zm9.59,23.36c0,4.9-4.3,8.86-9.58,8.86s-9.59-4-9.59-8.89V486a1.57,1.57,0,0,1,1.58-1.57,1.62,1.62,0,0,1,1.12.46,1.6,1.6,0,0,1,.46,1.11v8.19a.37.37,0,1,0,.73,0V482.71a1.57,1.57,0,0,1,1.58-1.56,1.55,1.55,0,0,1,1.58,1.56v10.51a.37.37,0,0,0,.73,0V480.77a1.56,1.56,0,0,1,1.58-1.56,1.55,1.55,0,0,1,1.58,1.56v12.45a.37.37,0,0,0,.73,0V482.71a1.57,1.57,0,0,1,1.58-1.56,1.55,1.55,0,0,1,1.58,1.56v17.93a.37.37,0,0,0,.73,0v-6.42a1.79,1.79,0,0,1,.53-1.27,1.83,1.83,0,0,1,1.28-.52,1.79,1.79,0,0,1,1.8,1.79Z" transform="translate(-156.09 -68.09)"/><text class="cls-18" transform="translate(119.34 348.65)"><tspan xml:space="preserve">-  inventory</tspan><tspan x="0" y="42.5">- undo</tspan><tspan x="0" y="85">- use item</tspan><tspan x="0" y="127.5">- unlo</tspan><tspan class="cls-19" x="58.99" y="127.5">c</tspan><tspan x="69.11" y="127.5">k</tspan></text></g></svg>