<svg id="Layer_290_copy_3" data-name="Layer 290 copy 3" xmlns="http://www.w3.org/2000/svg" viewBox="0 0 59.39 59.39"><defs><style>.cls-1{fill:#fff;}.cls-2{fill:#fbb03b;}.cls-3{fill:#ffdcac;}</style></defs><title>GridSquare</title><polygon class="cls-1" points="59.31 59.31 59.24 59.39 1.91 59.38 0.11 59.38 0.08 59.35 0.07 59.35 0.04 59.31 4.94 54.41 29.67 29.67 29.71 29.71 29.9 29.9 54.41 54.41 59.31 59.31"/><polygon class="cls-1" points="59.39 0.11 59.39 59.24 59.31 59.31 54.41 54.41 29.9 29.9 29.71 29.71 29.67 29.67 54.49 4.86 59.31 0.03 59.32 0.03 59.35 0.07 59.39 0.11"/><polygon class="cls-1" points="29.72 29.71 0.07 0.07 0.15 0 59.28 0 59.35 0.08 29.72 29.71"/><polygon class="cls-1" points="29.71 29.71 0.07 59.35 0 59.28 0 0.15 0.08 0.07 29.71 29.71"/><rect class="cls-2" x="4.94" y="4.86" width="49.55" height="49.55"/><polygon class="cls-3" points="54.49 5.31 54.49 54.41 5.4 54.41 29.9 29.9 54.49 5.31"/></svg>