<svg id="BridgeVertTop" xmlns="http://www.w3.org/2000/svg" viewBox="0 0 338.83 520.94"><defs><style>.cls-1{fill:#af8433;}.cls-2{fill:#2800be;opacity:0.3;}.cls-3{fill:none;stroke:#755e47;stroke-miterlimit:10;stroke-width:5px;}.cls-4{fill:#755e47;}.cls-5{fill:#fff;}</style></defs><title>BridgeVertTop</title><path class="cls-1" d="M4393.71,2465.87h317.34c5.93,0,10.74-7.4,10.74-16.52V2320.58c0-9.12-4.81-16.51-10.74-16.51H4393.71c-5.94,0-10.75,7.39-10.75,16.51v128.77C4383,2458.47,4387.77,2465.87,4393.71,2465.87Z" transform="translate(-4382.96 -1944.93)"/><path class="cls-2" d="M4393.71,2465.87h317.34c5.93,0,10.74-7.4,10.74-16.52V2320.58c0-9.12-4.81-16.51-10.74-16.51H4393.71c-5.94,0-10.75,7.39-10.75,16.51v128.77C4383,2458.47,4387.77,2465.87,4393.71,2465.87Z" transform="translate(-4382.96 -1944.93)"/><path class="cls-1" d="M4393.71,2414.15h317.34c5.93,0,10.74-7.49,10.74-16.72V2267c0-9.23-4.81-16.72-10.74-16.72H4393.71c-5.94,0-10.75,7.49-10.75,16.72v130.47C4383,2406.66,4387.77,2414.15,4393.71,2414.15Z" transform="translate(-4382.96 -1944.93)"/><path class="cls-1" d="M4393.71,2250.24h317.35c5.93,0,10.73-7.5,10.73-16.73V2103.05c0-9.24-4.8-16.73-10.73-16.73H4393.71c-5.93,0-10.75,7.49-10.75,16.73v130.46C4383,2242.74,4387.78,2250.24,4393.71,2250.24Z" transform="translate(-4382.96 -1944.93)"/><line class="cls-3" x1="8.36" y1="304.8" x2="333.29" y2="305.82"/><line class="cls-3" x1="8.36" y1="468.72" x2="333.29" y2="469.74"/><path class="cls-4" d="M4431.36,2135.89c12.48,0,22.6-9,22.6-20V1965c0-11.06-10.12-20-22.6-20s-22.61,9-22.61,20v150.9C4408.75,2126.92,4418.87,2135.89,4431.36,2135.89Z" transform="translate(-4382.96 -1944.93)"/><path class="cls-4" d="M4673.4,2135.89c12.48,0,22.61-9,22.61-20V1965c0-11.06-10.13-20-22.61-20s-22.61,9-22.61,20v150.9C4650.79,2126.92,4660.92,2135.89,4673.4,2135.89Z" transform="translate(-4382.96 -1944.93)"/><path class="cls-5" d="M4421.36,1982.37v348.51c0,16.07-.61,32.27,0,48.33,0,.23,0,.46,0,.69,0,12.87,20,12.89,20,0V2031.39c0-16.06.61-32.27,0-48.33,0-.23,0-.46,0-.69,0-12.87-20-12.89-20,0Z" transform="translate(-4382.96 -1944.93)"/><path class="cls-5" d="M4663.4,1982.37v348.51c0,16.07-.61,32.27,0,48.33,0,.23,0,.46,0,.69,0,12.87,20,12.89,20,0V2031.39c0-16.06.61-32.27,0-48.33,0-.23,0-.46,0-.69,0-12.87-20-12.89-20,0Z" transform="translate(-4382.96 -1944.93)"/></svg>