<svg id="Bridge_Vert" data-name="Bridge Vert" xmlns="http://www.w3.org/2000/svg" viewBox="0 0 338.83 382.56"><defs><style>.cls-1{fill:#af8433;}.cls-2{fill:#2800be;opacity:0.3;}.cls-3{fill:none;stroke:#755e47;stroke-miterlimit:10;stroke-width:5px;}</style></defs><title>BridgeVertMid</title><path class="cls-1" d="M4393.71,2795.84h317.34c5.93,0,10.74-7.39,10.74-16.51V2650.55c0-9.12-4.81-16.51-10.74-16.51H4393.71c-5.94,0-10.75,7.39-10.75,16.51v128.78C4383,2788.45,4387.77,2795.84,4393.71,2795.84Z" transform="translate(-4382.96 -2413.28)"/><path class="cls-2" d="M4393.71,2795.84h317.34c5.93,0,10.74-7.39,10.74-16.51V2650.55c0-9.12-4.81-16.51-10.74-16.51H4393.71c-5.94,0-10.75,7.39-10.75,16.51v128.78C4383,2788.45,4387.77,2795.84,4393.71,2795.84Z" transform="translate(-4382.96 -2413.28)"/><path class="cls-1" d="M4393.71,2744.13h317.34c5.93,0,10.74-7.49,10.74-16.73V2596.94c0-9.24-4.81-16.73-10.74-16.73H4393.71c-5.94,0-10.75,7.49-10.75,16.73V2727.4C4383,2736.64,4387.77,2744.13,4393.71,2744.13Z" transform="translate(-4382.96 -2413.28)"/><path class="cls-1" d="M4393.71,2580.22h317.35c5.93,0,10.73-7.5,10.73-16.74V2433c0-9.24-4.8-16.74-10.73-16.74H4393.71c-5.93,0-10.75,7.5-10.75,16.74v130.45C4383,2572.72,4387.78,2580.22,4393.71,2580.22Z" transform="translate(-4382.96 -2413.28)"/><line class="cls-3" x1="8.36" y1="166.42" x2="333.29" y2="167.44"/><line class="cls-3" x1="8.36" y1="2.5" x2="333.29" y2="3.52"/><line class="cls-3" x1="8.36" y1="330.34" x2="333.29" y2="331.36"/></svg>