<svg id="Bridge_Horiz" data-name="Bridge Horiz" xmlns="http://www.w3.org/2000/svg" viewBox="0 0 333.86 380.28"><defs><style>.cls-1{fill:#af8433;}.cls-2,.cls-5{fill:none;stroke-miterlimit:10;}.cls-2{stroke:#755e47;stroke-width:5px;}.cls-3{fill:#836326;}.cls-4{fill:#f3d7a1;}.cls-5{stroke:#836326;stroke-width:4px;}.cls-6{fill:#2800be;opacity:0.3;}</style></defs><title>BridgeHorizMid</title><path class="cls-1" d="M3605.15,2420.06v327.73c0,6.12,7.49,11.09,16.73,11.09h130.46c9.24,0,16.73-5,16.73-11.09V2420.06c0-6.13-7.49-11.1-16.73-11.1H3621.88C3612.64,2409,3605.15,2413.93,3605.15,2420.06Z" transform="translate(-3602.14 -2408.96)"/><path class="cls-1" d="M3769.06,2420.06v327.73c0,6.13,7.5,11.09,16.73,11.09h130.46c9.24,0,16.74-5,16.74-11.09V2420.06c0-6.12-7.5-11.1-16.74-11.1H3785.79C3776.56,2409,3769.06,2413.94,3769.06,2420.06Z" transform="translate(-3602.14 -2408.96)"/><line class="cls-2" x1="167.44" y1="8.36" x2="166.42" y2="333.29"/><line class="cls-2" x1="331.36" y1="8.36" x2="330.34" y2="333.29"/><rect class="cls-3" x="3604.64" y="2735.42" width="164.93" height="53.82" rx="11.56" transform="translate(3772.08 3115.7) rotate(180)"/><rect class="cls-4" x="3609.74" y="2738.18" width="154.74" height="48.3" rx="11.56" transform="translate(3772.08 3115.7) rotate(180)"/><rect class="cls-3" x="3768.56" y="2735.43" width="164.93" height="53.82" rx="11.56" transform="translate(4099.91 3115.71) rotate(180)"/><rect class="cls-4" x="3773.65" y="2738.19" width="154.74" height="48.3" rx="11.56" transform="translate(4099.91 3115.71) rotate(180)"/><rect class="cls-5" x="3792.82" y="2747.13" width="116.41" height="30.42" rx="11.36" transform="translate(4099.91 3115.71) rotate(180)"/><path class="cls-3" d="M3864,2759.33h-26c-3.86,0-3.87,6,0,6h26c3.86,0,3.86-6,0-6Z" transform="translate(-3602.14 -2408.96)"/><rect class="cls-5" x="3628.9" y="2747.12" width="116.41" height="30.42" rx="11.36" transform="translate(3772.08 3115.7) rotate(180)"/><path class="cls-3" d="M3700.1,2759.33h-26c-3.86,0-3.86,6,0,6h26c3.86,0,3.87-6,0-6Z" transform="translate(-3602.14 -2408.96)"/><rect class="cls-6" x="3768.56" y="2735.43" width="164.93" height="53.82" rx="11.56" transform="translate(4099.91 3115.71) rotate(180)"/><rect class="cls-6" x="3604.64" y="2735.42" width="164.93" height="53.82" rx="11.56" transform="translate(3772.08 3115.7) rotate(180)"/><line class="cls-2" x1="3.52" y1="8.36" x2="2.5" y2="333.29"/></svg>