<svg id="BridgeHorizLeft" xmlns="http://www.w3.org/2000/svg" viewBox="0 0 331.36 552.15"><defs><style>.cls-1{fill:#af8433;}.cls-2,.cls-5{fill:none;stroke-miterlimit:10;}.cls-2{stroke:#755e47;stroke-width:5px;}.cls-3{fill:#836326;}.cls-4{fill:#f3d7a1;}.cls-5{stroke:#836326;stroke-width:4px;}.cls-6{fill:#2800be;opacity:0.3;}.cls-7{fill:#fff;}.cls-8{fill:#755e47;}</style></defs><title>BridgeHorizEnd</title><path class="cls-1" d="M3281.39,2420.06v327.73c0,6.12,7.49,11.09,16.73,11.09h130.46c9.24,0,16.73-5,16.73-11.09V2420.06c0-6.13-7.49-11.1-16.73-11.1H3298.12C3288.88,2409,3281.39,2413.93,3281.39,2420.06Z" transform="translate(-3280.88 -2237.1)"/><path class="cls-1" d="M3445.3,2420.06v327.73c0,6.13,7.5,11.09,16.73,11.09h130.46c9.24,0,16.74-5,16.74-11.09V2420.06c0-6.12-7.5-11.1-16.74-11.1H3462C3452.8,2409,3445.3,2413.94,3445.3,2420.06Z" transform="translate(-3280.88 -2237.1)"/><line class="cls-2" x1="164.93" y1="180.23" x2="163.92" y2="505.16"/><line class="cls-2" x1="328.86" y1="180.23" x2="327.84" y2="505.16"/><rect class="cls-3" x="3280.88" y="2735.42" width="164.93" height="53.82" rx="11.56" transform="translate(3445.82 3287.57) rotate(180)"/><rect class="cls-4" x="3285.98" y="2738.18" width="154.74" height="48.3" rx="11.56" transform="translate(3445.82 3287.57) rotate(180)"/><rect class="cls-3" x="3444.8" y="2735.43" width="164.93" height="53.82" rx="11.56" transform="translate(3773.65 3287.57) rotate(180)"/><rect class="cls-4" x="3449.89" y="2738.19" width="154.74" height="48.3" rx="11.56" transform="translate(3773.65 3287.57) rotate(180)"/><rect class="cls-5" x="3469.06" y="2747.13" width="116.41" height="30.42" rx="11.36" transform="translate(3773.65 3287.57) rotate(180)"/><path class="cls-3" d="M3540.26,2759.33h-26c-3.86,0-3.87,6,0,6h26c3.86,0,3.86-6,0-6Z" transform="translate(-3280.88 -2237.1)"/><rect class="cls-5" x="3305.14" y="2747.12" width="116.41" height="30.42" rx="11.36" transform="translate(3445.82 3287.57) rotate(180)"/><path class="cls-3" d="M3376.34,2759.33h-26c-3.86,0-3.86,6,0,6h26c3.86,0,3.87-6,0-6Z" transform="translate(-3280.88 -2237.1)"/><rect class="cls-6" x="3444.8" y="2735.43" width="164.93" height="53.82" rx="11.56" transform="translate(3773.65 3287.57) rotate(180)"/><rect class="cls-6" x="3280.88" y="2735.42" width="164.93" height="53.82" rx="11.56" transform="translate(3445.82 3287.57) rotate(180)"/><path class="cls-7" d="M3318.11,2526a283.43,283.43,0,0,0,53.18,100.87c37.41,45.75,90,78.36,147.31,92.43a282.68,282.68,0,0,0,60.1,8.08c12.88.32,12.87-19.68,0-20a240.37,240.37,0,0,1-46.47-5.47,260.74,260.74,0,0,1-71.89-26.6c-45.85-25.32-82.64-64.36-106-111.13q-3.48-7-6.57-14.15c-.82-1.88-.16-.32-.72-1.69-.41-1-.83-2-1.23-3.06-.82-2.06-1.61-4.12-2.38-6.2q-3.35-9.08-6-18.4c-3.54-12.35-22.84-7.1-19.28,5.32Z" transform="translate(-3280.88 -2237.1)"/><path class="cls-8" d="M3327.75,2717.37a22.6,22.6,0,0,1-22.61-22.6V2524.49a22.61,22.61,0,1,1,45.21,0v170.28A22.6,22.6,0,0,1,3327.75,2717.37Z" transform="translate(-3280.88 -2237.1)"/><path class="cls-8" d="M3331.64,2452.58A22.6,22.6,0,0,1,3309,2430V2259.7a22.61,22.61,0,0,1,45.21,0V2430A22.6,22.6,0,0,1,3331.64,2452.58Z" transform="translate(-3280.88 -2237.1)"/><path class="cls-7" d="M3322,2261.2a283.21,283.21,0,0,0,53.19,100.87c37.4,45.76,90,78.36,147.3,92.43a282.12,282.12,0,0,0,60.1,8.08c12.88.32,12.87-19.68,0-20a239.59,239.59,0,0,1-46.47-5.47,256.23,256.23,0,0,1-177.91-137.73c-2.33-4.65-4.51-9.37-6.58-14.15-.82-1.87-.16-.32-.72-1.69-.41-1-.83-2-1.23-3.06-.82-2.06-1.61-4.12-2.38-6.2q-3.35-9.08-6-18.4c-3.54-12.35-22.84-7.1-19.28,5.32Z" transform="translate(-3280.88 -2237.1)"/></svg>