<svg id="BridgeVertBot" xmlns="http://www.w3.org/2000/svg" viewBox="0 0 338.83 383.06"><defs><style>.cls-1{fill:#af8433;}.cls-2{fill:#2800be;opacity:0.3;}.cls-3{fill:none;stroke:#755e47;stroke-miterlimit:10;stroke-width:5px;}.cls-4{fill:#fff;}.cls-5{fill:#755e47;}</style></defs><title>BridgeCapDown</title><path class="cls-1" d="M4395.12,3126h317.34c5.93,0,10.74-7.39,10.74-16.51V2980.74c0-9.12-4.81-16.51-10.74-16.51H4395.12c-5.94,0-10.75,7.39-10.75,16.51v128.78C4384.37,3118.64,4389.18,3126,4395.12,3126Z" transform="translate(-4384.37 -2742.97)"/><path class="cls-2" d="M4395.12,3126h317.34c5.93,0,10.74-7.39,10.74-16.51V2980.74c0-9.12-4.81-16.51-10.74-16.51H4395.12c-5.94,0-10.75,7.39-10.75,16.51v128.78C4384.37,3118.64,4389.18,3126,4395.12,3126Z" transform="translate(-4384.37 -2742.97)"/><path class="cls-1" d="M4395.12,3074.31h317.34c5.93,0,10.74-7.48,10.74-16.72V2927.13c0-9.24-4.81-16.73-10.74-16.73H4395.12c-5.94,0-10.75,7.49-10.75,16.73v130.46C4384.37,3066.83,4389.18,3074.31,4395.12,3074.31Z" transform="translate(-4384.37 -2742.97)"/><path class="cls-1" d="M4395.12,2910.41h317.35c5.93,0,10.73-7.5,10.73-16.74V2763.21c0-9.23-4.8-16.73-10.73-16.73H4395.12c-5.93,0-10.75,7.5-10.75,16.73v130.46C4384.37,2902.91,4389.19,2910.41,4395.12,2910.41Z" transform="translate(-4384.37 -2742.97)"/><line class="cls-3" x1="8.36" y1="166.92" x2="333.29" y2="167.94"/><line class="cls-3" x1="8.36" y1="2.5" x2="333.29" y2="3.52"/><path class="cls-4" d="M4422.77,2772.14v267.93c0,12.86,20,12.89,20,0V2772.14c0-12.87-20-12.89-20,0Z" transform="translate(-4384.37 -2742.97)"/><path class="cls-4" d="M4664.81,2772.14v267.93c0,12.86,20,12.89,20,0V2772.14c0-12.87-20-12.89-20,0Z" transform="translate(-4384.37 -2742.97)"/><path class="cls-5" d="M4432.77,3052.23c12.48,0,22.6-9,22.6-20V2881.31c0-11.07-10.12-20-22.6-20s-22.61,9-22.61,20V3032.2C4410.16,3043.27,4420.28,3052.23,4432.77,3052.23Z" transform="translate(-4384.37 -2742.97)"/><path class="cls-5" d="M4674.81,3052.23c12.48,0,22.6-9,22.6-20V2881.31c0-11.07-10.12-20-22.6-20s-22.61,9-22.61,20V3032.2C4652.2,3043.27,4662.32,3052.23,4674.81,3052.23Z" transform="translate(-4384.37 -2742.97)"/></svg>