<svg id="StairsDown" xmlns="http://www.w3.org/2000/svg" viewBox="0 0 331.71 328.54"><defs><style>.cls-1{fill:#af8433;}.cls-2{fill:#2800be;opacity:0.3;}</style></defs><title>StairsDown</title><path class="cls-1" d="M3593.11,2276.53h310.67c5.81,0,10.52-5,10.52-11.17V2178.2c0-6.18-4.71-11.18-10.52-11.18H3593.11c-5.81,0-10.52,5-10.52,11.18v87.16C3582.59,2271.53,3587.3,2276.53,3593.11,2276.53Z" transform="translate(-3582.59 -1947.99)"/><path class="cls-1" d="M3914.3,2068.68v87.16c0,6.17-4.7,11.18-10.51,11.18H3593.12c-5.81,0-10.53-5-10.53-11.18v-87.16c0-6.17,4.72-11.18,10.53-11.18h310.67C3909.6,2057.5,3914.3,2062.51,3914.3,2068.68Z" transform="translate(-3582.59 -1947.99)"/><path class="cls-1" d="M3593.11,2057.5h310.67c5.81,0,10.52-5,10.52-11.17v-87.17c0-6.17-4.71-11.17-10.52-11.17H3593.11c-5.81,0-10.52,5-10.52,11.17v87.17C3582.59,2052.5,3587.3,2057.5,3593.11,2057.5Z" transform="translate(-3582.59 -1947.99)"/><path class="cls-2" d="M3914.3,2155.83v-39.72H3582.59v39.72c0,6.17,4.72,11.18,10.53,11.18h310.67C3909.6,2167,3914.3,2162,3914.3,2155.83Z" transform="translate(-3582.59 -1947.99)"/><path class="cls-2" d="M3914.3,2046.31v-39.72H3582.59v39.72c0,6.17,4.72,11.18,10.53,11.18h310.67C3909.6,2057.49,3914.3,2052.48,3914.3,2046.31Z" transform="translate(-3582.59 -1947.99)"/><path class="cls-2" d="M3914.3,2265.35v-39.72H3582.59v39.72c0,6.17,4.72,11.18,10.53,11.18h310.67C3909.6,2276.53,3914.3,2271.52,3914.3,2265.35Z" transform="translate(-3582.59 -1947.99)"/></svg>