<svg id="StairsLeft" xmlns="http://www.w3.org/2000/svg" viewBox="0 0 329.22 490.95"><defs><style>.cls-1{fill:#af8433;}.cls-2{fill:#2800be;opacity:0.3;}.cls-3{fill:#836326;}.cls-4{fill:#f3d7a1;}.cls-5{fill:none;stroke:#836326;stroke-miterlimit:10;stroke-width:4px;}</style></defs><title>StairsSide</title><rect class="cls-1" x="0.34" y="107.89" width="109.51" height="352.48" rx="11.18"/><path class="cls-2" d="M3043.39,1928.38V2269h54.76V1939.56a11.19,11.19,0,0,0-11.18-11.18Z" transform="translate(-2988.3 -1820.49)"/><rect class="cls-3" x="2988.3" y="2257.23" width="110.19" height="54.21" rx="11.56" transform="translate(3098.49 2748.18) rotate(180)"/><rect class="cls-4" x="2991.7" y="2260.01" width="103.38" height="48.65" rx="11.56" transform="translate(3098.49 2748.18) rotate(180)"/><path class="cls-1" d="M3098.15,1885.35v330.13a11.18,11.18,0,0,0,11.18,11.17h87.16a11.18,11.18,0,0,0,11.18-11.17V1885.35a11.19,11.19,0,0,0-11.18-11.18h-87.16A11.19,11.19,0,0,0,3098.15,1885.35Z" transform="translate(-2988.3 -1820.49)"/><path class="cls-2" d="M3152.91,1874.17v340.64h54.76V1885.35a11.19,11.19,0,0,0-11.18-11.18Z" transform="translate(-2988.3 -1820.49)"/><rect class="cls-3" x="3097.81" y="2203.02" width="110.19" height="54.21" rx="11.56" transform="translate(3317.52 2639.77) rotate(180)"/><rect class="cls-4" x="3101.22" y="2205.8" width="103.38" height="48.65" rx="11.56" transform="translate(3317.52 2639.77) rotate(180)"/><rect class="cls-1" x="219.36" width="109.51" height="352.48" rx="11.18"/><path class="cls-2" d="M3262.42,1820.49v340.64h54.76V1831.67a11.19,11.19,0,0,0-11.18-11.18Z" transform="translate(-2988.3 -1820.49)"/><rect class="cls-3" x="3207.32" y="2149.34" width="110.19" height="54.21" rx="11.56" transform="translate(3536.54 2532.4) rotate(180)"/><rect class="cls-4" x="3210.73" y="2152.12" width="103.38" height="48.65" rx="11.56" transform="translate(3536.54 2532.4) rotate(180)"/><rect class="cls-5" x="3223.53" y="2161.12" width="77.77" height="30.64" rx="11.36" transform="translate(3536.54 2532.4) rotate(180)"/><path class="cls-3" d="M3271.1,2173.44h-17.36c-3.86,0-3.87,6,0,6h17.36c3.86,0,3.87-6,0-6Z" transform="translate(-2988.3 -1820.49)"/><rect class="cls-5" x="3114.02" y="2214.81" width="77.77" height="30.64" rx="11.36" transform="translate(3317.52 2639.77) rotate(180)"/><path class="cls-3" d="M3161.59,2227.13h-17.36c-3.86,0-3.87,6,0,6h17.36c3.86,0,3.87-6,0-6Z" transform="translate(-2988.3 -1820.49)"/><rect class="cls-5" x="3004.51" y="2269.01" width="77.77" height="30.64" rx="11.36" transform="translate(3098.49 2748.18) rotate(180)"/><path class="cls-3" d="M3052.08,2281.33h-17.37c-3.86,0-3.86,6,0,6h17.37c3.86,0,3.86-6,0-6Z" transform="translate(-2988.3 -1820.49)"/><rect class="cls-2" x="3207.32" y="2149.34" width="110.19" height="54.21" rx="11.56" transform="translate(3536.54 2532.4) rotate(180)"/><rect class="cls-2" x="3097.81" y="2203.02" width="110.19" height="54.21" rx="11.56" transform="translate(3317.52 2639.77) rotate(180)"/><rect class="cls-2" x="2988.3" y="2257.23" width="110.19" height="54.21" rx="11.56" transform="translate(3098.49 2748.18) rotate(180)"/></svg>