<svg xmlns="http://www.w3.org/2000/svg" viewBox="0 0 310.98 310.98"><defs><style>.cls-1{fill:#58595b;}.cls-2{fill:#6d6e71;}.cls-3{fill:#939598;}.cls-4{fill:#a7a9ac;}</style></defs><title>Spike-normal</title><g id="SpikeTile2"><g id="Plate"><path class="cls-1" d="M468.93,254.19a45.23,45.23,0,0,0-42.53-29.88H205.8c-1.22,0-2.43.05-3.63.14s-2.39.24-3.56.43a44.28,44.28,0,0,0-5.16,1.14c-1.12.32-2.22.68-3.31,1.08-.54.2-1.08.41-1.61.63a45.09,45.09,0,0,0-10.71,6.3l-.45.36c-.45.37-.9.74-1.34,1.13l-.27.24a41.78,41.78,0,0,0-3.08,3h0a45.35,45.35,0,0,0-8.29,12.64l-.23.54-.36.86c-.2.51-.38,1-.51,1.36a44.93,44.93,0,0,0-2.67,15.32V490.1a45.21,45.21,0,0,0,38.29,44.67,46.22,46.22,0,0,0,6.9.52H426.4c1.17,0,2.34,0,3.49-.13l1.76-.17,1.67-.23a45.2,45.2,0,0,0,38.27-44.66V269.51A45.17,45.17,0,0,0,468.93,254.19Z" transform="translate(-160.61 -224.31)"/><path class="cls-2" d="M468.94,254.45a45.24,45.24,0,0,0-42.54-29.88H205.81a45.15,45.15,0,0,0-45.19,45.2V490.36A45.21,45.21,0,0,0,198.91,535a7.47,7.47,0,0,0,.9-14.71h0s0,0,0,0l-.83-.19a31.12,31.12,0,0,1-23.74-30.24V339.47h7.66v-22h-7.66V270.24a30.69,30.69,0,0,1,.3-4.31c0-.29.08-.59.14-.88.11-.73.26-1.45.44-2.16.07-.33.16-.65.25-1s.17-.62.27-.93c0,0,0,0,0-.06.1-.33.21-.65.32-1a32.56,32.56,0,0,1,1.66-3.88c.13-.25.26-.5.4-.75s.33-.59.5-.88l.6-1c.27-.42.55-.84.84-1.24l.24-.33c.36-.49.73-1,1.12-1.45l.06-.07c.21-.25.43-.51.65-.75.44-.5.89-1,1.36-1.44.23-.24.47-.47.71-.69a31.36,31.36,0,0,1,4.76-3.66l.82-.49c.28-.17.57-.33.87-.49s.59-.31.89-.46q1.22-.61,2.49-1.11l.6-.23.62-.22.93-.31.12,0c.29-.1.59-.18.89-.26s.57-.16.86-.22a29.72,29.72,0,0,1,5.46-.83l.85,0,1.08,0H425.93l1.08,0,.85,0a30.57,30.57,0,0,1,6.32,1.05c.3.08.6.16.89.26l.12,0,.93.31.62.22.6.23a31,31,0,0,1,9.82,6.21l.68.65a32.16,32.16,0,0,1,3.46,4.08c.29.41.57.82.84,1.24l.6,1c.17.29.34.58.5.88s.27.5.4.75c.23.45.44.9.65,1.36s.45,1,.65,1.56q.19.48.36,1c.11.32.22.64.32,1,0,0,0,0,0,.06q.15.47.27.93c.09.32.18.64.25,1,.18.71.33,1.43.44,2.16.06.29.1.59.14.88a30.69,30.69,0,0,1,.3,4.31V489.88a31.12,31.12,0,0,1-23.72,30.23c-.79.19-1.6.36-2.42.49A7.41,7.41,0,0,0,433.32,535a45.2,45.2,0,0,0,38.28-44.66V269.77A45.17,45.17,0,0,0,468.94,254.45Z" transform="translate(-160.61 -224.31)"/><path class="cls-3" d="M456.74,265.93c0-.29-.08-.59-.14-.88-.11-.73-.26-1.45-.44-2.16-.08-.33-.16-.65-.25-1s-.17-.62-.27-.93c0,0,0,0,0-.06-.1-.33-.21-.65-.32-1s-.23-.64-.36-1c-.2-.53-.41-1.05-.65-1.56s-.42-.91-.65-1.36c-.13-.25-.26-.5-.4-.75s-.33-.59-.5-.88l-.6-1c-.27-.42-.55-.83-.84-1.24a32.16,32.16,0,0,0-3.46-4.08l-.68-.65a31,31,0,0,0-9.82-6.21l-.6-.23-.62-.22-.93-.31-.12,0c-.29-.1-.59-.18-.89-.26a30.57,30.57,0,0,0-6.32-1.05l-.85,0-1.08,0H206.29l-1.08,0-.85,0a29.72,29.72,0,0,0-5.46.83c-.29.06-.57.14-.86.22s-.6.16-.89.26l-.12,0-.93.31-.62.22-.6.23q-1.27.5-2.49,1.11c-.3.15-.6.3-.89.46s-.59.32-.87.49l-.82.49a31.36,31.36,0,0,0-4.76,3.66c-.24.22-.48.45-.71.69-.47.46-.92.94-1.36,1.44l-.65.75-.06.07c-.39.47-.76,1-1.12,1.45l-.24.33c-.29.41-.57.82-.84,1.24l-.6,1c-.17.29-.34.58-.5.88s-.27.5-.4.75a32.56,32.56,0,0,0-1.66,3.88c-.11.32-.22.64-.32,1,0,0,0,0,0,.06q-.15.47-.27.93c-.09.32-.17.64-.25,1-.18.71-.33,1.43-.44,2.16-.06.29-.1.59-.14.88a30.69,30.69,0,0,0-.3,4.31V489.88A31.08,31.08,0,0,0,206.29,521H425.93A31.11,31.11,0,0,0,457,489.88V270.24A30.69,30.69,0,0,0,456.74,265.93ZM235.46,329.32a30.26,30.26,0,1,1,30.25-30.26A30.26,30.26,0,0,1,235.46,329.32Zm0,165.36a30.26,30.26,0,1,1,30.25-30.25A30.25,30.25,0,0,1,235.46,494.68Zm80.64-84.36a30.26,30.26,0,1,1,30.26-30.25A30.26,30.26,0,0,1,316.1,410.32Zm80.65,84.36A30.26,30.26,0,1,1,427,464.43,30.25,30.25,0,0,1,396.75,494.68Zm0-165.36A30.26,30.26,0,1,1,427,299.06,30.25,30.25,0,0,1,396.75,329.32Z" transform="translate(-160.61 -224.31)"/><path class="cls-4" d="M468.94,254.45c-5.41-8.44-11.41-12.67-14.27-11.26-3.24,1.59-2.07,10.25-1.93,11.26-1.9-3-7.36-10.7-17.44-13.88a30.87,30.87,0,0,0-9.37-1.44H206.29a31.1,31.1,0,0,0-26.82,15.32c.19-3.76-.86-7.4-3.19-8.6-3.27-1.67-9.73,1.09-13,8.6A45.8,45.8,0,0,1,179.56,233a44.91,44.91,0,0,1,26.25-8.41H426.4A45.24,45.24,0,0,1,468.94,254.45Z" transform="translate(-160.61 -224.31)"/><path class="cls-4" d="M235.46,258.66a40.41,40.41,0,1,0,40.4,40.41A40.41,40.41,0,0,0,235.46,258.66Zm0,70.66a30.26,30.26,0,0,1-30.26-30.25h0a30.26,30.26,0,0,1,60.51,0h0A30.25,30.25,0,0,1,235.46,329.32Z" transform="translate(-160.61 -224.31)"/><path class="cls-2" d="M265.71,299.07h0a30.26,30.26,0,0,0-60.51,0H195.05a40.41,40.41,0,1,1,80.81,0Z" transform="translate(-160.61 -224.31)"/><path class="cls-4" d="M396.76,258.67a40.41,40.41,0,1,0,40.4,40.41A40.41,40.41,0,0,0,396.76,258.67Zm0,70.66a30.26,30.26,0,0,1-30.26-30.25h0a30.26,30.26,0,0,1,60.51,0h0A30.25,30.25,0,0,1,396.76,329.33Z" transform="translate(-160.61 -224.31)"/><path class="cls-2" d="M427,299.08h0a30.26,30.26,0,0,0-60.51,0H356.35a40.41,40.41,0,1,1,80.81,0Z" transform="translate(-160.61 -224.31)"/><path class="cls-4" d="M316.12,339.39a40.41,40.41,0,1,0,40.4,40.42A40.42,40.42,0,0,0,316.12,339.39Zm0,70.67a30.27,30.27,0,0,1-30.26-30.25h0a30.26,30.26,0,0,1,60.51,0h0A30.26,30.26,0,0,1,316.12,410.06Z" transform="translate(-160.61 -224.31)"/><path class="cls-2" d="M346.37,379.81h0a30.26,30.26,0,0,0-60.51,0H275.71a40.41,40.41,0,1,1,80.81,0Z" transform="translate(-160.61 -224.31)"/><path class="cls-4" d="M235.46,424a40.41,40.41,0,1,0,40.4,40.41A40.41,40.41,0,0,0,235.46,424Zm0,70.66a30.26,30.26,0,0,1-30.26-30.25h0a30.26,30.26,0,0,1,60.51,0h0A30.25,30.25,0,0,1,235.46,494.68Z" transform="translate(-160.61 -224.31)"/><path class="cls-2" d="M265.71,464.43h0a30.26,30.26,0,0,0-60.51,0H195.05a40.41,40.41,0,1,1,80.81,0Z" transform="translate(-160.61 -224.31)"/><path class="cls-4" d="M396.76,424a40.41,40.41,0,1,0,40.4,40.41A40.41,40.41,0,0,0,396.76,424Zm0,70.66a30.26,30.26,0,0,1-30.26-30.25h0a30.26,30.26,0,0,1,60.51,0h0A30.25,30.25,0,0,1,396.76,494.68Z" transform="translate(-160.61 -224.31)"/><path class="cls-2" d="M427,464.43h0a30.26,30.26,0,0,0-60.51,0H356.35a40.41,40.41,0,1,1,80.81,0Z" transform="translate(-160.61 -224.31)"/></g></g></svg>