<svg id="Landfill" xmlns="http://www.w3.org/2000/svg" viewBox="0 0 3141.86 2310"><defs><style>.cls-1{fill:#72768f;}.cls-2{fill:#666;}.cls-3{fill:#56596b;}.cls-4{fill:#393b48;}.cls-5{fill:#da99f1;}.cls-6{fill:#ae5bd1;}.cls-7{fill:#6b22aa;}.cls-8{fill:#8e2de3;}.cls-9{fill:#f6ffe2;}.cls-10{fill:#8028cc;}</style></defs><title>Landfill</title><g id="Hole_copy" data-name="Hole copy"><path class="cls-1" d="M-3021,6216.82V7444.76c0,137.65-203.12,249.24-453.63,249.24H-5709.28c-250.5,0-453.58-111.59-453.58-249.24V6216.82c0-135,195.37-245,439.24-249.14h0q7.14-.14,14.33-.13h2234.65a797.8,797.8,0,0,1,144.91,13C-3150.26,6013.77-3021,6107-3021,6216.82Z" transform="translate(6162.86 -5384)"/><path class="cls-2" d="M-3021,6468.46v976.3c0,137.65-203.12,249.24-453.63,249.24H-5709.28c-250.5,0-453.58-111.59-453.58-249.24v-976.3a142.21,142.21,0,0,1,6.93-43.65c15-46.6,53.53-88.74,108.63-122.54,83.05-51,203.72-83.05,338-83.05h2234.65c124.06,0,236.51,27.37,318.41,71.73C-3072.75,6336.14-3021,6399-3021,6468.46Z" transform="translate(6162.86 -5384)"/><path class="cls-3" d="M-3021,6720.09v724.67c0,137.65-203.12,249.24-453.63,249.24H-5709.28c-250.5,0-453.58-111.59-453.58-249.24V6720.09c0-57.36,35.26-110.18,94.51-152.3,37.3-26.52,84.12-48.79,137.65-65.27q7.29-2.25,14.74-4.35c62-17.46,132.24-27.32,206.68-27.32h2234.65c113.36,0,217,22.85,296.55,60.63,94.41,44.85,154.8,110.74,157,184.41C-3021,6717.29-3021,6718.69-3021,6720.09Z" transform="translate(6162.86 -5384)"/><path class="cls-4" d="M-3021,6971.76v473c0,137.65-203.12,249.24-453.63,249.24H-5709.28c-250.5,0-453.58-111.59-453.58-249.24v-473c0-43.54,20.31-84.47,56-120.07q9.27-9.27,19.91-18c24.7-20.37,54.71-38.62,88.94-54.16,61.85-28.08,137.46-47.33,220.45-54.21,22.27-1.85,45.07-2.81,68.28-2.81h2234.65q11.1,0,22.08.29,15.83.42,31.33,1.43s0,0,0,0q2.55.15,5.07.33,23,1.64,45.3,4.51,20.37,2.61,40,6.23a650.57,650.57,0,0,1,115.43,31.9c36.66,14,69.37,31,97,50.24,29.05,20.21,52.52,42.95,69.12,67.53C-3031,6912-3021,6941.23-3021,6971.76Z" transform="translate(6162.86 -5384)"/><path class="cls-5" d="M-3339.91,6133.12A263.38,263.38,0,0,0-3323,6040c0-145.8-118.2-264-264-264a263.81,263.81,0,0,0-223.54,123.51A264,264,0,0,0-4046,5755a265.15,265.15,0,0,0-56.38,6.05A262.86,262.86,0,0,0-4077,5648c0-145.8-118.2-264-264-264-132.43,0-242.07,97.51-261.08,224.64A262.74,262.74,0,0,0-4749,5564c-136.28,0-248.43,103.27-262.5,235.82A263.45,263.45,0,0,0-5215,5704c-139.1,0-253.07,107.58-263.25,244.07a263.68,263.68,0,0,0-27.33,18.39A224.4,224.4,0,0,0-5613.5,5939a225,225,0,0,0-172.28,80c-145,1-262.22,118.77-262.22,264,0,145.8,118.2,264,264,264,112.79,0,209-70.74,246.86-170.27q7.23-2.59,14.23-5.68A263,263,0,0,0-5345,6440c109.27,0,203-66.39,243.16-161A263.44,263.44,0,0,0-4899,6374c145.8,0,264-118.2,264-264a266,266,0,0,0-3.38-42.24,264.45,264.45,0,0,0,38-21.54C-4577.34,6168.5-4470,6261-4341,6261a262.87,262.87,0,0,0,124.5-31.15c24.87,120,131.15,210.15,258.5,210.15,111.75,0,207.28-69.44,245.81-167.52a262.2,262.2,0,0,0,64.1,24.4A263.38,263.38,0,0,0-3665,6390c0,145.8,118.2,264,264,264s264-118.2,264-264C-3137,6265.23-3223.57,6160.68-3339.91,6133.12Z" transform="translate(6162.86 -5384)"/><path class="cls-6" d="M-3021,6516.84v340.33a270.81,270.81,0,0,1-28.28,27.78,274.34,274.34,0,0,1-32.4,23.63A281.71,281.71,0,0,1-3231.16,6951q-11.37,0-22.51-.88a269.51,269.51,0,0,1-48.26,49.89,358.37,358.37,0,0,1,4.12,88c-3.1,41.57-12.93,80.41-27.82,114.53-37.21,85.24-106,140.95-180.42,135.84a138.26,138.26,0,0,1-40.86-9.2c-55.67,41.6-127.9,62.75-203.4,53.54-97.27-11.86-176.16-71.19-214.69-150.68-56.29,79.58-156,126.64-262.17,113.7a285.54,285.54,0,0,1-57.44-13.11A253.11,253.11,0,0,1-4273.22,7448c-19.12,144.64-156.71,247-307.31,228.64-136.78-16.68-237.24-127.22-240.2-255.73a283.47,283.47,0,0,1-157.61,25.77c-85-10.36-156-57-198.25-121.67a138.64,138.64,0,0,1-39.94,3.09c-51.31-3.52-95.69-35.34-126.24-84.08a285.15,285.15,0,0,1-98.54,5.08c-114.19-13.93-203.07-93.27-231-193.87a287.65,287.65,0,0,1-34.22,2.73c-1.91,0-3.83.06-5.75.06-115.56,0-214.45-68.5-255.1-165.52a228,228,0,0,1-22.15-27.81,282.1,282.1,0,0,1-97.39-31q-8.84-4.74-17.23-10.06a271.82,271.82,0,0,1-58.68-50V6432.37c2.26-2.57,4.58-5.08,6.93-7.56a277.45,277.45,0,0,1,117.07-72.67,284.43,284.43,0,0,1,120.39-11,279.84,279.84,0,0,1,130.33,50.67c15.21-72.82,61.62-134.82,125.27-172.57A281.94,281.94,0,0,1-5518.65,6180a281.85,281.85,0,0,1,144.19,39.22,271.16,271.16,0,0,1,88.55,84.29,267.12,267.12,0,0,1,70.42-84.29c47.5-37.63,108.37-60.22,174.74-60.22a286.89,286.89,0,0,1,58.7,6.05A254.38,254.38,0,0,1-5008.47,6052a254.35,254.35,0,0,1,14.36-84.45c36.68-104.39,139.46-179.55,260.51-179.55s223.82,75.16,260.5,179.55a253.1,253.1,0,0,1,11.33,45.09,281.65,281.65,0,0,1,153-44.64c131.29,0,241.06,88.41,268.34,206.62a251.34,251.34,0,0,1,5,29.2,272.5,272.5,0,0,1,55.18-48.74A281.44,281.44,0,0,1-3823.6,6108c92.53,0,174.38,43.91,224.19,111.22a256.12,256.12,0,0,1,49.91,132.85,274.74,274.74,0,0,1,28.45,18.39A241.32,241.32,0,0,1-3408.68,6343c71.94,0,136.31,31.09,179.38,80a284.52,284.52,0,0,1,88,14.44A275.75,275.75,0,0,1-3021,6516.84Z" transform="translate(6162.86 -5384)"/><path class="cls-7" d="M-3021.07,6715.89c-35.19-36.5-78.12-61.83-125.29-71.59a214.81,214.81,0,0,0-43.64-4.47c-40.62,0-79.1,11.42-113.48,31.83q-2.05,1.2-4.1,2.48a255.83,255.83,0,0,0-27.6,19.8q-7.25,5.94-14.15,12.47a285.26,285.26,0,0,0-21.51,22.64,321.22,321.22,0,0,0-39,57.36s0,0,0,0c-1.26,2.35-2.49,4.71-3.7,7.1a346.89,346.89,0,0,0-30.55-58.44q-4.11-6.29-8.46-12.31c-42.76-59.26-102.59-99.06-169.86-107.43a307.69,307.69,0,0,0-25.87-32.87,277.48,277.48,0,0,0-37.33-34.45q3.24-19.29,4.64-39.36,1-13.91,1-28.13,0-4.86-.12-9.69a404.24,404.24,0,0,0-5.68-59.1,372.92,372.92,0,0,0-38.35-113.14c-16.27-30.42-36.53-57.26-59.82-79.39-44.4-42.18-99.87-67.22-160-67.22a215.05,215.05,0,0,0-36.3,3.08,222.1,222.1,0,0,0-60.15,19.54,255.36,255.36,0,0,0-63.57,44.6c-29.7,28.2-54.44,64.06-72.32,105.22a383,383,0,0,0-28.74,107.11c-42-35.07-92.54-55.55-146.92-55.55-72.33,0-137.87,36.2-185.55,94.85-42.15,51.83-70.34,121.22-76.95,198.62-26.56-40-60.58-72-99.39-92.7a222.49,222.49,0,0,0-71.2-24,213.6,213.6,0,0,0-32.91-2.54c-81.6,0-154.56,46.07-203,118.46q-3.92,5.84-7.59,11.9h0a344.74,344.74,0,0,0-21.7,41.89q-6.93,15.9-12.45,32.81a391.24,391.24,0,0,0-16.95,79.77c-.11,1-.2,1.9-.3,2.86a226.93,226.93,0,0,0-74.3-28.18,211.6,211.6,0,0,0-73.5-.66c-70.65,11.75-136.48,58.84-179.79,134.16-2.88.28-5.74.6-8.58,1a383.35,383.35,0,0,0-21.56-69.93c-24.46-58.47-63.25-108.37-114-140.62q-9.68-6.15-19.54-11.2a219.61,219.61,0,0,0-87.35-24.39h0q-6.26-.39-12.51-.4c-36.76-.07-73,9.45-106.42,27.6-48.28,26.24-90.56,70.53-119.61,130a214.61,214.61,0,0,0-32.7,4.92c-17.44-31.81-40.37-59.52-68.14-80.68q-7.52-5.76-15.49-10.82a196.56,196.56,0,0,0-63.28-26.46,181.7,181.7,0,0,0-86.08,1.91v700.62c0,137.65,203.08,249.24,453.58,249.24h2234.65c250.51,0,453.63-111.59,453.63-249.24V6716A.46.46,0,0,0-3021.07,6715.89Zm-1100.39,590.76q-4.56-7.39-9.45-14.47c2.58-1.6,5.16-3.23,7.7-4.93C-4122.79,7293.77-4122.19,7300.23-4121.46,7306.65Z" transform="translate(6162.86 -5384)"/><path class="cls-8" d="M-5929.65,6622.92l19.86-181-99.24,6.77,16.93,67.57-82.62,43.31,75.23,96.88c-112,77.12-141.33,230.2-65.29,343.35,76.58,114,231,144.24,345,67.66s144.24-231,67.67-345C-5714.38,6629.88-5828.08,6592.53-5929.65,6622.92Z" transform="translate(6162.86 -5384)"/><rect class="cls-9" x="-6033.42" y="6610.65" width="144.01" height="75.26" rx="37.63" transform="translate(3887.85 -6868.89) rotate(-17.5)"/><path class="cls-8" d="M-5397.12,6623.62l117.43-139.13-86.14-49.73-23.64,65.52-92.73-10.13,8.4,122.37c-136,1.55-245.7,112.22-245.7,248.55,0,137.29,111.29,248.58,248.58,248.58s248.59-111.29,248.59-248.58C-5222.33,6749.47-5295.86,6655.06-5397.12,6623.62Z" transform="translate(6162.86 -5384)"/><rect class="cls-9" x="-5509.63" y="6589.32" width="144.01" height="75.26" rx="37.63" transform="translate(7813.02 -3578.62) rotate(16.4)"/><path class="cls-8" d="M-5055.94,6790.1l161.2-84.62-61.05-78.53-46.58,51.79-82.08-44.33-38.33,116.51c-126.52-49.8-269.88,11.37-321.25,137.64-51.73,127.17,9.42,272.2,136.59,323.94s272.2-9.42,323.93-136.59C-4941.46,6972.54-4974,6857.37-5055.94,6790.1Z" transform="translate(6162.86 -5384)"/><rect class="cls-9" x="-5166.72" y="6740.29" width="144.01" height="75.26" rx="37.63" transform="translate(9276.19 -733.14) rotate(38.54)"/><path class="cls-8" d="M-5011.62,6852l-17.92-181.18-95.7,27.1,30.51,62.62-71.9,59.43,93.6,79.27c-93.65,98.57-90.78,254.41,7,349.43,98.45,95.69,255.83,93.46,351.52-5s93.46-255.83-5-351.52C-4799.55,6814.38-4918.51,6801.3-5011.62,6852Z" transform="translate(6162.86 -5384)"/><rect class="cls-9" x="-5109.47" y="6845.74" width="144.01" height="75.26" rx="37.63" transform="translate(2133.67 -6970.59) rotate(-29.41)"/><path class="cls-8" d="M-4732.09,6664.47l37-178.27-99.43-2.7,10.42,68.87-86.36,35.26,65.68,103.6c-118.81,66.12-162.59,215.71-97.65,335.58,65.39,120.71,216.26,165.56,337,100.16s165.56-216.26,100.16-337C-4518.45,6691.87-4628.08,6643.88-4732.09,6664.47Z" transform="translate(6162.86 -5384)"/><rect class="cls-9" x="-4838.12" y="6649.06" width="144.01" height="75.26" rx="37.63" transform="translate(4662.97 -6231.2) rotate(-12.04)"/><path class="cls-8" d="M-4275.57,6765.31l101.43-151.19-91.08-40-16.29,67.72-93.29.11,21.8,120.71c-135,16.48-231.89,138.54-216.91,274.05,15.09,136.46,137.94,234.85,274.4,219.76s234.85-137.94,219.77-274.4C-4088,6871.2-4171.47,6785.43-4275.57,6765.31Z" transform="translate(6162.86 -5384)"/><rect class="cls-9" x="-4387.47" y="6735.45" width="144.01" height="75.26" rx="37.63" transform="translate(7283.26 -4522.71) rotate(10.1)"/><path class="cls-8" d="M-4165.87,6682.05l-32.3-179.17-93.24,34.64,35.41,60-66.94,65,99.63,71.56c-85.5,105.72-70.21,260.83,34.81,347.76,105.76,87.53,262.46,72.76,350-33s72.76-262.47-33-350C-3957.47,6627.64-4077.09,6624.09-4165.87,6682.05Z" transform="translate(6162.86 -5384)"/><rect class="cls-9" x="-4261.13" y="6677.75" width="144.01" height="75.26" rx="37.63" transform="translate(1693.95 -6578.54) rotate(-33.98)"/><path class="cls-8" d="M-3655,6531.63l73.13-166.73-96.71-23.25-4.08,69.54-91.79,16.59,42.77,115c-129.93,40.06-203.76,177.32-165.08,308.05,39,131.64,177.25,206.79,308.9,167.84s206.79-177.26,167.84-308.91C-3451.71,6602.72-3549,6533-3655,6531.63Z" transform="translate(6162.86 -5384)"/><rect class="cls-9" x="-3764.92" y="6508.69" width="144.01" height="75.26" rx="37.63" transform="matrix(1, 0, 0, 1, 6153.85, -5389.07)"/><path class="cls-8" d="M-3229.32,6724.91-3098.75,6598l-80.83-58-30,62.88-91.28-19.23-3.7,122.61c-135.45-11.86-255.57,87.46-269,223.13-13.52,136.62,86.26,258.34,222.89,271.87s258.34-86.27,271.86-222.89C-3067.78,6867.37-3131.65,6766.17-3229.32,6724.91Z" transform="translate(6162.86 -5384)"/><rect class="cls-9" x="-3341.96" y="6686.61" width="144.01" height="75.26" rx="37.63" transform="translate(8448.78 -3663.78) rotate(22.06)"/><path class="cls-10" d="M-3255,6994.92l-19.86-181,99.24,6.77-16.93,67.57,82.62,43.31-75.23,96.88c112,77.12,141.33,230.2,65.29,343.35-76.58,114-231,144.24-345,67.66s-144.25-231-67.67-345C-3470.23,7001.88-3356.53,6964.53-3255,6994.92Z" transform="translate(6162.86 -5384)"/><rect class="cls-9" x="-3295.2" y="6982.65" width="144.01" height="75.26" rx="37.63" transform="translate(-2245.34 7362.46) rotate(-162.5)"/><path class="cls-10" d="M-3787.49,6995.62l-117.43-139.13,86.14-49.73,23.64,65.52,92.73-10.13-8.4,122.37c136,1.55,245.7,112.22,245.7,248.55,0,137.29-111.29,248.58-248.58,248.58s-248.59-111.29-248.59-248.58C-3962.28,7121.47-3888.75,7027.06-3787.49,6995.62Z" transform="translate(6162.86 -5384)"/><rect class="cls-9" x="-3818.99" y="6961.32" width="144.01" height="75.26" rx="37.63" transform="translate(797.97 9387.19) rotate(163.6)"/><path class="cls-10" d="M-4128.67,7162.1l-161.2-84.62,61.05-78.53,46.58,51.79,82.08-44.33,38.33,116.51c126.52-49.8,269.88,11.37,321.25,137.64,51.73,127.17-9.42,272.2-136.59,323.94s-272.2-9.42-323.93-136.59C-4243.15,7344.54-4210.62,7229.37-4128.67,7162.1Z" transform="translate(6162.86 -5384)"/><rect class="cls-9" x="-4161.9" y="7112.29" width="144.01" height="75.26" rx="37.63" transform="translate(3328.92 9906.64) rotate(141.46)"/><path class="cls-10" d="M-4173,7224l17.92-181.18,95.7,27.1-30.51,62.62L-4018,7192l-93.6,79.27c93.65,98.57,90.78,254.41-7,349.43-98.45,95.69-255.83,93.46-351.52-5s-93.46-255.83,5-351.52C-4385.06,7186.38-4266.1,7173.3-4173,7224Z" transform="translate(6162.86 -5384)"/><rect class="cls-9" x="-4219.15" y="7217.74" width="144.01" height="75.26" rx="37.63" transform="translate(-5159.71 6155.34) rotate(-150.59)"/><path class="cls-10" d="M-4452.52,7036.47l-37-178.27,99.43-2.7-10.43,68.87,86.37,35.26-65.68,103.6c118.81,66.12,162.59,215.71,97.65,335.58-65.39,120.71-216.26,165.56-337,100.16s-165.56-216.26-100.16-337C-4666.16,7063.87-4556.53,7015.88-4452.52,7036.47Z" transform="translate(6162.86 -5384)"/><rect class="cls-9" x="-4490.5" y="7021.06" width="144.01" height="75.26" rx="37.63" transform="translate(-4049.53 7656.25) rotate(-167.96)"/><path class="cls-10" d="M-4909,7137.31l-101.43-151.19,91.08-40,16.29,67.72,93.29.11-21.8,120.71c135,16.48,231.89,138.54,216.91,274.05-15.09,136.46-137.94,234.85-274.4,219.76s-234.85-137.94-219.77-274.4C-5096.6,7243.2-5013.14,7157.43-4909,7137.31Z" transform="translate(6162.86 -5384)"/><rect class="cls-9" x="-4941.15" y="7107.45" width="144.01" height="75.26" rx="37.63" transform="translate(-2247.64 9649.02) rotate(169.9)"/><path class="cls-10" d="M-5018.74,7054.05l32.3-179.17,93.24,34.64-35.41,60,66.94,65L-4961.3,7106c85.5,105.72,70.21,260.83-34.81,347.76-105.76,87.53-262.46,72.76-350-33s-72.76-262.47,33-350C-5227.14,6999.64-5107.52,6996.09-5018.74,7054.05Z" transform="translate(6162.86 -5384)"/><rect class="cls-9" x="-5067.49" y="7049.75" width="144.01" height="75.26" rx="37.63" transform="translate(-6936.32 4788.16) rotate(-146.02)"/><path class="cls-10" d="M-5529.59,6903.63l-73.13-166.73,96.71-23.25,4.07,69.54,91.8,16.59-42.77,115c129.93,40.06,203.76,177.32,165.08,308.05-38.95,131.64-177.25,206.79-308.9,167.84s-206.79-177.26-167.84-308.91C-5732.9,6974.72-5635.6,6905-5529.59,6903.63Z" transform="translate(6162.86 -5384)"/><rect class="cls-9" x="-5563.7" y="6880.69" width="144.01" height="75.26" rx="37.63" transform="translate(-4830.04 8445.08) rotate(-179.92)"/><path class="cls-10" d="M-5955.29,7096.91-6085.86,6970l80.83-58,30,62.88,91.28-19.23,3.7,122.61c135.45-11.86,255.57,87.46,269,223.13,13.52,136.62-86.26,258.34-222.89,271.87s-258.34-86.27-271.86-222.89C-6116.83,7239.37-6053,7138.17-5955.29,7096.91Z" transform="translate(6162.86 -5384)"/><rect class="cls-9" x="-5986.66" y="7058.61" width="144.01" height="75.26" rx="37.63" transform="translate(-2568.53 10510.28) rotate(157.94)"/></g></svg>