<svg id="RecyclingBuilding" xmlns="http://www.w3.org/2000/svg" viewBox="0 0 3108 2733.45"><defs><style>.cls-1{fill:#a6bcff;}.cls-2{fill:#8b8fe8;}.cls-3{fill:#4c50b2;}.cls-4{fill:#656aed;}.cls-5{fill:#90abff;}.cls-6{fill:#b49775;}.cls-7{fill:#a3896a;}.cls-8{fill:#9b7c56;}.cls-9{fill:#cfac84;}.cls-10{fill:#c49a6c;}.cls-11{fill:#b28048;}.cls-12{fill:#c1996d;}.cls-13{fill:#ffb767;}.cls-14{fill:#33bdab;}.cls-15{fill:#008171;}.cls-16{fill:#99ded5;}.cls-17{fill:#9f8cff;}.cls-18{fill:#c6baff;}.cls-19{fill:#01ac97;}.cls-20{fill:#07954e;}.cls-21{fill:#4165a1;}.cls-22{fill:#5ccabc;}</style></defs><title>RecyclingPlant</title><path class="cls-1" d="M-4897.81-1181.2V14.2a148.12,148.12,0,0,1-15.94,67.08A149.33,149.33,0,0,1-4944,122a148.33,148.33,0,0,1-102.57,41h-783.47A148.8,148.8,0,0,1-5978.87,14.2V-1181.2A148.8,148.8,0,0,1-5830.08-1330h783.47A148.8,148.8,0,0,1-4897.81-1181.2Z" transform="translate(6477 1615)"/><rect class="cls-1" x="1192.16" width="625.94" height="1737" rx="71.4"/><path class="cls-1" d="M-3526-929.21V-9.79A160.79,160.79,0,0,1-3686.79,151H-4781.22a160,160,0,0,1-92.13-29,161.68,161.68,0,0,1-40.4-40.72A160.05,160.05,0,0,1-4942-9.79V-929.21a160.23,160.23,0,0,1,44.2-110.72A160.34,160.34,0,0,1-4781.22-1090h1094.43A160.79,160.79,0,0,1-3526-929.21Z" transform="translate(6477 1615)"/><path class="cls-1" d="M-5120-634.12v293.24c0,98-71.29,179.41-164.85,195.13a198.81,198.81,0,0,1-33,2.75h-961.24C-6388.4-143-6477-231.6-6477-340.88V-634.12A196.94,196.94,0,0,1-6441.66-747a197.66,197.66,0,0,1,162.54-85h961.24a198.81,198.81,0,0,1,33,2.75A197.9,197.9,0,0,1-5155.33-747,196.94,196.94,0,0,1-5120-634.12Z" transform="translate(6477 1615)"/><path class="cls-2" d="M-3526-747V-9.79A160.79,160.79,0,0,1-3686.79,151H-4781.22a160,160,0,0,1-92.13-29H-4944a148.33,148.33,0,0,1-102.57,41h-783.47A148.8,148.8,0,0,1-5978.87,14.2V-143h-300.25C-6388.4-143-6477-231.6-6477-340.88V-634.12A196.94,196.94,0,0,1-6441.66-747Z" transform="translate(6477 1615)"/><rect class="cls-3" x="125" y="1250" width="1197" height="669" rx="125.46"/><rect class="cls-4" x="125" y="1250" width="1197" height="487" rx="125.46"/><rect class="cls-5" x="125" y="1029" width="1197" height="514" rx="125.46"/><path class="cls-4" d="M-5482-1315.32c-1.82-60.31-64.16-108.76-140.81-108.76s-139,48.45-140.8,108.76h0v1001.8H-5482v-1001.8Z" transform="translate(6477 1615)"/><ellipse class="cls-5" cx="854.15" cy="302.38" rx="140.85" ry="111.46"/><ellipse class="cls-4" cx="853.98" cy="302.05" rx="110.03" ry="87.07"/><path class="cls-5" d="M-5482-1090.11v80.38c0,61.56-63.06,111.46-140.85,111.46s-140.84-49.9-140.84-111.46v-80.38a91.1,91.1,0,0,0,9.43,40.19c20.38,41.7,71.54,71.27,131.41,71.27s111-29.57,131.41-71.27A91,91,0,0,0-5482-1090.11Z" transform="translate(6477 1615)"/><path class="cls-5" d="M-5482-1225.61v80.39c0,61.56-63.06,111.46-140.85,111.46s-140.84-49.9-140.84-111.46v-80.39a91.1,91.1,0,0,0,9.43,40.19c20.38,41.7,71.54,71.27,131.41,71.27s111-29.57,131.41-71.27A91,91,0,0,0-5482-1225.61Z" transform="translate(6477 1615)"/><ellipse class="cls-4" cx="853.81" cy="1301.44" rx="140.85" ry="111.46"/><path class="cls-4" d="M-5865.78-1130.11c-1.48-49.42-52.57-89.13-115.39-89.13s-113.91,39.71-115.39,89.13h0v821h230.86v-821Z" transform="translate(6477 1615)"/><ellipse class="cls-5" cx="495.83" cy="487.11" rx="115.43" ry="91.35"/><ellipse class="cls-4" cx="495.69" cy="486.83" rx="78.7" ry="62.28"/><path class="cls-5" d="M-5865.74-889.28v65.88c0,50.45-51.68,91.35-115.43,91.35s-115.43-40.9-115.43-91.35v-65.88a74.57,74.57,0,0,0,7.74,32.94c16.7,34.17,58.62,58.41,107.69,58.41s91-24.24,107.7-58.41A74.7,74.7,0,0,0-5865.74-889.28Z" transform="translate(6477 1615)"/><path class="cls-5" d="M-5865.74-1019.38v65.88c0,50.45-51.68,91.35-115.43,91.35S-6096.6-903-6096.6-953.5v-65.88a74.57,74.57,0,0,0,7.74,32.94c16.7,34.17,58.62,58.41,107.69,58.41s91-24.24,107.7-58.41A74.7,74.7,0,0,0-5865.74-1019.38Z" transform="translate(6477 1615)"/><ellipse class="cls-4" cx="495.83" cy="1305.84" rx="115.43" ry="91.35"/><rect class="cls-3" x="2141" y="1206" width="967" height="655" rx="70.93"/><rect class="cls-4" x="2141" y="1206" width="967" height="513" rx="70.93"/><rect class="cls-5" x="2141" y="1083" width="967" height="492" rx="70.93"/><rect class="cls-3" x="2178.57" y="1118" width="890.35" height="423" rx="53.81"/><ellipse class="cls-4" cx="2520.93" cy="1199.15" rx="196.52" ry="152.85"/><rect class="cls-4" x="2324.41" y="906.72" width="393.03" height="292.43"/><ellipse class="cls-5" cx="2520.93" cy="906.72" rx="196.52" ry="152.85"/><path class="cls-5" d="M-3758-614.32v113.24c0,86.71-88.83,157-198.39,157s-198.4-70.29-198.4-157V-614.32a128.33,128.33,0,0,0,13.29,56.62c28.71,58.74,100.76,100.39,185.11,100.39S-3800-499-3771.29-557.7A128.33,128.33,0,0,0-3758-614.32Z" transform="translate(6477 1615)"/><ellipse class="cls-4" cx="2520.54" cy="906.33" rx="161.03" ry="125.25"/><ellipse class="cls-4" cx="2520.54" cy="719.25" rx="161.03" ry="125.25"/><rect class="cls-4" x="2359.5" y="719.56" width="322.07" height="186.38"/><rect class="cls-4" x="1953.99" y="594.01" width="566.93" height="322.07"/><rect class="cls-3" x="1451" y="339" width="584" height="1522"/><rect class="cls-4" x="1451" y="367" width="584" height="832" rx="51.79"/><rect class="cls-5" x="1451" y="260" width="584" height="414" rx="59.6"/><rect class="cls-6" x="548.94" y="2011.83" width="285.63" height="142.82"/><path class="cls-7" d="M-5642.8,512.87V600c0,16.27-25.88,29.45-57.82,29.45h-171.06c-18,0-34.15-4.21-44.75-10.8-8.19-5.08-13.08-11.58-13.08-18.65v-87.1c0-16.27,25.88-29.45,57.83-29.45h171.06a106.06,106.06,0,0,1,23.94,2.65C-5656.69,490.69-5642.8,501-5642.8,512.87Z" transform="translate(6477 1615)"/><path class="cls-8" d="M-5670.87,521.4v70c0,13.07-20.81,23.67-46.51,23.67h-137.56a82.52,82.52,0,0,1-23.38-3.22,51.27,51.27,0,0,1-12.61-5.45,34,34,0,0,1-4.57-3.43c-3.75-3.4-5.91-7.35-5.91-11.57v-70c0-13.07,20.81-23.68,46.47-23.68h137.56a84.85,84.85,0,0,1,19.26,2.14c1.18.27,2.32.56,3.46.89,7.23,2.06,13.27,5.07,17.47,8.73C-5673.19,513-5670.87,517.06-5670.87,521.4Z" transform="translate(6477 1615)"/><path class="cls-7" d="M-5677.19,509.48l-201.13,102.41a51.27,51.27,0,0,1-12.61-5.45,34,34,0,0,1-4.57-3.43l200.84-102.26C-5687.43,502.81-5681.39,505.82-5677.19,509.48Z" transform="translate(6477 1615)"/><path class="cls-7" d="M-5670.87,546.81v17.62l-99.52,50.68H-5805Z" transform="translate(6477 1615)"/><path class="cls-7" d="M-5764.27,497.72l-137.14,69.83V549.93l102.54-52.21Z" transform="translate(6477 1615)"/><path class="cls-9" d="M-5642.8,255.62V426.68a57.82,57.82,0,0,1-57.82,57.83h-171.06a57.69,57.69,0,0,1-44.75-21.2,57.53,57.53,0,0,1-13.08-36.63V255.62a57.82,57.82,0,0,1,57.83-57.83h171.06a57.48,57.48,0,0,1,23.94,5.19A57.79,57.79,0,0,1-5642.8,255.62Z" transform="translate(6477 1615)"/><path class="cls-10" d="M-5670.87,272.38V409.93a46.49,46.49,0,0,1-46.51,46.48h-137.56a45.93,45.93,0,0,1-23.38-6.33,45.51,45.51,0,0,1-12.61-10.69,51.07,51.07,0,0,1-4.57-6.73,46.37,46.37,0,0,1-5.91-22.73V272.38a46.51,46.51,0,0,1,46.47-46.52h137.56a46.21,46.21,0,0,1,19.26,4.2,37.51,37.51,0,0,1,3.46,1.76A46.5,46.5,0,0,1-5677.19,249,46.41,46.41,0,0,1-5670.87,272.38Z" transform="translate(6477 1615)"/><path class="cls-9" d="M-5677.19,249l-201.13,201.12a45.51,45.51,0,0,1-12.61-10.69,51.07,51.07,0,0,1-4.57-6.73l200.84-200.84A46.5,46.5,0,0,1-5677.19,249Z" transform="translate(6477 1615)"/><path class="cls-9" d="M-5670.87,322.28v34.6l-99.52,99.53H-5805Z" transform="translate(6477 1615)"/><path class="cls-9" d="M-5764.27,225.86-5901.41,363V328.4l102.54-102.54Z" transform="translate(6477 1615)"/><rect class="cls-6" x="548.94" y="1864.93" width="285.63" height="142.82"/><path class="cls-7" d="M-5642.8,366v87.1c0,16.27-25.88,29.45-57.82,29.45h-171.06c-18,0-34.15-4.2-44.75-10.8-8.19-5.07-13.08-11.57-13.08-18.65V366c0-16.26,25.88-29.44,57.83-29.44h171.06a106.08,106.08,0,0,1,23.94,2.64C-5656.69,343.8-5642.8,354.06-5642.8,366Z" transform="translate(6477 1615)"/><path class="cls-8" d="M-5670.87,374.51v70c0,13.06-20.81,23.66-46.51,23.66h-137.56a82.16,82.16,0,0,1-23.38-3.22,50.89,50.89,0,0,1-12.61-5.44,34.9,34.9,0,0,1-4.57-3.43c-3.75-3.41-5.91-7.36-5.91-11.57v-70c0-13.07,20.81-23.69,46.47-23.69h137.56a85.42,85.42,0,0,1,19.26,2.14c1.18.27,2.32.56,3.46.89,7.23,2.06,13.27,5.07,17.47,8.73C-5673.19,366.07-5670.87,370.16-5670.87,374.51Z" transform="translate(6477 1615)"/><path class="cls-7" d="M-5677.19,362.58-5878.32,465a50.89,50.89,0,0,1-12.61-5.44,34.9,34.9,0,0,1-4.57-3.43l200.84-102.27C-5687.43,355.91-5681.39,358.92-5677.19,362.58Z" transform="translate(6477 1615)"/><path class="cls-7" d="M-5670.87,399.92v17.62l-99.52,50.67H-5805Z" transform="translate(6477 1615)"/><path class="cls-7" d="M-5764.27,350.82l-137.14,69.83V403l102.54-52.21Z" transform="translate(6477 1615)"/><path class="cls-9" d="M-5642.8,108.72V279.78a57.81,57.81,0,0,1-57.82,57.83h-171.06a57.69,57.69,0,0,1-44.75-21.2,57.51,57.51,0,0,1-13.08-36.63V108.72a57.81,57.81,0,0,1,57.83-57.82h171.06a57.33,57.33,0,0,1,23.94,5.19A57.77,57.77,0,0,1-5642.8,108.72Z" transform="translate(6477 1615)"/><path class="cls-10" d="M-5670.87,125.48V263a46.49,46.49,0,0,1-46.51,46.48h-137.56a45.93,45.93,0,0,1-23.38-6.33,45.34,45.34,0,0,1-12.61-10.69,50.41,50.41,0,0,1-4.57-6.73,46.34,46.34,0,0,1-5.91-22.73V125.48A46.51,46.51,0,0,1-5854.94,79h137.56a46.07,46.07,0,0,1,19.26,4.21c1.18.53,2.32,1.1,3.46,1.75a46.58,46.58,0,0,1,17.47,17.14A46.41,46.41,0,0,1-5670.87,125.48Z" transform="translate(6477 1615)"/><path class="cls-9" d="M-5677.19,102.06l-201.13,201.12a45.34,45.34,0,0,1-12.61-10.69,50.41,50.41,0,0,1-4.57-6.73l200.84-200.84A46.58,46.58,0,0,1-5677.19,102.06Z" transform="translate(6477 1615)"/><path class="cls-9" d="M-5670.87,175.38V210l-99.52,99.52H-5805Z" transform="translate(6477 1615)"/><path class="cls-9" d="M-5764.27,79l-137.14,137.15v-34.6L-5798.87,79Z" transform="translate(6477 1615)"/><rect class="cls-6" x="548.94" y="1718.04" width="285.63" height="142.82"/><path class="cls-7" d="M-5642.8,219.08v87.1c0,16.26-25.88,29.44-57.82,29.44h-171.06c-18,0-34.15-4.2-44.75-10.79-8.19-5.08-13.08-11.58-13.08-18.65v-87.1c0-16.27,25.88-29.45,57.83-29.45h171.06a106.66,106.66,0,0,1,23.94,2.64C-5656.69,196.9-5642.8,207.16-5642.8,219.08Z" transform="translate(6477 1615)"/><path class="cls-8" d="M-5670.87,227.61v70c0,13.07-20.81,23.66-46.51,23.66h-137.56a82.16,82.16,0,0,1-23.38-3.22,50.89,50.89,0,0,1-12.61-5.44,34,34,0,0,1-4.57-3.43c-3.75-3.41-5.91-7.35-5.91-11.57v-70c0-13.07,20.81-23.69,46.47-23.69h137.56a85.42,85.42,0,0,1,19.26,2.14c1.18.27,2.32.56,3.46.9,7.23,2,13.27,5.07,17.47,8.72C-5673.19,219.17-5670.87,223.27-5670.87,227.61Z" transform="translate(6477 1615)"/><path class="cls-7" d="M-5677.19,215.68l-201.13,102.41a50.89,50.89,0,0,1-12.61-5.44,34,34,0,0,1-4.57-3.43L-5694.66,207C-5687.43,209-5681.39,212-5677.19,215.68Z" transform="translate(6477 1615)"/><path class="cls-7" d="M-5670.87,253v17.62l-99.52,50.67H-5805Z" transform="translate(6477 1615)"/><path class="cls-7" d="M-5764.27,203.92l-137.14,69.84V256.14l102.54-52.22Z" transform="translate(6477 1615)"/><path class="cls-9" d="M-5642.8-38.17V132.89a57.81,57.81,0,0,1-57.82,57.82h-171.06a57.66,57.66,0,0,1-44.75-21.2,57.49,57.49,0,0,1-13.08-36.62V-38.17A57.82,57.82,0,0,1-5871.68-96h171.06a57.48,57.48,0,0,1,23.94,5.19A57.79,57.79,0,0,1-5642.8-38.17Z" transform="translate(6477 1615)"/><path class="cls-10" d="M-5670.87-21.42V116.14a46.48,46.48,0,0,1-46.51,46.47h-137.56a45.92,45.92,0,0,1-23.38-6.32,45.68,45.68,0,0,1-12.61-10.69,50.52,50.52,0,0,1-4.57-6.74,46.33,46.33,0,0,1-5.91-22.72V-21.42a46.51,46.51,0,0,1,46.47-46.51h137.56a46.21,46.21,0,0,1,19.26,4.2,37.51,37.51,0,0,1,3.46,1.76,46.48,46.48,0,0,1,17.47,17.13A46.47,46.47,0,0,1-5670.87-21.42Z" transform="translate(6477 1615)"/><path class="cls-9" d="M-5677.19-44.84l-201.13,201.13a45.68,45.68,0,0,1-12.61-10.69,50.52,50.52,0,0,1-4.57-6.74L-5694.66-62A46.48,46.48,0,0,1-5677.19-44.84Z" transform="translate(6477 1615)"/><path class="cls-9" d="M-5670.87,28.49v34.6l-99.52,99.52H-5805Z" transform="translate(6477 1615)"/><path class="cls-9" d="M-5764.27-67.93-5901.41,69.21V34.61l102.54-102.54Z" transform="translate(6477 1615)"/><rect class="cls-6" x="104.71" y="2229.79" width="542.15" height="271.38"/><rect class="cls-9" x="104.71" y="2139" width="543.78" height="261.55" rx="61.59"/><path class="cls-10" d="M-5896,761.75h-409.75c-25.32,0-45.86-19.69-45.86-44V593.86a43.62,43.62,0,0,1,20-36.44,46.89,46.89,0,0,1,25.59-7.63h410c25.32,0,45.87,19.73,45.87,44.07V717.71c0,16.68-9.66,31.2-23.93,38.68A47.08,47.08,0,0,1-5896,761.75Z" transform="translate(6477 1615)"/><polygon class="cls-9" points="626.83 2317.19 472.37 2164.79 504.82 2164.79 626.83 2285.18 626.83 2317.19"/><path class="cls-9" d="M-5896,761.75h-6l-214.82-212h33.42l209.35,206.6A47.08,47.08,0,0,1-5896,761.75Z" transform="translate(6477 1615)"/><polygon class="cls-9" points="496.17 2376.75 463.69 2376.75 248.9 2164.79 281.39 2164.79 479.62 2360.41 496.17 2376.75"/><path class="cls-9" d="M-6091.24,761.75h-33.34l-207-204.33a46.89,46.89,0,0,1,25.59-7.63Z" transform="translate(6477 1615)"/><polygon class="cls-9" points="274.45 2376.75 242.04 2376.75 125.35 2261.57 125.35 2229.56 274.45 2376.75"/><rect class="cls-7" x="104.71" y="2400.69" width="543.78" height="136.2" rx="38.26"/><path class="cls-8" d="M-5896,909.49h-409.75c-25.32,0-45.86-10.25-45.86-22.93V822.07c0-7.89,7.94-14.83,20-19a81,81,0,0,1,25.59-4h410c25.32,0,45.87,10.27,45.87,23v64.49c0,8.69-9.66,16.25-23.93,20.14A84,84,0,0,1-5896,909.49Z" transform="translate(6477 1615)"/><polygon class="cls-7" points="626.83 2493.48 472.37 2414.12 504.82 2414.12 626.83 2476.81 626.83 2493.48"/><path class="cls-7" d="M-5896,909.49h-6l-214.82-110.37h33.42L-5874.1,906.7A84,84,0,0,1-5896,909.49Z" transform="translate(6477 1615)"/><polygon class="cls-7" points="496.17 2524.49 463.69 2524.49 248.9 2414.12 281.39 2414.12 479.62 2515.98 496.17 2524.49"/><path class="cls-7" d="M-6091.24,909.49h-33.34l-207-106.4a81,81,0,0,1,25.59-4Z" transform="translate(6477 1615)"/><polygon class="cls-7" points="274.45 2524.49 242.04 2524.49 125.35 2464.52 125.35 2447.85 274.45 2524.49"/><rect class="cls-6" x="2450.94" y="2218.83" width="285.63" height="142.82"/><path class="cls-7" d="M-3740.8,719.87V807c0,16.27-25.88,29.45-57.82,29.45h-171.06c-18.05,0-34.15-4.21-44.75-10.8-8.19-5.08-13.08-11.58-13.08-18.65v-87.1c0-16.27,25.88-29.45,57.83-29.45h171.06a106.06,106.06,0,0,1,23.94,2.65C-3754.69,697.69-3740.8,708-3740.8,719.87Z" transform="translate(6477 1615)"/><path class="cls-8" d="M-3768.87,728.4v70c0,13.07-20.81,23.67-46.51,23.67h-137.56a82.52,82.52,0,0,1-23.38-3.22,51.27,51.27,0,0,1-12.61-5.45,34,34,0,0,1-4.57-3.43c-3.75-3.4-5.91-7.35-5.91-11.57v-70c0-13.07,20.81-23.68,46.47-23.68h137.56a84.85,84.85,0,0,1,19.26,2.14c1.18.27,2.32.56,3.46.89,7.23,2.06,13.27,5.07,17.47,8.73C-3771.19,720-3768.87,724.06-3768.87,728.4Z" transform="translate(6477 1615)"/><path class="cls-7" d="M-3775.19,716.48l-201.13,102.41a51.27,51.27,0,0,1-12.61-5.45,34,34,0,0,1-4.57-3.43l200.84-102.26C-3785.43,709.81-3779.39,712.82-3775.19,716.48Z" transform="translate(6477 1615)"/><path class="cls-7" d="M-3768.87,753.81v17.62l-99.52,50.68H-3903Z" transform="translate(6477 1615)"/><path class="cls-7" d="M-3862.27,704.72l-137.14,69.83V756.93l102.54-52.21Z" transform="translate(6477 1615)"/><path class="cls-9" d="M-3740.8,462.62V633.68a57.82,57.82,0,0,1-57.82,57.83h-171.06a57.69,57.69,0,0,1-44.75-21.2,57.53,57.53,0,0,1-13.08-36.63V462.62a57.82,57.82,0,0,1,57.83-57.83h171.06a57.48,57.48,0,0,1,23.94,5.19A57.79,57.79,0,0,1-3740.8,462.62Z" transform="translate(6477 1615)"/><path class="cls-10" d="M-3768.87,479.38V616.93a46.49,46.49,0,0,1-46.51,46.48h-137.56a45.93,45.93,0,0,1-23.38-6.33,45.51,45.51,0,0,1-12.61-10.69,51.07,51.07,0,0,1-4.57-6.73,46.37,46.37,0,0,1-5.91-22.73V479.38a46.51,46.51,0,0,1,46.47-46.52h137.56a46.21,46.21,0,0,1,19.26,4.2,37.51,37.51,0,0,1,3.46,1.76A46.5,46.5,0,0,1-3775.19,456,46.41,46.41,0,0,1-3768.87,479.38Z" transform="translate(6477 1615)"/><path class="cls-9" d="M-3775.19,456l-201.13,201.12a45.51,45.51,0,0,1-12.61-10.69,51.07,51.07,0,0,1-4.57-6.73l200.84-200.84A46.5,46.5,0,0,1-3775.19,456Z" transform="translate(6477 1615)"/><path class="cls-9" d="M-3768.87,529.28v34.6l-99.52,99.53H-3903Z" transform="translate(6477 1615)"/><path class="cls-9" d="M-3862.27,432.86-3999.41,570V535.4q51.28-51.28,102.54-102.54Z" transform="translate(6477 1615)"/><rect class="cls-6" x="2450.94" y="2071.93" width="285.63" height="142.82"/><path class="cls-7" d="M-3740.8,573v87.1c0,16.27-25.88,29.45-57.82,29.45h-171.06c-18.05,0-34.15-4.2-44.75-10.8-8.19-5.07-13.08-11.57-13.08-18.65V573c0-16.26,25.88-29.44,57.83-29.44h171.06a106.08,106.08,0,0,1,23.94,2.64C-3754.69,550.8-3740.8,561.06-3740.8,573Z" transform="translate(6477 1615)"/><path class="cls-8" d="M-3768.87,581.51v70c0,13.06-20.81,23.66-46.51,23.66h-137.56a82.16,82.16,0,0,1-23.38-3.22,50.89,50.89,0,0,1-12.61-5.44,34.9,34.9,0,0,1-4.57-3.43c-3.75-3.41-5.91-7.36-5.91-11.57v-70c0-13.07,20.81-23.69,46.47-23.69h137.56a85.42,85.42,0,0,1,19.26,2.14c1.18.27,2.32.56,3.46.89,7.23,2.06,13.27,5.07,17.47,8.73C-3771.19,573.07-3768.87,577.16-3768.87,581.51Z" transform="translate(6477 1615)"/><path class="cls-7" d="M-3775.19,569.58-3976.32,672a50.89,50.89,0,0,1-12.61-5.44,34.9,34.9,0,0,1-4.57-3.43l200.84-102.27C-3785.43,562.91-3779.39,565.92-3775.19,569.58Z" transform="translate(6477 1615)"/><path class="cls-7" d="M-3768.87,606.92v17.62l-99.52,50.67H-3903Z" transform="translate(6477 1615)"/><path class="cls-7" d="M-3862.27,557.82l-137.14,69.83V610l102.54-52.21Z" transform="translate(6477 1615)"/><path class="cls-9" d="M-3740.8,315.72V486.78a57.81,57.81,0,0,1-57.82,57.83h-171.06a57.69,57.69,0,0,1-44.75-21.2,57.51,57.51,0,0,1-13.08-36.63V315.72a57.81,57.81,0,0,1,57.83-57.82h171.06a57.33,57.33,0,0,1,23.94,5.19A57.77,57.77,0,0,1-3740.8,315.72Z" transform="translate(6477 1615)"/><path class="cls-10" d="M-3768.87,332.48V470a46.49,46.49,0,0,1-46.51,46.48h-137.56a45.93,45.93,0,0,1-23.38-6.33,45.34,45.34,0,0,1-12.61-10.69,50.41,50.41,0,0,1-4.57-6.73,46.34,46.34,0,0,1-5.91-22.73V332.48A46.51,46.51,0,0,1-3952.94,286h137.56a46.07,46.07,0,0,1,19.26,4.21c1.18.53,2.32,1.1,3.46,1.75a46.58,46.58,0,0,1,17.47,17.14A46.41,46.41,0,0,1-3768.87,332.48Z" transform="translate(6477 1615)"/><path class="cls-9" d="M-3775.19,309.06l-201.13,201.12a45.34,45.34,0,0,1-12.61-10.69,50.41,50.41,0,0,1-4.57-6.73l200.84-200.84A46.58,46.58,0,0,1-3775.19,309.06Z" transform="translate(6477 1615)"/><path class="cls-9" d="M-3768.87,382.38V417l-99.52,99.52H-3903Z" transform="translate(6477 1615)"/><path class="cls-9" d="M-3862.27,286l-137.14,137.15v-34.6L-3896.87,286Z" transform="translate(6477 1615)"/><rect class="cls-11" x="949" y="2124.15" width="318.83" height="213.38" rx="57.79"/><rect class="cls-11" x="949" y="2380.34" width="1214.92" height="353.11" rx="57.79"/><rect class="cls-11" x="1852.99" y="2124.15" width="310.93" height="213.38" rx="57.79"/><rect class="cls-12" x="949" y="2383.34" width="1214.92" height="228.66" rx="57.79"/><rect class="cls-11" x="1957.89" y="1995.39" width="448.88" height="350.57" rx="85.45"/><rect class="cls-12" x="1957.89" y="1998.39" width="448.88" height="266.61" rx="85.45"/><path class="cls-13" d="M-4313.07,182.81V829.38a46.09,46.09,0,0,1-46.09,46.09H-5481.91A46.08,46.08,0,0,1-5528,829.38v-651a46.09,46.09,0,0,1,46.09-46.09h221a46.09,46.09,0,0,1,46.08,46.09v496.5H-4624V182.81a46.09,46.09,0,0,1,46.09-46.08h218.76A46.09,46.09,0,0,1-4313.07,182.81Z" transform="translate(6477 1615)"/><rect class="cls-13" x="1957.89" y="1820.11" width="448.88" height="350.57" rx="85.45"/><path class="cls-12" d="M-4501.76,285.36V165.58c0-.17,0-.35,0-.52a54.36,54.36,0,0,0-4.95-22.61,44.32,44.32,0,0,0-3.18-5.72h-68l-1.19,0q-.44,0-.87,0l-.94.05c-.49,0-1,.07-1.48.12s-1.06.11-1.59.18-.94.13-1.4.21l-.17,0-.19,0-.84.16-1.17.24h-.1l-1,.23-.78.19-.89.25-.55.16-.07,0-.09,0-1.11.35-.72.24-.2.07-.28.1c-.5.18-1,.37-1.49.57-.22.08-.44.18-.66.27l-.66.28-.85.38-.69.33-1.07.53-1.2.64-1.32.76c-.38.22-.75.45-1.12.69l-1.08.7-.08.06c-.39.26-.77.52-1.14.8l-.59.43c-.3.22-.6.45-.89.69s-.53.41-.79.63-.61.5-.9.76l-.93.83c-.37.34-.74.69-1.1,1s-.52.5-.78.78-.64.65-.95,1-.62.68-.93,1-.48.56-.71.84-.58.71-.87,1.08-.56.73-.82,1.1-.41.55-.6.83-.21.31-.32.47-.21.3-.31.46c-.35.53-.69,1.07-1,1.61l-.06.1-.42.72-.28.5c-.25.44-.49.89-.72,1.34s-.38.74-.56,1.12c-.05.1-.1.2-.14.3-.22.44-.42.89-.61,1.34-.11.23-.21.47-.3.71s-.19.47-.29.71v0c-.18.47-.36.94-.53,1.42-.08.21-.15.43-.23.66s-.15.44-.22.66l0,0c0,.05,0,.09,0,.14-.14.45-.28.9-.41,1.35,0,0,0,.06,0,.08-.07.24-.14.48-.2.73l-.18.72s0,0,0,0a.36.36,0,0,0,0,.1c-.09.33-.16.67-.24,1s-.1.45-.14.67l0,.15s0,.07,0,.1-.07.36-.1.54-.07.35-.1.54c-.08.45-.16.91-.22,1.38,0,.12,0,.25-.05.38s-.08.54-.11.82v0l0,.24c0,.13,0,.26,0,.39,0,.48-.09,1-.13,1.44a.76.76,0,0,1,0,.15l-.06,1.21c0,.24,0,.48,0,.72,0,.4,0,.79,0,1.19V674.88h-590.82V178.38c0-.4,0-.79,0-1.19,0-.23,0-.47,0-.7s0-.54,0-.81,0-.72-.07-1.08-.05-.59-.09-.88-.07-.66-.11-1,0-.46-.09-.69c0-.42-.12-.84-.19-1.26s-.11-.64-.17-1-.09-.48-.14-.73c-.1-.47-.2-.94-.31-1.4s-.2-.82-.31-1.22c-.06-.24-.12-.47-.19-.7s-.07-.24-.11-.36c-.09-.35-.2-.69-.31-1s-.22-.71-.35-1.06c0,0,0-.08,0-.12l-.24-.66c-.16-.46-.34-.91-.52-1.36l0-.07c-.17-.42-.34-.82-.52-1.24l-.36-.79-.06-.14-.54-1.12-.42-.82c-.2-.37-.4-.75-.61-1.11s-.41-.74-.63-1.1-.44-.73-.67-1.08l-.69-1.06,0,0c-.42-.62-.85-1.22-1.29-1.81s-.95-1.24-1.45-1.83c-.19-.24-.4-.48-.61-.72s-.37-.44-.56-.65l-.81-.87c-.29-.31-.58-.61-.88-.9l-.82-.81-.08-.07c-.3-.29-.61-.58-.93-.86l-.95-.83c-.32-.28-.64-.55-1-.81l-.08-.06-.69-.54-.74-.56c-1-.76-2.07-1.47-3.15-2.14q-.61-.39-1.26-.75l-.54-.31-.13-.07-1.1-.59-.13-.07c-.68-.35-1.37-.68-2.07-1l-.66-.29-.07,0-.56-.23-.78-.32-1.05-.4-1.07-.38-1.05-.35h0l-1.09-.32-.66-.18c-.52-.14-1-.27-1.55-.39h0l-.24-.05c-.66-.16-1.33-.29-2-.41s-1.52-.25-2.29-.35l-1.16-.13-.65-.06-.46,0-.46,0h-.07l-.7,0-1.18,0-1.19,0H-5331c-.72,1.07-1.4,2.19-2,3.35a47.29,47.29,0,0,0-3.06,6.81,55.74,55.74,0,0,0-3.24,19V285.36H-5528V495.88h188.69V771.24c0,23.84,14.22,43.16,31.77,43.16h774c17.55,0,31.78-19.32,31.78-43.16V495.88h188.69V285.36Z" transform="translate(6477 1615)"/><rect class="cls-11" x="1192.72" y="1960.42" width="75.1" height="407.39" rx="37.55"/><rect class="cls-11" x="1845.1" y="1960.42" width="75.1" height="407.39" rx="37.55"/><path class="cls-12" d="M2164,1941h182a0,0,0,0,1,0,0v132.41a37.59,37.59,0,0,1-37.59,37.59H2164a0,0,0,0,1,0,0V1941A0,0,0,0,1,2164,1941Z"/><polygon class="cls-14" points="1180.42 1632.54 1143.99 1632.54 1143.99 1952.76 678.53 1952.76 678.53 1632.54 1030.75 1314.39 1130.31 1404.32 1130.31 1570.3 1180.42 1632.54"/><polygon class="cls-15" points="1382.97 1952.76 678.53 1952.76 1030.75 1634.61 1031.17 1634.99 1143.99 1736.9 1155.5 1747.29 1166.74 1757.45 1262.17 1843.64 1382.97 1952.76"/><polygon class="cls-14" points="2514.55 1633.58 2514.55 1953.8 1943.17 1953.8 1943.17 1633.58 1918.1 1633.58 1919 1632.54 1973.71 1569.27 1973.71 1395.24 2082.18 1315.43 2514.55 1633.58"/><polygon class="cls-15" points="2082.18 1634.62 1649.8 1952.76 2514.55 1952.76 2082.18 1634.62"/><rect class="cls-14" x="1137.69" y="1757.45" width="837.55" height="397.55"/><polygon class="cls-16" points="2082.18 1313.36 2082.18 1635.19 1976.44 1757.45 1136.48 1757.45 1030.75 1635.2 1030.75 1313.36 1137.69 1313.36 1137.69 1569.27 1191.52 1631.5 1221.76 1666.48 1889.63 1666.48 1918.1 1633.58 1919 1632.54 1973.71 1569.27 1973.71 1313.36 2082.18 1313.36"/><rect class="cls-13" x="-5307" y="-396" width="82" height="353" rx="41" transform="translate(4051.29 5835.29) rotate(55)"/><rect class="cls-13" x="-4617" y="-396" width="82" height="353" rx="41" transform="translate(-903.19 5018.27) rotate(125)"/><path class="cls-17" d="M-4569.76-358.62c0-123.92-157.05-224.38-350.78-224.38s-350.78,100.46-350.78,224.38c0,.51,0,1,0,1.53h0v99.9h37.81c57.9,72.95,176.3,122.94,313,122.94s255.07-50,313-122.94h37.81v-99.9h0C-4569.77-357.6-4569.76-358.11-4569.76-358.62Z" transform="translate(6477 1615)"/><ellipse class="cls-4" cx="1556.46" cy="1356.27" rx="350.78" ry="224.38"/><ellipse class="cls-18" cx="1556.18" cy="1356.45" rx="315.78" ry="201.99"/><path class="cls-17" d="M-4860.56-422l-7.61,8.43-47.88,53-40,44.31a26.31,26.31,0,0,1-8.23,6c-9.73,4.7-23.27,5.5-34.49,1.36l-29.07-10.73c-14.95-5.53-20.08-17.76-11.44-27.33l67.74-75,8.49-9.4,7.46-8.28c5.7-3.79,13.71-6.16,22.58-6.16h33.56c9.38,0,17.8,2.65,23.53,6.83l6.09,6.75Z" transform="translate(6477 1615)"/><path class="cls-17" d="M-4802.38-359.55l-1.33.49-56.85-63-9.26-10.26-6.09-6.75c-5.73-4.18-14.15-6.83-23.53-6.83H-4933c-8.87,0-16.88,2.37-22.58,6.16l-7.46,8.28-8.49,9.4,7.26,8,48.22,53.43,29.12,32.26-2.11.78c-11.54,4.26-10.53,15.12,1.73,18.48l76.73,21c9.93,2.72,21.15-1.42,22.44-8.28l9.92-53C-4776.63-357.82-4790.84-363.81-4802.38-359.55Z" transform="translate(6477 1615)"/><path class="cls-17" d="M-5174.39-207.75h191a46.89,46.89,0,0,1,12.18,1.58c11.22,3,19.08,10.14,19.08,18.43v21.46c0,11.05-14,20-31.28,20h-167.38c-8-1.25-15.19-4.51-19.63-9.42l-16.78-18.59c-4.69-5.2-5.32-11.18-2.52-16.45l6.09-6.75Z" transform="translate(6477 1615)"/><path class="cls-17" d="M-5118.85-271.23l1.32.49-56.86,63-9.26,10.26-6.09,6.75c-2.8,5.27-2.17,11.25,2.52,16.45l16.78,18.59c4.44,4.91,11.65,8.17,19.63,9.42h31.91l7.26-8,48.22-53.43L-5034.3-240l2.11.78c11.54,4.27,25.74-1.73,24.16-10.19l-9.93-53c-1.28-6.86-12.51-11-22.43-8.29l-76.74,21C-5129.38-286.36-5130.4-275.49-5118.85-271.23Z" transform="translate(6477 1615)"/><path class="cls-17" d="M-4715.34-147.9l-7.61-8.43-47.88-53-40-44.31a15.81,15.81,0,0,1-4-7.54c-1.49-7.74,4.19-15.65,15.41-19.79l29.06-10.73c15-5.52,34.08-2.25,42.72,7.32l67.73,75.05,8.49,9.4,7.46,8.27c2.3,5,1.5,10.67-2.94,15.59l-16.78,18.59c-4.69,5.2-12.48,8.54-21,9.62h-30.69Z" transform="translate(6477 1615)"/><path class="cls-17" d="M-4829.06-146.92v-1h144.41c8.54-1.08,16.33-4.42,21-9.62l16.78-18.59c4.44-4.92,5.24-10.54,2.94-15.59l-7.46-8.27-8.49-9.4h-169.2v-1.56c0-8.52-15.21-13.4-25.88-8.28l-66.81,32c-8.64,4.14-8.64,12.43,0,16.57l66.81,32C-4844.27-133.53-4829.06-138.4-4829.06-146.92Z" transform="translate(6477 1615)"/><path class="cls-19" d="M-4860.56-403l-7.61,8.43-47.88,53-40,44.31a26.31,26.31,0,0,1-8.23,6c-9.73,4.7-23.27,5.5-34.49,1.36l-29.07-10.73c-14.95-5.53-20.08-17.76-11.44-27.33l67.74-75,8.49-9.4,7.46-8.28c5.7-3.79,13.71-6.16,22.58-6.16h33.56c9.38,0,17.8,2.65,23.53,6.83l6.09,6.75Z" transform="translate(6477 1615)"/><path class="cls-20" d="M-4802.38-340.55l-1.33.49-56.85-63-9.26-10.26-6.09-6.75c-5.73-4.18-14.15-6.83-23.53-6.83H-4933c-8.87,0-16.88,2.37-22.58,6.16l-7.46,8.28-8.49,9.4,7.26,8,48.22,53.43,29.12,32.26-2.11.78c-11.54,4.26-10.53,15.12,1.73,18.48l76.73,21c9.93,2.72,21.15-1.42,22.44-8.28l9.92-53C-4776.63-338.82-4790.84-344.81-4802.38-340.55Z" transform="translate(6477 1615)"/><path class="cls-19" d="M-5174.39-188.75h191a46.89,46.89,0,0,1,12.18,1.58c11.22,3,19.08,10.14,19.08,18.43v21.46c0,11.05-14,20-31.28,20h-167.38c-8-1.25-15.19-4.51-19.63-9.42l-16.78-18.59c-4.69-5.2-5.32-11.18-2.52-16.45l6.09-6.75Z" transform="translate(6477 1615)"/><path class="cls-20" d="M-5118.85-252.23l1.32.49-56.86,63-9.26,10.26-6.09,6.75c-2.8,5.27-2.17,11.25,2.52,16.45l16.78,18.59c4.44,4.91,11.65,8.17,19.63,9.42h31.91l7.26-8,48.22-53.43L-5034.3-221l2.11.78c11.54,4.27,25.74-1.73,24.16-10.19l-9.93-53c-1.28-6.86-12.51-11-22.43-8.29l-76.74,21C-5129.38-267.36-5130.4-256.49-5118.85-252.23Z" transform="translate(6477 1615)"/><path class="cls-19" d="M-4715.34-128.9l-7.61-8.43-47.88-53-40-44.31a15.81,15.81,0,0,1-4-7.54c-1.49-7.74,4.19-15.65,15.41-19.79l29.06-10.73c15-5.52,34.08-2.25,42.72,7.32l67.73,75.05,8.49,9.4,7.46,8.27c2.3,5,1.5,10.67-2.94,15.59l-16.78,18.59c-4.69,5.2-12.48,8.54-21,9.62h-30.69Z" transform="translate(6477 1615)"/><path class="cls-20" d="M-4829.06-127.92v-1h144.41c8.54-1.08,16.33-4.42,21-9.62l16.78-18.59c4.44-4.92,5.24-10.54,2.94-15.59l-7.46-8.27-8.49-9.4h-169.2v-1.56c0-8.52-15.21-13.4-25.88-8.28l-66.81,32c-8.64,4.14-8.64,12.43,0,16.57l66.81,32C-4844.27-114.53-4829.06-119.4-4829.06-127.92Z" transform="translate(6477 1615)"/><path class="cls-21" d="M-5275.88,336v1.69A52.31,52.31,0,0,1-5328.19,390a52.31,52.31,0,0,1-52.31-52.31A52.31,52.31,0,0,1-5432.81,390a52.3,52.3,0,0,1-52.31-52,52.32,52.32,0,0,1-52.32,52,52.31,52.31,0,0,1-52.31-52.31A52.31,52.31,0,0,1-5642.06,390a52.32,52.32,0,0,1-51.81-45.07A52.33,52.33,0,0,1-5745.69,390,52.31,52.31,0,0,1-5798,337.69V336Z" transform="translate(6477 1615)"/><path class="cls-21" d="M-4064.88,338H-4587v1.69A52.31,52.31,0,0,0-4534.69,392a52.33,52.33,0,0,0,51.82-45.07A52.32,52.32,0,0,0-4431.06,392h.37a52.33,52.33,0,0,0,51.82-45.07A52.32,52.32,0,0,0-4327.06,392h.62a52.33,52.33,0,0,0,52-46.58,52.32,52.32,0,0,0,52,46.58h.63a52.32,52.32,0,0,0,52-46.61,52.3,52.3,0,0,0,52,46.61h.62a52.31,52.31,0,0,0,52-46.65,52.31,52.31,0,0,0,52,46.65,52.31,52.31,0,0,0,52.31-52.31V338Z" transform="translate(6477 1615)"/><path class="cls-14" d="M-5233.37,144.31V541.69a52.29,52.29,0,0,1-.5,7.24A52.33,52.33,0,0,1-5285.69,594,52.31,52.31,0,0,1-5338,541.69V144.31a2.32,2.32,0,0,1,2.31-2.31h100a2.35,2.35,0,0,1,1.82.87A2.35,2.35,0,0,1-5233.37,144.31Z" transform="translate(6477 1615)"/><path class="cls-22" d="M-5129.75,144.31V541.69A52.31,52.31,0,0,1-5182.06,594a52.32,52.32,0,0,1-51.81-45.07,52.29,52.29,0,0,1-.5-7.24V144.31a2.35,2.35,0,0,1,.5-1.44,2.33,2.33,0,0,1,1.81-.87h100A2.32,2.32,0,0,1-5129.75,144.31Z" transform="translate(6477 1615)"/><path class="cls-14" d="M-5025.12,144.2V542a52.32,52.32,0,0,1-52.32,52,52.31,52.31,0,0,1-52.31-52.31V144.31a2.32,2.32,0,0,1,2.31-2.31h100A2.33,2.33,0,0,1-5025.12,144.2Z" transform="translate(6477 1615)"/><path class="cls-22" d="M-4920.5,144.31V541.69A52.31,52.31,0,0,1-4972.81,594a52.3,52.3,0,0,1-52.31-52c0-.11,0-.23,0-.34V144.31a.37.37,0,0,1,0-.11,2.31,2.31,0,0,1,2.31-2.2h100A2.32,2.32,0,0,1-4920.5,144.31Z" transform="translate(6477 1615)"/><path class="cls-14" d="M-4815.88,144.31V541.69A52.31,52.31,0,0,1-4868.19,594a52.31,52.31,0,0,1-52.31-52.31V144.31a2.32,2.32,0,0,1,2.31-2.31h100A2.31,2.31,0,0,1-4815.88,144.31Z" transform="translate(6477 1615)"/><path class="cls-22" d="M-4711.25,144.31V541.69A52.31,52.31,0,0,1-4763.56,594a52.31,52.31,0,0,1-52.31-52.31V144.31a2.31,2.31,0,0,1,2.31-2.31h100A2.32,2.32,0,0,1-4711.25,144.31Z" transform="translate(6477 1615)"/><path class="cls-14" d="M-4606.62,144.31V541.69A52.32,52.32,0,0,1-4658.94,594a52.31,52.31,0,0,1-52.31-52.31V144.31a2.32,2.32,0,0,1,2.31-2.31h100A2.32,2.32,0,0,1-4606.62,144.31Z" transform="translate(6477 1615)"/><path class="cls-22" d="M-4502,144.31V541.69A52.31,52.31,0,0,1-4554.31,594a52.31,52.31,0,0,1-52.31-52.31V144.31a2.31,2.31,0,0,1,2.31-2.31h100A2.32,2.32,0,0,1-4502,144.31Z" transform="translate(6477 1615)"/><path class="cls-21" d="M-4815.88,540v1.69A52.31,52.31,0,0,1-4868.19,594a52.31,52.31,0,0,1-52.31-52.31A52.31,52.31,0,0,1-4972.81,594a52.3,52.3,0,0,1-52.31-52,52.32,52.32,0,0,1-52.32,52,52.31,52.31,0,0,1-52.31-52.31A52.31,52.31,0,0,1-5182.06,594a52.32,52.32,0,0,1-51.81-45.07A52.33,52.33,0,0,1-5285.69,594,52.31,52.31,0,0,1-5338,541.69V540Z" transform="translate(6477 1615)"/><path class="cls-21" d="M-4502,540v1.69A52.31,52.31,0,0,1-4554.31,594a52.31,52.31,0,0,1-52.31-52.31A52.32,52.32,0,0,1-4658.94,594a52.31,52.31,0,0,1-52.31-52.31A52.31,52.31,0,0,1-4763.56,594a52.31,52.31,0,0,1-52.31-52.31V540Z" transform="translate(6477 1615)"/><path class="cls-22" d="M-5445.25-138.22v76.83a4.47,4.47,0,0,1-.76,2.08,3.64,3.64,0,0,1-.24.35,7.14,7.14,0,0,1-1,1.17l-346.2,313.31c-1.7,1.53-3.37,3-5,4.29l-1.3,1c.43-.45.86-.89,1.3-1.32v-79.6c1.64-1.65,3.32-3.25,5-4.78l346.2-313.32a3.13,3.13,0,0,1,1-.66C-5445.65-139.07-5445.25-138.87-5445.25-138.22Z" transform="translate(6477 1615)"/><path class="cls-22" d="M-5445.25-299v76.83a4.8,4.8,0,0,1-1,2.43,6.82,6.82,0,0,1-.92,1.08.76.76,0,0,1-.09.09l-346.2,313.32-.3.26c-1.59,1.43-3.16,2.78-4.71,4V19.17c1.64-1.65,3.32-3.25,5-4.78l346.2-313.32a3.13,3.13,0,0,1,1-.66C-5445.65-299.83-5445.25-299.63-5445.25-299Z" transform="translate(6477 1615)"/><path class="cls-22" d="M-4394.77-140.22v76.83a4,4,0,0,0,.93,2.08,3,3,0,0,0,.29.35,8,8,0,0,0,1.23,1.17l422.18,313.31c2.07,1.53,4.11,3,6.11,4.29.53.36,1.06.7,1.58,1-.52-.45-1.05-.89-1.58-1.32v-79.6c-2-1.65-4-3.25-6.11-4.78l-422.18-313.32a3.94,3.94,0,0,0-1.23-.66C-4394.28-141.07-4394.77-140.87-4394.77-140.22Z" transform="translate(6477 1615)"/><path class="cls-22" d="M-4394.77-301v76.83a4.37,4.37,0,0,0,1.22,2.43,7.64,7.64,0,0,0,1.12,1.08l.11.09,422.18,313.32.36.26c1.94,1.43,3.86,2.78,5.75,4V17.17c-2-1.65-4-3.25-6.11-4.78l-422.18-313.32a3.94,3.94,0,0,0-1.23-.66C-4394.28-301.83-4394.77-301.63-4394.77-301Z" transform="translate(6477 1615)"/></svg>