<svg id="TallHouse" xmlns="http://www.w3.org/2000/svg" viewBox="0 0 720.01 1646.68"><defs><style>.cls-1{opacity:0.31;}.cls-2{fill:#957552;}.cls-3{fill:#d1b08a;}.cls-4{fill:#a67c52;}.cls-5{fill:#c69c6d;}.cls-6{fill:#f15a24;}.cls-7{fill:#12b2b2;}.cls-8{fill:#a0e0e0;}.cls-9{fill:#4d4d4d;}.cls-10{fill:#999;}.cls-11{fill:#666;}</style></defs><title>TownBuilding4</title><g id="Stand"><polygon class="cls-1" points="45.23 1627.51 674.78 1627.51 598.88 1336.36 118.93 1344.82 45.23 1627.51"/><rect class="cls-2" x="574.37" y="618.64" width="49.02" height="735.16" rx="24.51"/><rect class="cls-2" x="96.62" y="618.64" width="49.02" height="735.16" rx="24.51"/><rect class="cls-3" x="20.72" y="911.51" width="49.02" height="735.16" rx="24.51"/><rect class="cls-3" x="650.27" y="911.51" width="49.02" height="735.16" rx="24.51"/><rect class="cls-2" x="281.75" y="896.63" width="517.93" height="59.23" transform="translate(-401.43 349.51) rotate(-14.96)"/><rect class="cls-4" y="346.19" width="720.01" height="619.96"/><rect class="cls-5" y="333.75" width="720.01" height="619.96"/><rect class="cls-3" x="201.75" y="885.62" width="677.94" height="59.23" transform="translate(-39.01 108.53) rotate(8.53)"/><rect class="cls-3" x="207.1" y="1114.21" width="667.24" height="59.23" transform="translate(-344.72 271.67) rotate(-8.55)"/></g><rect class="cls-3" x="91.92" y="533.24" width="536.17" height="333.96"/><rect class="cls-6" x="449.28" y="649.92" width="135.97" height="217.28" rx="24.72"/><rect class="cls-7" x="111.66" y="657.31" width="285.69" height="147.99"/><rect class="cls-8" x="162.58" y="657.31" width="183.83" height="147.99"/><rect class="cls-2" x="91.93" y="251.72" width="536.17" height="338.63"/><rect class="cls-3" x="20.72" y="561.31" width="49.02" height="350.21" rx="24.51"/><rect class="cls-3" x="650.27" y="561.31" width="49.02" height="350.21" rx="24.51"/><rect class="cls-3" x="334.73" y="324.06" width="50.55" height="244.57" rx="25.28"/><path class="cls-9" d="M495.79-120,196,49.61a30.09,30.09,0,0,0-15.29,26.2V410.56A30.11,30.11,0,0,0,225.24,437L525,273.66a30.12,30.12,0,0,0,15.7-26.44v-341A30.11,30.11,0,0,0,495.79-120Z" transform="translate(-180.71 178.6)"/><path class="cls-10" d="M540.72-101.54V231.15a26.12,26.12,0,0,1-13.78,23L219.23,419.37a26.15,26.15,0,0,1-38.51-23V64.76a26.17,26.17,0,0,1,13.71-23l307.71-166.3A26.15,26.15,0,0,1,540.72-101.54Z" transform="translate(-180.71 178.6)"/><path class="cls-11" d="M540.72,187.91h0a9.49,9.49,0,0,1-5,8.35L198.38,378.35A9.37,9.37,0,0,1,184.61,370h0a9.51,9.51,0,0,1,4.95-8.35L527,179.56A9.37,9.37,0,0,1,540.72,187.91Z" transform="translate(-180.71 178.6)"/><path class="cls-11" d="M540.72,99.14h0a9.49,9.49,0,0,1-5,8.35L198.38,289.58a9.37,9.37,0,0,1-13.77-8.35h0a9.51,9.51,0,0,1,4.95-8.35L527,90.79A9.37,9.37,0,0,1,540.72,99.14Z" transform="translate(-180.71 178.6)"/><path class="cls-11" d="M540.72,10.37h0a9.49,9.49,0,0,1-5,8.35L198.38,200.81a9.37,9.37,0,0,1-13.77-8.35h0a9.51,9.51,0,0,1,4.95-8.35L527,2A9.37,9.37,0,0,1,540.72,10.37Z" transform="translate(-180.71 178.6)"/><path class="cls-11" d="M540.72-78.4h0a9.49,9.49,0,0,1-5,8.35L198.38,112a9.37,9.37,0,0,1-13.77-8.35h0a9.51,9.51,0,0,1,4.95-8.35L527-86.75A9.37,9.37,0,0,1,540.72-78.4Z" transform="translate(-180.71 178.6)"/><path class="cls-9" d="M585.65-119.56,885.43,50a30.11,30.11,0,0,1,15.29,26.21V410.61a30.11,30.11,0,0,1-44.49,26.45l-299.79-163a30.11,30.11,0,0,1-15.72-26.45v-341A30.11,30.11,0,0,1,585.65-119.56Z" transform="translate(-180.71 178.6)"/><path class="cls-10" d="M540.72-101.12V231.56a26.14,26.14,0,0,0,13.78,23L862.21,419.78a26.14,26.14,0,0,0,38.51-23V65.18a26.12,26.12,0,0,0-13.71-23L579.3-124.12A26.15,26.15,0,0,0,540.72-101.12Z" transform="translate(-180.71 178.6)"/><path class="cls-11" d="M540.72,188.32h0a9.49,9.49,0,0,0,4.95,8.35L883.06,378.76a9.36,9.36,0,0,0,13.77-8.35h0a9.46,9.46,0,0,0-5-8.34L554.49,180A9.36,9.36,0,0,0,540.72,188.32Z" transform="translate(-180.71 178.6)"/><path class="cls-11" d="M540.72,99.55h0a9.49,9.49,0,0,0,4.95,8.35L883.06,290a9.36,9.36,0,0,0,13.77-8.35h0a9.46,9.46,0,0,0-5-8.34L554.49,91.21A9.36,9.36,0,0,0,540.72,99.55Z" transform="translate(-180.71 178.6)"/><path class="cls-11" d="M540.72,10.78h0a9.49,9.49,0,0,0,4.95,8.35L883.06,201.22a9.36,9.36,0,0,0,13.77-8.35h0a9.46,9.46,0,0,0-5-8.34L554.49,2.44A9.36,9.36,0,0,0,540.72,10.78Z" transform="translate(-180.71 178.6)"/><path class="cls-11" d="M540.72-78h0a9.49,9.49,0,0,0,4.95,8.35L883.06,112.45a9.36,9.36,0,0,0,13.77-8.35h0a9.46,9.46,0,0,0-5-8.34L554.49-86.33A9.36,9.36,0,0,0,540.72-78Z" transform="translate(-180.71 178.6)"/><rect class="cls-2" x="322.67" y="13.71" width="74.67" height="476.02" rx="30.06"/><rect class="cls-3" x="322.67" width="74.67" height="476.02" rx="37.34"/><rect class="cls-2" x="265.52" y="533.36" width="339.92" height="34.63" rx="17.31" transform="translate(88.5 47.19) rotate(24.64)"/><rect class="cls-5" x="271.46" y="522.78" width="328.03" height="34.63" rx="17.31" transform="translate(-333.95 351.6) rotate(-19.18)"/><rect class="cls-5" x="584.64" y="535.39" width="217.02" height="34.63" rx="17.31" transform="translate(-335.47 472.45) rotate(-21.59)"/><path class="cls-11" d="M793,683a9.06,9.06,0,0,0-9.06-9.06H297.53a9.05,9.05,0,0,0-9.06,9.06v61.41a9.19,9.19,0,0,0,18.38,0V692.06h78.84v52.36a9.2,9.2,0,0,0,18.39,0V692.06h78.84v52.36a9.19,9.19,0,1,0,18.38,0V692.06h78.84v52.36a9.2,9.2,0,0,0,18.39,0V692.06h78.84v52.36a9.19,9.19,0,0,0,18.38,0V692.06H774.6v52.36a9.19,9.19,0,0,0,9.19,9.19h0a9.2,9.2,0,0,0,9.19-9.19V683Z" transform="translate(-180.71 178.6)"/></svg>