<svg id="FlatBlue" xmlns="http://www.w3.org/2000/svg" viewBox="0 0 1425.05 1319.01"><defs><style>.cls-1{opacity:0.37;}.cls-2{fill:#957552;}.cls-3{fill:#d1b08a;}.cls-4{fill:#c69c6d;}.cls-5{fill:#494285;}.cls-6{fill:#6d689d;}.cls-7{fill:#a0e0e0;}</style></defs><title>TownBuildng2</title><rect class="cls-1" x="732.38" y="912.33" width="437.73" height="387.91"/><rect class="cls-2" x="169.65" y="498.09" width="637.28" height="630.63"/><path class="cls-3" d="M2831.13,960.4V1466h-74.56v-2.25c0-47.24-28.16-85.55-62.88-85.55h-33.94c-34.73,0-62.88,38.31-62.88,85.55V1466h-403V1092.7c0-73.06,43.54-132.3,97.25-132.3Z" transform="translate(-2024.2 -147)"/><rect class="cls-4" x="54.91" y="580.13" width="59.23" height="738.89" rx="29.62"/><rect class="cls-4" x="3241.67" y="883.8" width="59.23" height="589.82" rx="29.62" transform="translate(-1530.06 -1060.68) rotate(17.18)"/><rect class="cls-2" x="3241.67" y="506.25" width="59.23" height="589.82" rx="29.62" transform="translate(-1641.58 -1077.53) rotate(17.18)"/><path class="cls-5" d="M3270.15,1023.75,2150.64,816.86c-73.11-13.51-126.44-61.36-126.44-113.43V276.79c0-66.59,85.61-111.76,179.09-94.48L3322.8,389.2c73.11,13.51,126.44,61.36,126.44,113.44V929.28C3449.24,995.87,3363.63,1041,3270.15,1023.75Z" transform="translate(-2024.2 -147)"/><path class="cls-6" d="M3449.24,471V897.66a75.87,75.87,0,0,1-1.57,15.39c-4,19.06-15.2,35.85-31.56,49.25-33.41,27.34-88.18,40.52-146,29.84L2150.64,785.25c-57.83-10.69-103.28-42.85-119.75-81.61a81,81,0,0,1-6.69-31.83V245.17A76.64,76.64,0,0,1,2036.92,203c12.38-19.11,33.1-34.43,58.78-44.18,30.68-11.66,68.44-15.38,107.59-8.14L3322.8,357.59c40.26,7.44,74.53,25.3,97.19,48.54,17.35,17.79,27.89,38.73,29.12,60.58C3449.2,468.15,3449.24,469.59,3449.24,471Z" transform="translate(-2024.2 -147)"/><path class="cls-2" d="M2756.57,1258.33v205.59c0-44-27.64-79.62-61.75-79.62H2661.5c-34.11,0-61.75,35.65-61.75,79.62V1258.33c0-44,27.64-79.62,61.75-79.62h33.32C2728.93,1178.71,2756.57,1214.35,2756.57,1258.33Z" transform="translate(-2024.2 -147)"/><rect class="cls-7" x="228.27" y="949.75" width="230.97" height="230.97" rx="67.33"/><rect class="cls-4" x="2200.23" y="1170.33" width="329.87" height="36.97" rx="18.48" transform="translate(-1112.92 -1170.31) rotate(30)"/><path class="cls-5" d="M3449.11,466.71,2036.92,203c12.38-19.11,33.1-34.43,58.78-44.18L3420,406.13C3437.34,423.92,3447.88,444.86,3449.11,466.71Z" transform="translate(-2024.2 -147)"/><polygon class="cls-5" points="1425.04 431.84 1425.04 486.99 0 220.89 0 165.74 1425.04 431.84"/><polygon class="cls-5" points="1425.04 599.09 1425.04 654.24 0 388.14 0 332.99 1425.04 599.09"/><path class="cls-5" d="M3447.67,913.05c-4,19.06-15.2,35.85-31.56,49.25L2030.89,703.64a81,81,0,0,1-6.69-31.83V647.24Z" transform="translate(-2024.2 -147)"/></svg>