<svg id="TarpCover" xmlns="http://www.w3.org/2000/svg" viewBox="0 0 1542.03 1150.34"><defs><style>.cls-1{opacity:0.35;}.cls-2{fill:#957552;}.cls-3{fill:#c69c6d;}.cls-4{fill:#955916;}.cls-5{fill:#c6771e;}</style></defs><title>TownBouilding1</title><path class="cls-1" d="M3803.41,1416.9l848,138.27a35.74,35.74,0,0,0,40.31-26.19q35.72-136,71.44-271.92a35.73,35.73,0,0,0-39.71-44.44L3804,1346.27C3763.58,1352.15,3763.08,1410.33,3803.41,1416.9Z" transform="translate(-3498.62 -405.29)"/><rect class="cls-2" x="4820" y="557.23" width="69.45" height="758.99" rx="34.72" transform="translate(-2596.08 -2439.44) rotate(26.01)"/><rect class="cls-3" x="3681.12" y="370.5" width="69.45" height="1061.27" rx="34.72" transform="translate(-3569.49 1025.34) rotate(-21.59)"/><rect class="cls-3" x="4775.45" y="809.12" width="69.45" height="752.11" rx="34.72" transform="translate(-2261.59 -2651.6) rotate(30)"/><path class="cls-4" d="M5017.21,590.76c-41.29,75.07-190.46,324.08-473.87,400.34-362.72,97.6-804.52-125.67-1022.76-571.79a2265.34,2265.34,0,0,0,721.94,213l-28.27,73.09,99.67-65.68.65.06A2259.61,2259.61,0,0,0,5017.21,590.76Z" transform="translate(-3498.62 -405.29)"/><path class="cls-5" d="M5000.87,852.2c-16.48,15.06-391.76,345.69-874.21,196.09-472.47-146.51-599.53-614.59-606.08-640.55,136.36,110.53,382.55,281,732.72,379.1,58.93,16.5,116.31,29.69,171.74,40.11l-5.45,66.13,49.3-58.37q17,2.81,33.67,5.27l-38.2,98.77,132.14-87.08A2040.43,2040.43,0,0,0,5000.87,852.2Z" transform="translate(-3498.62 -405.29)"/></svg>