<svg id="SmallShack" xmlns="http://www.w3.org/2000/svg" viewBox="0 0 422.81 1317.06"><defs><style>.cls-1{fill:#957552;}.cls-2{fill:#d1b08a;}.cls-3{fill:#c69c6d;}.cls-4{fill:#9e005d;}.cls-5{fill:#c1272d;}</style></defs><title>TownBuilding3</title><rect class="cls-1" x="88.85" y="268.88" width="333.96" height="626.09"/><path class="cls-2" d="M1739.85,1039.09v423.43h-68.94v-24.94a49.89,49.89,0,0,0-49.88-49.89h-96.31a49.89,49.89,0,0,0-49.89,49.89v24.94h-68.94V962h256.83A77.14,77.14,0,0,1,1739.85,1039.09Z" transform="translate(-1317.04 -145.46)"/><rect class="cls-3" x="1647.93" y="664.29" width="59.23" height="273.75" rx="29.62" transform="translate(-1394.47 42.45) rotate(-6.27)"/><path class="cls-4" d="M1341.27,392.77,1648.75,174c38.18-27.17,91.1.12,91.1,47V703.09a57.67,57.67,0,0,1-24.23,47L1408.14,968.88c-38.18,27.17-91.1-.13-91.1-47V439.75A57.65,57.65,0,0,1,1341.27,392.77Z" transform="translate(-1317.04 -145.46)"/><path class="cls-5" d="M1739.85,200.88V663.49a54.63,54.63,0,0,1-24.24,45.07L1408.13,918.5c-25.83,17.64-58.41,11.35-76.77-8.49A53.19,53.19,0,0,1,1317,873.43V410.82a54.66,54.66,0,0,1,24.24-45.07l307.48-209.94a59.22,59.22,0,0,1,65.82-.71,53.82,53.82,0,0,1,25.27,45.78Z" transform="translate(-1317.04 -145.46)"/><path class="cls-1" d="M1670.91,1247.5v190.08a49.89,49.89,0,0,0-49.88-49.89h-96.31a49.89,49.89,0,0,0-49.89,49.89V1247.5a58.68,58.68,0,0,1,58.69-58.68h78.72A58.68,58.68,0,0,1,1670.91,1247.5Z" transform="translate(-1317.04 -145.46)"/><path class="cls-4" d="M1738.74,189.85,1317,474.61V423.54L1714.58,155.1A54.44,54.44,0,0,1,1738.74,189.85Z" transform="translate(-1317.04 -145.46)"/><polygon class="cls-4" points="422.8 289.29 0 574.8 0 625.86 422.8 340.35 422.8 289.29"/><polygon class="cls-4" points="422.8 140.93 422.8 191.99 0 477.5 0 426.44 422.8 140.93"/><path class="cls-4" d="M1739.85,583.1v51.07L1331.36,910A53.19,53.19,0,0,1,1317,873.43v-4.82Z" transform="translate(-1317.04 -145.46)"/></svg>