<svg id="WaterTower" xmlns="http://www.w3.org/2000/svg" viewBox="0 0 1913.5 3028.29"><defs><style>.cls-1{fill:#994a48;}.cls-2{fill:#aa5350;}.cls-3{fill:#803e3c;}.cls-4{fill:#602f2d;}.cls-5{fill:#6e414d;}.cls-6{fill:#e36f6b;}.cls-7{fill:#7d3c42;}.cls-8{fill:#ca635f;}.cls-9{fill:#7d4045;}.cls-10{fill:#b15753;}.cls-11{fill:#85413e;}.cls-12{fill:#9b6b68;}.cls-13{fill:#c29291;}</style></defs><title>WashingPlace</title><path class="cls-1" d="M-5851.89,3650.85l-72-1308.7a30.7,30.7,0,0,0-32.34-29,30.71,30.71,0,0,0-29,32.35l20.8,377.87-503.85,210.52-494.83-206.75,21-381.64a30.72,30.72,0,0,0-29-32.35,30.7,30.7,0,0,0-32.34,29l-72,1308.7a30.7,30.7,0,0,0,29,32.34,30.69,30.69,0,0,0,32.34-29l.09-1.71c.2-.07.41-.12.6-.2l550.08-219,550.08,219h0l.11,1.91a30.69,30.69,0,0,0,32.34,29A30.7,30.7,0,0,0-5851.89,3650.85Zm-168.44-445.27L-6463.4,3382l-443.45-176.52h400.19v.15Zm57-461.75,22,400.35h-23.82l-478.19-199.81Zm-51.8,400.35h-491.54V3144h-414.46l452.82-189.21Zm-949.13-396.58,470.94,196.77L-6971.15,3144h-14.93Zm-46.93,852.4,20.72-376.45,462.49,184.1Zm612.35-192.35,461.93-183.87,20.7,376Z" transform="translate(7233.5 -1105)"/><polygon class="cls-2" points="914.36 1533.69 914.36 1991.51 635.81 1910.35 635.81 1533.69 914.36 1533.69"/><path class="cls-3" d="M-6597.68,3346.47l278.54,81.16v416.08A158.62,158.62,0,0,1-6459.92,3927a158.59,158.59,0,0,1-137.76-83.26Z" transform="translate(7233.5 -1105)"/><polygon class="cls-4" points="914.36 1991.51 914.36 2322.63 635.81 2241.47 635.81 1910.35 914.36 1991.51"/><path class="cls-5" d="M-5873.57,2712.06c38,251.93-269.36,528.7-575.76,535.19-320.28,6.79-641.66-281.71-604.25-535.19,33.6-227.63,347.44-365.43,590-365.46C-6224.82,2346.57-5908.55,2480-5873.57,2712.06Z" transform="translate(7233.5 -1105)"/><path class="cls-1" d="M-5719.17,4094.16l-31.71-575.93-52-944.64-3.33-60.4a37.07,37.07,0,0,0-39.07-35,37.07,37.07,0,0,0-35,39.07l3.1,56.31,22,400.17-608.69,254.33-597.77-249.77,22.28-404.73,3.11-56.31a37.1,37.1,0,0,0-35-39.07,37.07,37.07,0,0,0-39.08,35l-3.33,60.4-52,944.64-31.7,575.93a37.08,37.08,0,0,0,35,39.07,37.07,37.07,0,0,0,39.07-35l.12-2.06c.23-.09.49-.15.71-.25l664.53-264.52,664.52,264.52h0l.12,2.31a37.07,37.07,0,0,0,39.07,35A37.1,37.1,0,0,0-5719.17,4094.16ZM-5853.8,2998.44l26.63,483.64h-28.76l-577.68-241.37Zm-62.56,483.64h-593.79v-.18h-500.71l547-228.56ZM-6494,3240.71l-577.24,241.19h-18L-7063,3003Zm-625.61,792,25-454.77,558.72,222.4Zm126.05-476.66h483.46v.18h587.5l-535.25,213.06Zm613.71,244.29,558-222.13,25,454.21Z" transform="translate(7233.5 -1105)"/><path class="cls-2" d="M-5802.89,2573.59h-74.28l22,400.17-608.69,254.33-597.77-249.77,22.28-404.73h-74.3l-52,944.64h1414.74ZM-7089.32,3481.9-7063,3003-6494,3240.71l-577.24,241.19Zm579.17.18v-.18h-500.71l547-228.56,547.47,228.74Zm654.22,0-577.68-241.37,579.81-242.27,26.63,483.64Z" transform="translate(7233.5 -1105)"/><ellipse class="cls-6" cx="780.06" cy="1468.03" rx="730.11" ry="452.24"/><rect class="cls-6" x="48.44" y="1391.39" width="1462.37" height="72.66"/><ellipse class="cls-2" cx="779.95" cy="1395.32" rx="730.11" ry="452.24"/><path class="cls-7" d="M-6444.27,2927.83c-183.87,0-356.87-44.44-487.14-125.13-63.78-39.5-113.92-85.6-149-137-36.68-53.73-55.28-110.89-55.28-169.91s18.6-116.19,55.28-169.91c35.11-51.42,85.25-97.52,149-137,130.27-80.7,303.27-125.14,487.14-125.14s356.87,44.44,487.14,125.14c63.78,39.5,113.91,85.6,149,137,36.68,53.72,55.28,110.89,55.28,169.91s-18.6,116.18-55.28,169.91c-35.12,51.42-85.25,97.52-149,137C-6087.4,2883.39-6260.41,2927.83-6444.27,2927.83Zm0-844.34c-370.36,0-671.67,185-671.67,412.28s301.31,412.28,671.67,412.28,671.66-185,671.66-412.28S-6073.91,2083.49-6444.27,2083.49Z" transform="translate(7233.5 -1105)"/><path class="cls-7" d="M-6444.27,2928.59c-184,0-357.15-44.48-487.54-125.25-63.87-39.56-114.08-85.73-149.25-137.24-36.77-53.85-55.42-111.16-55.42-170.33s18.65-116.49,55.42-170.34c35.17-51.5,85.38-97.68,149.25-137.23,130.39-80.77,303.53-125.25,487.54-125.25s357.15,44.48,487.54,125.25c63.86,39.55,114.08,85.73,149.25,137.23,36.77,53.85,55.42,111.16,55.42,170.34s-18.65,116.48-55.42,170.33c-35.17,51.51-85.39,97.68-149.25,137.24C-6087.12,2884.11-6260.27,2928.59-6444.27,2928.59Zm0-864.13c-183.73,0-356.59,44.4-486.75,125-63.68,39.45-113.74,85.48-148.79,136.81-36.6,53.59-55.15,110.61-55.15,169.48s18.55,115.89,55.15,169.48c35.05,51.33,85.11,97.36,148.79,136.81,130.16,80.62,303,125,486.75,125s356.59-44.4,486.74-125c63.69-39.45,113.75-85.48,148.8-136.81,36.6-53.59,55.15-110.62,55.15-169.48s-18.55-115.89-55.15-169.48c-35.05-51.33-85.11-97.36-148.8-136.81C-6087.68,2108.86-6260.55,2064.46-6444.27,2064.46Zm0,844.35c-370.78,0-672.42-185.29-672.42-413s301.64-413,672.42-413,672.42,185.29,672.42,413S-6073.5,2908.81-6444.27,2908.81Zm0-824.56c-369.94,0-670.91,184.6-670.91,411.52s301,411.52,670.91,411.52,670.91-184.61,670.91-411.52S-6074.33,2084.25-6444.27,2084.25Z" transform="translate(7233.5 -1105)"/><path class="cls-8" d="M-5878.61,2477v.21c0,142.27-133.61,265.21-327.35,323.28-76.24,22.86-161.79,35.68-252.16,35.68-114.57,0-221.37-20.58-311.29-56.13h0c-161.25-63.73-268.21-175.54-268.21-302.83V2477c.11-105.2,73.24-199.8,189.72-265.41h0c102.93-58,239.69-93.34,389.79-93.34,188,0,355.13,55.47,461,141.42C-5922.83,2319.93-5878.68,2395.25-5878.61,2477Z" transform="translate(7233.5 -1105)"/><path id="Above_Here" data-name="Above Here" class="cls-9" d="M-6444.27,2872.1c-187.85,0-364.6-45.41-497.7-127.85-65.15-40.36-116.38-87.46-152.25-140-37.47-54.88-56.48-113.29-56.48-173.59s19-118.7,56.48-173.58c35.87-52.54,87.1-99.64,152.25-140,133.1-82.44,309.85-127.84,497.7-127.84s364.6,45.4,497.69,127.84c65.16,40.36,116.38,87.46,152.25,140,37.48,54.88,56.48,113.29,56.48,173.58s-19,118.71-56.48,173.59c-35.87,52.53-87.09,99.63-152.25,140C-6079.67,2826.69-6256.42,2872.1-6444.27,2872.1Zm0-862.64c-378.38,0-686.21,189-686.21,421.21s307.83,421.21,686.21,421.21,686.21-189,686.21-421.21S-6065.89,2009.46-6444.27,2009.46Z" transform="translate(7233.5 -1105)"/><g id="Layer_67" data-name="Layer 67"><rect class="cls-6" x="1574.4" y="1124.95" width="339.1" height="339.1" rx="169.55"/><path class="cls-10" d="M-5341.19,2235.25a147.09,147.09,0,0,1-3,29.72,145.83,145.83,0,0,1-39.75,73.58,145.65,145.65,0,0,1-103.31,42.79h-470.8a145.94,145.94,0,0,1-50.72-9,146.19,146.19,0,0,1-95-126.42c-.27-3.51-.39-7.06-.39-10.63a145.64,145.64,0,0,1,42.78-103.3,145.62,145.62,0,0,1,103.31-42.79h470.8a144.61,144.61,0,0,1,19.64,1.32q3,.39,5.9.91a144.8,144.8,0,0,1,43.58,15.14s0,0,.05,0A146,146,0,0,1-5341.19,2235.25Z" transform="translate(7233.5 -1105)"/><path class="cls-9" d="M-5636.56,2381.34h-321.52a145.94,145.94,0,0,1-50.72-9l-95-126.42c-.27-3.51-.39-7.06-.39-10.63a145.64,145.64,0,0,1,42.78-103.3,145.62,145.62,0,0,1,103.31-42.79h102Z" transform="translate(7233.5 -1105)"/><rect class="cls-10" x="1597.1" y="985.68" width="292.17" height="423.88" rx="146.09"/><rect class="cls-9" x="1574.4" y="923.61" width="71.15" height="110.51" rx="35.58"/><path class="cls-11" d="M-5782.87,2083.71c-.35.72-.62,1.56-1,2.26.09-.29,1.78-4.94,1.19-2.73l-.09.31Z" transform="translate(7233.5 -1105)"/><path class="cls-11" d="M-5773.55,2068.14c-.07.12-.16.22-.24.34v0C-5776.62,2071.69-5771.29,2064.91-5773.55,2068.14Z" transform="translate(7233.5 -1105)"/><path class="cls-11" d="M-5754.08,2049.49a12.42,12.42,0,0,1-1.66,1.24c.42-.32,1.12-.77,1.6-1.2A.15.15,0,0,0-5754.08,2049.49Z" transform="translate(7233.5 -1105)"/><path class="cls-11" d="M-5721.26,2030.74l-.29.11c.09,0,.26-.12.55-.23l-.17.08Z" transform="translate(7233.5 -1105)"/><path class="cls-11" d="M-5720.4,2030.37a.89.89,0,0,1-.19.07l.22-.1.85-.37Z" transform="translate(7233.5 -1105)"/><path class="cls-11" d="M-5661.17,2014.65a6.21,6.21,0,0,0-1.17.14h0C-5663.76,2014.79-5664.85,2014.41-5661.17,2014.65Z" transform="translate(7233.5 -1105)"/><path class="cls-11" d="M-5590.78,2014.79l-.49-.11c.16,0,1.37.17,1.52.22l-.71-.07h-.06Z" transform="translate(7233.5 -1105)"/><path class="cls-11" d="M-5533.27,2030l-.36-.17c.12,0,.42.17.78.32l-.39-.14Z" transform="translate(7233.5 -1105)"/><path class="cls-11" d="M-5498.72,2049.27c.25.11,3.57,2.65.92.79l-.12-.09A6.87,6.87,0,0,1-5498.72,2049.27Z" transform="translate(7233.5 -1105)"/><path class="cls-11" d="M-5479.21,2068.14c-2.18-3.11,3.09,3.63.27.38a.1.1,0,0,1,0,0A3.85,3.85,0,0,1-5479.21,2068.14Z" transform="translate(7233.5 -1105)"/><path class="cls-11" d="M-5470,2083.24a3.28,3.28,0,0,1-.17-.6c.15,0,2.2,5,1.11,2.8-.28-.56-.52-1.15-.78-1.73l0-.09C-5470,2083.5-5470,2083.37-5470,2083.24Z" transform="translate(7233.5 -1105)"/><path class="cls-11" d="M-5418.16,2106.53a144.8,144.8,0,0,0-43.58-15.14q-2.92-.53-5.9-.91c.16.56.31,1.12.46,1.68l.09.36c.28,1.08.53,2.17.75,3.26.07.33.21,1.23.35,2a.28.28,0,0,1,0,.09v0c.06.59.12,1.12.14,1.38.1,1.66.15,3.33.16,5,0,2.54-.39,5.1-.5,7.63v0c0,.09,0,.16,0,.26-.32,1.62-.7,3.23-1.12,4.84-.68,2.56-1.58,5-2.42,7.55-.7,1.44-1.38,2.86-2.14,4.27-1.42,2.68-3,5.27-4.66,7.8-.79,1.18-1.62,2.33-2.42,3.48a.24.24,0,0,0-.06.08l-.61.71a122.57,122.57,0,0,1-13.78,13.94c-1.28,1.12-2.6,2.2-3.92,3.29l-.22.19h0l-.23.15c-3.13,2.2-6.22,4.41-9.46,6.45a189.21,189.21,0,0,1-19.6,10.77c-1.76.83-3.51,1.62-5.28,2.42l-.28.12h0l-.23.11c-.23.07-.48.18-.77.3q-6,2.4-12.14,4.46-11.88,4-24.12,6.76-6.33,1.43-12.71,2.55c-1.87.34-3.71.64-5.58.93-.6.09-1.22.21-1.86.32h-.06l-1.18.12c-9.4,1.08-18.82,1.8-28.28,2q-5.61.14-11.21.05h0q-8.79-.12-17.56-.76c-4.19-.3-8.37-.71-12.54-1.2l-1.34-.15h-.14a.15.15,0,0,0-.09,0l-.62-.1c-2.48-.4-5-.78-7.43-1.22a248,248,0,0,1-49-13.77c-.21-.09-.44-.18-.66-.29a5.55,5.55,0,0,1-.64-.24l-.75-.35a11.81,11.81,0,0,1,1.39.59c1.31.41,2.13.18-1.49-.62-1.48-.68-3-1.35-4.42-2q-5.49-2.61-10.81-5.56a200,200,0,0,1-18.25-11.66l-.23-.15a.05.05,0,0,1,0,0l-.2-.16c-1.32-1.09-2.64-2.17-3.92-3.29-2.52-2.18-4.94-4.44-7.28-6.81s-4.44-4.66-6.5-7.13c-.24-.3-.51-.67-.79-1l-.27-.38c-.68-.95-1.39-1.89-2-2.86-1.68-2.53-3.24-5.12-4.66-7.8-.68-1.25-1.33-2.53-1.94-3.83-.81-2.68-1.9-5.27-2.62-8-.37-1.41-.71-2.82-1-4.24-.06-.26-.1-.53-.15-.79,0-5.13-.12-10.21,0-15.36,0-.11,0-.2,0-.29.28-1.42.59-2.85,1-4.24.26-1,.59-2,.92-3h-48.61c-.33,1.91-.6,3.85-.83,5.8-3.63,31.64,10.54,62.18,31.88,84.81,24.53,26,58.56,42.69,92.51,52.47a297.61,297.61,0,0,0,73.32,11.26,304.18,304.18,0,0,0,48.14-2.38c38-4.93,76.05-15.71,108.25-37.12,27-18,51.26-43.67,59-76.08a103.94,103.94,0,0,0,2.71-18.27q.11-1.55.15-3.09S-5418.14,2106.53-5418.16,2106.53Zm-368.44-9.74c-.16,5.24-.33,2.09,0,0Z" transform="translate(7233.5 -1105)"/><path class="cls-9" d="M-5464.16,2042.25c0,2.91-.51,5.83-.52,8.73,0,.32,1-5.71.41-3.26-.19.8-.28,1.64-.44,2.45-.32,1.62-.69,3.24-1.12,4.84-.69,2.62-1.61,5.15-2.48,7.72-1.23,3.63,2.46-5.08.2-.46-.75,1.53-1.47,3.07-2.27,4.57q-2.15,4-4.67,7.79c-.86,1.28-1.77,2.53-2.65,3.79-2,2.8,3.5-4.23-.43.47a123.58,123.58,0,0,1-13.78,14c-1.29,1.12-2.61,2.18-3.92,3.27-4.06,3.4,2.95-2-.47.36-3.13,2.19-6.23,4.4-9.46,6.44a187.5,187.5,0,0,1-19.61,10.77c-1.75.83-3.52,1.61-5.27,2.42-3.9,1.78,4.33-1.72-1.31.53-4,1.6-8,3.09-12.12,4.46a249.49,249.49,0,0,1-24.13,6.75q-6.33,1.44-12.71,2.57c-1.86.32-3.71.63-5.57.92-1.21.19-2.52.47-3.75.56,1.9-.14,3.5-.43.65-.1-9.4,1.07-18.82,1.8-28.28,2s-19.22,0-28.8-.71q-6.29-.46-12.54-1.2c-6.22-.73,2.19.41-2.18-.28-2.48-.4-5-.77-7.44-1.21a248.39,248.39,0,0,1-49-13.78,17.51,17.51,0,0,0-2.35-.95c4.44,1,2.67,1.15,1.05.42s-3.53-1.59-5.27-2.42q-5.49-2.61-10.82-5.56a203.48,203.48,0,0,1-18.25-11.65c-3.44-2.42,4,3.33-.47-.36-1.32-1.08-2.64-2.15-3.92-3.27q-3.77-3.27-7.28-6.81t-6.5-7.15a17.83,17.83,0,0,0-1.71-2.09c-.11-.1,3,4.22,1.68,2.16-1-1.48-2.08-2.86-3.05-4.33q-2.52-3.78-4.67-7.79c-.7-1.31-1.37-2.64-2-4-.27-.57-.5-1.18-.79-1.73-1.33-2.49,1.75,4.89,1,2.19s-2-5.47-2.72-8.3c-.37-1.4-.7-2.81-1-4.23-.12-.61-.22-1.23-.35-1.83a15.68,15.68,0,1,0,.21,2c0-5.85-.15-11.61,0-17.46-.18,7.3-.4,3,0,.81.28-1.43.6-2.84,1-4.24.78-3,2.09-5.91,2.88-8.91.61-2.34-1.31,3-1.21,2.77.4-.71.7-1.57,1-2.31.54-1.15,1.11-2.29,1.7-3.42a91.52,91.52,0,0,1,5-8.36c.85-1.28,1.76-2.52,2.65-3.79,2.31-3.31-3.39,3.94,0,0,2.27-2.6,4.5-5.2,6.93-7.66s4.77-4.64,7.28-6.82q1.65-1.42,3.34-2.81a13.51,13.51,0,0,0,2.31-1.84c-.55.84-3.93,2.9-1.26,1a203.38,203.38,0,0,1,19-12q4.62-2.54,9.37-4.81c1.74-.84,3.5-1.65,5.26-2.43.78-.35,4.15-1.83,1-.47s.45-.17,1.06-.41a236.93,236.93,0,0,1,24-8.1q12.34-3.45,25-5.67c2.16-.39,4.33-.74,6.5-1.07a15.25,15.25,0,0,1,2.82-.42c-4.51-.29-2.29.29-.65.11,4.81-.55,9.63-1,14.46-1.38a307.6,307.6,0,0,1,56.11,1.38c4.45.5-4-.63,2.16.31q2.79.42,5.58.91,6.85,1.18,13.64,2.72a250.26,250.26,0,0,1,24.95,7q5.31,1.82,10.52,3.86a27.21,27.21,0,0,1,3.14,1.28s-4.26-1.88-1.82-.76c2,.92,4,1.8,6,2.75A186.77,186.77,0,0,1-5505.1,1982c2.79,1.78,5.49,3.67,8.19,5.58,4.77,3.37-2.68-2.29.51.34,1.5,1.23,3,2.46,4.49,3.73a136.82,136.82,0,0,1,14.21,14.48c3.41,4-2.24-3.24,0,0,.76,1.09,1.54,2.15,2.29,3.25a96.42,96.42,0,0,1,5,8.33c.7,1.32,1.37,2.65,2,4,.27.58.51,1.17.79,1.73,1.3,2.66-1.86-5-.95-2.19,1,3,2.09,5.87,2.87,8.91q.47,1.8.84,3.63c.19.92,1,6.31.4,1.73s0,.74.09,1.79c.12,1.67.16,3.33.18,5,.1,12.45,10.87,24.38,23.8,23.8s23.92-10.46,23.81-23.8c-.62-73.07-75-116.75-138.1-131.32-76.52-17.67-166.72-7.88-230,41.49-25.68,20-44.16,47.77-47.92,80.48-3.63,31.63,10.54,62.17,31.89,84.8,24.52,26,58.54,42.69,92.5,52.47a302.64,302.64,0,0,0,121.46,8.88c38-4.92,76.06-15.71,108.25-37.11,27-18,51.27-43.67,59-76.08a106.15,106.15,0,0,0,2.9-23.61c.11-12.46-11-24.38-23.81-23.81C-5453.35,2019-5464,2028.9-5464.16,2042.25Z" transform="translate(7233.5 -1105)"/><polygon class="cls-8" points="1771.71 883.08 1771.71 936.65 1633.63 936.65 1633.63 1015.81 1580.06 1015.81 1580.06 936.65 1441.38 936.65 1441.38 883.08 1580.06 883.08 1580.06 811.07 1633.63 811.07 1633.63 883.08 1771.71 883.08"/><path class="cls-8" d="M-5464.16,2013.68c0,2.91-.51,5.83-.52,8.73,0,.32,1-5.71.41-3.26-.19.8-.28,1.64-.44,2.45-.32,1.62-.69,3.24-1.12,4.84-.69,2.62-1.61,5.15-2.48,7.72-1.23,3.63,2.46-5.07.2-.46-.75,1.53-1.47,3.07-2.27,4.57q-2.15,4-4.67,7.79c-.86,1.29-1.77,2.53-2.65,3.79-2,2.8,3.5-4.23-.43.47a123.58,123.58,0,0,1-13.78,14c-1.29,1.12-2.61,2.18-3.92,3.27-4.06,3.4,2.95-2-.47.36-3.13,2.19-6.23,4.4-9.46,6.44a185.67,185.67,0,0,1-19.61,10.77c-1.75.83-3.52,1.61-5.27,2.42-3.9,1.78,4.33-1.72-1.31.53-4,1.6-8,3.09-12.12,4.46a249.49,249.49,0,0,1-24.13,6.75q-6.33,1.44-12.71,2.57c-1.86.33-3.71.63-5.57.92-1.21.19-2.52.47-3.75.56,1.9-.14,3.5-.43.65-.1-9.4,1.07-18.82,1.8-28.28,2s-19.22,0-28.8-.71q-6.29-.47-12.54-1.2c-6.22-.73,2.19.41-2.18-.28-2.48-.4-5-.77-7.44-1.21a247.71,247.71,0,0,1-49-13.78,17.51,17.51,0,0,0-2.35-1c4.44,1,2.67,1.15,1.05.42s-3.53-1.59-5.27-2.42q-5.49-2.61-10.82-5.55a203.58,203.58,0,0,1-18.25-11.66c-3.44-2.42,4,3.33-.47-.36-1.32-1.08-2.64-2.15-3.92-3.27q-3.77-3.27-7.28-6.81t-6.5-7.15a17.83,17.83,0,0,0-1.71-2.09c-.11-.1,3,4.22,1.68,2.16-1-1.48-2.08-2.86-3.05-4.33q-2.52-3.78-4.67-7.79c-.7-1.31-1.37-2.64-2-4-.27-.57-.5-1.18-.79-1.73-1.33-2.49,1.75,4.89,1,2.19s-2-5.47-2.72-8.3c-.37-1.4-.7-2.81-1-4.23-.12-.61-.22-1.22-.35-1.83a15.68,15.68,0,1,0,.21,2c0-5.84-.15-11.61,0-17.46-.18,7.3-.4,3,0,.81.28-1.42.6-2.84,1-4.24.78-3,2.09-5.91,2.88-8.91.61-2.34-1.31,3-1.21,2.77.4-.71.7-1.57,1-2.3.54-1.16,1.11-2.3,1.7-3.43a90,90,0,0,1,5-8.35c.85-1.29,1.76-2.53,2.65-3.8,2.31-3.31-3.39,3.94,0,0,2.27-2.6,4.5-5.2,6.93-7.66s4.77-4.64,7.28-6.82q1.65-1.42,3.34-2.81a13.51,13.51,0,0,0,2.31-1.84c-.55.85-3.93,2.9-1.26,1a205.47,205.47,0,0,1,19-12q4.62-2.54,9.37-4.81c1.74-.84,3.5-1.65,5.26-2.43.78-.35,4.15-1.83,1-.47s.45-.16,1.06-.41a234.41,234.41,0,0,1,24-8.09q12.34-3.46,25-5.68c2.16-.39,4.33-.74,6.5-1.07a15.25,15.25,0,0,1,2.82-.42c-4.51-.28-2.29.29-.65.11,4.81-.55,9.63-1,14.46-1.38a307.6,307.6,0,0,1,56.11,1.38c4.45.5-4-.63,2.16.31q2.79.42,5.58.91,6.85,1.19,13.64,2.72a250.26,250.26,0,0,1,24.95,7q5.31,1.82,10.52,3.86a27.21,27.21,0,0,1,3.14,1.28s-4.26-1.88-1.82-.76c2,.93,4,1.8,6,2.76a185,185,0,0,1,20.27,11.18c2.79,1.78,5.49,3.67,8.19,5.58,4.77,3.37-2.68-2.28.51.34,1.5,1.23,3,2.46,4.49,3.73a136.82,136.82,0,0,1,14.21,14.48c3.41,4-2.24-3.24,0,0,.76,1.09,1.54,2.15,2.29,3.25a96.42,96.42,0,0,1,5,8.33c.7,1.32,1.37,2.65,2,4,.27.57.51,1.16.79,1.73,1.3,2.65-1.86-5-.95-2.2,1,3,2.09,5.87,2.87,8.91q.47,1.8.84,3.63c.19.93,1,6.31.4,1.73s0,.74.09,1.79c.12,1.67.16,3.34.18,5,.1,12.45,10.87,24.38,23.8,23.81s23.92-10.47,23.81-23.81c-.62-73.07-75-116.75-138.1-131.32-76.52-17.67-166.72-7.88-230,41.49-25.68,20-44.16,47.77-47.92,80.48-3.63,31.63,10.54,62.17,31.89,84.8,24.52,26,58.54,42.69,92.5,52.47a302.64,302.64,0,0,0,121.46,8.88c38-4.92,76.06-15.71,108.25-37.11,27-18,51.27-43.67,59-76.08a106.15,106.15,0,0,0,2.9-23.61c.11-12.46-11-24.38-23.81-23.81C-5453.35,1990.45-5464,2000.33-5464.16,2013.68Z" transform="translate(7233.5 -1105)"/></g><rect id="UnderHere" class="cls-8" x="195.29" y="699.32" width="1159.6" height="672.63"/><path class="cls-9" d="M-5878.61,1804.32v186c-108.75,129.57-327.44,218.07-579.51,218.07-252.51,0-471.55-88.82-580.09-218.77V1804.32Z" transform="translate(7233.5 -1105)"/><path class="cls-12" d="M-5878.61,2232.74v244.42c0,142.27-133.61,265.21-327.35,323.28a226.54,226.54,0,0,1-59.54-70.38c-27-50-33.29-106.92-21.83-164.1-45.07,13.63-92.48-1.83-113-39.83a82.42,82.42,0,0,1-9.17-49.18c3.69-31.75,24.45-62.82,57.6-80.75,48.62-26.31,106.27-14.79,132.08,25.25,38.53-50.92,91.2-96.73,155.25-131.38a510.57,510.57,0,0,1,67.5-30.45A467.47,467.47,0,0,1-5878.61,2232.74Z" transform="translate(7233.5 -1105)"/><path class="cls-12" d="M-6577.35,2668c-43.3,65.6-114,103.84-192.06,112h0c-161.25-63.73-268.21-175.54-268.21-302.83V2477h-.57V2261.23a254,254,0,0,1,43.1-25.16c-15.91-23.47-18.8-51.64-4.86-72.77,19.84-30.08,66.26-34.44,103.67-9.75,22.1,14.58,36.1,36,39.78,57.37,2.86.17,5.74.37,8.6.62h0c54.38,4.53,109.94,23.06,160.53,56.44,78.74,52,129.15,129.11,145,209C-6529.21,2543-6539.72,2611-6577.35,2668Z" transform="translate(7233.5 -1105)"/><g id="Layer_66" data-name="Layer 66"><path class="cls-13" d="M-6754.76,2237.11v11.1c-3.6-.54-6.29.22-8.05,2.3s-2.65,5.57-2.65,10.46q0,37.91.07,75.8v3.95a15.45,15.45,0,0,0,.88,4.72,20.77,20.77,0,0,0,2.24,4.69,14.9,14.9,0,0,0,3.12,3.57,18.31,18.31,0,0,0,4.49,2.42c0,4.48,0,6.72,0,11.2a73.11,73.11,0,0,1-30.82-19.06c-7.19-7.37-14.23-18.19-17.33-27.92a120.52,120.52,0,0,1-5.85-34.78,68.51,68.51,0,0,1,3.74-24.49,39.7,39.7,0,0,1,10.95-17,37.36,37.36,0,0,1,17.46-8.49,39.17,39.17,0,0,1,19.63.76Zm7.26,13.35v-11.1q4.5,2.05,7.3,3.68c1.87,1.09,5.26,3.25,10.16,6.35a31.64,31.64,0,0,0,6.26,3.37,3.39,3.39,0,0,0,4.05-1.3l1.2-1.88q1.11-1.92,4.15-1.12a6.71,6.71,0,0,1,3.82,2.46,7.66,7.66,0,0,1,1.34,4.66l0,38.17c0,2.45-.55,4.08-1.65,4.9a4.27,4.27,0,0,1-3.78.67,6.29,6.29,0,0,1-3.55-2.36,14.45,14.45,0,0,1-2.17-5.21,100,100,0,0,0-3.78-12.39,75.56,75.56,0,0,0-9-16.61,46.21,46.21,0,0,0-6.81-7.58A28.72,28.72,0,0,0-6747.5,2250.46Zm.38,119.1v-11.2a28,28,0,0,0,15.06-1.09,18.69,18.69,0,0,0,7.53-5,23,23,0,0,0,5-8.44,7.35,7.35,0,0,1,2.16-3.6,3.73,3.73,0,0,1,3.27-.38,6.5,6.5,0,0,1,3.69,2.61,7.5,7.5,0,0,1,1.48,4.51q0,4.13-3.18,9.18a31.1,31.1,0,0,1-8.14,8.68,30.18,30.18,0,0,1-12.46,5.59A34.5,34.5,0,0,1-6747.12,2369.56Z" transform="translate(7233.5 -1105)"/><path class="cls-13" d="M-6644.44,2392q-20.75-4.08-41.33-8.76l-2.4-.56a11.29,11.29,0,0,1-5.13-2.46,5.21,5.21,0,0,1-1.81-4c0-2.5,1.24-3.85,3.69-4.07,2-.18,3.22-.32,3.56-.39a2.1,2.1,0,0,0,1.06-.81c.74-.81,1.11-2.28,1.11-4.42l-.06-91.85a9.24,9.24,0,0,0-1.12-4.94,4,4,0,0,0-1.06-1.3c-.34-.23-1.53-.93-3.56-2.08a6.46,6.46,0,0,1-3.7-5.84,3.06,3.06,0,0,1,1.8-3.1c1.2-.54,2.91-.54,5.13,0l2.4.56q20.63,4.68,41.35,8.77l2.41.46a10.8,10.8,0,0,1,5.16,2.2,4.93,4.93,0,0,1,1.81,3.87,3.86,3.86,0,0,1-3.71,4.26c-2,.29-3.24.48-3.58.57a2.16,2.16,0,0,0-1.06.85c-.75.84-1.12,2.33-1.12,4.47l.06,91.85a8.89,8.89,0,0,0,1.11,4.89,3.94,3.94,0,0,0,1.07,1.26c.34.21,1.54.86,3.58,1.91a6.06,6.06,0,0,1,3.72,5.64,3.27,3.27,0,0,1-1.81,3.2,8.35,8.35,0,0,1-5.16.27Z" transform="translate(7233.5 -1105)"/><path class="cls-13" d="M-6623.69,2270.53c9.79,1.68,14.69,2.46,24.5,3.91,0,4.44,0,6.67,0,11.11a15.14,15.14,0,0,0-6.81,5.3,33.2,33.2,0,0,0-5.39,13.92c-.37,2.18-.56,3.27-.93,5.45a6.22,6.22,0,0,1-2,3.85,4.6,4.6,0,0,1-3.86.88,6.2,6.2,0,0,1-4-2.32,7.09,7.09,0,0,1-1.54-4.57Q-6623.67,2289.3-6623.69,2270.53Zm73.53,10,0,107.8q0,3.58,1.4,5.28a4.05,4.05,0,0,0,1.41,1.29c.43.19,1.88.76,4.3,1.56,2.94,1,4.49,2.77,4.49,5.46a4,4,0,0,1-2.43,3.63c-1.18.62-3.18.81-6,.53l-3.08-.3q-20.86-2.22-41.64-5l-3.08-.43a13.87,13.87,0,0,1-6.2-2.15,4.8,4.8,0,0,1-2.1-4c0-2.7,1.53-4.11,4.47-4.38,2.4-.22,3.85-.44,4.29-.53a2.4,2.4,0,0,0,1.31-1q1.39-1.35,1.39-4.94,0-53.9,0-107.81Q-6570.93,2278.34-6550.16,2280.55Zm32.37,2.77q0,18.76,0,37.53a5.64,5.64,0,0,1-1.54,4.2,4.85,4.85,0,0,1-4,1.36,5.77,5.77,0,0,1-3.89-1.81,8.2,8.2,0,0,1-2-4.34c-.37-2.27-.56-3.4-.94-5.67a41.55,41.55,0,0,0-5.43-15.24,22.93,22.93,0,0,0-6.83-6.95v-11.1C-6532.56,2282.23-6527.64,2282.63-6517.79,2283.32Z" transform="translate(7233.5 -1105)"/><path class="cls-13" d="M-6437,2353.74v40q0,3.57,1.4,5.13a3.47,3.47,0,0,0,1.41,1.13c.44.15,1.9.56,4.31,1.11,3,.66,4.5,2.29,4.5,5a4.43,4.43,0,0,1-2.53,4.07q-1.5.95-5.81,1l-3.19,0q-20.91,0-41.79-.58l-3.09-.11c-2.81-.11-4.79-.59-5.9-1.34a4.71,4.71,0,0,1-2.44-4c0-2.69,1.54-4.27,4.5-4.85,2.41-.48,3.87-.85,4.31-1a2.9,2.9,0,0,0,1.31-1.1q1.4-1.52,1.4-5.09v-31q-13.32-31.55-26.52-63.15a11.46,11.46,0,0,0-4.22-5.3,13.44,13.44,0,0,1-3.23-2.68,4.35,4.35,0,0,1-.7-2.62c0-3.18,2.37-4.6,7.11-4.32q23,1.23,45.92,1.74c2.44,0,4.13.33,5.06.89a4.46,4.46,0,0,1,2.35,3.88,5.06,5.06,0,0,1-2.72,4.56l-2.72,1.62a3.27,3.27,0,0,0-1.59,3,10.56,10.56,0,0,0,1,4.51Q-6448,2329-6437,2353.74Zm3.66-8.74-5.25-12c3.93-8.64,5.9-13,9.84-21.65a19.15,19.15,0,0,0,1.22-7.54c0-3.55-2-6-6-7.55a13.75,13.75,0,0,1-4.27-2.22,4,4,0,0,1-1-3,4.45,4.45,0,0,1,1.69-3.77,6.22,6.22,0,0,1,2.53-1.12,30.17,30.17,0,0,1,4.87-.33c9.26-.11,13.9-.22,23.15-.54,4.38-.15,6.57,1.47,6.56,4.9a4.28,4.28,0,0,1-.89,2.88,10.66,10.66,0,0,1-3.42,2.24,22.51,22.51,0,0,0-6.56,4.25,28.52,28.52,0,0,0-4.68,6.83l-2.16,4.73Q-6425.5,2328.09-6433.35,2345Z" transform="translate(7233.5 -1105)"/><path class="cls-13" d="M-6294.57,2283a15.74,15.74,0,0,0-6.72,5.41c-1.31,2.07-2,4.94-2,8.61l0,82c0,5.38.79,9.08,2.23,11.08,1.19,1.64,3.33,2.7,6.44,3.06,0,4,0,6.06,0,10.09-12.55.9-25.16-2.68-34.72-11-13.39-11.69-18.25-30.95-18.21-47.84,0-9.24,1.55-20.46,4.82-29.3a68.23,68.23,0,0,1,14.27-23.33,64,64,0,0,1,15.51-12.25,60.7,60.7,0,0,1,18.39-6.45Zm7.64-1.11c0-4,0-5.94,0-9.91a51.41,51.41,0,0,1,18.4,1.16,42.66,42.66,0,0,1,15.48,7.78c14.41,10.61,19,30.35,18.93,47.14-.06,18.65-5.73,38.86-18.14,53.09a65.24,65.24,0,0,1-34.73,21V2392.1a14,14,0,0,0,3.78-2,10.92,10.92,0,0,0,2.47-2.9q2.52-4.14,2.52-11.77l0-82q0-4.86-1.67-7.45a7.64,7.64,0,0,0-2.66-2.62A15.45,15.45,0,0,0-6286.93,2281.9Z" transform="translate(7233.5 -1105)"/><path class="cls-13" d="M-6172.18,2251.11q0,53.91-.08,107.82,0,3.57,1.38,4.77a2.37,2.37,0,0,0,1.38.79c.43,0,1.87.08,4.23,0,2.91-.07,4.42,1.17,4.42,3.86a6.07,6.07,0,0,1-2.4,4.5,14.42,14.42,0,0,1-5.8,2.65l-3.13.82q-20.55,5.23-41.21,9.88l-2.4.52a8.26,8.26,0,0,1-5.15-.13,3.18,3.18,0,0,1-1.8-3.15,6.27,6.27,0,0,1,3.71-5.75c2-1.09,3.23-1.78,3.57-2a4,4,0,0,0,1.06-1.29,9.14,9.14,0,0,0,1.12-4.92l.06-91.85q0-3.21-1.11-4.44a2.09,2.09,0,0,0-1.07-.82c-.33-.08-1.53-.24-3.56-.47a3.75,3.75,0,0,1-3.71-4.17,5.08,5.08,0,0,1,1.81-3.91,11.22,11.22,0,0,1,5.15-2.35l2.41-.52Q-6192.66,2256.32-6172.18,2251.11Zm7.6,64.78c0-4.26,0-6.39,0-10.64a34.83,34.83,0,0,0,8-7.72,25.13,25.13,0,0,0,3.73-9.16,14.81,14.81,0,0,1,1.94-5.36,6.06,6.06,0,0,1,3.4-2.29q2.94-.84,4,1.13c.43.67.64,2.42.64,5.23l0,35a14.84,14.84,0,0,1-1,6.24,5.33,5.33,0,0,1-3.54,2.67,3.53,3.53,0,0,1-3.31-.35,7.06,7.06,0,0,1-1.92-3.76q-1.65-5.88-4.5-8.48A10.13,10.13,0,0,0-6164.58,2315.89Zm.51-66.93q18.6-5,37-10.63l0,32a8.86,8.86,0,0,1-1.1,4.83,6.14,6.14,0,0,1-3.57,2.46,3.51,3.51,0,0,1-2.89-.1,5.08,5.08,0,0,1-1.79-2.72,27.42,27.42,0,0,0-3.57-7.21,19.85,19.85,0,0,0-4.95-5,19.59,19.59,0,0,0-8.27-3.25,36.89,36.89,0,0,0-10.86.31C-6164.07,2255.41-6164.07,2253.26-6164.07,2249Z" transform="translate(7233.5 -1105)"/><path class="cls-13" d="M-6940.14,2388.11c0,4.23,0,6.34,0,10.56-3.64-.81-6.42-.63-8.32.56s-2.86,3.37-2.85,6.55a20.23,20.23,0,0,0,2.39,9.26,49.64,49.64,0,0,0,7.76,10.53c2.48,2.67,8.07,8.2,16.82,16.44,5.32,5,9.46,9.1,12.39,12.41a89.24,89.24,0,0,1,8.33,11.1c6.25,9.46,10.51,20.48,10.56,31.89,0,7.87-1.89,14.26-5.68,19.06a21.38,21.38,0,0,1-15.65,8.11,40.13,40.13,0,0,1-11.65-1,50.54,50.54,0,0,1-11.81-4.17c0-4.18,0-6.28,0-10.46,5.12,1.29,8.82,1.32,11.09.14s3.4-3.73,3.4-7.65q0-6.13-5.33-13.43c-2.37-3.18-6.86-7.9-13.45-14.25-7.23-7-12.18-11.93-14.84-14.74a110.38,110.38,0,0,1-7.69-9c-9.59-11.66-16.31-26.73-16.5-41.74-.09-6.9,1.34-12.65,4.07-17.05a16.85,16.85,0,0,1,11.45-8C-6958.82,2381.81-6950.32,2383.51-6940.14,2388.11Zm-4.42,117.45,0,10.46q-7.23-3.7-15.93-12.61-3.26-3.28-4.48-4.41a12.41,12.41,0,0,0-2.37-1.73,4.89,4.89,0,0,0-2.63-.82,7.61,7.61,0,0,0-2.79,1.46,3,3,0,0,1-3.41.15q-4.89-2.7-4.9-10.6,0-16.71-.05-33.41a4.11,4.11,0,0,1,1.39-3.58c.93-.68,2.09-.66,3.49,0a7.29,7.29,0,0,1,3,2.8,19,19,0,0,1,1.89,5.39,103.72,103.72,0,0,0,5.84,17.92,96.38,96.38,0,0,0,8.93,16.39A49.27,49.27,0,0,0-6944.56,2505.56Zm11.42-103.39c0-4,0-6.06,0-10.09a82.49,82.49,0,0,1,9.21,6c2.6,2,6.3,5.16,11.11,9.51a13.42,13.42,0,0,0,2.93,2.12q1.69.8,2.49,0l2-1.74a2.87,2.87,0,0,1,3.47-.41,7,7,0,0,1,3.52,3.41,14.25,14.25,0,0,1,1.13,6.15l0,30.29c0,1.77-.48,3-1.46,3.68s-2.24.67-3.79,0a9.27,9.27,0,0,1-3.29-2.72,10.32,10.32,0,0,1-1.3-2.4,25.8,25.8,0,0,1-.94-4,56.58,56.58,0,0,0-3.39-10.86,79.67,79.67,0,0,0-5.61-11.2A62.21,62.21,0,0,0-6933.14,2402.17Z" transform="translate(7233.5 -1105)"/><path class="cls-13" d="M-6849.26,2455.1c1.85,8.34,2.78,12.51,4.62,20.84q-7.92,26.4-15.87,52.81a15,15,0,0,0-.71,4.47q0,5.79,5.32,10.45l3.15,2.75a7.59,7.59,0,0,1,3,5.8c0,3.06-2.18,3.71-6.56,1.91-9.14-3.75-13.7-5.68-22.8-9.64a14.1,14.1,0,0,1-5.24-3.72,7.34,7.34,0,0,1-1.93-4.75c0-1.77,1.32-2.65,3.94-2.67a19.27,19.27,0,0,0,5.41-.62,8.76,8.76,0,0,0,3.36-2.17,20.44,20.44,0,0,0,4.11-8.25Q-6859.36,2488.71-6849.26,2455.1Zm6.2-20.83q18.12,7.17,36.49,13.72,12.66,58.26,25.42,116.5a44.18,44.18,0,0,0,1.65,5.59,10.09,10.09,0,0,0,3.65,4,14.75,14.75,0,0,1,3.29,3.08,5.26,5.26,0,0,1,.92,3c0,3.18-2.38,4-7.12,2.47-15.24-5-30.35-10.32-45.36-15.93a10.23,10.23,0,0,1-4.35-3,6.4,6.4,0,0,1-1.63-4.15,3.29,3.29,0,0,1,.72-2.48,7.09,7.09,0,0,1,3.26-1.06,4.08,4.08,0,0,0,2.53-1.06,3.7,3.7,0,0,0,.72-2.49,14,14,0,0,0-.27-2.85c-1.17-5.76-1.75-8.63-2.91-14.39-10.1-3.81-15.14-5.78-25.2-9.85,1-4,1.46-6,2.42-9.94,8.08,3.24,12.12,4.83,20.23,7.91q-8.37-40.54-16.7-81.08C-6844.41,2439.13-6844,2437.51-6843.06,2434.27Z" transform="translate(7233.5 -1105)"/><path class="cls-13" d="M-6750.77,2498.43c3.89,7.62,5.84,11.42,9.74,19q0,24.6,0,49.19a26.76,26.76,0,0,0,2.16,11.17,25.22,25.22,0,0,0,6.85,8.72l2.76,2.33a6.12,6.12,0,0,1,2.39,4.78,3.12,3.12,0,0,1-1.74,3c-1,.51-3,.37-6.06-.5-8.49-2.39-12.73-3.63-21.19-6.19-5.55-1.69-8.33-4.15-8.33-7.34a2.82,2.82,0,0,1,.87-2.34,11.49,11.49,0,0,1,3.79-1.44c5.86-1.45,8.78-6.49,8.78-15.05Zm38.49-21.48q24.34,48.28,49.21,96.31l0,40.47c-10.12-2.13-15.17-3.26-25.26-5.63q-31.71-61.79-62.57-124a43.37,43.37,0,0,0-3.31-5.85,11.53,11.53,0,0,0-3.29-3l-3.48-2.35a6.64,6.64,0,0,1-2.2-2.33,5.87,5.87,0,0,1-.83-2.92,4.22,4.22,0,0,1,.82-2.64,3.06,3.06,0,0,1,2.2-1.2c1-.1,3.84.55,8.42,1.92Q-6732.48,2471.61-6712.28,2477Zm49.2,81.63c-3.93-7.4-5.89-11.1-9.82-18.54,0-10.16,0-15.25,0-25.41q0-7.71-2.27-12.29c-1.52-3.06-4.19-6-8-8.83a9.5,9.5,0,0,1-2.68-2.59,5.42,5.42,0,0,1-.74-2.88c0-1.66.53-2.74,1.61-3.25s2.82-.5,5.23.05c9.25,2.09,13.88,3.09,23.15,5,3.15.64,5.22,1.57,6.21,2.72a5.73,5.73,0,0,1,1.58,3.79,3.51,3.51,0,0,1-.88,2.72,12.57,12.57,0,0,1-4.22,1.77,12.09,12.09,0,0,0-7.41,6.1c-1.18,2.24-1.75,5.54-1.75,9.82Q-6663.08,2537.67-6663.08,2558.58Z" transform="translate(7233.5 -1105)"/><path class="cls-13" d="M-6641.23,2492.84c9.77,1.85,14.66,2.71,24.45,4.33,0,4.44,0,6.66,0,11.1a14.75,14.75,0,0,0-6.79,5.19,32.52,32.52,0,0,0-5.39,13.83c-.37,2.17-.55,3.26-.92,5.43a6.08,6.08,0,0,1-2,3.82,4.5,4.5,0,0,1-3.85.81,6.3,6.3,0,0,1-3.95-2.38,7.19,7.19,0,0,1-1.54-4.6Zm73.39,11.25,0,107.81c0,2.38.47,4.15,1.41,5.3a4,4,0,0,0,1.4,1.31c.43.2,1.88.79,4.29,1.63,2.94,1,4.48,2.85,4.48,5.54a3.84,3.84,0,0,1-2.42,3.59c-1.18.59-3.18.75-6,.43l-3.08-.36q-20.84-2.57-41.57-5.73l-3.07-.49a13.73,13.73,0,0,1-6.18-2.25,4.88,4.88,0,0,1-2.1-4.06c0-2.7,1.53-4.09,4.46-4.31,2.39-.18,3.85-.37,4.28-.45a2.35,2.35,0,0,0,1.31-.94q1.4-1.34,1.39-4.92l-.05-107.81Q-6588.57,2501.53-6567.84,2504.09Zm32.33,3.32q0,18.77,0,37.52a5.62,5.62,0,0,1-1.54,4.18,4.77,4.77,0,0,1-4,1.29,5.82,5.82,0,0,1-3.88-1.88,8.3,8.3,0,0,1-2-4.37c-.37-2.27-.56-3.41-.93-5.69a42.53,42.53,0,0,0-5.43-15.32,23.34,23.34,0,0,0-6.82-7.06V2505C-6550.27,2506.06-6545.35,2506.55-6535.51,2507.41Z" transform="translate(7233.5 -1105)"/><path class="cls-13" d="M-6492.93,2533.57c1.91,7.69,2.86,11.53,4.78,19.21l-16.56,58.44a16.57,16.57,0,0,0-.75,4.72q0,5.79,5.52,8.57l3.28,1.64a5,5,0,0,1,3.09,4.74c0,3.06-2.28,4.49-6.84,4.24-9.5-.52-14.26-.83-23.76-1.55a9.87,9.87,0,0,1-5.47-1.86,5,5,0,0,1-2-4.06c0-1.78,1.38-3.12,4.11-4.07a27.13,27.13,0,0,0,5.66-2.55,14.71,14.71,0,0,0,3.51-3.37,29.87,29.87,0,0,0,4.3-9.7Q-6503.48,2570.77-6492.93,2533.57Zm6.46-23q18.86.78,37.74.88,13,53.82,26,107.63a31.83,31.83,0,0,0,1.69,5c.52,1.13,1.85,2,3.74,2.76a9.26,9.26,0,0,1,3.38,1.93,3.83,3.83,0,0,1,.93,2.73c0,3.18-2.43,4.85-7.3,5-15.58.35-31.16.3-46.73,0a7.14,7.14,0,0,1-4.5-1.44,4.42,4.42,0,0,1-1.69-3.58,4.2,4.2,0,0,1,.75-2.73,10.94,10.94,0,0,1,3.38-2.21,6.67,6.67,0,0,0,2.62-1.95,4.73,4.73,0,0,0,.75-2.74,12,12,0,0,0-.29-2.76c-1.19-5.35-1.79-8-3-13.37-10.45-.26-15.68-.45-26.13-1,1-4.32,1.52-6.48,2.53-10.8,8.39.39,12.58.55,21,.77q-8.62-37.59-17.23-75.2C-6487.88,2515.89-6487.41,2514.11-6486.47,2510.55Z" transform="translate(7233.5 -1105)"/><path class="cls-13" d="M-6305.95,2500.11v11.1a13.63,13.63,0,0,0-8.22,5.81c-1.8,2.85-2.71,6.71-2.71,11.61l0,75.78v4a11.7,11.7,0,0,0,.89,4.34,12,12,0,0,0,2.28,3.72,7.9,7.9,0,0,0,3.18,2.22,13.1,13.1,0,0,0,4.56.47v11.2c-11,.38-21.78.29-31.45-5.66a45.8,45.8,0,0,1-17.76-20.36c-4.65-10.19-5.68-21.48-6-32.23a80.39,80.39,0,0,1,3.88-26.14,68.63,68.63,0,0,1,11.28-21.75,69.06,69.06,0,0,1,17.9-16.1q10.41-6.54,20-7.78Zm7.36,10.21c0-4.44,0-6.66,0-11.1a65.06,65.06,0,0,1,7.41.52c1.89.28,5.34,1,10.29,2a22.73,22.73,0,0,0,6.33.66,5.49,5.49,0,0,0,4.1-3.05l1.21-2.4a5.22,5.22,0,0,1,4.19-2.9,4.36,4.36,0,0,1,3.86.8,5.33,5.33,0,0,1,1.34,4.08q0,19.09,0,38.17a8.37,8.37,0,0,1-1.67,5.61,6.41,6.41,0,0,1-3.82,2.31,4.1,4.1,0,0,1-3.58-.83,8.85,8.85,0,0,1-2.18-4.27,67.44,67.44,0,0,0-3.81-10.76,42.35,42.35,0,0,0-9.12-12.72,25.18,25.18,0,0,0-6.89-4.63A19.14,19.14,0,0,0-6298.59,2510.32Zm.24,119V2618.1q7.28-1.56,15.28-7.62a35.32,35.32,0,0,0,7.64-8.3,39,39,0,0,0,5-10.58,12.52,12.52,0,0,1,2.19-4.54,5.42,5.42,0,0,1,3.3-1.79,4.14,4.14,0,0,1,3.72,1,5,5,0,0,1,1.48,3.87q0,4.13-3.21,10.55a58,58,0,0,1-8.24,12.21,54.27,54.27,0,0,1-12.61,11A42.87,42.87,0,0,1-6298.35,2629.29Z" transform="translate(7233.5 -1105)"/><path class="cls-13" d="M-6195.14,2482.29q0,53.89-.07,107.81,0,3.58,1.38,4.81a2.44,2.44,0,0,0,1.38.82c.43,0,1.88.12,4.25.11,2.91,0,4.42,1.27,4.42,4a5.93,5.93,0,0,1-2.4,4.45,14.11,14.11,0,0,1-5.81,2.51l-3.14.75q-20.59,4.78-41.29,9l-2.41.47a8.2,8.2,0,0,1-5.15-.25,3.25,3.25,0,0,1-1.81-3.19,6.12,6.12,0,0,1,3.72-5.66c2-1,3.23-1.71,3.57-1.93a3.72,3.72,0,0,0,1.07-1.26,9,9,0,0,0,1.12-4.9q0-45.91.05-91.85c0-2.14-.37-3.62-1.11-4.46a2.15,2.15,0,0,0-1.07-.84c-.34-.09-1.54-.28-3.57-.55a3.84,3.84,0,0,1-3.71-4.25,5,5,0,0,1,1.81-3.88,11,11,0,0,1,5.15-2.23l2.41-.47Q-6215.67,2487-6195.14,2482.29Zm28.27,56.74a79.49,79.49,0,0,1,13-.71,24,24,0,0,1,8.21,1.9,12.93,12.93,0,0,1,5.92,5.07,14.48,14.48,0,0,1,2,7.74c0,7.6,0,11.4,0,19,0,2,.63,2.75,1.92,2.36a2.58,2.58,0,0,0,1.24-.78,16.36,16.36,0,0,0,1.42-2c1.53-2.54,3.08-4,4.67-4.53a3.34,3.34,0,0,1,3.11.69,3.46,3.46,0,0,1,1.55,2.83q0,2.83-2.7,7.76a49.24,49.24,0,0,1-6.74,9.34,35.55,35.55,0,0,1-8.16,6.77,43.17,43.17,0,0,1-10.37,4.3c-8.09,2.28-14.4,1.65-18.94-1.78s-6.81-9.29-6.81-17.55c0-6.17,0-9.25,0-15.42q0-5.13-.09-5.94a9.43,9.43,0,0,0-2.58-5.68c-1.73-1.69-4.33-2.3-7.65-1.85v-9.82c3.33-1.3,5.71-2.76,7.11-4.34a11.87,11.87,0,0,0,2.54-4.4,23.23,23.23,0,0,0,.69-6.42c0-9.72,0-14.59,0-24.31,0-3.86-.75-6.54-2.25-8.05s-4.23-2.33-8.16-2.47v-10.18l2.39-.59c6.83-1.69,12.66-2.93,17.43-3.73,7.1-1.18,13.46-.64,19,1.76,8,3.41,12,10.3,12,20.83a38,38,0,0,1-8.09,23.55,41.81,41.81,0,0,1-7.95,7.94A125.17,125.17,0,0,1-6166.87,2539Z" transform="translate(7233.5 -1105)"/><path class="cls-13" d="M-6106,2545.73l.06-71.94c0-2.14-.36-3.58-1.09-4.32a1.75,1.75,0,0,0-1-.71c-.34-.05-1.52-.09-3.52-.1-2.42,0-3.65-1.25-3.65-3.69a5.8,5.8,0,0,1,1.79-4.2,12.28,12.28,0,0,1,5.07-2.88l2.37-.77q20.39-6.81,40.56-14.18l2.36-.88,3.26-.85a3.42,3.42,0,0,1,2.53.69,3,3,0,0,1,1,2.46c0,2.45-1.23,4.53-3.63,6.24-2,1.41-3.16,2.27-3.49,2.55a4.81,4.81,0,0,0-1,1.44,10.06,10.06,0,0,0-1.09,5.08l-.09,77a93.16,93.16,0,0,0,.4,10.72,12.38,12.38,0,0,0,1.67,4.93,5.11,5.11,0,0,0,2.62,2.32,17.49,17.49,0,0,0,5.52.2c0,4.81,0,7.22,0,12l-2,.76c-7.84,3-14.37,4.66-19.58,5.12a37.47,37.47,0,0,1-16.08-1.7c-4.61-1.67-7.89-4.22-9.83-7.61Q-6106,2558-6106,2545.73Zm58.87,17.92c0-4.81,0-7.21,0-12a41.35,41.35,0,0,0,15.07-13.54c4.57-6.67,6.85-14.59,6.86-23.64q0-29.92.07-59.84c0-8.38-3.13-12.9-9.43-13.65a7.73,7.73,0,0,1-3.65-1.06,3.44,3.44,0,0,1-.85-2.73,5.51,5.51,0,0,1,1.72-4.08,17.31,17.31,0,0,1,5.58-3.27c8.83-3.6,13.23-5.45,22-9.24,1.86-.8,3.1-1.3,3.72-1.48a4,4,0,0,1,1.84-.11,2.47,2.47,0,0,1,2.32,2.74,6.87,6.87,0,0,1-1.44,4,49.43,49.43,0,0,1-3.85,4.16,28.48,28.48,0,0,0-6.19,9.42,29.57,29.57,0,0,0-2.26,11.28q0,30-.07,59.93a60.44,60.44,0,0,1-6.68,28.13,63.65,63.65,0,0,1-14,17.47A58.73,58.73,0,0,1-6047.16,2563.65Z" transform="translate(7233.5 -1105)"/><path class="cls-13" d="M-5904.69,2368.78c0,4.22,0,6.33,0,10.56q-24.07,70.24-48.77,140.3-19.29,9.48-38.82,18.42c0-3.63,0-5.45,0-9.09q25-69.82,49.41-139.86Q-5923.63,2379.19-5904.69,2368.78Zm-84.42,42.63q19.41-9,38.55-18.42c-1.77,5.07-2.66,7.6-4.44,12.67a57.72,57.72,0,0,0-13.83,12.42,54.05,54.05,0,0,0-11,21.87,14.5,14.5,0,0,1-1.79,4.78,7.11,7.11,0,0,1-3,2.5c-3,1.4-4.54.28-4.54-3.33Q-5989.12,2427.66-5989.11,2411.41Zm84.23,82.66q-20.4,11.2-41.09,21.8c1.6-4.47,2.39-6.71,4-11.19,7.23-5.47,12.46-10.27,15.67-14.3a55.39,55.39,0,0,0,6.68-10.53,105.12,105.12,0,0,0,5.36-14.73,22.25,22.25,0,0,1,2.06-5.12,7.33,7.33,0,0,1,2.76-2.56c1.51-.84,2.66-.92,3.45-.26s1.17,2,1.17,4.12Z" transform="translate(7233.5 -1105)"/></g><path class="cls-9" d="M-6969.49,1830.69v25.73l-95.38-36.92v-25.73l-17.07-6.61v844.72l17.07,6.61v-33.3l95.38,36.92v33.3l17.07,6.61V1837.3Zm0,51.47v126.25l-95.38-36.92V1845.24Zm-95.38,393.31V2149.22l95.38,36.92v126.25Zm95.38,62.66v126.25l-95.38-36.92V2301.21Zm-95.38-214.65V1997.23l95.38,36.92V2160.4Zm0,456V2453.2l95.38,36.92v126.25Z" transform="translate(7233.5 -1105)"/><ellipse class="cls-8" cx="775.09" cy="521.09" rx="775.09" ry="480.11"/><path class="cls-2" d="M-5683.32,1585.1c0,70.08-24.24,136.65-67.82,196.68-104.55,144-320.41,250.37-579.74,277a1252.08,1252.08,0,0,1-127.53,6.47q-17.06,0-33.93-.46c-113.15-3-220-21.06-315.52-51-252.53-79.14-425.64-241.37-425.64-428.66,0-3.29.06-6.55.15-9.82,8.47-260.63,352.17-470.28,774.94-470.28a1243.46,1243.46,0,0,1,153.66,9.43q49.69,6.19,96.94,16.23h0c137.59,29.1,257.76,81.5,348.23,149.61C-5749.45,1363.19-5683.32,1469.35-5683.32,1585.1Z" transform="translate(7233.5 -1105)"/><path class="cls-3" d="M-5751.14,1781.78c-104.55,144-320.41,250.37-579.74,277l-121.94-869-.06-.48-.17-1.2-.12-.83-.08-.54.09.07,1,.85,1.37,1.15,1.84,1.57Z" transform="translate(7233.5 -1105)"/><path class="cls-3" d="M-6453.11,1185.87l-.05.86v.47l-.05.91,0,1.21,0,.32-39.06,875.12c-113.15-3-220-21.06-315.52-51l353.55-825.11Z" transform="translate(7233.5 -1105)"/><path class="cls-8" d="M-6304.75,1114.43l-147.41,73.15-.89.45-.17.08-1.09.54-779,386.63c8.47-260.63,352.17-470.28,774.94-470.28A1243.46,1243.46,0,0,1-6304.75,1114.43Z" transform="translate(7233.5 -1105)"/><path class="cls-8" d="M-5859.56,1280.27l-589.39-90-3.87-.59-.46-.07-.82-.12.84-.2.38-.09,2.09-.5,243-58.07h0C-6070.2,1159.76-5950,1212.16-5859.56,1280.27Z" transform="translate(7233.5 -1105)"/></svg>