<svg id="CornerCrate_copy" data-name="CornerCrate copy" xmlns="http://www.w3.org/2000/svg" viewBox="0 0 70.36 105.78"><defs><style>.cls-1{fill:#b59774;}.cls-2{fill:#a48969;}.cls-3{fill:#9c7c56;}.cls-4{fill:#cfac84;}.cls-5{fill:#c59c6d;}</style></defs><title>CornerCrate3</title><g id="CrateBot_copy_8" data-name="CrateBot copy 8"><g id="Layer_13_copy_28" data-name="Layer 13 copy 28"><rect class="cls-1" x="398.77" y="227.19" width="70" height="35" transform="translate(468.77 310.96) rotate(-180)"/></g><g id="Layer_12_copy_32" data-name="Layer 12 copy 32"><g id="Layer_12_copy_32-2" data-name="Layer 12 copy 32"><path class="cls-2" d="M398.86,255.62V277c0,4,6.34,7.22,14.17,7.22H455a21.38,21.38,0,0,0,11-2.65c2-1.24,3.21-2.84,3.21-4.57V255.62c0-4-6.35-7.21-14.18-7.21H413a25.87,25.87,0,0,0-5.87.65C402.26,250.19,398.86,252.7,398.86,255.62Z" transform="translate(-398.77 -178.41)"/></g><path class="cls-3" d="M405.74,257.72v17.16c0,3.2,5.1,5.8,11.4,5.8h33.71a19.94,19.94,0,0,0,5.73-.79,12.77,12.77,0,0,0,3.09-1.33,9.34,9.34,0,0,0,1.12-.84,3.9,3.9,0,0,0,1.45-2.84V257.72c0-3.21-5.1-5.81-11.39-5.81H417.14a20.67,20.67,0,0,0-4.72.53c-.29.06-.57.13-.85.21a11.44,11.44,0,0,0-4.28,2.14A4,4,0,0,0,405.74,257.72Z" transform="translate(-398.77 -178.41)"/><path class="cls-2" d="M407.29,254.79l49.29,25.1a12.77,12.77,0,0,0,3.09-1.33,9.34,9.34,0,0,0,1.12-.84l-49.22-25.07A11.44,11.44,0,0,0,407.29,254.79Z" transform="translate(-398.77 -178.41)"/><path class="cls-2" d="M405.74,263.94v4.32l24.39,12.42h8.48Z" transform="translate(-398.77 -178.41)"/><path class="cls-2" d="M428.63,251.91,462.24,269v-4.32l-25.13-12.8Z" transform="translate(-398.77 -178.41)"/></g><g id="Layer_12_copy_32-3" data-name="Layer 12 copy 32"><g id="Layer_12_copy_32-4" data-name="Layer 12 copy 32"><path class="cls-4" d="M398.86,211.86V234.5A14.17,14.17,0,0,0,413,248.67H455a14.17,14.17,0,0,0,14.17-14.17V192.58A14.17,14.17,0,0,0,455,178.41H432.31l-6.88,6.88Z" transform="translate(-398.77 -178.41)"/></g><path class="cls-5" d="M405.74,214.24V230.4a11.39,11.39,0,0,0,11.4,11.39h33.71a11.25,11.25,0,0,0,5.73-1.55,11.13,11.13,0,0,0,3.09-2.62,12.28,12.28,0,0,0,1.12-1.65,11,11,0,0,0,1.14-2.93,11.43,11.43,0,0,0,.31-2.64V196.69a11.4,11.4,0,0,0-11.39-11.4H434.69Z" transform="translate(-398.77 -178.41)"/><path class="cls-3" d="M417.19,241.79h33.66a11.25,11.25,0,0,0,5.73-1.55,11.13,11.13,0,0,0,3.09-2.62,12.28,12.28,0,0,0,1.12-1.65,11,11,0,0,0,1.14-2.93,11.4,11.4,0,0,0-11.08-8.75H434.69Z" transform="translate(-398.77 -178.41)"/></g></g></svg>