<svg id="CrateBot_copy_9" data-name="CrateBot copy 9" xmlns="http://www.w3.org/2000/svg" viewBox="0 0 70.4 105.79"><defs><style>.cls-1{fill:#b59774;}.cls-2{fill:#a48969;}.cls-3{fill:#9c7c56;}.cls-4{fill:#cfac84;}.cls-5{fill:#c59c6d;}</style></defs><title>CornerCrate2</title><g id="Layer_13_copy_29" data-name="Layer 13 copy 29"><polygon class="cls-1" points="70.4 83.78 4.59 62.13 4.59 27.13 70.4 48.78 70.4 83.78"/></g><g id="Layer_12_copy_34" data-name="Layer 12 copy 34"><path class="cls-2" d="M469,333.62V355c0,4-6.35,7.22-14.17,7.22H432V362l-31.45-34.31L399,326c0-1,0-2,0-3l-.25-29.47C409.82,304.37,432,326.27,432,326.41h22.87a25.71,25.71,0,0,1,5.86.65C465.63,328.19,469,330.7,469,333.62Z" transform="translate(-398.73 -256.4)"/><rect class="cls-3" x="38.27" y="75.6" width="26" height="27" rx="5.44"/><path class="cls-2" d="M455.23,330.25l-21.58,19.38c-1.44,1.29.69,3.41,2.12,2.12l21.58-19.38c1.44-1.29-.69-3.41-2.12-2.12Z" transform="translate(-398.73 -256.4)"/><path class="cls-2" d="M463.44,340.44l-21,19c-1.44,1.3.69,3.41,2.12,2.12l21-19c1.44-1.3-.69-3.41-2.12-2.12Z" transform="translate(-398.73 -256.4)"/><g id="Layer_12_copy_33" data-name="Layer 12 copy 33"><path class="cls-3" d="M401.79,305.35l.15,15.52c0,2.89,2.41,7.84,5.32,11l15.58,17.14a10.13,10.13,0,0,0,2.64,2.2,2.47,2.47,0,0,0,1.42.36,1.13,1.13,0,0,0,.51-.19,2.09,2.09,0,0,0,.64-1.82l-.15-15.52c0-2.9-2.41-7.85-5.31-11L407,305.9a11.59,11.59,0,0,0-2.18-1.93,4,4,0,0,0-.39-.23,2,2,0,0,0-2-.25A2,2,0,0,0,401.79,305.35Z" transform="translate(-398.73 -256.4)"/><path class="cls-2" d="M401,310l.05,4.66,14.84,28.2L421,348Z" transform="translate(-398.73 -256.4)"/><path class="cls-2" d="M407,305l22,42.3-.05-5.07q-8.22-15.83-16.45-31.63Z" transform="translate(-398.73 -256.4)"/></g></g><path class="cls-4" d="M432.31,326.67H455a14.17,14.17,0,0,0,14.17-14.17V270.57A14.17,14.17,0,0,0,455,256.4H413a14.17,14.17,0,0,0-14.17,14.17v22.66l6.88,6.87Z" transform="translate(-398.73 -256.4)"/><path class="cls-5" d="M463,273.89v32.22a10.4,10.4,0,0,1-1,4.45A11.56,11.56,0,0,1,451.5,317H433.14l-19.66-18.62-1.9-1.8L406,291.29v-17.4c0-6,5.14-10.89,11.5-10.89h34a11.81,11.81,0,0,1,7.29,2.47A10.63,10.63,0,0,1,463,273.89Z" transform="translate(-398.73 -256.4)"/><path class="cls-3" d="M462,308.89v1.67A11.56,11.56,0,0,1,451.5,317H433.14l-19.66-18.62a12,12,0,0,1,3-.38h34a11.81,11.81,0,0,1,7.29,2.47A10.63,10.63,0,0,1,462,308.89Z" transform="translate(-398.73 -256.4)"/></svg>