<svg id="CrateBot_copy_10" data-name="CrateBot copy 10" xmlns="http://www.w3.org/2000/svg" viewBox="0 0 70.4 105.79"><defs><style>.cls-1{fill:#b59774;}.cls-2{fill:#a48969;}.cls-3{fill:#9c7c56;}.cls-4{fill:#cfac84;}.cls-5{fill:#c59c6d;}</style></defs><title>CornerCrate1</title><g id="Layer_13_copy_30" data-name="Layer 13 copy 30"><polygon class="cls-1" points="0 83.78 65.81 62.13 65.81 27.13 0 48.78 0 83.78"/></g><g id="Layer_12_copy_35" data-name="Layer 12 copy 35"><path class="cls-2" d="M621.82,331.62V353c0,4,6.35,7.22,14.17,7.22h22.87V360l31.45-34.31,1.55-1.69c0-1,0-2,0-3l.25-29.47c-11.09,10.82-33.27,32.72-33.27,32.86H636a25.71,25.71,0,0,0-5.86.65C625.23,326.19,621.82,328.7,621.82,331.62Z" transform="translate(-621.73 -254.4)"/><rect class="cls-3" x="627.86" y="330" width="26" height="27" rx="5.44" transform="translate(659.99 432.6) rotate(-180)"/><path class="cls-2" d="M635.63,328.25l21.58,19.38c1.44,1.29-.69,3.41-2.12,2.12l-21.58-19.38c-1.44-1.29.69-3.41,2.12-2.12Z" transform="translate(-621.73 -254.4)"/><path class="cls-2" d="M627.42,338.44l21,19c1.43,1.3-.69,3.41-2.12,2.12l-21-19c-1.44-1.3.69-3.41,2.12-2.12Z" transform="translate(-621.73 -254.4)"/><g id="Layer_12_copy_35-2" data-name="Layer 12 copy 35"><path class="cls-3" d="M689.07,303.35l-.15,15.52c0,2.89-2.41,7.84-5.32,11L668,347.05a10.3,10.3,0,0,1-2.64,2.2,2.48,2.48,0,0,1-1.42.36,1.13,1.13,0,0,1-.51-.19,2.07,2.07,0,0,1-.64-1.82l.15-15.52c0-2.9,2.4-7.85,5.31-11l15.58-17.14A11.59,11.59,0,0,1,686,302a4,4,0,0,1,.39-.23,2,2,0,0,1,2-.25A2.06,2.06,0,0,1,689.07,303.35Z" transform="translate(-621.73 -254.4)"/><path class="cls-2" d="M689.86,308l-.05,4.66L675,340.86,669.86,346Z" transform="translate(-621.73 -254.4)"/><path class="cls-2" d="M683.86,303l-22,42.3,0-5.07q8.22-15.83,16.45-31.63Z" transform="translate(-621.73 -254.4)"/></g></g><path class="cls-4" d="M658.54,324.67H635.9a14.17,14.17,0,0,1-14.17-14.17V268.57A14.17,14.17,0,0,1,635.9,254.4h41.92A14.17,14.17,0,0,1,692,268.57v22.66l-6.88,6.87Z" transform="translate(-621.73 -254.4)"/><path class="cls-5" d="M627.86,271.89v32.22a10.4,10.4,0,0,0,1,4.45,11.56,11.56,0,0,0,10.5,6.44h18.36l19.66-18.62,1.9-1.8,5.58-5.29v-17.4c0-6-5.14-10.89-11.5-10.89h-34a11.81,11.81,0,0,0-7.29,2.47A10.63,10.63,0,0,0,627.86,271.89Z" transform="translate(-621.73 -254.4)"/><path class="cls-3" d="M628.86,306.89v1.67a11.56,11.56,0,0,0,10.5,6.44h18.36l19.66-18.62a12,12,0,0,0-3-.38h-34a11.81,11.81,0,0,0-7.29,2.47A10.63,10.63,0,0,0,628.86,306.89Z" transform="translate(-621.73 -254.4)"/></svg>