<svg id="CornerCrate" xmlns="http://www.w3.org/2000/svg" viewBox="0 0 70.36 105.78"><defs><style>.cls-1{fill:#b59774;}.cls-2{fill:#a48969;}.cls-3{fill:#9c7c56;}.cls-4{fill:#cfac84;}.cls-5{fill:#c59c6d;}</style></defs><title>CornerCrate4</title><g id="CrateBot_copy_7" data-name="CrateBot copy 7"><g id="Layer_13_copy_27" data-name="Layer 13 copy 27"><rect class="cls-1" x="0.36" y="48.78" width="70" height="35"/></g><g id="Layer_12_copy_31" data-name="Layer 12 copy 31"><g id="Layer_12_copy_31-2" data-name="Layer 12 copy 31"><path class="cls-2" d="M690,255.62V277c0,4-6.35,7.22-14.17,7.22H633.94a21.37,21.37,0,0,1-11-2.65c-2-1.24-3.21-2.84-3.21-4.57V255.62c0-4,6.35-7.21,14.17-7.21h41.93a25.71,25.71,0,0,1,5.86.65C686.63,250.19,690,252.7,690,255.62Z" transform="translate(-619.77 -178.41)"/></g><path class="cls-3" d="M683.16,257.72v17.16c0,3.2-5.1,5.8-11.4,5.8H638.05a19.94,19.94,0,0,1-5.73-.79,12.77,12.77,0,0,1-3.09-1.33,9.34,9.34,0,0,1-1.12-.84,3.9,3.9,0,0,1-1.45-2.84V257.72c0-3.21,5.1-5.81,11.39-5.81h33.71a20.67,20.67,0,0,1,4.72.53c.29.06.57.13.85.21a11.44,11.44,0,0,1,4.28,2.14A4,4,0,0,1,683.16,257.72Z" transform="translate(-619.77 -178.41)"/><path class="cls-2" d="M681.61,254.79l-49.29,25.1a12.77,12.77,0,0,1-3.09-1.33,9.34,9.34,0,0,1-1.12-.84l49.22-25.07A11.44,11.44,0,0,1,681.61,254.79Z" transform="translate(-619.77 -178.41)"/><path class="cls-2" d="M683.16,263.94v4.32l-24.39,12.42h-8.48Z" transform="translate(-619.77 -178.41)"/><path class="cls-2" d="M660.27,251.91,626.66,269v-4.32l25.13-12.8Z" transform="translate(-619.77 -178.41)"/></g><g id="Layer_12_copy_31-3" data-name="Layer 12 copy 31"><g id="Layer_12_copy_31-4" data-name="Layer 12 copy 31"><path class="cls-4" d="M690,211.86V234.5a14.17,14.17,0,0,1-14.17,14.17H633.94a14.17,14.17,0,0,1-14.17-14.17V192.58a14.17,14.17,0,0,1,14.17-14.17h22.65l6.88,6.88Z" transform="translate(-619.77 -178.41)"/></g><path class="cls-5" d="M683.16,214.24V230.4a11.39,11.39,0,0,1-11.4,11.39H638.05a11.25,11.25,0,0,1-5.73-1.55,11.13,11.13,0,0,1-3.09-2.62,12.28,12.28,0,0,1-1.12-1.65A11,11,0,0,1,627,233a11.43,11.43,0,0,1-.31-2.64V196.69a11.4,11.4,0,0,1,11.39-11.4h16.16Z" transform="translate(-619.77 -178.41)"/><path class="cls-3" d="M671.71,241.79H638.05a11.25,11.25,0,0,1-5.73-1.55,11.13,11.13,0,0,1-3.09-2.62,12.28,12.28,0,0,1-1.12-1.65A11,11,0,0,1,627,233a11.4,11.4,0,0,1,11.08-8.75h16.16Z" transform="translate(-619.77 -178.41)"/></g></g></svg>