<svg id="Crates" xmlns="http://www.w3.org/2000/svg" viewBox="0 0 70.36 141.78"><defs><style>.cls-1{fill:#b49775;}.cls-2{fill:#a3896a;}.cls-3{fill:#9b7c56;}.cls-4{fill:#cfac84;}.cls-5{fill:#c49a6c;}</style></defs><title>Crate2</title><g id="CrateBot"><g id="Layer_13_copy_12" data-name="Layer 13 copy 12"><rect class="cls-1" x="0.36" y="84.78" width="70" height="35"/></g><g id="Layer_12_copy_13" data-name="Layer 12 copy 13"><g id="Layer_12_copy_12" data-name="Layer 12 copy 12"><path class="cls-2" d="M507.21,260.93v21.34c0,4-6.35,7.22-14.17,7.22H451.11a21.37,21.37,0,0,1-11-2.65c-2-1.24-3.21-2.83-3.21-4.57V260.93c0-4,6.35-7.22,14.17-7.22H493a25.71,25.71,0,0,1,5.86.65C503.8,255.49,507.21,258,507.21,260.93Z" transform="translate(-436.94 -147.71)"/></g><path class="cls-3" d="M500.33,263v17.16c0,3.2-5.1,5.8-11.4,5.8H455.22a19.94,19.94,0,0,1-5.73-.79,12.39,12.39,0,0,1-3.09-1.33,9.34,9.34,0,0,1-1.12-.84,3.88,3.88,0,0,1-1.45-2.84V263c0-3.21,5.1-5.81,11.39-5.81h33.71a20.67,20.67,0,0,1,4.72.53,8.15,8.15,0,0,1,.85.22,11.29,11.29,0,0,1,4.28,2.13A4,4,0,0,1,500.33,263Z" transform="translate(-436.94 -147.71)"/><path class="cls-2" d="M498.78,260.09l-49.29,25.1a12.39,12.39,0,0,1-3.09-1.33,9.34,9.34,0,0,1-1.12-.84L494.5,258A11.29,11.29,0,0,1,498.78,260.09Z" transform="translate(-436.94 -147.71)"/><path class="cls-2" d="M500.33,269.24v4.32L475.94,286h-8.48Z" transform="translate(-436.94 -147.71)"/><path class="cls-2" d="M477.44,257.21l-33.61,17.12V270L469,257.21Z" transform="translate(-436.94 -147.71)"/></g><g id="Layer_12_copy_15" data-name="Layer 12 copy 15"><g id="Layer_12_copy_14" data-name="Layer 12 copy 14"><path class="cls-4" d="M507.21,197.88V239.8A14.18,14.18,0,0,1,493,254H451.11a14.19,14.19,0,0,1-14.17-14.18V197.88a14.17,14.17,0,0,1,14.17-14.17H493a14.17,14.17,0,0,1,14.17,14.17Z" transform="translate(-436.94 -147.71)"/></g><path class="cls-5" d="M500.33,202V235.7a11.39,11.39,0,0,1-11.4,11.39H455.22a11.25,11.25,0,0,1-5.73-1.55,11.13,11.13,0,0,1-3.09-2.62,12.28,12.28,0,0,1-1.12-1.65,11.35,11.35,0,0,1-1.45-5.57V202a11.4,11.4,0,0,1,11.39-11.4h33.71a11.31,11.31,0,0,1,4.72,1c.29.13.57.27.85.43a11.38,11.38,0,0,1,5.83,9.94Z" transform="translate(-436.94 -147.71)"/><path class="cls-4" d="M498.78,196.25l-49.29,49.29a11.13,11.13,0,0,1-3.09-2.62,12.28,12.28,0,0,1-1.12-1.65l49.22-49.22A11.42,11.42,0,0,1,498.78,196.25Z" transform="translate(-436.94 -147.71)"/><path class="cls-4" d="M500.33,214.22v8.48l-24.39,24.39h-8.48Z" transform="translate(-436.94 -147.71)"/><path class="cls-4" d="M477.44,190.59,443.83,224.2v-8.48L469,190.59Z" transform="translate(-436.94 -147.71)"/></g></g><g id="CrateMid"><g id="Layer_13_copy_13" data-name="Layer 13 copy 13"><rect class="cls-1" x="0.36" y="48.78" width="70" height="35"/></g><g id="Layer_12_copy_16" data-name="Layer 12 copy 16"><g id="Layer_12_copy_16-2" data-name="Layer 12 copy 16"><path class="cls-2" d="M507.21,224.93v21.34c0,4-6.35,7.22-14.17,7.22H451.11a21.37,21.37,0,0,1-11-2.65c-2-1.24-3.21-2.83-3.21-4.57V224.93c0-4,6.35-7.22,14.17-7.22H493a25.71,25.71,0,0,1,5.86.65C503.8,219.49,507.21,222,507.21,224.93Z" transform="translate(-436.94 -147.71)"/></g><path class="cls-3" d="M500.33,227v17.16c0,3.2-5.1,5.8-11.4,5.8H455.22a19.94,19.94,0,0,1-5.73-.79,12.39,12.39,0,0,1-3.09-1.33,9.34,9.34,0,0,1-1.12-.84,3.88,3.88,0,0,1-1.45-2.84V227c0-3.21,5.1-5.81,11.39-5.81h33.71a20.67,20.67,0,0,1,4.72.53,8.15,8.15,0,0,1,.85.22,11.29,11.29,0,0,1,4.28,2.13A4,4,0,0,1,500.33,227Z" transform="translate(-436.94 -147.71)"/><path class="cls-2" d="M498.78,224.09l-49.29,25.1a12.39,12.39,0,0,1-3.09-1.33,9.34,9.34,0,0,1-1.12-.84L494.5,222A11.29,11.29,0,0,1,498.78,224.09Z" transform="translate(-436.94 -147.71)"/><path class="cls-2" d="M500.33,233.24v4.32L475.94,250h-8.48Z" transform="translate(-436.94 -147.71)"/><path class="cls-2" d="M477.44,221.21l-33.61,17.12V234L469,221.21Z" transform="translate(-436.94 -147.71)"/></g><g id="Layer_12_copy_16-3" data-name="Layer 12 copy 16"><g id="Layer_12_copy_16-4" data-name="Layer 12 copy 16"><path class="cls-4" d="M507.21,161.88V203.8A14.18,14.18,0,0,1,493,218H451.11a14.19,14.19,0,0,1-14.17-14.18V161.88a14.17,14.17,0,0,1,14.17-14.17H493a14.17,14.17,0,0,1,14.17,14.17Z" transform="translate(-436.94 -147.71)"/></g><path class="cls-5" d="M500.33,166V199.7a11.39,11.39,0,0,1-11.4,11.39H455.22a11.25,11.25,0,0,1-5.73-1.55,11.13,11.13,0,0,1-3.09-2.62,12.28,12.28,0,0,1-1.12-1.65,11.35,11.35,0,0,1-1.45-5.57V166a11.4,11.4,0,0,1,11.39-11.4h33.71a11.31,11.31,0,0,1,4.72,1c.29.13.57.27.85.43a11.38,11.38,0,0,1,5.83,9.94Z" transform="translate(-436.94 -147.71)"/><path class="cls-4" d="M498.78,160.25l-49.29,49.29a11.13,11.13,0,0,1-3.09-2.62,12.28,12.28,0,0,1-1.12-1.65l49.22-49.22A11.42,11.42,0,0,1,498.78,160.25Z" transform="translate(-436.94 -147.71)"/><path class="cls-4" d="M500.33,178.22v8.48l-24.39,24.39h-8.48Z" transform="translate(-436.94 -147.71)"/><path class="cls-4" d="M477.44,154.59,443.83,188.2v-8.48L469,154.59Z" transform="translate(-436.94 -147.71)"/></g></g></svg>