<svg id="Player4" xmlns="http://www.w3.org/2000/svg" viewBox="0 0 212.33 245.04"><defs><style>.cls-1{fill:#c1282d;}.cls-2{fill:#f15b27;}.cls-3{fill:#079247;}.cls-4{fill:#046937;}.cls-5{fill:#3a53a4;}.cls-6{fill:#4e4e4e;}.cls-7{fill:#9fd1f1;}.cls-8{fill:#efab93;}.cls-9{fill:#fff;}.cls-10{fill:#f79421;}.cls-11{fill:#b9539f;}.cls-12{fill:#3db54a;}</style></defs><title>GioSprite</title><g id="Backpack"><g id="Layer_261" data-name="Layer 261"><path class="cls-1" d="M436.3,191.63c0,13.07-7.77,23.67-17.36,23.67H295.07V168H418.94a14.27,14.27,0,0,1,9.69,4C433.26,176.23,436.3,183.44,436.3,191.63Z" transform="translate(-271.67 -167.96)"/><g id="Layer_262" data-name="Layer 262"><path class="cls-2" d="M428.63,172H295.07v-4H418.94A14.27,14.27,0,0,1,428.63,172Z" transform="translate(-271.67 -167.96)"/></g><path class="cls-2" d="M312.43,191.63c0,10-4.58,18.61-11.05,22.05a13.22,13.22,0,0,1-6.31,1.62,12.45,12.45,0,0,1-2.87-.33c-8.23-1.86-14.5-11.6-14.5-23.34,0-13.07,7.78-23.67,17.37-23.67S312.43,178.56,312.43,191.63Z" transform="translate(-271.67 -167.96)"/><ellipse class="cls-1" cx="23.4" cy="23.67" rx="13.85" ry="18.89"/><path class="cls-2" d="M303.55,199.47c-2,2.68-5.22,4.05-8,3.08-3.16-1.09-5.13-4.67-5.27-8.74-.14-4.23,5-4.21,5.15,0,.07,2.16,1.73,2.89,3.17,2.21s2.33-2.64,2.22-4.65c-.22-4.36-3.46-7-6.69-6.36s-5.92,3.84-6.7,7.93c-1.71,9,4.76,17.19,11.51,17.31,1.69,0,2.52,1.75,2.48,3.43a13.22,13.22,0,0,1-6.31,1.62,12.45,12.45,0,0,1-2.87-.33,19,19,0,0,1-8.34-9.94c-2.6-6.7-2.5-14.73,1.32-20.65,3.6-5.6,10.45-7.95,15.5-4.18S307.87,193.61,303.55,199.47Z" transform="translate(-271.67 -167.96)"/></g><rect class="cls-3" x="7.3" y="47.02" width="136.7" height="166.85" rx="12"/><rect class="cls-4" x="36.48" y="47.02" width="136.7" height="166.85" rx="12"/><rect class="cls-4" x="7.18" y="135.04" width="25.44" height="47.84" rx="5.44"/><rect class="cls-3" y="135.04" width="25.44" height="47.84" rx="5.44"/></g><g id="RightFoot"><path class="cls-5" d="M426,371v33.83a8,8,0,0,1-1.24,4.31,8.2,8.2,0,0,1-6.93,3.86h-8.66a8.2,8.2,0,0,1-6.93-3.86,8,8,0,0,1-1.24-4.31V371Z" transform="translate(-271.67 -167.96)"/><path class="cls-6" d="M433,401.33v5.34a6.32,6.32,0,0,1-6.33,6.33H407.33a6.32,6.32,0,0,1-6.33-6.33V395h25.67A6.35,6.35,0,0,1,433,401.33Z" transform="translate(-271.67 -167.96)"/><path class="cls-2" d="M432.5,409.14a6.36,6.36,0,0,1-5.83,3.86H407.33a6.36,6.36,0,0,1-5.83-3.86Z" transform="translate(-271.67 -167.96)"/></g><g id="RightFoot-2" data-name="RightFoot"><path class="cls-5" d="M385,371v33.83a8,8,0,0,1-1.24,4.31,8.2,8.2,0,0,1-6.93,3.86h-8.66a8.2,8.2,0,0,1-6.93-3.86,8,8,0,0,1-1.24-4.31V371Z" transform="translate(-271.67 -167.96)"/><path class="cls-6" d="M392,401.33v5.34a6.32,6.32,0,0,1-6.33,6.33H366.33a6.32,6.32,0,0,1-6.33-6.33V395h25.67A6.35,6.35,0,0,1,392,401.33Z" transform="translate(-271.67 -167.96)"/><path class="cls-2" d="M391.5,409.14a6.36,6.36,0,0,1-5.83,3.86H366.33a6.36,6.36,0,0,1-5.83-3.86Z" transform="translate(-271.67 -167.96)"/></g><g id="RightArm"><path class="cls-7" d="M424,326.58c-.21,11.46,1.42,23.47,8.14,33.07,7.42,10.61,18.64,16.52,30.41,21.15,5,2,11-2.17,12.3-7,1.56-5.67-1.94-10.31-7-12.3a64.78,64.78,0,0,1-12.09-6.2,29.87,29.87,0,0,1-7-6.6c-4.22-6.46-5-13.49-4.82-22.13.25-12.87-19.75-12.87-20,0Z" transform="translate(-271.67 -167.96)"/></g><g id="Body"><g id="Body-2" data-name="Body"><ellipse class="cls-7" cx="123.83" cy="94.54" rx="88.5" ry="72.5"/><path class="cls-4" d="M431.55,350.83c-6.95,7.82-21,10.46-21,10.46h0c0-1.87-.11-3.74-.17-5.62a25,25,0,0,0,14-13.61,24.62,24.62,0,0,0,.51-16.51l-17.08,7-.18-2.7h0c.3-.5,6.17-10.15,16.39-9.93,1.28,0,6.21.12,9.7,3.57C440.05,329.76,438.08,343.49,431.55,350.83Z" transform="translate(-271.67 -167.96)"/><path class="cls-8" d="M426,342.57v27.3a2.69,2.69,0,0,1,0,.4c-.27,2.28-2.92,4.37-7.17,6-6.06,2.37-15.36,3.88-25.8,3.88a95,95,0,0,1-15.46-1.2h0a50.63,50.63,0,0,1-10.82-2.87c-4.2-1.73-6.69-3.88-6.69-6.22v-27.3a17.84,17.84,0,0,1,4.36-11.73,17.52,17.52,0,0,1,5.73-4.32,16.3,16.3,0,0,1,2.44-.92,16.58,16.58,0,0,1,4.75-.69h31.44a17,17,0,0,1,12.54,5.52,16.56,16.56,0,0,1,1.45,1.78,17.73,17.73,0,0,1,2.9,6.61A18.56,18.56,0,0,1,426,342.57Z" transform="translate(-271.67 -167.96)"/><path class="cls-9" d="M426,341.27v28.24a3,3,0,0,1,0,.42c-.27,2.35-2.92,4.51-7.17,6.23-6.06,2.45-15.36,4-25.8,4a92.59,92.59,0,0,1-15.46-1.24h0a49.68,49.68,0,0,1-10.82-3c-4.2-1.79-6.69-4-6.69-6.44V341.27a19.35,19.35,0,0,1,1.28-6.93A104.17,104.17,0,0,0,401,342a106.29,106.29,0,0,0,24.88-2.91A18.92,18.92,0,0,1,426,341.27Z" transform="translate(-271.67 -167.96)"/></g><path class="cls-2" d="M390.6,327.7l-22.28-8.12c-7.27-2.64-10.4,8.95-3.2,11.58l22.28,8.12c7.27,2.64,10.4-8.95,3.2-11.58Z" transform="translate(-271.67 -167.96)"/><path class="cls-2" d="M420.41,323.32l-10.57,4.84c-2.94,1.35-3.67,5.61-2.15,8.21,1.77,3,5.25,3.5,8.21,2.15l10.57-4.84c2.94-1.35,3.67-5.61,2.15-8.21-1.77-3-5.25-3.51-8.21-2.15Z" transform="translate(-271.67 -167.96)"/><path class="cls-2" d="M389,333.49v48.44a100.62,100.62,0,0,1-12.87-1.21h0a56.38,56.38,0,0,1-11.8-3.07c-4.58-1.84-7.3-4.14-7.3-6.64V341.85a18.8,18.8,0,0,1,9.72-16.48Z" transform="translate(-271.67 -167.96)"/><path class="cls-2" d="M429,341.85V371a3.11,3.11,0,0,1,0,.43c-.3,2.43-3.19,4.66-7.83,6.43a53,53,0,0,1-8.27,2.31V333.34l10.57-4.84.39.39a17.88,17.88,0,0,1,1.58,1.9,18.52,18.52,0,0,1,3.16,7.06A18.85,18.85,0,0,1,429,341.85Z" transform="translate(-271.67 -167.96)"/><g id="Layer_259" data-name="Layer 259"><path class="cls-4" d="M381.49,324.41c-2.71-4.1-7.72-6.3-14.12-6.3H342.28c-6.4,0-11.42,2.2-14.13,6.3-5.18,7.82,3,20.25,3.74,21.44.63,1,8,11.9,20.33,12.84a84.52,84.52,0,0,0,5.2,0c12.3-.94,19.7-11.88,20.33-12.84C378.53,344.66,386.67,332.23,381.49,324.41Zm-14.47,15a24.74,24.74,0,0,1-12.2,12.86,24.86,24.86,0,0,1-12.2-12.86,24.57,24.57,0,0,1-.51-16.51l12.71-.13,12.72.13A24.59,24.59,0,0,1,367,339.38Z" transform="translate(-271.67 -167.96)"/></g></g><g id="Head_copy_4" data-name="Head copy 4"><path class="cls-10" d="M466.32,280.35a35.06,35.06,0,0,1-9.61-3.55,36.6,36.6,0,0,1-15.16-16.51c-.67.53-7.06,5.76-6.56,14a16.49,16.49,0,0,0,31.33,6.05Z" transform="translate(-271.67 -167.96)"/><path class="cls-10" d="M471.09,249a43,43,0,0,1-12.46,4.44c-13.31,2.5-24.4-2-29.11-4.32-.19,1.1-1.92,12,5.71,20.11,6.72,7.19,18,9.4,26.73,4.06C469.91,268.42,473.65,258.51,471.09,249Z" transform="translate(-271.67 -167.96)"/><path class="cls-10" d="M466.64,224.91a50.47,50.47,0,0,1-13.27,7.76c-14.63,5.76-28.15,3.08-34,1.54,0,1.29.25,13.93,10.57,21.46,9.1,6.64,22.41,6.64,31.22-1.31A25.12,25.12,0,0,0,466.64,224.91Z" transform="translate(-271.67 -167.96)"/><path class="cls-10" d="M355.45,264.36c-2-5.59-3.07-13.68,2.47-17.05,7.94-4.83,18.48-1.24,26,4.32,4.35,3.21,11.16.73,13.68-3.58,3-5.08.78-10.47-3.58-13.68-13.15-9.69-32.91-13.26-47.19-3.71-12.83,8.57-15.68,25.06-10.7,39,1.81,5.08,6.82,8.49,12.3,7,4.92-1.35,8.81-7.19,7-12.3Z" transform="translate(-271.67 -167.96)"/><path class="cls-8" d="M443,262.5v40A16.5,16.5,0,0,1,426.5,319h-54a28.51,28.51,0,0,1-27.85-22.46,12.13,12.13,0,0,0-.65-23.25V262.5A16.5,16.5,0,0,1,360.5,246h66A16.5,16.5,0,0,1,443,262.5Z" transform="translate(-271.67 -167.96)"/><path class="cls-10" d="M443,294.73v7.77A16.5,16.5,0,0,1,426.5,319h-54a28.42,28.42,0,0,1-21.13-9.38C363.51,294.72,383.46,285,406,285A73.69,73.69,0,0,1,443,294.73Z" transform="translate(-271.67 -167.96)"/><path class="cls-9" d="M423.78,246l-64.33,69.84a28.74,28.74,0,0,1-11.64-11.09,29.82,29.82,0,0,1-1.45-2.88,27.62,27.62,0,0,1-1.71-5.33,28,28,0,0,1-.65-6v-28A16.5,16.5,0,0,1,360.5,246Z" transform="translate(-271.67 -167.96)"/><path class="cls-7" d="M400.91,246l-53.1,58.75a29.82,29.82,0,0,1-1.45-2.88L396.87,246Z" transform="translate(-271.67 -167.96)"/><path class="cls-8" d="M344.65,296.54a11,11,0,0,1-3.15.46,12,12,0,0,1,0-24,10.83,10.83,0,0,1,2.5.29V290.5A28,28,0,0,0,344.65,296.54Z" transform="translate(-271.67 -167.96)"/><path class="cls-10" d="M354.63,268.05c.56-.74,1.3-1.64,2.65-3.14s2.86-3,4.39-4.43a54.81,54.81,0,0,1,12.72-8.64c8.84-4.42,18.85-5.87,28.64-5.47A72.86,72.86,0,0,1,419.77,249,80.52,80.52,0,0,1,445,260.63c10.7,7.22,20.72-10.1,10.1-17.26a99.94,99.94,0,0,0-54.77-17.06c-25.3-.16-47.85,11.53-62.91,31.64-3.25,4.33-.7,11.18,3.58,13.68,5.11,3,10.44.75,13.68-3.58Z" transform="translate(-271.67 -167.96)"/><rect class="cls-10" x="72.15" y="90.04" width="14" height="44" rx="7"/></g><g id="HairPuff_copy_3" data-name="HairPuff copy 3"><path class="cls-10" d="M427.77,249.23A101.78,101.78,0,0,1,401,254.79c-17.62,1.1-36.18-3.23-46.19-8.78h0c-4.66-2.59-7.45-5.43-7.43-8.11.09-9.19,33.31-15.46,40.42-16.8,28.87-5.46,69.21-5.18,71.32,4.76C460.41,232.14,446.49,242.71,427.77,249.23Z" transform="translate(-271.67 -167.96)"/><path class="cls-10" d="M406,235.39A54.1,54.1,0,0,0,427.83,216c2.47-3.9,6.54-10.5,7.17-20a38.89,38.89,0,0,0-2-15c16.44,1.69,29.06,14.72,30,30,.91,14.74-9.29,27.39-22,32A34.3,34.3,0,0,1,406,235.39Z" transform="translate(-271.67 -167.96)"/><path class="cls-10" d="M391.23,231.77c3-2,20.42-14.07,21.82-34.76a40.73,40.73,0,0,0-1-12.08C425.6,188,435.1,198.1,436,209c.72,9.2-4.91,15.92-6,17.18C421.76,236,406.43,238.13,391.23,231.77Z" transform="translate(-271.67 -167.96)"/><path class="cls-10" d="M368.32,225.35c3.56-.64,24.34-4.71,33.9-23.11a40.64,40.64,0,0,0,3.9-11.48c11.21,8.25,15.88,21.3,12.29,31.66-3,8.72-10.87,12.62-12.35,13.36C394.59,241.48,379.7,237.26,368.32,225.35Z" transform="translate(-271.67 -167.96)"/><path class="cls-10" d="M366.9,225.72c2.1-.87,14.35-6.12,17.79-18.71a25.21,25.21,0,0,0,.87-7.58c8,3.59,12.59,11,11.76,17.85a15.43,15.43,0,0,1-5.83,9.85C385.19,232.16,375.48,231.54,366.9,225.72Z" transform="translate(-271.67 -167.96)"/><path class="cls-2" d="M418.79,201.79a57.51,57.51,0,0,1,.62,23.9,43.3,43.3,0,0,1-10.16,21c15.22,5.83,27.94-5.22,28.24-18.13C437.73,218.32,430.13,206.26,418.79,201.79Z" transform="translate(-271.67 -167.96)"/><path class="cls-2" d="M437.78,208.17a44.52,44.52,0,0,1-21.28,38.88c15.27,7.59,31.86-.38,35.3-11.92C454.54,226,449.13,213.94,437.78,208.17Z" transform="translate(-271.67 -167.96)"/><path class="cls-2" d="M413.32,215.09a61.36,61.36,0,0,1-7,18.62c-4.76,8-9.89,11.44-12.18,12.74,6.82,9.64,17.4,5.45,21.52-4.39C419,234.24,418.36,222.39,413.32,215.09Z" transform="translate(-271.67 -167.96)"/><path class="cls-2" d="M458.27,236.25a40.6,40.6,0,0,1-13.34,8.11,27.41,27.41,0,0,1-14.68,1.35c.89,10.12,10.64,13.4,18,9.36C454.14,251.86,458.86,243.83,458.27,236.25Z" transform="translate(-271.67 -167.96)"/><path class="cls-2" d="M428.23,249l-.46.27A101.78,101.78,0,0,1,401,254.79c-17.62,1.1-36.18-3.23-46.19-8.78a63.73,63.73,0,0,0,39.36.44Z" transform="translate(-271.67 -167.96)"/></g><g id="Face_copy_3" data-name="Face copy 3"><path class="cls-2" d="M389.8,305.91a75,75,0,0,1,26.27.57c3.78.75,5.39-5,1.6-5.78a83.62,83.62,0,0,0-29.47-.58c-3.8.6-2.19,6.38,1.6,5.79Z" transform="translate(-271.67 -167.96)"/><path class="cls-11" d="M439.23,284a17.53,17.53,0,0,1-.23,2.83h0c-.06.37-.13.71-.22,1.06-1.17,5.17-4.68,8.95-8.83,9.07a.78.78,0,0,1-.21,0c-5.24,0-9.5-5.82-9.5-13s4.26-13,9.5-13a7,7,0,0,1,3.12.74C436.57,273.55,439.23,278.38,439.23,284Z" transform="translate(-271.67 -167.96)"/><path class="cls-12" d="M439.56,280.38a8.79,8.79,0,0,1-.23,2.06h0a6.9,6.9,0,0,1-.21.78,9.47,9.47,0,0,1-8.84,6.63h-.21a9.49,9.49,0,0,1,0-19,9.27,9.27,0,0,1,3.13.54A9.47,9.47,0,0,1,439.56,280.38Z" transform="translate(-271.67 -167.96)"/><path class="cls-4" d="M439.12,283.23a9.47,9.47,0,0,1-8.84,6.63,5.69,5.69,0,0,1,3.59-10.11,5.72,5.72,0,0,1,5,3h0C439,282.89,439,283.05,439.12,283.23Z" transform="translate(-271.67 -167.96)"/><path class="cls-9" d="M439.56,280.38a8.79,8.79,0,0,1-.23,2.06h0l-.45.27h0a6.33,6.33,0,1,1-5.68-11.3A9.47,9.47,0,0,1,439.56,280.38Z" transform="translate(-271.67 -167.96)"/><path class="cls-2" d="M423.07,269.41l19.87,6c6.51,2,9.29-8.21,2.81-10.16l-19.88-6c-6.5-2-9.28,8.2-2.8,10.16Z" transform="translate(-271.67 -167.96)"/></g><g id="LeftArm"><path class="cls-8" d="M350.72,322c-10.05,6.28-19.09,14.08-23.73,25.23-4.86,11.69-3.72,24.37-1.27,36.5,1.07,5.29,7.36,8.34,12.3,7,5.52-1.51,8.06-7,7-12.3-1.53-7.56-2.69-16.11.28-23.46,2.84-7,9.3-11.79,15.52-15.68,10.89-6.81.86-24.12-10.09-17.27Z" transform="translate(-271.67 -167.96)"/><path class="cls-9" d="M349.71,320.29a48.83,48.83,0,0,0-21.2,19.54c-3.2,5.41-1.41,13.4,4.3,16.42a12.22,12.22,0,0,0,16.42-4.31c.7-1.18,1.46-2.32,2.26-3.44-1.6,2.26.48-.45.73-.73.66-.71,1.35-1.39,2.06-2,.23-.21,2.26-1.89.87-.84.73-.56,1.51-1.05,2.29-1.54a41.67,41.67,0,0,1,4.38-2.33c5.72-2.63,7.58-11.33,4.3-16.42-3.8-5.89-10.3-7.12-16.41-4.3Z" transform="translate(-271.67 -167.96)"/></g><g id="Shine_copy_4" data-name="Shine copy 4"><path class="cls-9" d="M337.64,248.66a23.32,23.32,0,0,1,6.13-12.44,22.48,22.48,0,0,1,5.35-4,10.3,10.3,0,0,1,3.54-1.54c12.18-4,7-23.28-5.32-19.28-14.54,4.73-26.06,16.76-29,32-1,5.3,1.48,10.79,7,12.3,4.89,1.35,11.28-1.65,12.3-7Z" transform="translate(-271.67 -167.96)"/></g></svg>