<svg xmlns="http://www.w3.org/2000/svg" viewBox="0 0 64.38 40.28"><defs><style>.cls-1{fill:#5259a7;}.cls-2{fill:#6f70b4;}.cls-3{fill:#cddff3;}.cls-4{fill:#fbb040;}.cls-5{fill:#f7941d;}</style></defs><title>Keycard</title><g id="BUttons"><g id="Layer_58" data-name="Layer 58"><rect class="cls-1" width="64.38" height="40.28" rx="3.33"/><path class="cls-2" d="M276.85,207.79l-40.28,40.29h-13.7a3.33,3.33,0,0,1-3.33-3.33v-16.4l20.56-20.56Z" transform="translate(-219.54 -207.79)"/><polygon class="cls-2" points="64.38 4.58 64.38 14.36 38.45 40.28 28.68 40.28 64.38 4.58"/><rect class="cls-3" x="3.42" y="32.55" width="17.08" height="4.86" rx="2.43"/><rect class="cls-3" x="22.05" y="32.55" width="8.16" height="4.86" rx="2.43"/><rect class="cls-3" x="35.59" y="32.55" width="9.37" height="4.86" rx="2.43"/><rect class="cls-3" x="46.58" y="32.55" width="14.38" height="4.86" rx="2.43"/><path class="cls-4" d="M275.5,220.89H247.61a11.41,11.41,0,1,0,0,5.63h12v5a2.82,2.82,0,0,0,5.63,0v-5h3.28v5a2.82,2.82,0,0,0,5.64,0v-5h1.33a2.82,2.82,0,1,0,0-5.63Zm-38.94,8.59a5.77,5.77,0,1,1,5.77-5.77A5.78,5.78,0,0,1,236.56,229.48Z" transform="translate(-219.54 -207.79)"/><path class="cls-5" d="M278.32,223.71a2.82,2.82,0,0,1-2.82,2.81h-1.33v5a2.82,2.82,0,0,1-5.64,0v-5h-3.28v5a2.82,2.82,0,0,1-5.63,0v-5h-12a11.41,11.41,0,0,1-22.46-2.81h5.64a5.77,5.77,0,1,0,11.54,0Z" transform="translate(-219.54 -207.79)"/><rect class="cls-3" x="46.58" y="3.26" width="14.38" height="4.86" rx="2.43"/></g></g></svg>