<svg id="LobsterTank" xmlns="http://www.w3.org/2000/svg" viewBox="0 0 169.7 188.74"><defs><style>.cls-1{fill:#cfac84;}.cls-2{fill:#a56a5e;}.cls-3{fill:#743751;}.cls-4{fill:#d57060;}.cls-5{fill:#dba592;}.cls-6{fill:#b59774;}.cls-7{fill:#c59c6d;}.cls-8{fill:#a48969;}.cls-9{fill:#9c7c56;}.cls-10{fill:#afc9dc;}.cls-11{fill:#97a5b3;}.cls-12{fill:#c1d7e2;}</style></defs><title>LobsterTank</title><g id="Layer_326_copy" data-name="Layer 326 copy"><path class="cls-1" d="M714.33,10.12c-6.8-2.71-14.57-1.65-19.43.43a31.07,31.07,0,0,0-1.25-8.93,37,37,0,0,0,10-.22,35.58,35.58,0,0,0,14.79-5.72c.32,1.19,2.43,1,2.56-.46l.15-1.69a20.61,20.61,0,0,0,5.07-6.69v1a1.33,1.33,0,0,0,1.31,1.31,1.34,1.34,0,0,0,1.3-1.31v-1.74a1.31,1.31,0,0,0-1.3-1.3,1.47,1.47,0,0,0-.58.15,13.69,13.69,0,0,0,.59-2.94,1.4,1.4,0,0,0,.78-1.47l-3-19.58c-.26-1.65-2.77-.95-2.52.7q.8,5.22,1.6,10.45c-5-6.15-15.31-9.45-26.48-7.73-10.21,1.58-18.45,6.93-22,13.48,0-.27,0-.54,0-.81-.14-3.34-5.36-3.36-5.22,0a34.19,34.19,0,0,1-.14,4.86l-.07-.09c-5.13-6-13.63-11.71-20.85-5.51C641-16.32,638.88-2.19,637.93,8.72c-.92.33-1.85.68-2.78,1.08l-2,.84c-.66-1.33-3-1.61-5.36-.63s-3.87,3-3.29,4.35A1.67,1.67,0,0,0,625,15a36,36,0,0,0-7,5.75c1.55-4.65,1.59-8.84.13-10.45-1.78-1.95-5.32,5.43-15.89,8.84a30.26,30.26,0,0,1-5.85,1.27,20.42,20.42,0,0,0-4.94-5.57,18.72,18.72,0,0,1,7-8.7c9-5.76,19.92.56,21.75-2.61s-6.11-14.85-17.4-17.4c-13.34-3-28,7.43-33.93,20-5.27,11.2-5.44,28,2.44,35.23-1.75,5.21-2.72,12.17.17,18.7,5.82,13.18,23.93,17,32,15.07A19.74,19.74,0,0,0,609,80.63c11.06,7.31,25.32.34,32.17-6.11,7.6-7.16,9.27-16.71,10.25-23.77,5.77-6.66,7.12-14.74,8.09-20.56a54,54,0,0,0-.28-19,40.4,40.4,0,0,0,14.6-19.7c9.23,17.2,7,37.41-6.23,52.34-1.1,1.25.73,3.11,1.86,1.85,6.89-7.82,11.77-17.46,12.76-27.94a44,44,0,0,0-.32-10.5l9-5.23A30.06,30.06,0,0,1,692.2,12c-1.25.87-2,1.79-2.06,2.64s.51,1.49,1.49,2.15a31.44,31.44,0,0,1-2,6.39c-.43-1.31-.86-2-1.68-1.82-2.81.66-6,6.57-6.77,13.62l-1.1.95c-1,.82-.13,2.11.92,2.15a24.51,24.51,0,0,0,1.71,9.36A26.26,26.26,0,0,0,690,57.23a16.09,16.09,0,0,0,4.37,10c-1.43,2.07-1.6,6.48-4.77,8.24-4.71,2.61-9.67-4.23-18-2.88-4.52.72-9.94,3.8-10,6.87-.1,6.23,21.94,18.58,36.79,9.39,6.08-3.76,9.22-10.06,10.72-15.35C719.66,72,729,58,731,45.8,733.23,32.07,727,15.17,714.33,10.12ZM611.62,31.76c-.14.51-.27,1-.37,1.58-5,3.72-9.74,9-11.59,16.62a34.75,34.75,0,0,0-.91,9.17c-5.24-2.38-10.68-1.36-12.59-5.2-1.61-3.22.73-7,.72-9.48a16.21,16.21,0,0,0,9.26-5.77,26.31,26.31,0,0,0,11.51-4,22.39,22.39,0,0,0,4.15-3.54Q611.7,31.48,611.62,31.76Zm46.06-25.9c-.09.07-.17.15-.27.22a1.6,1.6,0,0,0,.1-.23,29.38,29.38,0,0,0,2.11-10.27,27.55,27.55,0,0,1,9.19-5.77A35,35,0,0,1,657.68,5.86Zm12-19.1-.17.05a29.28,29.28,0,0,0-10,5.41,29.16,29.16,0,0,0-1.45-6.86c-1.07-3.17-6.1-1.81-5,1.39a25.13,25.13,0,0,1,1.21,10.78,43.76,43.76,0,0,0-3.47,5A7,7,0,0,0,648.85,2c-2.57-.34-4.83.59-5,2.09-.13,1,.62,1.93,1.86,2.59a51.88,51.88,0,0,0-5.07,1.2c.91-9.69,2.86-21.47,9.6-28.55s15-.2,19.76,6.1C669.9-14.14,669.79-13.68,669.68-13.24ZM681.42,4.67a49.68,49.68,0,0,0-2.94-9.57,18.58,18.58,0,0,0,2,1.7,7.78,7.78,0,0,0,1.57,3Zm26,35.53A20.2,20.2,0,0,0,700.2,42,31.23,31.23,0,0,1,690.74,27,36.53,36.53,0,0,0,694,18.16c4,2,9.94,4.71,12.59,10.93A18.81,18.81,0,0,1,707.44,40.2Z" transform="translate(-565.01 40)"/></g><g id="Layer_326" data-name="Layer 326"><path class="cls-2" d="M609,82.37c11.06,7.31,25.32.34,32.17-6.11,8-7.56,9.43-17.78,10.42-24.94a62.26,62.26,0,0,0-2.4-27A53.91,53.91,0,0,0,624.57,28c-6.61,2.71-21.26,8.72-24.91,23.68C597.42,60.88,598.78,75.65,609,82.37Z" transform="translate(-565.01 40)"/><ellipse class="cls-3" cx="648.49" cy="6.44" rx="2.75" ry="4.71" transform="matrix(0.13, -0.99, 0.99, 0.13, -8.89, 688.35)"/><path class="cls-4" d="M689.79-4.86a16.66,16.66,0,0,0-14.55-7.52,39.94,39.94,0,0,0,.62-8.85c-.14-3.34-5.36-3.36-5.22,0a34.19,34.19,0,0,1-.14,4.86l-.07-.09c-5.13-6-13.63-11.72-20.85-5.51C641-14.58,638.88-.45,637.93,10.46c-.92.33-1.85.68-2.78,1.08-6.17,2.61-19.81,8.37-23.53,22-2.29,8.34-1.37,21.63,7.84,27.45,10,6.34,23.35-.28,29.81-6.27,7.58-7,9.12-16.27,10.2-22.75a54,54,0,0,0-.28-19,40.4,40.4,0,0,0,14.6-19.7c9.23,17.2,7,37.41-6.23,52.34-1.1,1.25.73,3.11,1.86,1.85,6.89-7.82,11.77-17.46,12.76-27.94.93-9.93-1.81-20.44-7-29.16,5.89-.12,11,3,14,9,6.54,13.33,2.23,29.17-9,38.41-1.3,1.07.55,2.9,1.84,1.84C694.74,29,699.39,9.33,689.79-4.86ZM653-11.51A25.13,25.13,0,0,1,654.25-.73a43.69,43.69,0,0,0-5.46,8.66,50.4,50.4,0,0,0-8.18,1.67c.91-9.69,2.86-21.47,9.6-28.55s15-.2,19.76,6.1c-.07.45-.18.91-.29,1.35l-.17.05a29.28,29.28,0,0,0-10,5.41,29.16,29.16,0,0,0-1.45-6.86C657-16.07,652-14.71,653-11.51ZM657.68,7.6c-.09.07-.17.15-.27.22a1.6,1.6,0,0,0,.1-.23,29.38,29.38,0,0,0,2.11-10.27,27.55,27.55,0,0,1,9.19-5.77A35,35,0,0,1,657.68,7.6Z" transform="translate(-565.01 40)"/><path class="cls-4" d="M657.68,7.6c-.09.07-.17.15-.27.22a1.6,1.6,0,0,0,.1-.23Z" transform="translate(-565.01 40)"/><ellipse class="cls-3" cx="628.88" cy="14.28" rx="4.71" ry="2.75" transform="translate(-521.72 284.01) rotate(-22.72)"/><path class="cls-2" d="M586.16,55.67c2.41,4.82,10.37,2,16.53,7.83,3.31,3.15,6,8.76,4.35,11.31-3.45,5.2-28.61,2.94-35.67-13.05-5.64-12.76,3.4-27.15,4.35-27,.61.12-1.29,6.39,1.74,8.7,2.7,2,6.65-1,8.7.87C588.53,46.57,584.09,51.53,586.16,55.67Z" transform="translate(-565.01 40)"/><path class="cls-2" d="M618.06,12c3.05,3.35-.48,17.94-10.41,24.48-7.44,4.89-19.6,5.93-24.1.07-2.8-3.66-2.93-10.38-1.86-14.13a1.52,1.52,0,0,1,.14-.41c1.16-1.63,9.44,2.34,20.35-1.17C612.74,17.42,616.29,10,618.06,12Z" transform="translate(-565.01 40)"/><path class="cls-4" d="M597.47,38.28c-4.4,8.79-16.7,10.23-23.5,6.71-10.64-5.5-11-24.77-5.21-37.16,5.92-12.58,20.6-23,33.93-20C614-9.63,621.93,2,620.09,5.22s-12.71-3.15-21.75,2.61a18.78,18.78,0,0,0-7,8.7C598.59,22.17,600.86,31.48,597.47,38.28Z" transform="translate(-565.01 40)"/><path class="cls-2" d="M689.62,77.18C684.91,79.8,680,73,671.56,74.3c-4.51.73-9.93,3.81-10,6.88-.1,6.23,21.94,18.58,36.8,9.38,11.86-7.34,12.53-24.32,11.64-24.7-.57-.25-2.54,6-6.35,6.19-3.38.17-4.9-4.61-7.67-4.2C692.81,68.33,693.68,74.94,689.62,77.18Z" transform="translate(-565.01 40)"/><path class="cls-2" d="M688,23.11c-4.42,1-9.74,15.08-5.24,26.08,3.37,8.24,12.82,16,19.84,13.68,4.37-1.44,8.28-6.91,9.52-10.61a2.28,2.28,0,0,0,.12-.41c0-2-9.12-3.4-16.13-12.47C689.31,30.6,690.55,22.51,688,23.11Z" transform="translate(-565.01 40)"/><path class="cls-4" d="M690.12,56.44c-1.34,9.74,8,17.88,15.6,18.82,11.88,1.47,23.1-14.21,25.29-27.72,2.23-13.72-4-30.63-16.68-35.68-10.76-4.28-23.91.86-24.19,4.53S702.41,21,706.61,30.83a18.81,18.81,0,0,1,.83,11.11C698.3,42.52,691.16,48.91,690.12,56.44Z" transform="translate(-565.01 40)"/><path class="cls-5" d="M727.43-19.5C729-9.27,718.35.87,703.64,3.14a36.58,36.58,0,0,1-11.73,0L681,9.41l1.29-9.67c-4.45-2.61-7.48-6.43-8.18-11-1.59-10.22,9.07-20.36,23.78-22.64S725.84-29.72,727.43-19.5Z" transform="translate(-565.01 40)"/><path class="cls-2" d="M680.29-19.78c1.09,2.24,4.63,10.85,8.58,7.89,3.74-2.81,2.57-12.64,2.55-16.38l-2.57.35a146.66,146.66,0,0,1,3.83,20c.25,2.34.75,5.43-.88,7.39-2,2.39-6.08,2.71-8.07-.1-1.57-2.22-1.08-5-.19-7.33.6-1.57-1.92-2.25-2.52-.69-1.45,3.83-1.3,8.75,2.34,11.37,3.3,2.36,8.31,1.26,10.7-1.91,2.2-2.94,1.45-7.15,1-10.5a170.34,170.34,0,0,0-3.7-19,1.31,1.31,0,0,0-2.56.35c0,4,.25,8.39-.76,12.3-1.2,4.63-4.71-3.49-5.51-5.13s-3-.19-2.25,1.32Z" transform="translate(-565.01 40)"/><path class="cls-2" d="M694.94-18.36c.46,1.8,2.38,13.14,6.42,11.19,1.36-.66,1.74-2.74,2-4a73.34,73.34,0,0,0,1.1-11c.09-1.68-2.52-1.67-2.61,0-.14,2.65-.3,5.31-.64,7.94-.11.87-.23,1.74-.42,2.6a8.46,8.46,0,0,0-.52,1.85c0,.12-.19.25-.2.37,0-.25.52.1.5-.38s-.74-1.45-.92-1.89A60.42,60.42,0,0,1,697.46-19a1.31,1.31,0,0,0-2.52.69Z" transform="translate(-565.01 40)"/><path class="cls-2" d="M709.68-10.87c-.34-3.35-.67-6.7-.85-10.06-.12-2.18.25-4.6,0-6.75a6.24,6.24,0,0,1,.13-.85c.28-.55,0-.63-.77-.24.27.63.9,1.31,1.25,1.93a62.67,62.67,0,0,1,3.79,9.35,1.32,1.32,0,0,0,2.38.32c.58-1.07,2.49-4.73,2.91-4.38.65.54.51,3.13.55,3.82A109.3,109.3,0,0,1,718.38-3c-.14,1.67,2.47,1.66,2.61,0a128.75,128.75,0,0,0,.71-13.32c0-1.95.07-4.62-.91-6.41-2.53-4.66-6.34,2.21-7.45,4.28l2.39.31c-.64-1.79-4.26-15.45-8.31-12.78-1.34.88-1.25,3.38-1.31,4.74a108,108,0,0,0,1,15.35c.17,1.65,2.79,1.67,2.61,0Z" transform="translate(-565.01 40)"/><path class="cls-2" d="M722.79-36.62l3,19.57c.26,1.65,2.77.95,2.52-.69l-3-19.58c-.25-1.65-2.77-1-2.52.7Z" transform="translate(-565.01 40)"/><path class="cls-2" d="M728.82-10.44v-1.74a1.32,1.32,0,0,0-1.3-1.3,1.33,1.33,0,0,0-1.31,1.3v1.74a1.33,1.33,0,0,0,1.31,1.31,1.33,1.33,0,0,0,1.3-1.31Z" transform="translate(-565.01 40)"/></g><g id="CrateBot_copy_6" data-name="CrateBot copy 6"><g id="Layer_13_copy_26" data-name="Layer 13 copy 26"><rect class="cls-6" x="631.11" y="37.13" width="60.89" height="146.3" transform="translate(206.83 -511.27) rotate(90)"/></g><g id="Layer_12_copy_30" data-name="Layer 12 copy 30"><rect class="cls-1" x="632.21" y="15.88" width="58.69" height="146.3" rx="15.89" transform="translate(185.58 -532.52) rotate(90)"/><path class="cls-7" d="M695.26,112.81H603.33A10.09,10.09,0,0,1,593,102.93V75.14A9.77,9.77,0,0,1,597.53,67a10.57,10.57,0,0,1,5.74-1.72h92a10.1,10.1,0,0,1,10.3,9.89v27.79a9.84,9.84,0,0,1-5.37,8.68A10.54,10.54,0,0,1,695.26,112.81Z" transform="translate(-565.01 40)"/><polygon class="cls-1" points="140.55 139.45 105.89 105.25 113.17 105.25 140.55 132.27 140.55 139.45"/><path class="cls-1" d="M695.26,112.81h-1.34l-48.2-47.56h7.49l47,46.36A10.54,10.54,0,0,1,695.26,112.81Z" transform="translate(-565.01 40)"/><polygon class="cls-1" points="111.23 152.81 103.94 152.81 55.75 105.25 63.04 105.25 107.52 149.15 111.23 152.81"/><path class="cls-1" d="M651.47,112.81H644L597.53,67a10.57,10.57,0,0,1,5.74-1.72Z" transform="translate(-565.01 40)"/><polygon class="cls-1" points="61.48 152.81 54.21 152.81 28.03 126.97 28.03 119.79 61.48 152.81"/><path class="cls-7" d="M720,112.81H628.05a10.09,10.09,0,0,1-10.29-9.88V75.14a9.78,9.78,0,0,1,4.5-8.17A10.57,10.57,0,0,1,628,65.25h92a10.1,10.1,0,0,1,10.29,9.89v27.79a9.83,9.83,0,0,1-5.36,8.68A10.57,10.57,0,0,1,720,112.81Z" transform="translate(-565.01 40)"/><polygon class="cls-1" points="165.27 139.45 130.62 105.25 137.9 105.25 165.27 132.27 165.27 139.45"/><path class="cls-1" d="M720,112.81h-1.35l-48.2-47.56h7.5l47,46.36A10.57,10.57,0,0,1,720,112.81Z" transform="translate(-565.01 40)"/><polygon class="cls-1" points="135.96 152.81 128.67 152.81 80.48 105.25 87.77 105.25 132.24 149.15 135.96 152.81"/><path class="cls-1" d="M676.19,112.81h-7.48L622.26,67A10.57,10.57,0,0,1,628,65.25Z" transform="translate(-565.01 40)"/><polygon class="cls-1" points="86.21 152.81 78.94 152.81 52.75 126.97 52.75 119.79 86.21 152.81"/><polygon class="cls-1" points="61.48 152.81 54.21 152.81 28.03 126.97 28.03 119.79 61.48 152.81"/></g><g id="Layer_12_copy_30-2" data-name="Layer 12 copy 30"><rect class="cls-8" x="646.28" y="60.31" width="30.56" height="146.3" rx="9.87" transform="translate(230.01 -488.09) rotate(90)"/><path class="cls-9" d="M695.26,146H603.33c-5.68,0-10.29-2.3-10.29-5.14V126.35c0-1.77,1.78-3.33,4.49-4.26a18,18,0,0,1,5.74-.89h92c5.69,0,10.3,2.3,10.3,5.15v14.47c0,2-2.17,3.64-5.37,4.52A18.84,18.84,0,0,1,695.26,146Z" transform="translate(-565.01 40)"/><polygon class="cls-8" points="140.55 179 105.89 161.2 113.17 161.2 140.55 175.26 140.55 179"/><path class="cls-8" d="M695.26,146h-1.34l-48.2-24.76h7.49l47,24.14A18.84,18.84,0,0,1,695.26,146Z" transform="translate(-565.01 40)"/><polygon class="cls-8" points="111.23 185.96 103.94 185.96 55.75 161.2 63.04 161.2 107.52 184.05 111.23 185.96"/><path class="cls-8" d="M651.47,146H644l-46.45-23.87a18,18,0,0,1,5.74-.89Z" transform="translate(-565.01 40)"/><polygon class="cls-8" points="61.48 185.96 54.21 185.96 28.03 172.51 28.03 168.77 61.48 185.96"/><path class="cls-9" d="M720,146H628.05c-5.68,0-10.29-2.3-10.29-5.14V126.35c0-1.77,1.79-3.33,4.5-4.26a18,18,0,0,1,5.74-.89h92c5.68,0,10.29,2.3,10.29,5.15v14.47c0,2-2.16,3.64-5.36,4.52A18.89,18.89,0,0,1,720,146Z" transform="translate(-565.01 40)"/><polygon class="cls-8" points="165.27 179 130.62 161.2 137.9 161.2 165.27 175.26 165.27 179"/><path class="cls-8" d="M720,146h-1.35l-48.2-24.76h7.5l47,24.14A18.89,18.89,0,0,1,720,146Z" transform="translate(-565.01 40)"/><polygon class="cls-8" points="135.96 185.96 128.67 185.96 80.48 161.2 87.77 161.2 132.24 184.05 135.96 185.96"/><path class="cls-8" d="M676.19,146h-7.48l-46.45-23.87a18,18,0,0,1,5.74-.89Z" transform="translate(-565.01 40)"/><polygon class="cls-8" points="86.21 185.96 78.94 185.96 52.75 172.51 52.75 168.77 86.21 185.96"/><polygon class="cls-8" points="61.48 185.96 54.21 185.96 28.03 172.51 28.03 168.77 61.48 185.96"/></g></g><path class="cls-10" d="M734.71,61.41v35a16.46,16.46,0,0,1-16.46,16.46H604.4A16.46,16.46,0,0,1,588,96.36V61.41a16.25,16.25,0,0,1,1.57-7A16.46,16.46,0,0,1,601,45.3,16.89,16.89,0,0,1,604.4,45H675l.19.27,2.41,3.41.66.94,8,11.31,2.56-11.31.22-.94.77-3.41.07-.27h1.58l.08.27.9,3.41.25.94L694,54.8l1.89-5.22.34-.94,1.25-3.41.1-.27h20.64a16.17,16.17,0,0,1,3.29.33h0A16.47,16.47,0,0,1,733.65,55.6,16.2,16.2,0,0,1,734.71,61.41Z" transform="translate(-565.01 40)"/><path class="cls-11" d="M728.61,58.41v41c0,5.39-6.78,9.76-15.15,9.76H609.19c-8.36,0-15.15-4.37-15.15-9.76V58.41c0-3.89,3.55-7.26,8.67-8.83a22.29,22.29,0,0,1,6.48-.94h68.36l.66.94,8,11.31,2.56-11.31.22-.94h3.4l.25.94L694,54.8l1.89-5.22.34-.94h17.2a22.29,22.29,0,0,1,6.48.94C725.06,51.15,728.61,54.52,728.61,58.41Z" transform="translate(-565.01 40)"/><path class="cls-10" d="M728.61,89.14V99.65c0,6.1-6.78,11-15.15,11H609.2c-8.37,0-15.16-5-15.16-11V89.14a14.85,14.85,0,0,1,9.39-3.08H719.22A14.85,14.85,0,0,1,728.61,89.14Z" transform="translate(-565.01 40)"/><path class="cls-12" d="M692.38,49l-.9-3.72h-1.73L689,49l-.22,1h3.87Zm41.27,7.58c-1.38-6.09-6.2-10.72-12.08-11.24h0a10,10,0,0,0-1.1-.06H697.51L696.26,49l-.34,1h24.52c5.1,0,9.25,4.52,9.25,10.08V71.17a10.68,10.68,0,0,1-1.08,4.73,9.17,9.17,0,0,1-8.17,5.36H602.37a9.22,9.22,0,0,1-8.33-5.7,10.78,10.78,0,0,1-.92-4.39V60.06c0-5.56,4.15-10.08,9.25-10.08h75.84l-.66-1-2.41-3.72H602.37a11.9,11.9,0,0,0-1.34.08,13.88,13.88,0,0,0-11.51,9.93,15.54,15.54,0,0,0-.75,4.82V71.17A15.26,15.26,0,0,0,594,82.87,12.81,12.81,0,0,0,602.37,86H720.44a12.8,12.8,0,0,0,8.17-3A15.23,15.23,0,0,0,734,71.17V60.06A16.25,16.25,0,0,0,733.65,56.53ZM692.38,49H689l-.22,1h3.87Z" transform="translate(-565.01 40)"/><path class="cls-12" d="M606.71,82.7,601.78,93a1.35,1.35,0,0,0,.54,1.86L623,109.2c1.53,1.06,3-1.29,1.52-2.34l-20.69-14.3.54,1.85,4.93-10.34c.75-1.59-1.83-3-2.59-1.37Z" transform="translate(-565.01 40)"/><path class="cls-12" d="M632.36,98.74,611,97.83a1.36,1.36,0,1,0,0,2.71l21.4.91a1.36,1.36,0,1,0,0-2.71Z" transform="translate(-565.01 40)"/><path class="cls-12" d="M705,83.21,697,95a1.24,1.24,0,0,0,0,1.37L704.86,109c.95,1.52,3.54.15,2.59-1.37-2.55-4.11-4.77-8.68-7.78-12.53.73.94-.77,1.19.33.76.3-.12.62-.92.78-1.16l2.58-3.81,4.25-6.28c1-1.49-1.58-2.86-2.59-1.37Z" transform="translate(-565.01 40)"/><path class="cls-12" d="M716.89,100.38c-2.22-3-4.31-6.06-6.68-8.94-1.78-2.16-6.42-1.15-9.14-1.15a1.36,1.36,0,1,0,0,2.71h7.49l-1.3-.67,7,9.42c1.07,1.44,3.67.08,2.59-1.37Z" transform="translate(-565.01 40)"/></svg>