<svg id="LongCrate" xmlns="http://www.w3.org/2000/svg" viewBox="0 0 140.26 102.63"><defs><style>.cls-1{fill:#b59774;}.cls-2{fill:#cfac84;}.cls-3{fill:#c59c6d;}.cls-4{fill:#a48969;}.cls-5{fill:#9c7c56;}</style></defs><title>LongCrate1</title><g id="CrateBot"><g id="Layer_13_copy_24" data-name="Layer 13 copy 24"><rect class="cls-1" x="354.5" y="68.86" width="70" height="139.84" transform="translate(208.7 -331.09) rotate(90)"/></g><g id="Layer_12_copy_27" data-name="Layer 12 copy 27"><rect class="cls-2" x="355.98" y="43.96" width="67.46" height="140.26" rx="15.89" transform="translate(184.22 -355.98) rotate(90)"/><path class="cls-3" d="M442.42,141.69H336.73a11.6,11.6,0,0,1-11.83-11.36v-32a11.26,11.26,0,0,1,5.17-9.4,12.12,12.12,0,0,1,6.6-2H442.42a11.61,11.61,0,0,1,11.83,11.37v32a11.29,11.29,0,0,1-6.17,10A12.06,12.06,0,0,1,442.42,141.69Z" transform="translate(-319.58 -80.36)"/><polygon class="cls-2" points="134.67 45.96 94.83 6.65 103.2 6.65 134.67 37.7 134.67 45.96"/><path class="cls-2" d="M442.42,141.69h-1.55L385.46,87h8.62l54,53.29A12.06,12.06,0,0,1,442.42,141.69Z" transform="translate(-319.58 -80.36)"/><polygon class="cls-2" points="100.97 61.33 92.59 61.33 37.19 6.65 45.57 6.65 96.7 57.11 100.97 61.33"/><path class="cls-2" d="M392.07,141.69h-8.6L330.07,89a12.12,12.12,0,0,1,6.6-2Z" transform="translate(-319.58 -80.36)"/><polygon class="cls-2" points="43.78 61.33 35.42 61.33 5.32 31.62 5.32 23.36 43.78 61.33"/></g><g id="Layer_12_copy_28" data-name="Layer 12 copy 28"><rect class="cls-4" x="372.15" y="95.3" width="35.13" height="140.26" rx="9.87" transform="translate(235.56 -304.65) rotate(90)"/><path class="cls-5" d="M442.42,179.79H336.73c-6.53,0-11.83-2.64-11.83-5.91V157.24c0-2,2.05-3.82,5.17-4.89a21,21,0,0,1,6.6-1H442.42c6.53,0,11.83,2.65,11.83,5.92v16.64c0,2.24-2.49,4.19-6.17,5.19A21.63,21.63,0,0,1,442.42,179.79Z" transform="translate(-319.58 -80.36)"/><polygon class="cls-4" points="134.67 91.43 94.83 70.96 103.2 70.96 134.67 87.13 134.67 91.43"/><path class="cls-4" d="M442.42,179.79h-1.55l-55.41-28.47h8.62l54,27.75A21.63,21.63,0,0,1,442.42,179.79Z" transform="translate(-319.58 -80.36)"/><polygon class="cls-4" points="100.97 99.43 92.59 99.43 37.19 70.96 45.57 70.96 96.7 97.24 100.97 99.43"/><path class="cls-4" d="M392.07,179.79h-8.6l-53.4-27.44a21,21,0,0,1,6.6-1Z" transform="translate(-319.58 -80.36)"/><polygon class="cls-4" points="43.78 99.43 35.42 99.43 5.32 83.96 5.32 79.66 43.78 99.43"/></g></g></svg>