<svg id="LongCrate" xmlns="http://www.w3.org/2000/svg" viewBox="0 0 140.26 138.06"><defs><style>.cls-1{fill:#b59774;}.cls-2{fill:#cfac84;}.cls-3{fill:#c59c6d;}.cls-4{fill:#a48969;}.cls-5{fill:#9c7c56;}</style></defs><title>LongCrate2</title><g id="CrateBot"><g id="Layer_13_copy_24" data-name="Layer 13 copy 24"><rect class="cls-1" x="354.5" y="68.86" width="70" height="139.84" transform="translate(208.7 -295.66) rotate(90)"/></g><g id="Layer_12_copy_27" data-name="Layer 12 copy 27"><rect class="cls-2" x="355.98" y="43.96" width="67.46" height="140.26" rx="15.89" transform="translate(184.22 -320.55) rotate(90)"/><path class="cls-3" d="M442.42,141.69H336.73a11.6,11.6,0,0,1-11.83-11.36v-32a11.26,11.26,0,0,1,5.17-9.4,12.12,12.12,0,0,1,6.6-2H442.42a11.61,11.61,0,0,1,11.83,11.37v32a11.29,11.29,0,0,1-6.17,10A12.06,12.06,0,0,1,442.42,141.69Z" transform="translate(-319.58 -44.93)"/><polygon class="cls-2" points="134.67 81.39 94.83 42.08 103.2 42.08 134.67 73.13 134.67 81.39"/><path class="cls-2" d="M442.42,141.69h-1.55L385.46,87h8.62l54,53.29A12.06,12.06,0,0,1,442.42,141.69Z" transform="translate(-319.58 -44.93)"/><polygon class="cls-2" points="100.97 96.75 92.59 96.75 37.19 42.08 45.57 42.08 96.7 92.54 100.97 96.75"/><path class="cls-2" d="M392.07,141.69h-8.6L330.07,89a12.12,12.12,0,0,1,6.6-2Z" transform="translate(-319.58 -44.93)"/><polygon class="cls-2" points="43.78 96.75 35.42 96.75 5.32 67.05 5.32 58.79 43.78 96.75"/></g><g id="Layer_12_copy_28" data-name="Layer 12 copy 28"><rect class="cls-4" x="372.15" y="95.3" width="35.13" height="140.26" rx="9.87" transform="translate(235.56 -269.22) rotate(90)"/><path class="cls-5" d="M442.42,179.79H336.73c-6.53,0-11.83-2.64-11.83-5.91V157.24c0-2,2.05-3.82,5.17-4.89a21,21,0,0,1,6.6-1H442.42c6.53,0,11.83,2.65,11.83,5.92v16.64c0,2.24-2.49,4.19-6.17,5.19A21.63,21.63,0,0,1,442.42,179.79Z" transform="translate(-319.58 -44.93)"/><polygon class="cls-4" points="134.67 126.86 94.83 106.39 103.2 106.39 134.67 122.56 134.67 126.86"/><path class="cls-4" d="M442.42,179.79h-1.55l-55.41-28.47h8.62l54,27.75A21.63,21.63,0,0,1,442.42,179.79Z" transform="translate(-319.58 -44.93)"/><polygon class="cls-4" points="100.97 134.86 92.59 134.86 37.19 106.39 45.57 106.39 96.7 132.67 100.97 134.86"/><path class="cls-4" d="M392.07,179.79h-8.6l-53.4-27.44a21,21,0,0,1,6.6-1Z" transform="translate(-319.58 -44.93)"/><polygon class="cls-4" points="43.78 134.86 35.42 134.86 5.32 119.39 5.32 115.09 43.78 134.86"/></g></g><g id="Cratemid"><g id="Layer_13_copy_25" data-name="Layer 13 copy 25"><rect class="cls-1" x="354.5" y="33.43" width="70" height="139.84" transform="translate(173.27 -331.09) rotate(90)"/></g><g id="Layer_12_copy_29" data-name="Layer 12 copy 29"><rect class="cls-2" x="355.98" y="8.53" width="67.46" height="140.26" rx="15.89" transform="translate(148.8 -355.98) rotate(90)"/><path class="cls-3" d="M442.42,106.26H336.73A11.6,11.6,0,0,1,324.9,94.9V63a11.26,11.26,0,0,1,5.17-9.4,12.12,12.12,0,0,1,6.6-2H442.42A11.61,11.61,0,0,1,454.25,63v32a11.29,11.29,0,0,1-6.17,10A12.06,12.06,0,0,1,442.42,106.26Z" transform="translate(-319.58 -44.93)"/><polygon class="cls-2" points="134.67 45.96 94.83 6.65 103.2 6.65 134.67 37.7 134.67 45.96"/><path class="cls-2" d="M442.42,106.26h-1.55L385.46,51.58h8.62l54,53.29A12.06,12.06,0,0,1,442.42,106.26Z" transform="translate(-319.58 -44.93)"/><polygon class="cls-2" points="100.97 61.33 92.59 61.33 37.19 6.65 45.57 6.65 96.7 57.11 100.97 61.33"/><path class="cls-2" d="M392.07,106.26h-8.6l-53.4-52.71a12.12,12.12,0,0,1,6.6-2Z" transform="translate(-319.58 -44.93)"/><polygon class="cls-2" points="43.78 61.33 35.42 61.33 5.32 31.62 5.32 23.36 43.78 61.33"/></g><g id="Layer_12_copy_29-2" data-name="Layer 12 copy 29"><rect class="cls-4" x="372.15" y="59.87" width="35.13" height="140.26" rx="9.87" transform="translate(200.13 -304.65) rotate(90)"/><path class="cls-5" d="M442.42,144.37H336.73c-6.53,0-11.83-2.65-11.83-5.92V121.82c0-2,2.05-3.83,5.17-4.9a20.74,20.74,0,0,1,6.6-1H442.42c6.53,0,11.83,2.65,11.83,5.92v16.63c0,2.24-2.49,4.19-6.17,5.2A21.63,21.63,0,0,1,442.42,144.37Z" transform="translate(-319.58 -44.93)"/><polygon class="cls-4" points="134.67 91.43 94.83 70.96 103.2 70.96 134.67 87.13 134.67 91.43"/><path class="cls-4" d="M442.42,144.37h-1.55L385.46,115.9h8.62l54,27.75A21.63,21.63,0,0,1,442.42,144.37Z" transform="translate(-319.58 -44.93)"/><polygon class="cls-4" points="100.97 99.43 92.59 99.43 37.19 70.96 45.57 70.96 96.7 97.24 100.97 99.43"/><path class="cls-4" d="M392.07,144.37h-8.6l-53.4-27.45a20.74,20.74,0,0,1,6.6-1Z" transform="translate(-319.58 -44.93)"/><polygon class="cls-4" points="43.78 99.43 35.42 99.43 5.32 83.96 5.32 79.66 43.78 99.43"/></g></g></svg>