<svg id="Pipes" xmlns="http://www.w3.org/2000/svg" viewBox="0 0 264 264.9"><defs><style>.cls-1{fill:#82a2d5;}.cls-2{fill:#9fd1f1;}.cls-3{fill:#6691cc;}</style></defs><title>Pipes4</title><path class="cls-1" d="M279,130.5V150H52.5a20.5,20.5,0,1,1,0-41h205a20.5,20.5,0,0,1,15,6.51l.51.49A20.5,20.5,0,0,1,279,130.5Z" transform="translate(-22 -83.1)"/><g id="Plugger"><rect class="cls-1" y="17.9" width="58" height="58" rx="13.33"/><rect class="cls-2" y="14.9" width="58" height="58" rx="13.33"/><rect class="cls-3" x="22.5" y="94.5" width="58" height="41" rx="20.5" transform="translate(144.5 -19.6) rotate(90)"/><circle class="cls-1" cx="9.5" cy="63.4" r="2.5"/><circle class="cls-1" cx="49.5" cy="63.4" r="2.5"/></g><g id="Plugger-2" data-name="Plugger"><rect class="cls-1" x="206" y="206.9" width="58" height="58" rx="13.33"/><rect class="cls-2" x="206" y="203.9" width="58" height="58" rx="13.33"/><rect class="cls-3" x="228.5" y="283.5" width="58" height="41" rx="20.5" transform="translate(539.5 -36.6) rotate(90)"/><circle class="cls-1" cx="215.5" cy="252.4" r="2.5"/><circle class="cls-1" cx="255.5" cy="252.4" r="2.5"/></g><path class="cls-1" d="M67.19,127.06c-13.55,8-32.9,6.61-35.61-11.77-.56-3.82-6.48-2.81-5.91,1,3.26,22.08,27,26.27,44,16.21,3.29-1.94.83-7.42-2.5-5.45Z" transform="translate(-22 -83.1)"/><path class="cls-3" d="M278,107.5v205a20.5,20.5,0,1,1-41,0V127H51.5a20.5,20.5,0,1,1,0-41h205a20.5,20.5,0,0,1,15,6.51L272,93A20.5,20.5,0,0,1,278,107.5Z" transform="translate(-22 -83.1)"/><g id="Layer_352" data-name="Layer 352"><path class="cls-1" d="M238.62,129.12a25.57,25.57,0,0,1,38.76,0c2.52,2.94,6.74-1.32,4.24-4.24-12.19-14.22-35-14.21-47.24,0-2.51,2.91,1.72,7.18,4.24,4.24Z" transform="translate(-22 -83.1)"/><path class="cls-1" d="M237.62,209.12a25.57,25.57,0,0,1,38.76,0c2.52,2.94,6.74-1.32,4.24-4.24-12.19-14.22-35-14.21-47.24,0-2.51,2.91,1.72,7.18,4.24,4.24Z" transform="translate(-22 -83.1)"/><path class="cls-1" d="M234,291c-.66,13.54,9.91,26.33,24,26,13.7-.32,23.68-12.74,23-26-.2-3.84-6.2-3.87-6,0,.51,10-6.45,19.71-17,20-10.95.3-18.5-9.7-18-20,.19-3.86-5.81-3.85-6,0Z" transform="translate(-22 -83.1)"/><path class="cls-1" d="M239.59,289.51c8.39-12.36,27.43-12.36,35.82,0,2.16,3.18,7.36.18,5.18-3a28,28,0,0,0-46.18,0c-2.17,3.2,3,6.21,5.18,3Z" transform="translate(-22 -83.1)"/><path class="cls-1" d="M234,86c.13,13.68,0,27.42-.51,41.1-.14,3.86,5.87,3.86,6,0,.47-13.68.64-27.42.51-41.1,0-3.86-6-3.87-6,0Z" transform="translate(-22 -83.1)"/><path class="cls-1" d="M64,86c.13,13.68,0,27.42-.51,41.1-.14,3.86,5.87,3.86,6,0,.47-13.68.64-27.42.51-41.1,0-3.86-6-3.87-6,0Z" transform="translate(-22 -83.1)"/><path class="cls-1" d="M149,86c.13,13.68,0,27.42-.51,41.1-.14,3.86,5.87,3.86,6,0,.47-13.68.64-27.42.51-41.1,0-3.86-6-3.87-6,0Z" transform="translate(-22 -83.1)"/></g></svg>