<svg id="Pipes_copy" data-name="Pipes copy" xmlns="http://www.w3.org/2000/svg" viewBox="0 0 265 280"><defs><style>.cls-1{fill:#82a2d5;}.cls-2{fill:#9fd1f1;}.cls-3{fill:#6691cc;}</style></defs><title>Pipes2</title><path class="cls-1" d="M428,634.5V615H654.5a20.5,20.5,0,1,1,0,41h-205a20.5,20.5,0,0,1-15-6.51L434,649A20.5,20.5,0,0,1,428,634.5Z" transform="translate(-419 -392)"/><g id="Plugger"><rect class="cls-1" x="626" y="614" width="58" height="58" rx="13.33" transform="translate(891 894) rotate(-180)"/><rect class="cls-2" x="626" y="611" width="58" height="58" rx="13.33" transform="translate(891 888) rotate(-180)"/><rect class="cls-3" x="625.5" y="607.5" width="58" height="41" rx="20.5" transform="translate(863.5 -418.5) rotate(90)"/><circle class="cls-1" cx="255.5" cy="267.5" r="2.5"/><circle class="cls-1" cx="215.5" cy="267.5" r="2.5"/></g><g id="Plugger-2" data-name="Plugger"><rect class="cls-1" x="419" y="403" width="58" height="58" rx="13.33" transform="translate(477 472) rotate(-180)"/><rect class="cls-2" x="419" y="400" width="58" height="58" rx="13.33" transform="translate(477 466) rotate(-180)"/><rect class="cls-3" x="419.5" y="400.5" width="58" height="41" rx="20.5" transform="translate(-391.5 477.5) rotate(-90)"/><circle class="cls-1" cx="48.5" cy="56.5" r="2.5"/><circle class="cls-1" cx="8.5" cy="56.5" r="2.5"/></g><path class="cls-1" d="M638.81,640.06c13.55,8,32.9,6.61,35.61-11.77.56-3.82,6.48-2.81,5.91,1-3.26,22.08-27,26.27-44,16.21-3.29-1.94-.83-7.42,2.5-5.45Z" transform="translate(-419 -392)"/><path class="cls-3" d="M428,617.5v-188A20.5,20.5,0,0,1,448.5,409a24.25,24.25,0,0,1,5.36.71,20.47,20.47,0,0,1,14.43,14.44,20.1,20.1,0,0,1,.71,5.35V598H654.5a20.5,20.5,0,1,1,0,41h-205a20.5,20.5,0,0,1-15-6.51L434,632A20.5,20.5,0,0,1,428,617.5Z" transform="translate(-419 -392)"/><g id="Layer_352_copy_2" data-name="Layer 352 copy 2"><path class="cls-1" d="M468.38,438a25.57,25.57,0,0,0-38.76,0c-2.52,2.94-6.74-1.32-4.24-4.24,12.19-14.22,35-14.21,47.24,0,2.51,2.91-1.72,7.18-4.24,4.24Z" transform="translate(-419 -392)"/><path class="cls-1" d="M469.38,518a25.57,25.57,0,0,0-38.76,0c-2.52,2.94-6.74-1.32-4.24-4.24,12.19-14.22,35-14.21,47.24,0,2.51,2.91-1.72,7.18-4.24,4.24Z" transform="translate(-419 -392)"/><path class="cls-1" d="M472,428.5c.66-15.88-9.91-30.88-24-30.49-13.7.38-23.68,14.94-23,30.49.2,4.51,6.2,4.53,6,0-.51-11.68,6.45-23.11,17-23.46,10.95-.35,18.5,11.38,18,23.46-.19,4.53,5.81,4.52,6,0Z" transform="translate(-419 -392)"/><path class="cls-1" d="M467.41,598.42c-8.39-12.36-27.43-12.36-35.82,0-2.16,3.18-7.36.18-5.18-3a28,28,0,0,1,46.18,0c2.17,3.2-3,6.2-5.18,3Z" transform="translate(-419 -392)"/><path class="cls-1" d="M472,639c-.13-13.68,0-27.42.51-41.1.14-3.86-5.87-3.86-6,0-.47,13.68-.64,27.42-.51,41.1,0,3.86,6,3.87,6,0Z" transform="translate(-419 -392)"/><path class="cls-1" d="M642,639c-.13-13.68,0-27.42.51-41.1.14-3.86-5.87-3.86-6,0-.47,13.68-.64,27.42-.51,41.1,0,3.86,6,3.87,6,0Z" transform="translate(-419 -392)"/><path class="cls-1" d="M557,639c-.13-13.68,0-27.42.51-41.1.14-3.86-5.87-3.86-6,0-.47,13.68-.64,27.42-.51,41.1,0,3.86,6,3.87,6,0Z" transform="translate(-419 -392)"/></g></svg>