<svg id="Pipes" xmlns="http://www.w3.org/2000/svg" viewBox="0 0 264 264.9"><defs><style>.cls-1{fill:#82a2d5;}.cls-2{fill:#9fd1f1;}.cls-3{fill:#6691cc;}</style></defs><title>Pipes3</title><path class="cls-1" d="M303,135.5V155H529.5a20.5,20.5,0,1,0,0-41h-205a20.5,20.5,0,0,0-15,6.51L309,121A20.5,20.5,0,0,0,303,135.5Z" transform="translate(-296 -88.1)"/><g id="Plugger"><rect class="cls-1" x="502" y="106" width="58" height="58" rx="13.33" transform="translate(766 181.9) rotate(-180)"/><rect class="cls-2" x="502" y="103" width="58" height="58" rx="13.33" transform="translate(766 175.9) rotate(-180)"/><rect class="cls-3" x="501.5" y="99.5" width="58" height="41" rx="20.5" transform="translate(354.5 -498.6) rotate(90)"/><circle class="cls-1" cx="254.5" cy="63.4" r="2.5"/><circle class="cls-1" cx="214.5" cy="63.4" r="2.5"/></g><g id="Plugger-2" data-name="Plugger"><rect class="cls-1" x="296" y="295" width="58" height="58" rx="13.33" transform="translate(354 559.9) rotate(-180)"/><rect class="cls-2" x="296" y="292" width="58" height="58" rx="13.33" transform="translate(354 553.9) rotate(-180)"/><rect class="cls-3" x="295.5" y="288.5" width="58" height="41" rx="20.5" transform="translate(337.5 -103.6) rotate(90)"/><circle class="cls-1" cx="48.5" cy="252.4" r="2.5"/><circle class="cls-1" cx="8.5" cy="252.4" r="2.5"/></g><path class="cls-1" d="M514.81,132.06c13.55,8,32.9,6.61,35.61-11.77.56-3.82,6.48-2.81,5.91,1-3.26,22.08-27,26.27-44,16.21-3.29-1.94-.83-7.42,2.5-5.45Z" transform="translate(-296 -88.1)"/><path class="cls-3" d="M304,112.5v205a20.5,20.5,0,1,0,41,0V132H530.5a20.5,20.5,0,1,0,0-41h-205a20.5,20.5,0,0,0-15,6.51L310,98A20.5,20.5,0,0,0,304,112.5Z" transform="translate(-296 -88.1)"/><g id="Layer_352_copy" data-name="Layer 352 copy"><path class="cls-1" d="M343.38,134.12a25.57,25.57,0,0,0-38.76,0c-2.52,2.94-6.74-1.32-4.24-4.24,12.19-14.22,35-14.21,47.24,0,2.51,2.91-1.72,7.18-4.24,4.24Z" transform="translate(-296 -88.1)"/><path class="cls-1" d="M344.38,214.12a25.57,25.57,0,0,0-38.76,0c-2.52,2.94-6.74-1.32-4.24-4.24,12.19-14.22,35-14.21,47.24,0,2.51,2.91-1.72,7.18-4.24,4.24Z" transform="translate(-296 -88.1)"/><path class="cls-1" d="M348,296c.66,13.54-9.91,26.33-24,26-13.7-.32-23.68-12.74-23-26,.2-3.84,6.2-3.87,6,0-.51,10,6.45,19.71,17,20,10.95.3,18.5-9.7,18-20-.19-3.86,5.81-3.85,6,0Z" transform="translate(-296 -88.1)"/><path class="cls-1" d="M342.41,294.51c-8.39-12.36-27.43-12.36-35.82,0-2.16,3.18-7.36.18-5.18-3a28,28,0,0,1,46.18,0c2.17,3.2-3,6.21-5.18,3Z" transform="translate(-296 -88.1)"/><path class="cls-1" d="M348,91c-.13,13.68,0,27.42.51,41.1.14,3.86-5.87,3.86-6,0-.47-13.68-.64-27.42-.51-41.1,0-3.86,6-3.87,6,0Z" transform="translate(-296 -88.1)"/><path class="cls-1" d="M518,91c-.13,13.68,0,27.42.51,41.1.14,3.86-5.87,3.86-6,0-.47-13.68-.64-27.42-.51-41.1,0-3.86,6-3.87,6,0Z" transform="translate(-296 -88.1)"/><path class="cls-1" d="M433,91c-.13,13.68,0,27.42.51,41.1.14,3.86-5.87,3.86-6,0-.47-13.68-.64-27.42-.51-41.1,0-3.86,6-3.87,6,0Z" transform="translate(-296 -88.1)"/></g></svg>