<svg id="TallCrate" xmlns="http://www.w3.org/2000/svg" viewBox="0 0 70.4 176.04"><defs><style>.cls-1{fill:#b59774;}.cls-2{fill:#a48969;}.cls-3{fill:#9c7c56;}.cls-4{fill:#cfac84;}.cls-5{fill:#c59c6d;}</style></defs><title>TallCrate1</title><g id="CrateBot"><g id="Layer_13_copy_22" data-name="Layer 13 copy 22"><rect class="cls-1" x="0.4" y="119.04" width="70" height="35"/></g><g id="Layer_12_copy_25" data-name="Layer 12 copy 25"><g id="Layer_12_copy_25-2" data-name="Layer 12 copy 25"><path class="cls-2" d="M423.46,644.78v21.34c0,4-6.34,7.22-14.17,7.22H367.37a21.41,21.41,0,0,1-11-2.65c-2-1.24-3.2-2.83-3.2-4.57V644.78c0-4,6.34-7.22,14.17-7.22h41.92a25.87,25.87,0,0,1,5.87.65C420.06,639.34,423.46,641.86,423.46,644.78Z" transform="translate(-353.15 -497.3)"/></g><path class="cls-3" d="M416.58,646.87V664c0,3.21-5.1,5.8-11.4,5.8H371.47a19.94,19.94,0,0,1-5.73-.79,12.39,12.39,0,0,1-3.09-1.33,7.61,7.61,0,0,1-1.12-.84,3.87,3.87,0,0,1-1.45-2.84V646.87c0-3.2,5.1-5.81,11.39-5.81h33.71a20.67,20.67,0,0,1,4.72.53l.85.22A11.15,11.15,0,0,1,415,644,3.93,3.93,0,0,1,416.58,646.87Z" transform="translate(-353.15 -497.3)"/><path class="cls-2" d="M415,644,365.74,669a12.39,12.39,0,0,1-3.09-1.33,7.61,7.61,0,0,1-1.12-.84l49.22-25.06A11.15,11.15,0,0,1,415,644Z" transform="translate(-353.15 -497.3)"/><path class="cls-2" d="M416.58,653.1v4.31l-24.39,12.42h-8.48Z" transform="translate(-353.15 -497.3)"/><path class="cls-2" d="M393.69,641.06l-33.61,17.12v-4.32l25.13-12.8Z" transform="translate(-353.15 -497.3)"/></g><g id="Layer_12_copy_25-3" data-name="Layer 12 copy 25"><rect class="cls-4" width="70.26" height="140.26" rx="15.89"/><path class="cls-5" d="M417,514.72V620.41a11.83,11.83,0,0,1-11.83,11.83H371.92a11.82,11.82,0,0,1-11.84-11.77V514.72a11.84,11.84,0,0,1,11.84-11.83h33.27A11.83,11.83,0,0,1,417,514.72Z" transform="translate(-353.15 -497.3)"/><polygon class="cls-4" points="47.87 5.59 6.93 45.43 6.93 37.06 39.27 5.59 47.87 5.59"/><path class="cls-4" d="M417,514.72v1.55l-56.94,55.41v-8.62l55.5-54A11.75,11.75,0,0,1,417,514.72Z" transform="translate(-353.15 -497.3)"/><polygon class="cls-4" points="63.87 39.29 63.87 47.67 6.93 103.07 6.93 94.69 59.48 43.56 63.87 39.29"/><path class="cls-4" d="M417,565.07v8.6l-54.89,53.4a11.78,11.78,0,0,1-2.05-6.6Z" transform="translate(-353.15 -497.3)"/><polygon class="cls-4" points="63.87 96.48 63.87 104.84 32.93 134.94 24.33 134.94 63.87 96.48"/></g></g></svg>