<svg id="TallCrate" xmlns="http://www.w3.org/2000/svg" viewBox="0 0 70.6 212.25"><defs><style>.cls-1{fill:#b59774;}.cls-2{fill:#a48969;}.cls-3{fill:#9c7c56;}.cls-4{fill:#cfac84;}.cls-5{fill:#c59c6d;}</style></defs><title>TallCrate2</title><g id="CrateBot"><g id="Layer_13_copy_22" data-name="Layer 13 copy 22"><rect class="cls-1" x="0.4" y="155.25" width="70" height="35"/></g><g id="Layer_12_copy_25" data-name="Layer 12 copy 25"><g id="Layer_12_copy_25-2" data-name="Layer 12 copy 25"><path class="cls-2" d="M423.46,644.78v21.34c0,4-6.34,7.22-14.17,7.22H367.37a21.41,21.41,0,0,1-11-2.65c-2-1.24-3.2-2.83-3.2-4.57V644.78c0-4,6.34-7.22,14.17-7.22h41.92a25.87,25.87,0,0,1,5.87.65C420.06,639.34,423.46,641.86,423.46,644.78Z" transform="translate(-353.15 -461.09)"/></g><path class="cls-3" d="M416.58,646.87V664c0,3.21-5.1,5.8-11.4,5.8H371.47a19.94,19.94,0,0,1-5.73-.79,12.39,12.39,0,0,1-3.09-1.33,7.61,7.61,0,0,1-1.12-.84,3.87,3.87,0,0,1-1.45-2.84V646.87c0-3.2,5.1-5.81,11.39-5.81h33.71a20.67,20.67,0,0,1,4.72.53l.85.22A11.15,11.15,0,0,1,415,644,3.93,3.93,0,0,1,416.58,646.87Z" transform="translate(-353.15 -461.09)"/><path class="cls-2" d="M415,644,365.74,669a12.39,12.39,0,0,1-3.09-1.33,7.61,7.61,0,0,1-1.12-.84l49.22-25.06A11.15,11.15,0,0,1,415,644Z" transform="translate(-353.15 -461.09)"/><path class="cls-2" d="M416.58,653.1v4.31l-24.39,12.42h-8.48Z" transform="translate(-353.15 -461.09)"/><path class="cls-2" d="M393.69,641.06l-33.61,17.12v-4.32l25.13-12.8Z" transform="translate(-353.15 -461.09)"/></g><g id="Layer_12_copy_25-3" data-name="Layer 12 copy 25"><rect class="cls-4" y="36.21" width="70.26" height="140.26" rx="15.89"/><path class="cls-5" d="M417,514.72V620.41a11.83,11.83,0,0,1-11.83,11.83H371.92a11.82,11.82,0,0,1-11.84-11.77V514.72a11.84,11.84,0,0,1,11.84-11.83h33.27A11.83,11.83,0,0,1,417,514.72Z" transform="translate(-353.15 -461.09)"/><polygon class="cls-4" points="47.87 41.8 6.93 81.64 6.93 73.27 39.27 41.8 47.87 41.8"/><path class="cls-4" d="M417,514.72v1.55l-56.94,55.41v-8.62l55.5-54A11.75,11.75,0,0,1,417,514.72Z" transform="translate(-353.15 -461.09)"/><polygon class="cls-4" points="63.87 75.5 63.87 83.88 6.93 139.28 6.93 130.9 59.48 79.77 63.87 75.5"/><path class="cls-4" d="M417,565.07v8.6l-54.89,53.4a11.78,11.78,0,0,1-2.05-6.6Z" transform="translate(-353.15 -461.09)"/><polygon class="cls-4" points="63.87 132.69 63.87 141.05 32.93 171.15 24.33 171.15 63.87 132.69"/></g></g><g id="CrateMid"><g id="Layer_13_copy_23" data-name="Layer 13 copy 23"><rect class="cls-1" x="0.6" y="119.04" width="70" height="35"/></g><g id="Layer_12_copy_26" data-name="Layer 12 copy 26"><g id="Layer_12_copy_26-2" data-name="Layer 12 copy 26"><path class="cls-2" d="M423.66,608.57v21.35c0,4-6.34,7.21-14.17,7.21H367.57a21.51,21.51,0,0,1-11-2.64c-2-1.25-3.2-2.84-3.2-4.57V608.57c0-4,6.34-7.22,14.17-7.22h41.92a26.45,26.45,0,0,1,5.87.65C420.26,603.14,423.66,605.65,423.66,608.57Z" transform="translate(-353.15 -461.09)"/></g><path class="cls-3" d="M416.78,610.66v17.17c0,3.2-5.1,5.8-11.4,5.8H371.67a20.29,20.29,0,0,1-5.73-.79,12.4,12.4,0,0,1-3.09-1.34,7.61,7.61,0,0,1-1.12-.84,3.86,3.86,0,0,1-1.45-2.83V610.66c0-3.2,5.1-5.8,11.39-5.8h33.71a20.68,20.68,0,0,1,4.72.52l.85.22a11.15,11.15,0,0,1,4.28,2.14A4,4,0,0,1,416.78,610.66Z" transform="translate(-353.15 -461.09)"/><path class="cls-2" d="M415.23,607.74l-49.29,25.1a12.4,12.4,0,0,1-3.09-1.34,7.61,7.61,0,0,1-1.12-.84L411,605.6A11.15,11.15,0,0,1,415.23,607.74Z" transform="translate(-353.15 -461.09)"/><path class="cls-2" d="M416.78,616.89v4.32l-24.39,12.42h-8.48Z" transform="translate(-353.15 -461.09)"/><path class="cls-2" d="M393.89,604.86,360.28,622v-4.32l25.13-12.79Z" transform="translate(-353.15 -461.09)"/></g><g id="Layer_12_copy_26-3" data-name="Layer 12 copy 26"><rect class="cls-4" x="0.2" width="70.26" height="140.26" rx="15.89"/><path class="cls-5" d="M417.22,478.51V584.2A11.83,11.83,0,0,1,405.39,596H372.12a11.82,11.82,0,0,1-11.84-11.77V478.51a11.84,11.84,0,0,1,11.84-11.83h33.27a11.83,11.83,0,0,1,11.83,11.83Z" transform="translate(-353.15 -461.09)"/><polygon class="cls-4" points="48.07 5.59 7.13 45.43 7.13 37.06 39.47 5.59 48.07 5.59"/><path class="cls-4" d="M417.22,478.51v1.55l-56.94,55.41v-8.62l55.5-54A11.75,11.75,0,0,1,417.22,478.51Z" transform="translate(-353.15 -461.09)"/><polygon class="cls-4" points="64.07 39.29 64.07 47.67 7.13 103.07 7.13 94.69 59.68 43.56 64.07 39.29"/><path class="cls-4" d="M417.22,528.86v8.6l-54.89,53.4a11.78,11.78,0,0,1-2.05-6.6Z" transform="translate(-353.15 -461.09)"/><polygon class="cls-4" points="64.07 96.48 64.07 104.84 33.13 134.94 24.53 134.94 64.07 96.48"/></g></g></svg>