<svg xmlns="http://www.w3.org/2000/svg" viewBox="0 0 116.68 290.92"><defs><style>.cls-1{fill:#b1bbdf;}.cls-2{fill:#db4826;}.cls-3{fill:#bcbec0;}.cls-4{fill:#58595b;}.cls-5{fill:#f1f2f2;}.cls-6{fill:#414042;}.cls-7{fill:#808285;}</style></defs><title>Laser-pad</title><g id="Lazer"><g id="LazerPad"><ellipse class="cls-1" cx="69.91" cy="145.46" rx="46.77" ry="129.51"/><ellipse class="cls-2" cx="69.91" cy="145.46" rx="29.96" ry="82.94"/><circle class="cls-3" cx="45.52" cy="15.95" r="15.95"/><circle class="cls-3" cx="45.52" cy="274.97" r="15.95"/><rect class="cls-4" x="21.12" y="15.95" width="48.78" height="259.01"/><path class="cls-5" d="M87.67,332.48a171.15,171.15,0,0,1,8.85,57.35c-.18,10.57,16.23,10.57,16.42,0a185.25,185.25,0,0,0-9.44-61.71,8.4,8.4,0,0,0-10.1-5.73c-4.11,1.13-7.14,5.87-5.73,10.09Z" transform="translate(0 -258.73)"/><rect class="cls-6" y="3.88" width="21.12" height="283.15" rx="10.56"/><circle class="cls-5" cx="85.71" cy="48.35" r="9.09"/><circle class="cls-7" cx="45.52" cy="209.4" r="21.79"/><circle class="cls-3" cx="45.52" cy="209.4" r="15.95"/><circle class="cls-7" cx="45.52" cy="88.71" r="21.79"/><circle class="cls-3" cx="45.52" cy="88.71" r="15.95"/><rect class="cls-4" x="4.53" y="9.97" width="12.07" height="97.14" rx="6.04"/><rect class="cls-4" x="4.53" y="115.08" width="12.07" height="12.07" rx="6.04"/></g></g></svg>