<svg xmlns="http://www.w3.org/2000/svg" viewBox="0 0 290.92 173.61"><defs><style>.cls-1{fill:#414042;}.cls-2{fill:#bcbec0;}.cls-3{fill:#58595b;}.cls-4{fill:#6d6e71;}.cls-5{fill:#808285;}.cls-6{fill:#b1bbdf;}.cls-7{fill:#db4826;}.cls-8{fill:#f1f2f2;}</style></defs><title>Lazser-pad-top</title><g id="Lazer"><g id="LazerPad"><ellipse class="cls-1" cx="145.46" cy="51.13" rx="141.58" ry="51.13"/><ellipse class="cls-1" cx="145.46" cy="60.33" rx="141.58" ry="51.13"/><circle class="cls-2" cx="274.97" cy="89.08" r="15.95"/><circle class="cls-2" cx="15.95" cy="89.08" r="15.95"/><rect class="cls-3" x="281.61" y="2.88" width="48.78" height="259.01" transform="translate(277.84 -216.92) rotate(90)"/><ellipse class="cls-3" cx="145.46" cy="64.69" rx="129.51" ry="46.77"/><circle class="cls-4" cx="213.34" cy="48.21" r="21.79"/><circle class="cls-5" cx="216.3" cy="43.18" r="21.79"/><circle class="cls-2" cx="216.3" cy="43.18" r="15.95"/><circle class="cls-4" cx="77.58" cy="48.21" r="21.79"/><circle class="cls-5" cx="74.62" cy="43.18" r="21.79"/><circle class="cls-2" cx="74.62" cy="43.18" r="15.95"/><path class="cls-3" d="M255.79,56.28h0a6.26,6.26,0,0,0,7,5.17,353,353,0,0,1,86.42,0,6.26,6.26,0,0,0,7-5.17h0a6.1,6.1,0,0,0-5.49-6.81,365.65,365.65,0,0,0-89.44,0A6.1,6.1,0,0,0,255.79,56.28Z" transform="translate(-160.54 -43.3)"/><rect class="cls-3" x="364.76" y="52.22" width="12.07" height="12.07" rx="6.04" transform="translate(268.5 -355.84) rotate(90)"/><ellipse class="cls-1" cx="145.46" cy="111.46" rx="129.51" ry="46.77"/><path class="cls-6" d="M306,108c71.52,0,129.51,20.94,129.51,46.77s-58,62.15-129.51,62.15-129.51-36.32-129.51-62.15S234.48,108,306,108Z" transform="translate(-160.54 -43.3)"/><path class="cls-7" d="M306,124.81c45.81,0,82.94,13.41,82.94,29.95S351.81,189.34,306,189.34s-82.94-18-82.94-34.58S260.19,124.81,306,124.81Z" transform="translate(-160.54 -43.3)"/><circle class="cls-8" cx="163.93" cy="159.14" r="10.88"/></g><path class="cls-8" d="M299.51,192.36a121.43,121.43,0,0,1-87.14-32.81c-9.36-8.83-23.53,5.28-14.14,14.14a141.76,141.76,0,0,0,101.28,38.67c12.84-.39,12.9-20.39,0-20Z" transform="translate(-160.54 -43.3)"/></g></svg>