<svg xmlns="http://www.w3.org/2000/svg" viewBox="0 0 299.88 365.39"><defs><style>.cls-1,.cls-10{fill:#6b6eb3;}.cls-2,.cls-5,.cls-6,.cls-7{fill:none;}.cls-10,.cls-2,.cls-5,.cls-6,.cls-7,.cls-9{stroke:#343961;}.cls-10,.cls-2,.cls-5,.cls-6,.cls-7{stroke-linecap:round;}.cls-10,.cls-2,.cls-3,.cls-5,.cls-6,.cls-7,.cls-9{stroke-miterlimit:10;}.cls-2,.cls-5,.cls-6,.cls-7,.cls-9{stroke-width:6px;}.cls-2{stroke-dasharray:29.41 29.41;}.cls-3{fill:#f15a29;stroke:#ef4136;stroke-width:7px;}.cls-4{fill:#fff;}.cls-6{stroke-dasharray:26 26;}.cls-7{stroke-dasharray:16.67 16.67;}.cls-8,.cls-9{fill:#343961;}.cls-10{stroke-width:2px;}</style></defs><title>PopupLazer</title><g id="Lazer"><rect class="cls-1" x="3.05" y="3" width="293.83" height="359.39" rx="41.51"/><rect class="cls-2" x="3.05" y="3" width="293.83" height="359.39" rx="41.51"/><rect class="cls-3" x="26.21" y="252.89" width="251.96" height="83.74" rx="25.53"/><path class="cls-4" d="M255.76,558.45H244.88l-4.67-12.24h-3.1v12.24h-9.82v-32H244c3.69,0,6.55.87,8.59,2.59a8.53,8.53,0,0,1,3.06,6.84,10.25,10.25,0,0,1-1.13,4.88A9.43,9.43,0,0,1,250,544.5Zm-18.65-19.08h4.19a5.13,5.13,0,0,0,3-.78,2.57,2.57,0,0,0,1.13-2.27q0-3.08-3.78-3.07h-4.52Z" transform="translate(-154 -247)"/><path class="cls-4" d="M289.28,550.8v7.65H265.21v-32h24.07v7.39H274.84v4.64h11.67v7.1H274.84v5.22Z" transform="translate(-154 -247)"/><path class="cls-4" d="M311.12,534.12v24.33h-9.31V534.12h-6.63v-7.67h22.57v7.67Z" transform="translate(-154 -247)"/><path class="cls-4" d="M353.81,558.45H342.93l-4.68-12.24h-3.09v12.24h-9.82v-32h16.71c3.69,0,6.55.87,8.59,2.59a8.53,8.53,0,0,1,3.06,6.84,10.25,10.25,0,0,1-1.13,4.88A9.43,9.43,0,0,1,348,544.5Zm-18.65-19.08h4.19a5.13,5.13,0,0,0,3-.78,2.57,2.57,0,0,0,1.13-2.27q0-3.08-3.78-3.07h-4.52Z" transform="translate(-154 -247)"/><path class="cls-4" d="M388.85,526.45l-10,18.45v13.55H369.3V544.9l-10.76-18.45h10.74L374.89,537l5.38-10.55Z" transform="translate(-154 -247)"/><path class="cls-4" d="M202.79,442.35a2.7,2.7,0,0,1,.92-1,2.14,2.14,0,0,1,1.12-.32,2.38,2.38,0,0,1,1,.21,3.29,3.29,0,0,1,.86.54,2.55,2.55,0,0,1,.6.78,2,2,0,0,1,.22.93,2.55,2.55,0,0,1-.42,1.32l-4,6.39v5.31a2.27,2.27,0,0,1-.73,1.83,2.72,2.72,0,0,1-3.48,0,2.28,2.28,0,0,1-.74-1.83v-5.31l-4-6.39a2.55,2.55,0,0,1-.42-1.32,2.06,2.06,0,0,1,.23-.93,2.55,2.55,0,0,1,.6-.78,3.24,3.24,0,0,1,.85-.54,2.38,2.38,0,0,1,1-.21,2.17,2.17,0,0,1,1.13.32,2.68,2.68,0,0,1,.91,1l2.19,3.75Z" transform="translate(-154 -247)"/><path class="cls-4" d="M207.47,450a9,9,0,0,1,.72-3.57,9.34,9.34,0,0,1,1.95-2.92,9.07,9.07,0,0,1,2.91-2,9.21,9.21,0,0,1,7.14,0,9.15,9.15,0,0,1,4.89,4.89,9.16,9.16,0,0,1-2,10.05,9.39,9.39,0,0,1-2.93,1.95,9.21,9.21,0,0,1-7.14,0,9,9,0,0,1-4.86-4.86A9,9,0,0,1,207.47,450Zm5,.06a4.14,4.14,0,0,0,.32,1.62,4.11,4.11,0,0,0,2.2,2.21,4.14,4.14,0,0,0,1.62.31,4.27,4.27,0,0,0,1.64-.31,3.89,3.89,0,0,0,1.32-.89,4.42,4.42,0,0,0,.88-1.32,4,4,0,0,0,.33-1.62,4.06,4.06,0,0,0-.33-1.63,4.11,4.11,0,0,0-2.2-2.21,4.11,4.11,0,0,0-1.64-.33,4,4,0,0,0-1.62.33,4.45,4.45,0,0,0-1.32.89,3.87,3.87,0,0,0-.88,1.32A4.23,4.23,0,0,0,212.51,450Z" transform="translate(-154 -247)"/><path class="cls-4" d="M242,451.11q0,7.89-7.2,7.89t-7.32-7.89v-7.56a2.28,2.28,0,0,1,.74-1.83,2.55,2.55,0,0,1,1.72-.63,2.62,2.62,0,0,1,1.76.63,2.27,2.27,0,0,1,.73,1.83v8.31q0,2.22,2.31,2.22t2.31-2.22v-8.31a2.28,2.28,0,0,1,.74-1.83,2.55,2.55,0,0,1,1.72-.63,2.62,2.62,0,0,1,1.76.63,2.27,2.27,0,0,1,.73,1.83Z" transform="translate(-154 -247)"/><path class="cls-4" d="M262.76,456.51a2.36,2.36,0,0,1-.72,1.83,2.56,2.56,0,0,1-1.8.66h-1.8a9.33,9.33,0,0,1-3.9-.76,8.53,8.53,0,0,1-2.8-2,8.08,8.08,0,0,1-1.68-2.82,9.86,9.86,0,0,1-.56-3.27,9.74,9.74,0,0,1,.59-3.33,8.81,8.81,0,0,1,1.74-2.91,8.44,8.44,0,0,1,2.91-2.07,10,10,0,0,1,4.09-.78h1.41a2.67,2.67,0,0,1,1.1.21,2.25,2.25,0,0,1,.78.57,2.56,2.56,0,0,1,.48.81,2.78,2.78,0,0,1,0,1.86,2.56,2.56,0,0,1-.48.81,2.25,2.25,0,0,1-.78.57,2.67,2.67,0,0,1-1.1.21h-1.8a4.54,4.54,0,0,0-1.81.33,3.86,3.86,0,0,0-1.29.89,3.6,3.6,0,0,0-.78,1.26,4.22,4.22,0,0,0-.26,1.45,4.23,4.23,0,0,0,.89,2.57,3.66,3.66,0,0,0,1.09.93,3.86,3.86,0,0,0,1.53.46v-2.91a2.28,2.28,0,0,1,.74-1.83,2.72,2.72,0,0,1,3.48,0,2.27,2.27,0,0,1,.73,1.83Z" transform="translate(-154 -247)"/><path class="cls-4" d="M264.5,450a9,9,0,0,1,.72-3.57,9.34,9.34,0,0,1,1.95-2.92,9.07,9.07,0,0,1,2.91-2,9.21,9.21,0,0,1,7.14,0,9.15,9.15,0,0,1,4.89,4.89,9.16,9.16,0,0,1-2,10.05,9.39,9.39,0,0,1-2.93,1.95,9.21,9.21,0,0,1-7.14,0,9,9,0,0,1-4.86-4.86A9,9,0,0,1,264.5,450Zm5,.06a4.14,4.14,0,0,0,.32,1.62,4.11,4.11,0,0,0,2.2,2.21,4.14,4.14,0,0,0,1.62.31,4.27,4.27,0,0,0,1.64-.31,3.89,3.89,0,0,0,1.32-.89,4.42,4.42,0,0,0,.88-1.32,4,4,0,0,0,.33-1.62,4.06,4.06,0,0,0-.33-1.63,4.11,4.11,0,0,0-2.2-2.21,4.11,4.11,0,0,0-1.64-.33,4,4,0,0,0-1.62.33,4.45,4.45,0,0,0-1.32.89,3.87,3.87,0,0,0-.88,1.32A4.23,4.23,0,0,0,269.54,450Z" transform="translate(-154 -247)"/><path class="cls-4" d="M293.21,456.51a2.27,2.27,0,0,1-.73,1.83,2.62,2.62,0,0,1-1.76.63,2.55,2.55,0,0,1-1.72-.63,2.28,2.28,0,0,1-.74-1.83V446h-1.74a2.33,2.33,0,0,1-1.83-.73,2.66,2.66,0,0,1,0-3.51,2.34,2.34,0,0,1,1.83-.74h8.37a2.34,2.34,0,0,1,1.83.74,2.66,2.66,0,0,1,0,3.51,2.33,2.33,0,0,1-1.83.73h-1.68Z" transform="translate(-154 -247)"/><path class="cls-4" d="M317.87,453.27q0,5.73-5.58,5.73h-4.92a2.11,2.11,0,0,1-2.37-2.4v-.09q.06-2.49,2.4-2.49h5.16a.92.92,0,0,0,.75-.28,1,1,0,0,0,.24-.62.91.91,0,0,0-1-.9H310q-5.28,0-5.28-5.43,0-5.73,5.64-5.73h4a2.11,2.11,0,0,1,2.37,2.4v.09q-.06,2.49-2.4,2.49H310a.91.91,0,0,0-1,.9,1,1,0,0,0,.24.62.92.92,0,0,0,.75.28h2.55Q317.87,447.84,317.87,453.27Z" transform="translate(-154 -247)"/><path class="cls-4" d="M328.34,456.51a2.27,2.27,0,0,1-.73,1.83,2.62,2.62,0,0,1-1.76.63,2.55,2.55,0,0,1-1.72-.63,2.28,2.28,0,0,1-.74-1.83V446h-1.74a2.33,2.33,0,0,1-1.83-.73,2.66,2.66,0,0,1,0-3.51,2.34,2.34,0,0,1,1.83-.74H330a2.34,2.34,0,0,1,1.83.74,2.66,2.66,0,0,1,0,3.51A2.33,2.33,0,0,1,330,446h-1.68Z" transform="translate(-154 -247)"/><path class="cls-4" d="M348.47,451.11q0,7.89-7.2,7.89T334,451.11v-7.56a2.28,2.28,0,0,1,.74-1.83,2.55,2.55,0,0,1,1.72-.63,2.62,2.62,0,0,1,1.76.63,2.27,2.27,0,0,1,.73,1.83v8.31q0,2.22,2.31,2.22t2.31-2.22v-8.31a2.28,2.28,0,0,1,.74-1.83,2.55,2.55,0,0,1,1.72-.63,2.62,2.62,0,0,1,1.76.63,2.27,2.27,0,0,1,.73,1.83Z" transform="translate(-154 -247)"/><path class="cls-4" d="M355.37,456.51a2.27,2.27,0,0,1-.73,1.83,2.62,2.62,0,0,1-1.76.63,2.55,2.55,0,0,1-1.72-.63,2.28,2.28,0,0,1-.74-1.83v-13a2.28,2.28,0,0,1,.74-1.83,2.55,2.55,0,0,1,1.72-.63H353a2,2,0,0,1,1.89,1.11l4.5,6.81v-5.46a2.28,2.28,0,0,1,.74-1.83,2.55,2.55,0,0,1,1.72-.63,2.62,2.62,0,0,1,1.76.63,2.27,2.27,0,0,1,.73,1.83v13a2.27,2.27,0,0,1-.73,1.83,2.62,2.62,0,0,1-1.76.63,2.77,2.77,0,0,1-.87-.12,2.31,2.31,0,0,1-.61-.3,2.15,2.15,0,0,1-.41-.36l-.24-.3-4.35-6.48Z" transform="translate(-154 -247)"/><path class="cls-4" d="M371.36,456.51a2.27,2.27,0,0,1-.73,1.83,2.62,2.62,0,0,1-1.76.63,2.55,2.55,0,0,1-1.72-.63,2.28,2.28,0,0,1-.74-1.83v-13a2.28,2.28,0,0,1,.74-1.83,2.55,2.55,0,0,1,1.72-.63H369a2,2,0,0,1,1.89,1.11l4.5,6.81v-5.46a2.28,2.28,0,0,1,.74-1.83,2.55,2.55,0,0,1,1.72-.63,2.62,2.62,0,0,1,1.76.63,2.27,2.27,0,0,1,.73,1.83v13a2.27,2.27,0,0,1-.73,1.83,2.62,2.62,0,0,1-1.76.63,2.77,2.77,0,0,1-.87-.12,2.31,2.31,0,0,1-.61-.3,2.15,2.15,0,0,1-.41-.36l-.24-.3-4.35-6.48Z" transform="translate(-154 -247)"/><path class="cls-4" d="M384.86,459a2.19,2.19,0,0,1-2.46-2.49v-13a2.19,2.19,0,0,1,2.46-2.49h8.4a2.34,2.34,0,0,1,1.83.74,2.66,2.66,0,0,1,0,3.51,2.33,2.33,0,0,1-1.83.73h-5.94v1.5h4.74a2.34,2.34,0,0,1,1.83.74,2.66,2.66,0,0,1,0,3.51,2.33,2.33,0,0,1-1.83.73h-4.74V454h5.94a2.34,2.34,0,0,1,1.83.74,2.66,2.66,0,0,1,0,3.51,2.33,2.33,0,0,1-1.83.73Z" transform="translate(-154 -247)"/><path class="cls-4" d="M397.76,443.55a2,2,0,0,1,.22-.93,2.71,2.71,0,0,1,.6-.79,3.16,3.16,0,0,1,.84-.56,2.23,2.23,0,0,1,.92-.21h2.4a9.9,9.9,0,0,1,4.08.78,8.46,8.46,0,0,1,2.89,2.07,8.81,8.81,0,0,1,1.74,2.91,9.74,9.74,0,0,1,.59,3.33,9.86,9.86,0,0,1-.56,3.27,8.08,8.08,0,0,1-1.68,2.82,8.59,8.59,0,0,1-2.79,2,9.2,9.2,0,0,1-3.88.76h-2.79a2.61,2.61,0,0,1-1.88-.67,2.4,2.4,0,0,1-.7-1.82Zm5.4,10.47a3.86,3.86,0,0,0,1.72-.36,4,4,0,0,0,1.25-.93,3.77,3.77,0,0,0,.76-1.3,4.62,4.62,0,0,0,.26-1.52,4.26,4.26,0,0,0-.24-1.41,3.35,3.35,0,0,0-.74-1.21,3.75,3.75,0,0,0-1.26-.86,4.45,4.45,0,0,0-1.78-.33h-.42V454Z" transform="translate(-154 -247)"/><path class="cls-4" d="M236.59,474v-6.48q0-2.49,2.25-2.49h7.95a3.74,3.74,0,0,1,1.8.42,3.69,3.69,0,0,1,1.27,1.11,5.13,5.13,0,0,1,.75,1.56,6.27,6.27,0,0,1,.26,1.77,5.71,5.71,0,0,1-.2,1.5,4.44,4.44,0,0,1-.57,1.29,3,3,0,0,1-1,.93,2.69,2.69,0,0,1-1.33.39,3,3,0,0,1,2.22,1.46,5.21,5.21,0,0,1,.72,2.71,6.52,6.52,0,0,1-.24,1.74,4.73,4.73,0,0,1-.74,1.55,3.9,3.9,0,0,1-1.23,1.09,3.34,3.34,0,0,1-1.69.42H239q-2.37,0-2.37-2.49V474Zm4.74-4v2.1h3.72a.85.85,0,0,0,.73-.34A1.28,1.28,0,0,0,246,471a1.07,1.07,0,0,0-.24-.69.9.9,0,0,0-.75-.3Zm0,6.18V478h3.72a.92.92,0,0,0,.75-.28,1,1,0,0,0,.24-.62.91.91,0,0,0-1-.9Z" transform="translate(-154 -247)"/><path class="cls-4" d="M261.31,466.35a2.68,2.68,0,0,1,.91-1,2.17,2.17,0,0,1,1.13-.32,2.38,2.38,0,0,1,1,.21,3.24,3.24,0,0,1,.85.54,2.55,2.55,0,0,1,.6.78,2.06,2.06,0,0,1,.23.93,2.55,2.55,0,0,1-.42,1.32l-4,6.39v5.31a2.28,2.28,0,0,1-.74,1.83,2.55,2.55,0,0,1-1.72.63,2.62,2.62,0,0,1-1.76-.63,2.27,2.27,0,0,1-.73-1.83v-5.31l-4-6.39a2.55,2.55,0,0,1-.42-1.32,2,2,0,0,1,.22-.93,2.55,2.55,0,0,1,.6-.78,3.29,3.29,0,0,1,.86-.54,2.38,2.38,0,0,1,1-.21,2.14,2.14,0,0,1,1.12.32,2.7,2.7,0,0,1,.92,1l2.19,3.75Z" transform="translate(-154 -247)"/><path class="cls-4" d="M283.84,479.52h-5.31l-.75,1.92a2.46,2.46,0,0,1-.92,1.22,2.3,2.3,0,0,1-1.27.37,2.92,2.92,0,0,1-1-.16,2.87,2.87,0,0,1-.85-.48,2.43,2.43,0,0,1-.62-.74,2,2,0,0,1-.22-1,2.31,2.31,0,0,1,.21-1L279,466.65a2.88,2.88,0,0,1,1-1.26,2.49,2.49,0,0,1,1.35-.42,2.4,2.4,0,0,1,1.33.42,2.57,2.57,0,0,1,1,1.26l5.43,13.05a2.31,2.31,0,0,1,.21,1,2.05,2.05,0,0,1-.23.95,2.32,2.32,0,0,1-.61.75,2.85,2.85,0,0,1-.87.48,2.93,2.93,0,0,1-1,.16,2.39,2.39,0,0,1-1.29-.37,2.28,2.28,0,0,1-.9-1.22Zm-3.75-3.9h2.4l-1.11-3.21Z" transform="translate(-154 -247)"/><path class="cls-4" d="M299.38,483a2.19,2.19,0,0,1-2.46-2.49v-13a2.27,2.27,0,0,1,.73-1.83,2.68,2.68,0,0,1,3.45,0,2.28,2.28,0,0,1,.74,1.83V478h2.64a2.12,2.12,0,0,1,1.74.74,2.67,2.67,0,0,1,.6,1.75,2.7,2.7,0,0,1-.6,1.76,2.11,2.11,0,0,1-1.74.73Z" transform="translate(-154 -247)"/><path class="cls-4" d="M318.52,479.52h-5.31l-.75,1.92a2.46,2.46,0,0,1-.92,1.22,2.3,2.3,0,0,1-1.27.37,2.92,2.92,0,0,1-1-.16,2.87,2.87,0,0,1-.85-.48,2.43,2.43,0,0,1-.62-.74,2,2,0,0,1-.22-1,2.31,2.31,0,0,1,.21-1l5.91-13.05a2.88,2.88,0,0,1,1-1.26,2.49,2.49,0,0,1,1.35-.42,2.4,2.4,0,0,1,1.33.42,2.57,2.57,0,0,1,1,1.26l5.43,13.05a2.31,2.31,0,0,1,.21,1,2.05,2.05,0,0,1-.23.95,2.32,2.32,0,0,1-.61.75,2.85,2.85,0,0,1-.87.48,2.93,2.93,0,0,1-1,.16,2.39,2.39,0,0,1-1.29-.37,2.28,2.28,0,0,1-.9-1.22Zm-3.75-3.9h2.4l-1.11-3.21Z" transform="translate(-154 -247)"/><path class="cls-4" d="M338.62,477.27q0,5.73-5.58,5.73h-4.92a2.11,2.11,0,0,1-2.37-2.4v-.09q.06-2.49,2.4-2.49h5.16a.92.92,0,0,0,.75-.28,1,1,0,0,0,.24-.62.91.91,0,0,0-1-.9h-2.55q-5.28,0-5.28-5.43,0-5.73,5.64-5.73h4a2.11,2.11,0,0,1,2.37,2.4v.09q-.06,2.49-2.4,2.49h-4.26a.91.91,0,0,0-1,.9,1,1,0,0,0,.24.62.92.92,0,0,0,.75.28h2.55Q338.62,471.84,338.62,477.27Z" transform="translate(-154 -247)"/><path class="cls-4" d="M342.91,483a2.19,2.19,0,0,1-2.46-2.49v-13a2.19,2.19,0,0,1,2.46-2.49h8.4a2.34,2.34,0,0,1,1.83.74,2.66,2.66,0,0,1,0,3.51,2.33,2.33,0,0,1-1.83.73h-5.94v1.5h4.74a2.34,2.34,0,0,1,1.83.74,2.66,2.66,0,0,1,0,3.51,2.33,2.33,0,0,1-1.83.73h-4.74V478h5.94a2.34,2.34,0,0,1,1.83.74,2.66,2.66,0,0,1,0,3.51,2.33,2.33,0,0,1-1.83.73Z" transform="translate(-154 -247)"/><path class="cls-4" d="M362,476.67a3.59,3.59,0,0,1-.75-2.16,1.85,1.85,0,0,1,.27-1.09,1.74,1.74,0,0,1,.69-.57,3.36,3.36,0,0,1,.9-.27,5.93,5.93,0,0,0,.9-.21,2,2,0,0,0,.72-.41,1.16,1.16,0,0,0,.33-.84q0-1.35-1.56-1.35h-2.67v10.68a2.23,2.23,0,0,1-2.49,2.55,2.49,2.49,0,0,1-1.88-.64,2.58,2.58,0,0,1-.61-1.85v-13q0-2.49,2.4-2.49h5.34a7.21,7.21,0,0,1,2.71.47,5.52,5.52,0,0,1,1.91,1.23,4.88,4.88,0,0,1,1.11,1.74,5.69,5.69,0,0,1,.36,2,5.75,5.75,0,0,1-.77,2.88,4.84,4.84,0,0,1-2.26,2l2.13,3.39a3,3,0,0,1,.48,1.59,2.52,2.52,0,0,1-.21,1,2.87,2.87,0,0,1-.56.84,2.42,2.42,0,0,1-.79.56,2.31,2.31,0,0,1-.93.19,2.06,2.06,0,0,1-1.07-.31,2.66,2.66,0,0,1-.91-1Z" transform="translate(-154 -247)"/><path class="cls-4" d="M375.67,482.13a2.31,2.31,0,0,1-.2.95,2.6,2.6,0,0,1-.54.78,2.52,2.52,0,0,1-.79.54,2.52,2.52,0,0,1-1.92,0,2.57,2.57,0,0,1-.8-.54,2.6,2.6,0,0,1-.54-.78,2.3,2.3,0,0,1-.19-.95,2.38,2.38,0,0,1,.73-1.75,2.5,2.5,0,0,1,4.25,1.75Z" transform="translate(-154 -247)"/><polyline class="cls-5" points="3 138 3 153 18 153"/><line class="cls-6" x1="44" y1="153" x2="83" y2="153"/><polyline class="cls-5" points="96 153 111 153 111 138"/><line class="cls-7" x1="111" y1="121.33" x2="111" y2="96.33"/><polyline class="cls-5" points="111 88 111 73 96 73"/><line class="cls-6" x1="70" y1="73" x2="31" y2="73"/><polyline class="cls-5" points="18 73 3 73 3 88"/><line class="cls-7" x1="3" y1="104.67" x2="3" y2="129.67"/><path class="cls-8" d="M264.5,416h-110V305h110Zm-104-5.95h98V311h-98Z" transform="translate(-154 -247)"/><rect class="cls-9" x="4" y="94" width="104" height="40"/><rect class="cls-10" x="131" y="68" width="81" height="28" rx="14"/><rect class="cls-10" x="119" y="99.09" width="81" height="15.91" rx="7.96"/><rect class="cls-10" x="128" y="121.7" width="99" height="7.72" rx="3.86"/><g id="playerref_copy_8" data-name="playerref copy 8"><path class="cls-8" d="M293.78,315.7c0,5.91-3.51,10.7-7.85,10.7h-56V305h56a6.46,6.46,0,0,1,4.39,1.82A12.11,12.11,0,0,1,293.78,315.7Z" transform="translate(-154 -247)"/><path class="cls-8" d="M237.78,315.7c0,4.54-2.07,8.42-5,10a5.9,5.9,0,0,1-2.85.73,5.64,5.64,0,0,1-1.3-.15c-3.72-.84-6.55-5.24-6.55-10.55,0-5.91,3.51-10.7,7.85-10.7h56a6.46,6.46,0,0,1,4.39,1.82h-56A12.11,12.11,0,0,1,237.78,315.7Z" transform="translate(-154 -247)"/><ellipse class="cls-1" cx="75.93" cy="68.7" rx="6.26" ry="8.54"/><path class="cls-8" d="M233.76,319.25a3.31,3.31,0,0,1-3.63,1.39,4.12,4.12,0,0,1-2.38-3.95c-.07-1.92,2.26-1.91,2.33,0a1,1,0,0,0,1.43,1,2.15,2.15,0,0,0,1-2.11c-.1-2-1.56-3.16-3-2.87a4.24,4.24,0,0,0-3,3.58c-.77,4.07,2.15,7.78,5.2,7.83.77,0,1.14.79,1.12,1.55a5.9,5.9,0,0,1-2.85.73,5.64,5.64,0,0,1-1.3-.15,8.55,8.55,0,0,1-3.77-4.49,10.56,10.56,0,0,1,.6-9.34c1.63-2.53,4.72-3.59,7-1.89A6.74,6.74,0,0,1,233.76,319.25Z" transform="translate(-154 -247)"/><rect class="cls-8" x="68.65" y="79.26" width="61.81" height="75.44" rx="9.77"/><rect class="cls-10" x="81.84" y="79.26" width="61.81" height="75.44" rx="12"/><rect class="cls-1" x="68.59" y="119.05" width="11.5" height="21.63" rx="4.26"/><rect class="cls-8" x="65.35" y="119.05" width="11.5" height="21.63" rx="4.26"/><g id="RightFoot"><path class="cls-8" d="M289.68,396.64l.32,15.29a3.7,3.7,0,0,1-3.62,3.77l-3.91.08a3.7,3.7,0,0,1-3.17-1.68,3.59,3.59,0,0,1-.6-1.94l-.32-15.29Z" transform="translate(-154 -247)"/><path class="cls-8" d="M293.13,410.28l.05,2.41a3,3,0,0,1-.2,1.13,2.89,2.89,0,0,1-2.6,1.8l-8.74.18a2.9,2.9,0,0,1-2.68-1.69,3,3,0,0,1-.25-1.12l-.1-5.27,11.6-.24A2.87,2.87,0,0,1,293.13,410.28Z" transform="translate(-154 -247)"/><path class="cls-8" d="M293,413.82a2.89,2.89,0,0,1-2.6,1.8l-8.74.18a2.9,2.9,0,0,1-2.68-1.69Z" transform="translate(-154 -247)"/></g><g id="RightFoot-2" data-name="RightFoot"><path class="cls-8" d="M270.43,397.07l-.23,15.29a3.58,3.58,0,0,1-.59,1.94,3.69,3.69,0,0,1-3.16,1.7l-3.91-.05a3.7,3.7,0,0,1-3.11-1.8,3.61,3.61,0,0,1-.53-1.95l.22-15.3Z" transform="translate(-154 -247)"/><path class="cls-8" d="M273.39,410.83l0,2.41a2.81,2.81,0,0,1-.24,1.12,2.87,2.87,0,0,1-2.66,1.7l-8.74-.13a2.86,2.86,0,0,1-2.61-1.78,2.82,2.82,0,0,1-.21-1.12l.07-5.28,11.61.17A2.88,2.88,0,0,1,273.39,410.83Z" transform="translate(-154 -247)"/><path class="cls-8" d="M273.11,414.36a2.87,2.87,0,0,1-2.66,1.7l-8.74-.13a2.86,2.86,0,0,1-2.61-1.78Z" transform="translate(-154 -247)"/></g><g id="RightArm"><path class="cls-8" d="M287.89,375.9c.07,5.18,1,10.58,4.17,14.82,3.51,4.68,8.67,7.18,14.06,9.1,2.3.82,4.93-1.15,5.45-3.34.62-2.59-1-4.64-3.34-5.46a28.8,28.8,0,0,1-5.56-2.62,13.76,13.76,0,0,1-3.24-2.87c-2-2.86-2.45-6-2.5-9.93-.09-5.82-9.13-5.52-9,.3Z" transform="translate(-154 -247)"/></g><g id="Body"><ellipse class="cls-10" cx="121.34" cy="100.74" rx="40.01" ry="32.78"/><path class="cls-8" d="M291.64,387.68c-3.15,3.54-9.48,4.73-9.48,4.73h0l-.08-2.54a11.34,11.34,0,0,0,6.31-6.16,11.07,11.07,0,0,0,.23-7.46l-7.72,3.17-.08-1.22h0c.13-.22,2.79-4.58,7.41-4.49a6.45,6.45,0,0,1,4.39,1.62C295.48,378.15,294.59,384.36,291.64,387.68Z" transform="translate(-154 -247)"/><path class="cls-8" d="M289.13,383.94v12.35a1.1,1.1,0,0,1,0,.18c-.12,1-1.32,2-3.24,2.72a34.09,34.09,0,0,1-11.66,1.75,42.91,42.91,0,0,1-7-.54h0a23,23,0,0,1-4.89-1.3c-1.9-.78-3-1.76-3-2.81V383.94a8,8,0,0,1,2-5.3,7.77,7.77,0,0,1,2.59-1.95,7.33,7.33,0,0,1,1.1-.42,7.65,7.65,0,0,1,2.15-.31h14.21a7.68,7.68,0,0,1,5.67,2.5,7.19,7.19,0,0,1,.66.8,8.06,8.06,0,0,1,1.31,3A8.57,8.57,0,0,1,289.13,383.94Z" transform="translate(-154 -247)"/><path class="cls-1" d="M289.13,383.36v12.76a1.11,1.11,0,0,1,0,.19c-.12,1.07-1.32,2-3.24,2.82a33,33,0,0,1-11.66,1.81,41.51,41.51,0,0,1-7-.56h0a22.88,22.88,0,0,1-4.89-1.34c-1.9-.81-3-1.82-3-2.92V383.36a8.59,8.59,0,0,1,.58-3.14,47,47,0,0,0,17.95,3.48,48,48,0,0,0,11.25-1.31A7.77,7.77,0,0,1,289.13,383.36Z" transform="translate(-154 -247)"/></g><path class="cls-8" d="M272.4,382.62v19.12a45.71,45.71,0,0,1-5.82-.55h0a25.67,25.67,0,0,1-5.34-1.39c-2.07-.83-3.3-1.87-3.3-3V383.62a8.47,8.47,0,0,1,2.15-5.66l.17-.19c-1.32-1.9.12-5.19,2.8-4.22l10.07,3.67C276.13,378.32,275.15,382.87,272.4,382.62Z" transform="translate(-154 -247)"/><path class="cls-8" d="M290.29,381.81a9,9,0,0,1,.19,1.81V396.8a1.21,1.21,0,0,1,0,.19c-.14,1.1-1.44,2.11-3.54,2.91a24,24,0,0,1-3.74,1V382.43a2.55,2.55,0,0,1-2.34-1.29,2.73,2.73,0,0,1,1-3.71l4.78-2.19a2.72,2.72,0,0,1,3,4.55A8.81,8.81,0,0,1,290.29,381.81Z" transform="translate(-154 -247)"/><path class="cls-8" d="M269,375.73c-1.22-1.85-3.49-2.84-6.38-2.84H251.28c-2.9,0-5.17,1-6.39,2.84-2.35,3.54,1.33,9.16,1.69,9.7s3.63,5.38,9.19,5.8a34.53,34.53,0,0,0,2.35,0c5.56-.42,8.91-5.37,9.19-5.8S271.34,379.27,269,375.73Zm-6.54,6.77a11.17,11.17,0,0,1-5.52,5.82,11.28,11.28,0,0,1-5.51-5.82,11.07,11.07,0,0,1-.23-7.46l5.74-.06,5.76.06A11.16,11.16,0,0,1,262.46,382.5Z" transform="translate(-154 -247)"/><path class="cls-8" d="M303,354.21a15.72,15.72,0,0,0,4.35,1.6,7.52,7.52,0,0,1-7.89,4.14,7.08,7.08,0,0,1-2.66-1V347.74a7.3,7.3,0,0,0-.06-.94,5.4,5.4,0,0,0-.1-.58,37.6,37.6,0,0,0-6.06-3.17c-.67-.27-1.34-.52-2-.75s-1.2-.38-1.81-.54l-.45-.12a32.89,32.89,0,0,0-7.57-1.19l-1.08,0h-1l-.88,0a26.72,26.72,0,0,0-7.26,1.32,23.29,23.29,0,0,0-2.74,1.14,25.06,25.06,0,0,0-5.75,3.91c-.61.56-1.19,1.14-1.76,1.75h0a1.32,1.32,0,0,1,0,.28v13.57a3.15,3.15,0,0,1-3.16,3.16h-.23a3.15,3.15,0,0,1-2.2-1.12h0a3,3,0,0,1-.64-1.25,2.86,2.86,0,0,1-.1-.77V354.2l.08,0V352.4H252v.21a5.12,5.12,0,0,0-1.05-.11,4.78,4.78,0,0,0-1.42.21,5.11,5.11,0,0,1-1-1.71c-2.25-6.31-1-13.77,4.84-17.64,4.78-3.2,10.92-3.14,16.2-1.12a34.72,34.72,0,0,1,7.95-.85,44.93,44.93,0,0,1,18.65,4.26,22.61,22.61,0,0,0,11.35-4.89,11.45,11.45,0,0,1-1.56,12.39,20,20,0,0,0,3.57-1.5,9.8,9.8,0,0,1-4.13,11,9,9,0,0,1-3.06,1.18C302.54,353.94,302.77,354.08,303,354.21Z" transform="translate(-154 -247)"/><path class="cls-8" d="M296.81,347.74v18.09a7.46,7.46,0,0,1-7.46,7.46H264.51l-.48,0-.27,0-.57-.06-.68-.11-.54-.12-.27-.06-.27-.08-.34-.1-.61-.2-.55-.22-.34-.15-.4-.2-.15-.07a10.13,10.13,0,0,1-1.06-.62l-.3-.19-.39-.28-.43-.33s0,0,0,0a2.48,2.48,0,0,1-.3-.25l-.07-.06,0,0-.17-.15a5,5,0,0,1-.41-.39c-.16-.15-.31-.31-.46-.47l-.42-.49c-.13-.16-.26-.33-.38-.5a1.77,1.77,0,0,1-.16-.22,9.43,9.43,0,0,1-.64-1,12.19,12.19,0,0,1-.66-1.3c-.09-.19-.16-.39-.24-.58s-.12-.33-.17-.49a3.15,3.15,0,0,0,2.2,1.12h.23a3.15,3.15,0,0,0,3.16-3.16V348.87a1.32,1.32,0,0,0,0-.28h0c.57-.61,1.15-1.19,1.76-1.75a25.06,25.06,0,0,1,5.75-3.91,23.29,23.29,0,0,1,2.74-1.14,26.72,26.72,0,0,1,7.26-1.32l.88,0h1l1.08,0a32.89,32.89,0,0,1,7.57,1.19l.45.12c.61.16,1.21.35,1.81.54s1.35.48,2,.75a37.6,37.6,0,0,1,6.06,3.17,5.4,5.4,0,0,1,.1.58A7.3,7.3,0,0,1,296.81,347.74Z" transform="translate(-154 -247)"/><path class="cls-8" d="M296.81,362.31v3.52a7.46,7.46,0,0,1-7.46,7.46H264.94a12.88,12.88,0,0,1-9.56-4.24c5.49-6.74,14.51-11.13,24.7-11.13A33.3,33.3,0,0,1,296.81,362.31Z" transform="translate(-154 -247)"/><path class="cls-1" d="M286.76,341.76l-16.08,17.46L259,371.86a10.13,10.13,0,0,1-1.06-.62l-.3-.19-.39-.28-.43-.33s0,0,0,0a2.48,2.48,0,0,1-.3-.25l-.07-.06,0,0-.17-.15a5,5,0,0,1-.41-.39c-.16-.15-.31-.31-.46-.47l-.42-.49c-.13-.16-.26-.33-.38-.5a1.77,1.77,0,0,1-.16-.22,9.43,9.43,0,0,1-.64-1,12.19,12.19,0,0,1-.66-1.3c-.09-.19-.16-.39-.24-.58s-.12-.33-.17-.49a3.15,3.15,0,0,0,2.2,1.12h.23a3.15,3.15,0,0,0,3.16-3.16V348.87a1.32,1.32,0,0,0,0-.28h0c.57-.61,1.15-1.19,1.76-1.75a25.06,25.06,0,0,1,5.75-3.91,23.29,23.29,0,0,1,2.74-1.14,26.72,26.72,0,0,1,7.26-1.32l.88,0h1l1.08,0a32.89,32.89,0,0,1,7.57,1.19Z" transform="translate(-154 -247)"/><path class="cls-8" d="M254.91,365.59l-1.13,1.25a12.19,12.19,0,0,1-.66-1.3l.37-.4A3.13,3.13,0,0,0,254.91,365.59Z" transform="translate(-154 -247)"/><path class="cls-8" d="M277.66,340.42,258.3,361.84v-2l14.85-16.42,2.64-2.93.88,0Z" transform="translate(-154 -247)"/><path class="cls-8" d="M252.07,363.21a4.83,4.83,0,0,1-1.15.13,5.32,5.32,0,0,1-5.2-5.42,5.39,5.39,0,0,1,3.78-5.22,4.78,4.78,0,0,1,1.42-.21,5.12,5.12,0,0,1,1.05.11l.08,0v1.6l-.08,0v8.24A2.86,2.86,0,0,0,252.07,363.21Z" transform="translate(-154 -247)"/><path class="cls-8" d="M304.07,332h0c-.27,1.29-1.61,2.84-3.69,4.39a.36.36,0,0,0,0-.09,7.15,7.15,0,0,0,.37-1,9.29,9.29,0,0,0-.92-6.95h0a12.56,12.56,0,0,0-5.42-5.24,20,20,0,0,1-.4,4.4c-.08.4-.18.81-.29,1.24a12.71,12.71,0,0,0-.5-1.29l-.09-.2a14.35,14.35,0,0,0-1.85-3,13.45,13.45,0,0,0-5.45-4.07,26.83,26.83,0,0,1,.7,7.16,24.36,24.36,0,0,1-.42,3.64l-.06.26a19.61,19.61,0,0,1-.72,2.63,12.62,12.62,0,0,0-.06-1.94c0-.4-.09-.79-.15-1.18a12.6,12.6,0,0,0-1-3.3,9.65,9.65,0,0,0-.73-1.26c-.07.36-.17.81-.3,1.32a26.87,26.87,0,0,1-2.85,7.1c-.14.24-.29.48-.44.71s-.23.35-.35.52a14.7,14.7,0,0,1-4.71,4.53,28.95,28.95,0,0,1-17.8-.2h0c-2.11-1.17-3.37-2.45-3.36-3.66,0-2.25,4.41-4.1,8.94-5.43l-.1-.08c.95-.39,6.48-2.76,8-8.45a11.44,11.44,0,0,0,.39-3.43,9.18,9.18,0,0,1,4.93,5,17.53,17.53,0,0,0,2.6-3.73,18.36,18.36,0,0,0,1.77-5.19,16.51,16.51,0,0,1,3.12,3v-.18a18.29,18.29,0,0,0-.46-5.46,14.15,14.15,0,0,1,10,7.66,17.35,17.35,0,0,0,.4-2.65,17.68,17.68,0,0,0-.91-6.78c7.43.76,13.14,6.65,13.56,13.56A13.51,13.51,0,0,1,304.07,332Z" transform="translate(-154 -247)"/><path class="cls-8" d="M299.19,344.38c-2.81,1.55-6.4.73-7.68-2.32h0a12.27,12.27,0,0,1-2.42,0,45.8,45.8,0,0,1-11.26,2.23c-8,.49-16.35-1.46-20.88-4a28.95,28.95,0,0,0,17.8.2,14.7,14.7,0,0,0,4.71-4.53c.12-.17.24-.34.35-.52s.3-.47.44-.71a26.87,26.87,0,0,0,2.85-7.1c.13-.51.23-1,.3-1.32a9.65,9.65,0,0,1,.73,1.26,12.6,12.6,0,0,1,1,3.3c.06.39.12.78.15,1.18a12.62,12.62,0,0,1,.06,1.94,19.61,19.61,0,0,0,.72-2.63l.06-.26a24.36,24.36,0,0,0,.42-3.64,26.83,26.83,0,0,0-.7-7.16,13.45,13.45,0,0,1,5.45,4.07,14.35,14.35,0,0,1,1.85,3l-.06.19h.15a12.71,12.71,0,0,1,.5,1.29c.11-.43.21-.84.29-1.24a20,20,0,0,0,.4-4.4,12.56,12.56,0,0,1,5.42,5.24h0a9.29,9.29,0,0,1,.92,6.95,7.15,7.15,0,0,1-.37,1,.36.36,0,0,1,0,.09,8.89,8.89,0,0,1-2.32,3,18.46,18.46,0,0,0,5.66-3.53A9.48,9.48,0,0,1,299.19,344.38Z" transform="translate(-154 -247)"/><path class="cls-8" d="M272.76,367.37a33.87,33.87,0,0,1,11.88.26c1.7.34,2.43-2.28.72-2.62a38,38,0,0,0-13.32-.26c-1.72.27-1,2.89.72,2.62Z" transform="translate(-154 -247)"/><path class="cls-8" d="M295.11,357.48a7.71,7.71,0,0,1-.11,1.28h0a3.55,3.55,0,0,1-.09.47c-.54,2.34-2.12,4.05-4,4.11h-.1c-2.36,0-4.29-2.63-4.29-5.87s1.93-5.87,4.29-5.87a3.16,3.16,0,0,1,1.42.34C293.9,352.74,295.11,354.92,295.11,357.48Z" transform="translate(-154 -247)"/><path class="cls-1" d="M293.83,357.08a4.08,4.08,0,0,1-.1.93h0c0,.12-.06.23-.1.35a4.27,4.27,0,0,1-4,3h-.1a4.29,4.29,0,1,1,0-8.58A4.15,4.15,0,0,1,291,353,4.29,4.29,0,0,1,293.83,357.08Z" transform="translate(-154 -247)"/><path class="cls-8" d="M287.8,349.12l9,2.7c2.94.89,4.2-3.71,1.26-4.59l-9-2.7c-2.94-.89-4.2,3.71-1.27,4.59Z" transform="translate(-154 -247)"/><path class="cls-8" d="M256.46,375.27A22,22,0,0,0,246,383a5.46,5.46,0,0,0-1,3.23l0,0c-2.77,5-2.9,10.76-2.41,16.33.21,2.43,2.88,4.12,5.17,3.76a4.61,4.61,0,0,0,3.76-5.18c-.28-3.27-.38-6.92,1-10a5.32,5.32,0,0,0,2.2-1.71c.28-.38.58-.74.89-1.09-.12.15.56-.55.66-.64.33-.28.68-.55,1-.81.08-.07.64-.43.66-.46.29-.16.58-.31.88-.45a18.93,18.93,0,0,1,2.09-.83c2.7-.89,4-4.71,2.76-7.16C262.21,375.19,259.35,374.31,256.46,375.27Z" transform="translate(-154 -247)"/></g><rect class="cls-10" x="131" y="106" width="34" height="8" rx="4"/><rect class="cls-10" x="207" y="99.09" width="30" height="15.91" rx="7.96"/><rect class="cls-10" x="251" y="99.09" width="15.91" height="15.91" rx="7.96"/><rect class="cls-10" x="224" y="68" width="28" height="28" rx="14"/><rect class="cls-10" x="232" y="121.7" width="30" height="7.72" rx="3.86"/><rect class="cls-10" x="268" y="121.7" width="8" height="7.72" rx="3.86"/></g></svg>