<svg xmlns="http://www.w3.org/2000/svg" viewBox="0 0 299.83 365.39"><defs><style>.cls-1,.cls-6,.cls-7{fill:#6b6eb3;}.cls-2{fill:none;stroke-width:6px;stroke-dasharray:29.41 29.41;}.cls-2,.cls-6{stroke:#343961;stroke-linecap:round;}.cls-2,.cls-3,.cls-6{stroke-miterlimit:10;}.cls-3{fill:#f15a29;stroke:#ef4136;stroke-width:7px;}.cls-4{fill:#fff;}.cls-5{fill:#343961;}.cls-6{stroke-width:2px;}.cls-7{opacity:0.99;}</style></defs><title>PopupEnemy</title><g id="Enemy"><rect class="cls-1" x="3" y="3" width="293.83" height="359.39" rx="41.51"/><rect class="cls-2" x="3" y="3" width="293.83" height="359.39" rx="41.51"/><rect class="cls-3" x="26.17" y="252.89" width="251.96" height="83.74" rx="25.53"/><path class="cls-4" d="M255.76,558.45H244.88l-4.67-12.24h-3.1v12.24h-9.82v-32H244c3.69,0,6.55.87,8.59,2.59a8.53,8.53,0,0,1,3.06,6.84,10.25,10.25,0,0,1-1.13,4.88A9.43,9.43,0,0,1,250,544.5Zm-18.65-19.08h4.19a5.13,5.13,0,0,0,3-.78,2.57,2.57,0,0,0,1.13-2.27q0-3.08-3.78-3.07h-4.52Z" transform="translate(-154.05 -247)"/><path class="cls-4" d="M289.28,550.8v7.65H265.21v-32h24.07v7.39H274.84v4.64h11.67v7.1H274.84v5.22Z" transform="translate(-154.05 -247)"/><path class="cls-4" d="M311.12,534.12v24.33h-9.31V534.12h-6.63v-7.67h22.57v7.67Z" transform="translate(-154.05 -247)"/><path class="cls-4" d="M353.81,558.45H342.93l-4.68-12.24h-3.09v12.24h-9.82v-32h16.71c3.69,0,6.55.87,8.59,2.59a8.53,8.53,0,0,1,3.06,6.84,10.25,10.25,0,0,1-1.13,4.88A9.42,9.42,0,0,1,348,544.5Zm-18.65-19.08h4.19a5.13,5.13,0,0,0,3-.78,2.57,2.57,0,0,0,1.12-2.27c0-2.05-1.25-3.07-3.77-3.07h-4.52Z" transform="translate(-154.05 -247)"/><path class="cls-4" d="M388.85,526.45l-10,18.45v13.55H369.3V544.9l-10.76-18.45h10.74L374.89,537l5.38-10.55Z" transform="translate(-154.05 -247)"/><path class="cls-4" d="M183.34,463.35a2.68,2.68,0,0,1,.91-1,2.17,2.17,0,0,1,1.13-.32,2.38,2.38,0,0,1,1,.21,3.24,3.24,0,0,1,.85.54,2.55,2.55,0,0,1,.6.78,2.06,2.06,0,0,1,.23.93,2.55,2.55,0,0,1-.42,1.32l-4,6.39v5.31a2.28,2.28,0,0,1-.74,1.83,2.55,2.55,0,0,1-1.72.63,2.62,2.62,0,0,1-1.76-.63,2.27,2.27,0,0,1-.73-1.83v-5.31l-4-6.39a2.55,2.55,0,0,1-.42-1.32,2,2,0,0,1,.22-.93,2.55,2.55,0,0,1,.6-.78,3.29,3.29,0,0,1,.86-.54,2.38,2.38,0,0,1,1-.21,2.14,2.14,0,0,1,1.12.32,2.7,2.7,0,0,1,.92,1l2.19,3.75Z" transform="translate(-154.05 -247)"/><path class="cls-4" d="M188,471a9,9,0,0,1,.72-3.57,9.34,9.34,0,0,1,1.95-2.92,9.07,9.07,0,0,1,2.91-2,9.21,9.21,0,0,1,7.14,0,9.24,9.24,0,0,1,4.89,4.89,9.21,9.21,0,0,1,0,7.14,9.07,9.07,0,0,1-2,2.91,9.34,9.34,0,0,1-2.92,1.95,9.21,9.21,0,0,1-7.14,0,9,9,0,0,1-4.86-4.86A9,9,0,0,1,188,471Zm5,.06a4.08,4.08,0,0,0,4.14,4.14,4.22,4.22,0,0,0,1.63-.31,3.89,3.89,0,0,0,1.32-.89,4.45,4.45,0,0,0,.89-1.32,4,4,0,0,0,.33-1.62,4.06,4.06,0,0,0-.33-1.63,4.17,4.17,0,0,0-2.21-2.21,4.06,4.06,0,0,0-1.63-.33,4,4,0,0,0-1.62.33,4.45,4.45,0,0,0-1.32.89,3.89,3.89,0,0,0-.89,1.32A4.22,4.22,0,0,0,193.06,471Z" transform="translate(-154.05 -247)"/><path class="cls-4" d="M222.52,472.11q0,7.89-7.2,7.89T208,472.11v-7.56a2.27,2.27,0,0,1,.73-1.83,2.72,2.72,0,0,1,3.48,0,2.28,2.28,0,0,1,.74,1.83v8.31q0,2.22,2.31,2.22t2.31-2.22v-8.31a2.27,2.27,0,0,1,.73-1.83,2.72,2.72,0,0,1,3.48,0,2.28,2.28,0,0,1,.74,1.83Z" transform="translate(-154.05 -247)"/><path class="cls-4" d="M248.89,463.65a2.22,2.22,0,0,1,.81-1.3,2.13,2.13,0,0,1,1.26-.41,2.61,2.61,0,0,1,.9.17,2.56,2.56,0,0,1,.81.48,2.44,2.44,0,0,1,.58.76,2.19,2.19,0,0,1,.23,1,3.24,3.24,0,0,1-.15.9l-4.23,13.11a2.24,2.24,0,0,1-.95,1.29,2.65,2.65,0,0,1-2.88,0,2.44,2.44,0,0,1-1-1.28l-2.28-6.6-2.13,6.6a2.24,2.24,0,0,1-.95,1.29,2.65,2.65,0,0,1-2.88,0,2.44,2.44,0,0,1-1-1.28l-4.53-13.17a3.17,3.17,0,0,1-.15-.87,2.07,2.07,0,0,1,.22-1,2.58,2.58,0,0,1,1.4-1.23,2.69,2.69,0,0,1,.93-.17,2.13,2.13,0,0,1,2.1,1.71l2.43,8.76,2.19-8.76a2.28,2.28,0,0,1,.88-1.32,2.4,2.4,0,0,1,1.4-.45,2.46,2.46,0,0,1,1.41.45,2.26,2.26,0,0,1,.9,1.32l2.43,8.76Z" transform="translate(-154.05 -247)"/><path class="cls-4" d="M257.59,480a2.19,2.19,0,0,1-2.46-2.49v-13a2.19,2.19,0,0,1,2.46-2.49H266a2.34,2.34,0,0,1,1.83.74,2.66,2.66,0,0,1,0,3.51A2.33,2.33,0,0,1,266,467h-5.94v1.5h4.74a2.34,2.34,0,0,1,1.83.74,2.66,2.66,0,0,1,0,3.51,2.33,2.33,0,0,1-1.83.73h-4.74V475H266a2.34,2.34,0,0,1,1.83.74,2.66,2.66,0,0,1,0,3.51A2.33,2.33,0,0,1,266,480Z" transform="translate(-154.05 -247)"/><path class="cls-4" d="M276.67,473.67a3.59,3.59,0,0,1-.75-2.16,1.85,1.85,0,0,1,.27-1.09,1.74,1.74,0,0,1,.69-.57,3.36,3.36,0,0,1,.9-.27,5.93,5.93,0,0,0,.9-.21,2,2,0,0,0,.72-.41,1.16,1.16,0,0,0,.33-.84q0-1.35-1.56-1.35H275.5v10.68A2.23,2.23,0,0,1,273,480a2.49,2.49,0,0,1-1.88-.64,2.58,2.58,0,0,1-.61-1.85v-13q0-2.49,2.4-2.49h5.34a7.21,7.21,0,0,1,2.71.47,5.52,5.52,0,0,1,1.91,1.23A4.88,4.88,0,0,1,284,465.5a5.69,5.69,0,0,1,.36,2,5.75,5.75,0,0,1-.77,2.88,4.84,4.84,0,0,1-2.26,2l2.13,3.39a3,3,0,0,1,.48,1.59,2.52,2.52,0,0,1-.21,1,2.87,2.87,0,0,1-.56.84,2.42,2.42,0,0,1-.79.56,2.31,2.31,0,0,1-.93.19,2.06,2.06,0,0,1-1.07-.31,2.66,2.66,0,0,1-.91-1Z" transform="translate(-154.05 -247)"/><path class="cls-4" d="M288.67,480a2.19,2.19,0,0,1-2.46-2.49v-13a2.19,2.19,0,0,1,2.46-2.49h8.4a2.34,2.34,0,0,1,1.83.74,2.66,2.66,0,0,1,0,3.51,2.33,2.33,0,0,1-1.83.73h-5.94v1.5h4.74a2.34,2.34,0,0,1,1.83.74,2.66,2.66,0,0,1,0,3.51,2.33,2.33,0,0,1-1.83.73h-4.74V475h5.94a2.34,2.34,0,0,1,1.83.74,2.66,2.66,0,0,1,0,3.51,2.33,2.33,0,0,1-1.83.73Z" transform="translate(-154.05 -247)"/><path class="cls-4" d="M316.09,467.1a4.59,4.59,0,0,0-1.82.33,3.86,3.86,0,0,0-1.29.89,3.6,3.6,0,0,0-.78,1.26A4.21,4.21,0,0,0,312,471a4.37,4.37,0,0,0,.25,1.47,3.59,3.59,0,0,0,.78,1.28,4,4,0,0,0,1.29.9,4.33,4.33,0,0,0,1.79.34h1.83a2.62,2.62,0,0,1,1.09.21,2.25,2.25,0,0,1,.78.57,2.36,2.36,0,0,1,.47.81,2.83,2.83,0,0,1,.15.9,2.66,2.66,0,0,1-.63,1.73,2.27,2.27,0,0,1-1.86.76h-1.8a9.33,9.33,0,0,1-3.9-.76,8.57,8.57,0,0,1-2.81-2,8.08,8.08,0,0,1-1.68-2.82,9.85,9.85,0,0,1-.55-3.27,9.73,9.73,0,0,1,.58-3.33,8.81,8.81,0,0,1,1.74-2.91,8.44,8.44,0,0,1,2.91-2.07,10,10,0,0,1,4.1-.78h1.41a2.62,2.62,0,0,1,1.09.21,2.25,2.25,0,0,1,.78.57,2.56,2.56,0,0,1,.48.81,2.63,2.63,0,0,1,0,1.86,2.56,2.56,0,0,1-.48.81,2.25,2.25,0,0,1-.78.57,2.62,2.62,0,0,1-1.09.21Z" transform="translate(-154.05 -247)"/><path class="cls-4" d="M332.8,476.52h-5.31l-.75,1.92a2.46,2.46,0,0,1-.92,1.22,2.3,2.3,0,0,1-1.27.37,2.92,2.92,0,0,1-1-.16,2.87,2.87,0,0,1-.85-.48,2.43,2.43,0,0,1-.62-.74,2,2,0,0,1-.22-1,2.31,2.31,0,0,1,.21-1L328,463.65a2.88,2.88,0,0,1,1.05-1.26,2.49,2.49,0,0,1,1.35-.42,2.4,2.4,0,0,1,1.33.42,2.57,2.57,0,0,1,1,1.26l5.43,13.05a2.31,2.31,0,0,1,.21,1,2.05,2.05,0,0,1-.23.95,2.32,2.32,0,0,1-.61.75,2.85,2.85,0,0,1-.87.48,2.93,2.93,0,0,1-1,.16,2.39,2.39,0,0,1-1.29-.37,2.28,2.28,0,0,1-.9-1.22Zm-3.75-3.9h2.4l-1.11-3.21Z" transform="translate(-154.05 -247)"/><path class="cls-4" d="M344.92,477.45a2.23,2.23,0,0,1-2.49,2.55,2.49,2.49,0,0,1-1.88-.64,2.58,2.58,0,0,1-.61-1.85v-13q0-2.49,2.4-2.49h5a7.22,7.22,0,0,1,2.8.5,5.6,5.6,0,0,1,1.95,1.3,5.3,5.3,0,0,1,1.14,1.85,6.14,6.14,0,0,1,.38,2.11,6.52,6.52,0,0,1-.35,2.1,5.52,5.52,0,0,1-1,1.82,5.26,5.26,0,0,1-1.65,1.29,4.85,4.85,0,0,1-2.23.49h-.81q-2.25,0-2.25-2a1.85,1.85,0,0,1,.27-1.09,1.74,1.74,0,0,1,.69-.57,3.36,3.36,0,0,1,.9-.27,5.93,5.93,0,0,0,.9-.21,2,2,0,0,0,.72-.41,1.16,1.16,0,0,0,.33-.84q0-1.35-1.56-1.35h-2.67Z" transform="translate(-154.05 -247)"/><path class="cls-4" d="M363.61,477.51a2.28,2.28,0,0,1-.74,1.83,2.72,2.72,0,0,1-3.48,0,2.27,2.27,0,0,1-.73-1.83V467h-1.74a2.33,2.33,0,0,1-1.83-.73,2.66,2.66,0,0,1,0-3.51,2.34,2.34,0,0,1,1.83-.74h8.37a2.34,2.34,0,0,1,1.83.74,2.66,2.66,0,0,1,0,3.51,2.33,2.33,0,0,1-1.83.73h-1.68Z" transform="translate(-154.05 -247)"/><path class="cls-4" d="M383.74,472.11q0,7.89-7.2,7.89t-7.32-7.89v-7.56a2.27,2.27,0,0,1,.73-1.83,2.72,2.72,0,0,1,3.48,0,2.28,2.28,0,0,1,.74,1.83v8.31q0,2.22,2.31,2.22t2.31-2.22v-8.31a2.27,2.27,0,0,1,.73-1.83,2.72,2.72,0,0,1,3.48,0,2.28,2.28,0,0,1,.74,1.83Z" transform="translate(-154.05 -247)"/><path class="cls-4" d="M391.87,473.67a3.59,3.59,0,0,1-.75-2.16,1.85,1.85,0,0,1,.27-1.09,1.74,1.74,0,0,1,.69-.57,3.36,3.36,0,0,1,.9-.27,5.93,5.93,0,0,0,.9-.21,2,2,0,0,0,.72-.41,1.16,1.16,0,0,0,.33-.84q0-1.35-1.56-1.35H390.7v10.68a2.23,2.23,0,0,1-2.49,2.55,2.49,2.49,0,0,1-1.88-.64,2.58,2.58,0,0,1-.61-1.85v-13q0-2.49,2.4-2.49h5.34a7.21,7.21,0,0,1,2.71.47,5.52,5.52,0,0,1,1.91,1.23,4.88,4.88,0,0,1,1.11,1.74,5.69,5.69,0,0,1,.36,2,5.75,5.75,0,0,1-.77,2.88,4.84,4.84,0,0,1-2.26,2l2.13,3.39a3,3,0,0,1,.48,1.59,2.52,2.52,0,0,1-.21,1,2.87,2.87,0,0,1-.56.84,2.42,2.42,0,0,1-.79.56,2.31,2.31,0,0,1-.93.19,2.06,2.06,0,0,1-1.07-.31,2.66,2.66,0,0,1-.91-1Z" transform="translate(-154.05 -247)"/><path class="cls-4" d="M403.87,480a2.19,2.19,0,0,1-2.46-2.49v-13a2.19,2.19,0,0,1,2.46-2.49h8.4a2.34,2.34,0,0,1,1.83.74,2.66,2.66,0,0,1,0,3.51,2.33,2.33,0,0,1-1.83.73h-5.94v1.5h4.74a2.34,2.34,0,0,1,1.83.74,2.66,2.66,0,0,1,0,3.51,2.33,2.33,0,0,1-1.83.73h-4.74V475h5.94a2.34,2.34,0,0,1,1.83.74,2.66,2.66,0,0,1,0,3.51,2.33,2.33,0,0,1-1.83.73Z" transform="translate(-154.05 -247)"/><path class="cls-4" d="M416.76,464.55a2.06,2.06,0,0,1,.23-.93,2.71,2.71,0,0,1,.6-.79,3.16,3.16,0,0,1,.84-.56,2.19,2.19,0,0,1,.91-.21h2.41a9.93,9.93,0,0,1,4.08.78,8.55,8.55,0,0,1,2.89,2.07,8.81,8.81,0,0,1,1.74,2.91,9.73,9.73,0,0,1,.58,3.33,9.85,9.85,0,0,1-.55,3.27,8.08,8.08,0,0,1-1.68,2.82,8.59,8.59,0,0,1-2.79,2,9.22,9.22,0,0,1-3.89.76h-2.79a2.6,2.6,0,0,1-1.87-.67,2.41,2.41,0,0,1-.71-1.82ZM422.17,475a3.86,3.86,0,0,0,1.72-.36,4,4,0,0,0,1.24-.93,3.8,3.8,0,0,0,.77-1.3,4.62,4.62,0,0,0,.26-1.52,4.26,4.26,0,0,0-.24-1.41,3.49,3.49,0,0,0-.74-1.21,3.75,3.75,0,0,0-1.26-.86,4.5,4.5,0,0,0-1.79-.33h-.42V475Z" transform="translate(-154.05 -247)"/><path class="cls-4" d="M437.41,479.13a2.31,2.31,0,0,1-.2.95,2.6,2.6,0,0,1-.54.78,2.64,2.64,0,0,1-.79.54,2.42,2.42,0,0,1-1,.19,2.35,2.35,0,0,1-1-.19,2.57,2.57,0,0,1-.8-.54,2.6,2.6,0,0,1-.54-.78,2.31,2.31,0,0,1-.2-.95,2.5,2.5,0,0,1,5,0Z" transform="translate(-154.05 -247)"/><g id="Enemy_copy_3" data-name="Enemy copy 3"><path class="cls-5" d="M347.73,394.86A5.3,5.3,0,0,1,351,390a4.71,4.71,0,0,1,.75-.25h0v-2.58a5.28,5.28,0,0,1,1.7-3.88V372.71h16.92v10.47a5.26,5.26,0,0,1,1.8,4v10.91a3.11,3.11,0,0,1-.9,2.18,3.07,3.07,0,0,1-2.18.9H353a5.33,5.33,0,0,1-5.31-5.31Z" transform="translate(-154.05 -247)"/><path class="cls-5" d="M319.46,394.86a5.29,5.29,0,0,1,3.28-4.89,5,5,0,0,1,.74-.25h0v-2.58a5.29,5.29,0,0,1,1.71-3.88V372.71h16.92v10.47a5.3,5.3,0,0,1,1.8,4v10.91a3.08,3.08,0,0,1-.91,2.18,3,3,0,0,1-2.17.9H324.77a5.33,5.33,0,0,1-5.31-5.31Z" transform="translate(-154.05 -247)"/><g id="Collar_copy_4" data-name="Collar copy 4"><path class="cls-6" d="M287,301.32l41,55.87,39.78-.9q17.1-29.21,34.21-58.42c-3.79-4-23.08-23.33-53.93-24.13C312.06,272.8,289.89,297.93,287,301.32Z" transform="translate(-154.05 -247)"/></g><path class="cls-5" d="M293.74,368.14l8.16-3.51.54,1.26c.63-.35,1.28-.74,2-1.17.08-.05,1.15-.8,1.34-.9s.48-.4.71-.61a22.21,22.21,0,0,0,1.63-1.59l.47-.59a11.66,11.66,0,0,1,1.17-3.8c.1-.19.19-.39.28-.58l.23-.63c.27-1.12.65-2.2.86-3.34,0-.62.07-1.23.07-1.85s-.34-4.27.08-1.15c-.7-5.11,1.23-10.88,6.91-12.18,4.65-1.06,11.43,1.43,12.18,6.92a37.64,37.64,0,0,1-3.52,22.81,8.32,8.32,0,0,1-2.93,3.19c-.31.45-.62.89-.95,1.32a38.2,38.2,0,0,1-13.4,10.62l.38.91-8.15,3.5a10.13,10.13,0,0,1-13.32-5.31h0A10.13,10.13,0,0,1,293.74,368.14Zm17.36-15.5h0C311.23,351.93,311.22,351.94,311.1,352.64Z" transform="translate(-154.05 -247)"/><g id="Layer_21_copy_4" data-name="Layer 21 copy 4"><path class="cls-5" d="M323.92,352v20c0,.09,0,.19,0,.29.2,1.66,2.14,3.19,5.25,4.4,4.42,1.74,11.22,2.84,18.86,2.84a69.82,69.82,0,0,0,11.31-.88h0a37.53,37.53,0,0,0,7.91-2.11c3.07-1.26,4.89-2.83,4.89-4.54V352a13.05,13.05,0,0,0-3.19-8.57,12.64,12.64,0,0,0-4.19-3.16,12.79,12.79,0,0,0-1.78-.68,12.51,12.51,0,0,0-3.48-.5h-23a12.45,12.45,0,0,0-9.17,4,11.93,11.93,0,0,0-1.05,1.3,12.74,12.74,0,0,0-2.12,4.83A13.07,13.07,0,0,0,323.92,352Z" transform="translate(-154.05 -247)"/><path class="cls-7" d="M325.26,363a30.15,30.15,0,0,0,13,.34,7.61,7.61,0,0,1,6.73-4,7.72,7.72,0,0,1,2.55.44,31.08,31.08,0,0,0,5.41-4.1,7.54,7.54,0,0,1-.29-2,7.43,7.43,0,0,1,7.43-7.42h.08a42.31,42.31,0,0,0,4-9.85c1.46-5.44,9.92-3.14,8.45,2.33a51.35,51.35,0,0,1-5.47,12.75,7.54,7.54,0,0,1,.33,2.19,7.43,7.43,0,0,1-7.43,7.43H360a38.18,38.18,0,0,1-7.35,5.92,7.61,7.61,0,0,1-13.3,5.05,40,40,0,0,1-16.38-.56C317.45,370.15,319.77,361.7,325.26,363Z" transform="translate(-154.05 -247)"/></g><g id="Mask"><rect class="cls-5" x="311.59" y="270.97" width="68.83" height="65.51" rx="25.45" transform="translate(537.97 360.46) rotate(-180)"/><path class="cls-1" d="M315.15,298.68a47.31,47.31,0,0,0,19.65,38.38c.29.21.59.43.89.63a14.18,14.18,0,0,0,14.11,1.11,47.36,47.36,0,0,0,26.8-39c0-.37,0-.74,0-1.11A14.14,14.14,0,0,0,370.5,287,47.26,47.26,0,0,0,345,278.7l-1.29,0a46.76,46.76,0,0,0-5,.27,47.26,47.26,0,0,0-15.38,4.35,14.14,14.14,0,0,0-8,11.67C315.19,296.21,315.15,297.44,315.15,298.68Z" transform="translate(-154.05 -247)"/><path class="cls-5" d="M334.8,337.06c.29.21.59.43.89.63a14.11,14.11,0,0,0,5.93,2.33,83.69,83.69,0,0,1-4.17-30.08A85,85,0,0,1,345,278.7l-1.29,0a46.76,46.76,0,0,0-5,.27,89.51,89.51,0,0,0-3.88,58.11Z" transform="translate(-154.05 -247)"/></g><g id="Face_copy_5" data-name="Face copy 5"><ellipse class="cls-5" cx="339.53" cy="329.74" rx="5.22" ry="9.61" transform="translate(-222.1 323.35) rotate(-74.72)"/><path class="cls-5" d="M359.42,283.77l6.89-1.8.63,2.41a15.31,15.31,0,0,1,3.85,2.35,20.11,20.11,0,0,1,6.39,10.4c1.6,6.13.4,12.17-2.72,16.13l.62,2.4-6.89,1.8c-7.39,1.93-15.34-4.06-17.77-13.37a20.69,20.69,0,0,1-.63-3.75C349.15,292.45,353,285.43,359.42,283.77Z" transform="translate(-154.05 -247)"/><path class="cls-5" d="M349.79,300.34l13.06-3.4,6.89-1.79,3-.79-2-7.63a15.31,15.31,0,0,0-3.85-2.35l-.63-2.41-6.89,1.8C353,285.43,349.15,292.45,349.79,300.34Z" transform="translate(-154.05 -247)"/><path class="cls-1" d="M357.31,302.3c1.92,7.36,7.3,12.64,13.12,13.58a10.93,10.93,0,0,0,3.74,0,5.89,5.89,0,0,0,.91-.19,11.09,11.09,0,0,0,3.74-1.76,14.47,14.47,0,0,0,5.32-8.17,20.45,20.45,0,0,0-.07-10.39c-1.78-6.86-6.57-11.91-11.92-13.33h0a11.51,11.51,0,0,0-5.83,0,11.18,11.18,0,0,0-3,1.27,12.54,12.54,0,0,0-3.8,3.64,15.37,15.37,0,0,0-1.87,3.71A20.3,20.3,0,0,0,357.31,302.3Z" transform="translate(-154.05 -247)"/><path class="cls-5" d="M313.56,299.36a27.82,27.82,0,0,1,1.25-5.12c.26-.77.56-1.52.87-2.24a28.44,28.44,0,0,1,1.3-2.59l3-8.72,6.22,2.15c3.58,1.24,4.5,8,2.15,15.35-.06.22-.13.43-.21.65-2.6,7.56-7.7,12.66-11.38,11.4l-6.22-2.15Z" transform="translate(-154.05 -247)"/><path class="cls-5" d="M315.68,292l.36.17,5.95,2.91,6.37,3.11c2.35-7.32,1.43-14.11-2.15-15.35L320,280.69l-3,8.72A28.44,28.44,0,0,0,315.68,292Z" transform="translate(-154.05 -247)"/><ellipse class="cls-1" cx="315.34" cy="294.42" rx="14.49" ry="7.06" transform="translate(-219.8 249.63) rotate(-70.99)"/><path class="cls-1" d="M317.77,346.07l3.2-9.61c2.14-6.4,10.45-9.4,18.55-6.69s12.94,10.09,10.8,16.5l-3.21,9.6-6.45-2.15a19,19,0,0,1-16.45-5.5Z" transform="translate(-154.05 -247)"/><ellipse class="cls-5" cx="332.49" cy="350.82" rx="12.23" ry="15.47" transform="translate(-259.64 308.03) rotate(-71.53)"/><path class="cls-5" d="M360.88,301.37c1.4,5.4,5.35,9.27,9.62,10a8.4,8.4,0,0,0,2.74,0,5.32,5.32,0,0,0,.67-.14,8.13,8.13,0,0,0,2.74-1.29,10.59,10.59,0,0,0,3.9-6,14.92,14.92,0,0,0-.05-7.62c-1.31-5-4.81-8.74-8.74-9.77h0a8.18,8.18,0,0,0-4.28,0,8.33,8.33,0,0,0-2.19.92,9.33,9.33,0,0,0-2.79,2.67,11.83,11.83,0,0,0-1.37,2.73A14.79,14.79,0,0,0,360.88,301.37Z" transform="translate(-154.05 -247)"/><ellipse class="cls-5" cx="315.15" cy="294.42" rx="10.26" ry="5" transform="translate(-219.93 249.45) rotate(-70.99)"/><ellipse class="cls-1" cx="332.49" cy="350.82" rx="7.67" ry="9.71" transform="translate(-259.64 308.03) rotate(-71.53)"/></g><path id="Flap" class="cls-5" d="M368.82,313.27A45.77,45.77,0,0,1,402,297.87l-20.31,49.35-14.49-5.5Z" transform="translate(-154.05 -247)"/><path class="cls-5" d="M364.7,340.41c3.13-4.86,8.5-5.87,13.54-3.55a34.65,34.65,0,0,1,15,13.86,9.5,9.5,0,0,1,1.29,4.56c.08.17.17.33.24.5,2.44,5.85,2.81,12,2.21,18.16l.93.15-1.44,8.76a10.14,10.14,0,0,1-20-3.29l1.44-8.76,1.37.22c0-.84.06-1.74,0-2.76,0-.6,0-1.19-.09-1.79a2.85,2.85,0,0,0,0-.31c0-.06,0-.13-.06-.25-.14-.67-.28-1.34-.47-2l-.17-.52a9.37,9.37,0,0,1-2.34-2.68c-.46-.77-1.14-1.52-1.53-2.32l.22.44a3.86,3.86,0,0,0-.44-.58c-.44-.48-.91-.94-1.39-1.38-.22-.21-.95-.75-1-.8-.26-.18-.52-.37-.8-.54a27,27,0,0,0-3-1.57C363.53,351.78,362,344.61,364.7,340.41Z" transform="translate(-154.05 -247)"/><path class="cls-5" d="M374.82,358.83c.33.52.44.87,0,0Z" transform="translate(-154.05 -247)"/></g><g id="Enemy_copy" data-name="Enemy copy"><path class="cls-5" d="M262.27,382.86A5.3,5.3,0,0,0,259,378a4.71,4.71,0,0,0-.75-.25h0v-2.58a5.28,5.28,0,0,0-1.7-3.88V360.71H239.62v10.47a5.26,5.26,0,0,0-1.8,4v10.91a3.11,3.11,0,0,0,.9,2.18,3.07,3.07,0,0,0,2.18.9H257a5.33,5.33,0,0,0,5.31-5.31Z" transform="translate(-154.05 -247)"/><path class="cls-5" d="M290.54,382.86a5.29,5.29,0,0,0-3.28-4.89,5,5,0,0,0-.74-.25h0v-2.58a5.29,5.29,0,0,0-1.71-3.88V360.71H267.89v10.47a5.3,5.3,0,0,0-1.8,4v10.91a3.08,3.08,0,0,0,.91,2.18,3,3,0,0,0,2.17.9h16.06a5.33,5.33,0,0,0,5.31-5.31Z" transform="translate(-154.05 -247)"/><g id="Collar_copy_2" data-name="Collar copy 2"><path class="cls-6" d="M323,289.32l-41,55.87-39.78-.9q-17.1-29.21-34.21-58.42c3.79-4,23.08-23.33,53.93-24.13C297.94,260.8,320.11,285.93,323,289.32Z" transform="translate(-154.05 -247)"/></g><path class="cls-5" d="M316.26,356.14l-8.16-3.51-.54,1.26c-.63-.35-1.28-.74-2-1.17-.08-.05-1.15-.8-1.34-.9s-.48-.4-.71-.61a22.21,22.21,0,0,1-1.63-1.59l-.47-.59a11.66,11.66,0,0,0-1.17-3.8c-.1-.19-.19-.39-.28-.58l-.23-.63c-.27-1.12-.65-2.2-.86-3.34,0-.62-.07-1.23-.07-1.85s.34-4.27-.08-1.15c.7-5.11-1.23-10.88-6.91-12.18-4.65-1.06-11.43,1.43-12.18,6.92a37.64,37.64,0,0,0,3.52,22.81,8.32,8.32,0,0,0,2.93,3.19c.31.45.62.89.95,1.32a38.2,38.2,0,0,0,13.4,10.62l-.38.91,8.15,3.5a10.13,10.13,0,0,0,13.32-5.31h0A10.13,10.13,0,0,0,316.26,356.14Zm-17.36-15.5h0C298.77,339.93,298.78,339.94,298.9,340.64Z" transform="translate(-154.05 -247)"/><g id="Layer_21_copy_2" data-name="Layer 21 copy 2"><path class="cls-5" d="M286.08,340v20c0,.09,0,.19,0,.29-.2,1.66-2.14,3.19-5.25,4.4-4.42,1.74-11.22,2.84-18.86,2.84a69.82,69.82,0,0,1-11.31-.88h0a37.53,37.53,0,0,1-7.91-2.11c-3.07-1.26-4.89-2.83-4.89-4.54V340a13.05,13.05,0,0,1,3.19-8.57,12.64,12.64,0,0,1,4.19-3.16,12.79,12.79,0,0,1,1.78-.68,12.51,12.51,0,0,1,3.48-.5h23a12.45,12.45,0,0,1,9.17,4,11.93,11.93,0,0,1,1.05,1.3,12.74,12.74,0,0,1,2.12,4.83A13.07,13.07,0,0,1,286.08,340Z" transform="translate(-154.05 -247)"/><path class="cls-7" d="M284.74,351a30.15,30.15,0,0,1-13,.34,7.61,7.61,0,0,0-6.73-4,7.72,7.72,0,0,0-2.55.44,31.08,31.08,0,0,1-5.41-4.1,7.54,7.54,0,0,0,.29-2,7.43,7.43,0,0,0-7.43-7.42h-.08a42.31,42.31,0,0,1-4-9.85c-1.46-5.44-9.92-3.14-8.45,2.33a51.35,51.35,0,0,0,5.47,12.75,7.54,7.54,0,0,0-.33,2.19,7.43,7.43,0,0,0,7.43,7.43H250a38.18,38.18,0,0,0,7.35,5.92,7.61,7.61,0,0,0,13.3,5.05,40,40,0,0,0,16.38-.56C292.55,358.15,290.23,349.7,284.74,351Z" transform="translate(-154.05 -247)"/></g><g id="Mask-2" data-name="Mask"><rect class="cls-5" x="75.53" y="11.97" width="68.83" height="65.51" rx="25.45"/><path class="cls-1" d="M294.85,286.68a47.31,47.31,0,0,1-19.65,38.38c-.29.21-.59.43-.89.63a14.18,14.18,0,0,1-14.11,1.11,47.36,47.36,0,0,1-26.8-39c0-.37,0-.74,0-1.11A14.14,14.14,0,0,1,239.5,275,47.26,47.26,0,0,1,265,266.7l1.29,0a46.76,46.76,0,0,1,5,.27,47.26,47.26,0,0,1,15.38,4.35,14.14,14.14,0,0,1,8,11.67C294.81,284.21,294.85,285.44,294.85,286.68Z" transform="translate(-154.05 -247)"/><path class="cls-5" d="M275.2,325.06c-.29.21-.59.43-.89.63a14.11,14.11,0,0,1-5.93,2.33,83.69,83.69,0,0,0,4.17-30.08A85,85,0,0,0,265,266.7l1.29,0a46.76,46.76,0,0,1,5,.27,89.51,89.51,0,0,1,3.88,58.11Z" transform="translate(-154.05 -247)"/></g><g id="Face_copy_3" data-name="Face copy 3"><ellipse class="cls-5" cx="270.47" cy="317.74" rx="9.61" ry="5.22" transform="translate(-228.23 -164.47) rotate(-15.28)"/><path class="cls-5" d="M250.58,271.77l-6.89-1.8-.63,2.41a15.31,15.31,0,0,0-3.85,2.35,20.11,20.11,0,0,0-6.39,10.4c-1.6,6.13-.4,12.17,2.72,16.13l-.62,2.4,6.89,1.8c7.39,1.93,15.34-4.06,17.77-13.37a20.69,20.69,0,0,0,.63-3.75C260.85,280.45,257,273.43,250.58,271.77Z" transform="translate(-154.05 -247)"/><path class="cls-5" d="M260.21,288.34l-13.06-3.4-6.89-1.79-3-.79,2-7.63a15.31,15.31,0,0,1,3.85-2.35l.63-2.41,6.89,1.8C257,273.43,260.85,280.45,260.21,288.34Z" transform="translate(-154.05 -247)"/><path class="cls-1" d="M252.69,290.3c-1.92,7.36-7.3,12.64-13.12,13.58a10.93,10.93,0,0,1-3.74,0,5.89,5.89,0,0,1-.91-.19,11.09,11.09,0,0,1-3.74-1.76,14.47,14.47,0,0,1-5.32-8.17,20.45,20.45,0,0,1,.07-10.39c1.78-6.86,6.57-11.91,11.92-13.33h0a11.51,11.51,0,0,1,5.83,0,11.18,11.18,0,0,1,3,1.27,12.54,12.54,0,0,1,3.8,3.64,15.37,15.37,0,0,1,1.87,3.71A20.3,20.3,0,0,1,252.69,290.3Z" transform="translate(-154.05 -247)"/><path class="cls-5" d="M296.44,287.36a27.82,27.82,0,0,0-1.25-5.12c-.26-.77-.56-1.52-.87-2.24a28.44,28.44,0,0,0-1.3-2.59l-3-8.72-6.22,2.15c-3.58,1.24-4.5,8-2.15,15.35.06.22.13.43.21.65,2.6,7.56,7.7,12.66,11.38,11.4l6.22-2.15Z" transform="translate(-154.05 -247)"/><path class="cls-5" d="M294.32,280l-.36.17L288,283.08l-6.37,3.11c-2.35-7.32-1.43-14.11,2.15-15.35l6.22-2.15,3,8.72A28.44,28.44,0,0,1,294.32,280Z" transform="translate(-154.05 -247)"/><ellipse class="cls-1" cx="294.66" cy="282.42" rx="7.06" ry="14.49" transform="translate(-229.98 -135.59) rotate(-19.01)"/><path class="cls-1" d="M292.23,334.07l-3.2-9.61c-2.14-6.4-10.45-9.4-18.55-6.69s-12.94,10.09-10.8,16.5l3.21,9.6,6.45-2.15a19,19,0,0,0,16.45-5.5Z" transform="translate(-154.05 -247)"/><ellipse class="cls-5" cx="277.51" cy="338.82" rx="15.47" ry="12.23" transform="translate(-247.1 -141.62) rotate(-18.47)"/><path class="cls-5" d="M249.12,289.37c-1.4,5.4-5.35,9.27-9.62,10a8.4,8.4,0,0,1-2.74,0,5.32,5.32,0,0,1-.67-.14,8.13,8.13,0,0,1-2.74-1.29,10.59,10.59,0,0,1-3.9-6,14.92,14.92,0,0,1,.05-7.62c1.31-5,4.81-8.74,8.74-9.77h0a8.18,8.18,0,0,1,4.28,0,8.33,8.33,0,0,1,2.19.92,9.33,9.33,0,0,1,2.79,2.67,11.83,11.83,0,0,1,1.37,2.73A14.79,14.79,0,0,1,249.12,289.37Z" transform="translate(-154.05 -247)"/><ellipse class="cls-5" cx="294.85" cy="282.42" rx="5" ry="10.26" transform="translate(-229.97 -135.53) rotate(-19.01)"/><ellipse class="cls-1" cx="277.51" cy="338.82" rx="9.71" ry="7.67" transform="translate(-247.1 -141.62) rotate(-18.47)"/></g><path id="Flap-2" data-name="Flap" class="cls-5" d="M241.18,301.27A45.77,45.77,0,0,0,208,285.87l20.31,49.35,14.49-5.5Z" transform="translate(-154.05 -247)"/><path class="cls-5" d="M245.3,328.41c-3.13-4.86-8.5-5.87-13.54-3.55a34.65,34.65,0,0,0-15,13.86,9.5,9.5,0,0,0-1.29,4.56c-.08.17-.17.33-.24.5-2.44,5.85-2.81,12-2.21,18.16l-.93.15,1.44,8.76a10.14,10.14,0,0,0,20-3.29l-1.44-8.76-1.37.22c0-.84-.06-1.74,0-2.76,0-.6.05-1.19.09-1.79a2.85,2.85,0,0,1,0-.31c0-.06,0-.13.06-.25.14-.67.28-1.34.47-2l.17-.52a9.37,9.37,0,0,0,2.34-2.68c.46-.77,1.14-1.52,1.53-2.32l-.22.44a3.86,3.86,0,0,1,.44-.58c.44-.48.91-.94,1.39-1.38.22-.21,1-.75,1-.8.26-.18.52-.37.8-.54a27,27,0,0,1,3-1.57C246.47,339.78,248,332.61,245.3,328.41Z" transform="translate(-154.05 -247)"/><path class="cls-5" d="M235.18,346.83c-.33.52-.44.87,0,0Z" transform="translate(-154.05 -247)"/></g><g id="Enemy_copy_4" data-name="Enemy copy 4"><path class="cls-5" d="M217.27,426.86A5.3,5.3,0,0,0,214,422a4.71,4.71,0,0,0-.75-.25h0v-2.58a5.28,5.28,0,0,0-1.7-3.88V404.71H194.62v10.47a5.26,5.26,0,0,0-1.8,4v10.91a3.11,3.11,0,0,0,.9,2.18,3.07,3.07,0,0,0,2.18.9H212a5.33,5.33,0,0,0,5.31-5.31Z" transform="translate(-154.05 -247)"/><path class="cls-5" d="M245.54,426.86a5.29,5.29,0,0,0-3.28-4.89,5,5,0,0,0-.74-.25h0v-2.58a5.29,5.29,0,0,0-1.71-3.88V404.71H222.89v10.47a5.3,5.3,0,0,0-1.8,4v10.91a3.08,3.08,0,0,0,.91,2.18,3,3,0,0,0,2.17.9h16.06a5.33,5.33,0,0,0,5.31-5.31Z" transform="translate(-154.05 -247)"/><g id="Collar_copy_5" data-name="Collar copy 5"><path class="cls-6" d="M278,333.32l-41,55.87-39.78-.9q-17.1-29.21-34.21-58.42c3.79-4,23.08-23.33,53.93-24.13C252.94,304.8,275.11,329.93,278,333.32Z" transform="translate(-154.05 -247)"/></g><path class="cls-5" d="M271.26,400.14l-8.16-3.51-.54,1.26c-.63-.35-1.28-.74-2-1.17-.08-.05-1.15-.8-1.34-.9s-.48-.4-.71-.61a22.21,22.21,0,0,1-1.63-1.59l-.47-.59a11.66,11.66,0,0,0-1.17-3.8c-.1-.19-.19-.39-.28-.58l-.23-.63c-.27-1.12-.65-2.2-.86-3.34,0-.62-.07-1.23-.07-1.85s.34-4.27-.08-1.15c.7-5.11-1.23-10.88-6.91-12.18-4.65-1.06-11.43,1.43-12.18,6.92a37.64,37.64,0,0,0,3.52,22.81,8.32,8.32,0,0,0,2.93,3.19c.31.45.62.89.95,1.32a38.2,38.2,0,0,0,13.4,10.62l-.38.91,8.15,3.5a10.13,10.13,0,0,0,13.32-5.31h0A10.13,10.13,0,0,0,271.26,400.14Zm-17.36-15.5h0C253.77,383.93,253.78,383.94,253.9,384.64Z" transform="translate(-154.05 -247)"/><g id="Layer_21_copy_5" data-name="Layer 21 copy 5"><path class="cls-5" d="M241.08,384v20c0,.09,0,.19,0,.29-.2,1.66-2.14,3.19-5.25,4.4-4.42,1.74-11.22,2.84-18.86,2.84a69.82,69.82,0,0,1-11.31-.88h0a37.53,37.53,0,0,1-7.91-2.11c-3.07-1.26-4.89-2.83-4.89-4.54V384a13.05,13.05,0,0,1,3.19-8.57,12.64,12.64,0,0,1,4.19-3.16,12.79,12.79,0,0,1,1.78-.68,12.51,12.51,0,0,1,3.48-.5h23a12.45,12.45,0,0,1,9.17,4,11.93,11.93,0,0,1,1,1.3,12.74,12.74,0,0,1,2.12,4.83A13.07,13.07,0,0,1,241.08,384Z" transform="translate(-154.05 -247)"/><path class="cls-7" d="M239.74,395a30.15,30.15,0,0,1-13,.34,7.61,7.61,0,0,0-6.73-4,7.72,7.72,0,0,0-2.55.44,31.08,31.08,0,0,1-5.41-4.1,7.54,7.54,0,0,0,.29-2,7.43,7.43,0,0,0-7.43-7.42h-.08a42.31,42.31,0,0,1-4-9.85c-1.46-5.44-9.92-3.14-8.45,2.33a51.35,51.35,0,0,0,5.47,12.75,7.54,7.54,0,0,0-.33,2.19,7.43,7.43,0,0,0,7.43,7.43H205a38.18,38.18,0,0,0,7.35,5.92,7.61,7.61,0,0,0,13.3,5.05,40,40,0,0,0,16.38-.56C247.55,402.15,245.23,393.7,239.74,395Z" transform="translate(-154.05 -247)"/></g><g id="Mask-3" data-name="Mask"><rect class="cls-5" x="30.53" y="55.97" width="68.83" height="65.51" rx="25.45"/><path class="cls-1" d="M249.85,330.68a47.31,47.31,0,0,1-19.65,38.38c-.29.21-.59.43-.89.63a14.18,14.18,0,0,1-14.11,1.11,47.36,47.36,0,0,1-26.8-39c0-.37,0-.74,0-1.11A14.14,14.14,0,0,1,194.5,319,47.26,47.26,0,0,1,220,310.7l1.29,0a46.76,46.76,0,0,1,5,.27,47.26,47.26,0,0,1,15.38,4.35,14.14,14.14,0,0,1,8,11.67C249.81,328.21,249.85,329.44,249.85,330.68Z" transform="translate(-154.05 -247)"/><path class="cls-5" d="M230.2,369.06c-.29.21-.59.43-.89.63a14.11,14.11,0,0,1-5.93,2.33,83.69,83.69,0,0,0,4.17-30.08A85,85,0,0,0,220,310.7l1.29,0a46.76,46.76,0,0,1,5,.27,89.51,89.51,0,0,1,3.88,58.11Z" transform="translate(-154.05 -247)"/></g><g id="Face_copy_6" data-name="Face copy 6"><ellipse class="cls-5" cx="225.47" cy="361.74" rx="9.61" ry="5.22" transform="translate(-241.42 -174.78) rotate(-15.28)"/><path class="cls-5" d="M205.58,315.77l-6.89-1.8-.63,2.41a15.31,15.31,0,0,0-3.85,2.35,20.11,20.11,0,0,0-6.39,10.4c-1.6,6.13-.4,12.17,2.72,16.13l-.62,2.4,6.89,1.8c7.39,1.93,15.34-4.06,17.77-13.37a20.69,20.69,0,0,0,.63-3.75C215.85,324.45,212,317.43,205.58,315.77Z" transform="translate(-154.05 -247)"/><path class="cls-5" d="M215.21,332.34l-13.06-3.4-6.89-1.79-3-.79,2-7.63a15.31,15.31,0,0,1,3.85-2.35l.63-2.41,6.89,1.8C212,317.43,215.85,324.45,215.21,332.34Z" transform="translate(-154.05 -247)"/><path class="cls-1" d="M207.69,334.3c-1.92,7.36-7.3,12.64-13.12,13.58a10.93,10.93,0,0,1-3.74,0,5.89,5.89,0,0,1-.91-.19,11.09,11.09,0,0,1-3.74-1.76,14.47,14.47,0,0,1-5.32-8.17,20.45,20.45,0,0,1,.07-10.39c1.78-6.86,6.57-11.91,11.92-13.33h0a11.51,11.51,0,0,1,5.83,0,11.18,11.18,0,0,1,3,1.27,12.54,12.54,0,0,1,3.8,3.64,15.37,15.37,0,0,1,1.87,3.71A20.3,20.3,0,0,1,207.69,334.3Z" transform="translate(-154.05 -247)"/><path class="cls-5" d="M251.44,331.36a27.82,27.82,0,0,0-1.25-5.12c-.26-.77-.56-1.52-.87-2.24a28.44,28.44,0,0,0-1.3-2.59l-3-8.72-6.22,2.15c-3.58,1.24-4.5,8-2.15,15.35.06.22.13.43.21.65,2.6,7.56,7.7,12.66,11.38,11.4l6.22-2.15Z" transform="translate(-154.05 -247)"/><path class="cls-5" d="M249.32,324l-.36.17-6,2.91-6.37,3.11c-2.35-7.32-1.43-14.11,2.15-15.35l6.22-2.15,3,8.72A28.44,28.44,0,0,1,249.32,324Z" transform="translate(-154.05 -247)"/><ellipse class="cls-1" cx="249.66" cy="326.42" rx="7.06" ry="14.49" transform="translate(-246.77 -147.85) rotate(-19.01)"/><path class="cls-1" d="M247.23,378.07l-3.2-9.61c-2.14-6.4-10.45-9.4-18.55-6.69s-12.94,10.09-10.8,16.5l3.21,9.6,6.45-2.15a19,19,0,0,0,16.45-5.5Z" transform="translate(-154.05 -247)"/><ellipse class="cls-5" cx="232.51" cy="382.82" rx="15.47" ry="12.23" transform="translate(-263.36 -153.61) rotate(-18.47)"/><path class="cls-5" d="M204.12,333.37c-1.4,5.4-5.35,9.27-9.62,10a8.4,8.4,0,0,1-2.74,0,5.32,5.32,0,0,1-.67-.14,8.13,8.13,0,0,1-2.74-1.29,10.59,10.59,0,0,1-3.9-6,14.92,14.92,0,0,1,.05-7.62c1.31-5,4.81-8.74,8.74-9.77h0a8.18,8.18,0,0,1,4.28,0,8.33,8.33,0,0,1,2.19.92,9.33,9.33,0,0,1,2.79,2.67,11.83,11.83,0,0,1,1.37,2.73A14.79,14.79,0,0,1,204.12,333.37Z" transform="translate(-154.05 -247)"/><ellipse class="cls-5" cx="249.85" cy="326.42" rx="5" ry="10.26" transform="translate(-246.76 -147.79) rotate(-19.01)"/><ellipse class="cls-1" cx="232.51" cy="382.82" rx="9.71" ry="7.67" transform="translate(-263.36 -153.61) rotate(-18.47)"/></g><path id="Flap-3" data-name="Flap" class="cls-5" d="M196.18,345.27A45.77,45.77,0,0,0,163,329.87l20.31,49.35,14.49-5.5Z" transform="translate(-154.05 -247)"/><path class="cls-5" d="M200.3,372.41c-3.13-4.86-8.5-5.87-13.54-3.55a34.65,34.65,0,0,0-15,13.86,9.5,9.5,0,0,0-1.29,4.56c-.08.17-.17.33-.24.5-2.44,5.85-2.81,12-2.21,18.16l-.93.15,1.44,8.76a10.14,10.14,0,0,0,20-3.29l-1.44-8.76-1.37.22c0-.84-.06-1.74,0-2.76,0-.6.05-1.19.09-1.79a2.85,2.85,0,0,1,0-.31c0-.06,0-.13.06-.25.14-.67.28-1.34.47-2l.17-.52a9.37,9.37,0,0,0,2.34-2.68c.46-.77,1.14-1.52,1.53-2.32l-.22.44a3.86,3.86,0,0,1,.44-.58c.44-.48.91-.94,1.39-1.38.22-.21,1-.75,1-.8.26-.18.52-.37.8-.54a27,27,0,0,1,3-1.57C201.47,383.78,203,376.61,200.3,372.41Z" transform="translate(-154.05 -247)"/><path class="cls-5" d="M190.18,390.83c-.33.52-.44.87,0,0Z" transform="translate(-154.05 -247)"/></g><g id="Enemy_copy_2" data-name="Enemy copy 2"><path class="cls-5" d="M390.73,427.86A5.3,5.3,0,0,1,394,423a4.71,4.71,0,0,1,.75-.25h0v-2.58a5.28,5.28,0,0,1,1.7-3.88V405.71h16.92v10.47a5.26,5.26,0,0,1,1.8,4v10.91a3.11,3.11,0,0,1-.9,2.18,3.07,3.07,0,0,1-2.18.9H396a5.33,5.33,0,0,1-5.31-5.31Z" transform="translate(-154.05 -247)"/><path class="cls-5" d="M362.46,427.86a5.29,5.29,0,0,1,3.28-4.89,5,5,0,0,1,.74-.25h0v-2.58a5.29,5.29,0,0,1,1.71-3.88V405.71h16.92v10.47a5.3,5.3,0,0,1,1.8,4v10.91a3.08,3.08,0,0,1-.91,2.18,3,3,0,0,1-2.17.9H367.77a5.33,5.33,0,0,1-5.31-5.31Z" transform="translate(-154.05 -247)"/><g id="Collar_copy_3" data-name="Collar copy 3"><path class="cls-6" d="M330,334.32l41,55.87,39.78-.9q17.1-29.21,34.21-58.42c-3.79-4-23.08-23.33-53.93-24.13C355.06,305.8,332.89,330.93,330,334.32Z" transform="translate(-154.05 -247)"/></g><path class="cls-5" d="M336.74,401.14l8.16-3.51.54,1.26c.63-.35,1.28-.74,2-1.17.08-.05,1.15-.8,1.34-.9s.48-.4.71-.61a22.21,22.21,0,0,0,1.63-1.59l.47-.59a11.66,11.66,0,0,1,1.17-3.8c.1-.19.19-.39.28-.58l.23-.63c.27-1.12.65-2.2.86-3.34,0-.62.07-1.23.07-1.85s-.34-4.27.08-1.15c-.7-5.11,1.23-10.88,6.91-12.18,4.65-1.06,11.43,1.43,12.18,6.92a37.64,37.64,0,0,1-3.52,22.81,8.32,8.32,0,0,1-2.93,3.19c-.31.45-.62.89-.95,1.32a38.2,38.2,0,0,1-13.4,10.62l.38.91-8.15,3.5a10.13,10.13,0,0,1-13.32-5.31h0A10.13,10.13,0,0,1,336.74,401.14Zm17.36-15.5h0C354.23,384.93,354.22,384.94,354.1,385.64Z" transform="translate(-154.05 -247)"/><g id="Layer_21_copy_3" data-name="Layer 21 copy 3"><path class="cls-5" d="M366.92,385v20c0,.09,0,.19,0,.29.2,1.66,2.14,3.19,5.25,4.4,4.42,1.74,11.22,2.84,18.86,2.84a69.82,69.82,0,0,0,11.31-.88h0a37.53,37.53,0,0,0,7.91-2.11c3.07-1.26,4.89-2.83,4.89-4.54V385a13.05,13.05,0,0,0-3.19-8.57,12.64,12.64,0,0,0-4.19-3.16,12.79,12.79,0,0,0-1.78-.68,12.51,12.51,0,0,0-3.48-.5h-23a12.45,12.45,0,0,0-9.17,4,11.93,11.93,0,0,0-1.05,1.3,12.74,12.74,0,0,0-2.12,4.83A13.07,13.07,0,0,0,366.92,385Z" transform="translate(-154.05 -247)"/><path class="cls-7" d="M368.26,396a30.15,30.15,0,0,0,13,.34,7.61,7.61,0,0,1,6.73-4,7.72,7.72,0,0,1,2.55.44,31.08,31.08,0,0,0,5.41-4.1,7.54,7.54,0,0,1-.29-2,7.43,7.43,0,0,1,7.43-7.42h.08a42.31,42.31,0,0,0,4-9.85c1.46-5.44,9.92-3.14,8.45,2.33a51.35,51.35,0,0,1-5.47,12.75,7.54,7.54,0,0,1,.33,2.19,7.43,7.43,0,0,1-7.43,7.43H403a38.18,38.18,0,0,1-7.35,5.92,7.61,7.61,0,0,1-13.3,5.05,40,40,0,0,1-16.38-.56C360.45,403.15,362.77,394.7,368.26,396Z" transform="translate(-154.05 -247)"/></g><g id="Mask-4" data-name="Mask"><rect class="cls-5" x="354.59" y="303.97" width="68.83" height="65.51" rx="25.45" transform="translate(623.97 426.46) rotate(-180)"/><path class="cls-1" d="M358.15,331.68a47.31,47.31,0,0,0,19.65,38.38c.29.21.59.43.89.63a14.18,14.18,0,0,0,14.11,1.11,47.36,47.36,0,0,0,26.8-39c0-.37,0-.74,0-1.11A14.14,14.14,0,0,0,413.5,320,47.26,47.26,0,0,0,388,311.7l-1.29,0a46.76,46.76,0,0,0-5,.27,47.26,47.26,0,0,0-15.38,4.35,14.14,14.14,0,0,0-8,11.67C358.19,329.21,358.15,330.44,358.15,331.68Z" transform="translate(-154.05 -247)"/><path class="cls-5" d="M377.8,370.06c.29.21.59.43.89.63a14.11,14.11,0,0,0,5.93,2.33,83.69,83.69,0,0,1-4.17-30.08A85,85,0,0,1,388,311.7l-1.29,0a46.76,46.76,0,0,0-5,.27,89.51,89.51,0,0,0-3.88,58.11Z" transform="translate(-154.05 -247)"/></g><g id="Face_copy_4" data-name="Face copy 4"><ellipse class="cls-5" cx="382.53" cy="362.74" rx="5.22" ry="9.61" transform="translate(-222.26 389.13) rotate(-74.72)"/><path class="cls-5" d="M402.42,316.77l6.89-1.8.63,2.41a15.31,15.31,0,0,1,3.85,2.35,20.11,20.11,0,0,1,6.39,10.4c1.6,6.13.4,12.17-2.72,16.13l.62,2.4-6.89,1.8c-7.39,1.93-15.34-4.06-17.77-13.37a20.69,20.69,0,0,1-.63-3.75C392.15,325.45,396,318.43,402.42,316.77Z" transform="translate(-154.05 -247)"/><path class="cls-5" d="M392.79,333.34l13.06-3.4,6.89-1.79,3-.79-2-7.63a15.31,15.31,0,0,0-3.85-2.35l-.63-2.41-6.89,1.8C396,318.43,392.15,325.45,392.79,333.34Z" transform="translate(-154.05 -247)"/><path class="cls-1" d="M400.31,335.3c1.92,7.36,7.3,12.64,13.12,13.58a10.93,10.93,0,0,0,3.74,0,5.89,5.89,0,0,0,.91-.19,11.09,11.09,0,0,0,3.74-1.76,14.47,14.47,0,0,0,5.32-8.17,20.45,20.45,0,0,0-.07-10.39c-1.78-6.86-6.57-11.91-11.92-13.33h0a11.51,11.51,0,0,0-5.83,0,11.18,11.18,0,0,0-3,1.27,12.54,12.54,0,0,0-3.8,3.64,15.37,15.37,0,0,0-1.87,3.71A20.3,20.3,0,0,0,400.31,335.3Z" transform="translate(-154.05 -247)"/><path class="cls-5" d="M356.56,332.36a27.82,27.82,0,0,1,1.25-5.12c.26-.77.56-1.52.87-2.24a28.44,28.44,0,0,1,1.3-2.59l3-8.72,6.22,2.15c3.58,1.24,4.5,8,2.15,15.35-.06.22-.13.43-.21.65-2.6,7.56-7.7,12.66-11.38,11.4l-6.22-2.15Z" transform="translate(-154.05 -247)"/><path class="cls-5" d="M358.68,325l.36.17,5.95,2.91,6.37,3.11c2.35-7.32,1.43-14.11-2.15-15.35L363,313.69l-3,8.72A28.44,28.44,0,0,0,358.68,325Z" transform="translate(-154.05 -247)"/><ellipse class="cls-1" cx="358.34" cy="327.42" rx="14.49" ry="7.06" transform="translate(-222.01 312.54) rotate(-70.99)"/><path class="cls-1" d="M360.77,379.07l3.2-9.61c2.14-6.4,10.45-9.4,18.55-6.69s12.94,10.09,10.8,16.5l-3.21,9.6-6.45-2.15a19,19,0,0,1-16.45-5.5Z" transform="translate(-154.05 -247)"/><ellipse class="cls-5" cx="375.49" cy="383.82" rx="12.23" ry="15.47" transform="translate(-261.57 371.35) rotate(-71.53)"/><path class="cls-5" d="M403.88,334.37c1.4,5.4,5.35,9.27,9.62,10a8.4,8.4,0,0,0,2.74,0,5.32,5.32,0,0,0,.67-.14,8.13,8.13,0,0,0,2.74-1.29,10.59,10.59,0,0,0,3.9-6,14.92,14.92,0,0,0-.05-7.62c-1.31-5-4.81-8.74-8.74-9.77h0a8.18,8.18,0,0,0-4.28,0,8.33,8.33,0,0,0-2.19.92,9.33,9.33,0,0,0-2.79,2.67,11.83,11.83,0,0,0-1.37,2.73A14.79,14.79,0,0,0,403.88,334.37Z" transform="translate(-154.05 -247)"/><ellipse class="cls-5" cx="358.15" cy="327.42" rx="10.26" ry="5" transform="translate(-222.14 312.35) rotate(-70.99)"/><ellipse class="cls-1" cx="375.49" cy="383.82" rx="7.67" ry="9.71" transform="translate(-261.57 371.35) rotate(-71.53)"/></g><path id="Flap-4" data-name="Flap" class="cls-5" d="M411.82,346.27A45.77,45.77,0,0,1,445,330.87l-20.31,49.35-14.49-5.5Z" transform="translate(-154.05 -247)"/><path class="cls-5" d="M407.7,373.41c3.13-4.86,8.5-5.87,13.54-3.55a34.65,34.65,0,0,1,15,13.86,9.5,9.5,0,0,1,1.29,4.56c.08.17.17.33.24.5,2.44,5.85,2.81,12,2.21,18.16l.93.15-1.44,8.76a10.14,10.14,0,0,1-20-3.29l1.44-8.76,1.37.22c0-.84.06-1.74,0-2.76,0-.6,0-1.19-.09-1.79a2.85,2.85,0,0,0,0-.31c0-.06,0-.13-.06-.25-.14-.67-.28-1.34-.47-2l-.17-.52a9.37,9.37,0,0,1-2.34-2.68c-.46-.77-1.14-1.52-1.53-2.32l.22.44a3.86,3.86,0,0,0-.44-.58c-.44-.48-.91-.94-1.39-1.38-.22-.21-.95-.75-1-.8-.26-.18-.52-.37-.8-.54a27,27,0,0,0-3-1.57C406.53,384.78,405,377.61,407.7,373.41Z" transform="translate(-154.05 -247)"/><path class="cls-5" d="M417.82,391.83c.33.52.44.87,0,0Z" transform="translate(-154.05 -247)"/></g><g id="playerref_copy_10" data-name="playerref copy 10"><path class="cls-5" d="M337.14,323.42c0,7.41-4.41,13.42-9.84,13.42H257.08V310H327.3a8.08,8.08,0,0,1,5.49,2.28C335.41,314.69,337.14,318.78,337.14,323.42Z" transform="translate(-154.05 -247)"/><path class="cls-5" d="M266.92,323.42c0,5.69-2.6,10.55-6.27,12.5a7.53,7.53,0,0,1-3.57.92,7.34,7.34,0,0,1-1.63-.19c-4.66-1.06-8.22-6.58-8.22-13.23,0-7.41,4.41-13.42,9.85-13.42H327.3a8.08,8.08,0,0,1,5.49,2.28H262.56C265.19,314.69,266.92,318.78,266.92,323.42Z" transform="translate(-154.05 -247)"/><ellipse class="cls-1" cx="103.03" cy="76.42" rx="7.85" ry="10.71"/><path class="cls-5" d="M261.88,327.86a4.15,4.15,0,0,1-4.55,1.75c-1.79-.62-2.91-2.65-3-5s2.84-2.38,2.92,0a1.24,1.24,0,0,0,1.8,1.26,2.67,2.67,0,0,0,1.25-2.64c-.12-2.47-2-4-3.79-3.6s-3.35,2.17-3.8,4.49c-1,5.1,2.7,9.75,6.53,9.81,1,0,1.43,1,1.4,1.95a7.53,7.53,0,0,1-3.57.92,7.34,7.34,0,0,1-1.63-.19,10.81,10.81,0,0,1-4.73-5.64c-1.47-3.79-1.41-8.35.75-11.7,2-3.18,5.92-4.51,8.79-2.37S264.33,324.54,261.88,327.86Z" transform="translate(-154.05 -247)"/><rect class="cls-5" x="93.9" y="89.66" width="77.49" height="94.59" rx="9.77"/><rect class="cls-6" x="110.44" y="89.66" width="77.49" height="94.59" rx="12"/><rect class="cls-1" x="93.83" y="139.55" width="14.42" height="27.12" rx="4.26"/><rect class="cls-5" x="89.77" y="139.55" width="14.42" height="27.12" rx="4.26"/><g id="RightFoot"><path class="cls-5" d="M332.6,426.2l1.53,19.12a4.48,4.48,0,0,1-.5,2.49,4.68,4.68,0,0,1-3.74,2.5l-4.9.39a4.66,4.66,0,0,1-4.09-1.87,4.54,4.54,0,0,1-.89-2.38l-1.54-19.11Z" transform="translate(-154.05 -247)"/><path class="cls-5" d="M337.93,443l.24,3a3.54,3.54,0,0,1-.17,1.42,3.6,3.6,0,0,1-3.12,2.45l-10.93.87a3.59,3.59,0,0,1-3.86-3.29l-.53-6.59,14.51-1.17A3.61,3.61,0,0,1,337.93,443Z" transform="translate(-154.05 -247)"/><path class="cls-5" d="M338,447.46a3.6,3.6,0,0,1-3.12,2.45l-10.93.87a3.59,3.59,0,0,1-3.46-1.91Z" transform="translate(-154.05 -247)"/></g><g id="RightFoot-2" data-name="RightFoot"><path class="cls-5" d="M308.15,427.2l-2.55,19a4.65,4.65,0,0,1-5.21,4l-4.86-.65a4.66,4.66,0,0,1-3.61-2.7,4.52,4.52,0,0,1-.37-2.51l2.55-19Z" transform="translate(-154.05 -247)"/><path class="cls-5" d="M309.8,444.77l-.41,3a3.57,3.57,0,0,1-4,3.08l-10.87-1.46a3.61,3.61,0,0,1-3-2.61,3.79,3.79,0,0,1-.1-1.43l.88-6.55,14.43,1.93A3.61,3.61,0,0,1,309.8,444.77Z" transform="translate(-154.05 -247)"/><path class="cls-5" d="M308.93,449.12a3.64,3.64,0,0,1-3.57,1.73l-10.87-1.46a3.61,3.61,0,0,1-3-2.61Z" transform="translate(-154.05 -247)"/></g><g id="RightArm"><path class="cls-5" d="M337.66,395.81c5.78,3,11.34,7,14.32,12.95,3.3,6.56,3.23,13.75,2.38,20.86-.37,3-4,4.9-6.79,4.26-3.26-.74-4.63-3.74-4.27-6.79a36,36,0,0,0,.16-7.7,16.77,16.77,0,0,0-1.43-5.24c-2.09-3.85-5.39-6.12-9.74-8.36-6.49-3.34-1.12-13.32,5.37-10Z" transform="translate(-154.05 -247)"/></g><g id="Body"><ellipse class="cls-6" cx="159.96" cy="116.59" rx="50.17" ry="41.1"/><path class="cls-5" d="M334.45,413.67c-3.95,4.43-11.88,5.92-11.88,5.92h0l-.1-3.18a14.2,14.2,0,0,0,7.91-7.72,14,14,0,0,0,.29-9.36l-9.68,4-.1-1.54h0c.16-.28,3.49-5.75,9.29-5.63a8.16,8.16,0,0,1,5.5,2C339.26,401.72,338.15,409.51,334.45,413.67Z" transform="translate(-154.05 -247)"/><path class="cls-5" d="M331.3,409v15.48a2,2,0,0,1,0,.23c-.15,1.29-1.65,2.47-4.07,3.41-3.42,1.34-8.7,2.2-14.62,2.2a54.49,54.49,0,0,1-8.76-.68h0a28.54,28.54,0,0,1-6.13-1.63c-2.38-1-3.79-2.19-3.79-3.52V409a10,10,0,0,1,5.72-9.1,10.33,10.33,0,0,1,1.38-.52,9.56,9.56,0,0,1,2.69-.39H321.5a9.65,9.65,0,0,1,7.11,3.13,8.82,8.82,0,0,1,.82,1,9.91,9.91,0,0,1,1.65,3.75A10.51,10.51,0,0,1,331.3,409Z" transform="translate(-154.05 -247)"/><path class="cls-1" d="M331.3,408.25v16a1.94,1.94,0,0,1,0,.24c-.15,1.34-1.65,2.56-4.06,3.53-3.44,1.39-8.71,2.28-14.63,2.28a52.13,52.13,0,0,1-8.76-.71h0a28.35,28.35,0,0,1-6.13-1.68c-2.38-1-3.79-2.28-3.79-3.66v-16a11.06,11.06,0,0,1,.72-3.93,59.14,59.14,0,0,0,22.52,4.36,60,60,0,0,0,14.1-1.65A9.87,9.87,0,0,1,331.3,408.25Z" transform="translate(-154.05 -247)"/></g><path class="cls-5" d="M310.32,407.33v24a58.47,58.47,0,0,1-7.29-.69h0a31.8,31.8,0,0,1-6.69-1.74c-2.59-1-4.14-2.34-4.14-3.76V408.57a10.63,10.63,0,0,1,2.7-7.09,2.39,2.39,0,0,1,.22-.23c-1.66-2.39.15-6.52,3.5-5.3l12.63,4.6C315,401.93,313.78,407.63,310.32,407.33Z" transform="translate(-154.05 -247)"/><path class="cls-5" d="M332.76,406.31a11.25,11.25,0,0,1,.24,2.26V425.1a1.94,1.94,0,0,1,0,.24c-.17,1.38-1.81,2.64-4.44,3.65a30.67,30.67,0,0,1-4.68,1.31V407.09a3.22,3.22,0,0,1-2.94-1.62c-.86-1.48-.45-3.89,1.22-4.66l6-2.74a3.42,3.42,0,0,1,3.74,5.71A10.85,10.85,0,0,1,332.76,406.31Z" transform="translate(-154.05 -247)"/><path class="cls-5" d="M306.07,398.69c-1.54-2.33-4.38-3.57-8-3.57H283.84c-3.63,0-6.47,1.24-8,3.57-2.94,4.43,1.68,11.48,2.12,12.15s4.56,6.75,11.52,7.28a10.65,10.65,0,0,0,1.48,0,10.5,10.5,0,0,0,1.47,0c7-.53,11.17-6.73,11.53-7.28S309,403.12,306.07,398.69Zm-8.21,8.48a14,14,0,0,1-6.91,7.29,13.62,13.62,0,0,1-7.21-16.64l7.21-.08,7.21.08A13.89,13.89,0,0,1,297.86,407.17Z" transform="translate(-154.05 -247)"/><path class="cls-5" d="M348.71,371.7a19.8,19.8,0,0,0,5.45,2,9.42,9.42,0,0,1-9.89,5.19,8.93,8.93,0,0,1-3.33-1.21v-14.1a9.11,9.11,0,0,0-.08-1.18c0-.25-.07-.49-.12-.73a47.89,47.89,0,0,0-7.61-4c-.83-.34-1.68-.65-2.53-.94s-1.5-.47-2.27-.68l-.56-.15a41.2,41.2,0,0,0-9.49-1.49l-1.36,0c-.42,0-.83,0-1.24,0s-.73,0-1.1,0a32.83,32.83,0,0,0-9.11,1.65,27,27,0,0,0-3.43,1.43,31,31,0,0,0-7.21,4.9c-.76.7-1.49,1.43-2.2,2.2h0c0,.12,0,.24,0,.36v17a4,4,0,0,1-4,4h-.28a3.94,3.94,0,0,1-1.79-.57,3.54,3.54,0,0,1-1-.84h0a4,4,0,0,1-.93-2.54V371.69l.1,0v-2.28l-.1,0v.28a6.26,6.26,0,0,0-1.31-.14,6.13,6.13,0,0,0-1.78.26,6.6,6.6,0,0,1-1.25-2.15c-2.82-7.91-1.21-17.26,6.07-22.12,6-4,13.69-3.94,20.31-1.4a43.77,43.77,0,0,1,10-1.06,56.29,56.29,0,0,1,23.38,5.33,27.8,27.8,0,0,0,6.71-1.73,28.59,28.59,0,0,0,7.53-4.4,14.33,14.33,0,0,1-2,15.54,24.56,24.56,0,0,0,4.48-1.88,12.31,12.31,0,0,1-5.18,13.77,11.37,11.37,0,0,1-3.84,1.48Z" transform="translate(-154.05 -247)"/><path class="cls-5" d="M340.94,363.59v22.68a9.36,9.36,0,0,1-9.36,9.35H300.43l-.6,0c-.11,0-.23,0-.34,0s-.47,0-.71-.08l-.85-.13-.68-.15-.34-.08-.33-.09-.44-.14c-.25-.07-.5-.16-.75-.25l-.69-.27-.44-.2a4.59,4.59,0,0,1-.5-.24l-.19-.09c-.46-.24-.9-.49-1.33-.77l-.37-.25c-.17-.11-.33-.23-.49-.35l-.53-.41-.06,0-.38-.32-.09-.08,0,0a1.18,1.18,0,0,1-.21-.18c-.17-.16-.35-.32-.51-.49s-.39-.39-.58-.6-.35-.4-.52-.61-.33-.41-.49-.62a2.83,2.83,0,0,1-.2-.28,14.83,14.83,0,0,1-.81-1.25,17.73,17.73,0,0,1-.82-1.63c-.1-.24-.2-.49-.29-.74a6.32,6.32,0,0,1-.22-.61,3.54,3.54,0,0,0,1,.84,3.94,3.94,0,0,0,1.79.57h.28a4,4,0,0,0,4-4V365c0-.12,0-.24,0-.36h0c.71-.77,1.44-1.5,2.2-2.2a31,31,0,0,1,7.21-4.9,27,27,0,0,1,3.43-1.43,32.83,32.83,0,0,1,9.11-1.65c.37,0,.73,0,1.1,0s.82,0,1.24,0l1.36,0a41.2,41.2,0,0,1,9.49,1.49l.56.15c.77.21,1.52.43,2.27.68s1.7.6,2.53.94a47.89,47.89,0,0,1,7.61,4c.05.24.09.48.12.73A9.11,9.11,0,0,1,340.94,363.59Z" transform="translate(-154.05 -247)"/><path class="cls-5" d="M340.94,381.86v4.41a9.36,9.36,0,0,1-9.36,9.35H301a16.11,16.11,0,0,1-12-5.32c6.88-8.44,18.19-13.95,31-13.95A41.84,41.84,0,0,1,340.94,381.86Z" transform="translate(-154.05 -247)"/><path class="cls-1" d="M328.33,356.09,308.17,378l-14.6,15.85c-.46-.24-.9-.49-1.33-.77l-.37-.25c-.17-.11-.33-.23-.49-.35l-.53-.41-.06,0-.38-.32-.09-.08,0,0a1.18,1.18,0,0,1-.21-.18c-.17-.16-.35-.32-.51-.49s-.39-.39-.58-.6-.35-.4-.52-.61-.33-.41-.49-.62a2.83,2.83,0,0,1-.2-.28,14.83,14.83,0,0,1-.81-1.25,17.73,17.73,0,0,1-.82-1.63c-.1-.24-.2-.49-.29-.74a6.32,6.32,0,0,1-.22-.61,3.54,3.54,0,0,0,1,.84,3.94,3.94,0,0,0,1.79.57h.28a4,4,0,0,0,4-4V365c0-.12,0-.24,0-.36h0c.71-.77,1.44-1.5,2.2-2.2a31,31,0,0,1,7.21-4.9,27,27,0,0,1,3.43-1.43,32.83,32.83,0,0,1,9.11-1.65c.37,0,.73,0,1.1,0s.82,0,1.24,0l1.36,0a41.2,41.2,0,0,1,9.49,1.49Z" transform="translate(-154.05 -247)"/><path class="cls-5" d="M288.4,386,287,387.54a17.73,17.73,0,0,1-.82-1.63l.46-.51A3.94,3.94,0,0,0,288.4,386Z" transform="translate(-154.05 -247)"/><path class="cls-5" d="M316.92,354.42l-24.27,26.84v-2.54l18.62-20.59,3.31-3.66c.37,0,.73,0,1.1,0S316.5,354.41,316.92,354.42Z" transform="translate(-154.05 -247)"/><path class="cls-5" d="M284.83,383a6.15,6.15,0,0,1-1.43.17,6.66,6.66,0,0,1-6.52-6.8,6.76,6.76,0,0,1,4.74-6.54,6.13,6.13,0,0,1,1.78-.26,6.26,6.26,0,0,1,1.31.14l.1,0v2l-.1,0V382A3.83,3.83,0,0,0,284.83,383Z" transform="translate(-154.05 -247)"/><path class="cls-5" d="M350,343.9h0c-.34,1.61-2,3.55-4.62,5.5l.06-.11a9.44,9.44,0,0,0,.45-1.22,11.6,11.6,0,0,0-1.15-8.71h0a15.83,15.83,0,0,0-6.79-6.58,25.33,25.33,0,0,1-.51,5.52c-.09.5-.22,1-.36,1.56-.18-.55-.39-1.09-.62-1.62l-.12-.26a17.76,17.76,0,0,0-2.32-3.7,16.9,16.9,0,0,0-6.84-5.11,33.52,33.52,0,0,1,.89,9,30.77,30.77,0,0,1-.54,4.57l-.06.32a26.58,26.58,0,0,1-.91,3.3,18.13,18.13,0,0,0-.07-2.44,14.43,14.43,0,0,0-.2-1.47,15.34,15.34,0,0,0-1.3-4.15,12.13,12.13,0,0,0-.91-1.57c-.1.45-.21,1-.38,1.65a33.43,33.43,0,0,1-3.57,8.9c-.18.31-.37.61-.56.89s-.28.45-.43.66a18.16,18.16,0,0,1-5.91,5.67,36.11,36.11,0,0,1-11.38,1.64,36.56,36.56,0,0,1-10.94-1.88h0c-2.65-1.47-4.23-3.08-4.22-4.6,0-2.81,5.53-5.14,11.22-6.81l-.13-.09c1.19-.49,8.13-3.47,10.08-10.6a14.17,14.17,0,0,0,.49-4.3,11.54,11.54,0,0,1,6.18,6.28,22.34,22.34,0,0,0,3.27-4.69,22.91,22.91,0,0,0,2.21-6.51,20.34,20.34,0,0,1,3.91,3.77l0-.22a23,23,0,0,0-.59-6.85c6,1.35,10.55,5.1,12.53,9.6a19.6,19.6,0,0,0,.5-3.32,22.12,22.12,0,0,0-1.13-8.51c9.32,1,16.47,8.35,17,17A16.91,16.91,0,0,1,350,343.9Z" transform="translate(-154.05 -247)"/><path class="cls-5" d="M343.92,359.38c-3.53,1.93-8,.91-9.63-2.91h0a16.3,16.3,0,0,1-3,0,57,57,0,0,1-14.11,2.79c-10,.63-20.51-1.83-26.19-5a36.56,36.56,0,0,0,10.94,1.88,36.11,36.11,0,0,0,11.38-1.64,18.16,18.16,0,0,0,5.91-5.67c.15-.21.29-.43.43-.66s.38-.58.56-.89a33.43,33.43,0,0,0,3.57-8.9c.17-.64.28-1.2.38-1.65a12.13,12.13,0,0,1,.91,1.57,15.34,15.34,0,0,1,1.3,4.15,14.43,14.43,0,0,1,.2,1.47,18.13,18.13,0,0,1,.07,2.44,26.58,26.58,0,0,0,.91-3.3l.06-.32a30.77,30.77,0,0,0,.54-4.57,33.52,33.52,0,0,0-.89-9,16.9,16.9,0,0,1,6.84,5.11,17.76,17.76,0,0,1,2.32,3.7c0,.09-.05.17-.08.25h.2c.23.53.44,1.07.62,1.62.14-.54.27-1.06.36-1.56a25.33,25.33,0,0,0,.51-5.52,15.83,15.83,0,0,1,6.79,6.58h0a11.6,11.6,0,0,1,1.15,8.71,9.44,9.44,0,0,1-.45,1.22l-.06.11a11.12,11.12,0,0,1-2.91,3.72,22.93,22.93,0,0,0,7.09-4.42A11.87,11.87,0,0,1,343.92,359.38Z" transform="translate(-154.05 -247)"/><path class="cls-5" d="M310.78,388.2a42.57,42.57,0,0,1,14.89.33c2.14.42,3.06-2.86.91-3.28a47.39,47.39,0,0,0-16.71-.33c-2.15.34-1.24,3.62.91,3.28Z" transform="translate(-154.05 -247)"/><path class="cls-5" d="M338.8,375.81a10.68,10.68,0,0,1-.13,1.6h0c0,.21-.07.41-.12.6-.67,2.94-2.66,5.08-5,5.15h-.12c-3,0-5.38-3.3-5.38-7.36s2.41-7.37,5.38-7.37a3.89,3.89,0,0,1,1.77.43C337.29,369.86,338.8,372.6,338.8,375.81Z" transform="translate(-154.05 -247)"/><path class="cls-1" d="M333.48,372.42a5.57,5.57,0,0,1-.13,1.16h0c0,.15-.07.3-.12.44a5.38,5.38,0,0,1-5,3.76h-.12a5.39,5.39,0,1,1,0-10.77,5.19,5.19,0,0,1,1.77.31A5.38,5.38,0,0,1,333.48,372.42Z" transform="translate(-154.05 -247)"/><path class="cls-5" d="M329.64,365.32l11.26,3.39c3.69,1.11,5.27-4.65,1.59-5.76l-11.26-3.39c-3.69-1.11-5.27,4.65-1.59,5.76Z" transform="translate(-154.05 -247)"/><g id="LeftArm"><path class="cls-5" d="M291.32,399.73c-6,3.1-11.42,7.09-14.55,13.19-3.28,6.38-3.21,13.6-2.38,20.56.37,3,3.78,5,6.64,4.5a5.77,5.77,0,0,0,4.5-6.63c-.52-4.34-.78-9.23,1.23-13.24,1.92-3.84,5.79-6.24,9.48-8.16,6.46-3.35,1.58-13.59-4.92-10.22Z" transform="translate(-154.05 -247)"/><path class="cls-5" d="M290.83,398.71A27.67,27.67,0,0,0,278,408.79c-2,2.91-1.4,7.51,1.69,9.47a6.93,6.93,0,0,0,9.47-1.68c.45-.64.93-1.25,1.43-1.85-1,1.21.29-.23.45-.38.4-.37.82-.72,1.25-1.06.15-.11,1.37-1,.54-.44.44-.28.9-.52,1.36-.76a24.51,24.51,0,0,1,2.58-1.12c3.35-1.23,4.8-6.06,3.18-9.08-1.88-3.51-5.5-4.49-9.08-3.18Z" transform="translate(-154.05 -247)"/></g></g></g></svg>