<svg xmlns="http://www.w3.org/2000/svg" viewBox="0 0 299.83 365.39"><defs><style>.cls-1,.cls-6,.cls-8{fill:#6b6eb3;}.cls-2{fill:none;stroke-width:6px;stroke-dasharray:29.41 29.41;}.cls-2,.cls-5,.cls-6,.cls-8{stroke:#343961;stroke-linecap:round;}.cls-2,.cls-3,.cls-5,.cls-6,.cls-8{stroke-miterlimit:10;}.cls-3{fill:#f15a29;stroke:#ef4136;stroke-width:7px;}.cls-4{fill:#fff;}.cls-5,.cls-7{fill:#343961;}.cls-5,.cls-6{stroke-width:4px;}.cls-8{stroke-width:2px;}</style></defs><title>PopupSpike</title><g id="SpikeTrap"><rect class="cls-1" x="3" y="3" width="293.83" height="359.39" rx="41.51"/><rect class="cls-2" x="3" y="3" width="293.83" height="359.39" rx="41.51"/><rect class="cls-3" x="26.17" y="252.89" width="251.96" height="83.74" rx="25.53"/><path class="cls-4" d="M255.76,558.45H244.88l-4.67-12.24h-3.1v12.24h-9.82v-32H244c3.69,0,6.55.87,8.59,2.59a8.53,8.53,0,0,1,3.06,6.84,10.25,10.25,0,0,1-1.13,4.88A9.43,9.43,0,0,1,250,544.5Zm-18.65-19.08h4.19a5.13,5.13,0,0,0,3-.78,2.57,2.57,0,0,0,1.13-2.27q0-3.08-3.78-3.07h-4.52Z" transform="translate(-154.05 -247)"/><path class="cls-4" d="M289.28,550.8v7.65H265.21v-32h24.07v7.39H274.84v4.64h11.67v7.1H274.84v5.22Z" transform="translate(-154.05 -247)"/><path class="cls-4" d="M311.12,534.12v24.33h-9.31V534.12h-6.63v-7.67h22.57v7.67Z" transform="translate(-154.05 -247)"/><path class="cls-4" d="M353.81,558.45H342.93l-4.68-12.24h-3.09v12.24h-9.82v-32h16.71c3.69,0,6.55.87,8.59,2.59a8.53,8.53,0,0,1,3.06,6.84,10.25,10.25,0,0,1-1.13,4.88A9.42,9.42,0,0,1,348,544.5Zm-18.65-19.08h4.19a5.13,5.13,0,0,0,3-.78,2.57,2.57,0,0,0,1.12-2.27c0-2.05-1.25-3.07-3.77-3.07h-4.52Z" transform="translate(-154.05 -247)"/><path class="cls-4" d="M388.85,526.45l-10,18.45v13.55H369.3V544.9l-10.76-18.45h10.74L374.89,537l5.38-10.55Z" transform="translate(-154.05 -247)"/><path class="cls-4" d="M231.94,447.35a2.68,2.68,0,0,1,.91-1,2.17,2.17,0,0,1,1.13-.32,2.38,2.38,0,0,1,1,.21,3.24,3.24,0,0,1,.85.54,2.55,2.55,0,0,1,.6.78,2.06,2.06,0,0,1,.23.93,2.55,2.55,0,0,1-.42,1.32l-4,6.39v5.31a2.28,2.28,0,0,1-.74,1.83,2.55,2.55,0,0,1-1.72.63,2.62,2.62,0,0,1-1.76-.63,2.27,2.27,0,0,1-.73-1.83v-5.31l-4-6.39a2.55,2.55,0,0,1-.42-1.32,2,2,0,0,1,.22-.93,2.55,2.55,0,0,1,.6-.78,3.29,3.29,0,0,1,.86-.54,2.38,2.38,0,0,1,1-.21,2.14,2.14,0,0,1,1.12.32,2.7,2.7,0,0,1,.92,1l2.19,3.75Z" transform="translate(-154.05 -247)"/><path class="cls-4" d="M236.62,455a9,9,0,0,1,.72-3.57,9.34,9.34,0,0,1,1.95-2.92,9.07,9.07,0,0,1,2.91-2,9.21,9.21,0,0,1,7.14,0,9.24,9.24,0,0,1,4.89,4.89,9.21,9.21,0,0,1,0,7.14,9.07,9.07,0,0,1-2,2.91,9.34,9.34,0,0,1-2.92,1.95,9.21,9.21,0,0,1-7.14,0,9,9,0,0,1-4.86-4.86A9,9,0,0,1,236.62,455Zm5,.06a4.08,4.08,0,0,0,4.14,4.14,4.22,4.22,0,0,0,1.63-.31,3.89,3.89,0,0,0,1.32-.89,4.45,4.45,0,0,0,.89-1.32A4,4,0,0,0,250,455a4.06,4.06,0,0,0-.33-1.63,4.17,4.17,0,0,0-2.21-2.21,4.06,4.06,0,0,0-1.63-.33,4,4,0,0,0-1.62.33,4.45,4.45,0,0,0-1.32.89,3.89,3.89,0,0,0-.89,1.32A4.22,4.22,0,0,0,241.66,455Z" transform="translate(-154.05 -247)"/><path class="cls-4" d="M271.12,456.11q0,7.89-7.2,7.89t-7.32-7.89v-7.56a2.27,2.27,0,0,1,.73-1.83,2.72,2.72,0,0,1,3.48,0,2.28,2.28,0,0,1,.74,1.83v8.31q0,2.22,2.31,2.22t2.31-2.22v-8.31a2.27,2.27,0,0,1,.73-1.83,2.72,2.72,0,0,1,3.48,0,2.28,2.28,0,0,1,.74,1.83Z" transform="translate(-154.05 -247)"/><path class="cls-4" d="M292,458.27q0,5.73-5.58,5.73h-4.92a2.11,2.11,0,0,1-2.37-2.4v-.09q.06-2.49,2.4-2.49h5.16a.92.92,0,0,0,.75-.28,1,1,0,0,0,.24-.62.91.91,0,0,0-1-.9h-2.55q-5.28,0-5.28-5.43,0-5.73,5.64-5.73h4a2.11,2.11,0,0,1,2.37,2.4v.09q-.06,2.49-2.4,2.49H284.2a.91.91,0,0,0-1,.9,1,1,0,0,0,.24.62.92.92,0,0,0,.75.28h2.55Q292,452.84,292,458.27Z" transform="translate(-154.05 -247)"/><path class="cls-4" d="M302.5,461.51a2.28,2.28,0,0,1-.74,1.83,2.72,2.72,0,0,1-3.48,0,2.27,2.27,0,0,1-.73-1.83V451h-1.74a2.33,2.33,0,0,1-1.83-.73,2.66,2.66,0,0,1,0-3.51,2.34,2.34,0,0,1,1.83-.74h8.37a2.34,2.34,0,0,1,1.83.74,2.66,2.66,0,0,1,0,3.51,2.33,2.33,0,0,1-1.83.73H302.5Z" transform="translate(-154.05 -247)"/><path class="cls-4" d="M310.66,464a2.19,2.19,0,0,1-2.46-2.49v-13a2.19,2.19,0,0,1,2.46-2.49h8.4a2.34,2.34,0,0,1,1.83.74,2.66,2.66,0,0,1,0,3.51,2.33,2.33,0,0,1-1.83.73h-5.94v1.5h4.74a2.34,2.34,0,0,1,1.83.74,2.66,2.66,0,0,1,0,3.51,2.33,2.33,0,0,1-1.83.73h-4.74V459h5.94a2.34,2.34,0,0,1,1.83.74,2.66,2.66,0,0,1,0,3.51,2.33,2.33,0,0,1-1.83.73Z" transform="translate(-154.05 -247)"/><path class="cls-4" d="M328.15,461.45a2.23,2.23,0,0,1-2.49,2.55,2.49,2.49,0,0,1-1.88-.64,2.58,2.58,0,0,1-.61-1.85v-13q0-2.49,2.4-2.49h5a7.22,7.22,0,0,1,2.8.5,5.6,5.6,0,0,1,1.95,1.3,5.3,5.3,0,0,1,1.14,1.85,6.14,6.14,0,0,1,.38,2.11,6.52,6.52,0,0,1-.35,2.1,5.52,5.52,0,0,1-1,1.82,5.26,5.26,0,0,1-1.65,1.29,4.85,4.85,0,0,1-2.23.49h-.81q-2.25,0-2.25-2a1.85,1.85,0,0,1,.27-1.09,1.74,1.74,0,0,1,.69-.57,3.36,3.36,0,0,1,.9-.27,5.93,5.93,0,0,0,.9-.21,2,2,0,0,0,.72-.41,1.16,1.16,0,0,0,.33-.84q0-1.35-1.56-1.35h-2.67Z" transform="translate(-154.05 -247)"/><path class="cls-4" d="M343.21,461.45a2.23,2.23,0,0,1-2.49,2.55,2.49,2.49,0,0,1-1.88-.64,2.58,2.58,0,0,1-.61-1.85v-13q0-2.49,2.4-2.49h5a7.22,7.22,0,0,1,2.8.5,5.6,5.6,0,0,1,1.95,1.3,5.3,5.3,0,0,1,1.14,1.85,6.14,6.14,0,0,1,.38,2.11,6.52,6.52,0,0,1-.35,2.1,5.52,5.52,0,0,1-1,1.82,5.26,5.26,0,0,1-1.65,1.29,4.85,4.85,0,0,1-2.23.49h-.81q-2.25,0-2.25-2a1.85,1.85,0,0,1,.27-1.09,1.74,1.74,0,0,1,.69-.57,3.36,3.36,0,0,1,.9-.27,5.93,5.93,0,0,0,.9-.21,2,2,0,0,0,.72-.41,1.16,1.16,0,0,0,.33-.84q0-1.35-1.56-1.35h-2.67Z" transform="translate(-154.05 -247)"/><path class="cls-4" d="M355.72,464a2.19,2.19,0,0,1-2.46-2.49v-13a2.19,2.19,0,0,1,2.46-2.49h8.4a2.34,2.34,0,0,1,1.83.74,2.66,2.66,0,0,1,0,3.51,2.33,2.33,0,0,1-1.83.73h-5.94v1.5h4.74a2.34,2.34,0,0,1,1.83.74,2.66,2.66,0,0,1,0,3.51,2.33,2.33,0,0,1-1.83.73h-4.74V459h5.94a2.34,2.34,0,0,1,1.83.74,2.66,2.66,0,0,1,0,3.51,2.33,2.33,0,0,1-1.83.73Z" transform="translate(-154.05 -247)"/><path class="cls-4" d="M368.62,448.55a2,2,0,0,1,.22-.93,2.71,2.71,0,0,1,.6-.79,3.16,3.16,0,0,1,.84-.56,2.23,2.23,0,0,1,.92-.21h2.4a9.9,9.9,0,0,1,4.08.78,8.46,8.46,0,0,1,2.89,2.07,8.81,8.81,0,0,1,1.74,2.91,9.74,9.74,0,0,1,.59,3.33,9.86,9.86,0,0,1-.56,3.27,8.08,8.08,0,0,1-1.68,2.82,8.59,8.59,0,0,1-2.79,2A9.2,9.2,0,0,1,374,464H371.2a2.61,2.61,0,0,1-1.88-.67,2.4,2.4,0,0,1-.7-1.82ZM374,459a3.86,3.86,0,0,0,1.72-.36,4,4,0,0,0,1.25-.93,3.77,3.77,0,0,0,.76-1.3,4.62,4.62,0,0,0,.26-1.52,4.26,4.26,0,0,0-.24-1.41,3.35,3.35,0,0,0-.74-1.21,3.75,3.75,0,0,0-1.26-.86,4.45,4.45,0,0,0-1.78-.33h-.42V459Z" transform="translate(-154.05 -247)"/><path class="cls-4" d="M206.06,479a9,9,0,0,1,.72-3.57,9.34,9.34,0,0,1,1.95-2.92,9.07,9.07,0,0,1,2.91-2,9.21,9.21,0,0,1,7.14,0,9.15,9.15,0,0,1,4.89,4.89,9.16,9.16,0,0,1-2,10.05,9.39,9.39,0,0,1-2.93,1.95,9.21,9.21,0,0,1-7.14,0,9,9,0,0,1-4.86-4.86A9,9,0,0,1,206.06,479Zm5,.06a4.14,4.14,0,0,0,.32,1.62,4.11,4.11,0,0,0,2.2,2.21,4.14,4.14,0,0,0,1.62.31,4.27,4.27,0,0,0,1.64-.31,3.89,3.89,0,0,0,1.32-.89,4.42,4.42,0,0,0,.88-1.32,4,4,0,0,0,.33-1.62,4.06,4.06,0,0,0-.33-1.63,4.11,4.11,0,0,0-2.2-2.21,4.11,4.11,0,0,0-1.64-.33,4,4,0,0,0-1.62.33,4.45,4.45,0,0,0-1.32.89,3.87,3.87,0,0,0-.88,1.32A4.23,4.23,0,0,0,211.1,479Z" transform="translate(-154.05 -247)"/><path class="cls-4" d="M231.08,485.51a2.27,2.27,0,0,1-.73,1.83,2.62,2.62,0,0,1-1.76.63,2.55,2.55,0,0,1-1.72-.63,2.28,2.28,0,0,1-.74-1.83v-13a2.28,2.28,0,0,1,.74-1.83,2.55,2.55,0,0,1,1.72-.63h.12a2,2,0,0,1,1.89,1.11l4.5,6.81v-5.46a2.28,2.28,0,0,1,.74-1.83,2.55,2.55,0,0,1,1.72-.63,2.62,2.62,0,0,1,1.76.63,2.27,2.27,0,0,1,.73,1.83v13a2.27,2.27,0,0,1-.73,1.83,2.62,2.62,0,0,1-1.76.63,2.77,2.77,0,0,1-.87-.12,2.31,2.31,0,0,1-.61-.3,2.15,2.15,0,0,1-.41-.36l-.24-.3-4.35-6.48Z" transform="translate(-154.05 -247)"/><path class="cls-4" d="M258.47,484.52h-5.31l-.75,1.92a2.45,2.45,0,0,1-.91,1.22,2.33,2.33,0,0,1-1.28.37,2.86,2.86,0,0,1-1-.16,2.92,2.92,0,0,1-.86-.48,2.39,2.39,0,0,1-.61-.74,2,2,0,0,1-.23-1,2.31,2.31,0,0,1,.21-1l5.91-13.05a2.88,2.88,0,0,1,1.05-1.26,2.49,2.49,0,0,1,1.35-.42,2.43,2.43,0,0,1,1.34.42,2.56,2.56,0,0,1,1,1.26l5.43,13.05a2.31,2.31,0,0,1,.21,1,2,2,0,0,1-.22.95,2.35,2.35,0,0,1-.62.75,2.85,2.85,0,0,1-.87.48,2.93,2.93,0,0,1-1,.16,2.39,2.39,0,0,1-1.29-.37,2.28,2.28,0,0,1-.9-1.22Zm-3.75-3.9h2.4L256,477.41Z" transform="translate(-154.05 -247)"/><path class="cls-4" d="M284.54,482.27q0,5.73-5.58,5.73H274a2.11,2.11,0,0,1-2.37-2.4v-.09q.06-2.49,2.4-2.49h5.16a.92.92,0,0,0,.75-.28,1,1,0,0,0,.24-.62.91.91,0,0,0-1-.9h-2.55q-5.28,0-5.28-5.43,0-5.73,5.64-5.73h4a2.11,2.11,0,0,1,2.37,2.4v.09Q283.31,475,281,475h-4.26a.91.91,0,0,0-1,.9,1,1,0,0,0,.24.62.92.92,0,0,0,.75.28h2.55Q284.54,476.84,284.54,482.27Z" transform="translate(-154.05 -247)"/><path class="cls-4" d="M291.38,485.45a2.23,2.23,0,0,1-2.49,2.55,2.46,2.46,0,0,1-1.87-.64,2.58,2.58,0,0,1-.62-1.85v-13q0-2.49,2.4-2.49h5a7.27,7.27,0,0,1,2.81.5,5.6,5.6,0,0,1,2,1.3,5.3,5.3,0,0,1,1.14,1.85,6.13,6.13,0,0,1,.37,2.11,6.51,6.51,0,0,1-.34,2.1,5.52,5.52,0,0,1-1,1.82A5.26,5.26,0,0,1,297.1,481a4.89,4.89,0,0,1-2.24.49h-.81q-2.25,0-2.25-2a1.85,1.85,0,0,1,.27-1.09,1.74,1.74,0,0,1,.69-.57,3.36,3.36,0,0,1,.9-.27,5.93,5.93,0,0,0,.9-.21,2,2,0,0,0,.72-.41,1.16,1.16,0,0,0,.33-.84q0-1.35-1.56-1.35h-2.67Z" transform="translate(-154.05 -247)"/><path class="cls-4" d="M306.35,485.51a2.27,2.27,0,0,1-.73,1.83,2.72,2.72,0,0,1-3.48,0,2.28,2.28,0,0,1-.74-1.83v-13a2.28,2.28,0,0,1,.74-1.83,2.72,2.72,0,0,1,3.48,0,2.27,2.27,0,0,1,.73,1.83Z" transform="translate(-154.05 -247)"/><path class="cls-4" d="M313.37,485.51a2.27,2.27,0,0,1-.73,1.83,2.72,2.72,0,0,1-3.48,0,2.28,2.28,0,0,1-.74-1.83v-13a2.28,2.28,0,0,1,.74-1.83,2.72,2.72,0,0,1,3.48,0,2.27,2.27,0,0,1,.73,1.83v4.11l4-5.73a3.38,3.38,0,0,1,.87-.69,2.2,2.2,0,0,1,1.05-.24,2.37,2.37,0,0,1,1,.21,3.07,3.07,0,0,1,.82.54,2.43,2.43,0,0,1,.57.8,2.29,2.29,0,0,1-.36,2.47l-4.38,4.92,4.38,5a2.31,2.31,0,0,1,.6,1.56,2.11,2.11,0,0,1-.22,1,2.68,2.68,0,0,1-.59.78,3.07,3.07,0,0,1-.82.54,2.3,2.3,0,0,1-1,.21,2.39,2.39,0,0,1-1.92-1l-4.05-5.64Z" transform="translate(-154.05 -247)"/><path class="cls-4" d="M326,488a2.19,2.19,0,0,1-2.46-2.49v-13a2.19,2.19,0,0,1,2.46-2.49h8.4a2.34,2.34,0,0,1,1.83.74,2.66,2.66,0,0,1,0,3.51,2.33,2.33,0,0,1-1.83.73h-5.94v1.5h4.74a2.34,2.34,0,0,1,1.83.74,2.66,2.66,0,0,1,0,3.51,2.33,2.33,0,0,1-1.83.73h-4.74V483h5.94a2.34,2.34,0,0,1,1.83.74,2.66,2.66,0,0,1,0,3.51,2.33,2.33,0,0,1-1.83.73Z" transform="translate(-154.05 -247)"/><path class="cls-4" d="M353.51,485.51a2.27,2.27,0,0,1-.73,1.83A2.62,2.62,0,0,1,351,488a2.55,2.55,0,0,1-1.72-.63,2.28,2.28,0,0,1-.74-1.83V475h-1.74a2.33,2.33,0,0,1-1.83-.73,2.66,2.66,0,0,1,0-3.51,2.34,2.34,0,0,1,1.83-.74h8.37a2.34,2.34,0,0,1,1.83.74,2.66,2.66,0,0,1,0,3.51,2.33,2.33,0,0,1-1.83.73h-1.68Z" transform="translate(-154.05 -247)"/><path class="cls-4" d="M365.39,481.67a3.59,3.59,0,0,1-.75-2.16,1.85,1.85,0,0,1,.27-1.09,1.74,1.74,0,0,1,.69-.57,3.36,3.36,0,0,1,.9-.27,5.93,5.93,0,0,0,.9-.21,2,2,0,0,0,.72-.41,1.16,1.16,0,0,0,.33-.84q0-1.35-1.56-1.35h-2.67v10.68a2.23,2.23,0,0,1-2.49,2.55,2.46,2.46,0,0,1-1.87-.64,2.58,2.58,0,0,1-.62-1.85v-13q0-2.49,2.4-2.49H367a7.27,7.27,0,0,1,2.72.47,5.48,5.48,0,0,1,1.9,1.23,4.88,4.88,0,0,1,1.11,1.74,5.77,5.77,0,0,1-.4,4.87,4.86,4.86,0,0,1-2.27,2l2.13,3.39a3,3,0,0,1,.48,1.59,2.52,2.52,0,0,1-.21,1,2.84,2.84,0,0,1-.55.84,2.46,2.46,0,0,1-.8.56,2.31,2.31,0,0,1-.93.19,2,2,0,0,1-1.06-.31,2.68,2.68,0,0,1-.92-1Z" transform="translate(-154.05 -247)"/><path class="cls-4" d="M385.31,484.52H380l-.75,1.92a2.41,2.41,0,0,1-.92,1.22,2.27,2.27,0,0,1-1.27.37,2.92,2.92,0,0,1-1-.16,2.87,2.87,0,0,1-.85-.48,2.39,2.39,0,0,1-.61-.74,1.9,1.9,0,0,1-.23-1,2.31,2.31,0,0,1,.21-1l5.91-13.05a2.88,2.88,0,0,1,1.05-1.26,2.49,2.49,0,0,1,1.35-.42,2.45,2.45,0,0,1,1.34.42,2.62,2.62,0,0,1,1,1.26l5.43,13.05a2.31,2.31,0,0,1,.21,1,1.94,1.94,0,0,1-.23.95,2.2,2.2,0,0,1-.61.75,2.85,2.85,0,0,1-.87.48,2.93,2.93,0,0,1-1,.16,2.39,2.39,0,0,1-1.29-.37,2.28,2.28,0,0,1-.9-1.22Zm-3.75-3.9H384l-1.11-3.21Z" transform="translate(-154.05 -247)"/><path class="cls-4" d="M397.43,485.45a2.23,2.23,0,0,1-2.49,2.55,2.45,2.45,0,0,1-1.87-.64,2.58,2.58,0,0,1-.62-1.85v-13q0-2.49,2.4-2.49h5a7.27,7.27,0,0,1,2.81.5,5.6,5.6,0,0,1,1.95,1.3,5.3,5.3,0,0,1,1.14,1.85,6.13,6.13,0,0,1,.37,2.11,6.79,6.79,0,0,1-.34,2.1,5.54,5.54,0,0,1-1,1.82,5.22,5.22,0,0,1-1.64,1.29,4.89,4.89,0,0,1-2.24.49h-.81q-2.25,0-2.25-2a1.85,1.85,0,0,1,.27-1.09,1.74,1.74,0,0,1,.69-.57,3.36,3.36,0,0,1,.9-.27,5.93,5.93,0,0,0,.9-.21,2,2,0,0,0,.72-.41,1.16,1.16,0,0,0,.33-.84q0-1.35-1.56-1.35h-2.67Z" transform="translate(-154.05 -247)"/><path class="cls-4" d="M405.86,487.13a2.48,2.48,0,0,1-.19.95,2.79,2.79,0,0,1-.54.78,2.69,2.69,0,0,1-.8.54,2.52,2.52,0,0,1-1.92,0,2.62,2.62,0,0,1-1.33-1.32,2.31,2.31,0,0,1-.2-.95,2.53,2.53,0,0,1,2.49-2.49,2.43,2.43,0,0,1,1.76.74A2.38,2.38,0,0,1,405.86,487.13Z" transform="translate(-154.05 -247)"/><rect class="cls-5" x="85.95" y="177" width="132" height="16" rx="5.17"/><rect class="cls-6" x="85.95" y="166" width="132" height="20" rx="5.17"/><polygon class="cls-6" points="152.3 133.72 139.65 172 164.95 172 152.3 133.72"/><g id="playerref_copy_9" data-name="playerref copy 9"><path class="cls-7" d="M325.89,294.81c0,5.64-3.36,10.22-7.5,10.22H264.91V284.59h53.48a6.22,6.22,0,0,1,4.19,1.73A11.61,11.61,0,0,1,325.89,294.81Z" transform="translate(-154.05 -247)"/><path class="cls-7" d="M272.41,294.81c0,4.33-2,8-4.77,9.52a5.74,5.74,0,0,1-2.73.7,5.05,5.05,0,0,1-1.23-.15c-3.56-.8-6.26-5-6.26-10.07,0-5.64,3.35-10.22,7.49-10.22h53.48a6.22,6.22,0,0,1,4.19,1.73H269.09A11.59,11.59,0,0,1,272.41,294.81Z" transform="translate(-154.05 -247)"/><ellipse class="cls-1" cx="110.87" cy="47.81" rx="5.98" ry="8.15"/><path class="cls-7" d="M268.58,298.19a3.18,3.18,0,0,1-3.48,1.33,4,4,0,0,1-2.27-3.77c-.06-1.83,2.16-1.82,2.22,0,0,.93.75,1.25,1.37.95a2,2,0,0,0,1-2c-.1-1.89-1.49-3-2.89-2.75a4.09,4.09,0,0,0-2.89,3.42c-.74,3.88,2,7.42,5,7.48.73,0,1.09.75,1.07,1.48a5.74,5.74,0,0,1-2.73.7,5.05,5.05,0,0,1-1.23-.15,8.19,8.19,0,0,1-3.61-4.29,10.09,10.09,0,0,1,.57-8.91c1.56-2.42,4.52-3.43,6.7-1.81A6.45,6.45,0,0,1,268.58,298.19Z" transform="translate(-154.05 -247)"/><rect class="cls-7" x="103.92" y="57.89" width="59.02" height="72.03" rx="9.77"/><rect class="cls-8" x="116.51" y="57.89" width="59.02" height="72.03" rx="12"/><rect class="cls-1" x="103.86" y="95.89" width="10.98" height="20.65" rx="4.26"/><rect class="cls-7" x="100.77" y="95.89" width="10.98" height="20.65" rx="4.26"/><g id="RightFoot"><path class="cls-7" d="M320.46,370.34,331,380.48a3.56,3.56,0,0,1,.09,5l-2.6,2.69a3.53,3.53,0,0,1-5,.09L313,378.11Z" transform="translate(-154.05 -247)"/><path class="cls-7" d="M332,377.26l1.66,1.6a2.71,2.71,0,0,1,.61.9,2.74,2.74,0,0,1-.54,3l-5.8,6a2.77,2.77,0,0,1-3,.66,2.83,2.83,0,0,1-.92-.59l-3.62-3.5,7.69-8A2.75,2.75,0,0,1,332,377.26Z" transform="translate(-154.05 -247)"/><path class="cls-7" d="M334.25,379.76a2.74,2.74,0,0,1-.54,3l-5.8,6a2.77,2.77,0,0,1-3,.66Z" transform="translate(-154.05 -247)"/></g><g id="RightFoot-2" data-name="RightFoot"><path class="cls-7" d="M301.05,377l-10.74,9.89a3.54,3.54,0,0,1-5-.2L282.79,384a3.53,3.53,0,0,1,.21-5l10.75-9.89Z" transform="translate(-154.05 -247)"/><path class="cls-7" d="M293.47,388.12l-1.7,1.56a2.71,2.71,0,0,1-3.86-.16l-5.66-6.14a2.74,2.74,0,0,1-.47-3,2.69,2.69,0,0,1,.63-.88l3.71-3.41,7.51,8.15A2.75,2.75,0,0,1,293.47,388.12Z" transform="translate(-154.05 -247)"/><path class="cls-7" d="M290.84,390.25a2.75,2.75,0,0,1-2.93-.73l-5.66-6.14a2.74,2.74,0,0,1-.47-3Z" transform="translate(-154.05 -247)"/></g><g id="RightArm"><path class="cls-7" d="M324.89,349.15c4.76-1.32,10-1.91,14.7-.12,5.22,2,8.89,6,12.08,10.47,1.36,1.89.26,4.82-1.61,5.89-2.21,1.25-4.52.28-5.89-1.62a27.91,27.91,0,0,0-3.88-4.39,13,13,0,0,0-3.5-2.21c-3.16-1.08-6.18-.65-9.77.34-5.37,1.48-7.5-6.89-2.13-8.36Z" transform="translate(-154.05 -247)"/></g><g id="Body"><ellipse class="cls-8" cx="154.23" cy="78.4" rx="38.21" ry="31.3"/><path class="cls-7" d="M323.84,363.54c-3,3.38-9,4.51-9,4.51h0l-.08-2.42a10.84,10.84,0,0,0,6-5.88,10.61,10.61,0,0,0,.22-7.13l-7.37,3-.08-1.17h0c.13-.22,2.66-4.38,7.08-4.29a6.16,6.16,0,0,1,4.18,1.54C327.5,354.44,326.65,360.37,323.84,363.54Z" transform="translate(-154.05 -247)"/><path class="cls-7" d="M321.44,360v11.79a1,1,0,0,1,0,.17c-.12,1-1.26,1.89-3.1,2.6a32.59,32.59,0,0,1-11.14,1.67,41.3,41.3,0,0,1-6.67-.51h0a21.21,21.21,0,0,1-4.66-1.24c-1.82-.74-2.89-1.67-2.89-2.68V360a7.7,7.7,0,0,1,1.88-5.06A7.45,7.45,0,0,1,297.3,353a6.39,6.39,0,0,1,1.06-.39,6.92,6.92,0,0,1,2.05-.3H314a7.33,7.33,0,0,1,5.41,2.38,6.61,6.61,0,0,1,.63.77,7.62,7.62,0,0,1,1.25,2.85A8,8,0,0,1,321.44,360Z" transform="translate(-154.05 -247)"/><path class="cls-1" d="M321.44,359.41V371.6a1.09,1.09,0,0,1,0,.18c-.12,1-1.26,2-3.1,2.69a31.48,31.48,0,0,1-11.14,1.73,40.09,40.09,0,0,1-6.67-.53h0a21.8,21.8,0,0,1-4.68-1.29c-1.81-.77-2.88-1.73-2.88-2.78V359.41a8.19,8.19,0,0,1,.55-3,44.91,44.91,0,0,0,17.15,3.32,45.92,45.92,0,0,0,10.74-1.25C321.42,358.79,321.44,359.1,321.44,359.41Z" transform="translate(-154.05 -247)"/></g><path class="cls-7" d="M305.47,358.71V377a42.07,42.07,0,0,1-5.56-.52h0a24.65,24.65,0,0,1-5.1-1.33c-2-.79-3.15-1.78-3.15-2.86V359.66a8.08,8.08,0,0,1,2.06-5.4l.16-.18c-1.26-1.81.11-5,2.67-4l9.62,3.5C309,354.6,308.1,358.94,305.47,358.71Z" transform="translate(-154.05 -247)"/><path class="cls-7" d="M322.55,357.93a8.26,8.26,0,0,1,.18,1.73v12.59a1.09,1.09,0,0,1,0,.18c-.13,1.05-1.38,2-3.38,2.78a23.19,23.19,0,0,1-3.57,1V358.53a2.45,2.45,0,0,1-2.24-1.23,2.62,2.62,0,0,1,.93-3.55l4.57-2.09a2.65,2.65,0,0,1,3.54.93,2.67,2.67,0,0,1-.7,3.42A8,8,0,0,1,322.55,357.93Z" transform="translate(-154.05 -247)"/><path class="cls-7" d="M302.22,352.13c-1.17-1.77-3.33-2.72-6.09-2.72H285.3c-2.77,0-4.93.95-6.1,2.72-2.24,3.38,1.27,8.74,1.61,9.26s3.47,5.14,8.78,5.54a31.37,31.37,0,0,0,2.24,0c5.31-.4,8.51-5.13,8.78-5.54S304.46,355.51,302.22,352.13ZM296,358.59a10.69,10.69,0,0,1-5.27,5.56,10.77,10.77,0,0,1-5.27-5.56,10.65,10.65,0,0,1-.22-7.12l5.49-.06,5.49.06A10.58,10.58,0,0,1,296,358.59Z" transform="translate(-154.05 -247)"/><path class="cls-7" d="M334.7,331.58a14.92,14.92,0,0,0,4.15,1.53,7.16,7.16,0,0,1-7.53,3.95,7,7,0,0,1-2.54-.92V325.4a6.8,6.8,0,0,0-.06-.9,5.25,5.25,0,0,0-.09-.55,36.32,36.32,0,0,0-5.8-3c-.63-.26-1.27-.5-1.93-.72s-1.14-.36-1.72-.52l-.43-.11a31.49,31.49,0,0,0-7.23-1.14l-1,0h-.95l-.83,0a25.15,25.15,0,0,0-6.94,1.26,22.1,22.1,0,0,0-2.61,1.09,23.64,23.64,0,0,0-5.49,3.73c-.59.54-1.14,1.09-1.68,1.68h0a2.45,2.45,0,0,1,0,.27v13a3,3,0,0,1-3,3l-.21,0a2.87,2.87,0,0,1-1.36-.43,3,3,0,0,1-.75-.64h0a3,3,0,0,1-.61-1.2,2.92,2.92,0,0,1-.09-.73v-7.87l.08,0v-1.73l-.08,0v.21a4.67,4.67,0,0,0-2.36.09,5.15,5.15,0,0,1-1-1.64c-2.15-6-.92-13.14,4.62-16.84,4.57-3.05,10.43-3,15.47-1.07a33.46,33.46,0,0,1,7.6-.81,43,43,0,0,1,17.8,4.06A21.4,21.4,0,0,0,339,309.18,10.89,10.89,0,0,1,337.5,321a19.48,19.48,0,0,0,3.41-1.42,9.37,9.37,0,0,1-4,10.48,8.52,8.52,0,0,1-2.92,1.13Z" transform="translate(-154.05 -247)"/><path class="cls-7" d="M328.78,325.4v17.27a7.13,7.13,0,0,1-7.12,7.13H297.93l-.46,0-.25,0a4.46,4.46,0,0,1-.54-.06l-.65-.1-.52-.11-.26-.07-.25-.07-.34-.09-.57-.2c-.18-.06-.35-.13-.53-.21l-.32-.14-.39-.19-.14-.07a10.38,10.38,0,0,1-1-.59l-.28-.19c-.13-.08-.25-.17-.37-.26l-.41-.31,0,0-.29-.24-.07-.06a.07.07,0,0,1,0,0l-.15-.13c-.13-.13-.27-.25-.39-.38l-.44-.45c-.14-.15-.27-.31-.4-.47s-.25-.31-.37-.47a1.7,1.7,0,0,1-.15-.22,10.34,10.34,0,0,1-.62-.95,11,11,0,0,1-.62-1.24c-.08-.18-.16-.37-.23-.56l-.17-.47a3,3,0,0,0,.75.64,2.87,2.87,0,0,0,1.36.43l.21,0a3,3,0,0,0,3-3v-13a2.45,2.45,0,0,0,0-.27h0c.54-.59,1.09-1.14,1.68-1.68a23.64,23.64,0,0,1,5.49-3.73,22.1,22.1,0,0,1,2.61-1.09,25.15,25.15,0,0,1,6.94-1.26l.83,0h.95l1,0a31.49,31.49,0,0,1,7.23,1.14l.43.11c.58.16,1.16.33,1.72.52s1.3.46,1.93.72a36.32,36.32,0,0,1,5.8,3,5.25,5.25,0,0,1,.09.55A6.8,6.8,0,0,1,328.78,325.4Z" transform="translate(-154.05 -247)"/><path class="cls-7" d="M328.78,339.32v3.35a7.13,7.13,0,0,1-7.12,7.13H298.34a12.29,12.29,0,0,1-9.12-4.05c5.24-6.44,13.85-10.63,23.59-10.63A31.78,31.78,0,0,1,328.78,339.32Z" transform="translate(-154.05 -247)"/><path class="cls-1" d="M319.18,319.69l-15.35,16.67-11.12,12.07a10.38,10.38,0,0,1-1-.59l-.28-.19c-.13-.08-.25-.17-.37-.26l-.41-.31,0,0-.29-.24-.07-.06a.07.07,0,0,1,0,0l-.15-.13c-.13-.13-.27-.25-.39-.38l-.44-.45c-.14-.15-.27-.31-.4-.47s-.25-.31-.37-.47a1.7,1.7,0,0,1-.15-.22,10.34,10.34,0,0,1-.62-.95,11,11,0,0,1-.62-1.24c-.08-.18-.16-.37-.23-.56l-.17-.47a3,3,0,0,0,.75.64,2.87,2.87,0,0,0,1.36.43l.21,0a3,3,0,0,0,3-3v-13a2.45,2.45,0,0,0,0-.27h0c.54-.59,1.09-1.14,1.68-1.68a23.64,23.64,0,0,1,5.49-3.73,22.1,22.1,0,0,1,2.61-1.09,25.15,25.15,0,0,1,6.94-1.26l.83,0h.95l1,0a31.49,31.49,0,0,1,7.23,1.14Z" transform="translate(-154.05 -247)"/><path class="cls-7" d="M288.77,342.44l-1.09,1.2a11,11,0,0,1-.62-1.24l.35-.39A2.87,2.87,0,0,0,288.77,342.44Z" transform="translate(-154.05 -247)"/><path class="cls-7" d="M310.49,318.41,292,338.86v-1.93l14.17-15.68,2.53-2.8.83,0Z" transform="translate(-154.05 -247)"/><path class="cls-7" d="M286.05,340.17a4.4,4.4,0,0,1-1.09.13,5.08,5.08,0,0,1-5-5.18,5.15,5.15,0,0,1,3.61-5,4.67,4.67,0,0,1,2.36-.09H286v1.53l-.08,0v7.87A2.92,2.92,0,0,0,286.05,340.17Z" transform="translate(-154.05 -247)"/><path class="cls-7" d="M335.71,310.41h0c-.26,1.23-1.54,2.71-3.52,4.19,0,0,0-.05,0-.08a8,8,0,0,0-.53-7.56h0a12,12,0,0,0-5.17-5,20,20,0,0,1-.39,4.2c-.07.38-.17.78-.28,1.19a11.66,11.66,0,0,0-.47-1.24l-.09-.19a13.06,13.06,0,0,0-1.77-2.82,12.92,12.92,0,0,0-5.2-3.9A25.72,25.72,0,0,1,319,306a23.29,23.29,0,0,1-.41,3.48l0,.25a20,20,0,0,1-.68,2.52,14.67,14.67,0,0,0-.06-1.87c0-.37-.09-.75-.15-1.12a12.07,12.07,0,0,0-1-3.15,9.9,9.9,0,0,0-.69-1.2c-.08.34-.17.77-.29,1.26A25.91,25.91,0,0,1,313,313c-.14.24-.28.47-.43.68s-.22.34-.33.5a13.91,13.91,0,0,1-4.5,4.33,27.66,27.66,0,0,1-17-.19h0c-2-1.12-3.21-2.34-3.21-3.5,0-2.14,4.21-3.92,8.55-5.19l-.1-.06c.9-.38,6.19-2.65,7.68-8.08a11,11,0,0,0,.37-3.27,8.78,8.78,0,0,1,4.7,4.77,16.47,16.47,0,0,0,2.49-3.56,17.57,17.57,0,0,0,1.69-5,15.65,15.65,0,0,1,3,2.87v-.17a17.26,17.26,0,0,0-.45-5.21,13.51,13.51,0,0,1,9.55,7.31,17.38,17.38,0,0,0,.38-2.54,16.85,16.85,0,0,0-.87-6.47,14.24,14.24,0,0,1,13,12.95A12.94,12.94,0,0,1,335.71,310.41Z" transform="translate(-154.05 -247)"/><path class="cls-7" d="M331.05,322.2c-2.69,1.47-6.11.69-7.34-2.22h0a12.77,12.77,0,0,1-2.31,0,44.27,44.27,0,0,1-10.75,2.13c-7.61.47-15.62-1.4-19.94-3.79a27.66,27.66,0,0,0,17,.19,13.91,13.91,0,0,0,4.5-4.33c.11-.16.23-.32.33-.5s.29-.44.43-.68a25.91,25.91,0,0,0,2.72-6.77c.12-.49.21-.92.29-1.26a9.9,9.9,0,0,1,.69,1.2,12.07,12.07,0,0,1,1,3.15c.06.37.12.75.15,1.12a14.67,14.67,0,0,1,.06,1.87,20,20,0,0,0,.68-2.52l0-.25A23.29,23.29,0,0,0,319,306a25.72,25.72,0,0,0-.67-6.84,12.92,12.92,0,0,1,5.2,3.9,13.06,13.06,0,0,1,1.77,2.82l-.06.18h.15a11.66,11.66,0,0,1,.47,1.24c.11-.41.21-.81.28-1.19a20,20,0,0,0,.39-4.2,12,12,0,0,1,5.17,5h0a8,8,0,0,1,.53,7.56s0,.05,0,.08a8.61,8.61,0,0,1-2.22,2.84,17.63,17.63,0,0,0,5.4-3.37A9,9,0,0,1,331.05,322.2Z" transform="translate(-154.05 -247)"/><path class="cls-7" d="M305.81,344.14a32.73,32.73,0,0,1,11.34.25c1.63.33,2.33-2.17.69-2.5a36.24,36.24,0,0,0-12.72-.24c-1.64.25-.94,2.75.69,2.49Z" transform="translate(-154.05 -247)"/><path class="cls-7" d="M327.15,334.7a6.93,6.93,0,0,1-.1,1.22h0c0,.16-.05.31-.09.46-.51,2.23-2,3.86-3.81,3.91h-.1c-2.26,0-4.1-2.51-4.1-5.61s1.84-5.6,4.1-5.6a3,3,0,0,1,1.35.32C326,330.18,327.15,332.26,327.15,334.7Z" transform="translate(-154.05 -247)"/><path class="cls-1" d="M327.1,336.12a3.74,3.74,0,0,1-.1.89h0c0,.11-.05.22-.09.33a4.09,4.09,0,0,1-3.82,2.87H323a4.1,4.1,0,0,1,0-8.2,4,4,0,0,1,1.35.24A4.09,4.09,0,0,1,327.1,336.12Z" transform="translate(-154.05 -247)"/><path class="cls-7" d="M320.17,326.72l8.59,2.58c2.8.85,4-3.54,1.2-4.38l-8.58-2.59c-2.8-.84-4,3.55-1.21,4.39Z" transform="translate(-154.05 -247)"/><g id="LeftArm"><path class="cls-7" d="M293.7,350.6c-5.11-.3-10.24.18-14.66,2.94-4.64,2.9-7.41,7.65-9.58,12.52a4.32,4.32,0,1,0,8.11,3c1.36-3,3.09-6.34,6-8.18s6.23-1.83,9.39-1.64c5.53.33,6.34-8.27.77-8.6Z" transform="translate(-154.05 -247)"/><path class="cls-7" d="M293.78,349.74a21.14,21.14,0,0,0-12.35,1.57,5.18,5.18,0,1,0,4.26,9.45c.54-.24,1.09-.45,1.65-.65-1.13.39.28,0,.45-.07a12.13,12.13,0,0,1,1.23-.21c.14,0,1.27-.1.52-.08.39,0,.79,0,1.19,0a16.83,16.83,0,0,1,2.12.27c2.67.51,5.5-2.09,5.62-4.7a5.33,5.33,0,0,0-4.69-5.62Z" transform="translate(-154.05 -247)"/></g></g><polygon class="cls-6" points="192.3 134.72 179.65 173 204.95 173 192.3 134.72"/><polygon class="cls-6" points="107.3 134.72 94.65 173 119.95 173 107.3 134.72"/><polygon class="cls-6" points="175.3 140.72 162.65 179 187.95 179 175.3 140.72"/><polygon class="cls-6" points="130.3 140.72 117.65 179 142.95 179 130.3 140.72"/><path class="cls-7" d="M371,308c-10.4,0-18.83,5.46-18.83,12.19,0,3.52,2.31,6.69,6,8.91a9.83,9.83,0,0,1-6.82,4.42c-2.28.34-1.31,3.79.95,3.46a12.54,12.54,0,0,0,9.07-6.32,26.91,26.91,0,0,0,9.64,1.72c10.39,0,18.82-5.46,18.82-12.19S381.4,308,371,308Zm-8.79,15.06a2.87,2.87,0,1,1,2.87-2.87A2.88,2.88,0,0,1,362.22,323.06Zm9,0a2.87,2.87,0,1,1,2.86-2.87A2.87,2.87,0,0,1,371.19,323.06Zm9.32,0a2.87,2.87,0,1,1,2.87-2.87A2.87,2.87,0,0,1,380.51,323.06Z" transform="translate(-154.05 -247)"/></g></svg>