<svg xmlns="http://www.w3.org/2000/svg" viewBox="0 0 299.83 409.96"><defs><style>.cls-1,.cls-6{fill:#6b6eb3;}.cls-2{fill:none;stroke-dasharray:30.1 30.1;}.cls-2,.cls-6{stroke:#343961;stroke-linecap:round;stroke-width:6px;}.cls-2,.cls-3,.cls-6{stroke-miterlimit:10;}.cls-3{fill:#f15a29;stroke:#ef4136;stroke-width:7px;}.cls-4{fill:#fff;}.cls-5{fill:#343961;}</style></defs><title>PopupExit</title><g id="PathsMustEndAtExit"><rect class="cls-1" x="3" y="3" width="293.83" height="403.96" rx="41.51"/><rect class="cls-2" x="3" y="3" width="293.83" height="403.96" rx="41.51"/><rect class="cls-3" x="26.17" y="297.46" width="251.96" height="83.74" rx="25.53"/><path class="cls-4" d="M279.09,558.94a14.46,14.46,0,0,1-11-4.48q-4.26-4.47-4.26-12a17.38,17.38,0,0,1,4.07-11.84Q272,526,279.19,526a14.35,14.35,0,0,1,10.88,4.41c2.81,2.93,4.21,6.86,4.21,11.76q0,7.62-4.24,12.21A14.21,14.21,0,0,1,279.09,558.94Zm0-7.27a3.71,3.71,0,0,0,3.57-2.17c.73-1.44,1.09-4.09,1.09-7.93q0-8.34-4.48-8.34-4.83,0-4.83,9.51Q274.4,551.68,279.05,551.67Z" transform="translate(-154.05 -202.44)"/><path class="cls-4" d="M332.08,558.45H321.33l-5.53-12.09-3.31,4.7v7.39h-9.26v-32h9.26v13.23l8.82-13.23h8.82l-8.07,11.71Z" transform="translate(-154.05 -202.44)"/><path class="cls-4" d="M347.75,549.89v8.56h-8.9v-8.56Z" transform="translate(-154.05 -202.44)"/><path class="cls-4" d="M213.71,234.4l-8.49,32H197l-4.47-17.65-4.23,17.65h-8.6l-8.5-32h9.24l4.48,18.41,4.36-18.41H197l4.75,18.45,4.48-18.45Z" transform="translate(-154.05 -202.44)"/><path class="cls-4" d="M237.72,266.39l-1.81-6.3h-8.57l-1.92,6.3h-8l9.87-32h10.39l10,32ZM229,253.1h5.18l-2.59-9.28Z" transform="translate(-154.05 -202.44)"/><path class="cls-4" d="M284,266.39H273.08l-4.67-12.23h-3.1v12.23h-9.82v-32H272.2q5.54,0,8.59,2.59a8.51,8.51,0,0,1,3.06,6.83,10.26,10.26,0,0,1-1.13,4.89,9.49,9.49,0,0,1-4.54,3.74Zm-18.65-19.08h4.19a5.13,5.13,0,0,0,3-.77,2.57,2.57,0,0,0,1.13-2.27q0-3.08-3.78-3.07h-4.52Z" transform="translate(-154.05 -202.44)"/><path class="cls-4" d="M320.76,266.39h-8L304,252.26a54.87,54.87,0,0,1-3.4-6.61,22,22,0,0,1,.77,5.25v15.49h-8v-32h9.28l7.45,11.72a43.85,43.85,0,0,1,3.37,6.14,46.51,46.51,0,0,1-.75-8.39V234.4h8Z" transform="translate(-154.05 -202.44)"/><path class="cls-4" d="M341,234.4v32h-9.82v-32Z" transform="translate(-154.05 -202.44)"/><path class="cls-4" d="M378.69,266.39h-8l-8.76-14.13a54.87,54.87,0,0,1-3.4-6.61,22.5,22.5,0,0,1,.77,5.25v15.49h-8v-32h9.29l7.45,11.72a44.91,44.91,0,0,1,3.37,6.14,46.51,46.51,0,0,1-.75-8.39V234.4h8Z" transform="translate(-154.05 -202.44)"/><path class="cls-4" d="M416.7,248.46v17.93h-4.81A19,19,0,0,0,410.6,263q-3,3.84-8.81,3.85a13.23,13.23,0,0,1-10.17-4.33q-4-4.32-4-11.71a18.83,18.83,0,0,1,3.86-12q3.86-4.89,11.47-4.89a14,14,0,0,1,9.21,2.9,13.7,13.7,0,0,1,4.53,8.25l-9.52.94q-.71-5-4.38-5Q398,241,398,250.2q0,5.55,1.55,7.32a4.8,4.8,0,0,0,3.75,1.77,4.48,4.48,0,0,0,3-1.08,3.75,3.75,0,0,0,1.28-2.95h-5.3v-6.8Z" transform="translate(-154.05 -202.44)"/><path class="cls-4" d="M434.93,242.56v8.53H426v-8.53Zm0,15.28v8.55H426v-8.55Z" transform="translate(-154.05 -202.44)"/><rect class="cls-5" x="12.96" y="80.28" width="273.91" height="8.26" rx="4.13"/><path class="cls-5" d="M324.6,401c0-8.95-9-16.2-20.18-16.2S284.23,392,284.23,401c0,0,0,0,0,0v7.66c0,8.95,9,16.21,20.18,16.21s20.18-7.26,20.18-16.21V401Z" transform="translate(-154.05 -202.44)"/><polygon class="cls-1" points="160.01 185.86 150.37 193.6 140.73 185.86 134.56 190.81 144.2 198.55 134.56 206.3 140.73 211.25 150.37 203.51 160.01 211.25 166.18 206.3 156.54 198.55 166.18 190.81 160.01 185.86"/><rect class="cls-5" x="9.95" y="107.56" width="104" height="95" rx="15"/><rect class="cls-6" x="12.95" y="107.56" width="98" height="30" rx="15"/><rect class="cls-5" x="185.95" y="107.56" width="104" height="95" rx="15"/><rect class="cls-6" x="188.95" y="107.56" width="98" height="30" rx="15"/><path class="cls-4" d="M208.56,455.45a2.23,2.23,0,0,1-2.49,2.55,2.46,2.46,0,0,1-1.87-.64,2.58,2.58,0,0,1-.62-1.85v-13q0-2.49,2.4-2.49h5a7.27,7.27,0,0,1,2.81.5,5.6,5.6,0,0,1,1.95,1.3,5.3,5.3,0,0,1,1.14,1.85,6.13,6.13,0,0,1,.37,2.11,6.51,6.51,0,0,1-.34,2.1,5.52,5.52,0,0,1-1,1.82,5.26,5.26,0,0,1-1.65,1.29,4.89,4.89,0,0,1-2.24.49h-.81q-2.25,0-2.25-2a1.85,1.85,0,0,1,.27-1.09,1.74,1.74,0,0,1,.69-.57,3.36,3.36,0,0,1,.9-.27,5.93,5.93,0,0,0,.9-.21,2,2,0,0,0,.72-.41,1.16,1.16,0,0,0,.33-.84q0-1.35-1.56-1.35h-2.67Z" transform="translate(-154.05 -202.44)"/><path class="cls-4" d="M227,454.52h-5.31l-.75,1.92a2.45,2.45,0,0,1-.91,1.22,2.33,2.33,0,0,1-1.28.37,2.86,2.86,0,0,1-1-.16,2.92,2.92,0,0,1-.86-.48,2.39,2.39,0,0,1-.61-.74,2,2,0,0,1-.23-1,2.31,2.31,0,0,1,.21-1l5.91-13.05a2.88,2.88,0,0,1,1-1.26,2.49,2.49,0,0,1,1.35-.42,2.43,2.43,0,0,1,1.34.42,2.56,2.56,0,0,1,1,1.26l5.43,13.05a2.31,2.31,0,0,1,.21,1,2,2,0,0,1-.22.95,2.35,2.35,0,0,1-.62.75,2.85,2.85,0,0,1-.87.48,2.93,2.93,0,0,1-1,.16,2.39,2.39,0,0,1-1.29-.37,2.28,2.28,0,0,1-.9-1.22Zm-3.75-3.9h2.4l-1.11-3.21Z" transform="translate(-154.05 -202.44)"/><path class="cls-4" d="M240.18,455.51a2.27,2.27,0,0,1-.73,1.83,2.62,2.62,0,0,1-1.76.63,2.55,2.55,0,0,1-1.72-.63,2.28,2.28,0,0,1-.74-1.83V445h-1.74a2.33,2.33,0,0,1-1.83-.73,2.66,2.66,0,0,1,0-3.51,2.34,2.34,0,0,1,1.83-.74h8.37a2.34,2.34,0,0,1,1.83.74,2.66,2.66,0,0,1,0,3.51,2.33,2.33,0,0,1-1.83.73h-1.68Z" transform="translate(-154.05 -202.44)"/><path class="cls-4" d="M259.8,455.51a2.27,2.27,0,0,1-.73,1.83,2.62,2.62,0,0,1-1.76.63,2.55,2.55,0,0,1-1.72-.63,2.28,2.28,0,0,1-.74-1.83v-4h-4v4a2.27,2.27,0,0,1-.73,1.83,2.62,2.62,0,0,1-1.76.63,2.55,2.55,0,0,1-1.72-.63,2.28,2.28,0,0,1-.74-1.83v-13a2.28,2.28,0,0,1,.74-1.83,2.55,2.55,0,0,1,1.72-.63,2.62,2.62,0,0,1,1.76.63,2.27,2.27,0,0,1,.73,1.83v4h4v-4a2.28,2.28,0,0,1,.74-1.83,2.55,2.55,0,0,1,1.72-.63,2.62,2.62,0,0,1,1.76.63,2.27,2.27,0,0,1,.73,1.83Z" transform="translate(-154.05 -202.44)"/><path class="cls-4" d="M274.86,452.27q0,5.73-5.58,5.73h-4.92a2.11,2.11,0,0,1-2.37-2.4v-.09q.06-2.49,2.4-2.49h5.16a.92.92,0,0,0,.75-.28,1,1,0,0,0,.24-.62.91.91,0,0,0-1-.9H267q-5.28,0-5.28-5.43,0-5.73,5.64-5.73h4a2.11,2.11,0,0,1,2.37,2.4v.09q-.06,2.49-2.4,2.49H267a.91.91,0,0,0-1,.9,1,1,0,0,0,.24.62.92.92,0,0,0,.75.28h2.55Q274.86,446.84,274.86,452.27Z" transform="translate(-154.05 -202.44)"/><path class="cls-4" d="M287.64,455.51a2.27,2.27,0,0,1-.73,1.83,2.62,2.62,0,0,1-1.76.63,2.55,2.55,0,0,1-1.72-.63,2.28,2.28,0,0,1-.74-1.83V442.82a3.36,3.36,0,0,1,.51-2.08,2.26,2.26,0,0,1,1.86-.65,3.69,3.69,0,0,1,1.88.39,4.41,4.41,0,0,1,1.18,1.08l3.27,4.17,3.24-4.2a4.24,4.24,0,0,1,1.16-1,3.23,3.23,0,0,1,1.69-.39,2.36,2.36,0,0,1,1.89.65,3.22,3.22,0,0,1,.54,2.08v12.69a2.27,2.27,0,0,1-.73,1.83,2.62,2.62,0,0,1-1.76.63,2.55,2.55,0,0,1-1.72-.63,2.28,2.28,0,0,1-.74-1.83V448l-2.22,2.94a2,2,0,0,1-1.5.9,1.84,1.84,0,0,1-1.47-.93L287.64,448Z" transform="translate(-154.05 -202.44)"/><path class="cls-4" d="M316.05,450.11q0,7.89-7.2,7.89t-7.32-7.89v-7.56a2.28,2.28,0,0,1,.74-1.83,2.55,2.55,0,0,1,1.72-.63,2.62,2.62,0,0,1,1.76.63,2.27,2.27,0,0,1,.73,1.83v8.31q0,2.22,2.31,2.22t2.31-2.22v-8.31a2.28,2.28,0,0,1,.74-1.83,2.55,2.55,0,0,1,1.72-.63,2.62,2.62,0,0,1,1.76.63,2.27,2.27,0,0,1,.73,1.83Z" transform="translate(-154.05 -202.44)"/><path class="cls-4" d="M331,452.27q0,5.73-5.58,5.73h-4.92a2.11,2.11,0,0,1-2.37-2.4v-.09q.06-2.49,2.4-2.49h5.16a.92.92,0,0,0,.75-.28,1,1,0,0,0,.24-.62.91.91,0,0,0-1-.9h-2.55q-5.28,0-5.28-5.43,0-5.73,5.64-5.73h4a2.11,2.11,0,0,1,2.37,2.4v.09q-.06,2.49-2.4,2.49h-4.26a.91.91,0,0,0-1,.9,1,1,0,0,0,.24.62.92.92,0,0,0,.75.28h2.55Q331,446.84,331,452.27Z" transform="translate(-154.05 -202.44)"/><path class="cls-4" d="M341.46,455.51a2.27,2.27,0,0,1-.73,1.83A2.62,2.62,0,0,1,339,458a2.55,2.55,0,0,1-1.72-.63,2.28,2.28,0,0,1-.74-1.83V445h-1.74a2.33,2.33,0,0,1-1.83-.73,2.66,2.66,0,0,1,0-3.51,2.34,2.34,0,0,1,1.83-.74h8.37a2.34,2.34,0,0,1,1.83.74,2.66,2.66,0,0,1,0,3.51,2.33,2.33,0,0,1-1.83.73h-1.68Z" transform="translate(-154.05 -202.44)"/><path class="cls-4" d="M355.59,458a2.19,2.19,0,0,1-2.46-2.49v-13a2.19,2.19,0,0,1,2.46-2.49H364a2.34,2.34,0,0,1,1.83.74,2.66,2.66,0,0,1,0,3.51A2.33,2.33,0,0,1,364,445h-5.94v1.5h4.74a2.34,2.34,0,0,1,1.83.74,2.66,2.66,0,0,1,0,3.51,2.33,2.33,0,0,1-1.83.73h-4.74V453H364a2.34,2.34,0,0,1,1.83.74,2.66,2.66,0,0,1,0,3.51A2.33,2.33,0,0,1,364,458Z" transform="translate(-154.05 -202.44)"/><path class="cls-4" d="M373.44,455.51a2.27,2.27,0,0,1-.73,1.83A2.62,2.62,0,0,1,371,458a2.55,2.55,0,0,1-1.72-.63,2.28,2.28,0,0,1-.74-1.83v-13a2.28,2.28,0,0,1,.74-1.83,2.55,2.55,0,0,1,1.72-.63h.12A2,2,0,0,1,373,441.2l4.5,6.81v-5.46a2.28,2.28,0,0,1,.74-1.83,2.55,2.55,0,0,1,1.72-.63,2.62,2.62,0,0,1,1.76.63,2.27,2.27,0,0,1,.73,1.83v13a2.27,2.27,0,0,1-.73,1.83,2.62,2.62,0,0,1-1.76.63,2.77,2.77,0,0,1-.87-.12,2.31,2.31,0,0,1-.61-.3,2.15,2.15,0,0,1-.41-.36l-.24-.3-4.35-6.48Z" transform="translate(-154.05 -202.44)"/><path class="cls-4" d="M384.48,442.55a1.94,1.94,0,0,1,.23-.93,2.52,2.52,0,0,1,.59-.79,3.16,3.16,0,0,1,.84-.56,2.27,2.27,0,0,1,.92-.21h2.4a9.9,9.9,0,0,1,4.08.78,8.36,8.36,0,0,1,2.89,2.07,8.48,8.48,0,0,1,1.74,2.91,9.5,9.5,0,0,1,.59,3.33,9.85,9.85,0,0,1-.55,3.27,8.23,8.23,0,0,1-1.68,2.82,8.7,8.7,0,0,1-2.79,2,9.25,9.25,0,0,1-3.89.76h-2.79a2.61,2.61,0,0,1-1.88-.67,2.4,2.4,0,0,1-.7-1.82Zm5.4,10.47a3.86,3.86,0,0,0,1.72-.36,4,4,0,0,0,1.25-.93,4,4,0,0,0,.77-1.3,4.89,4.89,0,0,0,.25-1.52,4.26,4.26,0,0,0-.24-1.41,3.35,3.35,0,0,0-.74-1.21,3.65,3.65,0,0,0-1.26-.86,4.42,4.42,0,0,0-1.78-.33h-.42V453Z" transform="translate(-154.05 -202.44)"/><path class="cls-4" d="M252.26,478.52H247l-.75,1.92a2.46,2.46,0,0,1-.92,1.22A2.3,2.3,0,0,1,244,482a2.92,2.92,0,0,1-1-.16,2.87,2.87,0,0,1-.85-.48,2.43,2.43,0,0,1-.62-.74,2,2,0,0,1-.22-1,2.31,2.31,0,0,1,.21-1l5.91-13.05a2.88,2.88,0,0,1,1-1.26,2.49,2.49,0,0,1,1.35-.42,2.4,2.4,0,0,1,1.33.42,2.57,2.57,0,0,1,1,1.26l5.43,13.05a2.31,2.31,0,0,1,.21,1,2.05,2.05,0,0,1-.23.95,2.32,2.32,0,0,1-.61.75,2.85,2.85,0,0,1-.87.48,2.93,2.93,0,0,1-1,.16,2.39,2.39,0,0,1-1.29-.37,2.28,2.28,0,0,1-.9-1.22Zm-3.75-3.9h2.4l-1.11-3.21Z" transform="translate(-154.05 -202.44)"/><path class="cls-4" d="M265.49,479.51a2.28,2.28,0,0,1-.74,1.83,2.72,2.72,0,0,1-3.48,0,2.27,2.27,0,0,1-.73-1.83V469H258.8a2.33,2.33,0,0,1-1.83-.73,2.66,2.66,0,0,1,0-3.51,2.34,2.34,0,0,1,1.83-.74h8.37a2.34,2.34,0,0,1,1.83.74,2.66,2.66,0,0,1,0,3.51,2.33,2.33,0,0,1-1.83.73h-1.68Z" transform="translate(-154.05 -202.44)"/><path class="cls-4" d="M287.54,478.52h-5.31l-.75,1.92a2.46,2.46,0,0,1-.92,1.22,2.3,2.3,0,0,1-1.27.37,2.92,2.92,0,0,1-1-.16,2.87,2.87,0,0,1-.85-.48,2.43,2.43,0,0,1-.62-.74,2,2,0,0,1-.22-1,2.31,2.31,0,0,1,.21-1l5.91-13.05a2.88,2.88,0,0,1,1.05-1.26,2.49,2.49,0,0,1,1.35-.42,2.4,2.4,0,0,1,1.33.42,2.57,2.57,0,0,1,1,1.26l5.43,13.05a2.31,2.31,0,0,1,.21,1,2.05,2.05,0,0,1-.23.95,2.32,2.32,0,0,1-.61.75,2.85,2.85,0,0,1-.87.48,2.93,2.93,0,0,1-1,.16,2.39,2.39,0,0,1-1.29-.37,2.28,2.28,0,0,1-.9-1.22Zm-3.75-3.9h2.4l-1.11-3.21Z" transform="translate(-154.05 -202.44)"/><path class="cls-4" d="M299.6,479.51a2.28,2.28,0,0,1-.74,1.83,2.72,2.72,0,0,1-3.48,0,2.27,2.27,0,0,1-.73-1.83v-13a2.27,2.27,0,0,1,.73-1.83,2.58,2.58,0,0,1,1.73-.63h.12a2,2,0,0,1,1.89,1.11l4.5,6.81v-5.46a2.27,2.27,0,0,1,.73-1.83,2.72,2.72,0,0,1,3.48,0,2.28,2.28,0,0,1,.74,1.83v13a2.28,2.28,0,0,1-.74,1.83,2.6,2.6,0,0,1-1.75.63,2.77,2.77,0,0,1-.87-.12,2.38,2.38,0,0,1-.62-.3,2.06,2.06,0,0,1-.4-.36l-.24-.3-4.35-6.48Z" transform="translate(-154.05 -202.44)"/><path class="cls-4" d="M319.07,482a2.19,2.19,0,0,1-2.46-2.49v-13a2.19,2.19,0,0,1,2.46-2.49h8.4a2.34,2.34,0,0,1,1.83.74,2.66,2.66,0,0,1,0,3.51,2.33,2.33,0,0,1-1.83.73h-5.94v1.5h4.74a2.34,2.34,0,0,1,1.83.74,2.66,2.66,0,0,1,0,3.51,2.33,2.33,0,0,1-1.83.73h-4.74V477h5.94a2.34,2.34,0,0,1,1.83.74,2.66,2.66,0,0,1,0,3.51,2.33,2.33,0,0,1-1.83.73Z" transform="translate(-154.05 -202.44)"/><path class="cls-4" d="M340.07,465.35a2.68,2.68,0,0,1,.91-1,2.17,2.17,0,0,1,1.13-.32,2.38,2.38,0,0,1,1,.21,3.24,3.24,0,0,1,.85.54,2.51,2.51,0,0,1,.6.8,2.14,2.14,0,0,1,.23.94,2.21,2.21,0,0,1-.42,1.29l-3.54,5.22,3.57,5.25a2.21,2.21,0,0,1,.42,1.29,1.92,1.92,0,0,1-.26,1,2.84,2.84,0,0,1-.64.78,3.22,3.22,0,0,1-.87.53,2.53,2.53,0,0,1-1,.19,2.1,2.1,0,0,1-1.08-.3,2.41,2.41,0,0,1-.87-1l-1.92-3.39-1.92,3.39a2.41,2.41,0,0,1-.87,1,2.1,2.1,0,0,1-1.08.3,2.53,2.53,0,0,1-1-.19,3.22,3.22,0,0,1-.87-.53,2.88,2.88,0,0,1-.65-.78,1.91,1.91,0,0,1-.25-1,2.21,2.21,0,0,1,.42-1.29l3.57-5.25L332,467.84a2.21,2.21,0,0,1-.42-1.29,2.12,2.12,0,0,1,.22-.94,2.51,2.51,0,0,1,.6-.8,3.29,3.29,0,0,1,.86-.54,2.38,2.38,0,0,1,1-.21,2.14,2.14,0,0,1,1.12.32,2.7,2.7,0,0,1,.92,1l1.89,3.33Z" transform="translate(-154.05 -202.44)"/><path class="cls-4" d="M351.68,479.51a2.28,2.28,0,0,1-.74,1.83,2.55,2.55,0,0,1-1.72.63,2.62,2.62,0,0,1-1.76-.63,2.27,2.27,0,0,1-.73-1.83v-13a2.27,2.27,0,0,1,.73-1.83,2.62,2.62,0,0,1,1.76-.63,2.55,2.55,0,0,1,1.72.63,2.28,2.28,0,0,1,.74,1.83Z" transform="translate(-154.05 -202.44)"/><path class="cls-4" d="M362.38,479.51a2.27,2.27,0,0,1-.73,1.83,2.62,2.62,0,0,1-1.76.63,2.55,2.55,0,0,1-1.72-.63,2.28,2.28,0,0,1-.74-1.83V469h-1.74a2.34,2.34,0,0,1-1.83-.73,2.69,2.69,0,0,1,0-3.51,2.35,2.35,0,0,1,1.83-.74h8.37a2.34,2.34,0,0,1,1.83.74,2.66,2.66,0,0,1,0,3.51,2.33,2.33,0,0,1-1.83.73h-1.68Z" transform="translate(-154.05 -202.44)"/><path class="cls-5" d="M311.67,329.24h-3.12V364.7a3.88,3.88,0,0,1-7.75,0V329.24h-3.11a3.06,3.06,0,0,1-2.65-4.59l7-12.12a3.07,3.07,0,0,1,5.31,0l7,12.12A3.07,3.07,0,0,1,311.67,329.24Z" transform="translate(-154.05 -202.44)"/><rect class="cls-5" x="145.95" y="169.56" width="9" height="9" rx="4.5"/></g></svg>