<svg xmlns="http://www.w3.org/2000/svg" viewBox="0 0 299.83 338.39"><defs><style>.cls-1,.cls-5{fill:#6b6eb3;}.cls-2{fill:none;stroke-width:6px;stroke-dasharray:29.53 29.53;}.cls-2,.cls-5{stroke:#343961;stroke-linecap:round;}.cls-2,.cls-3,.cls-5{stroke-miterlimit:10;}.cls-3{fill:#f15a29;stroke:#ef4136;stroke-width:7px;}.cls-4{fill:#fff;}.cls-5{stroke-width:2px;}.cls-6{fill:#343961;}</style></defs><title>PopupHole</title><g id="Fell_In_hole" data-name="Fell In hole"><rect class="cls-1" x="3" y="3" width="293.83" height="332.39" rx="41.51"/><rect class="cls-2" x="3" y="3" width="293.83" height="332.39" rx="41.51"/><rect class="cls-3" x="26.17" y="225.89" width="251.96" height="83.74" rx="25.53"/><path class="cls-4" d="M255.76,558.45H244.88l-4.67-12.24h-3.1v12.24h-9.82v-32H244c3.69,0,6.55.87,8.59,2.59a8.53,8.53,0,0,1,3.06,6.84,10.25,10.25,0,0,1-1.13,4.88A9.43,9.43,0,0,1,250,544.5Zm-18.65-19.08h4.19a5.13,5.13,0,0,0,3-.78,2.57,2.57,0,0,0,1.13-2.27q0-3.08-3.78-3.07h-4.52Z" transform="translate(-154.05 -274)"/><path class="cls-4" d="M289.28,550.8v7.65H265.21v-32h24.07v7.39H274.84v4.64h11.67v7.1H274.84v5.22Z" transform="translate(-154.05 -274)"/><path class="cls-4" d="M311.12,534.12v24.33h-9.31V534.12h-6.63v-7.67h22.57v7.67Z" transform="translate(-154.05 -274)"/><path class="cls-4" d="M353.81,558.45H342.93l-4.68-12.24h-3.09v12.24h-9.82v-32h16.71c3.69,0,6.55.87,8.59,2.59a8.53,8.53,0,0,1,3.06,6.84,10.25,10.25,0,0,1-1.13,4.88A9.43,9.43,0,0,1,348,544.5Zm-18.65-19.08h4.19a5.13,5.13,0,0,0,3-.78,2.57,2.57,0,0,0,1.13-2.27q0-3.08-3.78-3.07h-4.52Z" transform="translate(-154.05 -274)"/><path class="cls-4" d="M388.85,526.45l-10,18.45v13.55H369.3V544.9l-10.76-18.45h10.74L374.89,537l5.38-10.55Z" transform="translate(-154.05 -274)"/><rect class="cls-5" x="107.95" y="22" width="19" height="55.6" rx="9.5"/><rect class="cls-5" x="126.95" y="37" width="19" height="40.6" rx="9.5"/><rect class="cls-5" x="145.95" y="28" width="19" height="49.6" rx="9.5"/><rect class="cls-5" x="164.95" y="22" width="19" height="55.6" rx="9.5"/><g id="playerref_copy_5" data-name="playerref copy 5"><path class="cls-6" d="M308.31,336.45c1.17,5.52-1.17,10.69-5.23,11.54l-52.33,11-4.21-20,52.34-11a6.15,6.15,0,0,1,4.45.84A11.53,11.53,0,0,1,308.31,336.45Z" transform="translate(-154.05 -274)"/><path class="cls-6" d="M256,347.45c.89,4.25-.28,8.27-2.71,10.3a5.71,5.71,0,0,1-2.52,1.25,5.78,5.78,0,0,1-1.24.11c-3.64-.05-7.16-3.61-8.2-8.57-1.16-5.52,1.18-10.69,5.23-11.54l52.34-11a6.15,6.15,0,0,1,4.45.84l-52.34,11A11.5,11.5,0,0,1,256,347.45Z" transform="translate(-154.05 -274)"/><ellipse class="cls-1" cx="248.65" cy="349" rx="5.98" ry="8.15" transform="translate(-220.56 -215.35) rotate(-11.88)"/><path class="cls-6" d="M252.93,351.56a3.18,3.18,0,0,1-3.13,2,4,4,0,0,1-3-3.22c-.43-1.78,1.74-2.23,2.18-.46a.93.93,0,0,0,1.53.65,2,2,0,0,0,.53-2.16c-.48-1.82-2.09-2.65-3.39-2.09a4.07,4.07,0,0,0-2.13,3.94c.08,3.95,3.54,6.84,6.4,6.29.72-.13,1.22.52,1.35,1.23a5.71,5.71,0,0,1-2.52,1.25,5.78,5.78,0,0,1-1.24.11,8.16,8.16,0,0,1-4.41-3.46,10.06,10.06,0,0,1-1.27-8.84c1-2.68,3.7-4.28,6.17-3.14A6.44,6.44,0,0,1,252.93,351.56Z" transform="translate(-154.05 -274)"/><rect class="cls-6" x="261.82" y="350.75" width="59.02" height="72.03" rx="9.77" transform="translate(-278.44 -135.5) rotate(-22.17)"/><rect class="cls-5" x="273.49" y="345.99" width="59.02" height="72.03" rx="12" transform="translate(-275.78 -131.45) rotate(-22.17)"/><rect class="cls-1" x="268.2" y="396.92" width="10.98" height="20.65" rx="4.26" transform="translate(-287.47 -140.64) rotate(-22.17)"/><rect class="cls-6" x="265.33" y="398.08" width="10.98" height="20.65" rx="4.26" transform="translate(-288.12 -141.64) rotate(-22.17)"/><g id="RightFoot"><path class="cls-6" d="M341.41,372.9l14.34-2.81a3.5,3.5,0,0,1,1.93.17,3.56,3.56,0,0,1,2.21,2.62l.71,3.66a3.51,3.51,0,0,1-1.06,3.26,3.42,3.42,0,0,1-1.72.88l-14.33,2.81Z" transform="translate(-154.05 -274)"/><path class="cls-6" d="M353.68,367.42,356,367a2.8,2.8,0,0,1,1.08,0,2.74,2.74,0,0,1,2.12,2.15l1.61,8.19a2.73,2.73,0,0,1-2.16,3.21l-4.94,1-2.13-10.88A2.74,2.74,0,0,1,353.68,367.42Z" transform="translate(-154.05 -274)"/><path class="cls-6" d="M357,367a2.74,2.74,0,0,1,2.12,2.15l1.61,8.19a2.76,2.76,0,0,1-1.15,2.79Z" transform="translate(-154.05 -274)"/></g><g id="RightFoot-2" data-name="RightFoot"><path class="cls-6" d="M332.52,388.49l13.35,5.92a3.47,3.47,0,0,1,1.48,1.24,3.53,3.53,0,0,1,.32,3.41l-1.52,3.42a3.54,3.54,0,0,1-4.65,1.8l-13.35-5.92Z" transform="translate(-154.05 -274)"/><path class="cls-6" d="M345.71,391l2.11.94a2.82,2.82,0,0,1,.89.63,2.73,2.73,0,0,1,.5,3l-3.38,7.64a2.75,2.75,0,0,1-3.61,1.39l-4.6-2,4.49-10.13A2.74,2.74,0,0,1,345.71,391Z" transform="translate(-154.05 -274)"/><path class="cls-6" d="M348.71,392.6a2.73,2.73,0,0,1,.5,3l-3.38,7.64a2.73,2.73,0,0,1-2.54,1.62Z" transform="translate(-154.05 -274)"/></g><g id="RightArm"><path class="cls-6" d="M339.94,366.85c4.22-2.58,8.22-6,10.16-10.63,2.15-5.15,1.7-10.61.66-16-.44-2.29-3.33-3.5-5.39-2.87-2.43.75-3.31,3.1-2.86,5.4a27.91,27.91,0,0,1,.54,5.84,12.84,12.84,0,0,1-.8,4.06c-1.37,3-3.76,4.94-6.94,6.88-4.75,2.89-.12,10.18,4.63,7.29Z" transform="translate(-154.05 -274)"/></g><g id="Body"><ellipse class="cls-5" cx="302.37" cy="354.38" rx="38.21" ry="31.3" transform="translate(-316.28 46.38) rotate(-45.34)"/><path class="cls-6" d="M340.44,370.11c.29,4.51-3.15,9.61-3.15,9.61h0l-1.78-1.65a10.79,10.79,0,0,0,.06-8.42,10.66,10.66,0,0,0-4.92-5.16l-3,7.38-.89-.77h0c-.06-.24-1.24-5,1.92-8.05a6.19,6.19,0,0,1,4-1.89C336.54,361.11,340.16,365.88,340.44,370.11Z" transform="translate(-154.05 -274)"/><path class="cls-6" d="M336.22,369.31l8.38,8.29a.69.69,0,0,1,.11.13c.62.77.46,2.22-.32,4a32.54,32.54,0,0,1-6.64,9.1,42,42,0,0,1-5.06,4.38h0a22.45,22.45,0,0,1-4.17,2.45c-1.8.76-3.22.87-3.94.16l-8.38-8.28a7.72,7.72,0,0,1-2.28-4.9,7.47,7.47,0,0,1,.41-3.07,8.54,8.54,0,0,1,.46-1,7,7,0,0,1,1.23-1.66l9.54-9.66a7.37,7.37,0,0,1,5.5-2.18,6.64,6.64,0,0,1,1,.1A7.59,7.59,0,0,1,335,368.3,7.93,7.93,0,0,1,336.22,369.31Z" transform="translate(-154.05 -274)"/><path class="cls-1" d="M335.82,368.92l8.67,8.57.12.13c.64.8.5,2.27-.26,4.1a31.72,31.72,0,0,1-6.6,9.14,41.21,41.21,0,0,1-5.07,4.37h0a21.5,21.5,0,0,1-4.19,2.43c-1.82.74-3.27.83-4,.1l-8.67-8.57a8.54,8.54,0,0,1-1.74-2.5,45.09,45.09,0,0,0,14.42-9.86,45.75,45.75,0,0,0,6.65-8.52A6.64,6.64,0,0,1,335.82,368.92Z" transform="translate(-154.05 -274)"/></g><path class="cls-6" d="M324.09,379.79l13,12.83a43.42,43.42,0,0,1-4.28,3.58h0a24.49,24.49,0,0,1-4.53,2.69c-1.95.85-3.48,1-4.25.23l-8.95-8.85a8,8,0,0,1-2.4-5.26,1.93,1.93,0,0,1,0-.24c-2.18-.38-3.45-3.56-1-4.73l9.26-4.38C323.67,374.37,326.11,378.08,324.09,379.79Z" transform="translate(-154.05 -274)"/><path class="cls-6" d="M335.55,367.09a9.21,9.21,0,0,1,1.36,1.08l8.95,8.85.12.14c.65.83.46,2.39-.4,4.35a23.65,23.65,0,0,1-1.8,3.24l-12.57-12.42a2.45,2.45,0,0,1-2.45.72,2.61,2.61,0,0,1-1.87-3.15q.86-2.36,1.72-4.71a2.6,2.6,0,0,1,5.09,1A8.42,8.42,0,0,1,335.55,367.09Z" transform="translate(-154.05 -274)"/><path class="cls-6" d="M317.13,377.47c-2.08-.41-4.27.46-6.22,2.43l-3.8,3.85-3.81,3.85c-1.94,2-2.79,4.17-2.35,6.25.83,4,7.11,5.24,7.72,5.36s6.09,1.14,10.11-2.35c.31-.28.58-.54.8-.78a10.57,10.57,0,0,0,.78-.82c3.44-4.06,2.33-9.65,2.22-10.13S321.11,378.25,317.13,377.47Zm.21,9a10.68,10.68,0,0,1,.25,7.65,10.78,10.78,0,0,1-7.65-.16,10.61,10.61,0,0,1-5.23-4.85l3.82-4,3.9-3.86A10.6,10.6,0,0,1,317.34,386.46Z" transform="translate(-154.05 -274)"/><path class="cls-6" d="M325.34,339.92a15,15,0,0,0,4-1.87,7.17,7.17,0,0,1-2.48,8.14,6.91,6.91,0,0,1-2.44,1.15l-7.63-7.54a6.44,6.44,0,0,0-.69-.6c-.15-.11-.3-.22-.46-.32a36.09,36.09,0,0,0-6.22,2q-.94.4-1.86.87c-.54.27-1.06.55-1.58.86l-.39.22a31.63,31.63,0,0,0-5.89,4.35l-.74.71c-.23.23-.45.45-.66.68s-.38.4-.57.62a25.12,25.12,0,0,0-4,5.82,21.41,21.41,0,0,0-1.06,2.62,23.45,23.45,0,0,0-1.2,6.53c0,.79,0,1.58,0,2.37h0l.21.18,9.21,9.11a3,3,0,0,1,0,4.27,1.07,1.07,0,0,1-.16.14,3,3,0,0,1-2.24.75h0a3,3,0,0,1-1.28-.4,2.85,2.85,0,0,1-.59-.46l-5.59-5.52.07,0-1.24-1.22-.07,0,.15.14a5.2,5.2,0,0,0-.78.64,4.78,4.78,0,0,0-.81,1.11,5,5,0,0,1-1.83-.48c-5.8-2.7-10-8.58-8.74-15.12,1-5.4,5.2-9.53,10.12-11.76a33.45,33.45,0,0,1,4.76-6,43,43,0,0,1,15.41-9.81,21.51,21.51,0,0,0,2.65-4.56,21.89,21.89,0,0,0,1.65-6.43,10.92,10.92,0,0,1,7.36,9.37,18.74,18.74,0,0,0,1.38-3.43,9.37,9.37,0,0,1,4.69,10.18,8.61,8.61,0,0,1-1.25,2.87C324.84,340.06,325.09,340,325.34,339.92Z" transform="translate(-154.05 -274)"/><path class="cls-6" d="M316.79,339.8l12.28,12.13a7.13,7.13,0,0,1,.06,10.08l-16.39,16.58-.29.29-.34.31-.2.17c-.14.11-.27.23-.42.34l-.53.38c-.15.11-.29.2-.44.29l-.23.14-.23.14-.3.16q-.27.15-.54.27l-.52.23-.34.13c-.13.06-.26.1-.4.15l-.15.05c-.37.12-.75.22-1.13.31l-.33.06-.45.09-.51.06h-.06l-.37,0h-.09s0,0,0,0l-.21,0h-.54c-.21,0-.42,0-.63,0l-.61,0-.6-.07-.26,0c-.37-.06-.74-.14-1.1-.23a12.87,12.87,0,0,1-1.33-.43c-.19-.07-.37-.15-.56-.24l-.45-.2a3,3,0,0,0,2.24-.75,1.07,1.07,0,0,0,.16-.14,3,3,0,0,0,0-4.27l-9.21-9.11-.21-.18h0c0-.79,0-1.58,0-2.37a23.45,23.45,0,0,1,1.2-6.53,21.41,21.41,0,0,1,1.06-2.62,25.12,25.12,0,0,1,4-5.82c.19-.22.38-.42.57-.62s.43-.45.66-.68l.74-.71a31.63,31.63,0,0,1,5.89-4.35l.39-.22c.52-.31,1-.59,1.58-.86s1.23-.6,1.86-.87a36.09,36.09,0,0,1,6.22-2c.16.1.31.21.46.32A6.44,6.44,0,0,1,316.79,339.8Z" transform="translate(-154.05 -274)"/><path class="cls-6" d="M326.68,349.58l2.39,2.35a7.13,7.13,0,0,1,.06,10.08l-16.39,16.58a12.26,12.26,0,0,1-9.29,3.64c-.89-8.25,2.18-17.32,9-24.24A31.66,31.66,0,0,1,326.68,349.58Z" transform="translate(-154.05 -274)"/><path class="cls-1" d="M306,342.61,307,365.25l.77,16.39c-.37.12-.75.22-1.13.31l-.33.06-.45.09-.51.06h-.06l-.37,0h-.09s0,0,0,0l-.21,0h-.54c-.21,0-.42,0-.63,0l-.61,0-.6-.07-.26,0c-.37-.06-.74-.14-1.1-.23a12.87,12.87,0,0,1-1.33-.43c-.19-.07-.37-.15-.56-.24l-.45-.2a3,3,0,0,0,2.24-.75,1.07,1.07,0,0,0,.16-.14,3,3,0,0,0,0-4.27l-9.21-9.11-.21-.18h0c0-.79,0-1.58,0-2.37a23.45,23.45,0,0,1,1.2-6.53,21.41,21.41,0,0,1,1.06-2.62,25.12,25.12,0,0,1,4-5.82c.19-.22.38-.42.57-.62s.43-.45.66-.68l.74-.71a31.63,31.63,0,0,1,5.89-4.35Z" transform="translate(-154.05 -274)"/><path class="cls-6" d="M300.78,380.23l.1,1.62a12.87,12.87,0,0,1-1.33-.43l0-.52A2.91,2.91,0,0,0,300.78,380.23Z" transform="translate(-154.05 -274)"/><path class="cls-6" d="M299,347.89l1.55,27.52-1.38-1.36L298,353l-.22-3.76c.19-.22.38-.42.57-.62S298.73,348.12,299,347.89Z" transform="translate(-154.05 -274)"/><path class="cls-6" d="M297.26,380.57a4.68,4.68,0,0,1-.68.86,5.06,5.06,0,0,1-7.17-.11,5.13,5.13,0,0,1-1-6.06,4.78,4.78,0,0,1,.81-1.11,5.2,5.2,0,0,1,.78-.64l.07,0,1.09,1.08-.07,0,5.59,5.52A2.85,2.85,0,0,0,297.26,380.57Z" transform="translate(-154.05 -274)"/><path class="cls-6" d="M311,324.33h0c.69,1.05.85,3,.51,5.45l0-.09a7.36,7.36,0,0,0-.42-.9,8.87,8.87,0,0,0-5.33-4h0a12,12,0,0,0-7.2.16,19.79,19.79,0,0,1,2.72,3.23c.22.32.43.66.65,1a12.13,12.13,0,0,0-1.22-.53l-.2-.08a13.87,13.87,0,0,0-3.24-.72,12.84,12.84,0,0,0-6.43,1,25.58,25.58,0,0,1,5.33,4.33,22.15,22.15,0,0,1,2.19,2.73l.14.21a19.22,19.22,0,0,1,1.31,2.26,13.63,13.63,0,0,0-1.36-1.27c-.29-.24-.6-.47-.91-.68a11.55,11.55,0,0,0-2.94-1.51,8.05,8.05,0,0,0-1.34-.36c.19.3.43.66.69,1.1a25.2,25.2,0,0,1,2.91,6.69c.07.27.13.53.19.78s.09.4.12.59a13.76,13.76,0,0,1-.09,6.24A27.44,27.44,0,0,1,285,361.87h0c-2.21.65-3.93.64-4.75-.18-1.5-1.52.18-5.75,2.32-9.72l-.12,0c.37-.9,2.47-6.26-.35-11.14A11,11,0,0,0,280,338.3a8.76,8.76,0,0,1,6.7,0,16.78,16.78,0,0,0-.78-4.28,17.66,17.66,0,0,0-2.35-4.68,15.61,15.61,0,0,1,4.14-.1l-.11-.13a17.7,17.7,0,0,0-4-3.35,13.53,13.53,0,0,1,11.91-1.65,16,16,0,0,0-1.53-2.05,16.69,16.69,0,0,0-5.22-3.93A14.25,14.25,0,0,1,307,318,12.94,12.94,0,0,1,311,324.33Z" transform="translate(-154.05 -274)"/><path class="cls-6" d="M316.1,335.92c-.84,2.95-3.8,4.84-6.73,3.66h0a12,12,0,0,1-1.64,1.62,43.38,43.38,0,0,1-6.05,9.14c-5,5.75-12,10.13-16.71,11.52A27.44,27.44,0,0,0,297,349.92a13.76,13.76,0,0,0,.09-6.24c0-.19-.07-.39-.12-.59s-.12-.51-.19-.78a25.2,25.2,0,0,0-2.91-6.69c-.26-.44-.5-.8-.69-1.1a8.05,8.05,0,0,1,1.34.36,11.55,11.55,0,0,1,2.94,1.51c.31.21.62.44.91.68a13.63,13.63,0,0,1,1.36,1.27,19.22,19.22,0,0,0-1.31-2.26l-.14-.21a22.15,22.15,0,0,0-2.19-2.73,25.58,25.58,0,0,0-5.33-4.33,12.84,12.84,0,0,1,6.43-1,13.87,13.87,0,0,1,3.24.72.76.76,0,0,1,.09.18l.11-.1a12.13,12.13,0,0,1,1.22.53c-.22-.37-.43-.71-.65-1a19.79,19.79,0,0,0-2.72-3.23,12,12,0,0,1,7.2-.16h0a8.87,8.87,0,0,1,5.33,4,7.36,7.36,0,0,1,.42.9l0,.09a8.64,8.64,0,0,1,.46,3.57,17.67,17.67,0,0,0,1.4-6.21A9,9,0,0,1,316.1,335.92Z" transform="translate(-154.05 -274)"/><path class="cls-6" d="M314,369.31a32.55,32.55,0,0,1,8.15-7.9c1.38-.93.09-3.18-1.29-2.25a36.31,36.31,0,0,0-9.12,8.88c-1,1.35,1.3,2.61,2.26,1.27Z" transform="translate(-154.05 -274)"/><path class="cls-6" d="M322.26,347.49a7.63,7.63,0,0,1,.79.93h0c.09.13.18.26.26.39,1.23,1.93,1.33,4.15.1,5.46a.21.21,0,0,1-.06.08c-1.59,1.61-4.66,1.15-6.86-1s-2.7-5.24-1.11-6.85a2.92,2.92,0,0,1,1.18-.74C318.23,345.12,320.52,345.77,322.26,347.49Z" transform="translate(-154.05 -274)"/><path class="cls-1" d="M321.23,346.28a3.74,3.74,0,0,1,.57.69h0a2.91,2.91,0,0,1,.17.3,4.07,4.07,0,0,1-.64,4.72l-.06.07a4.1,4.1,0,1,1-5.83-5.76,3.83,3.83,0,0,1,1.11-.79A4.08,4.08,0,0,1,321.23,346.28Z" transform="translate(-154.05 -274)"/><path class="cls-6" d="M311.67,346.84l7.87-4.29c2.58-1.4.3-5.34-2.27-3.94l-7.87,4.29c-2.57,1.4-.29,5.34,2.27,3.94Z" transform="translate(-154.05 -274)"/><path class="cls-5" d="M325.73,380.27c1.55-5.24.47-10.63-1.15-15.72a4.36,4.36,0,0,0-5.6-2.43,4.41,4.41,0,0,0-2.43,5.61c.95,3,1.79,6.41,1.08,9.56a5,5,0,0,0-1.66,2c-.19.41-.4.8-.61,1.2-.07.08-.42.65-.48.73-.25.34-.51.66-.79,1-.06.07-.43.45-.5.54-.24.22-.49.43-.74.63a19,19,0,0,1-1.77,1.2c-2.34,1.4-2.73,5.22-1.09,7.25a5.33,5.33,0,0,0,7.25,1.08,21.05,21.05,0,0,0,8.19-9.37,5.19,5.19,0,0,0,.29-3.21A.43.43,0,0,0,325.73,380.27Z" transform="translate(-154.05 -274)"/></g><path class="cls-4" d="M196,467.35a2.68,2.68,0,0,1,.91-1,2.17,2.17,0,0,1,1.13-.32,2.38,2.38,0,0,1,1,.21,3.24,3.24,0,0,1,.85.54,2.55,2.55,0,0,1,.6.78,2.06,2.06,0,0,1,.23.93,2.55,2.55,0,0,1-.42,1.32l-4,6.39v5.31a2.28,2.28,0,0,1-.74,1.83,2.55,2.55,0,0,1-1.72.63,2.62,2.62,0,0,1-1.76-.63,2.27,2.27,0,0,1-.73-1.83v-5.31l-4-6.39a2.55,2.55,0,0,1-.42-1.32,2,2,0,0,1,.22-.93,2.55,2.55,0,0,1,.6-.78,3.29,3.29,0,0,1,.86-.54,2.38,2.38,0,0,1,1-.21,2.14,2.14,0,0,1,1.12.32,2.7,2.7,0,0,1,.92,1l2.19,3.75Z" transform="translate(-154.05 -274)"/><path class="cls-4" d="M200.72,475a9,9,0,0,1,.72-3.57,9.34,9.34,0,0,1,1.95-2.92,9.07,9.07,0,0,1,2.91-2,9.21,9.21,0,0,1,7.14,0,9.24,9.24,0,0,1,4.89,4.89,9.21,9.21,0,0,1,0,7.14,9.07,9.07,0,0,1-2,2.91,9.34,9.34,0,0,1-2.92,1.95,9.21,9.21,0,0,1-7.14,0,9,9,0,0,1-4.86-4.86A9,9,0,0,1,200.72,475Zm5,.06a4.08,4.08,0,0,0,4.14,4.14,4.22,4.22,0,0,0,1.63-.31,3.89,3.89,0,0,0,1.32-.89,4.45,4.45,0,0,0,.89-1.32,4,4,0,0,0,.33-1.62,4.06,4.06,0,0,0-.33-1.63,4.17,4.17,0,0,0-2.21-2.21,4.06,4.06,0,0,0-1.63-.33,4,4,0,0,0-1.62.33,4.45,4.45,0,0,0-1.32.89,3.89,3.89,0,0,0-.89,1.32A4.22,4.22,0,0,0,205.76,475Z" transform="translate(-154.05 -274)"/><path class="cls-4" d="M235.22,476.11q0,7.89-7.2,7.89t-7.32-7.89v-7.56a2.27,2.27,0,0,1,.73-1.83,2.72,2.72,0,0,1,3.48,0,2.28,2.28,0,0,1,.74,1.83v8.31q0,2.22,2.31,2.22t2.31-2.22v-8.31a2.27,2.27,0,0,1,.73-1.83,2.72,2.72,0,0,1,3.48,0,2.28,2.28,0,0,1,.74,1.83Z" transform="translate(-154.05 -274)"/><path class="cls-4" d="M248.06,481.51a2.28,2.28,0,0,1-.74,1.83,2.68,2.68,0,0,1-3.45,0,2.27,2.27,0,0,1-.73-1.83v-13a2.19,2.19,0,0,1,2.46-2.49H254a2.34,2.34,0,0,1,1.83.74,2.66,2.66,0,0,1,0,3.51A2.33,2.33,0,0,1,254,471h-5.94v1.5h4.74a2.34,2.34,0,0,1,1.83.74,2.66,2.66,0,0,1,0,3.51,2.33,2.33,0,0,1-1.83.73h-4.74Z" transform="translate(-154.05 -274)"/><path class="cls-4" d="M260.27,484a2.19,2.19,0,0,1-2.46-2.49v-13a2.19,2.19,0,0,1,2.46-2.49h8.4a2.34,2.34,0,0,1,1.83.74,2.66,2.66,0,0,1,0,3.51,2.33,2.33,0,0,1-1.83.73h-5.94v1.5h4.74a2.34,2.34,0,0,1,1.83.74,2.66,2.66,0,0,1,0,3.51,2.33,2.33,0,0,1-1.83.73h-4.74V479h5.94a2.34,2.34,0,0,1,1.83.74,2.66,2.66,0,0,1,0,3.51,2.33,2.33,0,0,1-1.83.73Z" transform="translate(-154.05 -274)"/><path class="cls-4" d="M275.63,484a2.19,2.19,0,0,1-2.46-2.49v-13a2.27,2.27,0,0,1,.73-1.83,2.68,2.68,0,0,1,3.45,0,2.28,2.28,0,0,1,.74,1.83V479h2.64a2.12,2.12,0,0,1,1.74.74,2.67,2.67,0,0,1,.6,1.75,2.7,2.7,0,0,1-.6,1.76,2.11,2.11,0,0,1-1.74.73Z" transform="translate(-154.05 -274)"/><path class="cls-4" d="M286.85,484a2.19,2.19,0,0,1-2.46-2.49v-13a2.27,2.27,0,0,1,.73-1.83,2.68,2.68,0,0,1,3.45,0,2.28,2.28,0,0,1,.74,1.83V479H292a2.12,2.12,0,0,1,1.74.74,2.67,2.67,0,0,1,.6,1.75,2.7,2.7,0,0,1-.6,1.76A2.11,2.11,0,0,1,292,484Z" transform="translate(-154.05 -274)"/><path class="cls-4" d="M306.5,481.51a2.28,2.28,0,0,1-.74,1.83A2.55,2.55,0,0,1,304,484a2.62,2.62,0,0,1-1.76-.63,2.27,2.27,0,0,1-.73-1.83v-13a2.27,2.27,0,0,1,.73-1.83,2.62,2.62,0,0,1,1.76-.63,2.55,2.55,0,0,1,1.72.63,2.28,2.28,0,0,1,.74,1.83Z" transform="translate(-154.05 -274)"/><path class="cls-4" d="M313.52,481.51a2.28,2.28,0,0,1-.74,1.83,2.72,2.72,0,0,1-3.48,0,2.27,2.27,0,0,1-.73-1.83v-13a2.27,2.27,0,0,1,.73-1.83,2.58,2.58,0,0,1,1.73-.63h.12A2,2,0,0,1,313,467.2l4.5,6.81v-5.46a2.27,2.27,0,0,1,.73-1.83,2.72,2.72,0,0,1,3.48,0,2.28,2.28,0,0,1,.74,1.83v13a2.28,2.28,0,0,1-.74,1.83A2.6,2.6,0,0,1,320,484a2.77,2.77,0,0,1-.87-.12,2.38,2.38,0,0,1-.62-.3,2.06,2.06,0,0,1-.4-.36l-.24-.3-4.35-6.48Z" transform="translate(-154.05 -274)"/><path class="cls-4" d="M340.91,480.52H335.6l-.75,1.92a2.46,2.46,0,0,1-.92,1.22,2.3,2.3,0,0,1-1.27.37,2.92,2.92,0,0,1-1-.16,2.87,2.87,0,0,1-.85-.48,2.43,2.43,0,0,1-.62-.74,2,2,0,0,1-.22-1,2.31,2.31,0,0,1,.21-1l5.91-13.05a2.88,2.88,0,0,1,1.05-1.26,2.49,2.49,0,0,1,1.35-.42,2.4,2.4,0,0,1,1.33.42,2.57,2.57,0,0,1,1,1.26l5.43,13.05a2.31,2.31,0,0,1,.21,1,2.05,2.05,0,0,1-.23.95,2.32,2.32,0,0,1-.61.75,2.85,2.85,0,0,1-.87.48,2.93,2.93,0,0,1-1,.16,2.39,2.39,0,0,1-1.29-.37,2.28,2.28,0,0,1-.9-1.22Zm-3.75-3.9h2.4l-1.11-3.21Z" transform="translate(-154.05 -274)"/><path class="cls-4" d="M367.91,481.51a2.28,2.28,0,0,1-.74,1.83,2.72,2.72,0,0,1-3.48,0,2.27,2.27,0,0,1-.73-1.83v-4h-4v4a2.28,2.28,0,0,1-.74,1.83,2.72,2.72,0,0,1-3.48,0,2.27,2.27,0,0,1-.73-1.83v-13a2.27,2.27,0,0,1,.73-1.83,2.72,2.72,0,0,1,3.48,0,2.28,2.28,0,0,1,.74,1.83v4h4v-4a2.27,2.27,0,0,1,.73-1.83,2.72,2.72,0,0,1,3.48,0,2.28,2.28,0,0,1,.74,1.83Z" transform="translate(-154.05 -274)"/><path class="cls-4" d="M369.67,475a9,9,0,0,1,.73-3.57,9.32,9.32,0,0,1,1.94-2.92,9.18,9.18,0,0,1,2.91-2,9.24,9.24,0,0,1,7.15,0,9.24,9.24,0,0,1,4.89,4.89,9.33,9.33,0,0,1,0,7.14,9.24,9.24,0,0,1-2,2.91,9.46,9.46,0,0,1-2.92,1.95,9.24,9.24,0,0,1-7.15,0,9.3,9.3,0,0,1-2.91-1.95,9.16,9.16,0,0,1-1.94-2.91A9,9,0,0,1,369.67,475Zm5,.06a4.14,4.14,0,0,0,.32,1.62,4.1,4.1,0,0,0,.89,1.32,4,4,0,0,0,1.32.89,4.07,4.07,0,0,0,1.62.31,4.26,4.26,0,0,0,1.63-.31,3.89,3.89,0,0,0,1.32-.89,4.65,4.65,0,0,0,.89-1.32A4,4,0,0,0,383,475a4.06,4.06,0,0,0-.33-1.63,4.38,4.38,0,0,0-.89-1.32,4.21,4.21,0,0,0-1.32-.89,4.09,4.09,0,0,0-1.63-.33,3.91,3.91,0,0,0-1.62.33,4.32,4.32,0,0,0-1.32.89,3.89,3.89,0,0,0-.89,1.32A4.23,4.23,0,0,0,374.71,475Z" transform="translate(-154.05 -274)"/><path class="cls-4" d="M392.21,484a2.19,2.19,0,0,1-2.47-2.49v-13a2.28,2.28,0,0,1,.74-1.83,2.68,2.68,0,0,1,3.45,0,2.28,2.28,0,0,1,.74,1.83V479h2.63a2.12,2.12,0,0,1,1.74.74,2.67,2.67,0,0,1,.6,1.75,2.7,2.7,0,0,1-.6,1.76,2.11,2.11,0,0,1-1.74.73Z" transform="translate(-154.05 -274)"/><path class="cls-4" d="M403.42,484a2.19,2.19,0,0,1-2.46-2.49v-13a2.19,2.19,0,0,1,2.46-2.49h8.4a2.34,2.34,0,0,1,1.83.74,2.66,2.66,0,0,1,0,3.51,2.33,2.33,0,0,1-1.83.73h-5.94v1.5h4.74a2.34,2.34,0,0,1,1.83.74,2.66,2.66,0,0,1,0,3.51,2.33,2.33,0,0,1-1.83.73h-4.74V479h5.94a2.34,2.34,0,0,1,1.83.74,2.66,2.66,0,0,1,0,3.51,2.33,2.33,0,0,1-1.83.73Z" transform="translate(-154.05 -274)"/><path class="cls-4" d="M420.7,483.13a2.3,2.3,0,0,1-.19.95,2.6,2.6,0,0,1-.54.78,2.57,2.57,0,0,1-.8.54,2.52,2.52,0,0,1-1.92,0,2.52,2.52,0,0,1-.79-.54,2.6,2.6,0,0,1-.54-.78,2.31,2.31,0,0,1-.2-.95,2.49,2.49,0,0,1,5,0Z" transform="translate(-154.05 -274)"/><rect class="cls-6" x="64.95" y="158" width="170" height="22" rx="9.31"/><rect class="cls-5" x="126.95" y="11" width="19" height="19" rx="9.5"/></g></svg>