<svg xmlns="http://www.w3.org/2000/svg" viewBox="0 0 299.83 365.39"><defs><style>.cls-1,.cls-6{fill:#6b6eb3;}.cls-2{fill:none;stroke-width:6px;stroke-dasharray:29.41 29.41;}.cls-2,.cls-6{stroke:#343961;stroke-linecap:round;}.cls-2,.cls-3,.cls-6{stroke-miterlimit:10;}.cls-3{fill:#f15a29;stroke:#ef4136;stroke-width:7px;}.cls-4{fill:#fff;}.cls-5{fill:#343961;}.cls-6{stroke-width:2px;}</style></defs><title>PopupWin</title><g id="Win"><rect class="cls-1" x="3" y="3" width="293.83" height="359.39" rx="41.51"/><rect class="cls-2" x="3" y="3" width="293.83" height="359.39" rx="41.51"/><rect class="cls-3" x="26.17" y="252.89" width="251.96" height="83.74" rx="25.53"/><path class="cls-4" d="M224.77,526.45l-8.48,32H208l-4.48-17.65-4.22,17.65h-8.61l-8.5-32h9.25L196,544.87l4.37-18.42H208l4.74,18.45,4.49-18.45Z" transform="translate(-154.05 -247)"/><path class="cls-4" d="M245.75,558.94a14.5,14.5,0,0,1-11-4.48q-4.25-4.47-4.25-12a17.37,17.37,0,0,1,4.06-11.84q4.06-4.68,11.29-4.68a14.39,14.39,0,0,1,10.89,4.41c2.8,2.93,4.2,6.86,4.2,11.76q0,7.62-4.24,12.21A14.21,14.21,0,0,1,245.75,558.94Zm-.05-7.27a3.7,3.7,0,0,0,3.57-2.17c.73-1.44,1.09-4.09,1.09-7.93q0-8.34-4.47-8.34-4.83,0-4.83,9.51Q241.06,551.68,245.7,551.67Z" transform="translate(-154.05 -247)"/><path class="cls-4" d="M283.71,558.94a14.46,14.46,0,0,1-11-4.48q-4.26-4.47-4.26-12a17.38,17.38,0,0,1,4.07-11.84Q276.59,526,283.8,526a14.36,14.36,0,0,1,10.89,4.41c2.8,2.93,4.21,6.86,4.21,11.76q0,7.62-4.25,12.21A14.18,14.18,0,0,1,283.71,558.94Zm0-7.27a3.72,3.72,0,0,0,3.58-2.17c.72-1.44,1.09-4.09,1.09-7.93q0-8.34-4.48-8.34-4.83,0-4.83,9.51Q279,551.68,283.66,551.67Z" transform="translate(-154.05 -247)"/><path class="cls-4" d="M351.79,526.45v32H342V546h-7.5v12.45h-9.82v-32h9.82v11.77H342V526.45Z" transform="translate(-154.05 -247)"/><path class="cls-4" d="M376,558.94a14.5,14.5,0,0,1-11-4.48q-4.24-4.47-4.25-12a17.38,17.38,0,0,1,4.07-11.84q4.07-4.68,11.28-4.68A14.38,14.38,0,0,1,387,530.37c2.8,2.93,4.21,6.86,4.21,11.76q0,7.62-4.25,12.21A14.18,14.18,0,0,1,376,558.94Zm-.05-7.27a3.72,3.72,0,0,0,3.58-2.17c.72-1.44,1.09-4.09,1.09-7.93q0-8.34-4.48-8.34-4.83,0-4.83,9.51Q371.28,551.68,375.92,551.67Z" transform="translate(-154.05 -247)"/><path class="cls-4" d="M413.93,558.94a14.48,14.48,0,0,1-11-4.48q-4.26-4.47-4.25-12a17.37,17.37,0,0,1,4.06-11.84Q406.8,526,414,526a14.35,14.35,0,0,1,10.88,4.41c2.81,2.93,4.21,6.86,4.21,11.76q0,7.62-4.24,12.21A14.21,14.21,0,0,1,413.93,558.94Zm0-7.27a3.71,3.71,0,0,0,3.57-2.17c.73-1.44,1.09-4.09,1.09-7.93q0-8.34-4.48-8.34-4.81,0-4.82,9.51Q409.25,551.68,413.89,551.67Z" transform="translate(-154.05 -247)"/><path class="cls-4" d="M185.81,472.1a4.54,4.54,0,0,0-1.81.33,3.86,3.86,0,0,0-1.29.89,3.6,3.6,0,0,0-.78,1.26,4.22,4.22,0,0,0-.26,1.45,4.38,4.38,0,0,0,.26,1.47,3.59,3.59,0,0,0,.78,1.28,4,4,0,0,0,1.29.9,4.28,4.28,0,0,0,1.78.34h1.83a2.67,2.67,0,0,1,1.1.21,2.25,2.25,0,0,1,.78.57,2.33,2.33,0,0,1,.46.81,2.83,2.83,0,0,1,.15.9,2.66,2.66,0,0,1-.63,1.73,2.27,2.27,0,0,1-1.86.76h-1.8a9.33,9.33,0,0,1-3.9-.76,8.53,8.53,0,0,1-2.8-2,8.08,8.08,0,0,1-1.68-2.82,9.86,9.86,0,0,1-.56-3.27,9.74,9.74,0,0,1,.59-3.33,8.81,8.81,0,0,1,1.74-2.91,8.44,8.44,0,0,1,2.91-2.07,10,10,0,0,1,4.09-.78h1.41a2.67,2.67,0,0,1,1.1.21,2.25,2.25,0,0,1,.78.57,2.56,2.56,0,0,1,.48.81,2.78,2.78,0,0,1,0,1.86,2.56,2.56,0,0,1-.48.81,2.25,2.25,0,0,1-.78.57,2.67,2.67,0,0,1-1.1.21Z" transform="translate(-154.05 -247)"/><path class="cls-4" d="M191.84,476a9,9,0,0,1,.72-3.57,9.34,9.34,0,0,1,1.95-2.92,9.07,9.07,0,0,1,2.91-2,9.21,9.21,0,0,1,7.14,0,9.15,9.15,0,0,1,4.89,4.89,9.16,9.16,0,0,1-2,10.05,9.39,9.39,0,0,1-2.93,1.95,9.21,9.21,0,0,1-7.14,0,9,9,0,0,1-4.86-4.86A9,9,0,0,1,191.84,476Zm5,.06a4.14,4.14,0,0,0,.32,1.62,4.11,4.11,0,0,0,2.2,2.21,4.14,4.14,0,0,0,1.62.31,4.27,4.27,0,0,0,1.64-.31A3.89,3.89,0,0,0,204,479a4.42,4.42,0,0,0,.88-1.32,4,4,0,0,0,.33-1.62,4.06,4.06,0,0,0-.33-1.63,4.11,4.11,0,0,0-2.2-2.21,4.11,4.11,0,0,0-1.64-.33,4,4,0,0,0-1.62.33,4.45,4.45,0,0,0-1.32.89,3.87,3.87,0,0,0-.88,1.32A4.23,4.23,0,0,0,196.88,476Z" transform="translate(-154.05 -247)"/><path class="cls-4" d="M216.86,482.51a2.27,2.27,0,0,1-.73,1.83,2.62,2.62,0,0,1-1.76.63,2.55,2.55,0,0,1-1.72-.63,2.28,2.28,0,0,1-.74-1.83v-13a2.28,2.28,0,0,1,.74-1.83,2.55,2.55,0,0,1,1.72-.63h.12a2,2,0,0,1,1.89,1.11l4.5,6.81v-5.46a2.28,2.28,0,0,1,.74-1.83,2.55,2.55,0,0,1,1.72-.63,2.62,2.62,0,0,1,1.76.63,2.27,2.27,0,0,1,.73,1.83v13a2.27,2.27,0,0,1-.73,1.83,2.62,2.62,0,0,1-1.76.63,2.77,2.77,0,0,1-.87-.12,2.31,2.31,0,0,1-.61-.3,2.15,2.15,0,0,1-.41-.36l-.24-.3-4.35-6.48Z" transform="translate(-154.05 -247)"/><path class="cls-4" d="M240.77,482.51a2.36,2.36,0,0,1-.72,1.83,2.56,2.56,0,0,1-1.8.66h-1.8a9.33,9.33,0,0,1-3.9-.76,8.53,8.53,0,0,1-2.8-2,8.08,8.08,0,0,1-1.68-2.82,9.86,9.86,0,0,1-.56-3.27,9.74,9.74,0,0,1,.59-3.33,8.81,8.81,0,0,1,1.74-2.91,8.44,8.44,0,0,1,2.91-2.07,10,10,0,0,1,4.09-.78h1.41a2.67,2.67,0,0,1,1.1.21,2.25,2.25,0,0,1,.78.57,2.56,2.56,0,0,1,.48.81,2.78,2.78,0,0,1,0,1.86,2.56,2.56,0,0,1-.48.81,2.25,2.25,0,0,1-.78.57,2.67,2.67,0,0,1-1.1.21h-1.8a4.54,4.54,0,0,0-1.81.33,3.86,3.86,0,0,0-1.29.89,3.6,3.6,0,0,0-.78,1.26,4.22,4.22,0,0,0-.26,1.45,4.23,4.23,0,0,0,.89,2.57,3.66,3.66,0,0,0,1.09.93,3.86,3.86,0,0,0,1.53.46v-2.91a2.28,2.28,0,0,1,.74-1.83,2.72,2.72,0,0,1,3.48,0,2.27,2.27,0,0,1,.73,1.83Z" transform="translate(-154.05 -247)"/><path class="cls-4" d="M248.57,478.67a3.59,3.59,0,0,1-.75-2.16,1.85,1.85,0,0,1,.27-1.09,1.74,1.74,0,0,1,.69-.57,3.36,3.36,0,0,1,.9-.27,5.93,5.93,0,0,0,.9-.21,2,2,0,0,0,.72-.41,1.16,1.16,0,0,0,.33-.84q0-1.35-1.56-1.35H247.4v10.68a2.23,2.23,0,0,1-2.49,2.55,2.46,2.46,0,0,1-1.87-.64,2.58,2.58,0,0,1-.62-1.85v-13q0-2.49,2.4-2.49h5.34a7.27,7.27,0,0,1,2.72.47,5.48,5.48,0,0,1,1.9,1.23,4.88,4.88,0,0,1,1.11,1.74,5.77,5.77,0,0,1-.4,4.87,4.86,4.86,0,0,1-2.27,2l2.13,3.39a3,3,0,0,1,.48,1.59,2.52,2.52,0,0,1-.21,1,2.84,2.84,0,0,1-.55.84,2.46,2.46,0,0,1-.8.56,2.31,2.31,0,0,1-.93.19,2,2,0,0,1-1.06-.31,2.68,2.68,0,0,1-.92-1Z" transform="translate(-154.05 -247)"/><path class="cls-4" d="M268.49,481.52h-5.31l-.75,1.92a2.45,2.45,0,0,1-.91,1.22,2.33,2.33,0,0,1-1.28.37,2.86,2.86,0,0,1-1-.16,2.92,2.92,0,0,1-.86-.48,2.39,2.39,0,0,1-.61-.74,2,2,0,0,1-.23-1,2.31,2.31,0,0,1,.21-1l5.91-13.05a2.88,2.88,0,0,1,1.05-1.26,2.49,2.49,0,0,1,1.35-.42,2.43,2.43,0,0,1,1.34.42,2.56,2.56,0,0,1,1,1.26l5.43,13.05a2.31,2.31,0,0,1,.21,1,2,2,0,0,1-.22.95,2.35,2.35,0,0,1-.62.75,2.85,2.85,0,0,1-.87.48,2.93,2.93,0,0,1-1,.16,2.39,2.39,0,0,1-1.29-.37,2.28,2.28,0,0,1-.9-1.22Zm-3.75-3.9h2.4L266,474.41Z" transform="translate(-154.05 -247)"/><path class="cls-4" d="M281.72,482.51a2.27,2.27,0,0,1-.73,1.83,2.62,2.62,0,0,1-1.76.63,2.55,2.55,0,0,1-1.72-.63,2.28,2.28,0,0,1-.74-1.83V472H275a2.33,2.33,0,0,1-1.83-.73,2.66,2.66,0,0,1,0-3.51,2.34,2.34,0,0,1,1.83-.74h8.37a2.34,2.34,0,0,1,1.83.74,2.66,2.66,0,0,1,0,3.51,2.33,2.33,0,0,1-1.83.73h-1.68Z" transform="translate(-154.05 -247)"/><path class="cls-4" d="M300.41,479.27q0,5.73-5.58,5.73h-4.92a2.11,2.11,0,0,1-2.37-2.4v-.09q.06-2.49,2.4-2.49h5.16a.92.92,0,0,0,.75-.28,1,1,0,0,0,.24-.62.91.91,0,0,0-1-.9h-2.55q-5.28,0-5.28-5.43,0-5.73,5.64-5.73h4a2.11,2.11,0,0,1,2.37,2.4v.09q-.06,2.49-2.4,2.49h-4.26a.91.91,0,0,0-1,.9,1,1,0,0,0,.24.62.92.92,0,0,0,.75.28h2.55Q300.41,473.84,300.41,479.27Z" transform="translate(-154.05 -247)"/><path class="cls-4" d="M307.1,477.47a2.36,2.36,0,0,1-.72,1.83,2.6,2.6,0,0,1-3.46,0,2.34,2.34,0,0,1-.74-1.83v-7.92a2.28,2.28,0,0,1,.74-1.83,2.69,2.69,0,0,1,3.46,0,2.3,2.3,0,0,1,.72,1.83Zm.06,5a2.43,2.43,0,0,1-.72,1.76,2.34,2.34,0,0,1-1.74.73,2.38,2.38,0,0,1-1.75-.73A2.5,2.5,0,0,1,304.7,480a2.35,2.35,0,0,1,1.74.74A2.41,2.41,0,0,1,307.16,482.51Z" transform="translate(-154.05 -247)"/><path class="cls-4" d="M323.63,468.35a2.7,2.7,0,0,1,.92-1,2.14,2.14,0,0,1,1.12-.32,2.38,2.38,0,0,1,1,.21,3.29,3.29,0,0,1,.86.54,2.55,2.55,0,0,1,.6.78,2,2,0,0,1,.22.93,2.55,2.55,0,0,1-.42,1.32l-4,6.39v5.31a2.27,2.27,0,0,1-.73,1.83,2.72,2.72,0,0,1-3.48,0,2.28,2.28,0,0,1-.74-1.83v-5.31l-4-6.39a2.55,2.55,0,0,1-.42-1.32,2.06,2.06,0,0,1,.23-.93,2.55,2.55,0,0,1,.6-.78,3.24,3.24,0,0,1,.85-.54,2.38,2.38,0,0,1,1-.21,2.17,2.17,0,0,1,1.13.32,2.68,2.68,0,0,1,.91,1l2.19,3.75Z" transform="translate(-154.05 -247)"/><path class="cls-4" d="M328.31,476a9,9,0,0,1,.72-3.57,9.34,9.34,0,0,1,2-2.92,9.07,9.07,0,0,1,2.91-2,9.21,9.21,0,0,1,7.14,0,9.15,9.15,0,0,1,4.89,4.89,9.16,9.16,0,0,1-2,10.05A9.39,9.39,0,0,1,341,484.4a9.21,9.21,0,0,1-7.14,0,9,9,0,0,1-4.86-4.86A9,9,0,0,1,328.31,476Zm5,.06a4.14,4.14,0,0,0,.32,1.62,4.11,4.11,0,0,0,2.2,2.21,4.14,4.14,0,0,0,1.62.31,4.27,4.27,0,0,0,1.64-.31,3.89,3.89,0,0,0,1.32-.89,4.42,4.42,0,0,0,.88-1.32,4,4,0,0,0,.33-1.62,4.06,4.06,0,0,0-.33-1.63,4.11,4.11,0,0,0-2.2-2.21,4.11,4.11,0,0,0-1.64-.33,4,4,0,0,0-1.62.33,4.45,4.45,0,0,0-1.32.89,3.87,3.87,0,0,0-.88,1.32A4.23,4.23,0,0,0,333.35,476Z" transform="translate(-154.05 -247)"/><path class="cls-4" d="M362.81,477.11q0,7.89-7.2,7.89t-7.32-7.89v-7.56a2.28,2.28,0,0,1,.74-1.83,2.55,2.55,0,0,1,1.72-.63,2.62,2.62,0,0,1,1.76.63,2.27,2.27,0,0,1,.73,1.83v8.31q0,2.22,2.31,2.22t2.31-2.22v-8.31a2.28,2.28,0,0,1,.74-1.83,2.55,2.55,0,0,1,1.72-.63,2.62,2.62,0,0,1,1.76.63,2.27,2.27,0,0,1,.73,1.83Z" transform="translate(-154.05 -247)"/><path class="cls-4" d="M389.18,468.65a2.22,2.22,0,0,1,.81-1.3,2.13,2.13,0,0,1,1.26-.41,2.61,2.61,0,0,1,.9.17,2.56,2.56,0,0,1,.81.48,2.47,2.47,0,0,1,.59.76,2.18,2.18,0,0,1,.22,1,3.24,3.24,0,0,1-.15.9l-4.23,13.11a2.22,2.22,0,0,1-.94,1.29,2.67,2.67,0,0,1-1.43.42,2.61,2.61,0,0,1-1.45-.43,2.45,2.45,0,0,1-1-1.28l-2.28-6.6-2.13,6.6a2.22,2.22,0,0,1-.94,1.29,2.67,2.67,0,0,1-1.43.42,2.61,2.61,0,0,1-1.45-.43,2.45,2.45,0,0,1-1-1.28l-4.53-13.17a3.17,3.17,0,0,1-.15-.87,2.07,2.07,0,0,1,.23-1,2.52,2.52,0,0,1,.58-.75,2.56,2.56,0,0,1,.81-.48,2.69,2.69,0,0,1,.93-.17,2.21,2.21,0,0,1,1.28.41,2.18,2.18,0,0,1,.82,1.3l2.43,8.76,2.19-8.76a2.29,2.29,0,0,1,.89-1.32,2.38,2.38,0,0,1,1.39-.45,2.46,2.46,0,0,1,1.41.45,2.26,2.26,0,0,1,.9,1.32l2.43,8.76Z" transform="translate(-154.05 -247)"/><path class="cls-4" d="M394.22,476a9,9,0,0,1,.72-3.57,9.34,9.34,0,0,1,1.95-2.92,9.07,9.07,0,0,1,2.91-2,9.21,9.21,0,0,1,7.14,0,9.15,9.15,0,0,1,4.89,4.89,9.16,9.16,0,0,1-2,10.05,9.39,9.39,0,0,1-2.93,1.95,9.21,9.21,0,0,1-7.14,0,9,9,0,0,1-4.86-4.86A9,9,0,0,1,394.22,476Zm5,.06a4.14,4.14,0,0,0,.32,1.62,4.11,4.11,0,0,0,2.2,2.21,4.14,4.14,0,0,0,1.62.31,4.27,4.27,0,0,0,1.64-.31,3.89,3.89,0,0,0,1.32-.89,4.42,4.42,0,0,0,.88-1.32,4,4,0,0,0,.33-1.62,4.06,4.06,0,0,0-.33-1.63,4.11,4.11,0,0,0-2.2-2.21,4.11,4.11,0,0,0-1.64-.33,4,4,0,0,0-1.62.33,4.45,4.45,0,0,0-1.32.89,3.87,3.87,0,0,0-.88,1.32A4.23,4.23,0,0,0,399.26,476Z" transform="translate(-154.05 -247)"/><path class="cls-4" d="M419.24,482.51a2.27,2.27,0,0,1-.73,1.83,2.62,2.62,0,0,1-1.76.63,2.55,2.55,0,0,1-1.72-.63,2.28,2.28,0,0,1-.74-1.83v-13a2.28,2.28,0,0,1,.74-1.83,2.55,2.55,0,0,1,1.72-.63h.12a2,2,0,0,1,1.89,1.11l4.5,6.81v-5.46a2.25,2.25,0,0,1,.74-1.83,2.55,2.55,0,0,1,1.72-.63,2.62,2.62,0,0,1,1.76.63,2.27,2.27,0,0,1,.73,1.83v13a2.27,2.27,0,0,1-.73,1.83,2.62,2.62,0,0,1-1.76.63,2.77,2.77,0,0,1-.87-.12,2.31,2.31,0,0,1-.61-.3,2.15,2.15,0,0,1-.41-.36l-.24-.3-4.35-6.48Z" transform="translate(-154.05 -247)"/><path class="cls-4" d="M435,484.13a2.31,2.31,0,0,1-.2.95,2.6,2.6,0,0,1-.54.78,2.52,2.52,0,0,1-.79.54,2.52,2.52,0,0,1-1.92,0,2.57,2.57,0,0,1-.8-.54,2.6,2.6,0,0,1-.54-.78,2.3,2.3,0,0,1-.19-.95,2.38,2.38,0,0,1,.73-1.75,2.43,2.43,0,0,1,1.76-.74,2.53,2.53,0,0,1,2.49,2.49Z" transform="translate(-154.05 -247)"/><g id="playerref_copy_7" data-name="playerref copy 7"><path class="cls-5" d="M339.89,310c0,8.5-5.06,15.4-11.29,15.4H248V294.59H328.6a9.3,9.3,0,0,1,6.3,2.61C337.91,300,339.89,304.66,339.89,310Z" transform="translate(-154.05 -247)"/><path class="cls-5" d="M259.32,310c0,6.53-3,12.11-7.18,14.35a8.66,8.66,0,0,1-4.11,1.05,7.64,7.64,0,0,1-1.86-.22c-5.36-1.21-9.44-7.54-9.44-15.18,0-8.5,5.06-15.39,11.3-15.39H328.6a9.3,9.3,0,0,1,6.3,2.61H254.33C257.34,300,259.32,304.66,259.32,310Z" transform="translate(-154.05 -247)"/><ellipse class="cls-1" cx="93.98" cy="62.99" rx="9.01" ry="12.28"/><path class="cls-5" d="M253.55,315.08a4.78,4.78,0,0,1-5.23,2c-2.06-.71-3.34-3-3.43-5.69s3.26-2.74,3.35,0c0,1.41,1.13,1.88,2.06,1.44a3.09,3.09,0,0,0,1.45-3c-.15-2.83-2.25-4.55-4.36-4.13s-3.85,2.5-4.35,5.16c-1.12,5.84,3.09,11.18,7.48,11.25,1.1,0,1.64,1.14,1.62,2.24a8.66,8.66,0,0,1-4.11,1.05,7.64,7.64,0,0,1-1.86-.22,12.28,12.28,0,0,1-5.43-6.46c-1.69-4.36-1.63-9.58.86-13.43,2.34-3.64,6.8-5.17,10.08-2.72S256.36,311.27,253.55,315.08Z" transform="translate(-154.05 -247)"/><rect class="cls-5" x="83.51" y="78.17" width="88.91" height="108.52" rx="9.77"/><rect class="cls-6" x="102.49" y="78.17" width="88.91" height="108.52" rx="12"/><rect class="cls-1" x="83.43" y="135.42" width="16.55" height="31.12" rx="4.26"/><rect class="cls-5" x="78.77" y="135.42" width="16.55" height="31.12" rx="4.26"/><g id="RightFoot"><path class="cls-5" d="M334.69,423.64l9.72,19.73a5.35,5.35,0,0,1-2.42,7.12L336.94,453a5.33,5.33,0,0,1-7.12-2.42l-9.72-19.74Z" transform="translate(-154.05 -247)"/><path class="cls-5" d="M347.49,439.32l1.53,3.12a4.08,4.08,0,0,1,.42,1.58,4.15,4.15,0,0,1-2.29,3.93l-11.29,5.56a4.14,4.14,0,0,1-4.51-.58,4.18,4.18,0,0,1-1-1.3L327,444.82l15-7.37A4.14,4.14,0,0,1,347.49,439.32Z" transform="translate(-154.05 -247)"/><path class="cls-5" d="M349.44,444a4.15,4.15,0,0,1-2.29,3.93l-11.29,5.56a4.14,4.14,0,0,1-4.51-.58Z" transform="translate(-154.05 -247)"/></g><g id="RightFoot-2" data-name="RightFoot"><path class="cls-5" d="M288,425l-6.77,20.94a5.26,5.26,0,0,0-.09,2.91,5.31,5.31,0,0,0,3.52,3.78l5.35,1.73a5.35,5.35,0,0,0,5.07-1,5.25,5.25,0,0,0,1.62-2.42L303.5,430Z" transform="translate(-154.05 -247)"/><path class="cls-5" d="M277.63,442.37l-1.07,3.31a4.12,4.12,0,0,0,2.65,5.18l12,3.87a4.15,4.15,0,0,0,4.38-1.22,4.39,4.39,0,0,0,.81-1.43l2.33-7.23-15.89-5.13A4.14,4.14,0,0,0,277.63,442.37Z" transform="translate(-154.05 -247)"/><path class="cls-5" d="M276.38,447.31a4.14,4.14,0,0,0,2.83,3.55l12,3.87a4.15,4.15,0,0,0,4.38-1.22Z" transform="translate(-154.05 -247)"/></g><g id="RightArm"><path class="cls-5" d="M332.23,408.46c5.9,4.56,12.8,8.37,20.42,8.59,8.41.24,15.85-3.33,22.84-7.67,3-1.86,3.12-6.57,1.12-9.13-2.35-3-6.13-3-9.13-1.13a41.11,41.11,0,0,1-7.93,3.9,19.33,19.33,0,0,1-6.14,1.07c-5-.3-9-2.64-13.42-6.07-6.62-5.12-14.38,5.32-7.76,10.44Z" transform="translate(-154.05 -247)"/></g><g id="Body"><ellipse class="cls-6" cx="159.3" cy="109.08" rx="57.56" ry="47.15"/><path class="cls-5" d="M336.8,413.53c-4.53,5.08-13.63,6.8-13.63,6.8h0c0-1.22-.08-2.44-.11-3.65a16.28,16.28,0,0,0,9.07-8.86,16,16,0,0,0,.34-10.74l-11.11,4.57-.12-1.75h0c.19-.33,4-6.6,10.66-6.47a9.32,9.32,0,0,1,6.31,2.33C342.32,399.82,341,408.76,336.8,413.53Z" transform="translate(-154.05 -247)"/><path class="cls-5" d="M333.19,408.15v17.76a2.28,2.28,0,0,1,0,.26c-.18,1.48-1.9,2.84-4.67,3.92-3.93,1.54-10,2.52-16.78,2.52a61.88,61.88,0,0,1-10.05-.78h0a32.36,32.36,0,0,1-7-1.87c-2.73-1.12-4.35-2.52-4.35-4V408.15a11.61,11.61,0,0,1,2.84-7.62,11.37,11.37,0,0,1,3.73-2.82,11.33,11.33,0,0,1,4.67-1H322a11.1,11.1,0,0,1,8.16,3.59,10.58,10.58,0,0,1,.94,1.16,11.74,11.74,0,0,1,2.14,6.73Z" transform="translate(-154.05 -247)"/><path class="cls-1" d="M333.19,407.31v18.37a2.45,2.45,0,0,1,0,.27c-.18,1.53-1.9,2.93-4.66,4.05-3.95,1.59-10,2.61-16.79,2.61a59.55,59.55,0,0,1-10.05-.81h0a32.68,32.68,0,0,1-7-1.94c-2.73-1.16-4.35-2.61-4.35-4.18V407.31a12.68,12.68,0,0,1,.83-4.51,67.72,67.72,0,0,0,25.84,5,69.41,69.41,0,0,0,16.18-1.89A12.66,12.66,0,0,1,333.19,407.31Z" transform="translate(-154.05 -247)"/></g><path class="cls-5" d="M309.12,406.26v27.49a65.34,65.34,0,0,1-8.37-.78h0a36.54,36.54,0,0,1-7.67-2c-3-1.19-4.75-2.69-4.75-4.31v-19a12.21,12.21,0,0,1,3.1-8.15,3,3,0,0,1,.24-.26c-1.9-2.73.17-7.48,4-6.08q7.24,2.64,14.49,5.28C314.49,400.06,313.08,406.61,309.12,406.26Z" transform="translate(-154.05 -247)"/><path class="cls-5" d="M334.86,405.08a12.5,12.5,0,0,1,.28,2.61v19c0,.09,0,.18,0,.28-.2,1.58-2.08,3-5.09,4.18a34.51,34.51,0,0,1-5.38,1.5V406a3.66,3.66,0,0,1-3.37-1.86c-1-1.69-.51-4.46,1.4-5.34,2.29-1,4.58-2.1,6.87-3.15a3.92,3.92,0,0,1,4.29,6.55A12.48,12.48,0,0,1,334.86,405.08Z" transform="translate(-154.05 -247)"/><path class="cls-5" d="M304.24,396.34c-1.76-2.66-5-4.09-9.18-4.09H278.74c-4.17,0-7.43,1.43-9.19,4.09-3.37,5.09,1.92,13.17,2.43,14,.41.62,5.23,7.74,13.22,8.35a47.62,47.62,0,0,0,3.38,0c8-.61,12.82-7.73,13.23-8.35C302.31,409.51,307.61,401.43,304.24,396.34Zm-9.41,9.74a16,16,0,0,1-7.94,8.36,16.15,16.15,0,0,1-7.93-8.36,16,16,0,0,1-.33-10.74l8.26-.08,8.28.08A16,16,0,0,1,294.83,406.08Z" transform="translate(-154.05 -247)"/><path class="cls-5" d="M353.16,365.38a23,23,0,0,0,6.25,2.31,10.79,10.79,0,0,1-11.34,5.95,10.35,10.35,0,0,1-3.83-1.39V356.08a8.71,8.71,0,0,0-.09-1.36,7.55,7.55,0,0,0-.13-.83,54.13,54.13,0,0,0-8.73-4.56q-1.44-.58-2.91-1.08c-.85-.28-1.72-.54-2.59-.78l-.65-.17a47,47,0,0,0-10.89-1.71c-.52,0-1,0-1.56,0s-.95,0-1.43,0-.83,0-1.25.05a37.49,37.49,0,0,0-10.45,1.9,32.05,32.05,0,0,0-3.94,1.63,36.14,36.14,0,0,0-8.27,5.62c-.88.81-1.72,1.65-2.53,2.53h0a2.88,2.88,0,0,1,0,.41v19.52a4.55,4.55,0,0,1-4.55,4.55l-.32,0a4.55,4.55,0,0,1-3.17-1.61h0a4.27,4.27,0,0,1-.92-1.81,4,4,0,0,1-.14-1.1V365.37l.12,0v-2.62l-.12,0v.31a7.43,7.43,0,0,0-1.51-.16,6.9,6.9,0,0,0-2,.3,7.57,7.57,0,0,1-1.43-2.46c-3.24-9.08-1.39-19.81,7-25.38,6.88-4.6,15.71-4.52,23.3-1.61a50.2,50.2,0,0,1,11.44-1.22,64.7,64.7,0,0,1,26.83,6.12,32.62,32.62,0,0,0,7.7-2,33.12,33.12,0,0,0,8.63-5.05,16.43,16.43,0,0,1-2.24,17.82,28.92,28.92,0,0,0,5.13-2.15,14.12,14.12,0,0,1-5.93,15.8,13,13,0,0,1-4.41,1.69C352.49,365,352.82,365.19,353.16,365.38Z" transform="translate(-154.05 -247)"/><path class="cls-5" d="M344.24,356.08v26a10.72,10.72,0,0,1-10.73,10.73H297.77l-.69,0-.39,0-.81-.09-1-.16-.78-.17-.4-.1-.38-.1-.5-.15-.86-.29c-.27-.1-.54-.2-.8-.32l-.49-.22a6.19,6.19,0,0,1-.58-.28l-.22-.1c-.52-.27-1-.57-1.52-.88l-.43-.29c-.19-.12-.38-.26-.56-.4s-.41-.31-.61-.47l-.07-.05-.44-.37-.09-.08-.05-.05c-.08-.06-.15-.14-.23-.21s-.41-.37-.59-.56-.45-.45-.66-.69-.41-.46-.61-.7-.37-.47-.56-.71l-.22-.32c-.33-.46-.64-.94-.93-1.43a20.59,20.59,0,0,1-.94-1.88c-.12-.28-.23-.56-.34-.84s-.17-.46-.25-.7a4.55,4.55,0,0,0,3.17,1.61l.32,0a4.55,4.55,0,0,0,4.55-4.55V357.7a2.88,2.88,0,0,0,0-.41h0c.81-.88,1.65-1.72,2.53-2.53a36.14,36.14,0,0,1,8.27-5.62,32.05,32.05,0,0,1,3.94-1.63,37.49,37.49,0,0,1,10.45-1.9c.42,0,.84,0,1.25-.05s.95,0,1.43,0,1,0,1.56,0a47,47,0,0,1,10.89,1.71l.65.17c.87.24,1.74.5,2.59.78s1.95.69,2.91,1.08a54.13,54.13,0,0,1,8.73,4.56,7.55,7.55,0,0,1,.13.83A8.71,8.71,0,0,1,344.24,356.08Z" transform="translate(-154.05 -247)"/><path class="cls-5" d="M344.24,377v5a10.72,10.72,0,0,1-10.73,10.73H298.39a18.46,18.46,0,0,1-13.74-6.1c7.89-9.69,20.87-16,35.53-16A47.89,47.89,0,0,1,344.24,377Z" transform="translate(-154.05 -247)"/><path class="cls-1" d="M329.79,347.47l-23.14,25.11L289.9,390.77c-.52-.27-1-.57-1.52-.88l-.43-.29c-.19-.12-.38-.26-.56-.4s-.41-.31-.61-.47l-.07-.05-.44-.37-.09-.08-.05-.05c-.08-.06-.15-.14-.23-.21s-.41-.37-.59-.56-.45-.45-.66-.69-.41-.46-.61-.7-.37-.47-.56-.71l-.22-.32c-.33-.46-.64-.94-.93-1.43a20.59,20.59,0,0,1-.94-1.88c-.12-.28-.23-.56-.34-.84s-.17-.46-.25-.7a4.55,4.55,0,0,0,3.17,1.61l.32,0a4.55,4.55,0,0,0,4.55-4.55V357.7a2.88,2.88,0,0,0,0-.41h0c.81-.88,1.65-1.72,2.53-2.53a36.14,36.14,0,0,1,8.27-5.62,32.05,32.05,0,0,1,3.94-1.63,37.49,37.49,0,0,1,10.45-1.9c.42,0,.84,0,1.25-.05s.95,0,1.43,0,1,0,1.56,0a47,47,0,0,1,10.89,1.71Z" transform="translate(-154.05 -247)"/><path class="cls-5" d="M284,381.75l-1.64,1.81a20.59,20.59,0,0,1-.94-1.88l.53-.58A4.46,4.46,0,0,0,284,381.75Z" transform="translate(-154.05 -247)"/><path class="cls-5" d="M316.69,345.55l-27.85,30.8v-2.91l21.36-23.63,3.81-4.2c.42,0,.84,0,1.25-.05S316.21,345.54,316.69,345.55Z" transform="translate(-154.05 -247)"/><path class="cls-5" d="M279.88,378.32a6.9,6.9,0,0,1-1.65.2,7.65,7.65,0,0,1-7.48-7.81,7.75,7.75,0,0,1,5.44-7.5,6.9,6.9,0,0,1,2-.3,7.43,7.43,0,0,1,1.51.16l.12,0v2.3l-.12,0v11.85A4,4,0,0,0,279.88,378.32Z" transform="translate(-154.05 -247)"/><path class="cls-5" d="M354.68,333.48h0c-.39,1.85-2.31,4.08-5.3,6.31l.06-.13a10.18,10.18,0,0,0,.53-1.39,13.41,13.41,0,0,0-1.32-10h0a18,18,0,0,0-7.79-7.55,28.6,28.6,0,0,1-.58,6.33c-.11.58-.25,1.17-.42,1.79a18.23,18.23,0,0,0-.71-1.86c-.05-.1-.09-.2-.13-.29a20.45,20.45,0,0,0-2.67-4.25,19.39,19.39,0,0,0-7.84-5.87,38.38,38.38,0,0,1,1,10.3,34.71,34.71,0,0,1-.61,5.25l-.08.37a30.56,30.56,0,0,1-1,3.79,21.83,21.83,0,0,0-.08-2.8c-.06-.57-.14-1.14-.23-1.7a18.17,18.17,0,0,0-1.5-4.75,12.89,12.89,0,0,0-1-1.81c-.11.52-.25,1.17-.43,1.9a38.75,38.75,0,0,1-4.1,10.21c-.21.35-.43.7-.64,1s-.33.52-.5.76a21,21,0,0,1-6.78,6.51,41.41,41.41,0,0,1-25.6-.29h0c-3-1.69-4.85-3.54-4.84-5.28,0-3.22,6.35-5.9,12.88-7.81l-.16-.1c1.37-.57,9.33-4,11.57-12.17a16.52,16.52,0,0,0,.57-4.93,13.19,13.19,0,0,1,7.08,7.2,25.32,25.32,0,0,0,3.75-5.38,26.49,26.49,0,0,0,2.54-7.46,23.38,23.38,0,0,1,4.49,4.32l0-.26a26.82,26.82,0,0,0-.67-7.85c6.84,1.55,12.1,5.85,14.37,11a23.08,23.08,0,0,0,.57-3.81,25.29,25.29,0,0,0-1.3-9.76c10.69,1.1,18.9,9.57,19.51,19.51A19.46,19.46,0,0,1,354.68,333.48Z" transform="translate(-154.05 -247)"/><path class="cls-5" d="M347.67,351.25c-4.05,2.21-9.21,1-11.05-3.35h0a17.75,17.75,0,0,1-3.49,0,65.85,65.85,0,0,1-16.19,3.2c-11.46.72-23.53-2.1-30-5.71a41.41,41.41,0,0,0,25.6.29,21,21,0,0,0,6.78-6.51c.17-.24.34-.5.5-.76s.43-.67.64-1a38.75,38.75,0,0,0,4.1-10.21c.18-.73.32-1.38.43-1.9a12.89,12.89,0,0,1,1,1.81,18.17,18.17,0,0,1,1.5,4.75c.09.56.17,1.13.23,1.7a21.83,21.83,0,0,1,.08,2.8,30.56,30.56,0,0,0,1-3.79l.08-.37a34.71,34.71,0,0,0,.61-5.25,38.38,38.38,0,0,0-1-10.3,19.39,19.39,0,0,1,7.84,5.87,20.45,20.45,0,0,1,2.67,4.25l-.09.28h.22a18.23,18.23,0,0,1,.71,1.86c.17-.62.31-1.21.42-1.79a28.6,28.6,0,0,0,.58-6.33,18,18,0,0,1,7.79,7.55h0a13.41,13.41,0,0,1,1.32,10,10.18,10.18,0,0,1-.53,1.39l-.06.13a12.77,12.77,0,0,1-3.34,4.28,26.58,26.58,0,0,0,8.14-5.08A13.66,13.66,0,0,1,347.67,351.25Z" transform="translate(-154.05 -247)"/><path class="cls-5" d="M309.64,384.31a48.82,48.82,0,0,1,17.09.37c2.46.49,3.51-3.27,1-3.76a54.63,54.63,0,0,0-19.17-.37c-2.47.38-1.42,4.14,1,3.76Z" transform="translate(-154.05 -247)"/><path class="cls-5" d="M331.28,358.06,344.21,362c4.23,1.27,6-5.34,1.82-6.61l-12.93-3.89c-4.23-1.27-6,5.34-1.82,6.61Z" transform="translate(-154.05 -247)"/><g id="LeftArm"><path class="cls-5" d="M290.41,396.33c-7.7.47-15.28,2.13-21.39,7.06-6.41,5.18-9.69,12.78-12,20.47-1,3.36,1.61,7.05,4.86,7.81,3.62.84,6.78-1.5,7.81-4.86,1.47-4.8,3.46-10.05,7.44-13.33,3.81-3.13,9-3.85,13.74-4.15,8.34-.51,8-13.52-.41-13Z" transform="translate(-154.05 -247)"/><path class="cls-5" d="M290.37,395a31.76,31.76,0,0,0-18.18,4.59c-3.51,2.1-5,7.23-2.64,10.72A8,8,0,0,0,280.27,413c.77-.46,1.56-.88,2.36-1.27-1.61.79.42-.11.65-.19.59-.2,1.2-.38,1.81-.53.2-.06,1.88-.39.76-.22a17.83,17.83,0,0,1,1.78-.16,24.87,24.87,0,0,1,3.23,0c4.09.27,7.85-4.13,7.56-8.05-.35-4.55-3.68-7.26-8.05-7.55Z" transform="translate(-154.05 -247)"/></g><path class="cls-1" d="M329,370.5c-.1-2.37,1.15-5.32,3.89-5.51,3-.19,4.24,3.1,4.11,5.51-.18,3.22,4.82,3.2,5,0,.29-5.23-3.49-10.63-9.11-10.51-5.44.12-9.11,5.43-8.89,10.51.14,3.21,5.14,3.22,5,0Z" transform="translate(-154.05 -247)"/><ellipse class="cls-5" cx="246.95" cy="72.5" rx="32" ry="24.5"/><path class="cls-5" d="M377.16,353.91c12.46-1.76,20.48-14.55,17.25-26.57-.83-3.11-5.66-1.79-4.82,1.32a16.44,16.44,0,0,1-13.75,20.43c-3.18.45-1.83,5.27,1.32,4.82Z" transform="translate(-154.05 -247)"/><path class="cls-1" d="M413.52,311.52a7.21,7.21,0,0,0-10.2,0l-1.82,1.82-1.82-1.82a7.21,7.21,0,0,0-10.2,10.2l1.82,1.82,10.2,10.19,10.2-10.19,1.82-1.82A7.22,7.22,0,0,0,413.52,311.52Z" transform="translate(-154.05 -247)"/><path class="cls-5" d="M221.39,289.09a7.21,7.21,0,0,0-9.71,3.12l-1.18,2.29-2.29-1.18a7.21,7.21,0,1,0-6.6,12.82l2.29,1.18,12.82,6.6,6.6-12.82,1.18-2.29A7.22,7.22,0,0,0,221.39,289.09Z" transform="translate(-154.05 -247)"/><path class="cls-5" d="M224.32,360.8a9,9,0,0,0-11.66-4.94l-3,1.2-1.2-3a9,9,0,1,0-16.6,6.72l1.2,3,6.72,16.6,16.6-6.72,3-1.2A9,9,0,0,0,224.32,360.8Z" transform="translate(-154.05 -247)"/><path class="cls-5" d="M201.55,325.51a6.08,6.08,0,0,0-8.48-1.49l-1.78,1.24L190,323.48a6.08,6.08,0,1,0-10,7l1.24,1.78,7,10,10-7,1.78-1.25A6.08,6.08,0,0,0,201.55,325.51Z" transform="translate(-154.05 -247)"/></g></g></svg>