<svg xmlns="http://www.w3.org/2000/svg" viewBox="0 0 503.94 421.26"><defs><style>.cls-1{fill:#a21d21;}.cls-2{fill:#ef3a25;}.cls-3{fill:#f26843;}.cls-4{fill:#f8a181;}</style></defs><title>Cereal Box Empty</title><g id="CerealBox"><rect class="cls-1" x="34.42" y="0.39" width="86.81" height="420.87"/><rect class="cls-2" x="121.23" y="0.39" width="301" height="420.87"/><polygon class="cls-3" points="422.23 82.97 422.23 255.63 126.5 421.26 121.23 421.26 121.23 251.55 422.23 82.97"/><rect class="cls-4" x="264.92" y="183.37" width="35.21" height="264.16" rx="17.61" transform="translate(-189.72 13.5) rotate(-24.14)"/><path class="cls-1" d="M418.29,401.65a21.21,21.21,0,0,0,2.59-30A28.37,28.37,0,0,0,403.8,340l-.05,0a26.08,26.08,0,0,0-33.09-22.08A30.92,30.92,0,0,0,319.38,312a29.14,29.14,0,0,0-49.19,10.16l-.06,0a28.67,28.67,0,1,0-14.32,55A18.69,18.69,0,0,0,284.32,397a28.33,28.33,0,0,0,48.19,6.7,26.58,26.58,0,0,0,7.9,5,27.47,27.47,0,0,0,4.22,1.33A22.52,22.52,0,0,0,378.57,423a22.55,22.55,0,1,0,39.72-21.35Z" transform="translate(-85.43 -129.61)"/><circle class="cls-3" cx="190.08" cy="227.48" r="19.91"/><circle class="cls-3" cx="261.43" cy="204.46" r="18.61"/><circle class="cls-3" cx="250.2" cy="247.39" r="18.45"/><circle class="cls-3" cx="293.24" cy="252.35" r="14.04"/><circle class="cls-3" cx="307.28" cy="223.34" r="16.88"/><circle class="cls-3" cx="215.98" cy="185.85" r="18.88"/><path class="cls-4" d="M432.55,401.6a108.49,108.49,0,0,1-208.19-61.16Z" transform="translate(-85.43 -129.61)"/><polygon class="cls-1" points="422.23 0.39 503.94 67.69 202.94 67.69 121.23 0.39 422.23 0.39"/><polygon class="cls-2" points="31.3 0 0 65.79 88.02 65.79 119.32 0 31.3 0"/></g></svg>