<svg id="Eggshells" xmlns="http://www.w3.org/2000/svg" viewBox="0 0 510.22 371.26"><defs><style>.cls-1{fill:#c2b092;}.cls-2{fill:#9c8466;}.cls-3{fill:#bb9263;}.cls-4{fill:#f7d5a1;}.cls-5{fill:#c7c8ca;}.cls-6{fill:#fff;}</style></defs><title>Eggshells</title><circle class="cls-1" cx="143.43" cy="148.58" r="109.92"/><circle class="cls-2" cx="363.23" cy="109.92" r="109.92"/><path class="cls-3" d="M525.77,224.41a108.56,108.56,0,0,1-1.24,13.47,109.92,109.92,0,0,1-108.62,93h-.59a109.91,109.91,0,0,1-14.63-218.76A88.68,88.68,0,0,0,525.77,224.41Z" transform="translate(-52.66 -111.61)"/><path class="cls-2" d="M524.53,237.88a109.92,109.92,0,0,1-108.62,93h-.59a86.9,86.9,0,0,1-12.55-10.47,110.05,110.05,0,0,1,121.76-82.55Z" transform="translate(-52.66 -111.61)"/><path class="cls-3" d="M558.94,254.92c1.06.43,2.11.87,3.14,1.33A88.7,88.7,0,0,1,411.34,330.6a110,110,0,0,1,147.6-75.68Z" transform="translate(-52.66 -111.61)"/><path class="cls-4" d="M306,260.19A109.92,109.92,0,1,1,97.8,211c18,18.58,50.12,29.15,85.34,25.58,43.68-4.41,78.27-29.15,85.79-58.64A109.6,109.6,0,0,1,306,260.19Z" transform="translate(-52.66 -111.61)"/><circle class="cls-5" cx="324.54" cy="214.32" r="109.92"/><path class="cls-6" d="M377.19,216a109.9,109.9,0,0,0-109.9,109.24c0,.23,0,.45,0,.68A109.92,109.92,0,1,0,377.19,216ZM415.5,421.85c-15.82,5.57-32.86,6-48.91.1C325.69,406.9,306.64,356.4,324,309.16c.24-.64.48-1.28.73-1.92,17.95-46,64.46-71.21,104.79-56.38,40.89,15.05,59.95,65.55,42.56,112.79C461.54,392.34,440,413.23,415.5,421.85Z" transform="translate(-52.66 -111.61)"/><path class="cls-3" d="M217.43,368a110,110,0,0,1-127.64-79.8c21.81-3.75,48.21.85,72.91,14.51C192,318.89,211.72,343.8,217.43,368Z" transform="translate(-52.66 -111.61)"/><path class="cls-4" d="M52.66,312.27c23-20,65.49-20.61,103.91.63,31,17.12,51.34,44.06,55.6,69.61A109.91,109.91,0,0,1,52.66,312.27Z" transform="translate(-52.66 -111.61)"/><path class="cls-5" d="M415.5,421.85a67.26,67.26,0,0,1-3.35,8.32A110,110,0,0,1,267.28,325.94c0-.23,0-.45,0-.68,15.28-12.86,35.9-19.15,57.46-18a101.73,101.73,0,0,1,45.46,13.68C409,343.3,427.26,386.1,415.5,421.85Z" transform="translate(-52.66 -111.61)"/><ellipse class="cls-6" cx="335.36" cy="400.73" rx="78.89" ry="91.15" transform="translate(-232.02 379.19) rotate(-60)"/><path class="cls-1" d="M165.63,217.74l-23,34.45c-2.13,3.2-.79,8.55,2.69,10.26L189,283.9l-3.44-8.47-7.66,29.69c-2.42,9.35,12,13.34,14.46,4L200,279.42c.78-3-.47-7-3.45-8.47L152.91,249.5l2.69,10.26,23-34.45c5.37-8.05-7.61-15.57-13-7.57Z" transform="translate(-52.66 -111.61)"/><path class="cls-1" d="M183.21,233.31l25.5,32.63c2.48,3.18,8,2.62,10.6,0l34.07-34.71-9.09,1.17L270.07,249c8.14,5.24,15.67-7.74,7.57-13l-25.78-16.59a7.57,7.57,0,0,0-9.08,1.17l-34.07,34.72h10.6L193.82,222.7c-2.52-3.21-8-2.58-10.61,0-3.19,3.12-2.48,7.44,0,10.61Z" transform="translate(-52.66 -111.61)"/><path class="cls-5" d="M350.4,314.58l-37.65,17.26c-3.6,1.65-4.68,7.09-2.69,10.26L336,383.27l1.17-9.08L315,395.43c-7,6.7,3.64,17.3,10.61,10.61l22.1-21.25a7.59,7.59,0,0,0,1.17-9.09L323,334.53l-2.69,10.26L358,327.53c3.71-1.7,4.55-7,2.69-10.26-2.17-3.81-6.6-4.37-10.26-2.69Z" transform="translate(-52.66 -111.61)"/><path class="cls-2" d="M405.39,136l-41.16-4.57c-4-.45-7.58,3.79-7.5,7.5l1,48.63,5.51-7.23-29.89,6.83c-9.4,2.16-5.42,16.62,4,14.47l29.89-6.84a7.57,7.57,0,0,0,5.5-7.23l-1-48.63-7.5,7.5L405.39,151c4,.45,7.5-3.76,7.5-7.5,0-4.42-3.46-7-7.5-7.5Z" transform="translate(-52.66 -111.61)"/></svg>