<svg id="GlassBottle" xmlns="http://www.w3.org/2000/svg" viewBox="0 0 219.55 465.1"><defs><style>.cls-1{fill:#8698cd;}.cls-2{fill:#9ba9d6;}.cls-3{fill:#b1bbdf;}.cls-4{fill:#ced3eb;}.cls-5{fill:#fff;}</style></defs><title>GlassBottle</title><path class="cls-1" d="M0,159.74H219.55a0,0,0,0,1,0,0V409.95A55.15,55.15,0,0,1,164.4,465.1H55.15A55.15,55.15,0,0,1,0,409.95V159.74A0,0,0,0,1,0,159.74Z"/><rect class="cls-1" x="65.36" width="88.83" height="116.43" rx="24.55"/><polygon class="cls-2" points="109.78 21.45 0 159.74 219.55 159.74 109.78 21.45"/><path class="cls-3" d="M19.06,159.74H200.49a0,0,0,0,1,0,0V390.55a55.15,55.15,0,0,1-55.15,55.15H74.21a55.15,55.15,0,0,1-55.15-55.15V159.74A0,0,0,0,1,19.06,159.74Z"/><polygon class="cls-4" points="109.78 46.89 19.06 159.74 200.49 159.74 109.78 46.89"/><path class="cls-3" d="M102.48,15.48h14.59a21,21,0,0,1,21,21v45.6a0,0,0,0,1,0,0H81.48a0,0,0,0,1,0,0V36.49A21,21,0,0,1,102.48,15.48Z"/><path class="cls-5" d="M229.37,303.72V421.17c0,11.77,10.35,23,22.5,22.5s22.5-9.89,22.5-22.5V303.72c0-11.77-10.35-23-22.5-22.5s-22.5,9.89-22.5,22.5Z" transform="translate(-186.51 -118.45)"/></svg>