<svg xmlns="http://www.w3.org/2000/svg" viewBox="0 0 291.15 396.36"><defs><style>.cls-1{fill:#8698cd;}.cls-2{fill:#b1bbdf;}.cls-3{fill:#e2e4f3;}</style></defs><title>Glass Jar</title><g id="Jar"><path class="cls-1" d="M467,265.76V508.93a56.26,56.26,0,0,1-56.3,56.29H232.19a56.26,56.26,0,0,1-56.3-56.29V265.76a96.9,96.9,0,0,1,96.9-96.9h97.36A96.89,96.89,0,0,1,467,265.76Z" transform="translate(-175.89 -168.86)"/><path class="cls-2" d="M110,12.82H181.2a96.89,96.89,0,0,1,96.89,96.89v216a56.3,56.3,0,0,1-56.3,56.3H69.37a56.3,56.3,0,0,1-56.3-56.3v-216A96.89,96.89,0,0,1,110,12.82Z"/><path class="cls-1" d="M465.35,522.65a56.3,56.3,0,0,1-54.61,42.57H232.19a56.31,56.31,0,0,1-54.61-42.57c26-17.3,80.68-29.22,143.89-29.22S439.34,505.35,465.35,522.65Z" transform="translate(-175.89 -168.86)"/><path class="cls-3" d="M200.16,287.23v97.28c0,11.77,10.35,23,22.5,22.5s22.5-9.89,22.5-22.5V287.23c0-11.77-10.35-23-22.5-22.5s-22.5,9.89-22.5,22.5Z" transform="translate(-175.89 -168.86)"/><path class="cls-3" d="M200.16,437.85v5.09a25.12,25.12,0,0,0,6.59,15.91A16.93,16.93,0,0,0,214,463.5a17,17,0,0,0,8.67,1.94l6-.81a22.59,22.59,0,0,0,9.93-5.78l3.52-4.56a22.4,22.4,0,0,0,3.07-11.35v-5.09a21.71,21.71,0,0,0-13.83-20.56,16.9,16.9,0,0,0-8.67-1.94l-6,.8a22.51,22.51,0,0,0-9.93,5.79l-3.52,4.55a22.44,22.44,0,0,0-3.07,11.36Z" transform="translate(-175.89 -168.86)"/><path class="cls-1" d="M245.46,228.09c38.24,26.54,91.75,28.12,133.62,10a106,106,0,0,0,18.4-10c5.54-3.84,8.08-11,4.48-17.1-3.2-5.48-11.53-8.35-17.1-4.48-2.3,1.59-4.68,3.07-7.11,4.45q-3,1.69-6.12,3.2c-1.22.59-2.45,1.14-3.68,1.71s-1.31.57,0,0l-2.13.85a122,122,0,0,1-87.86.32c-.44-.17-4.85-2-2.32-.91-1.27-.57-2.54-1.14-3.79-1.74q-3.21-1.54-6.33-3.28-3.81-2.14-7.42-4.63c-5.54-3.85-13.88-1-17.1,4.48-3.63,6.22-1.08,13.24,4.49,17.1Z" transform="translate(-175.89 -168.86)"/></g></svg>