<svg xmlns="http://www.w3.org/2000/svg" viewBox="0 0 197.62 115.85"><defs><style>.cls-1{fill:#c69b53;}.cls-2{fill:#fcb332;}.cls-3{fill:#ffdeaa;}</style></defs><title>MetalLid</title><g id="MetalLid"><path class="cls-1" d="M388.73,203.18h-.25a11.16,11.16,0,0,1,.24,2.3c0,18.19-44.23,32.93-98.8,32.93s-98.81-14.74-98.81-32.93a11.16,11.16,0,0,1,.24-2.3h-.24V171.86H388.73Z" transform="translate(-191.11 -122.55)"/><rect class="cls-1" y="33.82" width="197.5" height="25.89"/><ellipse class="cls-2" cx="98.81" cy="35.34" rx="98.81" ry="32.94"/><ellipse class="cls-1" cx="98.75" cy="35.34" rx="69.27" ry="23.09"/><path class="cls-3" d="M234.53,133.18a271.81,271.81,0,0,1,114.15.81c3.13.7,4.47-4.12,1.33-4.82a277.92,277.92,0,0,0-116.81-.81c-3.15.65-1.81,5.47,1.33,4.82Z" transform="translate(-191.11 -122.55)"/></g></svg>