<svg id="Can" xmlns="http://www.w3.org/2000/svg" viewBox="0 0 308.12 272.35"><defs><style>.cls-1{fill:#f15523;}.cls-2{fill:#fff;}.cls-3{fill:#7370b2;}.cls-4{fill:#b4b4b4;}.cls-5{fill:#f79421;}</style></defs><title>MetalCan</title><path class="cls-1" d="M400.8,345.34l-185.3.36c-33.92.07-61.32,43.9-61.21,97.9s27.68,97.72,61.59,97.65l185.31-.36c-33.92.07-61.49-43.66-61.6-97.66S366.89,345.4,400.8,345.34Z" transform="translate(-154.29 -268.91)"/><path class="cls-2" d="M215.88,541.25l96.49-.19c-33.91.07-61.49-43.65-61.59-97.65s27.29-97.83,61.21-97.9l-96.49.19c-33.92.07-61.32,43.9-61.21,97.9S182,541.32,215.88,541.25Z" transform="translate(-154.29 -268.91)"/><path class="cls-1" d="M401.19,540.89l-.39-195.55c-33.91.06-61.31,43.9-61.21,97.89S367.27,541,401.19,540.89Z" transform="translate(-154.29 -268.91)"/><path class="cls-3" d="M305.76,389.85c28.5,17.47,94.69,43.3,121.24,5.56,26.67-37.9-27.18-85.1-54-101.51-28.5-17.47-94.69-43.3-121.24-5.56S279.13,373.54,305.76,389.85Z" transform="translate(-154.29 -268.91)"/><ellipse class="cls-4" cx="401" cy="443.11" rx="61.4" ry="97.78" transform="matrix(1, 0, 0, 1, -155.16, -268.12)"/><ellipse class="cls-3" cx="401.49" cy="443.11" rx="54.33" ry="86.51" transform="translate(-155.16 -268.12) rotate(-0.11)"/><ellipse class="cls-5" cx="265.71" cy="508.39" rx="35.64" ry="21.5" transform="translate(-155.28 -268.38) rotate(-0.11)"/></svg>