<svg id="Peanuts" xmlns="http://www.w3.org/2000/svg" viewBox="0 0 530.92 394.28"><defs><style>.cls-1{fill:#8698cd;}.cls-2{fill:#b1bbdf;}</style></defs><title>PackingPeanuts</title><path class="cls-1" d="M196.23,283.65c-8.81-14.23-26.53-21.55-42.36-14.78-15.21,6.5-22.71,26.2-16.1,41.24,7.22,16.44,27.9,18.12,42.1,10.47a19.07,19.07,0,0,1,7.38-2.28,14.61,14.61,0,0,1,8,1.65c4.37,2.33,6.92,5.71,6.26,11.4.13-1.13-.17.73-.23,1s-.8,2.71-.49,1.9a18,18,0,0,1-1.25,2.48s-1.37,2.17-.75,1.32a25.53,25.53,0,0,1-3.74,3.84,23,23,0,0,1-3.49,1.87A16.38,16.38,0,0,1,174.71,340c-8-7.41-20,4.66-11.94,12.12,12.42,11.49,31.1,12.79,44.27,1.79,12.69-10.6,15.6-29.95,4.47-42.67-5.16-5.89-12.83-9-20.49-9.84a31.83,31.83,0,0,0-11.53,1c-3.49,1-7.72,3.51-10.25,4.49a21.88,21.88,0,0,1-2.86.86c.21-.06-2.86.46-1.63.33-.61.06-1.26.08-1.88.08.15,0-2.85-.14-1.5,0a16.06,16.06,0,0,1-4.26-1.13c1.38.6-1.07-.69-1.06-.68-1.6-.85.31.62-.92-.69,0,0-1.81-2.12-.94-.93a12.46,12.46,0,0,1-1.14-2c-.62-1.28.24,1.62-.27-.85,0,.13-.57-2.78-.4-1.43a16.83,16.83,0,0,1,1-7.92,14.63,14.63,0,0,1,6-7.55c.49-.29,1-.55,1.49-.81,1-.44,1-.48.25-.1.54-.19,1.08-.35,1.63-.49s1.11-.27,1.67-.36c-1.27.21,1.76-.08,2.11-.08a18.63,18.63,0,0,1,7.84,2.05,19.58,19.58,0,0,1,7.19,6.87C187.26,301.45,202,293,196.23,283.65Z" transform="translate(-42.6 -191.17)"/><path class="cls-1" d="M253.44,15.38h0A151.66,151.66,0,0,1,405.1,167V394.28a0,0,0,0,1,0,0H101.78a0,0,0,0,1,0,0V167A151.66,151.66,0,0,1,253.44,15.38Z"/><path class="cls-2" d="M382.36,115.62h0A123.15,123.15,0,0,1,505.5,238.77V394.28a0,0,0,0,1,0,0H259.21a0,0,0,0,1,0,0V238.77A123.15,123.15,0,0,1,382.36,115.62Z"/><path class="cls-2" d="M115.84,159.38h0a94.55,94.55,0,0,1,94.55,94.55V394.28a0,0,0,0,1,0,0H21.29a0,0,0,0,1,0,0V253.94A94.55,94.55,0,0,1,115.84,159.38Z"/><path class="cls-2" d="M244.24,250.28c3.26-16.42-4.7-33.86-20.9-39.71-15.56-5.61-34.48,3.68-39.9,19.19-5.93,17,8.05,32.28,23.64,36.37a19.22,19.22,0,0,1,7,3.36,14.69,14.69,0,0,1,4.75,6.68c1.61,4.69,1.16,8.9-3.19,12.61.86-.73-.63.42-.84.56s-2.44,1.44-1.66,1.06a17.25,17.25,0,0,1-2.6,1c.06,0-2.48.65-1.45.46a26,26,0,0,1-5.36.25,23.22,23.22,0,0,1-3.82-1,16.38,16.38,0,0,1-9.82-14.23c-.8-10.88-17.81-10.23-17,.73,1.25,16.87,14,30.56,31.16,31.5,16.51.9,31.84-11.27,32.37-28.16.25-7.83-3.22-15.37-8.27-21.17a31.77,31.77,0,0,0-9.13-7.12c-3.21-1.68-8-2.7-10.56-3.7a22.26,22.26,0,0,1-2.68-1.33c.19.11-2.41-1.62-1.41-.87a16.72,16.72,0,0,1-1.43-1.22c.1.1-2-2.05-1.11-1a16.33,16.33,0,0,1-2.36-3.73c.61,1.38-.31-1.23-.31-1.22-.59-1.72-.19.66-.19-1.13,0-.06.12-2.79-.07-1.33a13.13,13.13,0,0,1,.52-2.21c.42-1.36-.93,1.35.38-.81-.07.11,1.48-2.43.69-1.32a16.92,16.92,0,0,1,6.1-5.14,14.68,14.68,0,0,1,9.53-1.44c.55.12,1.1.28,1.64.43,1,.33,1.08.36.25.09.52.24,1,.49,1.53.76s1,.56,1.47.88c-1.08-.72,1.34,1.14,1.59,1.38a18.49,18.49,0,0,1,4.34,6.85,19.53,19.53,0,0,1,.57,9.92C225.54,257.18,242.1,261,244.24,250.28Z" transform="translate(-42.6 -191.17)"/><path class="cls-2" d="M422.71,286.54c-3.94-16.27-18.5-28.75-35.65-27.25-16.48,1.44-29.74,17.83-28.15,34.18,1.74,17.87,20.87,25.91,36.74,23.07a19.1,19.1,0,0,1,7.72.13,14.58,14.58,0,0,1,7.13,4.06c3.43,3.58,4.79,7.59,2.4,12.79.47-1-.4.64-.53.86s-1.61,2.32-1.05,1.65a19.19,19.19,0,0,1-2,2s-2,1.63-1.13,1a24.94,24.94,0,0,1-4.75,2.48,24.19,24.19,0,0,1-3.9.7,16.41,16.41,0,0,1-14.89-8.79c-5.3-9.54-20.45-1.8-15.11,7.8,8.22,14.78,25.57,21.84,41.5,15.49,15.36-6.12,24.16-23.61,17.54-39.15-3.06-7.21-9.37-12.6-16.4-15.74a32,32,0,0,0-11.28-2.63c-3.61-.17-8.43.94-11.13,1.08a19.92,19.92,0,0,1-3-.08c.22,0-2.86-.45-1.65-.19a18.67,18.67,0,0,1-1.81-.51c.14,0-2.67-1-1.43-.45a16.11,16.11,0,0,1-3.71-2.39c1.13,1-.8-1-.79-1-1.26-1.31.1.69-.65-.94,0-.05-1.06-2.58-.62-1.18a14.12,14.12,0,0,1-.46-2.22c-.19-1.41-.28,1.61,0-.9,0,.13.33-2.82.08-1.48a16.9,16.9,0,0,1,3.37-7.23,14.69,14.69,0,0,1,8-5.31c.56-.12,1.12-.21,1.68-.3,1-.13,1.12-.13.26,0,.57,0,1.14,0,1.71,0s1.13.09,1.7.18c-1.28-.2,1.69.47,2,.58a18.51,18.51,0,0,1,6.82,4.4,19.46,19.46,0,0,1,4.68,8.76C408.63,300.66,425.29,297.2,422.71,286.54Z" transform="translate(-42.6 -191.17)"/><path class="cls-2" d="M257.32,417.76c16.17-4.3,28.33-19.12,26.45-36.24C282,365.07,265.3,352.18,249,354.13c-17.83,2.13-25.45,21.43-22.26,37.23a19,19,0,0,1,0,7.73,14.64,14.64,0,0,1-3.91,7.21c-3.5,3.5-7.48,4.95-12.73,2.67,1,.45-.65-.38-.87-.5s-2.36-1.56-1.68-1a19.18,19.18,0,0,1-2-1.92c.05.05-1.67-1.94-1-1.1a24.76,24.76,0,0,1-2.58-4.7,23.85,23.85,0,0,1-.79-3.88,16.4,16.4,0,0,1,8.46-15.07c9.42-5.51,1.36-20.5-8.13-14.95-14.59,8.54-21.27,26-14.57,41.84,6.45,15.22,24.12,23.63,39.52,16.68,7.14-3.22,12.39-9.65,15.38-16.75a31.9,31.9,0,0,0,2.38-11.33c.09-3.61-1.12-8.4-1.33-11.11a22.8,22.8,0,0,1,0-3c0,.21.39-2.88.15-1.66.12-.61.3-1.23.47-1.82,0,.14,1-2.69.42-1.44a16.36,16.36,0,0,1,2.32-3.76c-1,1.16,1-.82,1-.81,1.27-1.29-.69.12.93-.67,0,0,2.55-1.12,1.16-.64a12.9,12.9,0,0,1,2.21-.52c1.4-.21-1.62-.24.9,0-.14,0,2.82.26,1.48,0a17,17,0,0,1,7.3,3.21,14.64,14.64,0,0,1,5.48,7.93c.14.55.24,1.11.34,1.67.15,1,.16,1.12,0,.26,0,.57,0,1.14,0,1.7a16.2,16.2,0,0,1-.14,1.71c.17-1.28-.43,1.71-.54,2a18.52,18.52,0,0,1-4.24,6.91,19.45,19.45,0,0,1-8.66,4.87C242.89,404,246.71,420.57,257.32,417.76Z" transform="translate(-42.6 -191.17)"/><path class="cls-1" d="M145.53,355.72c-8.23-14.57-25.64-22.61-41.73-16.49C88.33,345.12,80.05,364.5,86,379.79,92.59,396.51,113.18,399,127.68,392a19.15,19.15,0,0,1,7.46-2,14.64,14.64,0,0,1,8,2c4.27,2.51,6.68,6,5.79,11.64.17-1.11-.2.73-.27,1s-.91,2.67-.56,1.88a18.45,18.45,0,0,1-1.35,2.42c0-.05-1.46,2.12-.81,1.29a24.05,24.05,0,0,1-3.9,3.68,24.35,24.35,0,0,1-3.55,1.74,16.38,16.38,0,0,1-16.72-4.4c-7.71-7.72-20.18,3.85-12.42,11.63,11.94,12,30.56,14,44.16,3.58,13.11-10.07,16.8-29.29,6.2-42.45-4.92-6.1-12.46-9.56-20.08-10.66a31.9,31.9,0,0,0-11.56.54c-3.53.83-7.86,3.2-10.42,4.08a22.41,22.41,0,0,1-2.9.74c.22,0-2.88.34-1.64.27-.62,0-1.26,0-1.88,0,.15,0-2.85-.26-1.5,0a16.51,16.51,0,0,1-4.22-1.3c1.36.65-1-.73-1-.72-1.56-.92.29.63-.88-.73,0,0-1.72-2.19-.91-1a12.43,12.43,0,0,1-1.06-2c-.56-1.3.18,1.63-.24-.86,0,.13-.45-2.8-.33-1.45A16.89,16.89,0,0,1,102.3,363a14.79,14.79,0,0,1,6.29-7.31c.5-.27,1-.5,1.53-.74,1-.41,1-.44.25-.1q.82-.24,1.65-.42c.56-.12,1.12-.22,1.69-.29-1.29.16,1.76,0,2.11,0a18.46,18.46,0,0,1,7.75,2.37,19.47,19.47,0,0,1,6.9,7.15C135.84,373.14,150.92,365.27,145.53,355.72Z" transform="translate(-42.6 -191.17)"/><path class="cls-1" d="M245.25,500.86c6.58-15.39,2.38-34.1-12.26-43.17-14.06-8.7-34.49-3.51-43,10.54-9.3,15.36,1.21,33.25,15.63,40.47a19.15,19.15,0,0,1,6.11,4.73A14.6,14.6,0,0,1,215,521c.6,4.91-.7,8.94-5.73,11.67,1-.54-.7.28-.94.38s-2.68.9-1.84.69a19.48,19.48,0,0,1-2.74.41c.06,0-2.57.12-1.52.14a25.11,25.11,0,0,1-5.29-.86,24.76,24.76,0,0,1-3.54-1.77,16.38,16.38,0,0,1-6.66-16c1.46-10.82-15.32-13.69-16.78-2.8-2.27,16.76,7.41,32.8,24,37.25,16,4.29,33.48-4.45,37.49-20.87,1.85-7.61,0-15.71-3.73-22.42a31.93,31.93,0,0,0-7.46-8.86c-2.8-2.3-7.32-4.29-9.57-5.8a19.91,19.91,0,0,1-2.35-1.85c.17.15-2-2.07-1.2-1.14a16.85,16.85,0,0,1-1.15-1.49c.08.12-1.53-2.42-.88-1.22a16,16,0,0,1-1.53-4.13c.31,1.47,0-1.27,0-1.26-.23-1.8-.33.61,0-1.15,0-.05.69-2.7.21-1.31a13.28,13.28,0,0,1,1-2.06c.69-1.24-1.19,1.13.54-.71-.09.1,1.95-2.07.94-1.14a17,17,0,0,1,7-3.78,14.72,14.72,0,0,1,9.63.56c.52.23,1,.5,1.52.76.9.52,1,.57.23.14.46.34.9.69,1.33,1.06s.86.75,1.26,1.16c-.91-.92,1.07,1.39,1.27,1.68a18.41,18.41,0,0,1,2.83,7.6,19.35,19.35,0,0,1-1.49,9.82C225.53,503.75,240.94,510.94,245.25,500.86Z" transform="translate(-42.6 -191.17)"/><path class="cls-1" d="M524.23,496.32c-5.13-15.93-20.57-27.3-37.57-24.54-16.32,2.66-28.33,20-25.54,36.17,3.06,17.69,22.73,24.3,38.35,20.29a18.85,18.85,0,0,1,7.71-.44,14.62,14.62,0,0,1,7.4,3.52c3.69,3.32,5.34,7.21,3.34,12.57.4-1.06-.34.68-.46.9s-1.43,2.44-.93,1.73a18.16,18.16,0,0,1-1.81,2.11s-1.85,1.77-1.05,1.1a25,25,0,0,1-4.55,2.82,23.62,23.62,0,0,1-3.83,1,16.4,16.4,0,0,1-15.5-7.67c-6-9.12-20.54-.28-14.5,8.9,9.29,14.13,27.11,19.89,42.54,12.38,14.86-7.24,22.34-25.33,14.6-40.35-3.6-7-10.29-11.87-17.53-14.47a31.77,31.77,0,0,0-11.44-1.79c-3.62.1-8.34,1.56-11,1.9a21.38,21.38,0,0,1-3,.14c.22,0-2.89-.24-1.66-.07-.61-.08-1.24-.23-1.84-.37.14,0-2.74-.83-1.46-.34a16.18,16.18,0,0,1-3.87-2.12c1.2.91-.87-.92-.87-.92-1.35-1.21.16.68-.72-.89,0-.05-1.24-2.49-.7-1.13a13.31,13.31,0,0,1-.63-2.18c-.29-1.39-.15,1.63-.06-.9,0,.14.12-2.83,0-1.47a16.84,16.84,0,0,1,2.83-7.46,14.65,14.65,0,0,1,7.63-5.89c.54-.17,1.09-.3,1.64-.43,1-.2,1.12-.22.27,0,.56-.05,1.13-.08,1.7-.08a16.36,16.36,0,0,1,1.71,0c-1.29-.1,1.72.34,2.06.43a18.45,18.45,0,0,1,7.12,3.88,19.42,19.42,0,0,1,5.32,8.39C511.24,511.44,527.6,506.76,524.23,496.32Z" transform="translate(-42.6 -191.17)"/><path class="cls-1" d="M408.85,452.67c1.55-16.67-8.18-33.19-24.9-37.33-16.05-4-33.91,7.23-37.7,23.2-4.14,17.48,11.34,31.28,27.28,33.74a19,19,0,0,1,7.26,2.63,14.54,14.54,0,0,1,5.42,6.15c2.09,4.5,2.08,8.73-1.87,12.87.78-.82-.58.48-.78.65s-2.27,1.67-1.53,1.22a17.93,17.93,0,0,1-2.49,1.22c.06,0-2.41.91-1.4.61a25.85,25.85,0,0,1-5.3.8,23.59,23.59,0,0,1-3.91-.6,16.42,16.42,0,0,1-11.24-13.14c-1.92-10.74-18.77-8.34-16.83,2.48,3,16.65,17.11,28.95,34.25,28.1,16.51-.81,30.5-14.49,29.29-31.35-.57-7.81-4.79-15-10.42-20.2a32,32,0,0,0-9.82-6.14c-3.36-1.33-8.28-1.85-10.88-2.59a22.32,22.32,0,0,1-2.8-1c.2.08-2.57-1.36-1.5-.72a18.52,18.52,0,0,1-1.55-1.07c.12.09-2.19-1.83-1.21-.89a16.08,16.08,0,0,1-2.73-3.47c.75,1.31-.43-1.19-.43-1.18-.77-1.64-.12.69-.31-1.1,0-.06-.17-2.78-.2-1.31a13.17,13.17,0,0,1,.28-2.26c.28-1.39-.78,1.44.3-.85-.06.13,1.22-2.56.54-1.37a16.94,16.94,0,0,1,5.54-5.75,14.66,14.66,0,0,1,9.33-2.41c.56.06,1.12.16,1.68.25,1,.22,1.11.24.26.07.54.18,1.07.37,1.6.59s1,.46,1.55.72c-1.15-.59,1.45,1,1.72,1.21a18.66,18.66,0,0,1,5,6.37,19.5,19.5,0,0,1,1.59,9.81C391,461.46,407.84,463.59,408.85,452.67Z" transform="translate(-42.6 -191.17)"/><path class="cls-1" d="M508.42,335.54c1.55-16.66-8.18-33.19-24.89-37.33-16.06-4-33.91,7.23-37.7,23.21-4.15,17.47,11.34,31.28,27.27,33.73a19,19,0,0,1,7.27,2.63,14.67,14.67,0,0,1,5.42,6.15c2.08,4.5,2.07,8.73-1.88,12.87.78-.82-.58.49-.77.65s-2.28,1.68-1.54,1.22a19.19,19.19,0,0,1-2.49,1.23c.06,0-2.4.9-1.4.6a25.19,25.19,0,0,1-5.29.8,23.56,23.56,0,0,1-3.92-.6,16.38,16.38,0,0,1-11.23-13.14c-1.93-10.74-18.77-8.34-16.83,2.48,3,16.65,17.11,28.95,34.24,28.11,16.52-.82,30.51-14.5,29.29-31.36-.56-7.81-4.79-15-10.42-20.2a32,32,0,0,0-9.81-6.14c-3.37-1.33-8.28-1.85-10.89-2.59a21.93,21.93,0,0,1-2.8-1c.2.09-2.56-1.36-1.5-.72-.53-.32-1.05-.7-1.55-1.07.12.09-2.19-1.83-1.21-.89a16.1,16.1,0,0,1-2.72-3.47c.75,1.31-.44-1.19-.44-1.18-.76-1.64-.12.69-.31-1.1,0-.05-.16-2.78-.2-1.31a13.3,13.3,0,0,1,.28-2.26c.28-1.39-.78,1.44.3-.84-.06.12,1.22-2.56.55-1.38a16.79,16.79,0,0,1,5.53-5.74,14.69,14.69,0,0,1,9.33-2.42c.57.06,1.13.16,1.69.26,1,.21,1.1.24.25.06.54.18,1.08.38,1.6.59s1.05.46,1.55.72c-1.15-.59,1.45,1,1.73,1.22a18.39,18.39,0,0,1,5,6.36,19.43,19.43,0,0,1,1.59,9.81C490.53,344.34,507.41,346.46,508.42,335.54Z" transform="translate(-42.6 -191.17)"/><path class="cls-2" d="M106,495.78C100.52,480,84.85,468.91,67.91,472c-16.27,3-27.92,20.55-24.8,36.67,3.42,17.63,23.21,23.83,38.75,19.51a19,19,0,0,1,7.7-.6A14.62,14.62,0,0,1,97,531c3.75,3.24,5.49,7.1,3.59,12.5.38-1.07-.33.68-.44.91s-1.38,2.46-.89,1.74a20.21,20.21,0,0,1-1.77,2.15s-1.82,1.81-1,1.12a25.07,25.07,0,0,1-4.5,2.91,23.34,23.34,0,0,1-3.81,1.06A16.38,16.38,0,0,1,72.54,546c-6.18-9-20.54.13-14.32,9.19,9.57,13.94,27.51,19.33,42.78,11.51,14.72-7.54,21.83-25.77,13.78-40.63C111.05,519.21,104.26,514.44,97,512a31.9,31.9,0,0,0-11.48-1.56c-3.61.18-8.3,1.73-11,2.13a22.83,22.83,0,0,1-3,.2c.22,0-2.9-.18-1.66,0-.62-.08-1.25-.21-1.85-.34.14,0-2.76-.77-1.47-.31a16.61,16.61,0,0,1-3.92-2c1.22.88-.89-.91-.88-.9-1.37-1.18.17.67-.74-.88,0-.05-1.29-2.46-.72-1.11a13.62,13.62,0,0,1-.67-2.17c-.32-1.39-.12,1.63-.08-.9,0,.14.06-2.83-.07-1.47a17,17,0,0,1,2.68-7.52,14.66,14.66,0,0,1,7.51-6c.54-.18,1.09-.32,1.64-.46,1-.22,1.11-.24.26-.05.56-.06,1.13-.1,1.7-.12s1.14,0,1.71,0c-1.29-.07,1.73.31,2.07.39a18.5,18.5,0,0,1,7.2,3.74,19.36,19.36,0,0,1,5.49,8.28C93.29,511.17,109.54,506.16,106,495.78Z" transform="translate(-42.6 -191.17)"/><path class="cls-1" d="M363.74,234.46c4.31-16.17-2.52-34.09-18.3-41-15.17-6.61-34.65,1.45-41.05,16.57-7,16.54,5.95,32.74,21.25,37.82a18.9,18.9,0,0,1,6.72,3.81,14.53,14.53,0,0,1,4.32,7c1.31,4.78.59,8.95-4,12.38.91-.68-.65.38-.87.5s-2.53,1.28-1.72.95a18.9,18.9,0,0,1-2.66.79c.06,0-2.52.49-1.48.36a25.58,25.58,0,0,1-5.36-.09,23.45,23.45,0,0,1-3.75-1.25A16.38,16.38,0,0,1,308,257.48c-.11-10.91-17.12-11.36-17-.37.16,16.92,12,31.4,29.06,33.44,16.42,2,32.5-9.2,34.12-26,.75-7.8-2.22-15.55-6.9-21.66a32,32,0,0,0-8.65-7.7c-3.09-1.87-7.85-3.2-10.3-4.37a22.25,22.25,0,0,1-2.59-1.49c.19.12-2.29-1.77-1.35-1A18.52,18.52,0,0,1,323,227c.1.1-1.86-2.18-1-1.08a15.87,15.87,0,0,1-2.11-3.88c.52,1.42-.23-1.25-.23-1.23-.48-1.75-.24.65-.13-1.14,0-.06.31-2.77,0-1.33a13,13,0,0,1,.65-2.18c.51-1.32-1,1.29.43-.78-.07.11,1.64-2.32.77-1.27a17,17,0,0,1,6.42-4.74,14.69,14.69,0,0,1,9.61-.82c.54.16,1.07.35,1.61.53,1,.39,1.05.43.24.11.51.27,1,.55,1.48.85s.95.63,1.41,1c-1-.78,1.26,1.23,1.5,1.49a18.45,18.45,0,0,1,3.89,7.11,19.58,19.58,0,0,1-.07,9.94C344.63,240.14,360.92,245.06,363.74,234.46Z" transform="translate(-42.6 -191.17)"/><path class="cls-2" d="M555.77,439.51c14.35-8.61,21.92-26.23,15.37-42.16-6.29-15.3-25.89-23.06-41-16.67-16.55,7-18.51,27.65-11.06,41.95a19.12,19.12,0,0,1,2.17,7.41,14.59,14.59,0,0,1-1.75,8c-2.39,4.34-5.81,6.84-11.49,6.11,1.13.14-.73-.19-1-.25s-2.69-.84-1.89-.51a19.76,19.76,0,0,1-2.46-1.28c.05,0-2.15-1.41-1.31-.78a25.23,25.23,0,0,1-3.78-3.79,23,23,0,0,1-1.83-3.51,16.38,16.38,0,0,1,3.94-16.83c7.52-7.91-4.38-20.07-11.95-12.11-11.66,12.26-13.22,30.92-2.4,44.24,10.42,12.84,29.73,16,42.6,5.07,6-5.08,9.23-12.72,10.12-20.36a31.84,31.84,0,0,0-.85-11.54c-.92-3.5-3.41-7.77-4.35-10.31a22,22,0,0,1-.82-2.88c.05.22-.42-2.86-.31-1.63a16.8,16.8,0,0,1-.05-1.88c0,.15.18-2.85,0-1.5a16.08,16.08,0,0,1,1.18-4.25c-.61,1.38.7-1.06.7-1.05.87-1.59-.63.31.7-.9,0,0,2.15-1.78.94-.94a13.32,13.32,0,0,1,2-1.11c1.29-.59-1.63.22.86-.26-.14,0,2.78-.53,1.43-.37a16.94,16.94,0,0,1,7.91,1.06,14.66,14.66,0,0,1,7.46,6.1c.29.49.54,1,.79,1.51.43.95.46,1,.1.24.18.54.33,1.09.47,1.64s.25,1.11.34,1.68c-.2-1.28.05,1.76,0,2.11a18.51,18.51,0,0,1-2.16,7.81,19.5,19.5,0,0,1-7,7.09C538.1,430.29,546.36,445.15,555.77,439.51Z" transform="translate(-42.6 -191.17)"/></svg>