<svg id="PlasticBottle" xmlns="http://www.w3.org/2000/svg" viewBox="0 0 168.73 456.38"><defs><style>.cls-1{fill:#e1e6f4;}.cls-2{fill:#8594ca;}.cls-3{fill:#b7c0e2;}.cls-4{fill:#fff;}</style></defs><title>PlasticBottle</title><path class="cls-1" d="M392.57,416.35c-7.8,8.55-12.94,23.11-12.94,39.64s5.14,31.1,12.94,39.65V576.9a42.31,42.31,0,0,1-42.18,42.18H266a42.31,42.31,0,0,1-42.18-42.18V493.17c6.65-8.73,10.9-22.14,10.9-37.18s-4.25-28.44-10.9-37.17V332.39A42.31,42.31,0,0,1,266,290.22H244.65a11.48,11.48,0,0,1-11.44-11.44v-10a11.37,11.37,0,0,1,1.9-6.29h-1.26a74.36,74.36,0,0,1,148.71,0H381.3a11.37,11.37,0,0,1,1.9,6.29v10a11.48,11.48,0,0,1-11.44,11.44H350.39a42.31,42.31,0,0,1,42.18,42.17Z" transform="translate(-223.84 -162.7)"/><rect class="cls-2" x="34.88" width="98.97" height="36.86" rx="12"/><path class="cls-3" d="M375.57,407.76C368.68,419.9,364.38,437,364.38,456s4.3,36.1,11.19,48.24V571a28.39,28.39,0,0,1-28.31,28.3H269.15A28.39,28.39,0,0,1,240.84,571V502.24c6.26-12,10.1-28.3,10.1-46.25s-3.84-34.25-10.1-46.24V340.36a28.39,28.39,0,0,1,28.31-28.31h78.11a28.39,28.39,0,0,1,28.31,28.31Z" transform="translate(-223.84 -162.7)"/><path class="cls-3" d="M364.07,270.75H252.34c3.26-35.08,27-62.29,55.87-62.29S360.81,235.67,364.07,270.75Z" transform="translate(-223.84 -162.7)"/><rect class="cls-4" x="28.5" y="70.55" width="32.62" height="37.49" rx="16.31"/><rect class="cls-4" x="28.5" y="158.38" width="32.62" height="79.66" rx="16.31"/><rect class="cls-4" x="28.5" y="343.34" width="32.62" height="79.66" rx="16.31"/></svg>