<svg id="SodaCan" xmlns="http://www.w3.org/2000/svg" viewBox="0 0 211.93 448.36"><defs><style>.cls-1{fill:#f16044;}.cls-2{fill:#f48061;}.cls-3{fill:#a53523;}.cls-4{fill:#fabca5;}.cls-5{fill:#fff;}.cls-6{fill:#c7c8ca;}</style></defs><title>SodaCan</title><rect class="cls-1" x="2.83" y="117.46" width="209.11" height="252.77"/><path class="cls-2" d="M413.38,348.66H204.28A56.64,56.64,0,0,1,261,292H356.7c1.9,0,3.77.09,5.62.27A56.7,56.7,0,0,1,413.38,348.66Z" transform="translate(-201.45 -231.19)"/><path class="cls-3" d="M413.38,601.43a56.66,56.66,0,0,1-56.26,56.67H261a56.68,56.68,0,0,1-56.68-56.68Z" transform="translate(-201.45 -231.19)"/><path class="cls-4" d="M316.47,601.43A277.39,277.39,0,0,1,304,658.11H272.23a255.51,255.51,0,0,0,14-56.68,203.23,203.23,0,0,0-.15-52.52c-3.92-28.8-13.13-48.79-22.88-70-10.21-22.15-20.76-45.06-25.6-78.34a240.48,240.48,0,0,1-1.82-51.95,271.91,271.91,0,0,1,9.76-54.56A56.58,56.58,0,0,1,261,292h16.59a249.47,249.47,0,0,0-11.64,56.68,210.53,210.53,0,0,0,1.4,47.63c4.22,29,13.43,49,23.17,70.11,10.24,22.24,20.83,45.23,25.36,78.47A232.27,232.27,0,0,1,316.47,601.43Z" transform="translate(-201.45 -231.19)"/><path class="cls-4" d="M401.16,601.43a269.85,269.85,0,0,1-8.42,43.75,56.38,56.38,0,0,1-35.62,12.92A254.14,254.14,0,0,0,371,601.43a203,203,0,0,0-.24-51.75c-3.93-28.8-13.14-48.79-22.89-70-10.2-22.15-20.76-45.07-25.6-78.35a239.93,239.93,0,0,1-1.76-52.71A273.73,273.73,0,0,1,331,292H356.7c1.9,0,3.77.09,5.62.27a249.54,249.54,0,0,0-11.74,56.41,210.34,210.34,0,0,0,1.34,48.39c4.22,29,13.42,49,23.16,70.12,10.25,22.23,20.84,45.23,25.36,78.46A232,232,0,0,1,401.16,601.43Z" transform="translate(-201.45 -231.19)"/><path class="cls-5" d="M410.55,285.85a15.32,15.32,0,0,1-15.32,15.32H216.77a15.32,15.32,0,1,1,0-30.64H395.23a15.33,15.33,0,0,1,15.32,15.32Z" transform="translate(-201.45 -231.19)"/><rect class="cls-6" x="2.83" y="417.72" width="209.11" height="30.64" rx="15.32"/><path class="cls-5" d="M351.87,301.17H298.25l-44-30.64-16.44-11.44a15.32,15.32,0,1,1,17.5-25.15l52.57,36.59Z" transform="translate(-201.45 -231.19)"/></svg>